<svg width="310" height="117" viewBox="0 0 310 117" fill="none" xmlns="http://www.w3.org/2000/svg">
<path d="M108.619 51.4545V66H106.858V53.3011H106.773L103.222 55.6591V53.8693L106.858 51.4545H108.619ZM117.547 66.1989C116.477 66.1989 115.565 65.9077 114.812 65.3253C114.06 64.7382 113.484 63.8883 113.087 62.7756C112.689 61.6581 112.49 60.3087 112.49 58.7273C112.49 57.1553 112.689 55.813 113.087 54.7003C113.489 53.5829 114.067 52.7306 114.82 52.1435C115.577 51.5516 116.486 51.2557 117.547 51.2557C118.607 51.2557 119.514 51.5516 120.267 52.1435C121.025 52.7306 121.602 53.5829 122 54.7003C122.402 55.813 122.604 57.1553 122.604 58.7273C122.604 60.3087 122.405 61.6581 122.007 62.7756C121.609 63.8883 121.034 64.7382 120.281 65.3253C119.528 65.9077 118.617 66.1989 117.547 66.1989ZM117.547 64.6364C118.607 64.6364 119.431 64.125 120.018 63.1023C120.606 62.0795 120.899 60.6212 120.899 58.7273C120.899 57.4678 120.764 56.3954 120.494 55.5099C120.229 54.6245 119.846 53.9498 119.344 53.4858C118.847 53.0218 118.248 52.7898 117.547 52.7898C116.496 52.7898 115.674 53.3082 115.082 54.3452C114.491 55.3774 114.195 56.8381 114.195 58.7273C114.195 59.9867 114.327 61.0568 114.592 61.9375C114.857 62.8182 115.239 63.4882 115.736 63.9474C116.238 64.4067 116.841 64.6364 117.547 64.6364ZM130.047 66.1989C128.977 66.1989 128.065 65.9077 127.312 65.3253C126.56 64.7382 125.984 63.8883 125.587 62.7756C125.189 61.6581 124.99 60.3087 124.99 58.7273C124.99 57.1553 125.189 55.813 125.587 54.7003C125.989 53.5829 126.567 52.7306 127.32 52.1435C128.077 51.5516 128.986 51.2557 130.047 51.2557C131.107 51.2557 132.014 51.5516 132.767 52.1435C133.525 52.7306 134.102 53.5829 134.5 54.7003C134.902 55.813 135.104 57.1553 135.104 58.7273C135.104 60.3087 134.905 61.6581 134.507 62.7756C134.109 63.8883 133.534 64.7382 132.781 65.3253C132.028 65.9077 131.117 66.1989 130.047 66.1989ZM130.047 64.6364C131.107 64.6364 131.931 64.125 132.518 63.1023C133.106 62.0795 133.399 60.6212 133.399 58.7273C133.399 57.4678 133.264 56.3954 132.994 55.5099C132.729 54.6245 132.346 53.9498 131.844 53.4858C131.347 53.0218 130.748 52.7898 130.047 52.7898C128.996 52.7898 128.174 53.3082 127.582 54.3452C126.991 55.3774 126.695 56.8381 126.695 58.7273C126.695 59.9867 126.827 61.0568 127.092 61.9375C127.357 62.8182 127.739 63.4882 128.236 63.9474C128.738 64.4067 129.341 64.6364 130.047 64.6364ZM142.916 51.4545V66H141.155V53.3011H141.07L137.518 55.6591V53.8693L141.155 51.4545H142.916ZM151.844 66.1989C150.774 66.1989 149.862 65.9077 149.109 65.3253C148.357 64.7382 147.781 63.8883 147.384 62.7756C146.986 61.6581 146.787 60.3087 146.787 58.7273C146.787 57.1553 146.986 55.813 147.384 54.7003C147.786 53.5829 148.364 52.7306 149.116 52.1435C149.874 51.5516 150.783 51.2557 151.844 51.2557C152.904 51.2557 153.811 51.5516 154.564 52.1435C155.321 52.7306 155.899 53.5829 156.297 54.7003C156.699 55.813 156.901 57.1553 156.901 58.7273C156.901 60.3087 156.702 61.6581 156.304 62.7756C155.906 63.8883 155.331 64.7382 154.578 65.3253C153.825 65.9077 152.914 66.1989 151.844 66.1989ZM151.844 64.6364C152.904 64.6364 153.728 64.125 154.315 63.1023C154.902 62.0795 155.196 60.6212 155.196 58.7273C155.196 57.4678 155.061 56.3954 154.791 55.5099C154.526 54.6245 154.143 53.9498 153.641 53.4858C153.143 53.0218 152.545 52.7898 151.844 52.7898C150.793 52.7898 149.971 53.3082 149.379 54.3452C148.787 55.3774 148.491 56.8381 148.491 58.7273C148.491 59.9867 148.624 61.0568 148.889 61.9375C149.154 62.8182 149.536 63.4882 150.033 63.9474C150.535 64.4067 151.138 64.6364 151.844 64.6364ZM164.713 51.4545V66H162.952V53.3011H162.866L159.315 55.6591V53.8693L162.952 51.4545H164.713ZM174.01 51.4545V66H172.249V53.3011H172.163L168.612 55.6591V53.8693L172.249 51.4545H174.01ZM183.307 51.4545V66H181.545V53.3011H181.46L177.909 55.6591V53.8693L181.545 51.4545H183.307ZM192.604 51.4545V66H190.842V53.3011H190.757L187.206 55.6591V53.8693L190.842 51.4545H192.604ZM201.901 51.4545V66H200.139V53.3011H200.054L196.503 55.6591V53.8693L200.139 51.4545H201.901Z" fill="black"/>
<path d="M206.5 71.5C202.167 77 182.6 83.7 171 70.5" stroke="black"/>
<path d="M163.5 71C159.167 76.5 139.6 83.2 128 70" stroke="black"/>
<path d="M119.5 71C115.167 76.5 95.6 83.2 84 70" stroke="black"/>
<path d="M83.25 66.1989C82.1799 66.1989 81.2685 65.9077 80.5156 65.3253C79.7628 64.7382 79.1875 63.8883 78.7898 62.7756C78.392 61.6581 78.1932 60.3087 78.1932 58.7273C78.1932 57.1553 78.392 55.813 78.7898 54.7003C79.1922 53.5829 79.7699 52.7306 80.5227 52.1435C81.2803 51.5516 82.1894 51.2557 83.25 51.2557C84.3106 51.2557 85.2173 51.5516 85.9702 52.1435C86.7277 52.7306 87.3054 53.5829 87.7031 54.7003C88.1056 55.813 88.3068 57.1553 88.3068 58.7273C88.3068 60.3087 88.108 61.6581 87.7102 62.7756C87.3125 63.8883 86.7372 64.7382 85.9844 65.3253C85.2315 65.9077 84.3201 66.1989 83.25 66.1989ZM83.25 64.6364C84.3106 64.6364 85.1345 64.125 85.7216 63.1023C86.3087 62.0795 86.6023 60.6212 86.6023 58.7273C86.6023 57.4678 86.4673 56.3954 86.1974 55.5099C85.9323 54.6245 85.5488 53.9498 85.0469 53.4858C84.5497 53.0218 83.9508 52.7898 83.25 52.7898C82.1989 52.7898 81.3774 53.3082 80.7855 54.3452C80.1937 55.3774 79.8977 56.8381 79.8977 58.7273C79.8977 59.9867 80.0303 61.0568 80.2955 61.9375C80.5606 62.8182 80.9418 63.4882 81.4389 63.9474C81.9408 64.4067 82.5445 64.6364 83.25 64.6364ZM95.75 66.1989C94.6799 66.1989 93.7685 65.9077 93.0156 65.3253C92.2628 64.7382 91.6875 63.8883 91.2898 62.7756C90.892 61.6581 90.6932 60.3087 90.6932 58.7273C90.6932 57.1553 90.892 55.813 91.2898 54.7003C91.6922 53.5829 92.2699 52.7306 93.0227 52.1435C93.7803 51.5516 94.6894 51.2557 95.75 51.2557C96.8106 51.2557 97.7173 51.5516 98.4702 52.1435C99.2277 52.7306 99.8054 53.5829 100.203 54.7003C100.606 55.813 100.807 57.1553 100.807 58.7273C100.807 60.3087 100.608 61.6581 100.21 62.7756C99.8125 63.8883 99.2372 64.7382 98.4844 65.3253C97.7315 65.9077 96.8201 66.1989 95.75 66.1989ZM95.75 64.6364C96.8106 64.6364 97.6345 64.125 98.2216 63.1023C98.8087 62.0795 99.1023 60.6212 99.1023 58.7273C99.1023 57.4678 98.9673 56.3954 98.6974 55.5099C98.4323 54.6245 98.0488 53.9498 97.5469 53.4858C97.0497 53.0218 96.4508 52.7898 95.75 52.7898C94.6989 52.7898 93.8774 53.3082 93.2855 54.3452C92.6937 55.3774 92.3977 56.8381 92.3977 58.7273C92.3977 59.9867 92.5303 61.0568 92.7955 61.9375C93.0606 62.8182 93.4418 63.4882 93.9389 63.9474C94.4408 64.4067 95.0445 64.6364 95.75 64.6364Z" fill="#81BAFC"/>
<path d="M184.761 101V86.4545H193.483V88.017H186.523V92.9318H192.83V94.4943H186.523V101H184.761Z" fill="black"/>
<path d="M145.051 101.199C144.218 101.199 143.467 101.033 142.8 100.702C142.132 100.37 141.597 99.9157 141.195 99.3381C140.792 98.7604 140.572 98.1023 140.534 97.3636H142.239C142.305 98.0218 142.603 98.5663 143.134 98.9972C143.669 99.4233 144.308 99.6364 145.051 99.6364C145.648 99.6364 146.178 99.4967 146.642 99.2173C147.111 98.938 147.478 98.5545 147.743 98.0668C148.013 97.5743 148.148 97.018 148.148 96.3977C148.148 95.7633 148.008 95.1974 147.729 94.7003C147.454 94.1984 147.075 93.803 146.592 93.5142C146.109 93.2254 145.558 93.0786 144.938 93.0739C144.492 93.0691 144.036 93.1378 143.567 93.2798C143.098 93.4171 142.712 93.5947 142.409 93.8125L140.761 93.6136L141.642 86.4545H149.199V88.017H143.119L142.608 92.3068H142.693C142.991 92.0701 143.366 91.8736 143.815 91.7173C144.265 91.5611 144.734 91.483 145.222 91.483C146.112 91.483 146.905 91.696 147.601 92.1222C148.302 92.5436 148.851 93.1212 149.249 93.8551C149.651 94.589 149.852 95.4271 149.852 96.3693C149.852 97.2973 149.644 98.1259 149.227 98.8551C148.815 99.5795 148.247 100.152 147.523 100.574C146.798 100.991 145.974 101.199 145.051 101.199Z" fill="black"/>
<path d="M96.5057 101V99.7216L101.307 94.4659C101.87 93.8504 102.334 93.3153 102.699 92.8608C103.063 92.4015 103.333 91.9706 103.509 91.5682C103.688 91.161 103.778 90.7348 103.778 90.2898C103.778 89.7784 103.655 89.3357 103.409 88.9616C103.168 88.5876 102.836 88.2988 102.415 88.0952C101.993 87.8916 101.52 87.7898 100.994 87.7898C100.436 87.7898 99.9479 87.9058 99.5312 88.1378C99.1193 88.3651 98.7997 88.6847 98.5724 89.0966C98.3499 89.5085 98.2386 89.9915 98.2386 90.5455H96.5625C96.5625 89.6932 96.759 88.9451 97.152 88.3011C97.545 87.6572 98.08 87.1553 98.7571 86.7955C99.4389 86.4356 100.204 86.2557 101.051 86.2557C101.903 86.2557 102.659 86.4356 103.317 86.7955C103.975 87.1553 104.491 87.6406 104.865 88.2514C105.239 88.8622 105.426 89.5417 105.426 90.2898C105.426 90.8248 105.329 91.348 105.135 91.8594C104.946 92.366 104.614 92.9318 104.141 93.5568C103.672 94.1771 103.021 94.9347 102.188 95.8295L98.9205 99.3239V99.4375H105.682V101H96.5057Z" fill="black"/>
</svg>
