<svg width="443" height="325" viewBox="0 0 443 325" fill="none" xmlns="http://www.w3.org/2000/svg">
<path d="M222.354 16.6464C222.158 16.4512 221.842 16.4512 221.646 16.6464L218.464 19.8284C218.269 20.0237 218.269 20.3403 218.464 20.5355C218.66 20.7308 218.976 20.7308 219.172 20.5355L222 17.7071L224.828 20.5355C225.024 20.7308 225.34 20.7308 225.536 20.5355C225.731 20.3403 225.731 20.0237 225.536 19.8284L222.354 16.6464ZM221.5 17V298H222.5V17H221.5Z" fill="black"/>
<path d="M394.854 157.354C395.049 157.158 395.049 156.842 394.854 156.646L391.672 153.464C391.476 153.269 391.16 153.269 390.964 153.464C390.769 153.66 390.769 153.976 390.964 154.172L393.793 157L390.964 159.828C390.769 160.024 390.769 160.34 390.964 160.536C391.16 160.731 391.476 160.731 391.672 160.536L394.854 157.354ZM50 157.5H394.5V156.5H50V157.5Z" fill="black"/>
<path d="M183 173C210.918 135.113 284.204 69.748 354 111.389" stroke="#FBBDBD"/>
<path d="M240.746 164.015C240.813 163.647 241.071 163.221 241.521 162.739C241.971 162.256 242.526 162.01 243.186 162.001C243.521 162.001 243.827 162.08 244.104 162.238C244.382 162.396 244.587 162.594 244.721 162.831C245.123 162.278 245.606 162.001 246.171 162.001C246.525 162.001 246.831 162.098 247.089 162.291C247.347 162.484 247.481 162.743 247.491 163.068C247.491 163.322 247.424 163.528 247.29 163.686C247.156 163.844 247.027 163.941 246.902 163.976C246.778 164.011 246.668 164.028 246.572 164.028C246.391 164.028 246.242 163.98 246.128 163.884C246.013 163.787 245.955 163.66 245.955 163.502C245.955 163.098 246.194 162.822 246.673 162.673C246.568 162.559 246.376 162.502 246.099 162.502C245.974 162.502 245.884 162.51 245.826 162.528C245.463 162.668 245.195 162.958 245.023 163.397C244.449 165.336 244.162 166.468 244.162 166.792C244.162 167.038 244.238 167.214 244.391 167.319C244.544 167.424 244.712 167.477 244.893 167.477C245.247 167.477 245.597 167.332 245.941 167.042C246.285 166.753 246.52 166.398 246.644 165.976C246.673 165.889 246.702 165.84 246.73 165.832C246.759 165.823 246.835 165.814 246.96 165.805H247.017C247.161 165.805 247.232 165.84 247.232 165.911C247.232 165.919 247.223 165.968 247.204 166.055C247.051 166.555 246.754 166.999 246.314 167.385C245.874 167.771 245.362 167.964 244.779 167.964C244.109 167.964 243.602 167.687 243.257 167.135C242.865 167.679 242.416 167.951 241.909 167.951H241.822C241.354 167.951 241.019 167.837 240.818 167.608C240.617 167.38 240.512 167.139 240.502 166.885C240.502 166.604 240.593 166.376 240.775 166.2C240.957 166.025 241.172 165.937 241.421 165.937C241.832 165.937 242.038 166.121 242.038 166.49C242.038 166.665 241.98 166.819 241.866 166.95C241.751 167.082 241.641 167.17 241.535 167.214C241.43 167.257 241.368 167.279 241.349 167.279L241.306 167.293C241.306 167.301 241.335 167.319 241.392 167.345C241.449 167.371 241.526 167.402 241.622 167.437C241.717 167.472 241.808 167.486 241.894 167.477C242.239 167.477 242.535 167.279 242.784 166.885C242.87 166.744 242.98 166.446 243.114 165.989C243.248 165.533 243.382 165.059 243.516 164.568C243.65 164.077 243.726 163.787 243.745 163.699C243.793 163.462 243.817 163.291 243.817 163.186C243.817 162.94 243.745 162.765 243.602 162.66C243.458 162.554 243.296 162.502 243.114 162.502C242.731 162.502 242.373 162.642 242.038 162.923C241.703 163.204 241.469 163.563 241.335 164.002C241.315 164.081 241.292 164.125 241.263 164.134C241.234 164.142 241.158 164.151 241.033 164.16H240.832C240.775 164.107 240.746 164.059 240.746 164.015Z" fill="black"/>
<path d="M249.182 164.35C249.561 163.847 250.078 163.596 250.735 163.596C251.059 163.596 251.384 163.676 251.708 163.838C252.033 163.999 252.297 164.284 252.5 164.694C252.75 165.209 252.875 165.916 252.875 166.816C252.875 167.777 252.73 168.512 252.439 169.021C252.304 169.281 252.118 169.489 251.881 169.644C251.644 169.799 251.438 169.896 251.262 169.933C251.086 169.97 250.914 169.992 250.745 169.998C250.569 169.998 250.393 169.979 250.217 169.942C250.041 169.905 249.835 169.806 249.598 169.644C249.361 169.483 249.175 169.275 249.04 169.021C248.749 168.512 248.604 167.777 248.604 166.816C248.604 165.736 248.797 164.914 249.182 164.35ZM251.465 164.238C251.262 164.039 251.022 163.94 250.745 163.94C250.461 163.94 250.217 164.039 250.014 164.238C249.845 164.399 249.733 164.623 249.679 164.908C249.625 165.193 249.598 165.789 249.598 166.695C249.598 167.675 249.625 168.32 249.679 168.63C249.733 168.94 249.855 169.185 250.045 169.365C250.234 169.551 250.467 169.644 250.745 169.644C251.015 169.644 251.245 169.551 251.435 169.365C251.631 169.179 251.752 168.919 251.8 168.584C251.847 168.249 251.874 167.619 251.881 166.695C251.881 165.795 251.854 165.203 251.8 164.917C251.746 164.632 251.634 164.405 251.465 164.238Z" fill="black"/>
<g clip-path="url(#clip0_30_2)">
<path d="M320.909 164.027C320.991 163.656 321.305 163.228 321.853 162.742C322.401 162.257 323.077 162.009 323.881 162.001C324.289 162.001 324.662 162.08 325 162.239C325.338 162.398 325.589 162.597 325.752 162.835C326.241 162.279 326.83 162.001 327.517 162.001C327.949 162.001 328.322 162.098 328.636 162.292C328.951 162.486 329.114 162.747 329.126 163.073C329.126 163.329 329.044 163.537 328.881 163.696C328.718 163.855 328.561 163.952 328.409 163.987C328.258 164.022 328.124 164.04 328.007 164.04C327.786 164.04 327.605 163.991 327.465 163.894C327.325 163.797 327.255 163.669 327.255 163.51C327.255 163.104 327.547 162.826 328.129 162.676C328.001 162.561 327.768 162.504 327.43 162.504C327.279 162.504 327.168 162.513 327.098 162.53C326.655 162.672 326.329 162.963 326.119 163.404C325.42 165.355 325.07 166.494 325.07 166.821C325.07 167.068 325.163 167.245 325.35 167.351C325.536 167.456 325.74 167.509 325.962 167.509C326.393 167.509 326.818 167.364 327.238 167.072C327.657 166.781 327.943 166.424 328.094 166C328.129 165.912 328.164 165.863 328.199 165.854C328.234 165.845 328.327 165.836 328.479 165.828H328.549C328.724 165.828 328.811 165.863 328.811 165.934C328.811 165.942 328.8 165.991 328.776 166.079C328.59 166.582 328.228 167.028 327.692 167.417C327.156 167.805 326.533 167.999 325.822 167.999C325.006 167.999 324.388 167.721 323.969 167.165C323.491 167.712 322.943 167.986 322.325 167.986H322.22C321.649 167.986 321.241 167.871 320.996 167.642C320.752 167.412 320.624 167.17 320.612 166.914C320.612 166.631 320.723 166.401 320.944 166.225C321.165 166.048 321.428 165.96 321.731 165.96C322.232 165.96 322.483 166.145 322.483 166.516C322.483 166.693 322.413 166.847 322.273 166.98C322.133 167.112 321.999 167.2 321.871 167.245C321.742 167.289 321.667 167.311 321.643 167.311L321.591 167.324C321.591 167.333 321.626 167.351 321.696 167.377C321.766 167.403 321.859 167.434 321.976 167.47C322.092 167.505 322.203 167.518 322.308 167.509C322.727 167.509 323.089 167.311 323.392 166.914C323.496 166.772 323.631 166.472 323.794 166.013C323.957 165.554 324.12 165.077 324.283 164.583C324.446 164.088 324.54 163.797 324.563 163.709C324.621 163.47 324.65 163.298 324.65 163.192C324.65 162.945 324.563 162.769 324.388 162.663C324.213 162.557 324.015 162.504 323.794 162.504C323.327 162.504 322.89 162.645 322.483 162.928C322.075 163.21 321.789 163.572 321.626 164.013C321.603 164.093 321.573 164.137 321.538 164.146C321.503 164.155 321.41 164.164 321.259 164.172H321.014C320.944 164.119 320.909 164.071 320.909 164.027Z" fill="black"/>
</g>
<path d="M210 122L376.5 90" stroke="#A6DFFF"/>
<path d="M189.635 149.321L334.912 61.9086" stroke="#745FF8"/>
<path d="M322.333 100C322.333 101.473 323.527 102.667 325 102.667C326.473 102.667 327.667 101.473 327.667 100C327.667 98.5272 326.473 97.3333 325 97.3333C323.527 97.3333 322.333 98.5272 322.333 100ZM324.5 100V101.027H325.5V100H324.5ZM324.5 103.08V105.134H325.5V103.08H324.5ZM324.5 107.188V109.241H325.5V107.188H324.5ZM324.5 111.295V113.348H325.5V111.295H324.5ZM324.5 115.402V117.455H325.5V115.402H324.5ZM324.5 119.509V121.563H325.5V119.509H324.5ZM324.5 123.616V125.67H325.5V123.616H324.5ZM324.5 127.723V129.777H325.5V127.723H324.5ZM324.5 131.83V133.884H325.5V131.83H324.5ZM324.5 135.938V137.991H325.5V135.938H324.5ZM324.5 140.045V142.098H325.5V140.045H324.5ZM324.5 144.152V146.205H325.5V144.152H324.5ZM324.5 148.259V150.312H325.5V148.259H324.5ZM324.5 152.366V154.42H325.5V152.366H324.5ZM324.5 156.473V157.5H325.5V156.473H324.5Z" fill="#FBBDBD"/>
<path d="M244.333 115C244.333 116.473 245.527 117.667 247 117.667C248.473 117.667 249.667 116.473 249.667 115C249.667 113.527 248.473 112.333 247 112.333C245.527 112.333 244.333 113.527 244.333 115ZM246.5 115V115.966H247.5V115H246.5ZM246.5 117.898V119.83H247.5V117.898H246.5ZM246.5 121.761V123.693H247.5V121.761H246.5ZM246.5 125.625V127.557H247.5V125.625H246.5ZM246.5 129.489V131.42H247.5V129.489H246.5ZM246.5 133.352V135.284H247.5V133.352H246.5ZM246.5 137.216V139.148H247.5V137.216H246.5ZM246.5 141.08V143.011H247.5V141.08H246.5ZM246.5 144.943V146.875H247.5V144.943H246.5ZM246.5 148.807V150.739H247.5V148.807H246.5ZM246.5 152.67V154.602H247.5V152.67H246.5ZM246.5 156.534V157.5H247.5V156.534H246.5Z" fill="#FBBDBD"/>
<defs>
<clipPath id="clip0_30_2">
<rect width="10" height="6" fill="white" transform="translate(320 162)"/>
</clipPath>
</defs>
</svg>
