<svg width="443" height="325" viewBox="0 0 443 325" fill="none" xmlns="http://www.w3.org/2000/svg">
<path d="M110.354 18.6464C110.158 18.4512 109.842 18.4512 109.646 18.6464L106.464 21.8284C106.269 22.0237 106.269 22.3403 106.464 22.5355C106.66 22.7308 106.976 22.7308 107.172 22.5355L110 19.7071L112.828 22.5355C113.024 22.7308 113.34 22.7308 113.536 22.5355C113.731 22.3403 113.731 22.0237 113.536 21.8284L110.354 18.6464ZM110 266H109.5V266.5H110V266ZM378.854 266.354C379.049 266.158 379.049 265.842 378.854 265.646L375.672 262.464C375.476 262.269 375.16 262.269 374.964 262.464C374.769 262.66 374.769 262.976 374.964 263.172L377.793 266L374.964 268.828C374.769 269.024 374.769 269.34 374.964 269.536C375.16 269.731 375.476 269.731 375.672 269.536L378.854 266.354ZM109.5 19V266H110.5V19H109.5ZM110 266.5H378.5V265.5H110V266.5Z" fill="black"/>
<path d="M167.5 257V275" stroke="black"/>
<path d="M307.5 257V275" stroke="black"/>
<rect x="171.5" y="262" width="132" height="9" fill="#FFCCCC"/>
<path d="M232.481 285.97C232.319 286.6 232.283 286.78 231.022 286.78C230.68 286.78 230.5 286.78 230.5 287.104C230.5 287.303 230.608 287.303 230.968 287.303H236.678C240.317 287.303 243.865 283.538 243.865 279.521C243.865 276.927 242.316 275 239.74 275H233.958C233.616 275 233.454 275 233.454 275.342C233.454 275.522 233.616 275.522 233.886 275.522C234.985 275.522 234.985 275.666 234.985 275.865C234.985 275.901 234.985 276.009 234.913 276.279L232.481 285.97ZM236.282 276.225C236.444 275.558 236.516 275.522 237.219 275.522H239.2C240.893 275.522 242.442 276.441 242.442 278.927C242.442 279.827 242.082 282.962 240.335 284.943C239.83 285.537 238.462 286.78 236.39 286.78H234.337C234.084 286.78 234.048 286.78 233.94 286.762C233.742 286.744 233.724 286.708 233.724 286.564C233.724 286.438 233.76 286.33 233.796 286.168L236.282 276.225Z" fill="black"/>
<path d="M190.5 259V274.5" stroke="black"/>
<path d="M194.534 277.594C193.957 277.702 193.741 278.135 193.741 278.477C193.741 278.909 194.083 279.053 194.335 279.053C194.876 279.053 195.254 278.585 195.254 278.099C195.254 277.342 194.389 277 193.633 277C192.534 277 191.922 278.081 191.76 278.423C191.345 277.072 190.229 277 189.904 277C188.067 277 187.094 279.36 187.094 279.756C187.094 279.828 187.166 279.918 187.293 279.918C187.437 279.918 187.473 279.81 187.509 279.738C188.121 277.739 189.328 277.36 189.85 277.36C190.661 277.36 190.823 278.117 190.823 278.549C190.823 278.945 190.715 279.36 190.499 280.224L189.886 282.692C189.616 283.773 189.094 284.763 188.139 284.763C188.049 284.763 187.599 284.763 187.22 284.529C187.869 284.403 188.013 283.863 188.013 283.647C188.013 283.286 187.743 283.07 187.401 283.07C186.968 283.07 186.5 283.448 186.5 284.025C186.5 284.781 187.347 285.124 188.121 285.124C188.986 285.124 189.598 284.439 189.976 283.701C190.265 284.763 191.165 285.124 191.832 285.124C193.669 285.124 194.642 282.764 194.642 282.368C194.642 282.278 194.57 282.206 194.462 282.206C194.299 282.206 194.281 282.296 194.227 282.44C193.741 284.025 192.696 284.763 191.886 284.763C191.255 284.763 190.913 284.295 190.913 283.557C190.913 283.16 190.985 282.872 191.273 281.683L191.904 279.234C192.174 278.153 192.786 277.36 193.615 277.36C193.651 277.36 194.155 277.36 194.534 277.594Z" fill="black"/>
<path d="M42.2509 185.527C41.7646 186.211 41.0621 186.824 40.1795 186.824C39.9634 186.824 39.0988 186.788 38.8286 185.959C38.8826 185.977 38.9727 185.977 39.0087 185.977C39.5491 185.977 39.9093 185.509 39.9093 185.094C39.9093 184.68 39.5671 184.536 39.2969 184.536C39.0087 184.536 38.3783 184.752 38.3783 185.635C38.3783 186.553 39.1528 187.184 40.1795 187.184C41.9808 187.184 43.8 185.527 44.3044 183.527L46.0696 176.503C46.0876 176.412 46.1236 176.304 46.1236 176.196C46.1236 175.926 45.9075 175.746 45.6373 175.746C45.4752 175.746 45.0969 175.818 44.9528 176.358L43.6199 181.654C43.5298 181.978 43.5298 182.014 43.3857 182.212C43.0255 182.717 42.4311 183.329 41.5665 183.329C40.5578 183.329 40.4677 182.339 40.4677 181.852C40.4677 180.825 40.954 179.439 41.4404 178.142C41.6385 177.619 41.7466 177.367 41.7466 177.007C41.7466 176.25 41.2062 175.566 40.3236 175.566C38.6665 175.566 38 178.178 38 178.322C38 178.394 38.072 178.484 38.1981 178.484C38.3602 178.484 38.3783 178.412 38.4503 178.16C38.8826 176.647 39.5671 175.926 40.2696 175.926C40.4317 175.926 40.7379 175.926 40.7379 176.521C40.7379 176.989 40.5398 177.511 40.2696 178.196C39.387 180.555 39.387 181.15 39.387 181.582C39.387 183.293 40.6118 183.689 41.5124 183.689C42.0348 183.689 42.6832 183.527 43.3137 182.861L43.3317 182.879C43.0615 183.942 42.8814 184.644 42.2509 185.527Z" fill="black"/>
<path d="M63.9214 177.673C64.1735 177.673 64.4978 177.673 64.4978 177.349C64.4978 177.007 64.1915 177.007 63.9214 177.007H53.312C53.0599 177.007 52.7356 177.007 52.7356 177.331C52.7356 177.673 53.0418 177.673 53.312 177.673H63.9214ZM63.9214 181.024C64.1735 181.024 64.4978 181.024 64.4978 180.699C64.4978 180.357 64.1915 180.357 63.9214 180.357H53.312C53.0599 180.357 52.7356 180.357 52.7356 180.681C52.7356 181.024 53.0418 181.024 53.312 181.024H63.9214Z" fill="black"/>
<path d="M78.5176 176.268C78.8778 176.268 79.0219 176.268 79.0219 175.926C79.0219 175.746 78.8778 175.746 78.5536 175.746H77.0946C77.4368 173.891 77.689 172.612 77.8331 172.035C77.9412 171.603 78.3194 171.189 78.7878 171.189C79.166 171.189 79.5443 171.351 79.7244 171.513C79.0219 171.585 78.8058 172.107 78.8058 172.414C78.8058 172.774 79.076 172.99 79.4182 172.99C79.7784 172.99 80.3188 172.684 80.3188 171.999C80.3188 171.243 79.5623 170.829 78.7697 170.829C77.9952 170.829 77.2387 171.405 76.8784 172.107C76.5542 172.738 76.3741 173.386 75.9598 175.746H74.753C74.4107 175.746 74.2306 175.746 74.2306 176.07C74.2306 176.268 74.3387 176.268 74.6989 176.268H75.8517C75.5275 177.944 74.789 182.014 74.3747 183.942C74.0685 185.509 73.7983 186.824 72.8977 186.824C72.8436 186.824 72.3213 186.824 71.9971 186.481C72.9157 186.409 72.9157 185.617 72.9157 185.599C72.9157 185.239 72.6455 185.022 72.3033 185.022C71.943 185.022 71.4026 185.329 71.4026 186.013C71.4026 186.788 72.1952 187.184 72.8977 187.184C74.735 187.184 75.4915 183.888 75.6896 182.987C76.0138 181.6 76.8964 176.809 76.9865 176.268H78.5176Z" fill="black"/>
<path d="M86.9547 187.886C86.9547 187.832 86.9547 187.796 86.6485 187.49C84.8472 185.671 83.8385 182.699 83.8385 179.024C83.8385 175.53 84.6851 172.522 86.7745 170.396C86.9547 170.234 86.9547 170.198 86.9547 170.144C86.9547 170.036 86.8646 170 86.7926 170C86.5584 170 85.0814 171.297 84.1988 173.062C83.2801 174.881 82.8658 176.809 82.8658 179.024C82.8658 180.627 83.118 182.771 84.0547 184.698C85.1174 186.86 86.5944 188.03 86.7926 188.03C86.8646 188.03 86.9547 187.994 86.9547 187.886Z" fill="black"/>
<path d="M96.4974 176.16C95.921 176.268 95.7048 176.701 95.7048 177.043C95.7048 177.475 96.047 177.619 96.2992 177.619C96.8396 177.619 97.2179 177.151 97.2179 176.665C97.2179 175.908 96.3533 175.566 95.5967 175.566C94.498 175.566 93.8856 176.647 93.7234 176.989C93.3092 175.638 92.1924 175.566 91.8682 175.566C90.0309 175.566 89.0582 177.925 89.0582 178.322C89.0582 178.394 89.1303 178.484 89.2564 178.484C89.4005 178.484 89.4365 178.376 89.4725 178.304C90.0849 176.304 91.2918 175.926 91.8141 175.926C92.6247 175.926 92.7868 176.683 92.7868 177.115C92.7868 177.511 92.6787 177.925 92.4626 178.79L91.8501 181.258C91.58 182.339 91.0576 183.329 90.1029 183.329C90.0129 183.329 89.5626 183.329 89.1843 183.095C89.8328 182.969 89.9769 182.429 89.9769 182.212C89.9769 181.852 89.7067 181.636 89.3644 181.636C88.9321 181.636 88.4638 182.014 88.4638 182.591C88.4638 183.347 89.3104 183.689 90.0849 183.689C90.9495 183.689 91.5619 183.005 91.9402 182.266C92.2284 183.329 93.129 183.689 93.7955 183.689C95.6328 183.689 96.6054 181.33 96.6054 180.934C96.6054 180.844 96.5334 180.771 96.4253 180.771C96.2632 180.771 96.2452 180.862 96.1911 181.006C95.7048 182.591 94.6601 183.329 93.8495 183.329C93.2191 183.329 92.8769 182.861 92.8769 182.122C92.8769 181.726 92.9489 181.438 93.2371 180.249L93.8675 177.799C94.1377 176.719 94.7502 175.926 95.5787 175.926C95.6147 175.926 96.1191 175.926 96.4974 176.16Z" fill="black"/>
<path d="M103.061 179.024C103.061 177.655 102.881 175.422 101.873 173.332C100.81 171.171 99.3329 170 99.1347 170C99.0627 170 98.9726 170.036 98.9726 170.144C98.9726 170.198 98.9726 170.234 99.2788 170.54C101.08 172.36 102.089 175.332 102.089 179.006C102.089 182.501 101.242 185.509 99.1528 187.634C98.9726 187.796 98.9726 187.832 98.9726 187.886C98.9726 187.994 99.0627 188.03 99.1347 188.03C99.3689 188.03 100.846 186.734 101.729 184.968C102.647 183.131 103.061 181.186 103.061 179.024Z" fill="black"/>
<path d="M111 180H190.5V222.5V260" stroke="black" stroke-dasharray="2 2"/>
<path d="M110 180H106.5H113.5" stroke="black"/>
<path d="M110 266L214.5 155" stroke="black"/>
<path d="M231.537 161.991C231.537 161.829 231.411 161.829 231.375 161.829C231.339 161.829 231.266 161.829 231.122 162.009L229.88 163.504C229.789 163.36 229.429 162.729 228.727 162.315C227.952 161.829 227.178 161.829 226.907 161.829C223.053 161.829 219 165.755 219 170.006C219 172.978 221.053 174.888 223.755 174.888C225.052 174.888 226.691 174.455 227.592 173.321C227.79 174.005 228.186 174.491 228.312 174.491C228.403 174.491 228.421 174.437 228.439 174.437C228.457 174.401 228.601 173.771 228.691 173.447L228.979 172.294C229.123 171.699 229.195 171.447 229.321 170.907C229.501 170.222 229.537 170.168 230.528 170.15C230.6 170.15 230.816 170.15 230.816 169.808C230.816 169.628 230.636 169.628 230.582 169.628C230.276 169.628 229.934 169.664 229.609 169.664H228.637C227.88 169.664 227.088 169.628 226.349 169.628C226.187 169.628 225.971 169.628 225.971 169.952C225.971 170.132 226.115 170.132 226.115 170.15H226.565C227.988 170.15 227.988 170.294 227.988 170.565C227.988 170.583 227.646 172.402 227.304 172.942C226.619 173.951 225.196 174.365 224.134 174.365C222.747 174.365 220.495 173.645 220.495 170.529C220.495 169.322 220.927 166.566 222.675 164.53C223.809 163.234 225.484 162.351 227.07 162.351C229.195 162.351 229.952 164.17 229.952 165.827C229.952 166.116 229.88 166.512 229.88 166.764C229.88 166.926 230.06 166.926 230.114 166.926C230.312 166.926 230.33 166.908 230.402 166.584L231.537 161.991Z" fill="black"/>
<path d="M237.865 178.886C237.865 178.832 237.865 178.796 237.559 178.49C235.758 176.671 234.749 173.699 234.749 170.024C234.749 166.53 235.596 163.522 237.685 161.396C237.865 161.234 237.865 161.198 237.865 161.144C237.865 161.036 237.775 161 237.703 161C237.469 161 235.992 162.297 235.11 164.062C234.191 165.881 233.777 167.809 233.777 170.024C233.777 171.627 234.029 173.771 234.965 175.698C236.028 177.86 237.505 179.03 237.703 179.03C237.775 179.03 237.865 178.994 237.865 178.886Z" fill="black"/>
<path d="M246.904 167.268C247.264 167.268 247.408 167.268 247.408 166.926C247.408 166.746 247.264 166.746 246.94 166.746H245.481C245.823 164.891 246.075 163.612 246.219 163.035C246.327 162.603 246.706 162.189 247.174 162.189C247.552 162.189 247.93 162.351 248.111 162.513C247.408 162.585 247.192 163.107 247.192 163.414C247.192 163.774 247.462 163.99 247.804 163.99C248.165 163.99 248.705 163.684 248.705 162.999C248.705 162.243 247.948 161.829 247.156 161.829C246.381 161.829 245.625 162.405 245.265 163.107C244.94 163.738 244.76 164.386 244.346 166.746H243.139C242.797 166.746 242.617 166.746 242.617 167.07C242.617 167.268 242.725 167.268 243.085 167.268H244.238C243.914 168.944 243.175 173.014 242.761 174.942C242.455 176.509 242.185 177.824 241.284 177.824C241.23 177.824 240.707 177.824 240.383 177.481C241.302 177.409 241.302 176.617 241.302 176.599C241.302 176.239 241.032 176.022 240.689 176.022C240.329 176.022 239.789 176.329 239.789 177.013C239.789 177.788 240.581 178.184 241.284 178.184C243.121 178.184 243.878 174.888 244.076 173.987C244.4 172.6 245.283 167.809 245.373 167.268H246.904Z" fill="black"/>
<path d="M254.566 170.024C254.566 168.655 254.386 166.422 253.378 164.332C252.315 162.171 250.838 161 250.64 161C250.568 161 250.478 161.036 250.478 161.144C250.478 161.198 250.478 161.234 250.784 161.54C252.585 163.36 253.594 166.332 253.594 170.006C253.594 173.501 252.747 176.509 250.658 178.634C250.478 178.796 250.478 178.832 250.478 178.886C250.478 178.994 250.568 179.03 250.64 179.03C250.874 179.03 252.351 177.734 253.233 175.968C254.152 174.131 254.566 172.186 254.566 170.024Z" fill="black"/>
<path d="M372.392 275.545L373.699 277.776L375.006 275.545H375.972L374.21 278.273L375.972 281H375.006L373.699 278.884L372.392 281H371.426L373.159 278.273L371.426 275.545H372.392Z" fill="black"/>
<path d="M97.3068 31.0455C97.1648 31.0455 97.0381 31.0336 96.9268 31.0099C96.8156 30.9886 96.7386 30.9673 96.696 30.946L96.9091 30.2074C97.1127 30.2595 97.2926 30.2784 97.4489 30.2642C97.6051 30.25 97.7436 30.1802 97.8643 30.0547C97.9875 29.9316 98.0999 29.7315 98.2017 29.4545L98.358 29.0284L96.3409 23.5455H97.25L98.7557 27.892H98.8125L100.318 23.5455H101.227L98.9119 29.7955C98.8078 30.0772 98.6787 30.3104 98.5249 30.495C98.371 30.6821 98.1922 30.8205 97.9886 30.9105C97.7874 31.0005 97.5601 31.0455 97.3068 31.0455Z" fill="black"/>
</svg>
