<svg width="608" height="325" viewBox="0 0 608 325" fill="none" xmlns="http://www.w3.org/2000/svg">
<path d="M29.7071 52.2929C29.3166 51.9024 28.6834 51.9024 28.2929 52.2929L21.9289 58.6569C21.5384 59.0474 21.5384 59.6805 21.9289 60.0711C22.3195 60.4616 22.9526 60.4616 23.3431 60.0711L29 54.4142L34.6569 60.0711C35.0474 60.4616 35.6805 60.4616 36.0711 60.0711C36.4616 59.6805 36.4616 59.0474 36.0711 58.6569L29.7071 52.2929ZM29 272H28V273H29V272ZM270.707 272.707C271.098 272.317 271.098 271.683 270.707 271.293L264.343 264.929C263.953 264.538 263.319 264.538 262.929 264.929C262.538 265.319 262.538 265.953 262.929 266.343L268.586 272L262.929 277.657C262.538 278.047 262.538 278.681 262.929 279.071C263.319 279.462 263.953 279.462 264.343 279.071L270.707 272.707ZM28 53V272H30V53H28ZM29 273H270V271H29V273Z" fill="black"/>
<path d="M341.707 52.2929C341.317 51.9024 340.683 51.9024 340.293 52.2929L333.929 58.6569C333.538 59.0474 333.538 59.6805 333.929 60.0711C334.319 60.4616 334.953 60.4616 335.343 60.0711L341 54.4142L346.657 60.0711C347.047 60.4616 347.681 60.4616 348.071 60.0711C348.462 59.6805 348.462 59.0474 348.071 58.6569L341.707 52.2929ZM341 272H340V273H341V272ZM582.707 272.707C583.098 272.317 583.098 271.683 582.707 271.293L576.343 264.929C575.953 264.538 575.319 264.538 574.929 264.929C574.538 265.319 574.538 265.953 574.929 266.343L580.586 272L574.929 277.657C574.538 278.047 574.538 278.681 574.929 279.071C575.319 279.462 575.953 279.462 576.343 279.071L582.707 272.707ZM340 53V272H342V53H340ZM341 273H582V271H341V273Z" fill="black"/>
<path d="M58.5 198.5C58.5 142 122 81 209 130.5C271 165.776 271 100.5 271 76" stroke="#FBBDBD" stroke-width="3"/>
<path d="M579.5 76C579.5 132.5 516 193.5 429 144C367 108.724 367 174 367 198.5" stroke="#FBBDBD" stroke-width="3"/>
<path d="M184 90L42 145.5" stroke="#A6DFFF" stroke-width="2"/>
<path d="M594 130L452 185.5" stroke="#A6DFFF" stroke-width="2"/>
<path d="M78.321 300V289.091H79.642V298.828H84.7131V300H78.321ZM89.9119 300.17C89.1733 300.17 88.5252 299.995 87.9677 299.643C87.4137 299.292 86.9805 298.8 86.668 298.168C86.359 297.536 86.2045 296.797 86.2045 295.952C86.2045 295.099 86.359 294.355 86.668 293.72C86.9805 293.084 87.4137 292.591 87.9677 292.239C88.5252 291.887 89.1733 291.712 89.9119 291.712C90.6506 291.712 91.2969 291.887 91.8509 292.239C92.4084 292.591 92.8416 293.084 93.1506 293.72C93.4631 294.355 93.6193 295.099 93.6193 295.952C93.6193 296.797 93.4631 297.536 93.1506 298.168C92.8416 298.8 92.4084 299.292 91.8509 299.643C91.2969 299.995 90.6506 300.17 89.9119 300.17ZM89.9119 299.041C90.473 299.041 90.9347 298.897 91.2969 298.61C91.6591 298.322 91.9272 297.944 92.1012 297.475C92.2752 297.006 92.3622 296.499 92.3622 295.952C92.3622 295.405 92.2752 294.895 92.1012 294.423C91.9272 293.951 91.6591 293.569 91.2969 293.278C90.9347 292.987 90.473 292.841 89.9119 292.841C89.3509 292.841 88.8892 292.987 88.527 293.278C88.1648 293.569 87.8967 293.951 87.7227 294.423C87.5487 294.895 87.4616 295.405 87.4616 295.952C87.4616 296.499 87.5487 297.006 87.7227 297.475C87.8967 297.944 88.1648 298.322 88.527 298.61C88.8892 298.897 89.3509 299.041 89.9119 299.041ZM98.8621 300.17C98.0951 300.17 97.4346 299.989 96.8806 299.627C96.3266 299.265 95.9005 298.766 95.6022 298.13C95.3039 297.495 95.1547 296.768 95.1547 295.952C95.1547 295.121 95.3074 294.387 95.6128 293.752C95.9218 293.113 96.3515 292.614 96.9019 292.255C97.4559 291.893 98.1022 291.712 98.8408 291.712C99.4161 291.712 99.9346 291.818 100.396 292.031C100.858 292.244 101.236 292.543 101.531 292.926C101.826 293.31 102.008 293.757 102.079 294.268H100.822C100.726 293.896 100.513 293.565 100.183 293.278C99.8564 292.987 99.4161 292.841 98.8621 292.841C98.3721 292.841 97.9424 292.969 97.5731 293.224C97.2073 293.477 96.9214 293.833 96.7155 294.295C96.5131 294.753 96.4118 295.291 96.4118 295.909C96.4118 296.541 96.5113 297.092 96.7101 297.56C96.9126 298.029 97.1966 298.393 97.5624 298.652C97.9317 298.912 98.365 299.041 98.8621 299.041C99.1888 299.041 99.4854 298.984 99.7517 298.871C100.018 298.757 100.244 298.594 100.428 298.381C100.613 298.168 100.744 297.912 100.822 297.614H102.079C102.008 298.097 101.833 298.532 101.552 298.919C101.275 299.302 100.908 299.608 100.449 299.835C99.9949 300.059 99.4658 300.17 98.8621 300.17ZM106.325 300.192C105.806 300.192 105.336 300.094 104.913 299.899C104.491 299.7 104.155 299.414 103.907 299.041C103.658 298.665 103.534 298.21 103.534 297.678C103.534 297.209 103.626 296.829 103.811 296.538C103.995 296.243 104.242 296.012 104.551 295.845C104.86 295.678 105.201 295.554 105.574 295.472C105.95 295.387 106.328 295.32 106.708 295.27C107.206 295.206 107.609 295.158 107.918 295.126C108.23 295.091 108.457 295.032 108.599 294.95C108.745 294.869 108.818 294.727 108.818 294.524V294.482C108.818 293.956 108.674 293.548 108.386 293.256C108.102 292.965 107.671 292.82 107.092 292.82C106.492 292.82 106.021 292.951 105.68 293.214C105.339 293.477 105.1 293.757 104.961 294.055L103.768 293.629C103.981 293.132 104.265 292.745 104.62 292.468C104.979 292.187 105.37 291.992 105.792 291.882C106.218 291.768 106.637 291.712 107.049 291.712C107.312 291.712 107.614 291.744 107.955 291.808C108.299 291.868 108.631 291.994 108.951 292.186C109.274 292.377 109.542 292.667 109.755 293.054C109.968 293.441 110.075 293.96 110.075 294.609V300H108.818V298.892H108.754C108.669 299.07 108.527 299.26 108.328 299.462C108.129 299.664 107.864 299.837 107.534 299.979C107.204 300.121 106.801 300.192 106.325 300.192ZM106.517 299.062C107.014 299.062 107.433 298.965 107.774 298.77C108.118 298.574 108.377 298.322 108.551 298.013C108.729 297.704 108.818 297.379 108.818 297.038V295.888C108.764 295.952 108.647 296.01 108.466 296.064C108.289 296.113 108.083 296.158 107.848 296.197C107.617 296.232 107.392 296.264 107.172 296.293C106.955 296.317 106.779 296.339 106.644 296.357C106.318 296.399 106.012 296.468 105.728 296.564C105.448 296.657 105.22 296.797 105.046 296.985C104.876 297.17 104.791 297.422 104.791 297.741C104.791 298.178 104.952 298.509 105.275 298.732C105.602 298.952 106.016 299.062 106.517 299.062ZM113.626 289.091V300H112.369V289.091H113.626ZM115.929 300V291.818H117.143V293.097H117.25C117.42 292.66 117.696 292.321 118.076 292.079C118.456 291.834 118.912 291.712 119.445 291.712C119.984 291.712 120.434 291.834 120.792 292.079C121.154 292.321 121.437 292.66 121.639 293.097H121.724C121.934 292.674 122.248 292.338 122.667 292.09C123.086 291.838 123.589 291.712 124.175 291.712C124.906 291.712 125.505 291.941 125.97 292.399C126.435 292.853 126.668 293.562 126.668 294.524V300H125.41V294.524C125.41 293.92 125.245 293.489 124.915 293.23C124.585 292.971 124.196 292.841 123.748 292.841C123.173 292.841 122.728 293.015 122.411 293.363C122.095 293.707 121.937 294.144 121.937 294.673V300H120.659V294.396C120.659 293.931 120.508 293.556 120.206 293.272C119.904 292.985 119.516 292.841 119.04 292.841C118.713 292.841 118.408 292.928 118.123 293.102C117.843 293.276 117.616 293.517 117.442 293.826C117.271 294.132 117.186 294.485 117.186 294.886V300H115.929ZM132.396 300.17C131.608 300.17 130.928 299.996 130.356 299.648C129.788 299.297 129.35 298.807 129.041 298.178C128.735 297.546 128.582 296.811 128.582 295.973C128.582 295.135 128.735 294.396 129.041 293.757C129.35 293.114 129.779 292.614 130.33 292.255C130.884 291.893 131.53 291.712 132.269 291.712C132.695 291.712 133.116 291.783 133.531 291.925C133.946 292.067 134.325 292.298 134.666 292.617C135.006 292.933 135.278 293.352 135.481 293.874C135.683 294.396 135.784 295.039 135.784 295.803V296.335H129.477V295.249H134.506C134.506 294.787 134.413 294.375 134.229 294.013C134.048 293.651 133.788 293.365 133.451 293.155C133.117 292.946 132.723 292.841 132.269 292.841C131.768 292.841 131.335 292.965 130.969 293.214C130.607 293.459 130.328 293.778 130.133 294.173C129.937 294.567 129.84 294.989 129.84 295.44V296.165C129.84 296.783 129.946 297.306 130.159 297.736C130.376 298.162 130.676 298.487 131.059 298.711C131.443 298.931 131.889 299.041 132.396 299.041C132.727 299.041 133.025 298.995 133.291 298.903C133.561 298.807 133.794 298.665 133.989 298.477C134.184 298.285 134.335 298.047 134.442 297.763L135.656 298.104C135.528 298.516 135.314 298.878 135.012 299.19C134.71 299.499 134.337 299.741 133.893 299.915C133.449 300.085 132.95 300.17 132.396 300.17ZM138.954 295.078V300H137.696V291.818H138.911V293.097H139.017C139.209 292.681 139.5 292.347 139.891 292.095C140.282 291.839 140.786 291.712 141.404 291.712C141.958 291.712 142.443 291.825 142.858 292.053C143.274 292.276 143.597 292.617 143.828 293.075C144.058 293.53 144.174 294.105 144.174 294.801V300H142.917V294.886C142.917 294.244 142.75 293.743 142.416 293.384C142.082 293.022 141.624 292.841 141.042 292.841C140.64 292.841 140.282 292.928 139.966 293.102C139.653 293.276 139.406 293.53 139.225 293.864C139.044 294.197 138.954 294.602 138.954 295.078ZM150.029 291.818V292.884H145.789V291.818H150.029ZM147.025 289.858H148.282V297.656C148.282 298.011 148.333 298.278 148.436 298.455C148.543 298.629 148.678 298.746 148.841 298.807C149.008 298.864 149.184 298.892 149.369 298.892C149.507 298.892 149.621 298.885 149.71 298.871C149.798 298.853 149.869 298.839 149.923 298.828L150.178 299.957C150.093 299.989 149.974 300.021 149.821 300.053C149.669 300.089 149.475 300.107 149.241 300.107C148.886 300.107 148.538 300.03 148.197 299.877C147.859 299.725 147.579 299.492 147.355 299.18C147.135 298.867 147.025 298.473 147.025 297.997V289.858ZM155.263 300.17C154.474 300.17 153.794 299.996 153.222 299.648C152.654 299.297 152.216 298.807 151.907 298.178C151.601 297.546 151.449 296.811 151.449 295.973C151.449 295.135 151.601 294.396 151.907 293.757C152.216 293.114 152.645 292.614 153.196 292.255C153.75 291.893 154.396 291.712 155.135 291.712C155.561 291.712 155.982 291.783 156.397 291.925C156.813 292.067 157.191 292.298 157.532 292.617C157.873 292.933 158.144 293.352 158.347 293.874C158.549 294.396 158.65 295.039 158.65 295.803V296.335H152.344V295.249H157.372C157.372 294.787 157.28 294.375 157.095 294.013C156.914 293.651 156.655 293.365 156.317 293.155C155.983 292.946 155.589 292.841 155.135 292.841C154.634 292.841 154.201 292.965 153.835 293.214C153.473 293.459 153.194 293.778 152.999 294.173C152.803 294.567 152.706 294.989 152.706 295.44V296.165C152.706 296.783 152.812 297.306 153.025 297.736C153.242 298.162 153.542 298.487 153.926 298.711C154.309 298.931 154.755 299.041 155.263 299.041C155.593 299.041 155.891 298.995 156.157 298.903C156.427 298.807 156.66 298.665 156.855 298.477C157.051 298.285 157.202 298.047 157.308 297.763L158.523 298.104C158.395 298.516 158.18 298.878 157.878 299.19C157.576 299.499 157.203 299.741 156.759 299.915C156.316 300.085 155.817 300.17 155.263 300.17ZM168.105 300.17C167.338 300.17 166.678 299.989 166.124 299.627C165.57 299.265 165.144 298.766 164.845 298.13C164.547 297.495 164.398 296.768 164.398 295.952C164.398 295.121 164.551 294.387 164.856 293.752C165.165 293.113 165.595 292.614 166.145 292.255C166.699 291.893 167.345 291.712 168.084 291.712C168.659 291.712 169.178 291.818 169.639 292.031C170.101 292.244 170.479 292.543 170.774 292.926C171.069 293.31 171.252 293.757 171.323 294.268H170.066C169.97 293.896 169.757 293.565 169.426 293.278C169.1 292.987 168.659 292.841 168.105 292.841C167.615 292.841 167.186 292.969 166.816 293.224C166.45 293.477 166.165 293.833 165.959 294.295C165.756 294.753 165.655 295.291 165.655 295.909C165.655 296.541 165.754 297.092 165.953 297.56C166.156 298.029 166.44 298.393 166.806 298.652C167.175 298.912 167.608 299.041 168.105 299.041C168.432 299.041 168.729 298.984 168.995 298.871C169.261 298.757 169.487 298.594 169.671 298.381C169.856 298.168 169.987 297.912 170.066 297.614H171.323C171.252 298.097 171.076 298.532 170.795 298.919C170.518 299.302 170.151 299.608 169.693 299.835C169.238 300.059 168.709 300.17 168.105 300.17ZM176.484 300.17C175.746 300.17 175.097 299.995 174.54 299.643C173.986 299.292 173.553 298.8 173.24 298.168C172.931 297.536 172.777 296.797 172.777 295.952C172.777 295.099 172.931 294.355 173.24 293.72C173.553 293.084 173.986 292.591 174.54 292.239C175.097 291.887 175.746 291.712 176.484 291.712C177.223 291.712 177.869 291.887 178.423 292.239C178.981 292.591 179.414 293.084 179.723 293.72C180.035 294.355 180.192 295.099 180.192 295.952C180.192 296.797 180.035 297.536 179.723 298.168C179.414 298.8 178.981 299.292 178.423 299.643C177.869 299.995 177.223 300.17 176.484 300.17ZM176.484 299.041C177.045 299.041 177.507 298.897 177.869 298.61C178.231 298.322 178.499 297.944 178.673 297.475C178.847 297.006 178.934 296.499 178.934 295.952C178.934 295.405 178.847 294.895 178.673 294.423C178.499 293.951 178.231 293.569 177.869 293.278C177.507 292.987 177.045 292.841 176.484 292.841C175.923 292.841 175.461 292.987 175.099 293.278C174.737 293.569 174.469 293.951 174.295 294.423C174.121 294.895 174.034 295.405 174.034 295.952C174.034 296.499 174.121 297.006 174.295 297.475C174.469 297.944 174.737 298.322 175.099 298.61C175.461 298.897 175.923 299.041 176.484 299.041ZM183.368 295.078V300H182.111V291.818H183.325V293.097H183.432C183.623 292.681 183.915 292.347 184.305 292.095C184.696 291.839 185.2 291.712 185.818 291.712C186.372 291.712 186.857 291.825 187.272 292.053C187.688 292.276 188.011 292.617 188.242 293.075C188.472 293.53 188.588 294.105 188.588 294.801V300H187.331V294.886C187.331 294.244 187.164 293.743 186.83 293.384C186.496 293.022 186.038 292.841 185.456 292.841C185.054 292.841 184.696 292.928 184.38 293.102C184.067 293.276 183.82 293.53 183.639 293.864C183.458 294.197 183.368 294.602 183.368 295.078ZM194.209 300.17C193.442 300.17 192.781 299.989 192.227 299.627C191.673 299.265 191.247 298.766 190.949 298.13C190.651 297.495 190.501 296.768 190.501 295.952C190.501 295.121 190.654 294.387 190.96 293.752C191.268 293.113 191.698 292.614 192.249 292.255C192.803 291.893 193.449 291.712 194.188 291.712C194.763 291.712 195.281 291.818 195.743 292.031C196.205 292.244 196.583 292.543 196.877 292.926C197.172 293.31 197.355 293.757 197.426 294.268H196.169C196.073 293.896 195.86 293.565 195.53 293.278C195.203 292.987 194.763 292.841 194.209 292.841C193.719 292.841 193.289 292.969 192.92 293.224C192.554 293.477 192.268 293.833 192.062 294.295C191.86 294.753 191.759 295.291 191.759 295.909C191.759 296.541 191.858 297.092 192.057 297.56C192.259 298.029 192.543 298.393 192.909 298.652C193.278 298.912 193.712 299.041 194.209 299.041C194.536 299.041 194.832 298.984 195.098 298.871C195.365 298.757 195.59 298.594 195.775 298.381C195.96 298.168 196.091 297.912 196.169 297.614H197.426C197.355 298.097 197.179 298.532 196.899 298.919C196.622 299.302 196.254 299.608 195.796 299.835C195.342 300.059 194.813 300.17 194.209 300.17ZM201.672 300.192C201.153 300.192 200.683 300.094 200.26 299.899C199.837 299.7 199.502 299.414 199.253 299.041C199.005 298.665 198.88 298.21 198.88 297.678C198.88 297.209 198.973 296.829 199.157 296.538C199.342 296.243 199.589 296.012 199.898 295.845C200.207 295.678 200.548 295.554 200.92 295.472C201.297 295.387 201.675 295.32 202.055 295.27C202.552 295.206 202.955 295.158 203.264 295.126C203.577 295.091 203.804 295.032 203.946 294.95C204.092 294.869 204.164 294.727 204.164 294.524V294.482C204.164 293.956 204.021 293.548 203.733 293.256C203.449 292.965 203.017 292.82 202.439 292.82C201.838 292.82 201.368 292.951 201.027 293.214C200.686 293.477 200.446 293.757 200.308 294.055L199.115 293.629C199.328 293.132 199.612 292.745 199.967 292.468C200.326 292.187 200.716 291.992 201.139 291.882C201.565 291.768 201.984 291.712 202.396 291.712C202.659 291.712 202.961 291.744 203.301 291.808C203.646 291.868 203.978 291.994 204.298 292.186C204.621 292.377 204.889 292.667 205.102 293.054C205.315 293.441 205.422 293.96 205.422 294.609V300H204.164V298.892H204.1C204.015 299.07 203.873 299.26 203.674 299.462C203.475 299.664 203.211 299.837 202.881 299.979C202.55 300.121 202.147 300.192 201.672 300.192ZM201.863 299.062C202.36 299.062 202.779 298.965 203.12 298.77C203.465 298.574 203.724 298.322 203.898 298.013C204.076 297.704 204.164 297.379 204.164 297.038V295.888C204.111 295.952 203.994 296.01 203.813 296.064C203.635 296.113 203.429 296.158 203.195 296.197C202.964 296.232 202.739 296.264 202.518 296.293C202.302 296.317 202.126 296.339 201.991 296.357C201.664 296.399 201.359 296.468 201.075 296.564C200.794 296.657 200.567 296.797 200.393 296.985C200.223 297.17 200.137 297.422 200.137 297.741C200.137 298.178 200.299 298.509 200.622 298.732C200.949 298.952 201.363 299.062 201.863 299.062ZM214.113 291.818L211.088 300H209.809L206.784 291.818H208.147L210.406 298.338H210.491L212.75 291.818H214.113ZM217.931 300.192C217.413 300.192 216.942 300.094 216.52 299.899C216.097 299.7 215.762 299.414 215.513 299.041C215.264 298.665 215.14 298.21 215.14 297.678C215.14 297.209 215.232 296.829 215.417 296.538C215.602 296.243 215.849 296.012 216.157 295.845C216.466 295.678 216.807 295.554 217.18 295.472C217.557 295.387 217.935 295.32 218.315 295.27C218.812 295.206 219.215 295.158 219.524 295.126C219.836 295.091 220.064 295.032 220.206 294.95C220.351 294.869 220.424 294.727 220.424 294.524V294.482C220.424 293.956 220.28 293.548 219.993 293.256C219.709 292.965 219.277 292.82 218.698 292.82C218.098 292.82 217.628 292.951 217.287 293.214C216.946 293.477 216.706 293.757 216.568 294.055L215.374 293.629C215.588 293.132 215.872 292.745 216.227 292.468C216.585 292.187 216.976 291.992 217.399 291.882C217.825 291.768 218.244 291.712 218.656 291.712C218.919 291.712 219.22 291.744 219.561 291.808C219.906 291.868 220.238 291.994 220.557 292.186C220.881 292.377 221.149 292.667 221.362 293.054C221.575 293.441 221.681 293.96 221.681 294.609V300H220.424V298.892H220.36C220.275 299.07 220.133 299.26 219.934 299.462C219.735 299.664 219.471 299.837 219.14 299.979C218.81 300.121 218.407 300.192 217.931 300.192ZM218.123 299.062C218.62 299.062 219.039 298.965 219.38 298.77C219.725 298.574 219.984 298.322 220.158 298.013C220.335 297.704 220.424 297.379 220.424 297.038V295.888C220.371 295.952 220.254 296.01 220.073 296.064C219.895 296.113 219.689 296.158 219.455 296.197C219.224 296.232 218.998 296.264 218.778 296.293C218.562 296.317 218.386 296.339 218.251 296.357C217.924 296.399 217.619 296.468 217.335 296.564C217.054 296.657 216.827 296.797 216.653 296.985C216.482 297.17 216.397 297.422 216.397 297.741C216.397 298.178 216.559 298.509 216.882 298.732C217.209 298.952 217.622 299.062 218.123 299.062Z" fill="black"/>
<path d="M385.321 300V289.091H386.642V298.828H391.713V300H385.321ZM396.912 300.17C396.173 300.17 395.525 299.995 394.968 299.643C394.414 299.292 393.98 298.8 393.668 298.168C393.359 297.536 393.205 296.797 393.205 295.952C393.205 295.099 393.359 294.355 393.668 293.72C393.98 293.084 394.414 292.591 394.968 292.239C395.525 291.887 396.173 291.712 396.912 291.712C397.651 291.712 398.297 291.887 398.851 292.239C399.408 292.591 399.842 293.084 400.151 293.72C400.463 294.355 400.619 295.099 400.619 295.952C400.619 296.797 400.463 297.536 400.151 298.168C399.842 298.8 399.408 299.292 398.851 299.643C398.297 299.995 397.651 300.17 396.912 300.17ZM396.912 299.041C397.473 299.041 397.935 298.897 398.297 298.61C398.659 298.322 398.927 297.944 399.101 297.475C399.275 297.006 399.362 296.499 399.362 295.952C399.362 295.405 399.275 294.895 399.101 294.423C398.927 293.951 398.659 293.569 398.297 293.278C397.935 292.987 397.473 292.841 396.912 292.841C396.351 292.841 395.889 292.987 395.527 293.278C395.165 293.569 394.897 293.951 394.723 294.423C394.549 294.895 394.462 295.405 394.462 295.952C394.462 296.499 394.549 297.006 394.723 297.475C394.897 297.944 395.165 298.322 395.527 298.61C395.889 298.897 396.351 299.041 396.912 299.041ZM405.862 300.17C405.095 300.17 404.435 299.989 403.881 299.627C403.327 299.265 402.9 298.766 402.602 298.13C402.304 297.495 402.155 296.768 402.155 295.952C402.155 295.121 402.307 294.387 402.613 293.752C402.922 293.113 403.351 292.614 403.902 292.255C404.456 291.893 405.102 291.712 405.841 291.712C406.416 291.712 406.935 291.818 407.396 292.031C407.858 292.244 408.236 292.543 408.531 292.926C408.826 293.31 409.008 293.757 409.079 294.268H407.822C407.726 293.896 407.513 293.565 407.183 293.278C406.856 292.987 406.416 292.841 405.862 292.841C405.372 292.841 404.942 292.969 404.573 293.224C404.207 293.477 403.921 293.833 403.715 294.295C403.513 294.753 403.412 295.291 403.412 295.909C403.412 296.541 403.511 297.092 403.71 297.56C403.913 298.029 404.197 298.393 404.562 298.652C404.932 298.912 405.365 299.041 405.862 299.041C406.189 299.041 406.485 298.984 406.752 298.871C407.018 298.757 407.244 298.594 407.428 298.381C407.613 298.168 407.744 297.912 407.822 297.614H409.079C409.008 298.097 408.833 298.532 408.552 298.919C408.275 299.302 407.908 299.608 407.449 299.835C406.995 300.059 406.466 300.17 405.862 300.17ZM413.325 300.192C412.806 300.192 412.336 300.094 411.913 299.899C411.491 299.7 411.155 299.414 410.907 299.041C410.658 298.665 410.534 298.21 410.534 297.678C410.534 297.209 410.626 296.829 410.811 296.538C410.995 296.243 411.242 296.012 411.551 295.845C411.86 295.678 412.201 295.554 412.574 295.472C412.95 295.387 413.328 295.32 413.708 295.27C414.206 295.206 414.609 295.158 414.918 295.126C415.23 295.091 415.457 295.032 415.599 294.95C415.745 294.869 415.818 294.727 415.818 294.524V294.482C415.818 293.956 415.674 293.548 415.386 293.256C415.102 292.965 414.671 292.82 414.092 292.82C413.492 292.82 413.021 292.951 412.68 293.214C412.339 293.477 412.1 293.757 411.961 294.055L410.768 293.629C410.981 293.132 411.265 292.745 411.62 292.468C411.979 292.187 412.37 291.992 412.792 291.882C413.218 291.768 413.637 291.712 414.049 291.712C414.312 291.712 414.614 291.744 414.955 291.808C415.299 291.868 415.631 291.994 415.951 292.186C416.274 292.377 416.542 292.667 416.755 293.054C416.968 293.441 417.075 293.96 417.075 294.609V300H415.818V298.892H415.754C415.669 299.07 415.527 299.26 415.328 299.462C415.129 299.664 414.864 299.837 414.534 299.979C414.204 300.121 413.801 300.192 413.325 300.192ZM413.517 299.062C414.014 299.062 414.433 298.965 414.774 298.77C415.118 298.574 415.377 298.322 415.551 298.013C415.729 297.704 415.818 297.379 415.818 297.038V295.888C415.764 295.952 415.647 296.01 415.466 296.064C415.289 296.113 415.083 296.158 414.848 296.197C414.617 296.232 414.392 296.264 414.172 296.293C413.955 296.317 413.779 296.339 413.644 296.357C413.318 296.399 413.012 296.468 412.728 296.564C412.448 296.657 412.22 296.797 412.046 296.985C411.876 297.17 411.791 297.422 411.791 297.741C411.791 298.178 411.952 298.509 412.275 298.732C412.602 298.952 413.016 299.062 413.517 299.062ZM420.626 289.091V300H419.369V289.091H420.626ZM422.929 300V291.818H424.143V293.097H424.25C424.42 292.66 424.696 292.321 425.076 292.079C425.456 291.834 425.912 291.712 426.445 291.712C426.984 291.712 427.434 291.834 427.792 292.079C428.154 292.321 428.437 292.66 428.639 293.097H428.724C428.934 292.674 429.248 292.338 429.667 292.09C430.086 291.838 430.589 291.712 431.175 291.712C431.906 291.712 432.505 291.941 432.97 292.399C433.435 292.853 433.668 293.562 433.668 294.524V300H432.41V294.524C432.41 293.92 432.245 293.489 431.915 293.23C431.585 292.971 431.196 292.841 430.748 292.841C430.173 292.841 429.728 293.015 429.411 293.363C429.095 293.707 428.937 294.144 428.937 294.673V300H427.659V294.396C427.659 293.931 427.508 293.556 427.206 293.272C426.904 292.985 426.516 292.841 426.04 292.841C425.713 292.841 425.408 292.928 425.123 293.102C424.843 293.276 424.616 293.517 424.442 293.826C424.271 294.132 424.186 294.485 424.186 294.886V300H422.929ZM439.396 300.17C438.608 300.17 437.928 299.996 437.356 299.648C436.788 299.297 436.35 298.807 436.041 298.178C435.735 297.546 435.582 296.811 435.582 295.973C435.582 295.135 435.735 294.396 436.041 293.757C436.35 293.114 436.779 292.614 437.33 292.255C437.884 291.893 438.53 291.712 439.269 291.712C439.695 291.712 440.116 291.783 440.531 291.925C440.946 292.067 441.325 292.298 441.666 292.617C442.006 292.933 442.278 293.352 442.481 293.874C442.683 294.396 442.784 295.039 442.784 295.803V296.335H436.477V295.249H441.506C441.506 294.787 441.413 294.375 441.229 294.013C441.048 293.651 440.788 293.365 440.451 293.155C440.117 292.946 439.723 292.841 439.269 292.841C438.768 292.841 438.335 292.965 437.969 293.214C437.607 293.459 437.328 293.778 437.133 294.173C436.937 294.567 436.84 294.989 436.84 295.44V296.165C436.84 296.783 436.946 297.306 437.159 297.736C437.376 298.162 437.676 298.487 438.059 298.711C438.443 298.931 438.889 299.041 439.396 299.041C439.727 299.041 440.025 298.995 440.291 298.903C440.561 298.807 440.794 298.665 440.989 298.477C441.184 298.285 441.335 298.047 441.442 297.763L442.656 298.104C442.528 298.516 442.314 298.878 442.012 299.19C441.71 299.499 441.337 299.741 440.893 299.915C440.449 300.085 439.95 300.17 439.396 300.17ZM445.954 295.078V300H444.696V291.818H445.911V293.097H446.017C446.209 292.681 446.5 292.347 446.891 292.095C447.282 291.839 447.786 291.712 448.404 291.712C448.958 291.712 449.443 291.825 449.858 292.053C450.274 292.276 450.597 292.617 450.828 293.075C451.058 293.53 451.174 294.105 451.174 294.801V300H449.917V294.886C449.917 294.244 449.75 293.743 449.416 293.384C449.082 293.022 448.624 292.841 448.042 292.841C447.64 292.841 447.282 292.928 446.966 293.102C446.653 293.276 446.406 293.53 446.225 293.864C446.044 294.197 445.954 294.602 445.954 295.078ZM457.029 291.818V292.884H452.789V291.818H457.029ZM454.025 289.858H455.282V297.656C455.282 298.011 455.333 298.278 455.436 298.455C455.543 298.629 455.678 298.746 455.841 298.807C456.008 298.864 456.184 298.892 456.369 298.892C456.507 298.892 456.621 298.885 456.71 298.871C456.798 298.853 456.869 298.839 456.923 298.828L457.178 299.957C457.093 299.989 456.974 300.021 456.821 300.053C456.669 300.089 456.475 300.107 456.241 300.107C455.886 300.107 455.538 300.03 455.197 299.877C454.859 299.725 454.579 299.492 454.355 299.18C454.135 298.867 454.025 298.473 454.025 297.997V289.858ZM462.263 300.17C461.474 300.17 460.794 299.996 460.222 299.648C459.654 299.297 459.216 298.807 458.907 298.178C458.601 297.546 458.449 296.811 458.449 295.973C458.449 295.135 458.601 294.396 458.907 293.757C459.216 293.114 459.645 292.614 460.196 292.255C460.75 291.893 461.396 291.712 462.135 291.712C462.561 291.712 462.982 291.783 463.397 291.925C463.813 292.067 464.191 292.298 464.532 292.617C464.873 292.933 465.144 293.352 465.347 293.874C465.549 294.396 465.65 295.039 465.65 295.803V296.335H459.344V295.249H464.372C464.372 294.787 464.28 294.375 464.095 294.013C463.914 293.651 463.655 293.365 463.317 293.155C462.983 292.946 462.589 292.841 462.135 292.841C461.634 292.841 461.201 292.965 460.835 293.214C460.473 293.459 460.194 293.778 459.999 294.173C459.803 294.567 459.706 294.989 459.706 295.44V296.165C459.706 296.783 459.812 297.306 460.025 297.736C460.242 298.162 460.542 298.487 460.926 298.711C461.309 298.931 461.755 299.041 462.263 299.041C462.593 299.041 462.891 298.995 463.157 298.903C463.427 298.807 463.66 298.665 463.855 298.477C464.051 298.285 464.202 298.047 464.308 297.763L465.523 298.104C465.395 298.516 465.18 298.878 464.878 299.19C464.576 299.499 464.203 299.741 463.759 299.915C463.316 300.085 462.817 300.17 462.263 300.17ZM475.105 300.17C474.338 300.17 473.678 299.989 473.124 299.627C472.57 299.265 472.144 298.766 471.845 298.13C471.547 297.495 471.398 296.768 471.398 295.952C471.398 295.121 471.551 294.387 471.856 293.752C472.165 293.113 472.595 292.614 473.145 292.255C473.699 291.893 474.345 291.712 475.084 291.712C475.659 291.712 476.178 291.818 476.639 292.031C477.101 292.244 477.479 292.543 477.774 292.926C478.069 293.31 478.252 293.757 478.323 294.268H477.066C476.97 293.896 476.757 293.565 476.426 293.278C476.1 292.987 475.659 292.841 475.105 292.841C474.615 292.841 474.186 292.969 473.816 293.224C473.45 293.477 473.165 293.833 472.959 294.295C472.756 294.753 472.655 295.291 472.655 295.909C472.655 296.541 472.754 297.092 472.953 297.56C473.156 298.029 473.44 298.393 473.806 298.652C474.175 298.912 474.608 299.041 475.105 299.041C475.432 299.041 475.729 298.984 475.995 298.871C476.261 298.757 476.487 298.594 476.671 298.381C476.856 298.168 476.987 297.912 477.066 297.614H478.323C478.252 298.097 478.076 298.532 477.795 298.919C477.518 299.302 477.151 299.608 476.693 299.835C476.238 300.059 475.709 300.17 475.105 300.17ZM483.484 300.17C482.746 300.17 482.097 299.995 481.54 299.643C480.986 299.292 480.553 298.8 480.24 298.168C479.931 297.536 479.777 296.797 479.777 295.952C479.777 295.099 479.931 294.355 480.24 293.72C480.553 293.084 480.986 292.591 481.54 292.239C482.097 291.887 482.746 291.712 483.484 291.712C484.223 291.712 484.869 291.887 485.423 292.239C485.981 292.591 486.414 293.084 486.723 293.72C487.035 294.355 487.192 295.099 487.192 295.952C487.192 296.797 487.035 297.536 486.723 298.168C486.414 298.8 485.981 299.292 485.423 299.643C484.869 299.995 484.223 300.17 483.484 300.17ZM483.484 299.041C484.045 299.041 484.507 298.897 484.869 298.61C485.231 298.322 485.499 297.944 485.673 297.475C485.847 297.006 485.934 296.499 485.934 295.952C485.934 295.405 485.847 294.895 485.673 294.423C485.499 293.951 485.231 293.569 484.869 293.278C484.507 292.987 484.045 292.841 483.484 292.841C482.923 292.841 482.461 292.987 482.099 293.278C481.737 293.569 481.469 293.951 481.295 294.423C481.121 294.895 481.034 295.405 481.034 295.952C481.034 296.499 481.121 297.006 481.295 297.475C481.469 297.944 481.737 298.322 482.099 298.61C482.461 298.897 482.923 299.041 483.484 299.041ZM490.368 295.078V300H489.111V291.818H490.325V293.097H490.432C490.623 292.681 490.915 292.347 491.305 292.095C491.696 291.839 492.2 291.712 492.818 291.712C493.372 291.712 493.857 291.825 494.272 292.053C494.688 292.276 495.011 292.617 495.242 293.075C495.472 293.53 495.588 294.105 495.588 294.801V300H494.331V294.886C494.331 294.244 494.164 293.743 493.83 293.384C493.496 293.022 493.038 292.841 492.456 292.841C492.054 292.841 491.696 292.928 491.38 293.102C491.067 293.276 490.82 293.53 490.639 293.864C490.458 294.197 490.368 294.602 490.368 295.078ZM504.282 291.818L501.257 300H499.978L496.953 291.818H498.316L500.575 298.338H500.66L502.919 291.818H504.282ZM509.079 300.17C508.291 300.17 507.611 299.996 507.039 299.648C506.471 299.297 506.032 298.807 505.723 298.178C505.418 297.546 505.265 296.811 505.265 295.973C505.265 295.135 505.418 294.396 505.723 293.757C506.032 293.114 506.462 292.614 507.012 292.255C507.566 291.893 508.213 291.712 508.951 291.712C509.377 291.712 509.798 291.783 510.214 291.925C510.629 292.067 511.007 292.298 511.348 292.617C511.689 292.933 511.961 293.352 512.163 293.874C512.366 294.396 512.467 295.039 512.467 295.803V296.335H506.16V295.249H511.188C511.188 294.787 511.096 294.375 510.911 294.013C510.73 293.651 510.471 293.365 510.134 293.155C509.8 292.946 509.406 292.841 508.951 292.841C508.45 292.841 508.017 292.965 507.651 293.214C507.289 293.459 507.01 293.778 506.815 294.173C506.62 294.567 506.522 294.989 506.522 295.44V296.165C506.522 296.783 506.629 297.306 506.842 297.736C507.058 298.162 507.358 298.487 507.742 298.711C508.126 298.931 508.571 299.041 509.079 299.041C509.409 299.041 509.708 298.995 509.974 298.903C510.244 298.807 510.476 298.665 510.672 298.477C510.867 298.285 511.018 298.047 511.124 297.763L512.339 298.104C512.211 298.516 511.996 298.878 511.694 299.19C511.393 299.499 511.02 299.741 510.576 299.915C510.132 300.085 509.633 300.17 509.079 300.17ZM520.175 293.651L519.045 293.97C518.974 293.782 518.869 293.599 518.731 293.422C518.596 293.24 518.411 293.091 518.177 292.974C517.943 292.857 517.643 292.798 517.277 292.798C516.776 292.798 516.359 292.914 516.025 293.145C515.695 293.372 515.53 293.661 515.53 294.013C515.53 294.325 515.643 294.572 515.871 294.753C516.098 294.934 516.453 295.085 516.936 295.206L518.15 295.504C518.882 295.682 519.427 295.953 519.786 296.319C520.144 296.681 520.324 297.148 520.324 297.72C520.324 298.189 520.189 298.608 519.919 298.977C519.653 299.347 519.28 299.638 518.8 299.851C518.321 300.064 517.763 300.17 517.128 300.17C516.293 300.17 515.602 299.989 515.056 299.627C514.509 299.265 514.162 298.736 514.017 298.04L515.21 297.741C515.324 298.182 515.539 298.512 515.855 298.732C516.174 298.952 516.591 299.062 517.106 299.062C517.692 299.062 518.157 298.938 518.502 298.69C518.85 298.437 519.024 298.136 519.024 297.784C519.024 297.5 518.925 297.262 518.726 297.07C518.527 296.875 518.221 296.729 517.809 296.634L516.446 296.314C515.697 296.136 515.146 295.861 514.795 295.488C514.447 295.112 514.273 294.641 514.273 294.077C514.273 293.615 514.402 293.207 514.661 292.852C514.924 292.496 515.281 292.218 515.732 292.015C516.187 291.813 516.702 291.712 517.277 291.712C518.086 291.712 518.722 291.889 519.184 292.244C519.649 292.599 519.979 293.068 520.175 293.651ZM528.011 293.651L526.882 293.97C526.811 293.782 526.706 293.599 526.568 293.422C526.433 293.24 526.248 293.091 526.014 292.974C525.78 292.857 525.479 292.798 525.114 292.798C524.613 292.798 524.196 292.914 523.862 293.145C523.532 293.372 523.367 293.661 523.367 294.013C523.367 294.325 523.48 294.572 523.707 294.753C523.935 294.934 524.29 295.085 524.773 295.206L525.987 295.504C526.719 295.682 527.264 295.953 527.623 296.319C527.981 296.681 528.161 297.148 528.161 297.72C528.161 298.189 528.026 298.608 527.756 298.977C527.489 299.347 527.117 299.638 526.637 299.851C526.158 300.064 525.6 300.17 524.965 300.17C524.13 300.17 523.439 299.989 522.892 299.627C522.346 299.265 521.999 298.736 521.854 298.04L523.047 297.741C523.161 298.182 523.375 298.512 523.691 298.732C524.011 298.952 524.428 299.062 524.943 299.062C525.529 299.062 525.994 298.938 526.339 298.69C526.687 298.437 526.861 298.136 526.861 297.784C526.861 297.5 526.761 297.262 526.563 297.07C526.364 296.875 526.058 296.729 525.646 296.634L524.283 296.314C523.533 296.136 522.983 295.861 522.631 295.488C522.283 295.112 522.109 294.641 522.109 294.077C522.109 293.615 522.239 293.207 522.498 292.852C522.761 292.496 523.118 292.218 523.569 292.015C524.024 291.813 524.538 291.712 525.114 291.712C525.923 291.712 526.559 291.889 527.021 292.244C527.486 292.599 527.816 293.068 528.011 293.651ZM532.461 300.192C531.942 300.192 531.472 300.094 531.049 299.899C530.626 299.7 530.291 299.414 530.042 299.041C529.794 298.665 529.669 298.21 529.669 297.678C529.669 297.209 529.762 296.829 529.946 296.538C530.131 296.243 530.378 296.012 530.687 295.845C530.996 295.678 531.337 295.554 531.71 295.472C532.086 295.387 532.464 295.32 532.844 295.27C533.341 295.206 533.744 295.158 534.053 295.126C534.366 295.091 534.593 295.032 534.735 294.95C534.881 294.869 534.953 294.727 534.953 294.524V294.482C534.953 293.956 534.81 293.548 534.522 293.256C534.238 292.965 533.806 292.82 533.228 292.82C532.627 292.82 532.157 292.951 531.816 293.214C531.475 293.477 531.235 293.757 531.097 294.055L529.904 293.629C530.117 293.132 530.401 292.745 530.756 292.468C531.115 292.187 531.505 291.992 531.928 291.882C532.354 291.768 532.773 291.712 533.185 291.712C533.448 291.712 533.75 291.744 534.091 291.808C534.435 291.868 534.767 291.994 535.087 292.186C535.41 292.377 535.678 292.667 535.891 293.054C536.104 293.441 536.211 293.96 536.211 294.609V300H534.953V298.892H534.89C534.804 299.07 534.662 299.26 534.463 299.462C534.265 299.664 534 299.837 533.67 299.979C533.339 300.121 532.936 300.192 532.461 300.192ZM532.652 299.062C533.15 299.062 533.569 298.965 533.909 298.77C534.254 298.574 534.513 298.322 534.687 298.013C534.865 297.704 534.953 297.379 534.953 297.038V295.888C534.9 295.952 534.783 296.01 534.602 296.064C534.424 296.113 534.218 296.158 533.984 296.197C533.753 296.232 533.528 296.264 533.308 296.293C533.091 296.317 532.915 296.339 532.78 296.357C532.453 296.399 532.148 296.468 531.864 296.564C531.583 296.657 531.356 296.797 531.182 296.985C531.012 297.17 530.926 297.422 530.926 297.741C530.926 298.178 531.088 298.509 531.411 298.732C531.738 298.952 532.152 299.062 532.652 299.062Z" fill="black"/>
<path d="M130 261V282" stroke="black" stroke-width="2"/>
<path d="M122.941 248.771C123.026 248.264 123.351 247.679 123.918 247.015C124.485 246.352 125.185 246.014 126.018 246.002C126.44 246.002 126.826 246.111 127.176 246.328C127.526 246.545 127.785 246.816 127.954 247.142C128.461 246.382 129.07 246.002 129.782 246.002C130.228 246.002 130.614 246.135 130.94 246.4C131.266 246.666 131.435 247.021 131.447 247.468C131.447 247.818 131.362 248.101 131.194 248.318C131.025 248.536 130.862 248.668 130.705 248.717C130.548 248.765 130.409 248.789 130.289 248.789C130.059 248.789 129.872 248.723 129.728 248.59C129.583 248.457 129.511 248.282 129.511 248.065C129.511 247.51 129.812 247.13 130.415 246.925C130.283 246.768 130.041 246.69 129.691 246.69C129.535 246.69 129.42 246.702 129.348 246.726C128.889 246.919 128.551 247.317 128.334 247.92C127.61 250.587 127.248 252.143 127.248 252.589C127.248 252.927 127.345 253.169 127.538 253.313C127.731 253.458 127.942 253.531 128.171 253.531C128.618 253.531 129.058 253.331 129.492 252.933C129.927 252.535 130.222 252.047 130.379 251.467C130.415 251.347 130.452 251.28 130.488 251.268C130.524 251.256 130.62 251.244 130.777 251.232H130.85C131.031 251.232 131.121 251.28 131.121 251.377C131.121 251.389 131.109 251.455 131.085 251.576C130.892 252.264 130.518 252.873 129.963 253.404C129.408 253.935 128.762 254.2 128.027 254.2C127.182 254.2 126.543 253.82 126.108 253.06C125.613 253.808 125.046 254.182 124.407 254.182H124.298C123.707 254.182 123.285 254.025 123.032 253.712C122.778 253.398 122.645 253.066 122.633 252.716C122.633 252.33 122.748 252.016 122.977 251.775C123.207 251.534 123.478 251.413 123.792 251.413C124.31 251.413 124.57 251.667 124.57 252.173C124.57 252.415 124.497 252.626 124.353 252.807C124.208 252.988 124.069 253.108 123.936 253.169C123.804 253.229 123.725 253.259 123.701 253.259L123.647 253.277C123.647 253.289 123.683 253.313 123.755 253.35C123.828 253.386 123.924 253.428 124.045 253.476C124.166 253.525 124.28 253.543 124.389 253.531C124.823 253.531 125.197 253.259 125.511 252.716C125.62 252.523 125.758 252.113 125.927 251.486C126.096 250.858 126.265 250.207 126.434 249.531C126.603 248.855 126.699 248.457 126.723 248.337C126.784 248.011 126.814 247.776 126.814 247.631C126.814 247.293 126.723 247.052 126.543 246.907C126.362 246.762 126.156 246.69 125.927 246.69C125.445 246.69 124.992 246.883 124.57 247.269C124.148 247.655 123.852 248.15 123.683 248.753C123.659 248.861 123.629 248.922 123.593 248.934C123.556 248.946 123.46 248.958 123.303 248.97H123.05C122.977 248.898 122.941 248.831 122.941 248.771Z" fill="black"/>
<path d="M133.58 249.231C134.058 248.54 134.71 248.194 135.538 248.194C135.947 248.194 136.357 248.305 136.766 248.527C137.176 248.749 137.508 249.141 137.764 249.704C138.08 250.412 138.238 251.384 138.238 252.621C138.238 253.943 138.054 254.954 137.687 255.654C137.517 256.012 137.282 256.298 136.984 256.511C136.685 256.724 136.425 256.856 136.203 256.908C135.981 256.959 135.764 256.989 135.551 256.997C135.329 256.997 135.107 256.972 134.885 256.92C134.663 256.869 134.403 256.733 134.105 256.511C133.806 256.289 133.572 256.003 133.401 255.654C133.034 254.954 132.851 253.943 132.851 252.621C132.851 251.137 133.094 250.007 133.58 249.231ZM136.459 249.077C136.203 248.804 135.9 248.668 135.551 248.668C135.192 248.668 134.885 248.804 134.629 249.077C134.416 249.299 134.275 249.606 134.207 249.998C134.139 250.391 134.105 251.21 134.105 252.455C134.105 253.803 134.139 254.69 134.207 255.116C134.275 255.543 134.429 255.88 134.668 256.127C134.907 256.383 135.201 256.511 135.551 256.511C135.892 256.511 136.182 256.383 136.421 256.127C136.668 255.871 136.822 255.513 136.881 255.052C136.941 254.592 136.975 253.726 136.984 252.455C136.984 251.218 136.949 250.404 136.881 250.011C136.813 249.619 136.672 249.307 136.459 249.077Z" fill="black"/>
<path d="M514.941 248.771C515.026 248.264 515.351 247.679 515.918 247.015C516.485 246.352 517.185 246.014 518.018 246.002C518.44 246.002 518.826 246.111 519.176 246.328C519.526 246.545 519.785 246.816 519.954 247.142C520.461 246.382 521.07 246.002 521.782 246.002C522.228 246.002 522.614 246.135 522.94 246.4C523.266 246.666 523.435 247.021 523.447 247.468C523.447 247.818 523.362 248.101 523.194 248.318C523.025 248.536 522.862 248.668 522.705 248.717C522.548 248.765 522.409 248.789 522.289 248.789C522.059 248.789 521.872 248.723 521.728 248.59C521.583 248.457 521.51 248.282 521.51 248.065C521.51 247.51 521.812 247.13 522.415 246.925C522.283 246.768 522.041 246.69 521.691 246.69C521.535 246.69 521.42 246.702 521.348 246.726C520.889 246.919 520.551 247.317 520.334 247.92C519.61 250.587 519.248 252.143 519.248 252.589C519.248 252.927 519.345 253.169 519.538 253.313C519.731 253.458 519.942 253.531 520.171 253.531C520.618 253.531 521.058 253.331 521.492 252.933C521.927 252.535 522.222 252.047 522.379 251.467C522.415 251.347 522.452 251.28 522.488 251.268C522.524 251.256 522.62 251.244 522.777 251.232H522.85C523.031 251.232 523.121 251.28 523.121 251.377C523.121 251.389 523.109 251.455 523.085 251.576C522.892 252.264 522.518 252.873 521.963 253.404C521.408 253.935 520.762 254.2 520.026 254.2C519.182 254.2 518.542 253.82 518.108 253.06C517.613 253.808 517.046 254.182 516.407 254.182H516.298C515.707 254.182 515.285 254.025 515.032 253.712C514.778 253.398 514.645 253.066 514.633 252.716C514.633 252.33 514.748 252.016 514.977 251.775C515.206 251.534 515.478 251.413 515.792 251.413C516.31 251.413 516.57 251.667 516.57 252.173C516.57 252.415 516.497 252.626 516.353 252.807C516.208 252.988 516.069 253.108 515.936 253.169C515.804 253.229 515.725 253.259 515.701 253.259L515.647 253.277C515.647 253.289 515.683 253.313 515.755 253.35C515.828 253.386 515.924 253.428 516.045 253.476C516.166 253.525 516.28 253.543 516.389 253.531C516.823 253.531 517.197 253.259 517.511 252.716C517.62 252.523 517.758 252.113 517.927 251.486C518.096 250.858 518.265 250.207 518.434 249.531C518.603 248.855 518.699 248.457 518.723 248.337C518.784 248.011 518.814 247.776 518.814 247.631C518.814 247.293 518.723 247.052 518.542 246.907C518.362 246.762 518.156 246.69 517.927 246.69C517.445 246.69 516.992 246.883 516.57 247.269C516.148 247.655 515.852 248.15 515.683 248.753C515.659 248.861 515.629 248.922 515.593 248.934C515.556 248.946 515.46 248.958 515.303 248.97H515.05C514.977 248.898 514.941 248.831 514.941 248.771Z" fill="black"/>
<path d="M525.58 249.231C526.058 248.54 526.71 248.194 527.538 248.194C527.947 248.194 528.357 248.305 528.766 248.527C529.176 248.749 529.508 249.141 529.764 249.704C530.08 250.412 530.238 251.384 530.238 252.621C530.238 253.943 530.054 254.954 529.687 255.654C529.517 256.012 529.282 256.298 528.984 256.511C528.685 256.724 528.425 256.856 528.203 256.908C527.981 256.959 527.764 256.989 527.551 256.997C527.329 256.997 527.107 256.972 526.885 256.92C526.663 256.869 526.403 256.733 526.105 256.511C525.806 256.289 525.572 256.003 525.401 255.654C525.034 254.954 524.851 253.943 524.851 252.621C524.851 251.137 525.094 250.007 525.58 249.231ZM528.459 249.077C528.203 248.804 527.9 248.668 527.551 248.668C527.192 248.668 526.885 248.804 526.629 249.077C526.416 249.299 526.275 249.606 526.207 249.998C526.139 250.391 526.105 251.21 526.105 252.455C526.105 253.803 526.139 254.69 526.207 255.116C526.275 255.543 526.429 255.88 526.668 256.127C526.907 256.383 527.201 256.511 527.551 256.511C527.892 256.511 528.182 256.383 528.421 256.127C528.668 255.871 528.822 255.513 528.881 255.052C528.941 254.592 528.975 253.726 528.984 252.455C528.984 251.218 528.949 250.404 528.881 250.011C528.813 249.619 528.672 249.307 528.459 249.077Z" fill="black"/>
<path d="M98.1596 257C90.4929 262.167 79.7596 274.8 98.1596 284" stroke="black" stroke-width="2"/>
<path d="M162 257C169.667 262.167 180.4 274.8 162 284" stroke="black" stroke-width="2"/>
<path d="M555 257C562.667 262.167 573.4 274.8 555 284" stroke="black" stroke-width="2"/>
<g clip-path="url(#clip0_6_15)">
<path d="M150.78 251.341C150.575 251.341 150.472 251.286 150.472 251.178C150.472 251.154 150.49 251.069 150.527 250.925C150.587 250.695 150.647 250.569 150.707 250.545C150.744 250.533 150.834 250.526 150.979 250.526H151.087C151.811 250.526 152.27 250.484 152.463 250.4C152.475 250.4 152.487 250.394 152.499 250.382C152.559 250.358 152.626 250.219 152.698 249.966C152.77 249.712 153.066 248.53 153.585 246.419C153.729 245.876 153.838 245.448 153.91 245.134C154.755 241.756 155.177 240.056 155.177 240.031C155.153 239.983 155.141 239.953 155.141 239.941C155.02 239.869 154.592 239.832 153.856 239.832H153.494C153.386 239.76 153.361 239.609 153.422 239.38C153.47 239.199 153.506 239.09 153.53 239.054C153.554 239.018 153.639 239 153.784 239H153.856C154.725 239.024 155.605 239.036 156.498 239.036C157.97 239.036 158.742 239.024 158.814 239H158.995C159.079 239.084 159.122 239.151 159.122 239.199C159.122 239.247 159.104 239.35 159.067 239.507C159.031 239.663 158.989 239.76 158.941 239.796C158.905 239.82 158.766 239.832 158.525 239.832C158.151 239.832 157.765 239.85 157.366 239.887C157.198 239.923 157.083 239.989 157.023 240.086C156.938 240.255 156.631 241.407 156.1 243.542C155.967 244.109 155.834 244.658 155.702 245.188C154.857 248.518 154.435 250.219 154.435 250.291C154.435 250.376 154.495 250.43 154.616 250.454C154.737 250.478 155.05 250.502 155.557 250.526H156.136C156.208 250.623 156.245 250.677 156.245 250.689C156.245 250.701 156.226 250.81 156.19 251.015C156.142 251.172 156.082 251.286 156.009 251.359H155.72C155.273 251.335 154.447 251.323 153.241 251.323C152.807 251.323 152.408 251.323 152.047 251.323C151.685 251.323 151.395 251.323 151.178 251.323C150.961 251.323 150.828 251.329 150.78 251.341Z" fill="black"/>
<path d="M158.629 250.376C158.689 250.018 158.919 249.604 159.32 249.135C159.72 248.666 160.215 248.427 160.804 248.419C161.102 248.419 161.375 248.495 161.622 248.649C161.87 248.802 162.053 248.994 162.172 249.224C162.531 248.687 162.961 248.419 163.465 248.419C163.78 248.419 164.053 248.512 164.283 248.7C164.514 248.888 164.633 249.139 164.642 249.455C164.642 249.702 164.582 249.903 164.462 250.056C164.343 250.21 164.228 250.303 164.117 250.337C164.006 250.372 163.908 250.389 163.823 250.389C163.661 250.389 163.529 250.342 163.426 250.248C163.324 250.154 163.273 250.03 163.273 249.877C163.273 249.485 163.486 249.216 163.912 249.071C163.819 248.96 163.648 248.905 163.401 248.905C163.29 248.905 163.209 248.913 163.158 248.93C162.833 249.067 162.595 249.348 162.441 249.775C161.929 251.659 161.674 252.76 161.674 253.075C161.674 253.314 161.742 253.485 161.878 253.587C162.015 253.689 162.164 253.74 162.326 253.74C162.642 253.74 162.953 253.6 163.26 253.318C163.567 253.037 163.776 252.691 163.887 252.282C163.912 252.197 163.938 252.15 163.964 252.141C163.989 252.133 164.057 252.124 164.168 252.116H164.219C164.347 252.116 164.411 252.15 164.411 252.218C164.411 252.227 164.403 252.274 164.386 252.359C164.249 252.845 163.985 253.276 163.593 253.651C163.2 254.026 162.744 254.214 162.224 254.214C161.627 254.214 161.175 253.945 160.868 253.408C160.518 253.937 160.117 254.201 159.665 254.201H159.588C159.17 254.201 158.872 254.09 158.693 253.868C158.514 253.647 158.42 253.412 158.411 253.165C158.411 252.892 158.492 252.67 158.654 252.5C158.816 252.329 159.008 252.244 159.23 252.244C159.597 252.244 159.78 252.423 159.78 252.781C159.78 252.952 159.729 253.101 159.627 253.229C159.524 253.357 159.426 253.442 159.332 253.485C159.239 253.527 159.183 253.549 159.166 253.549L159.128 253.561C159.128 253.57 159.153 253.587 159.204 253.613C159.256 253.638 159.324 253.668 159.409 253.702C159.494 253.736 159.575 253.749 159.652 253.74C159.959 253.74 160.224 253.549 160.445 253.165C160.522 253.028 160.62 252.738 160.74 252.295C160.859 251.851 160.978 251.391 161.098 250.913C161.217 250.436 161.286 250.154 161.303 250.069C161.345 249.839 161.367 249.672 161.367 249.57C161.367 249.331 161.303 249.161 161.175 249.058C161.047 248.956 160.902 248.905 160.74 248.905C160.399 248.905 160.079 249.041 159.78 249.314C159.482 249.587 159.273 249.937 159.153 250.363C159.136 250.44 159.115 250.482 159.089 250.491C159.064 250.5 158.996 250.508 158.885 250.517H158.706C158.654 250.465 158.629 250.419 158.629 250.376Z" fill="black"/>
<path d="M166.15 250.701C166.487 250.212 166.948 249.968 167.533 249.968C167.823 249.968 168.112 250.047 168.402 250.203C168.691 250.36 168.926 250.638 169.107 251.036C169.33 251.536 169.442 252.223 169.442 253.098C169.442 254.032 169.312 254.747 169.053 255.241C168.932 255.495 168.766 255.697 168.555 255.847C168.344 255.998 168.16 256.092 168.004 256.128C167.847 256.164 167.693 256.185 167.542 256.191C167.386 256.191 167.229 256.173 167.072 256.137C166.915 256.101 166.731 256.004 166.52 255.847C166.309 255.691 166.143 255.489 166.023 255.241C165.764 254.747 165.634 254.032 165.634 253.098C165.634 252.049 165.806 251.25 166.15 250.701ZM168.185 250.592C168.004 250.399 167.79 250.303 167.542 250.303C167.289 250.303 167.072 250.399 166.891 250.592C166.74 250.749 166.641 250.966 166.593 251.244C166.544 251.521 166.52 252.1 166.52 252.98C166.52 253.933 166.544 254.56 166.593 254.861C166.641 255.163 166.749 255.401 166.918 255.576C167.087 255.757 167.295 255.847 167.542 255.847C167.784 255.847 167.989 255.757 168.157 255.576C168.332 255.395 168.441 255.142 168.483 254.816C168.525 254.491 168.549 253.879 168.555 252.98C168.555 252.106 168.531 251.53 168.483 251.253C168.435 250.975 168.335 250.755 168.185 250.592Z" fill="black"/>
</g>
<path d="M88.5 271V132.5" stroke="black" stroke-width="2" stroke-dasharray="4 4"/>
<path d="M171.5 271V116" stroke="black" stroke-width="2" stroke-dasharray="4 4"/>
<path d="M523 261V282" stroke="black" stroke-width="2"/>
<path d="M491.16 257C483.493 262.167 472.76 274.8 491.16 284" stroke="black" stroke-width="2"/>
<g clip-path="url(#clip1_6_15)">
<path d="M543.78 251.341C543.575 251.341 543.472 251.286 543.472 251.178C543.472 251.154 543.49 251.069 543.527 250.925C543.587 250.695 543.647 250.569 543.708 250.545C543.744 250.533 543.834 250.526 543.979 250.526H544.087C544.811 250.526 545.27 250.484 545.463 250.4C545.475 250.4 545.487 250.394 545.499 250.382C545.559 250.358 545.626 250.219 545.698 249.966C545.77 249.712 546.066 248.53 546.585 246.419C546.729 245.876 546.838 245.448 546.91 245.134C547.755 241.756 548.177 240.056 548.177 240.031C548.153 239.983 548.141 239.953 548.141 239.941C548.02 239.869 547.592 239.832 546.856 239.832H546.494C546.386 239.76 546.361 239.609 546.422 239.38C546.47 239.199 546.506 239.09 546.53 239.054C546.554 239.018 546.639 239 546.784 239H546.856C547.725 239.024 548.605 239.036 549.498 239.036C550.97 239.036 551.742 239.024 551.814 239H551.995C552.079 239.084 552.122 239.151 552.122 239.199C552.122 239.247 552.104 239.35 552.067 239.507C552.031 239.663 551.989 239.76 551.941 239.796C551.905 239.82 551.766 239.832 551.525 239.832C551.151 239.832 550.765 239.85 550.366 239.887C550.198 239.923 550.083 239.989 550.023 240.086C549.938 240.255 549.631 241.407 549.1 243.542C548.967 244.109 548.834 244.658 548.702 245.188C547.857 248.518 547.435 250.219 547.435 250.291C547.435 250.376 547.495 250.43 547.616 250.454C547.737 250.478 548.05 250.502 548.557 250.526H549.136C549.208 250.623 549.245 250.677 549.245 250.689C549.245 250.701 549.226 250.81 549.19 251.015C549.142 251.172 549.082 251.286 549.009 251.359H548.72C548.273 251.335 547.447 251.323 546.241 251.323C545.807 251.323 545.408 251.323 545.047 251.323C544.685 251.323 544.395 251.323 544.178 251.323C543.961 251.323 543.828 251.329 543.78 251.341Z" fill="black"/>
<path d="M551.629 250.376C551.689 250.018 551.919 249.604 552.32 249.135C552.72 248.666 553.215 248.427 553.804 248.419C554.102 248.419 554.375 248.495 554.622 248.649C554.87 248.802 555.053 248.994 555.173 249.224C555.531 248.687 555.961 248.419 556.465 248.419C556.78 248.419 557.053 248.512 557.283 248.7C557.514 248.888 557.633 249.139 557.642 249.455C557.642 249.702 557.582 249.903 557.462 250.056C557.343 250.21 557.228 250.303 557.117 250.337C557.006 250.372 556.908 250.389 556.823 250.389C556.661 250.389 556.529 250.342 556.426 250.248C556.324 250.154 556.273 250.03 556.273 249.877C556.273 249.485 556.486 249.216 556.912 249.071C556.819 248.96 556.648 248.905 556.401 248.905C556.29 248.905 556.209 248.913 556.158 248.93C555.833 249.067 555.595 249.348 555.441 249.775C554.929 251.659 554.674 252.76 554.674 253.075C554.674 253.314 554.742 253.485 554.878 253.587C555.015 253.689 555.164 253.74 555.326 253.74C555.642 253.74 555.953 253.6 556.26 253.318C556.567 253.037 556.776 252.691 556.887 252.282C556.912 252.197 556.938 252.15 556.964 252.141C556.989 252.133 557.057 252.124 557.168 252.116H557.219C557.347 252.116 557.411 252.15 557.411 252.218C557.411 252.227 557.403 252.274 557.386 252.359C557.249 252.845 556.985 253.276 556.593 253.651C556.2 254.026 555.744 254.214 555.224 254.214C554.627 254.214 554.175 253.945 553.868 253.408C553.518 253.937 553.117 254.201 552.665 254.201H552.588C552.17 254.201 551.872 254.09 551.693 253.868C551.514 253.647 551.42 253.412 551.411 253.165C551.411 252.892 551.492 252.67 551.654 252.5C551.816 252.329 552.008 252.244 552.23 252.244C552.597 252.244 552.78 252.423 552.78 252.781C552.78 252.952 552.729 253.101 552.627 253.229C552.524 253.357 552.426 253.442 552.332 253.485C552.239 253.527 552.183 253.549 552.166 253.549L552.128 253.561C552.128 253.57 552.153 253.587 552.205 253.613C552.256 253.638 552.324 253.668 552.409 253.702C552.494 253.736 552.576 253.749 552.652 253.74C552.959 253.74 553.224 253.549 553.445 253.165C553.522 253.028 553.62 252.738 553.74 252.295C553.859 251.851 553.978 251.391 554.098 250.913C554.217 250.436 554.286 250.154 554.303 250.069C554.345 249.839 554.367 249.672 554.367 249.57C554.367 249.331 554.303 249.161 554.175 249.058C554.047 248.956 553.902 248.905 553.74 248.905C553.399 248.905 553.079 249.041 552.78 249.314C552.482 249.587 552.273 249.937 552.153 250.363C552.136 250.44 552.115 250.482 552.089 250.491C552.064 250.5 551.996 250.508 551.885 250.517H551.706C551.654 250.465 551.629 250.419 551.629 250.376Z" fill="black"/>
<path d="M559.15 250.701C559.487 250.212 559.948 249.968 560.533 249.968C560.823 249.968 561.112 250.047 561.402 250.203C561.691 250.36 561.926 250.638 562.107 251.036C562.33 251.536 562.442 252.223 562.442 253.098C562.442 254.032 562.312 254.747 562.053 255.241C561.932 255.495 561.766 255.697 561.555 255.847C561.344 255.998 561.16 256.092 561.004 256.128C560.847 256.164 560.693 256.185 560.542 256.191C560.386 256.191 560.229 256.173 560.072 256.137C559.915 256.101 559.731 256.004 559.52 255.847C559.309 255.691 559.143 255.489 559.023 255.241C558.764 254.747 558.634 254.032 558.634 253.098C558.634 252.049 558.806 251.25 559.15 250.701ZM561.185 250.592C561.004 250.399 560.79 250.303 560.542 250.303C560.289 250.303 560.072 250.399 559.891 250.592C559.74 250.749 559.641 250.966 559.593 251.244C559.544 251.521 559.52 252.1 559.52 252.98C559.52 253.933 559.544 254.56 559.593 254.861C559.641 255.163 559.749 255.401 559.918 255.576C560.087 255.757 560.295 255.847 560.542 255.847C560.784 255.847 560.989 255.757 561.157 255.576C561.332 255.395 561.441 255.142 561.483 254.816C561.525 254.491 561.549 253.879 561.555 252.98C561.555 252.106 561.531 251.53 561.483 251.253C561.435 250.975 561.335 250.755 561.185 250.592Z" fill="black"/>
</g>
<path d="M481.5 271V160.5" stroke="black" stroke-width="2" stroke-dasharray="4 4"/>
<path d="M564.5 271V124" stroke="black" stroke-width="2" stroke-dasharray="4 4"/>
<defs>
<clipPath id="clip0_6_15">
<rect width="21.352" height="17.192" fill="white" transform="translate(150 239)"/>
</clipPath>
<clipPath id="clip1_6_15">
<rect width="21.352" height="17.192" fill="white" transform="translate(543 239)"/>
</clipPath>
</defs>
</svg>
