<svg width="310" height="117" viewBox="0 0 310 117" fill="none" xmlns="http://www.w3.org/2000/svg">
<path d="M0 68H310" stroke="black"/>
<path d="M51.4998 42C13.4998 51 21.4997 83 51.4997 93" stroke="black"/>
<path d="M231.5 43C269.5 52 261.5 84 231.5 94" stroke="black"/>
<path d="M143 51V83" stroke="black"/>
<path d="M143.424 90.4364C143.034 90.5157 142.889 90.8331 142.889 91.0843C142.889 91.4017 143.12 91.5074 143.29 91.5074C143.655 91.5074 143.91 91.1636 143.91 90.8066C143.91 90.2512 143.326 90 142.816 90C142.074 90 141.66 90.7934 141.551 91.0446C141.271 90.0529 140.517 90 140.298 90C139.058 90 138.401 91.7322 138.401 92.0231C138.401 92.076 138.45 92.1422 138.535 92.1422C138.632 92.1422 138.657 92.0628 138.681 92.0099C139.094 90.5421 139.909 90.2645 140.262 90.2645C140.809 90.2645 140.919 90.8198 140.919 91.1372C140.919 91.4281 140.846 91.7322 140.7 92.3669L140.286 94.1785C140.104 94.9719 139.751 95.6992 139.107 95.6992C139.046 95.6992 138.742 95.6992 138.486 95.5273C138.924 95.4347 139.021 95.038 139.021 94.8793C139.021 94.6149 138.839 94.4562 138.608 94.4562C138.316 94.4562 138 94.7339 138 95.157C138 95.7124 138.572 95.9636 139.094 95.9636C139.678 95.9636 140.092 95.4612 140.347 94.919C140.542 95.6992 141.15 95.9636 141.6 95.9636C142.84 95.9636 143.497 94.2314 143.497 93.9405C143.497 93.8744 143.448 93.8215 143.375 93.8215C143.266 93.8215 143.253 93.8876 143.217 93.9934C142.889 95.157 142.183 95.6992 141.636 95.6992C141.21 95.6992 140.979 95.3554 140.979 94.8132C140.979 94.5223 141.028 94.3108 141.223 93.438L141.648 91.6397C141.831 90.8463 142.244 90.2645 142.803 90.2645C142.828 90.2645 143.168 90.2645 143.424 90.4364Z" fill="black"/>
<path d="M148.39 95.0027C148.39 94.0595 148.301 93.4865 148.034 92.9223C147.677 92.1465 147.02 91.9526 146.574 91.9526C145.553 91.9526 145.18 92.7813 145.066 93.0281C144.774 93.6716 144.758 94.5443 144.758 95.0027C144.758 95.5846 144.783 96.4749 145.172 97.1802C145.545 97.8325 146.145 98 146.574 98C146.963 98 147.661 97.8678 148.066 96.995C148.366 96.3603 148.39 95.5758 148.39 95.0027ZM146.574 97.7532C146.299 97.7532 145.739 97.6121 145.569 96.6865C145.48 96.184 145.48 95.3554 145.48 94.897C145.48 94.2887 145.48 93.6716 145.569 93.1868C145.739 92.2876 146.372 92.1994 146.574 92.1994C146.85 92.1994 147.409 92.3493 147.571 93.1515C147.669 93.6364 147.669 94.2975 147.669 94.897C147.669 95.4171 147.669 96.2105 147.571 96.7041C147.401 97.6298 146.842 97.7532 146.574 97.7532Z" fill="black"/>
<path d="M143 36.3286C151.5 20.9952 158.5 9.09999 166.5 27.5C174.5 45.9 187.167 32.3286 187.5 22.8286C190.333 31.8286 196.8 47.1286 200 36.3286C204 22.8286 225 13.8286 231.5 36.3286" stroke="black"/>
<path d="M186.963 9.93541C184.657 10.4938 183 12.8895 183 14.9969C183 16.9242 184.297 18.005 185.738 18.005C187.863 18.005 189.304 15.087 189.304 12.6913C189.304 11.0702 188.548 10.0795 188.098 9.4851C187.431 8.63852 186.35 7.25156 186.35 6.38696C186.35 6.08075 186.584 5.54037 187.377 5.54037C187.935 5.54037 188.278 5.73851 188.818 6.04472C188.98 6.1528 189.394 6.38696 189.629 6.38696C190.007 6.38696 190.277 6.0087 190.277 5.7205C190.277 5.37826 190.007 5.32422 189.376 5.18012C188.53 5 188.278 5 187.971 5C187.665 5 185.9 5 185.9 6.83727C185.9 7.71988 186.35 8.74659 186.963 9.93541ZM187.161 10.2776C187.845 11.7006 188.116 12.241 188.116 13.4118C188.116 14.8168 187.359 17.6447 185.756 17.6447C185.053 17.6447 184.045 17.1764 184.045 15.5013C184.045 14.3305 184.711 10.9261 187.161 10.2776Z" fill="black"/>
<path d="M216.034 99.4397C215.457 99.5478 215.241 99.9801 215.241 100.322C215.241 100.755 215.583 100.899 215.835 100.899C216.376 100.899 216.754 100.43 216.754 99.9441C216.754 99.1876 215.889 98.8453 215.133 98.8453C214.034 98.8453 213.422 99.9261 213.26 100.268C212.845 98.9174 211.729 98.8453 211.404 98.8453C209.567 98.8453 208.594 101.205 208.594 101.601C208.594 101.673 208.666 101.763 208.793 101.763C208.937 101.763 208.973 101.655 209.009 101.583C209.621 99.5838 210.828 99.2056 211.35 99.2056C212.161 99.2056 212.323 99.9621 212.323 100.394C212.323 100.791 212.215 101.205 211.999 102.07L211.386 104.537C211.116 105.618 210.594 106.609 209.639 106.609C209.549 106.609 209.099 106.609 208.72 106.375C209.369 106.248 209.513 105.708 209.513 105.492C209.513 105.132 209.243 104.916 208.901 104.916C208.468 104.916 208 105.294 208 105.87C208 106.627 208.847 106.969 209.621 106.969C210.486 106.969 211.098 106.284 211.476 105.546C211.765 106.609 212.665 106.969 213.332 106.969C215.169 106.969 216.142 104.609 216.142 104.213C216.142 104.123 216.07 104.051 215.962 104.051C215.799 104.051 215.781 104.141 215.727 104.285C215.241 105.87 214.196 106.609 213.386 106.609C212.755 106.609 212.413 106.14 212.413 105.402C212.413 105.006 212.485 104.717 212.773 103.529L213.404 101.079C213.674 99.9981 214.286 99.2056 215.115 99.2056C215.151 99.2056 215.655 99.2056 216.034 99.4397Z" fill="black"/>
<path d="M223.39 105.66C223.39 104.375 223.258 103.595 222.862 102.826C222.333 101.769 221.361 101.505 220.7 101.505C219.187 101.505 218.635 102.634 218.467 102.97C218.034 103.847 218.01 105.036 218.01 105.66C218.01 106.453 218.046 107.665 218.623 108.626C219.175 109.515 220.064 109.743 220.7 109.743C221.277 109.743 222.309 109.563 222.91 108.374C223.354 107.509 223.39 106.441 223.39 105.66ZM220.7 109.407C220.292 109.407 219.463 109.215 219.211 107.954C219.079 107.269 219.079 106.14 219.079 105.516C219.079 104.687 219.079 103.847 219.211 103.186C219.463 101.962 220.4 101.841 220.7 101.841C221.109 101.841 221.937 102.046 222.177 103.138C222.321 103.799 222.321 104.699 222.321 105.516C222.321 106.224 222.321 107.305 222.177 107.978C221.925 109.239 221.097 109.407 220.7 109.407Z" fill="black"/>
<path d="M235.838 102.628H240.809C241.061 102.628 241.386 102.628 241.386 102.304C241.386 101.962 241.079 101.962 240.809 101.962H235.838V96.9901C235.838 96.7379 235.838 96.4137 235.514 96.4137C235.171 96.4137 235.171 96.7199 235.171 96.9901V101.962H230.2C229.948 101.962 229.624 101.962 229.624 102.286C229.624 102.628 229.93 102.628 230.2 102.628H235.171V107.599C235.171 107.852 235.171 108.176 235.496 108.176C235.838 108.176 235.838 107.87 235.838 107.599V102.628Z" fill="black"/>
<path d="M251.054 98.9354C248.749 99.4938 247.092 101.889 247.092 103.997C247.092 105.924 248.389 107.005 249.83 107.005C251.955 107.005 253.396 104.087 253.396 101.691C253.396 100.07 252.64 99.0795 252.189 98.4851C251.523 97.6385 250.442 96.2516 250.442 95.387C250.442 95.0807 250.676 94.5404 251.469 94.5404C252.027 94.5404 252.369 94.7385 252.91 95.0447C253.072 95.1528 253.486 95.387 253.72 95.387C254.099 95.387 254.369 95.0087 254.369 94.7205C254.369 94.3783 254.099 94.3242 253.468 94.1801C252.622 94 252.369 94 252.063 94C251.757 94 249.992 94 249.992 95.8373C249.992 96.7199 250.442 97.7466 251.054 98.9354ZM251.253 99.2776C251.937 100.701 252.207 101.241 252.207 102.412C252.207 103.817 251.451 106.645 249.848 106.645C249.145 106.645 248.136 106.176 248.136 104.501C248.136 103.33 248.803 99.9261 251.253 99.2776Z" fill="black"/>
<path d="M34.0336 99.4397C33.4572 99.5478 33.241 99.9801 33.241 100.322C33.241 100.755 33.5832 100.899 33.8354 100.899C34.3758 100.899 34.7541 100.43 34.7541 99.9441C34.7541 99.1876 33.8895 98.8453 33.1329 98.8453C32.0342 98.8453 31.4217 99.9261 31.2596 100.268C30.8453 98.9174 29.7286 98.8453 29.4044 98.8453C27.5671 98.8453 26.5944 101.205 26.5944 101.601C26.5944 101.673 26.6665 101.763 26.7925 101.763C26.9366 101.763 26.9727 101.655 27.0087 101.583C27.6211 99.5838 28.828 99.2056 29.3503 99.2056C30.1609 99.2056 30.323 99.9621 30.323 100.394C30.323 100.791 30.2149 101.205 29.9988 102.07L29.3863 104.537C29.1162 105.618 28.5938 106.609 27.6391 106.609C27.5491 106.609 27.0988 106.609 26.7205 106.375C27.3689 106.248 27.513 105.708 27.513 105.492C27.513 105.132 27.2429 104.916 26.9006 104.916C26.4683 104.916 26 105.294 26 105.87C26 106.627 26.8466 106.969 27.6211 106.969C28.4857 106.969 29.0981 106.284 29.4764 105.546C29.7646 106.609 30.6652 106.969 31.3317 106.969C33.169 106.969 34.1416 104.609 34.1416 104.213C34.1416 104.123 34.0696 104.051 33.9615 104.051C33.7994 104.051 33.7814 104.141 33.7273 104.285C33.241 105.87 32.1963 106.609 31.3857 106.609C30.7553 106.609 30.4131 106.14 30.4131 105.402C30.4131 105.006 30.4851 104.717 30.7733 103.529L31.4037 101.079C31.6739 99.9981 32.2863 99.2056 33.1149 99.2056C33.1509 99.2056 33.6553 99.2056 34.0336 99.4397Z" fill="black"/>
<path d="M41.3902 105.66C41.3902 104.375 41.2581 103.595 40.8618 102.826C40.3335 101.769 39.3608 101.505 38.7003 101.505C37.1873 101.505 36.6349 102.634 36.4668 102.97C36.0345 103.847 36.0105 105.036 36.0105 105.66C36.0105 106.453 36.0465 107.665 36.6229 108.626C37.1753 109.515 38.0639 109.743 38.7003 109.743C39.2767 109.743 40.3094 109.563 40.9099 108.374C41.3542 107.509 41.3902 106.441 41.3902 105.66ZM38.7003 109.407C38.292 109.407 37.4635 109.215 37.2113 107.954C37.0792 107.269 37.0792 106.14 37.0792 105.516C37.0792 104.687 37.0792 103.847 37.2113 103.186C37.4635 101.962 38.4001 101.841 38.7003 101.841C39.1086 101.841 39.9372 102.046 40.1773 103.138C40.3214 103.799 40.3214 104.699 40.3214 105.516C40.3214 106.224 40.3214 107.305 40.1773 107.978C39.9252 109.239 39.0966 109.407 38.7003 109.407Z" fill="black"/>
<path d="M58.521 102.646C58.8273 102.646 59.1515 102.646 59.1515 102.286C59.1515 101.925 58.8273 101.925 58.521 101.925H48.7763C48.4701 101.925 48.1459 101.925 48.1459 102.286C48.1459 102.646 48.4701 102.646 48.7763 102.646H58.521Z" fill="black"/>
<path d="M69.3465 98.9354C67.0409 99.4938 65.3838 101.889 65.3838 103.997C65.3838 105.924 66.6807 107.005 68.1217 107.005C70.2472 107.005 71.6881 104.087 71.6881 101.691C71.6881 100.07 70.9316 99.0795 70.4813 98.4851C69.8149 97.6385 68.7341 96.2516 68.7341 95.387C68.7341 95.0807 68.9683 94.5404 69.7608 94.5404C70.3192 94.5404 70.6614 94.7385 71.2018 95.0447C71.3639 95.1528 71.7782 95.387 72.0124 95.387C72.3906 95.387 72.6608 95.0087 72.6608 94.7205C72.6608 94.3783 72.3906 94.3242 71.7602 94.1801C70.9136 94 70.6614 94 70.3552 94C70.049 94 68.2838 94 68.2838 95.8373C68.2838 96.7199 68.7341 97.7466 69.3465 98.9354ZM69.5447 99.2776C70.2291 100.701 70.4993 101.241 70.4993 102.412C70.4993 103.817 69.7428 106.645 68.1397 106.645C67.4372 106.645 66.4285 106.176 66.4285 104.501C66.4285 103.33 67.095 99.9261 69.5447 99.2776Z" fill="black"/>
</svg>
