<svg width="310" height="117" viewBox="0 0 310 117" fill="none" xmlns="http://www.w3.org/2000/svg">
<path d="M108.619 51.4545V66H106.858V53.3011H106.773L103.222 55.6591V53.8693L106.858 51.4545H108.619ZM117.547 66.1989C116.477 66.1989 115.565 65.9077 114.812 65.3253C114.06 64.7382 113.484 63.8883 113.087 62.7756C112.689 61.6581 112.49 60.3087 112.49 58.7273C112.49 57.1553 112.689 55.813 113.087 54.7003C113.489 53.5829 114.067 52.7306 114.82 52.1435C115.577 51.5516 116.486 51.2557 117.547 51.2557C118.607 51.2557 119.514 51.5516 120.267 52.1435C121.025 52.7306 121.602 53.5829 122 54.7003C122.402 55.813 122.604 57.1553 122.604 58.7273C122.604 60.3087 122.405 61.6581 122.007 62.7756C121.609 63.8883 121.034 64.7382 120.281 65.3253C119.528 65.9077 118.617 66.1989 117.547 66.1989ZM117.547 64.6364C118.607 64.6364 119.431 64.125 120.018 63.1023C120.606 62.0795 120.899 60.6212 120.899 58.7273C120.899 57.4678 120.764 56.3954 120.494 55.5099C120.229 54.6245 119.846 53.9498 119.344 53.4858C118.847 53.0218 118.248 52.7898 117.547 52.7898C116.496 52.7898 115.674 53.3082 115.082 54.3452C114.491 55.3774 114.195 56.8381 114.195 58.7273C114.195 59.9867 114.327 61.0568 114.592 61.9375C114.857 62.8182 115.239 63.4882 115.736 63.9474C116.238 64.4067 116.841 64.6364 117.547 64.6364ZM130.416 51.4545V66H128.655V53.3011H128.57L125.018 55.6591V53.8693L128.655 51.4545H130.416ZM139.713 51.4545V66H137.952V53.3011H137.866L134.315 55.6591V53.8693L137.952 51.4545H139.713ZM148.641 66.1989C147.571 66.1989 146.659 65.9077 145.906 65.3253C145.153 64.7382 144.578 63.8883 144.18 62.7756C143.783 61.6581 143.584 60.3087 143.584 58.7273C143.584 57.1553 143.783 55.813 144.18 54.7003C144.583 53.5829 145.161 52.7306 145.913 52.1435C146.671 51.5516 147.58 51.2557 148.641 51.2557C149.701 51.2557 150.608 51.5516 151.361 52.1435C152.118 52.7306 152.696 53.5829 153.094 54.7003C153.496 55.813 153.697 57.1553 153.697 58.7273C153.697 60.3087 153.499 61.6581 153.101 62.7756C152.703 63.8883 152.128 64.7382 151.375 65.3253C150.622 65.9077 149.711 66.1989 148.641 66.1989ZM148.641 64.6364C149.701 64.6364 150.525 64.125 151.112 63.1023C151.699 62.0795 151.993 60.6212 151.993 58.7273C151.993 57.4678 151.858 56.3954 151.588 55.5099C151.323 54.6245 150.939 53.9498 150.438 53.4858C149.94 53.0218 149.341 52.7898 148.641 52.7898C147.589 52.7898 146.768 53.3082 146.176 54.3452C145.584 55.3774 145.288 56.8381 145.288 58.7273C145.288 59.9867 145.421 61.0568 145.686 61.9375C145.951 62.8182 146.332 63.4882 146.83 63.9474C147.331 64.4067 147.935 64.6364 148.641 64.6364ZM161.51 51.4545V66H159.749V53.3011H159.663L156.112 55.6591V53.8693L159.749 51.4545H161.51ZM170.438 66.1989C169.367 66.1989 168.456 65.9077 167.703 65.3253C166.95 64.7382 166.375 63.8883 165.977 62.7756C165.58 61.6581 165.381 60.3087 165.381 58.7273C165.381 57.1553 165.58 55.813 165.977 54.7003C166.38 53.5829 166.957 52.7306 167.71 52.1435C168.468 51.5516 169.377 51.2557 170.438 51.2557C171.498 51.2557 172.405 51.5516 173.158 52.1435C173.915 52.7306 174.493 53.5829 174.891 54.7003C175.293 55.813 175.494 57.1553 175.494 58.7273C175.494 60.3087 175.295 61.6581 174.898 62.7756C174.5 63.8883 173.925 64.7382 173.172 65.3253C172.419 65.9077 171.508 66.1989 170.438 66.1989ZM170.438 64.6364C171.498 64.6364 172.322 64.125 172.909 63.1023C173.496 62.0795 173.79 60.6212 173.79 58.7273C173.79 57.4678 173.655 56.3954 173.385 55.5099C173.12 54.6245 172.736 53.9498 172.234 53.4858C171.737 53.0218 171.138 52.7898 170.438 52.7898C169.386 52.7898 168.565 53.3082 167.973 54.3452C167.381 55.3774 167.085 56.8381 167.085 58.7273C167.085 59.9867 167.218 61.0568 167.483 61.9375C167.748 62.8182 168.129 63.4882 168.626 63.9474C169.128 64.4067 169.732 64.6364 170.438 64.6364ZM183.307 51.4545V66H181.545V53.3011H181.46L177.909 55.6591V53.8693L181.545 51.4545H183.307ZM192.234 66.1989C191.164 66.1989 190.253 65.9077 189.5 65.3253C188.747 64.7382 188.172 63.8883 187.774 62.7756C187.376 61.6581 187.178 60.3087 187.178 58.7273C187.178 57.1553 187.376 55.813 187.774 54.7003C188.177 53.5829 188.754 52.7306 189.507 52.1435C190.265 51.5516 191.174 51.2557 192.234 51.2557C193.295 51.2557 194.202 51.5516 194.955 52.1435C195.712 52.7306 196.29 53.5829 196.688 54.7003C197.09 55.813 197.291 57.1553 197.291 58.7273C197.291 60.3087 197.092 61.6581 196.695 62.7756C196.297 63.8883 195.722 64.7382 194.969 65.3253C194.216 65.9077 193.304 66.1989 192.234 66.1989ZM192.234 64.6364C193.295 64.6364 194.119 64.125 194.706 63.1023C195.293 62.0795 195.587 60.6212 195.587 58.7273C195.587 57.4678 195.452 56.3954 195.182 55.5099C194.917 54.6245 194.533 53.9498 194.031 53.4858C193.534 53.0218 192.935 52.7898 192.234 52.7898C191.183 52.7898 190.362 53.3082 189.77 54.3452C189.178 55.3774 188.882 56.8381 188.882 58.7273C188.882 59.9867 189.015 61.0568 189.28 61.9375C189.545 62.8182 189.926 63.4882 190.423 63.9474C190.925 64.4067 191.529 64.6364 192.234 64.6364ZM205.104 51.4545V66H203.342V53.3011H203.257L199.706 55.6591V53.8693L203.342 51.4545H205.104Z" fill="black"/>
<path d="M208 70.5C203.667 76 192.1 83.7 180.5 70.5" stroke="black"/>
<path d="M174 70.5C169.667 76 158.1 83.7 146.5 70.5" stroke="black"/>
<path d="M141 70.5C136.667 76 125.1 83.7 113.5 70.5" stroke="black"/>
<path d="M109 70.5C104.667 76 93.1 83.7 81.5 70.5" stroke="black"/>
<path d="M83.25 66.1989C82.1799 66.1989 81.2685 65.9077 80.5156 65.3253C79.7628 64.7382 79.1875 63.8883 78.7898 62.7756C78.392 61.6581 78.1932 60.3087 78.1932 58.7273C78.1932 57.1553 78.392 55.813 78.7898 54.7003C79.1922 53.5829 79.7699 52.7306 80.5227 52.1435C81.2803 51.5516 82.1894 51.2557 83.25 51.2557C84.3106 51.2557 85.2173 51.5516 85.9702 52.1435C86.7277 52.7306 87.3054 53.5829 87.7031 54.7003C88.1056 55.813 88.3068 57.1553 88.3068 58.7273C88.3068 60.3087 88.108 61.6581 87.7102 62.7756C87.3125 63.8883 86.7372 64.7382 85.9844 65.3253C85.2315 65.9077 84.3201 66.1989 83.25 66.1989ZM83.25 64.6364C84.3106 64.6364 85.1345 64.125 85.7216 63.1023C86.3087 62.0795 86.6023 60.6212 86.6023 58.7273C86.6023 57.4678 86.4673 56.3954 86.1974 55.5099C85.9323 54.6245 85.5488 53.9498 85.0469 53.4858C84.5497 53.0218 83.9508 52.7898 83.25 52.7898C82.1989 52.7898 81.3774 53.3082 80.7855 54.3452C80.1937 55.3774 79.8977 56.8381 79.8977 58.7273C79.8977 59.9867 80.0303 61.0568 80.2955 61.9375C80.5606 62.8182 80.9418 63.4882 81.4389 63.9474C81.9408 64.4067 82.5445 64.6364 83.25 64.6364ZM95.75 66.1989C94.6799 66.1989 93.7685 65.9077 93.0156 65.3253C92.2628 64.7382 91.6875 63.8883 91.2898 62.7756C90.892 61.6581 90.6932 60.3087 90.6932 58.7273C90.6932 57.1553 90.892 55.813 91.2898 54.7003C91.6922 53.5829 92.2699 52.7306 93.0227 52.1435C93.7803 51.5516 94.6894 51.2557 95.75 51.2557C96.8106 51.2557 97.7173 51.5516 98.4702 52.1435C99.2277 52.7306 99.8054 53.5829 100.203 54.7003C100.606 55.813 100.807 57.1553 100.807 58.7273C100.807 60.3087 100.608 61.6581 100.21 62.7756C99.8125 63.8883 99.2372 64.7382 98.4844 65.3253C97.7315 65.9077 96.8201 66.1989 95.75 66.1989ZM95.75 64.6364C96.8106 64.6364 97.6345 64.125 98.2216 63.1023C98.8087 62.0795 99.1023 60.6212 99.1023 58.7273C99.1023 57.4678 98.9673 56.3954 98.6974 55.5099C98.4323 54.6245 98.0488 53.9498 97.5469 53.4858C97.0497 53.0218 96.4508 52.7898 95.75 52.7898C94.6989 52.7898 93.8774 53.3082 93.2855 54.3452C92.6937 55.3774 92.3977 56.8381 92.3977 58.7273C92.3977 59.9867 92.5303 61.0568 92.7955 61.9375C93.0606 62.8182 93.4418 63.4882 93.9389 63.9474C94.4408 64.4067 95.0445 64.6364 95.75 64.6364Z" fill="#81BAFC"/>
<path d="M194.051 101.199C193.218 101.199 192.467 101.033 191.8 100.702C191.132 100.37 190.597 99.9157 190.195 99.3381C189.792 98.7604 189.572 98.1023 189.534 97.3636H191.239C191.305 98.0218 191.603 98.5663 192.134 98.9972C192.669 99.4233 193.308 99.6364 194.051 99.6364C194.648 99.6364 195.178 99.4967 195.642 99.2173C196.111 98.938 196.478 98.5545 196.743 98.0668C197.013 97.5743 197.148 97.018 197.148 96.3977C197.148 95.7633 197.008 95.1974 196.729 94.7003C196.454 94.1984 196.075 93.803 195.592 93.5142C195.109 93.2254 194.558 93.0786 193.938 93.0739C193.492 93.0691 193.036 93.1378 192.567 93.2798C192.098 93.4171 191.712 93.5947 191.409 93.8125L189.761 93.6136L190.642 86.4545H198.199V88.017H192.119L191.608 92.3068H191.693C191.991 92.0701 192.366 91.8736 192.815 91.7173C193.265 91.5611 193.734 91.483 194.222 91.483C195.112 91.483 195.905 91.696 196.601 92.1222C197.302 92.5436 197.851 93.1212 198.249 93.8551C198.651 94.589 198.852 95.4271 198.852 96.3693C198.852 97.2973 198.644 98.1259 198.227 98.8551C197.815 99.5795 197.247 100.152 196.523 100.574C195.798 100.991 194.974 101.199 194.051 101.199Z" fill="black"/>
<path d="M156.506 101V99.7216L161.307 94.4659C161.87 93.8504 162.334 93.3153 162.699 92.8608C163.063 92.4015 163.333 91.9706 163.509 91.5682C163.688 91.161 163.778 90.7348 163.778 90.2898C163.778 89.7784 163.655 89.3357 163.409 88.9616C163.168 88.5876 162.836 88.2988 162.415 88.0952C161.993 87.8916 161.52 87.7898 160.994 87.7898C160.436 87.7898 159.948 87.9058 159.531 88.1378C159.119 88.3651 158.8 88.6847 158.572 89.0966C158.35 89.5085 158.239 89.9915 158.239 90.5455H156.562C156.562 89.6932 156.759 88.9451 157.152 88.3011C157.545 87.6572 158.08 87.1553 158.757 86.7955C159.439 86.4356 160.204 86.2557 161.051 86.2557C161.903 86.2557 162.659 86.4356 163.317 86.7955C163.975 87.1553 164.491 87.6406 164.865 88.2514C165.239 88.8622 165.426 89.5417 165.426 90.2898C165.426 90.8248 165.329 91.348 165.135 91.8594C164.946 92.366 164.614 92.9318 164.141 93.5568C163.672 94.1771 163.021 94.9347 162.188 95.8295L158.92 99.3239V99.4375H165.682V101H156.506Z" fill="black"/>
<path d="M127.42 101.199C126.483 101.199 125.647 101.038 124.913 100.716C124.184 100.394 123.604 99.9465 123.173 99.3736C122.747 98.7959 122.515 98.1259 122.477 97.3636H124.267C124.305 97.8324 124.466 98.2372 124.75 98.5781C125.034 98.9143 125.406 99.1747 125.865 99.3594C126.324 99.544 126.833 99.6364 127.392 99.6364C128.017 99.6364 128.571 99.5275 129.054 99.3097C129.537 99.0919 129.916 98.7888 130.19 98.4006C130.465 98.0123 130.602 97.5625 130.602 97.0511C130.602 96.5161 130.47 96.045 130.205 95.6378C129.939 95.2259 129.551 94.9039 129.04 94.6719C128.528 94.4399 127.903 94.3239 127.165 94.3239H126V92.7614H127.165C127.742 92.7614 128.249 92.6572 128.685 92.4489C129.125 92.2405 129.468 91.947 129.714 91.5682C129.965 91.1894 130.091 90.7443 130.091 90.233C130.091 89.7405 129.982 89.312 129.764 88.9474C129.546 88.5829 129.239 88.2988 128.841 88.0952C128.448 87.8916 127.984 87.7898 127.449 87.7898C126.947 87.7898 126.473 87.8821 126.028 88.0668C125.588 88.2467 125.228 88.5095 124.949 88.8551C124.67 89.196 124.518 89.608 124.494 90.0909H122.79C122.818 89.3286 123.048 88.661 123.479 88.0881C123.91 87.5104 124.473 87.0606 125.169 86.7386C125.87 86.4167 126.639 86.2557 127.477 86.2557C128.377 86.2557 129.149 86.438 129.793 86.8026C130.437 87.1624 130.931 87.6383 131.277 88.2301C131.623 88.822 131.795 89.4612 131.795 90.1477C131.795 90.9669 131.58 91.6652 131.149 92.2429C130.723 92.8205 130.143 93.2206 129.409 93.4432V93.5568C130.328 93.7083 131.045 94.099 131.561 94.7287C132.077 95.3537 132.335 96.1278 132.335 97.0511C132.335 97.8419 132.12 98.5521 131.689 99.1818C131.263 99.8068 130.68 100.299 129.942 100.659C129.203 101.019 128.363 101.199 127.42 101.199Z" fill="black"/>
<path d="M95.6193 86.4545V101H93.858V88.3011H93.7727L90.2216 90.6591V88.8693L93.858 86.4545H95.6193Z" fill="black"/>
</svg>
