<svg width="88" height="102" viewBox="0 0 88 102" fill="none" xmlns="http://www.w3.org/2000/svg">
<g clip-path="url(#clip0_11_2)">
<path d="M41.5 3V82.5" stroke="black"/>
<path d="M23.104 15V13.896L25.78 11.052C26.236 10.564 26.568 10.132 26.776 9.756C26.984 9.372 27.088 9.004 27.088 8.652C27.088 8.164 26.952 7.78 26.68 7.5C26.416 7.22 26.052 7.08 25.588 7.08C25.076 7.08 24.672 7.224 24.376 7.512C24.088 7.8 23.944 8.196 23.944 8.7H22.864C22.88 8.172 23 7.716 23.224 7.332C23.456 6.94 23.772 6.64 24.172 6.432C24.58 6.224 25.052 6.12 25.588 6.12C26.116 6.12 26.572 6.224 26.956 6.432C27.348 6.632 27.648 6.92 27.856 7.296C28.064 7.672 28.168 8.12 28.168 8.64C28.168 9.136 28.036 9.628 27.772 10.116C27.508 10.604 27.076 11.16 26.476 11.784L24.316 14.016H28.312V15H23.104ZM32.7713 15.12C32.0593 15.12 31.4753 14.936 31.0193 14.568C30.5633 14.2 30.2953 13.704 30.2153 13.08H31.2953C31.3353 13.424 31.4833 13.692 31.7393 13.884C31.9953 14.068 32.3433 14.16 32.7833 14.16C33.2873 14.16 33.6633 14.024 33.9113 13.752C34.1673 13.48 34.2953 13.096 34.2953 12.6V11.748C34.2953 11.252 34.1673 10.868 33.9113 10.596C33.6633 10.324 33.2913 10.188 32.7953 10.188C32.4833 10.188 32.2113 10.272 31.9793 10.44C31.7473 10.6 31.5793 10.816 31.4753 11.088H30.3953L30.4553 6.24H35.0633V7.224H31.4993L31.4633 10.14H31.7993L31.4633 10.452C31.4633 10.076 31.6113 9.78 31.9073 9.564C32.2113 9.348 32.6153 9.24 33.1193 9.24C33.8313 9.232 34.3833 9.452 34.7753 9.9C35.1753 10.34 35.3753 10.956 35.3753 11.748V12.6C35.3753 13.376 35.1473 13.992 34.6913 14.448C34.2353 14.896 33.5953 15.12 32.7713 15.12Z" fill="black"/>
<path d="M23.08 31V30.016H25.456V23.14L23.08 24.916V23.716L25.06 22.24H26.536V30.016H28.48V31H23.08ZM30.2993 31V29.896L32.9753 27.052C33.4313 26.564 33.7633 26.132 33.9713 25.756C34.1793 25.372 34.2833 25.004 34.2833 24.652C34.2833 24.164 34.1473 23.78 33.8753 23.5C33.6113 23.22 33.2473 23.08 32.7833 23.08C32.2713 23.08 31.8673 23.224 31.5713 23.512C31.2833 23.8 31.1393 24.196 31.1393 24.7H30.0593C30.0753 24.172 30.1953 23.716 30.4193 23.332C30.6513 22.94 30.9673 22.64 31.3673 22.432C31.7753 22.224 32.2473 22.12 32.7833 22.12C33.3113 22.12 33.7673 22.224 34.1513 22.432C34.5433 22.632 34.8433 22.92 35.0513 23.296C35.2593 23.672 35.3633 24.12 35.3633 24.64C35.3633 25.136 35.2313 25.628 34.9673 26.116C34.7033 26.604 34.2713 27.16 33.6713 27.784L31.5113 30.016H35.5073V31H30.2993Z" fill="black"/>
<path d="M33.612 47.12C33.052 47.12 32.56 47.004 32.136 46.772C31.72 46.532 31.396 46.2 31.164 45.776C30.932 45.352 30.816 44.86 30.816 44.3C30.816 43.86 30.876 43.428 30.996 43.004C31.124 42.58 31.312 42.172 31.56 41.78L33.756 38.24H34.956L32.472 42.224L32.52 42.26C32.672 42.036 32.88 41.864 33.144 41.744C33.408 41.624 33.704 41.564 34.032 41.564C34.512 41.564 34.928 41.676 35.28 41.9C35.632 42.124 35.904 42.44 36.096 42.848C36.288 43.256 36.384 43.74 36.384 44.3C36.384 44.86 36.268 45.352 36.036 45.776C35.804 46.2 35.48 46.532 35.064 46.772C34.656 47.004 34.172 47.12 33.612 47.12ZM33.6 46.16C34.112 46.16 34.524 45.992 34.836 45.656C35.148 45.312 35.304 44.86 35.304 44.3C35.304 43.74 35.148 43.292 34.836 42.956C34.524 42.612 34.112 42.44 33.6 42.44C33.088 42.44 32.676 42.612 32.364 42.956C32.052 43.292 31.896 43.74 31.896 44.3C31.896 44.86 32.052 45.312 32.364 45.656C32.676 45.992 33.088 46.16 33.6 46.16Z" fill="black"/>
<path d="M32.468 63.12C31.94 63.12 31.476 63.016 31.076 62.808C30.684 62.592 30.38 62.296 30.164 61.92C29.948 61.544 29.84 61.104 29.84 60.6H30.92C30.92 61.088 31.056 61.472 31.328 61.752C31.608 62.024 31.992 62.16 32.48 62.16C32.976 62.16 33.36 62.016 33.632 61.728C33.904 61.44 34.04 61.064 34.04 60.6V59.976C34.04 59.48 33.904 59.096 33.632 58.824C33.36 58.552 32.976 58.416 32.48 58.416H31.58V57.336L33.752 55.224H30.2V54.24H34.844V55.32L32.504 57.588V57.456C33.304 57.456 33.94 57.684 34.412 58.14C34.884 58.596 35.12 59.208 35.12 59.976V60.6C35.12 61.104 35.008 61.544 34.784 61.92C34.568 62.296 34.26 62.592 33.86 62.808C33.46 63.016 32.996 63.12 32.468 63.12Z" fill="black"/>
<path d="M30.08 79V78.016H32.456V71.14L30.08 72.916V71.716L32.06 70.24H33.536V78.016H35.48V79H30.08Z" fill="black"/>
<path d="M47.08 15V14.016H49.456V7.14L47.08 8.916V7.716L49.06 6.24H50.536V14.016H52.48V15H47.08Z" fill="black"/>
<path d="M49.6 31.12C49.064 31.12 48.596 31.016 48.196 30.808C47.804 30.592 47.5 30.292 47.284 29.908C47.068 29.516 46.96 29.06 46.96 28.54V24.7C46.96 24.172 47.068 23.716 47.284 23.332C47.5 22.948 47.804 22.652 48.196 22.444C48.596 22.228 49.064 22.12 49.6 22.12C50.144 22.12 50.612 22.228 51.004 22.444C51.396 22.652 51.7 22.948 51.916 23.332C52.132 23.716 52.24 24.172 52.24 24.7V28.54C52.24 29.06 52.132 29.516 51.916 29.908C51.7 30.292 51.392 30.592 50.992 30.808C50.6 31.016 50.136 31.12 49.6 31.12ZM49.6 30.196C50.08 30.196 50.464 30.044 50.752 29.74C51.048 29.428 51.196 29.028 51.196 28.54V24.7C51.196 24.212 51.048 23.816 50.752 23.512C50.464 23.2 50.08 23.044 49.6 23.044C49.12 23.044 48.732 23.2 48.436 23.512C48.148 23.816 48.004 24.212 48.004 24.7V28.54C48.004 29.028 48.148 29.428 48.436 29.74C48.732 30.044 49.12 30.196 49.6 30.196ZM49.6 27.328C49.384 27.328 49.208 27.26 49.072 27.124C48.944 26.988 48.88 26.808 48.88 26.584C48.88 26.368 48.944 26.196 49.072 26.068C49.208 25.932 49.384 25.864 49.6 25.864C49.816 25.864 49.988 25.932 50.116 26.068C50.252 26.196 50.32 26.368 50.32 26.584C50.32 26.808 50.252 26.988 50.116 27.124C49.988 27.26 49.816 27.328 49.6 27.328Z" fill="black"/>
<path d="M49.6 47.12C49.064 47.12 48.596 47.016 48.196 46.808C47.804 46.592 47.5 46.292 47.284 45.908C47.068 45.516 46.96 45.06 46.96 44.54V40.7C46.96 40.172 47.068 39.716 47.284 39.332C47.5 38.948 47.804 38.652 48.196 38.444C48.596 38.228 49.064 38.12 49.6 38.12C50.144 38.12 50.612 38.228 51.004 38.444C51.396 38.652 51.7 38.948 51.916 39.332C52.132 39.716 52.24 40.172 52.24 40.7V44.54C52.24 45.06 52.132 45.516 51.916 45.908C51.7 46.292 51.392 46.592 50.992 46.808C50.6 47.016 50.136 47.12 49.6 47.12ZM49.6 46.196C50.08 46.196 50.464 46.044 50.752 45.74C51.048 45.428 51.196 45.028 51.196 44.54V40.7C51.196 40.212 51.048 39.816 50.752 39.512C50.464 39.2 50.08 39.044 49.6 39.044C49.12 39.044 48.732 39.2 48.436 39.512C48.148 39.816 48.004 40.212 48.004 40.7V44.54C48.004 45.028 48.148 45.428 48.436 45.74C48.732 46.044 49.12 46.196 49.6 46.196ZM49.6 43.328C49.384 43.328 49.208 43.26 49.072 43.124C48.944 42.988 48.88 42.808 48.88 42.584C48.88 42.368 48.944 42.196 49.072 42.068C49.208 41.932 49.384 41.864 49.6 41.864C49.816 41.864 49.988 41.932 50.116 42.068C50.252 42.196 50.32 42.368 50.32 42.584C50.32 42.808 50.252 42.988 50.116 43.124C49.988 43.26 49.816 43.328 49.6 43.328Z" fill="black"/>
<path d="M47.08 63V62.016H49.456V55.14L47.08 56.916V55.716L49.06 54.24H50.536V62.016H52.48V63H47.08Z" fill="black"/>
<path d="M47.08 79V78.016H49.456V71.14L47.08 72.916V71.716L49.06 70.24H50.536V78.016H52.48V79H47.08Z" fill="black"/>
<path d="M67.0607 12.4393C66.4749 11.8535 65.5251 11.8535 64.9393 12.4393L55.3934 21.9853C54.8076 22.571 54.8076 23.5208 55.3934 24.1066C55.9792 24.6924 56.9289 24.6924 57.5147 24.1066L66 15.6213L74.4853 24.1066C75.0711 24.6924 76.0208 24.6924 76.6066 24.1066C77.1924 23.5208 77.1924 22.571 76.6066 21.9853L67.0607 12.4393ZM67.5 80L67.5 13.5H64.5L64.5 80H67.5Z" fill="black"/>
<path d="M30.6689 86.3732C30.6689 86.0155 30.6689 86 30.398 86C30.0728 86.4198 29.3954 86.9951 28 86.9951L28 87.446C28.3116 87.446 28.989 87.446 29.7341 87.0418L29.7341 95.1427C29.7341 95.7024 29.6935 95.889 28.5013 95.889L28.0813 95.889L28.0813 96.3399C28.4471 96.3088 29.7612 96.3088 30.2083 96.3088C30.6554 96.3088 31.956 96.3088 32.3218 96.3399L32.3218 95.889L31.9018 95.889C30.7096 95.889 30.6689 95.7024 30.6689 95.1427L30.6689 86.3732Z" fill="black"/>
<path d="M37.3017 86.3732C37.3017 86.0155 37.3017 86 37.0307 86C36.7056 86.4198 36.0282 86.9951 34.6328 86.9951L34.6328 87.446C34.9444 87.446 35.6217 87.446 36.3669 87.0418L36.3669 95.1427C36.3669 95.7024 36.3262 95.889 35.134 95.889L34.714 95.889L34.714 96.3399C35.0798 96.3088 36.394 96.3088 36.841 96.3088C37.2881 96.3088 38.5887 96.3088 38.9545 96.3399L38.9545 95.889L38.5345 95.889C37.3423 95.889 37.3017 95.7024 37.3017 95.1427L37.3017 86.3732Z" fill="black"/>
<path d="M46.102 91.3643C46.102 90.0738 46.0343 88.8143 45.5466 87.6326C44.9911 86.3421 44.0157 86 43.3518 86C42.5661 86 41.6042 86.4509 41.1029 87.7415C40.7236 88.721 40.5881 89.6851 40.5881 91.3643C40.5881 92.8726 40.6829 94.0076 41.1706 95.1116C41.699 96.2933 42.6338 96.6665 43.3383 96.6665C44.5169 96.6665 45.1943 95.8579 45.5872 94.9561C46.0749 93.7899 46.102 92.2662 46.102 91.3643ZM43.3383 96.3555C42.9048 96.3555 42.0241 96.0756 41.7667 94.3808C41.6177 93.4479 41.6177 92.2662 41.6177 91.1777C41.6177 89.9027 41.6177 88.7521 41.8345 87.8348C42.0648 86.793 42.7557 86.311 43.3383 86.311C43.8531 86.311 44.6389 86.6686 44.8963 88.0058C45.0724 88.8921 45.0724 90.1204 45.0724 91.1777C45.0724 92.2195 45.0724 93.4012 44.9234 94.3497C44.666 96.0601 43.8125 96.3555 43.3383 96.3555Z" fill="black"/>
<path d="M52.7347 91.3643C52.7347 90.0738 52.667 88.8143 52.1793 87.6326C51.6238 86.3421 50.6484 86 49.9845 86C49.1987 86 48.2369 86.4509 47.7356 87.7415C47.3562 88.721 47.2208 89.6851 47.2208 91.3643C47.2208 92.8726 47.3156 94.0076 47.8033 95.1116C48.3317 96.2933 49.2665 96.6665 49.971 96.6665C51.1496 96.6665 51.827 95.8579 52.2199 94.9561C52.7076 93.7899 52.7347 92.2662 52.7347 91.3643ZM49.971 96.3555C49.5374 96.3555 48.6568 96.0756 48.3994 94.3808C48.2504 93.4479 48.2504 92.2662 48.2504 91.1777C48.2504 89.9027 48.2504 88.7521 48.4672 87.8348C48.6975 86.793 49.3884 86.311 49.971 86.311C50.4858 86.311 51.2716 86.6686 51.529 88.0058C51.7051 88.8921 51.7051 90.1204 51.7051 91.1777C51.7051 92.2195 51.7051 93.4012 51.5561 94.3497C51.2987 96.0601 50.4451 96.3555 49.971 96.3555Z" fill="black"/>
<path d="M57.1998 86.3732C57.1998 86.0155 57.1998 86 56.9288 86C56.6037 86.4198 55.9263 86.9951 54.5309 86.9951L54.5309 87.446C54.8425 87.446 55.5199 87.446 56.265 87.0418L56.265 95.1427C56.265 95.7024 56.2244 95.889 55.0322 95.889L54.6122 95.889L54.6122 96.3399C54.978 96.3088 56.2921 96.3088 56.7392 96.3088C57.1863 96.3088 58.4868 96.3088 58.8526 96.3399L58.8526 95.889L58.4327 95.889C57.2404 95.889 57.1998 95.7024 57.1998 95.1427L57.1998 86.3732Z" fill="black"/>
<path d="M62.4778 96.5576C62.6223 96.4021 63.0016 96.0601 63.1461 95.9149C63.7061 95.3241 64.239 94.754 64.239 93.8107C64.239 92.5771 63.3358 91.779 62.2068 91.779C61.123 91.779 60.4095 92.7223 60.4095 93.6448C60.4095 94.1527 60.7617 94.2253 60.8882 94.2253C61.0778 94.2253 61.3578 94.0698 61.3578 93.6759C61.3578 93.1369 60.9062 93.1369 60.7979 93.1369C61.0598 92.3802 61.6649 92.121 62.1075 92.121C62.9474 92.121 63.381 92.9399 63.381 93.8107C63.381 94.8887 62.7216 95.6765 61.6559 96.9308L60.5179 98.2784C60.4095 98.3924 60.4095 98.4131 60.4095 98.6723L63.9771 98.6723L64.239 96.8168L63.959 96.8168C63.9319 97.0241 63.8597 97.5424 63.7513 97.7393C63.6971 97.8223 63.0107 97.8223 62.8662 97.8223L61.2585 97.8223L62.4778 96.5576Z" fill="black"/>
</g>
<defs>
<clipPath id="clip0_11_2">
<rect width="102" height="88" fill="white" transform="translate(88) rotate(90)"/>
</clipPath>
</defs>
</svg>
