<svg width="443" height="325" viewBox="0 0 443 325" fill="none" xmlns="http://www.w3.org/2000/svg">
<path d="M156.16 128V126.032H160.912V112.28L156.16 115.832V113.432L160.12 110.48H163.072V126.032H166.96V128H156.16ZM175.591 128.24C174.983 128.24 174.495 128.064 174.127 127.712C173.775 127.36 173.599 126.888 173.599 126.296C173.599 125.672 173.775 125.176 174.127 124.808C174.495 124.44 174.983 124.256 175.591 124.256C176.199 124.256 176.679 124.44 177.031 124.808C177.399 125.176 177.583 125.672 177.583 126.296C177.583 126.888 177.399 127.36 177.031 127.712C176.679 128.064 176.199 128.24 175.591 128.24ZM189.981 128.24C188.909 128.24 187.973 128.032 187.173 127.616C186.389 127.184 185.781 126.584 185.349 125.816C184.917 125.032 184.701 124.12 184.701 123.08V115.4C184.701 114.344 184.917 113.432 185.349 112.664C185.781 111.896 186.389 111.304 187.173 110.888C187.973 110.456 188.909 110.24 189.981 110.24C191.069 110.24 192.005 110.456 192.789 110.888C193.573 111.304 194.181 111.896 194.613 112.664C195.045 113.432 195.261 114.344 195.261 115.4V123.08C195.261 124.12 195.045 125.032 194.613 125.816C194.181 126.584 193.565 127.184 192.765 127.616C191.981 128.032 191.053 128.24 189.981 128.24ZM189.981 126.392C190.941 126.392 191.709 126.088 192.285 125.48C192.877 124.856 193.173 124.056 193.173 123.08V115.4C193.173 114.424 192.877 113.632 192.285 113.024C191.709 112.4 190.941 112.088 189.981 112.088C189.021 112.088 188.245 112.4 187.653 113.024C187.077 113.632 186.789 114.424 186.789 115.4V123.08C186.789 124.056 187.077 124.856 187.653 125.48C188.245 126.088 189.021 126.392 189.981 126.392ZM189.981 120.656C189.549 120.656 189.197 120.52 188.925 120.248C188.669 119.976 188.541 119.616 188.541 119.168C188.541 118.736 188.669 118.392 188.925 118.136C189.197 117.864 189.549 117.728 189.981 117.728C190.413 117.728 190.757 117.864 191.013 118.136C191.285 118.392 191.421 118.736 191.421 119.168C191.421 119.616 191.285 119.976 191.013 120.248C190.757 120.52 190.413 120.656 189.981 120.656ZM199.332 128V126.032H204.084V112.28L199.332 115.832V113.432L203.292 110.48H206.244V126.032H210.132V128H199.332ZM218.763 128.24C217.691 128.24 216.755 128.032 215.955 127.616C215.171 127.184 214.563 126.584 214.131 125.816C213.699 125.032 213.483 124.12 213.483 123.08V115.4C213.483 114.344 213.699 113.432 214.131 112.664C214.563 111.896 215.171 111.304 215.955 110.888C216.755 110.456 217.691 110.24 218.763 110.24C219.851 110.24 220.787 110.456 221.571 110.888C222.355 111.304 222.963 111.896 223.395 112.664C223.827 113.432 224.043 114.344 224.043 115.4V123.08C224.043 124.12 223.827 125.032 223.395 125.816C222.963 126.584 222.347 127.184 221.547 127.616C220.763 128.032 219.835 128.24 218.763 128.24ZM218.763 126.392C219.723 126.392 220.491 126.088 221.067 125.48C221.659 124.856 221.955 124.056 221.955 123.08V115.4C221.955 114.424 221.659 113.632 221.067 113.024C220.491 112.4 219.723 112.088 218.763 112.088C217.803 112.088 217.027 112.4 216.435 113.024C215.859 113.632 215.571 114.424 215.571 115.4V123.08C215.571 124.056 215.859 124.856 216.435 125.48C217.027 126.088 217.803 126.392 218.763 126.392ZM218.763 120.656C218.331 120.656 217.979 120.52 217.707 120.248C217.451 119.976 217.323 119.616 217.323 119.168C217.323 118.736 217.451 118.392 217.707 118.136C217.979 117.864 218.331 117.728 218.763 117.728C219.195 117.728 219.539 117.864 219.795 118.136C220.067 118.392 220.203 118.736 220.203 119.168C220.203 119.616 220.067 119.976 219.795 120.248C219.539 120.52 219.195 120.656 218.763 120.656ZM233.153 128.24C232.081 128.24 231.145 128.032 230.345 127.616C229.561 127.184 228.953 126.584 228.521 125.816C228.089 125.032 227.873 124.12 227.873 123.08V115.4C227.873 114.344 228.089 113.432 228.521 112.664C228.953 111.896 229.561 111.304 230.345 110.888C231.145 110.456 232.081 110.24 233.153 110.24C234.241 110.24 235.177 110.456 235.961 110.888C236.745 111.304 237.353 111.896 237.785 112.664C238.217 113.432 238.433 114.344 238.433 115.4V123.08C238.433 124.12 238.217 125.032 237.785 125.816C237.353 126.584 236.737 127.184 235.937 127.616C235.153 128.032 234.225 128.24 233.153 128.24ZM233.153 126.392C234.113 126.392 234.881 126.088 235.457 125.48C236.049 124.856 236.345 124.056 236.345 123.08V115.4C236.345 114.424 236.049 113.632 235.457 113.024C234.881 112.4 234.113 112.088 233.153 112.088C232.193 112.088 231.417 112.4 230.825 113.024C230.249 113.632 229.961 114.424 229.961 115.4V123.08C229.961 124.056 230.249 124.856 230.825 125.48C231.417 126.088 232.193 126.392 233.153 126.392ZM233.153 120.656C232.721 120.656 232.369 120.52 232.097 120.248C231.841 119.976 231.713 119.616 231.713 119.168C231.713 118.736 231.841 118.392 232.097 118.136C232.369 117.864 232.721 117.728 233.153 117.728C233.585 117.728 233.929 117.864 234.185 118.136C234.457 118.392 234.593 118.736 234.593 119.168C234.593 119.616 234.457 119.976 234.185 120.248C233.929 120.52 233.585 120.656 233.153 120.656ZM247.544 128.24C246.472 128.24 245.536 128.032 244.736 127.616C243.952 127.184 243.344 126.584 242.912 125.816C242.48 125.032 242.264 124.12 242.264 123.08V115.4C242.264 114.344 242.48 113.432 242.912 112.664C243.344 111.896 243.952 111.304 244.736 110.888C245.536 110.456 246.472 110.24 247.544 110.24C248.632 110.24 249.568 110.456 250.352 110.888C251.136 111.304 251.744 111.896 252.176 112.664C252.608 113.432 252.824 114.344 252.824 115.4V123.08C252.824 124.12 252.608 125.032 252.176 125.816C251.744 126.584 251.128 127.184 250.328 127.616C249.544 128.032 248.616 128.24 247.544 128.24ZM247.544 126.392C248.504 126.392 249.272 126.088 249.848 125.48C250.44 124.856 250.736 124.056 250.736 123.08V115.4C250.736 114.424 250.44 113.632 249.848 113.024C249.272 112.4 248.504 112.088 247.544 112.088C246.584 112.088 245.808 112.4 245.216 113.024C244.64 113.632 244.352 114.424 244.352 115.4V123.08C244.352 124.056 244.64 124.856 245.216 125.48C245.808 126.088 246.584 126.392 247.544 126.392ZM247.544 120.656C247.112 120.656 246.76 120.52 246.488 120.248C246.232 119.976 246.104 119.616 246.104 119.168C246.104 118.736 246.232 118.392 246.488 118.136C246.76 117.864 247.112 117.728 247.544 117.728C247.976 117.728 248.32 117.864 248.576 118.136C248.848 118.392 248.984 118.736 248.984 119.168C248.984 119.616 248.848 119.976 248.576 120.248C248.32 120.52 247.976 120.656 247.544 120.656ZM275.269 125.72V121.04H270.685V119.12H275.269V114.44H277.381V119.12H281.965V121.04H277.381V125.72H275.269ZM161.2 160.24C160.128 160.24 159.192 160.032 158.392 159.616C157.608 159.184 157 158.584 156.568 157.816C156.136 157.032 155.92 156.12 155.92 155.08V147.4C155.92 146.344 156.136 145.432 156.568 144.664C157 143.896 157.608 143.304 158.392 142.888C159.192 142.456 160.128 142.24 161.2 142.24C162.288 142.24 163.224 142.456 164.008 142.888C164.792 143.304 165.4 143.896 165.832 144.664C166.264 145.432 166.48 146.344 166.48 147.4V155.08C166.48 156.12 166.264 157.032 165.832 157.816C165.4 158.584 164.784 159.184 163.984 159.616C163.2 160.032 162.272 160.24 161.2 160.24ZM161.2 158.392C162.16 158.392 162.928 158.088 163.504 157.48C164.096 156.856 164.392 156.056 164.392 155.08V147.4C164.392 146.424 164.096 145.632 163.504 145.024C162.928 144.4 162.16 144.088 161.2 144.088C160.24 144.088 159.464 144.4 158.872 145.024C158.296 145.632 158.008 146.424 158.008 147.4V155.08C158.008 156.056 158.296 156.856 158.872 157.48C159.464 158.088 160.24 158.392 161.2 158.392ZM161.2 152.656C160.768 152.656 160.416 152.52 160.144 152.248C159.888 151.976 159.76 151.616 159.76 151.168C159.76 150.736 159.888 150.392 160.144 150.136C160.416 149.864 160.768 149.728 161.2 149.728C161.632 149.728 161.976 149.864 162.232 150.136C162.504 150.392 162.64 150.736 162.64 151.168C162.64 151.616 162.504 151.976 162.232 152.248C161.976 152.52 161.632 152.656 161.2 152.656ZM175.591 160.24C174.983 160.24 174.495 160.064 174.127 159.712C173.775 159.36 173.599 158.888 173.599 158.296C173.599 157.672 173.775 157.176 174.127 156.808C174.495 156.44 174.983 156.256 175.591 156.256C176.199 156.256 176.679 156.44 177.031 156.808C177.399 157.176 177.583 157.672 177.583 158.296C177.583 158.888 177.399 159.36 177.031 159.712C176.679 160.064 176.199 160.24 175.591 160.24ZM184.941 160V158.032H189.693V144.28L184.941 147.832V145.432L188.901 142.48H191.853V158.032H195.741V160H184.941ZM199.332 160V158.032H204.084V144.28L199.332 147.832V145.432L203.292 142.48H206.244V158.032H210.132V160H199.332ZM213.723 160V158.032H218.475V144.28L213.723 147.832V145.432L217.683 142.48H220.635V158.032H224.523V160H213.723ZM233.153 160.24C232.081 160.24 231.145 160.032 230.345 159.616C229.561 159.184 228.953 158.584 228.521 157.816C228.089 157.032 227.873 156.12 227.873 155.08V147.4C227.873 146.344 228.089 145.432 228.521 144.664C228.953 143.896 229.561 143.304 230.345 142.888C231.145 142.456 232.081 142.24 233.153 142.24C234.241 142.24 235.177 142.456 235.961 142.888C236.745 143.304 237.353 143.896 237.785 144.664C238.217 145.432 238.433 146.344 238.433 147.4V155.08C238.433 156.12 238.217 157.032 237.785 157.816C237.353 158.584 236.737 159.184 235.937 159.616C235.153 160.032 234.225 160.24 233.153 160.24ZM233.153 158.392C234.113 158.392 234.881 158.088 235.457 157.48C236.049 156.856 236.345 156.056 236.345 155.08V147.4C236.345 146.424 236.049 145.632 235.457 145.024C234.881 144.4 234.113 144.088 233.153 144.088C232.193 144.088 231.417 144.4 230.825 145.024C230.249 145.632 229.961 146.424 229.961 147.4V155.08C229.961 156.056 230.249 156.856 230.825 157.48C231.417 158.088 232.193 158.392 233.153 158.392ZM233.153 152.656C232.721 152.656 232.369 152.52 232.097 152.248C231.841 151.976 231.713 151.616 231.713 151.168C231.713 150.736 231.841 150.392 232.097 150.136C232.369 149.864 232.721 149.728 233.153 149.728C233.585 149.728 233.929 149.864 234.185 150.136C234.457 150.392 234.593 150.736 234.593 151.168C234.593 151.616 234.457 151.976 234.185 152.248C233.929 152.52 233.585 152.656 233.153 152.656ZM242.504 160V158.032H247.256V144.28L242.504 147.832V145.432L246.464 142.48H249.416V158.032H253.304V160H242.504ZM271.165 150.16V148.24H281.485V150.16H271.165ZM271.165 155.92V154H281.485V155.92H271.165Z" fill="black"/>
<path d="M154 175H266" stroke="black"/>
<path d="M144.16 200V198.032H148.912V184.28L144.16 187.832V185.432L148.12 182.48H151.072V198.032H154.96V200H144.16ZM163.591 200.24C162.519 200.24 161.583 200.032 160.783 199.616C159.999 199.184 159.391 198.584 158.959 197.816C158.527 197.032 158.311 196.12 158.311 195.08V187.4C158.311 186.344 158.527 185.432 158.959 184.664C159.391 183.896 159.999 183.304 160.783 182.888C161.583 182.456 162.519 182.24 163.591 182.24C164.679 182.24 165.615 182.456 166.399 182.888C167.183 183.304 167.791 183.896 168.223 184.664C168.655 185.432 168.871 186.344 168.871 187.4V195.08C168.871 196.12 168.655 197.032 168.223 197.816C167.791 198.584 167.175 199.184 166.375 199.616C165.591 200.032 164.663 200.24 163.591 200.24ZM163.591 198.392C164.551 198.392 165.319 198.088 165.895 197.48C166.487 196.856 166.783 196.056 166.783 195.08V187.4C166.783 186.424 166.487 185.632 165.895 185.024C165.319 184.4 164.551 184.088 163.591 184.088C162.631 184.088 161.855 184.4 161.263 185.024C160.687 185.632 160.399 186.424 160.399 187.4V195.08C160.399 196.056 160.687 196.856 161.263 197.48C161.855 198.088 162.631 198.392 163.591 198.392ZM163.591 192.656C163.159 192.656 162.807 192.52 162.535 192.248C162.279 191.976 162.151 191.616 162.151 191.168C162.151 190.736 162.279 190.392 162.535 190.136C162.807 189.864 163.159 189.728 163.591 189.728C164.023 189.728 164.367 189.864 164.623 190.136C164.895 190.392 165.031 190.736 165.031 191.168C165.031 191.616 164.895 191.976 164.623 192.248C164.367 192.52 164.023 192.656 163.591 192.656ZM177.981 200.24C177.373 200.24 176.885 200.064 176.517 199.712C176.165 199.36 175.989 198.888 175.989 198.296C175.989 197.672 176.165 197.176 176.517 196.808C176.885 196.44 177.373 196.256 177.981 196.256C178.589 196.256 179.069 196.44 179.421 196.808C179.789 197.176 179.973 197.672 179.973 198.296C179.973 198.888 179.789 199.36 179.421 199.712C179.069 200.064 178.589 200.24 177.981 200.24ZM192.372 200.24C191.3 200.24 190.364 200.032 189.564 199.616C188.78 199.184 188.172 198.584 187.74 197.816C187.308 197.032 187.092 196.12 187.092 195.08V187.4C187.092 186.344 187.308 185.432 187.74 184.664C188.172 183.896 188.78 183.304 189.564 182.888C190.364 182.456 191.3 182.24 192.372 182.24C193.46 182.24 194.396 182.456 195.18 182.888C195.964 183.304 196.572 183.896 197.004 184.664C197.436 185.432 197.652 186.344 197.652 187.4V195.08C197.652 196.12 197.436 197.032 197.004 197.816C196.572 198.584 195.956 199.184 195.156 199.616C194.372 200.032 193.444 200.24 192.372 200.24ZM192.372 198.392C193.332 198.392 194.1 198.088 194.676 197.48C195.268 196.856 195.564 196.056 195.564 195.08V187.4C195.564 186.424 195.268 185.632 194.676 185.024C194.1 184.4 193.332 184.088 192.372 184.088C191.412 184.088 190.636 184.4 190.044 185.024C189.468 185.632 189.18 186.424 189.18 187.4V195.08C189.18 196.056 189.468 196.856 190.044 197.48C190.636 198.088 191.412 198.392 192.372 198.392ZM192.372 192.656C191.94 192.656 191.588 192.52 191.316 192.248C191.06 191.976 190.932 191.616 190.932 191.168C190.932 190.736 191.06 190.392 191.316 190.136C191.588 189.864 191.94 189.728 192.372 189.728C192.804 189.728 193.148 189.864 193.404 190.136C193.676 190.392 193.812 190.736 193.812 191.168C193.812 191.616 193.676 191.976 193.404 192.248C193.148 192.52 192.804 192.656 192.372 192.656ZM206.763 200.24C205.691 200.24 204.755 200.032 203.955 199.616C203.171 199.184 202.563 198.584 202.131 197.816C201.699 197.032 201.483 196.12 201.483 195.08V187.4C201.483 186.344 201.699 185.432 202.131 184.664C202.563 183.896 203.171 183.304 203.955 182.888C204.755 182.456 205.691 182.24 206.763 182.24C207.851 182.24 208.787 182.456 209.571 182.888C210.355 183.304 210.963 183.896 211.395 184.664C211.827 185.432 212.043 186.344 212.043 187.4V195.08C212.043 196.12 211.827 197.032 211.395 197.816C210.963 198.584 210.347 199.184 209.547 199.616C208.763 200.032 207.835 200.24 206.763 200.24ZM206.763 198.392C207.723 198.392 208.491 198.088 209.067 197.48C209.659 196.856 209.955 196.056 209.955 195.08V187.4C209.955 186.424 209.659 185.632 209.067 185.024C208.491 184.4 207.723 184.088 206.763 184.088C205.803 184.088 205.027 184.4 204.435 185.024C203.859 185.632 203.571 186.424 203.571 187.4V195.08C203.571 196.056 203.859 196.856 204.435 197.48C205.027 198.088 205.803 198.392 206.763 198.392ZM206.763 192.656C206.331 192.656 205.979 192.52 205.707 192.248C205.451 191.976 205.323 191.616 205.323 191.168C205.323 190.736 205.451 190.392 205.707 190.136C205.979 189.864 206.331 189.728 206.763 189.728C207.195 189.728 207.539 189.864 207.795 190.136C208.067 190.392 208.203 190.736 208.203 191.168C208.203 191.616 208.067 191.976 207.795 192.248C207.539 192.52 207.195 192.656 206.763 192.656ZM216.113 200V198.032H220.865V184.28L216.113 187.832V185.432L220.073 182.48H223.025V198.032H226.913V200H216.113ZM235.544 200.24C234.472 200.24 233.536 200.032 232.736 199.616C231.952 199.184 231.344 198.584 230.912 197.816C230.48 197.032 230.264 196.12 230.264 195.08V187.4C230.264 186.344 230.48 185.432 230.912 184.664C231.344 183.896 231.952 183.304 232.736 182.888C233.536 182.456 234.472 182.24 235.544 182.24C236.632 182.24 237.568 182.456 238.352 182.888C239.136 183.304 239.744 183.896 240.176 184.664C240.608 185.432 240.824 186.344 240.824 187.4V195.08C240.824 196.12 240.608 197.032 240.176 197.816C239.744 198.584 239.128 199.184 238.328 199.616C237.544 200.032 236.616 200.24 235.544 200.24ZM235.544 198.392C236.504 198.392 237.272 198.088 237.848 197.48C238.44 196.856 238.736 196.056 238.736 195.08V187.4C238.736 186.424 238.44 185.632 237.848 185.024C237.272 184.4 236.504 184.088 235.544 184.088C234.584 184.088 233.808 184.4 233.216 185.024C232.64 185.632 232.352 186.424 232.352 187.4V195.08C232.352 196.056 232.64 196.856 233.216 197.48C233.808 198.088 234.584 198.392 235.544 198.392ZM235.544 192.656C235.112 192.656 234.76 192.52 234.488 192.248C234.232 191.976 234.104 191.616 234.104 191.168C234.104 190.736 234.232 190.392 234.488 190.136C234.76 189.864 235.112 189.728 235.544 189.728C235.976 189.728 236.32 189.864 236.576 190.136C236.848 190.392 236.984 190.736 236.984 191.168C236.984 191.616 236.848 191.976 236.576 192.248C236.32 192.52 235.976 192.656 235.544 192.656ZM244.894 200V198.032H249.646V184.28L244.894 187.832V185.432L248.854 182.48H251.806V198.032H255.694V200H244.894Z" fill="black"/>
<path d="M268.227 193.628C268.227 193.071 267.723 192.611 267.114 192.611C266.504 192.611 266 193.071 266 193.628C266 194.184 266.504 194.644 267.114 194.644C267.723 194.644 268.227 194.184 268.227 193.628Z" fill="black"/>
<path d="M279.276 195.2H278.814C278.751 195.526 278.582 196.581 278.372 196.888C278.225 197.061 277.027 197.061 276.397 197.061H272.51C273.077 196.62 274.359 195.392 274.905 194.932C278.099 192.247 279.276 191.249 279.276 189.35C279.276 187.145 277.364 185.668 274.926 185.668C272.488 185.668 271.06 187.567 271.06 189.216C271.06 190.194 271.984 190.194 272.047 190.194C272.488 190.194 273.035 189.907 273.035 189.293C273.035 188.756 272.636 188.391 272.047 188.391C271.858 188.391 271.816 188.391 271.753 188.411C272.152 187.106 273.287 186.224 274.653 186.224C276.439 186.224 277.532 187.586 277.532 189.35C277.532 190.981 276.502 192.4 275.304 193.628L271.06 197.962V198.423H278.729L279.276 195.2Z" fill="black"/>
<path d="M284.268 187.895C284.493 187.703 285.081 187.281 285.305 187.102C286.174 186.373 287 185.67 287 184.506C287 182.985 285.599 182 283.848 182C282.167 182 281.06 183.164 281.06 184.302C281.06 184.928 281.607 185.018 281.803 185.018C282.097 185.018 282.531 184.826 282.531 184.34C282.531 183.675 281.831 183.675 281.663 183.675C282.069 182.742 283.008 182.422 283.694 182.422C284.997 182.422 285.669 183.432 285.669 184.506C285.669 185.836 284.647 186.808 282.994 188.355L281.228 190.017C281.06 190.158 281.06 190.184 281.06 190.503H286.594L287 188.214H286.566C286.524 188.47 286.412 189.11 286.244 189.352C286.16 189.455 285.095 189.455 284.871 189.455H282.377L284.268 187.895Z" fill="black"/>
</svg>
