<svg width="223" height="189" viewBox="0 0 223 189" fill="none" xmlns="http://www.w3.org/2000/svg">
<g clip-path="url(#clip0_2_2)">
<circle cx="111" cy="25" r="23.5" stroke="#A6DFFF" stroke-width="3"/>
<circle cx="50" cy="164" r="23.5" stroke="#A6DFFF" stroke-width="3"/>
<circle cx="161" cy="164" r="23.5" stroke="#A6DFFF" stroke-width="3"/>
<circle cx="25" cy="75" r="23.5" stroke="#A6DFFF" stroke-width="3"/>
<circle cx="198" cy="75" r="23.5" stroke="#A6DFFF" stroke-width="3"/>
<path d="M112.619 17.4545V32H110.858V19.3011H110.773L107.222 21.6591V19.8693L110.858 17.4545H112.619Z" fill="black"/>
<path d="M21.5057 82V80.7216L26.3068 75.4659C26.8703 74.8504 27.3343 74.3153 27.6989 73.8608C28.0634 73.4015 28.3333 72.9706 28.5085 72.5682C28.6884 72.161 28.7784 71.7348 28.7784 71.2898C28.7784 70.7784 28.6553 70.3357 28.4091 69.9616C28.1676 69.5876 27.8362 69.2988 27.4148 69.0952C26.9934 68.8916 26.5199 68.7898 25.9943 68.7898C25.4356 68.7898 24.9479 68.9058 24.5312 69.1378C24.1193 69.3651 23.7997 69.6847 23.5724 70.0966C23.3499 70.5085 23.2386 70.9915 23.2386 71.5455H21.5625C21.5625 70.6932 21.759 69.9451 22.152 69.3011C22.545 68.6572 23.08 68.1553 23.7571 67.7955C24.4389 67.4356 25.2036 67.2557 26.0511 67.2557C26.9034 67.2557 27.6586 67.4356 28.3168 67.7955C28.9749 68.1553 29.491 68.6406 29.8651 69.2514C30.2391 69.8622 30.4261 70.5417 30.4261 71.2898C30.4261 71.8248 30.3291 72.348 30.1349 72.8594C29.9455 73.366 29.6141 73.9318 29.1406 74.5568C28.6719 75.1771 28.0208 75.9347 27.1875 76.8295L23.9205 80.3239V80.4375H30.6818V82H21.5057Z" fill="black"/>
<path d="M199.42 82.1989C198.483 82.1989 197.647 82.0379 196.913 81.7159C196.184 81.3939 195.604 80.9465 195.173 80.3736C194.747 79.7959 194.515 79.1259 194.477 78.3636H196.267C196.305 78.8324 196.466 79.2372 196.75 79.5781C197.034 79.9143 197.406 80.1747 197.865 80.3594C198.324 80.544 198.833 80.6364 199.392 80.6364C200.017 80.6364 200.571 80.5275 201.054 80.3097C201.537 80.0919 201.916 79.7888 202.19 79.4006C202.465 79.0123 202.602 78.5625 202.602 78.0511C202.602 77.5161 202.47 77.045 202.205 76.6378C201.939 76.2259 201.551 75.9039 201.04 75.6719C200.528 75.4399 199.903 75.3239 199.165 75.3239H198V73.7614H199.165C199.742 73.7614 200.249 73.6572 200.685 73.4489C201.125 73.2405 201.468 72.947 201.714 72.5682C201.965 72.1894 202.091 71.7443 202.091 71.233C202.091 70.7405 201.982 70.312 201.764 69.9474C201.546 69.5829 201.239 69.2988 200.841 69.0952C200.448 68.8916 199.984 68.7898 199.449 68.7898C198.947 68.7898 198.473 68.8821 198.028 69.0668C197.588 69.2467 197.228 69.5095 196.949 69.8551C196.67 70.196 196.518 70.608 196.494 71.0909H194.79C194.818 70.3286 195.048 69.661 195.479 69.0881C195.91 68.5104 196.473 68.0606 197.169 67.7386C197.87 67.4167 198.639 67.2557 199.477 67.2557C200.377 67.2557 201.149 67.438 201.793 67.8026C202.437 68.1624 202.931 68.6383 203.277 69.2301C203.623 69.822 203.795 70.4612 203.795 71.1477C203.795 71.9669 203.58 72.6652 203.149 73.2429C202.723 73.8205 202.143 74.2206 201.409 74.4432V74.5568C202.328 74.7083 203.045 75.099 203.561 75.7287C204.077 76.3537 204.335 77.1278 204.335 78.0511C204.335 78.8419 204.12 79.5521 203.689 80.1818C203.263 80.8068 202.68 81.2992 201.942 81.6591C201.203 82.0189 200.363 82.1989 199.42 82.1989Z" fill="black"/>
<path d="M46.1648 168.017V166.568L52.5568 156.455H53.608V158.699H52.8977L48.0682 166.341V166.455H56.6761V168.017H46.1648ZM53.0114 171V167.577V166.902V156.455H54.6875V171H53.0114Z" fill="black"/>
<path d="M162.051 173.199C161.218 173.199 160.467 173.033 159.8 172.702C159.132 172.37 158.597 171.916 158.195 171.338C157.792 170.76 157.572 170.102 157.534 169.364H159.239C159.305 170.022 159.603 170.566 160.134 170.997C160.669 171.423 161.308 171.636 162.051 171.636C162.648 171.636 163.178 171.497 163.642 171.217C164.111 170.938 164.478 170.554 164.743 170.067C165.013 169.574 165.148 169.018 165.148 168.398C165.148 167.763 165.008 167.197 164.729 166.7C164.454 166.198 164.075 165.803 163.592 165.514C163.109 165.225 162.558 165.079 161.938 165.074C161.492 165.069 161.036 165.138 160.567 165.28C160.098 165.417 159.712 165.595 159.409 165.812L157.761 165.614L158.642 158.455H166.199V160.017H160.119L159.608 164.307H159.693C159.991 164.07 160.366 163.874 160.815 163.717C161.265 163.561 161.734 163.483 162.222 163.483C163.112 163.483 163.905 163.696 164.601 164.122C165.302 164.544 165.851 165.121 166.249 165.855C166.651 166.589 166.852 167.427 166.852 168.369C166.852 169.297 166.644 170.126 166.227 170.855C165.815 171.58 165.247 172.152 164.523 172.574C163.798 172.991 162.974 173.199 162.051 173.199Z" fill="black"/>
<path d="M89.5 32.5L45.5 62" stroke="#FBBDBD"/>
<path d="M49.5 77.5H174" stroke="#FBBDBD"/>
<path d="M179.5 90L73 161" stroke="#FBBDBD"/>
<path d="M74 165H137" stroke="#FBBDBD"/>
</g>
<defs>
<clipPath id="clip0_2_2">
<rect width="223" height="189" fill="white"/>
</clipPath>
</defs>
</svg>
