<svg width="310" height="193" viewBox="0 0 310 193" fill="none" xmlns="http://www.w3.org/2000/svg">
<path d="M85.3536 37.6464C85.1583 37.4512 84.8417 37.4512 84.6464 37.6464L81.4645 40.8284C81.2692 41.0237 81.2692 41.3403 81.4645 41.5355C81.6597 41.7308 81.9763 41.7308 82.1716 41.5355L85 38.7071L87.8284 41.5355C88.0237 41.7308 88.3403 41.7308 88.5355 41.5355C88.7308 41.3403 88.7308 41.0237 88.5355 40.8284L85.3536 37.6464ZM85 131.5H84.5V132H85V131.5ZM173.854 131.854C174.049 131.658 174.049 131.342 173.854 131.146L170.672 127.964C170.476 127.769 170.16 127.769 169.964 127.964C169.769 128.16 169.769 128.476 169.964 128.672L172.793 131.5L169.964 134.328C169.769 134.524 169.769 134.84 169.964 135.036C170.16 135.231 170.476 135.231 170.672 135.036L173.854 131.854ZM84.5 38V131.5H85.5V38H84.5ZM85 132H173.5V131H85V132Z" fill="black"/>
<path d="M163.301 140.874H163.773L165.738 143.923C165.869 144.133 166.183 144.645 166.328 144.842C166.419 145 166.459 145 166.76 145H168.568C168.803 145 169 145 169 144.764C169 144.658 168.921 144.566 168.803 144.54C168.319 144.435 167.677 143.568 167.362 143.147C167.271 143.016 166.616 142.149 165.738 140.73C166.904 140.52 168.031 140.02 168.031 138.457C168.031 136.631 166.105 136 164.559 136H160.445C160.21 136 160 136 160 136.236C160 136.46 160.249 136.46 160.354 136.46C161.1 136.46 161.166 136.552 161.166 137.209V143.791C161.166 144.448 161.1 144.54 160.354 144.54C160.249 144.54 160 144.54 160 144.764C160 145 160.21 145 160.445 145H164.035C164.271 145 164.467 145 164.467 144.764C164.467 144.54 164.245 144.54 164.1 144.54C163.354 144.54 163.301 144.435 163.301 143.791V140.874ZM165.83 140.231C166.197 139.745 166.236 139.048 166.236 138.47C166.236 137.839 166.157 137.143 165.738 136.604C166.275 136.723 167.572 137.13 167.572 138.457C167.572 139.311 167.179 139.981 165.83 140.231ZM163.301 137.169C163.301 136.893 163.301 136.46 164.114 136.46C165.227 136.46 165.777 136.92 165.777 138.47C165.777 140.165 165.371 140.415 163.301 140.415V137.169ZM161.52 144.54C161.624 144.304 161.624 143.936 161.624 143.818V137.182C161.624 137.051 161.624 136.696 161.52 136.46H163.013C162.843 136.67 162.843 136.933 162.843 137.13V143.818C162.843 143.949 162.843 144.304 162.948 144.54H161.52ZM164.31 140.874C164.402 140.861 164.454 140.848 164.559 140.848C164.755 140.848 165.044 140.822 165.24 140.796C165.437 141.111 166.852 143.45 167.939 144.54H166.668L164.31 140.874Z" fill="black"/>
<path d="M73.1905 41.9751C73.3333 41.5139 73.3651 41.3821 74.5238 41.3821C74.873 41.3821 75 41.3821 75 41.1318C75 41 74.8254 41 74.7778 41C74.4921 41 74.1429 41.0264 73.8571 41.0264H71.9048C71.5873 41.0264 71.2222 41 70.9048 41C70.7778 41 70.6032 41 70.6032 41.2504C70.6032 41.3821 70.7302 41.3821 71.0476 41.3821C72.0317 41.3821 72.0317 41.4876 72.0317 41.6325C72.0317 41.7247 72 41.8038 71.9683 41.9224L69.8254 49.0249C69.6825 49.4861 69.6508 49.6179 68.4921 49.6179C68.1429 49.6179 68 49.6179 68 49.8682C68 50 68.1587 50 68.2381 50C68.5238 50 68.873 49.9736 69.1587 49.9736H71.1111C71.4286 49.9736 71.7778 50 72.0952 50C72.2222 50 72.4127 50 72.4127 49.7628C72.4127 49.6179 72.3175 49.6179 71.9683 49.6179C70.9841 49.6179 70.9841 49.5124 70.9841 49.3543C70.9841 49.328 70.9841 49.2621 71.0476 49.0512L73.1905 41.9751Z" fill="black"/>
<path d="M118.5 102.5H85" stroke="#949393" stroke-dasharray="2 2"/>
<path d="M118.5 102.5V131.5" stroke="#949393" stroke-dasharray="2 2"/>
<circle cx="118.5" cy="102.5" r="0.5" fill="black"/>
<path d="M118.999 102.536C119.019 102.26 118.811 102.021 118.536 102.001L114.048 101.678C113.772 101.658 113.533 101.866 113.513 102.141C113.493 102.416 113.7 102.656 113.976 102.676L117.965 102.963L117.678 106.952C117.658 107.228 117.866 107.467 118.141 107.487C118.416 107.507 118.656 107.3 118.676 107.024L118.999 102.536ZM118.173 102.122L84.6727 131.122L85.3273 131.878L118.827 102.878L118.173 102.122Z" fill="black"/>
<path d="M103.5 115.5C108.333 116.667 116.3 121.5 109.5 131.5" stroke="black"/>
<path d="M109.082 121.667C109.082 120.807 108.681 120 107.909 120C106.954 120 106 121.268 106 122.528C106 123.299 106.393 124 107.137 124C107.588 124 108.128 123.787 108.645 123.255C108.747 123.752 108.973 124 109.286 124C109.679 124 109.876 123.503 109.876 123.388C109.876 123.308 109.825 123.308 109.803 123.308C109.745 123.308 109.738 123.335 109.716 123.406C109.65 123.627 109.483 123.823 109.308 123.823C109.082 123.823 109.082 123.255 109.082 122.714C109.825 121.632 110 120.514 110 120.506C110 120.426 109.942 120.426 109.92 120.426C109.854 120.426 109.847 120.452 109.818 120.612C109.723 121.002 109.534 121.694 109.082 122.421V121.667ZM108.623 123.042C107.982 123.743 107.406 123.823 107.151 123.823C106.634 123.823 106.488 123.264 106.488 122.847C106.488 122.466 106.648 121.561 106.874 121.073C107.173 120.452 107.581 120.177 107.909 120.177C108.616 120.177 108.616 121.304 108.616 122.049C108.616 122.271 108.608 122.501 108.608 122.723C108.608 122.9 108.616 122.945 108.623 123.042Z" fill="black"/>
<g clip-path="url(#clip0_13_2)">
<path d="M124.731 98.1481C124.659 98.1481 124.47 98.1076 124.161 98.0267C123.853 97.9458 123.627 97.9053 123.484 97.9053C123.341 97.9053 123.219 97.92 123.118 97.9494C123.018 97.9789 122.935 98.0157 122.871 98.0598C122.806 98.104 122.763 98.1444 122.742 98.1812C122.72 98.218 122.695 98.2585 122.667 98.3026L122.645 98.3467C122.624 98.3688 122.57 98.3798 122.484 98.3798C122.333 98.3798 122.258 98.3504 122.258 98.2916C122.258 98.2548 122.269 98.2033 122.29 98.1371C122.384 97.8501 122.538 97.6037 122.753 97.3977C122.968 97.1916 123.204 97.0666 123.462 97.0224C123.548 97.0077 123.609 97.0004 123.645 97.0004C123.824 97.0004 123.986 97.0629 124.129 97.188C124.272 97.313 124.409 97.4344 124.538 97.5522C124.667 97.6699 124.803 97.7324 124.946 97.7398C125.104 97.7398 125.262 97.6184 125.419 97.3756C125.577 97.1328 125.659 97.0114 125.667 97.0114C125.674 97.004 125.728 97.0004 125.828 97.0004H125.968C126.011 97.0445 126.032 97.0739 126.032 97.0886C126.032 97.1181 126.014 97.1696 125.978 97.2431C125.943 97.3167 125.892 97.394 125.828 97.4749C125.763 97.5558 125.703 97.6368 125.645 97.7177C125.588 97.7986 125.538 97.8685 125.495 97.9274L125.419 98.0267C125.111 98.4019 124.624 98.8985 123.957 99.5165C123.29 100.135 122.878 100.532 122.72 100.708L122.591 100.841L122.753 100.852C122.91 100.852 123.14 100.892 123.441 100.973C123.742 101.054 123.968 101.095 124.118 101.095C124.391 101.095 124.642 101.025 124.871 100.885C125.1 100.745 125.251 100.561 125.323 100.333C125.351 100.267 125.376 100.227 125.398 100.212C125.419 100.197 125.473 100.19 125.559 100.19C125.695 100.19 125.763 100.227 125.763 100.3C125.763 100.337 125.76 100.37 125.753 100.399C125.631 100.856 125.394 101.234 125.043 101.536C124.692 101.838 124.341 101.992 123.989 102C123.803 102 123.638 101.937 123.495 101.812C123.351 101.687 123.211 101.562 123.075 101.437C122.939 101.312 122.803 101.249 122.667 101.249C122.351 101.249 122.068 101.47 121.817 101.911C121.774 101.97 121.713 102 121.634 102H121.581H121.441C121.398 101.955 121.376 101.922 121.376 101.9C121.376 101.79 121.584 101.474 122 100.951C122.28 100.62 122.753 100.142 123.419 99.5165C124.086 98.8912 124.498 98.4939 124.656 98.3247C124.742 98.207 124.767 98.1481 124.731 98.1481Z" fill="black"/>
</g>
<g clip-path="url(#clip1_13_2)">
<path d="M111.627 138C111.627 137.632 111.649 137.283 111.694 136.952C111.738 136.621 111.789 136.336 111.847 136.096C111.905 135.856 111.987 135.621 112.093 135.392C112.2 135.163 112.284 134.984 112.346 134.856C112.409 134.728 112.502 134.589 112.626 134.44C112.751 134.291 112.824 134.2 112.846 134.168C112.868 134.136 112.924 134.08 113.013 134H113.099H113.126C113.188 134 113.219 134.024 113.219 134.072C113.219 134.088 113.181 134.144 113.106 134.24C113.03 134.336 112.939 134.477 112.833 134.664C112.726 134.851 112.617 135.08 112.506 135.352C112.395 135.624 112.302 135.992 112.227 136.456C112.151 136.92 112.113 137.435 112.113 138C112.113 138.565 112.151 139.077 112.227 139.536C112.302 139.995 112.393 140.365 112.5 140.648C112.606 140.931 112.715 141.16 112.826 141.336C112.937 141.512 113.03 141.653 113.106 141.76C113.181 141.867 113.219 141.923 113.219 141.928C113.219 141.976 113.186 142 113.119 142H113.099H113.013L112.826 141.808C112.409 141.355 112.104 140.789 111.913 140.112C111.723 139.435 111.627 138.731 111.627 138Z" fill="black"/>
<path d="M113.812 138.744C113.812 138.205 113.981 137.693 114.318 137.208C114.656 136.723 115.035 136.477 115.457 136.472C115.684 136.472 115.883 136.603 116.057 136.864C116.128 136.704 116.23 136.624 116.363 136.624C116.421 136.624 116.472 136.645 116.516 136.688C116.561 136.731 116.583 136.784 116.583 136.848C116.583 136.917 116.501 137.344 116.336 138.128C116.172 138.912 116.088 139.355 116.083 139.456C116.083 139.589 116.099 139.677 116.13 139.72C116.161 139.763 116.207 139.787 116.27 139.792C116.31 139.787 116.354 139.763 116.403 139.72C116.496 139.613 116.587 139.357 116.676 138.952C116.703 138.845 116.725 138.789 116.743 138.784C116.751 138.779 116.774 138.776 116.809 138.776H116.836C116.92 138.776 116.962 138.8 116.962 138.848C116.962 138.88 116.951 138.952 116.929 139.064C116.907 139.176 116.862 139.32 116.796 139.496C116.729 139.672 116.658 139.805 116.583 139.896C116.525 139.965 116.454 140.021 116.37 140.064C116.334 140.075 116.281 140.08 116.21 140.08C116.059 140.08 115.932 140.04 115.83 139.96C115.728 139.88 115.661 139.797 115.63 139.712L115.59 139.592C115.586 139.587 115.577 139.589 115.564 139.6C115.555 139.611 115.546 139.621 115.537 139.632C115.275 139.931 115.009 140.08 114.738 140.08C114.493 140.08 114.278 139.973 114.092 139.76C113.905 139.547 113.812 139.208 113.812 138.744ZM115.93 137.376C115.93 137.344 115.919 137.285 115.897 137.2C115.874 137.115 115.823 137.021 115.743 136.92C115.664 136.819 115.561 136.765 115.437 136.76C115.282 136.76 115.133 136.843 114.991 137.008C114.849 137.173 114.738 137.389 114.658 137.656C114.529 138.077 114.438 138.515 114.385 138.968C114.385 138.984 114.385 139.013 114.385 139.056C114.385 139.099 114.382 139.131 114.378 139.152C114.378 139.392 114.418 139.557 114.498 139.648C114.578 139.739 114.673 139.787 114.784 139.792C114.953 139.792 115.12 139.704 115.284 139.528C115.448 139.352 115.546 139.216 115.577 139.12C115.586 139.099 115.646 138.813 115.757 138.264C115.868 137.715 115.926 137.419 115.93 137.376Z" fill="black"/>
<path d="M117.635 139.72C117.635 139.72 117.635 139.653 117.635 139.52C117.635 139.387 117.671 139.272 117.742 139.176C117.813 139.08 117.908 139.032 118.028 139.032C118.152 139.032 118.263 139.099 118.361 139.232C118.459 139.365 118.51 139.6 118.514 139.936C118.514 140.123 118.494 140.304 118.454 140.48C118.414 140.656 118.368 140.808 118.314 140.936C118.261 141.064 118.203 141.173 118.141 141.264C118.079 141.355 118.026 141.427 117.981 141.48C117.937 141.533 117.908 141.557 117.895 141.552C117.877 141.552 117.848 141.528 117.808 141.48C117.768 141.432 117.748 141.397 117.748 141.376C117.748 141.355 117.773 141.312 117.822 141.248C117.87 141.184 117.926 141.104 117.988 141.008C118.05 140.912 118.108 140.779 118.161 140.608C118.215 140.437 118.25 140.243 118.268 140.024V139.928L118.261 139.936C118.252 139.941 118.241 139.947 118.228 139.952C118.215 139.957 118.201 139.965 118.188 139.976C118.175 139.987 118.155 139.992 118.128 139.992C118.101 139.992 118.075 139.995 118.048 140C117.928 140 117.83 139.955 117.755 139.864L117.635 139.72Z" fill="black"/>
<path d="M120.717 135.32C120.966 134.888 121.305 134.672 121.736 134.672C121.949 134.672 122.162 134.741 122.376 134.88C122.589 135.019 122.762 135.264 122.895 135.616C123.059 136.059 123.142 136.667 123.142 137.44C123.142 138.267 123.046 138.899 122.855 139.336C122.766 139.56 122.644 139.739 122.489 139.872C122.333 140.005 122.198 140.088 122.083 140.12C121.967 140.152 121.854 140.171 121.743 140.176C121.627 140.176 121.512 140.16 121.396 140.128C121.281 140.096 121.146 140.011 120.99 139.872C120.835 139.733 120.713 139.555 120.624 139.336C120.433 138.899 120.337 138.267 120.337 137.44C120.337 136.512 120.464 135.805 120.717 135.32ZM122.216 135.224C122.083 135.053 121.925 134.968 121.743 134.968C121.556 134.968 121.396 135.053 121.263 135.224C121.152 135.363 121.079 135.555 121.043 135.8C121.008 136.045 120.99 136.557 120.99 137.336C120.99 138.179 121.008 138.733 121.043 139C121.079 139.267 121.159 139.477 121.283 139.632C121.408 139.792 121.561 139.872 121.743 139.872C121.92 139.872 122.071 139.792 122.196 139.632C122.325 139.472 122.404 139.248 122.436 138.96C122.467 138.672 122.484 138.131 122.489 137.336C122.489 136.563 122.471 136.053 122.436 135.808C122.4 135.563 122.327 135.368 122.216 135.224Z" fill="black"/>
<path d="M123.808 134.008L123.834 134C123.857 134 123.879 134 123.901 134H123.981L124.167 134.192C124.585 134.645 124.889 135.211 125.08 135.888C125.271 136.565 125.366 137.269 125.366 138C125.366 138.363 125.344 138.712 125.3 139.048C125.255 139.384 125.204 139.669 125.146 139.904C125.089 140.139 125.007 140.373 124.9 140.608C124.793 140.843 124.709 141.021 124.647 141.144C124.585 141.267 124.494 141.403 124.374 141.552C124.254 141.701 124.183 141.789 124.161 141.816C124.138 141.843 124.087 141.893 124.007 141.968C123.994 141.984 123.985 141.995 123.981 142H123.901C123.865 142 123.841 142 123.828 142C123.814 142 123.803 141.992 123.794 141.976C123.785 141.96 123.779 141.936 123.774 141.904C123.779 141.899 123.803 141.864 123.848 141.8C124.536 140.941 124.88 139.675 124.88 138C124.88 136.325 124.536 135.059 123.848 134.2C123.803 134.136 123.779 134.101 123.774 134.096C123.774 134.053 123.785 134.024 123.808 134.008Z" fill="black"/>
</g>
<g clip-path="url(#clip2_13_2)">
<path d="M68.6565 103C68.6565 102.632 68.6797 102.283 68.7262 101.952C68.7727 101.621 68.8261 101.336 68.8865 101.096C68.9469 100.856 69.0329 100.621 69.1444 100.392C69.2559 100.163 69.3442 99.984 69.4093 99.856C69.4743 99.728 69.5719 99.5893 69.702 99.44C69.8321 99.2907 69.9088 99.2 69.932 99.168C69.9552 99.136 70.0133 99.08 70.1063 99H70.1969H70.2247C70.2898 99 70.3223 99.024 70.3223 99.072C70.3223 99.088 70.2828 99.144 70.2038 99.24C70.1248 99.336 70.0296 99.4773 69.9181 99.664C69.8065 99.8507 69.6927 100.08 69.5765 100.352C69.4604 100.624 69.3628 100.992 69.2838 101.456C69.2048 101.92 69.1653 102.435 69.1653 103C69.1653 103.565 69.2048 104.077 69.2838 104.536C69.3628 104.995 69.458 105.365 69.5696 105.648C69.6811 105.931 69.7949 106.16 69.9111 106.336C70.0273 106.512 70.1248 106.653 70.2038 106.76C70.2828 106.867 70.3223 106.923 70.3223 106.928C70.3223 106.976 70.2875 107 70.2178 107H70.1969H70.1063L69.9111 106.808C69.4743 106.355 69.156 105.789 68.9562 105.112C68.7564 104.435 68.6565 103.731 68.6565 103Z" fill="black"/>
<path d="M71.3818 100.32C71.642 99.888 71.9975 99.672 72.4482 99.672C72.6712 99.672 72.8943 99.7413 73.1173 99.88C73.3404 100.019 73.5216 100.264 73.661 100.616C73.8329 101.059 73.9189 101.667 73.9189 102.44C73.9189 103.267 73.819 103.899 73.6192 104.336C73.5262 104.56 73.3984 104.739 73.2358 104.872C73.0732 105.005 72.9315 105.088 72.8106 105.12C72.6898 105.152 72.5713 105.171 72.4552 105.176C72.3344 105.176 72.2135 105.16 72.0927 105.128C71.9719 105.096 71.8302 105.011 71.6676 104.872C71.5049 104.733 71.3771 104.555 71.2842 104.336C71.0844 103.899 70.9845 103.267 70.9845 102.44C70.9845 101.512 71.1169 100.805 71.3818 100.32ZM72.95 100.224C72.8106 100.053 72.6457 99.968 72.4552 99.968C72.26 99.968 72.0927 100.053 71.9533 100.224C71.8372 100.363 71.7605 100.555 71.7233 100.8C71.6861 101.045 71.6676 101.557 71.6676 102.336C71.6676 103.179 71.6861 103.733 71.7233 104C71.7605 104.267 71.8441 104.477 71.9742 104.632C72.1043 104.792 72.2647 104.872 72.4552 104.872C72.641 104.872 72.799 104.792 72.9291 104.632C73.0639 104.472 73.1475 104.248 73.18 103.96C73.2126 103.672 73.2312 103.131 73.2358 102.336C73.2358 101.563 73.2172 101.053 73.18 100.808C73.1429 100.563 73.0662 100.368 72.95 100.224Z" fill="black"/>
<path d="M74.7413 104.72C74.7413 104.72 74.7413 104.653 74.7413 104.52C74.7413 104.387 74.7785 104.272 74.8529 104.176C74.9272 104.08 75.0271 104.032 75.1526 104.032C75.2827 104.032 75.3988 104.099 75.5011 104.232C75.6033 104.365 75.6567 104.6 75.6614 104.936C75.6614 105.123 75.6405 105.304 75.5986 105.48C75.5568 105.656 75.508 105.808 75.4523 105.936C75.3965 106.064 75.3361 106.173 75.2711 106.264C75.206 106.355 75.1502 106.427 75.1038 106.48C75.0573 106.533 75.0271 106.557 75.0132 106.552C74.9946 106.552 74.9644 106.528 74.9226 106.48C74.8807 106.432 74.8598 106.397 74.8598 106.376C74.8598 106.355 74.8854 106.312 74.9365 106.248C74.9876 106.184 75.0457 106.104 75.1107 106.008C75.1758 105.912 75.2362 105.779 75.292 105.608C75.3477 105.437 75.3849 105.243 75.4035 105.024V104.928L75.3965 104.936C75.3872 104.941 75.3756 104.947 75.3617 104.952C75.3477 104.957 75.3338 104.965 75.3198 104.976C75.3059 104.987 75.285 104.992 75.2571 104.992C75.2292 104.992 75.2014 104.995 75.1735 105C75.048 105 74.9458 104.955 74.8668 104.864L74.7413 104.72Z" fill="black"/>
<path d="M77.806 99.824C77.806 99.7707 77.8153 99.7093 77.8339 99.64C77.8525 99.5707 77.8803 99.536 77.9175 99.536C77.9222 99.536 78.0894 99.5227 78.4194 99.496C78.7493 99.4693 78.9189 99.4533 78.9282 99.448C78.9839 99.448 79.0118 99.472 79.0118 99.52C79.0118 99.568 78.9328 99.9493 78.7748 100.664C78.7377 100.845 78.6982 101.032 78.6563 101.224C78.6145 101.416 78.5797 101.56 78.5518 101.656L78.5239 101.808C78.5239 101.824 78.5378 101.816 78.5657 101.784C78.7934 101.571 79.0281 101.464 79.2697 101.464C79.5578 101.464 79.7901 101.587 79.9667 101.832C80.1433 102.077 80.2339 102.387 80.2385 102.76C80.2385 103.352 80.055 103.888 79.6879 104.368C79.3208 104.848 78.9258 105.088 78.503 105.088C78.2707 105.088 78.0592 104.987 77.8687 104.784C77.6782 104.581 77.5806 104.253 77.576 103.8V103.728C77.576 103.616 77.5946 103.461 77.6317 103.264C77.6689 103.067 77.7828 102.541 77.9733 101.688C78.2056 100.637 78.3218 100.08 78.3218 100.016C78.3218 99.952 78.2335 99.9147 78.0569 99.904C78.0337 99.904 78.0151 99.904 78.0012 99.904H77.9663C77.9198 99.904 77.8896 99.904 77.8757 99.904C77.8618 99.904 77.8455 99.896 77.8269 99.88C77.8083 99.864 77.8014 99.8453 77.806 99.824ZM79.6391 102.4V102.352C79.6391 101.957 79.4974 101.76 79.2139 101.76C79.1349 101.76 79.0536 101.781 78.97 101.824C78.8864 101.867 78.8097 101.923 78.74 101.992C78.6703 102.061 78.6099 102.125 78.5588 102.184C78.5076 102.243 78.4658 102.301 78.4333 102.36L78.3915 102.424L78.2451 103.112C78.1429 103.571 78.0918 103.896 78.0918 104.088C78.0918 104.344 78.1475 104.536 78.259 104.664C78.3334 104.749 78.4263 104.792 78.5378 104.792C78.6912 104.792 78.8469 104.707 79.0048 104.536C79.121 104.413 79.2139 104.264 79.2836 104.088C79.3533 103.912 79.43 103.632 79.5137 103.248C79.5973 102.864 79.6391 102.581 79.6391 102.4Z" fill="black"/>
<path d="M80.7056 99.008L80.7334 99C80.7567 99 80.7799 99 80.8031 99H80.8868L81.0819 99.192C81.5187 99.6453 81.837 100.211 82.0368 100.888C82.2366 101.565 82.3365 102.269 82.3365 103C82.3365 103.363 82.3133 103.712 82.2668 104.048C82.2204 104.384 82.1669 104.669 82.1065 104.904C82.0461 105.139 81.9602 105.373 81.8486 105.608C81.7371 105.843 81.6488 106.021 81.5838 106.144C81.5187 106.267 81.4235 106.403 81.298 106.552C81.1726 106.701 81.0982 106.789 81.075 106.816C81.0517 106.843 80.9983 106.893 80.9147 106.968C80.9007 106.984 80.8914 106.995 80.8868 107H80.8031C80.766 107 80.7404 107 80.7265 107C80.7125 107 80.7009 106.992 80.6916 106.976C80.6823 106.96 80.6754 106.936 80.6707 106.904C80.6754 106.899 80.7009 106.864 80.7474 106.8C81.4676 105.941 81.8277 104.675 81.8277 103C81.8277 101.325 81.4676 100.059 80.7474 99.2C80.7009 99.136 80.6754 99.1013 80.6707 99.096C80.6707 99.0533 80.6823 99.024 80.7056 99.008Z" fill="black"/>
</g>
<defs>
<clipPath id="clip0_13_2">
<rect width="5" height="5" fill="white" transform="translate(121 97)"/>
</clipPath>
<clipPath id="clip1_13_2">
<rect width="15" height="8" fill="white" transform="translate(111 134)"/>
</clipPath>
<clipPath id="clip2_13_2">
<rect width="15" height="8" fill="white" transform="translate(68 99)"/>
</clipPath>
</defs>
</svg>
