<svg width="310" height="117" viewBox="0 0 310 117" fill="none" xmlns="http://www.w3.org/2000/svg">
<path d="M92.8333 59C92.8333 60.4728 94.0272 61.6667 95.5 61.6667C96.9728 61.6667 98.1667 60.4728 98.1667 59C98.1667 57.5272 96.9728 56.3333 95.5 56.3333C94.0272 56.3333 92.8333 57.5272 92.8333 59ZM136.354 59.3536C136.549 59.1583 136.549 58.8417 136.354 58.6464L133.172 55.4645C132.976 55.2692 132.66 55.2692 132.464 55.4645C132.269 55.6597 132.269 55.9763 132.464 56.1716L135.293 59L132.464 61.8284C132.269 62.0237 132.269 62.3403 132.464 62.5355C132.66 62.7308 132.976 62.7308 133.172 62.5355L136.354 59.3536ZM95.5 59.5H136V58.5H95.5V59.5Z" fill="#FBBDBD"/>
<path d="M255.854 59.3536C256.049 59.1583 256.049 58.8417 255.854 58.6464L252.672 55.4645C252.476 55.2692 252.16 55.2692 251.964 55.4645C251.769 55.6597 251.769 55.9763 251.964 56.1716L254.793 59L251.964 61.8284C251.769 62.0237 251.769 62.3403 251.964 62.5355C252.16 62.7308 252.476 62.7308 252.672 62.5355L255.854 59.3536ZM215 59.5H255.5V58.5H215V59.5Z" fill="#FBBDBD"/>
<path d="M245.854 59.3536C246.049 59.1583 246.049 58.8417 245.854 58.6464L242.672 55.4645C242.476 55.2692 242.16 55.2692 241.964 55.4645C241.769 55.6597 241.769 55.9763 241.964 56.1716L244.793 59L241.964 61.8284C241.769 62.0237 241.769 62.3403 241.964 62.5355C242.16 62.7308 242.476 62.7308 242.672 62.5355L245.854 59.3536ZM215 59.5H245.5V58.5H215V59.5Z" fill="#A6DFFF"/>
<path d="M98.1667 59C98.1667 60.4728 96.9728 61.6667 95.5 61.6667C94.0272 61.6667 92.8333 60.4728 92.8333 59C92.8333 57.5272 94.0272 56.3333 95.5 56.3333C96.9728 56.3333 98.1667 57.5272 98.1667 59ZM54.6464 59.3536C54.4512 59.1583 54.4512 58.8417 54.6464 58.6464L57.8284 55.4645C58.0237 55.2692 58.3403 55.2692 58.5355 55.4645C58.7308 55.6597 58.7308 55.9763 58.5355 56.1716L55.7071 59L58.5355 61.8284C58.7308 62.0237 58.7308 62.3403 58.5355 62.5355C58.3403 62.7308 58.0237 62.7308 57.8284 62.5355L54.6464 59.3536ZM95.5 59.5H55V58.5H95.5V59.5Z" fill="#A6DFFF"/>
</svg>
