<svg width="486" height="325" viewBox="0 0 486 325" fill="none" xmlns="http://www.w3.org/2000/svg">
<rect x="95" y="85" width="295" height="155" stroke="black" stroke-width="2"/>
<path d="M94 160H391" stroke="black" stroke-width="2"/>
<path d="M167 84V241" stroke="black" stroke-width="2"/>
<path d="M243 84V241" stroke="black" stroke-width="2"/>
<path d="M314 84V241" stroke="black" stroke-width="2"/>
<path d="M95.5 85L36 25.5" stroke="black" stroke-width="2"/>
<path d="M54.9523 22.5268L48.267 29.2122L47.4835 28.4287L49.0896 19.5367L49.0243 19.4714L43.7752 24.7204L42.9657 23.9109L49.651 17.2255L50.4345 18.0089L48.8284 26.9271L48.8937 26.9924L54.1558 21.7303L54.9523 22.5268ZM58.557 29.4741C58.8486 29.1042 58.9465 28.6885 58.8508 28.2272C58.755 27.7658 58.5048 27.3327 58.1 26.9279C57.804 26.632 57.4972 26.4209 57.1794 26.2947C56.8639 26.1706 56.5603 26.1304 56.2687 26.1739C55.9792 26.2196 55.7279 26.3491 55.5146 26.5623C55.3362 26.7408 55.2252 26.9367 55.1816 27.1499C55.1425 27.3632 55.1479 27.5797 55.198 27.7995C55.2502 28.0172 55.3231 28.2272 55.4167 28.4295C55.5124 28.6298 55.606 28.8082 55.6974 28.9649L56.1936 29.8267C56.322 30.0465 56.4526 30.3033 56.5853 30.5971C56.7202 30.893 56.816 31.2086 56.8726 31.5437C56.9335 31.8789 56.9205 32.2184 56.8334 32.5622C56.7464 32.906 56.5461 33.2347 56.2328 33.548C55.8715 33.9093 55.4504 34.1411 54.9695 34.2433C54.4907 34.3478 53.9847 34.3054 53.4515 34.116C52.9205 33.9289 52.3983 33.5785 51.8847 33.0649C51.4059 32.5861 51.0686 32.0943 50.8727 31.5894C50.679 31.0867 50.6203 30.5971 50.6964 30.1205C50.7748 29.6461 50.9837 29.213 51.3232 28.8213L52.1589 29.6569C51.9282 29.9311 51.8041 30.2249 51.7867 30.5383C51.7737 30.8517 51.8411 31.1629 51.9891 31.4719C52.1415 31.7809 52.3504 32.0682 52.6159 32.3337C52.9249 32.6427 53.2524 32.8701 53.5984 33.0159C53.9466 33.1596 54.2829 33.2129 54.6071 33.1759C54.9336 33.1367 55.2186 32.9953 55.4624 32.7515C55.6844 32.5296 55.803 32.2869 55.8182 32.0236C55.8334 31.7603 55.7834 31.4839 55.668 31.1944C55.5527 30.905 55.4102 30.6101 55.2404 30.3098L54.6528 29.2522C54.2807 28.5797 54.0816 27.9519 54.0555 27.3686C54.0293 26.7854 54.2415 26.2686 54.692 25.8181C55.0663 25.4438 55.4939 25.2185 55.9749 25.1424C56.4602 25.0662 56.952 25.1228 57.4504 25.3121C57.9531 25.5014 58.4177 25.8094 58.8442 26.2359C59.2751 26.6668 59.5809 27.1271 59.7615 27.6167C59.9443 28.1042 60.0009 28.5786 59.9313 29.04C59.8638 29.5035 59.6669 29.9094 59.3404 30.2576L58.557 29.4741ZM57.5769 38.731C57.1068 38.2609 56.813 37.7452 56.6955 37.1837C56.578 36.6222 56.6226 36.0553 56.8293 35.483C57.0361 34.9106 57.3897 34.3742 57.8902 33.8737C58.3995 33.3644 58.9424 33.0086 59.5191 32.8062C60.1002 32.6038 60.6693 32.5614 61.2264 32.6789C61.7879 32.7964 62.2949 33.0815 62.7476 33.5342C63.1001 33.8867 63.3526 34.2697 63.5049 34.6832C63.6572 35.0967 63.7062 35.5113 63.6518 35.9269C63.5974 36.3426 63.4353 36.7289 63.1654 37.0858L62.395 36.3154C62.5648 36.0281 62.6366 35.6952 62.6105 35.3165C62.5887 34.9378 62.4081 34.5788 62.0686 34.2393C61.7683 33.9389 61.4266 33.754 61.0436 33.6843C60.6649 33.6147 60.271 33.6582 59.8619 33.8149C59.4571 33.9716 59.0654 34.2393 58.6867 34.6179C58.2994 35.0053 58.023 35.4035 57.8576 35.8127C57.6944 36.224 57.6454 36.6211 57.7107 37.0042C57.7782 37.3893 57.9642 37.7343 58.2689 38.039C58.4691 38.2392 58.6856 38.3861 58.9185 38.4796C59.1514 38.5732 59.3897 38.6113 59.6334 38.5939C59.8771 38.5765 60.1143 38.5003 60.345 38.3654L61.1154 39.1358C60.7759 39.3882 60.4016 39.5471 59.9925 39.6124C59.5877 39.6777 59.1753 39.6396 58.7553 39.4981C58.3396 39.3567 57.9468 39.101 57.5769 38.731ZM62.1371 43.3174C61.8194 42.9997 61.5909 42.6515 61.4516 42.2728C61.3145 41.892 61.2841 41.5111 61.3602 41.1303C61.4386 40.7473 61.641 40.3925 61.9674 40.0661C62.2547 39.7788 62.5441 39.6026 62.8357 39.5373C63.1295 39.4698 63.4222 39.4796 63.7138 39.5667C64.0054 39.6537 64.2905 39.7865 64.5691 39.9649C64.852 40.1434 65.1251 40.3338 65.3884 40.5362C65.7323 40.8017 66.0087 41.0193 66.2176 41.189C66.4308 41.3588 66.606 41.4622 66.7431 41.4992C66.8824 41.5383 67.0141 41.4959 67.1381 41.3718L67.1642 41.3457C67.4863 41.0237 67.6484 40.6852 67.6506 40.3305C67.655 39.978 67.4798 39.6243 67.1251 39.2696C66.7573 38.9018 66.3884 38.694 66.0185 38.6461C65.6485 38.5982 65.3297 38.6233 65.062 38.7212L64.5919 37.7288C65.0272 37.5547 65.4385 37.4916 65.8259 37.5395C66.2176 37.5874 66.5767 37.7071 66.9031 37.8986C67.2339 38.0901 67.5255 38.3121 67.7779 38.5645C67.939 38.7256 68.1044 38.9301 68.2741 39.1782C68.4482 39.4263 68.5744 39.707 68.6528 40.0204C68.7333 40.336 68.7202 40.6776 68.6136 41.0454C68.507 41.4132 68.2545 41.7962 67.8563 42.1945L64.5528 45.498L63.7824 44.7276L64.4614 44.0486L64.4222 44.0094C64.2611 44.066 64.0577 44.0954 63.8118 44.0976C63.5658 44.0997 63.2982 44.0432 63.0087 43.9278C62.7193 43.8125 62.4288 43.609 62.1371 43.3174ZM62.9467 42.7429C63.2514 43.0475 63.568 43.2445 63.8966 43.3337C64.2274 43.4251 64.5408 43.4295 64.8368 43.3468C65.1349 43.2663 65.3884 43.1215 65.5973 42.9126L66.3024 42.2075C66.2306 42.214 66.1229 42.1781 65.9793 42.0998C65.84 42.0215 65.6866 41.9224 65.519 41.8027C65.3558 41.683 65.198 41.5644 65.0457 41.4469C64.8977 41.3294 64.7769 41.2347 64.6833 41.1629C64.457 40.9888 64.2274 40.8441 63.9946 40.7288C63.7661 40.6134 63.5408 40.5601 63.3188 40.5688C63.1012 40.5775 62.8945 40.6798 62.6986 40.8757C62.4309 41.1433 62.3276 41.4448 62.3885 41.7799C62.4538 42.115 62.6399 42.436 62.9467 42.7429ZM65.9589 46.9041L70.9729 41.8901L71.7172 42.6343L70.9598 43.3917L71.0121 43.4439C71.3516 43.2872 71.7183 43.2513 72.1122 43.3362C72.5061 43.421 72.8532 43.6136 73.1535 43.914C73.2101 43.9705 73.2797 44.0424 73.3624 44.1294C73.4451 44.2164 73.506 44.2839 73.5452 44.3318L72.7618 45.1152C72.7422 45.0826 72.6921 45.0129 72.6116 44.9063C72.5354 44.7997 72.4462 44.6952 72.3439 44.5929C72.1002 44.3492 71.8314 44.1827 71.5376 44.0935C71.2482 44.0043 70.9588 43.9934 70.6693 44.0608C70.3842 44.1283 70.1285 44.2752 69.9022 44.5015L66.7293 47.6745L65.9589 46.9041ZM72.0689 53.0141L78.7543 46.3288L82.789 50.3635L82.0709 51.0816L78.8457 47.8565L76.5868 50.1154L79.603 53.1316L78.8849 53.8498L75.8686 50.8335L73.5966 53.1055L76.874 56.3829L76.1559 57.1011L72.0689 53.0141ZM78.7771 59.7223L83.6345 51.2089L84.4571 52.0316L80.4093 58.8736L80.4746 58.9389L87.3428 54.9172L88.2568 55.8313L84.2351 62.6994L84.3004 62.7647L91.1425 58.7169L91.9651 59.5395L83.4517 64.3969L82.616 63.5612L86.4679 56.7583L86.4157 56.7061L79.6128 60.558L78.7771 59.7223ZM87.6496 68.8037C87.1795 68.3337 86.8858 67.8179 86.7682 67.2565C86.6507 66.695 86.6953 66.1281 86.9021 65.5557C87.1088 64.9834 87.4625 64.4469 87.963 63.9464C88.4722 63.4372 89.0152 63.0814 89.5919 62.879C90.173 62.6766 90.742 62.6341 91.2991 62.7517C91.8606 62.8692 92.3677 63.1543 92.8203 63.6069C93.1729 63.9595 93.4253 64.3425 93.5777 64.756C93.73 65.1694 93.779 65.584 93.7246 65.9997C93.6701 66.4153 93.508 66.8016 93.2382 67.1585L92.4678 66.3881C92.6375 66.1009 92.7093 65.7679 92.6832 65.3892C92.6615 65.0106 92.4808 64.6515 92.1413 64.312C91.841 64.0117 91.4994 63.8267 91.1163 63.7571C90.7377 63.6874 90.3438 63.731 89.9347 63.8876C89.5299 64.0443 89.1382 64.312 88.7595 64.6907C88.3721 65.078 88.0957 65.4763 87.9303 65.8854C87.7671 66.2967 87.7182 66.6939 87.7835 67.0769C87.8509 67.4621 88.037 67.807 88.3417 68.1117C88.5419 68.3119 88.7584 68.4588 88.9913 68.5524C89.2241 68.646 89.4624 68.6841 89.7062 68.6666C89.9499 68.6492 90.1871 68.5731 90.4178 68.4381L91.1882 69.2085C90.8487 69.461 90.4744 69.6198 90.0652 69.6851C89.6604 69.7504 89.2481 69.7123 88.828 69.5709C88.4124 69.4294 88.0196 69.1737 87.6496 68.8037ZM92.2099 73.3901C91.8922 73.0724 91.6637 72.7242 91.5244 72.3456C91.3873 71.9647 91.3568 71.5839 91.433 71.203C91.5113 70.82 91.7137 70.4653 92.0402 70.1389C92.3274 69.8516 92.6169 69.6753 92.9085 69.61C93.2023 69.5426 93.495 69.5524 93.7866 69.6394C94.0782 69.7265 94.3633 69.8592 94.6418 70.0377C94.9247 70.2161 95.1979 70.4065 95.4612 70.6089C95.805 70.8744 96.0814 71.0921 96.2903 71.2618C96.5036 71.4315 96.6788 71.5349 96.8159 71.5719C96.9552 71.6111 97.0868 71.5686 97.2109 71.4446L97.237 71.4185C97.5591 71.0964 97.7212 70.758 97.7234 70.4033C97.7277 70.0507 97.5525 69.6971 97.1978 69.3424C96.83 68.9746 96.4612 68.7668 96.0912 68.7189C95.7212 68.671 95.4024 68.696 95.1348 68.794L94.6647 67.8016C95.0999 67.6275 95.5112 67.5644 95.8986 67.6123C96.2903 67.6601 96.6494 67.7798 96.9758 67.9713C97.3066 68.1628 97.5982 68.3848 97.8507 68.6373C98.0117 68.7983 98.1771 69.0029 98.3469 69.251C98.521 69.4991 98.6472 69.7798 98.7255 70.0932C98.806 70.4087 98.793 70.7504 98.6864 71.1182C98.5797 71.4859 98.3273 71.869 97.929 72.2672L94.6255 75.5707L93.8551 74.8003L94.5341 74.1214L94.4949 74.0822C94.3339 74.1388 94.1304 74.1682 93.8845 74.1703C93.6386 74.1725 93.3709 74.1159 93.0815 74.0006C92.792 73.8852 92.5015 73.6818 92.2099 73.3901ZM93.0195 72.8156C93.3241 73.1203 93.6408 73.3172 93.9694 73.4065C94.3002 73.4979 94.6135 73.5022 94.9095 73.4195C95.2077 73.339 95.4612 73.1943 95.6701 72.9854L96.3752 72.2803C96.3034 72.2868 96.1957 72.2509 96.052 72.1725C95.9128 72.0942 95.7593 71.9952 95.5918 71.8755C95.4285 71.7558 95.2708 71.6372 95.1184 71.5197C94.9704 71.4022 94.8497 71.3075 94.7561 71.2357C94.5298 71.0616 94.3002 70.9169 94.0673 70.8015C93.8388 70.6862 93.6136 70.6329 93.3916 70.6416C93.174 70.6503 92.9672 70.7526 92.7714 70.9484C92.5037 71.2161 92.4003 71.5175 92.4613 71.8526C92.5265 72.1878 92.7126 72.5088 93.0195 72.8156ZM96.0316 76.9768L101.046 71.9628L101.79 72.7071L101.033 73.4644L101.085 73.5166C101.424 73.36 101.791 73.324 102.185 73.4089C102.579 73.4938 102.926 73.6864 103.226 73.9867C103.283 74.0433 103.352 74.1151 103.435 74.2022C103.518 74.2892 103.579 74.3567 103.618 74.4045L102.835 75.188C102.815 75.1553 102.765 75.0857 102.684 74.9791C102.608 74.8724 102.519 74.768 102.417 74.6657C102.173 74.422 101.904 74.2555 101.61 74.1662C101.321 74.077 101.032 74.0661 100.742 74.1336C100.457 74.2011 100.201 74.348 99.975 74.5743L96.802 77.7472L96.0316 76.9768Z" fill="black"/>
<path d="M59.0199 62.4972L58.0412 62.7741C57.9796 62.611 57.8888 62.4525 57.7688 62.2987C57.6519 62.1417 57.4918 62.0124 57.2887 61.9109C57.0856 61.8093 56.8255 61.7585 56.5085 61.7585C56.0746 61.7585 55.7129 61.8585 55.4237 62.0586C55.1374 62.2556 54.9943 62.5064 54.9943 62.8111C54.9943 63.0819 55.0928 63.2958 55.2898 63.4528C55.4867 63.6097 55.7945 63.7405 56.2131 63.8452L57.2656 64.1037C57.8996 64.2576 58.372 64.493 58.6829 64.81C58.9937 65.1239 59.1491 65.5286 59.1491 66.0241C59.1491 66.4304 59.0322 66.7936 58.7983 67.1136C58.5675 67.4337 58.2443 67.6861 57.8288 67.8707C57.4134 68.0554 56.9302 68.1477 56.3793 68.1477C55.656 68.1477 55.0574 67.9908 54.5835 67.6768C54.1095 67.3629 53.8094 66.9044 53.6832 66.3011L54.7173 66.0426C54.8158 66.4242 55.002 66.7105 55.2759 66.9013C55.5529 67.0921 55.9145 67.1875 56.3608 67.1875C56.8686 67.1875 57.2718 67.0798 57.5703 66.8643C57.8719 66.6458 58.0227 66.3842 58.0227 66.0795C58.0227 65.8333 57.9366 65.6271 57.7642 65.4609C57.5919 65.2917 57.3272 65.1655 56.9702 65.0824L55.7884 64.8054C55.139 64.6515 54.6619 64.413 54.3572 64.0898C54.0556 63.7636 53.9048 63.3558 53.9048 62.8665C53.9048 62.4664 54.0172 62.1125 54.2418 61.8047C54.4696 61.4969 54.7789 61.2553 55.1697 61.0799C55.5637 60.9045 56.0099 60.8168 56.5085 60.8168C57.2102 60.8168 57.7611 60.9706 58.1612 61.2784C58.5644 61.5862 58.8506 61.9924 59.0199 62.4972Z" fill="black"/>
<path d="M208.886 107.091V142H204.659V111.523H204.455L195.932 117.182V112.886L204.659 107.091H208.886Z" fill="black"/>
<path d="M282.886 107.091V142H278.659V111.523H278.455L269.932 117.182V112.886L278.659 107.091H282.886Z" fill="black"/>
<path d="M132.886 182.091V217H128.659V186.523H128.455L119.932 192.182V187.886L128.659 182.091H132.886Z" fill="black"/>
<path d="M208.886 182.091V217H204.659V186.523H204.455L195.932 192.182V187.886L204.659 182.091H208.886Z" fill="black"/>
<path d="M301.5 124C301.5 131.993 295.008 139.364 284.203 144.766C273.428 150.153 258.508 153.5 242 153.5C225.492 153.5 210.572 150.153 199.797 144.766C188.992 139.364 182.5 131.993 182.5 124C182.5 116.007 188.992 108.636 199.797 103.234C210.572 97.8466 225.492 94.5 242 94.5C258.508 94.5 273.428 97.8466 284.203 103.234C295.008 108.636 301.5 116.007 301.5 124Z" stroke="black"/>
<path d="M226.5 201C226.5 208.993 220.008 216.364 209.203 221.766C198.428 227.153 183.508 230.5 167 230.5C150.492 230.5 135.572 227.153 124.797 221.766C113.992 216.364 107.5 208.993 107.5 201C107.5 193.007 113.992 185.636 124.797 180.234C135.572 174.847 150.492 171.5 167 171.5C183.508 171.5 198.428 174.847 209.203 180.234C220.008 185.636 226.5 193.007 226.5 201Z" stroke="black"/>
<path d="M123.25 78.1989C122.18 78.1989 121.268 77.9077 120.516 77.3253C119.763 76.7382 119.188 75.8883 118.79 74.7756C118.392 73.6581 118.193 72.3087 118.193 70.7273C118.193 69.1553 118.392 67.813 118.79 66.7003C119.192 65.5829 119.77 64.7306 120.523 64.1435C121.28 63.5516 122.189 63.2557 123.25 63.2557C124.311 63.2557 125.217 63.5516 125.97 64.1435C126.728 64.7306 127.305 65.5829 127.703 66.7003C128.106 67.813 128.307 69.1553 128.307 70.7273C128.307 72.3087 128.108 73.6581 127.71 74.7756C127.312 75.8883 126.737 76.7382 125.984 77.3253C125.232 77.9077 124.32 78.1989 123.25 78.1989ZM123.25 76.6364C124.311 76.6364 125.134 76.125 125.722 75.1023C126.309 74.0795 126.602 72.6212 126.602 70.7273C126.602 69.4678 126.467 68.3954 126.197 67.5099C125.932 66.6245 125.549 65.9498 125.047 65.4858C124.55 65.0218 123.951 64.7898 123.25 64.7898C122.199 64.7898 121.377 65.3082 120.786 66.3452C120.194 67.3774 119.898 68.8381 119.898 70.7273C119.898 71.9867 120.03 73.0568 120.295 73.9375C120.561 74.8182 120.942 75.4882 121.439 75.9474C121.941 76.4067 122.545 76.6364 123.25 76.6364ZM135.75 78.1989C134.68 78.1989 133.768 77.9077 133.016 77.3253C132.263 76.7382 131.688 75.8883 131.29 74.7756C130.892 73.6581 130.693 72.3087 130.693 70.7273C130.693 69.1553 130.892 67.813 131.29 66.7003C131.692 65.5829 132.27 64.7306 133.023 64.1435C133.78 63.5516 134.689 63.2557 135.75 63.2557C136.811 63.2557 137.717 63.5516 138.47 64.1435C139.228 64.7306 139.805 65.5829 140.203 66.7003C140.606 67.813 140.807 69.1553 140.807 70.7273C140.807 72.3087 140.608 73.6581 140.21 74.7756C139.812 75.8883 139.237 76.7382 138.484 77.3253C137.732 77.9077 136.82 78.1989 135.75 78.1989ZM135.75 76.6364C136.811 76.6364 137.634 76.125 138.222 75.1023C138.809 74.0795 139.102 72.6212 139.102 70.7273C139.102 69.4678 138.967 68.3954 138.697 67.5099C138.432 66.6245 138.049 65.9498 137.547 65.4858C137.05 65.0218 136.451 64.7898 135.75 64.7898C134.699 64.7898 133.877 65.3082 133.286 66.3452C132.694 67.3774 132.398 68.8381 132.398 70.7273C132.398 71.9867 132.53 73.0568 132.795 73.9375C133.061 74.8182 133.442 75.4882 133.939 75.9474C134.441 76.4067 135.045 76.6364 135.75 76.6364Z" fill="black"/>
<path d="M197.25 78.1989C196.18 78.1989 195.268 77.9077 194.516 77.3253C193.763 76.7382 193.188 75.8883 192.79 74.7756C192.392 73.6581 192.193 72.3087 192.193 70.7273C192.193 69.1553 192.392 67.813 192.79 66.7003C193.192 65.5829 193.77 64.7306 194.523 64.1435C195.28 63.5516 196.189 63.2557 197.25 63.2557C198.311 63.2557 199.217 63.5516 199.97 64.1435C200.728 64.7306 201.305 65.5829 201.703 66.7003C202.106 67.813 202.307 69.1553 202.307 70.7273C202.307 72.3087 202.108 73.6581 201.71 74.7756C201.312 75.8883 200.737 76.7382 199.984 77.3253C199.232 77.9077 198.32 78.1989 197.25 78.1989ZM197.25 76.6364C198.311 76.6364 199.134 76.125 199.722 75.1023C200.309 74.0795 200.602 72.6212 200.602 70.7273C200.602 69.4678 200.467 68.3954 200.197 67.5099C199.932 66.6245 199.549 65.9498 199.047 65.4858C198.55 65.0218 197.951 64.7898 197.25 64.7898C196.199 64.7898 195.377 65.3082 194.786 66.3452C194.194 67.3774 193.898 68.8381 193.898 70.7273C193.898 71.9867 194.03 73.0568 194.295 73.9375C194.561 74.8182 194.942 75.4882 195.439 75.9474C195.941 76.4067 196.545 76.6364 197.25 76.6364ZM210.119 63.4545V78H208.358V65.3011H208.273L204.722 67.6591V65.8693L208.358 63.4545H210.119Z" fill="black"/>
<path d="M273.619 63.4545V78H271.858V65.3011H271.773L268.222 67.6591V65.8693L271.858 63.4545H273.619ZM282.916 63.4545V78H281.155V65.3011H281.07L277.518 67.6591V65.8693L281.155 63.4545H282.916Z" fill="black"/>
<path d="M344.619 63.4545V78H342.858V65.3011H342.773L339.222 67.6591V65.8693L342.858 63.4545H344.619ZM353.547 78.1989C352.477 78.1989 351.565 77.9077 350.812 77.3253C350.06 76.7382 349.484 75.8883 349.087 74.7756C348.689 73.6581 348.49 72.3087 348.49 70.7273C348.49 69.1553 348.689 67.813 349.087 66.7003C349.489 65.5829 350.067 64.7306 350.82 64.1435C351.577 63.5516 352.486 63.2557 353.547 63.2557C354.607 63.2557 355.514 63.5516 356.267 64.1435C357.025 64.7306 357.602 65.5829 358 66.7003C358.402 67.813 358.604 69.1553 358.604 70.7273C358.604 72.3087 358.405 73.6581 358.007 74.7756C357.609 75.8883 357.034 76.7382 356.281 77.3253C355.528 77.9077 354.617 78.1989 353.547 78.1989ZM353.547 76.6364C354.607 76.6364 355.431 76.125 356.018 75.1023C356.606 74.0795 356.899 72.6212 356.899 70.7273C356.899 69.4678 356.764 68.3954 356.494 67.5099C356.229 66.6245 355.846 65.9498 355.344 65.4858C354.847 65.0218 354.248 64.7898 353.547 64.7898C352.496 64.7898 351.674 65.3082 351.082 66.3452C350.491 67.3774 350.195 68.8381 350.195 70.7273C350.195 71.9867 350.327 73.0568 350.592 73.9375C350.857 74.8182 351.239 75.4882 351.736 75.9474C352.238 76.4067 352.841 76.6364 353.547 76.6364Z" fill="black"/>
<path d="M72.25 132.199C71.1799 132.199 70.2685 131.908 69.5156 131.325C68.7628 130.738 68.1875 129.888 67.7898 128.776C67.392 127.658 67.1932 126.309 67.1932 124.727C67.1932 123.155 67.392 121.813 67.7898 120.7C68.1922 119.583 68.7699 118.731 69.5227 118.143C70.2803 117.552 71.1894 117.256 72.25 117.256C73.3106 117.256 74.2173 117.552 74.9702 118.143C75.7277 118.731 76.3054 119.583 76.7031 120.7C77.1056 121.813 77.3068 123.155 77.3068 124.727C77.3068 126.309 77.108 127.658 76.7102 128.776C76.3125 129.888 75.7372 130.738 74.9844 131.325C74.2315 131.908 73.3201 132.199 72.25 132.199ZM72.25 130.636C73.3106 130.636 74.1345 130.125 74.7216 129.102C75.3087 128.08 75.6023 126.621 75.6023 124.727C75.6023 123.468 75.4673 122.395 75.1974 121.51C74.9323 120.625 74.5488 119.95 74.0469 119.486C73.5497 119.022 72.9508 118.79 72.25 118.79C71.1989 118.79 70.3774 119.308 69.7855 120.345C69.1937 121.377 68.8977 122.838 68.8977 124.727C68.8977 125.987 69.0303 127.057 69.2955 127.938C69.5606 128.818 69.9418 129.488 70.4389 129.947C70.9408 130.407 71.5445 130.636 72.25 130.636Z" fill="black"/>
<path d="M72.6193 192.455V207H70.858V194.301H70.7727L67.2216 196.659V194.869L70.858 192.455H72.6193Z" fill="black"/>
</svg>
