<svg width="250" height="250" viewBox="0 0 250 250" fill="none" xmlns="http://www.w3.org/2000/svg">
<path d="M125.104 19.6464C124.908 19.4512 124.592 19.4512 124.396 19.6464L121.214 22.8284C121.019 23.0237 121.019 23.3403 121.214 23.5355C121.41 23.7308 121.726 23.7308 121.922 23.5355L124.75 20.7071L127.578 23.5355C127.774 23.7308 128.09 23.7308 128.286 23.5355C128.481 23.3403 128.481 23.0237 128.286 22.8284L125.104 19.6464ZM124.25 229.5C124.25 229.776 124.474 230 124.75 230C125.026 230 125.25 229.776 125.25 229.5H124.25ZM124.25 20V229.5H125.25V20H124.25Z" fill="black"/>
<path d="M160.5 89C158.5 71 136.167 68.5 125 69.5V124.5L160.5 89Z" fill="#D9D9D9" stroke="black"/>
<path d="M20 124.25C19.7239 124.25 19.5 124.474 19.5 124.75C19.5 125.026 19.7239 125.25 20 125.25L20 124.25ZM229.854 125.104C230.049 124.908 230.049 124.592 229.854 124.396L226.672 121.214C226.476 121.019 226.16 121.019 225.964 121.214C225.769 121.41 225.769 121.726 225.964 121.922L228.793 124.75L225.964 127.578C225.769 127.774 225.769 128.09 225.964 128.286C226.16 128.481 226.476 128.481 226.672 128.286L229.854 125.104ZM20 125.25L229.5 125.25L229.5 124.25L20 124.25L20 125.25Z" fill="black"/>
<path d="M125 124.5L206 43.5" stroke="black"/>
<path d="M156 124.5C164 110.1 154.5 106.5 147 102.5L170.5 79C202.1 86.6 197.667 112.5 191.5 124.5H156Z" fill="#D9D9D9" stroke="black"/>
<path d="M137.241 66.3109C137.139 66.7311 137.117 66.8512 136.327 66.8512C136.113 66.8512 136 66.8512 136 67.0672C136 67.1993 136.068 67.1993 136.293 67.1993H139.868C142.147 67.1993 144.369 64.6903 144.369 62.0132C144.369 60.2845 143.399 59 141.786 59H138.165C137.951 59 137.85 59 137.85 59.2281C137.85 59.3481 137.951 59.3481 138.12 59.3481C138.808 59.3481 138.808 59.4442 138.808 59.5762C138.808 59.6002 138.808 59.6723 138.763 59.8523L137.241 66.3109ZM139.62 59.8163C139.722 59.3721 139.767 59.3481 140.207 59.3481H141.447C142.508 59.3481 143.478 59.9604 143.478 61.6171C143.478 62.2173 143.252 64.3061 142.158 65.6267C141.842 66.0228 140.985 66.8512 139.688 66.8512H138.402C138.244 66.8512 138.222 66.8512 138.154 66.8391C138.03 66.8271 138.019 66.8031 138.019 66.7071C138.019 66.6231 138.041 66.551 138.064 66.443L139.62 59.8163Z" fill="black"/>
<path d="M147 63.902C147 63.6859 146.985 63.6779 146.782 63.6779C146.474 63.998 146.076 64.1901 145.361 64.1901V64.4542C145.564 64.4542 145.97 64.4542 146.406 64.2381V68.3437C146.406 68.6399 146.384 68.7359 145.67 68.7359H145.406V69C145.715 68.976 146.361 68.976 146.7 68.976C147.038 68.976 147.692 68.976 148 69V68.7359H147.737C147.023 68.7359 147 68.6399 147 68.3437V63.902Z" fill="black"/>
<path d="M199.218 96.3109C199.118 96.7311 199.096 96.8512 198.321 96.8512C198.111 96.8512 198 96.8512 198 97.0672C198 97.1993 198.066 97.1993 198.288 97.1993H201.797C204.033 97.1993 206.214 94.6903 206.214 92.0132C206.214 90.2845 205.262 89 203.679 89H200.126C199.915 89 199.816 89 199.816 89.2281C199.816 89.3481 199.915 89.3481 200.081 89.3481C200.757 89.3481 200.757 89.4442 200.757 89.5762C200.757 89.6002 200.757 89.6723 200.712 89.8523L199.218 96.3109ZM201.554 89.8163C201.653 89.3721 201.697 89.3481 202.129 89.3481H203.347C204.388 89.3481 205.34 89.9604 205.34 91.6171C205.34 92.2173 205.118 94.3061 204.044 95.6267C203.734 96.0228 202.893 96.8512 201.62 96.8512H200.358C200.203 96.8512 200.181 96.8512 200.114 96.8391C199.993 96.8271 199.982 96.8031 199.982 96.7071C199.982 96.6231 200.004 96.551 200.026 96.443L201.554 89.8163Z" fill="black"/>
<path d="M208.561 97.3673C208.679 97.2473 208.989 96.9832 209.107 96.8711C209.564 96.415 210 95.9748 210 95.2465C210 94.2941 209.262 93.6779 208.339 93.6779C207.454 93.6779 206.871 94.4061 206.871 95.1184C206.871 95.5106 207.158 95.5666 207.262 95.5666C207.417 95.5666 207.646 95.4466 207.646 95.1424C207.646 94.7263 207.277 94.7263 207.188 94.7263C207.402 94.142 207.896 93.942 208.258 93.942C208.944 93.942 209.299 94.5742 209.299 95.2465C209.299 96.0788 208.76 96.6871 207.889 97.6555L206.959 98.6959C206.871 98.7839 206.871 98.7999 206.871 99H209.786L210 97.5674H209.771C209.749 97.7275 209.69 98.1276 209.601 98.2797C209.557 98.3437 208.996 98.3437 208.878 98.3437H207.564L208.561 97.3673Z" fill="black"/>
<path d="M121.125 136.099C120.59 136.099 120.134 135.954 119.758 135.663C119.381 135.369 119.094 134.944 118.895 134.388C118.696 133.829 118.597 133.154 118.597 132.364C118.597 131.578 118.696 130.906 118.895 130.35C119.096 129.791 119.385 129.365 119.761 129.072C120.14 128.776 120.595 128.628 121.125 128.628C121.655 128.628 122.109 128.776 122.485 129.072C122.864 129.365 123.153 129.791 123.352 130.35C123.553 130.906 123.653 131.578 123.653 132.364C123.653 133.154 123.554 133.829 123.355 134.388C123.156 134.944 122.869 135.369 122.492 135.663C122.116 135.954 121.66 136.099 121.125 136.099ZM121.125 135.318C121.655 135.318 122.067 135.062 122.361 134.551C122.654 134.04 122.801 133.311 122.801 132.364C122.801 131.734 122.734 131.198 122.599 130.755C122.466 130.312 122.274 129.975 122.023 129.743C121.775 129.511 121.475 129.395 121.125 129.395C120.599 129.395 120.189 129.654 119.893 130.173C119.597 130.689 119.449 131.419 119.449 132.364C119.449 132.993 119.515 133.528 119.648 133.969C119.78 134.409 119.971 134.744 120.219 134.974C120.47 135.203 120.772 135.318 121.125 135.318Z" fill="black"/>
<path d="M158.753 136V135.361L161.153 132.733C161.435 132.425 161.667 132.158 161.849 131.93C162.032 131.701 162.167 131.485 162.254 131.284C162.344 131.08 162.389 130.867 162.389 130.645C162.389 130.389 162.328 130.168 162.205 129.981C162.084 129.794 161.918 129.649 161.707 129.548C161.497 129.446 161.26 129.395 160.997 129.395C160.718 129.395 160.474 129.453 160.266 129.569C160.06 129.683 159.9 129.842 159.786 130.048C159.675 130.254 159.619 130.496 159.619 130.773H158.781C158.781 130.347 158.879 129.973 159.076 129.651C159.272 129.329 159.54 129.078 159.879 128.898C160.219 128.718 160.602 128.628 161.026 128.628C161.452 128.628 161.829 128.718 162.158 128.898C162.487 129.078 162.746 129.32 162.933 129.626C163.12 129.931 163.213 130.271 163.213 130.645C163.213 130.912 163.165 131.174 163.067 131.43C162.973 131.683 162.807 131.966 162.57 132.278C162.336 132.589 162.01 132.967 161.594 133.415L159.96 135.162V135.219H163.341V136H158.753Z" fill="black"/>
<path d="M148.31 128.727V136H147.429V129.651H147.386L145.611 130.83V129.935L147.429 128.727H148.31Z" fill="black"/>
<path d="M191.21 136.099C190.741 136.099 190.324 136.019 189.957 135.858C189.592 135.697 189.302 135.473 189.087 135.187C188.874 134.898 188.758 134.563 188.739 134.182H189.634C189.652 134.416 189.733 134.619 189.875 134.789C190.017 134.957 190.203 135.087 190.433 135.18C190.662 135.272 190.917 135.318 191.196 135.318C191.509 135.318 191.786 135.264 192.027 135.155C192.268 135.046 192.458 134.894 192.595 134.7C192.732 134.506 192.801 134.281 192.801 134.026C192.801 133.758 192.735 133.522 192.602 133.319C192.47 133.113 192.276 132.952 192.02 132.836C191.764 132.72 191.452 132.662 191.082 132.662H190.5V131.881H191.082C191.371 131.881 191.625 131.829 191.842 131.724C192.063 131.62 192.234 131.473 192.357 131.284C192.483 131.095 192.545 130.872 192.545 130.616C192.545 130.37 192.491 130.156 192.382 129.974C192.273 129.791 192.119 129.649 191.92 129.548C191.724 129.446 191.492 129.395 191.224 129.395C190.973 129.395 190.737 129.441 190.514 129.533C190.294 129.623 190.114 129.755 189.974 129.928C189.835 130.098 189.759 130.304 189.747 130.545H188.895C188.909 130.164 189.024 129.83 189.239 129.544C189.455 129.255 189.737 129.03 190.085 128.869C190.435 128.708 190.82 128.628 191.239 128.628C191.688 128.628 192.074 128.719 192.396 128.901C192.718 129.081 192.966 129.319 193.138 129.615C193.311 129.911 193.398 130.231 193.398 130.574C193.398 130.983 193.29 131.333 193.075 131.621C192.862 131.91 192.571 132.11 192.205 132.222V132.278C192.664 132.354 193.022 132.549 193.281 132.864C193.539 133.177 193.668 133.564 193.668 134.026C193.668 134.421 193.56 134.776 193.344 135.091C193.131 135.403 192.84 135.65 192.471 135.83C192.102 136.009 191.681 136.099 191.21 136.099Z" fill="black"/>
<path d="M147.5 122.5V126.5" stroke="black"/>
<path d="M161 122.5V126.5" stroke="black"/>
<path d="M192 122.5V126.5" stroke="black"/>
</svg>
