<svg width="503" height="277" viewBox="0 0 503 277" fill="none" xmlns="http://www.w3.org/2000/svg">
<path d="M130.104 33.6464C129.908 33.4512 129.592 33.4512 129.396 33.6464L126.214 36.8284C126.019 37.0237 126.019 37.3403 126.214 37.5355C126.41 37.7308 126.726 37.7308 126.922 37.5355L129.75 34.7071L132.578 37.5355C132.774 37.7308 133.09 37.7308 133.286 37.5355C133.481 37.3403 133.481 37.0237 133.286 36.8284L130.104 33.6464ZM129.25 243.5C129.25 243.776 129.474 244 129.75 244C130.026 244 130.25 243.776 130.25 243.5H129.25ZM129.25 34V243.5H130.25V34H129.25Z" fill="black"/>
<path d="M25 138.25C24.7239 138.25 24.5 138.474 24.5 138.75C24.5 139.026 24.7239 139.25 25 139.25L25 138.25ZM234.854 139.104C235.049 138.908 235.049 138.592 234.854 138.396L231.672 135.214C231.476 135.019 231.16 135.019 230.964 135.214C230.769 135.41 230.769 135.726 230.964 135.922L233.793 138.75L230.964 141.578C230.769 141.774 230.769 142.09 230.964 142.286C231.16 142.481 231.476 142.481 231.672 142.286L234.854 139.104ZM25 139.25L234.5 139.25L234.5 138.25L25 138.25L25 139.25Z" fill="black"/>
<path d="M374.104 33.6464C373.908 33.4512 373.592 33.4512 373.396 33.6464L370.214 36.8284C370.019 37.0237 370.019 37.3403 370.214 37.5355C370.41 37.7308 370.726 37.7308 370.922 37.5355L373.75 34.7071L376.578 37.5355C376.774 37.7308 377.09 37.7308 377.286 37.5355C377.481 37.3403 377.481 37.0237 377.286 36.8284L374.104 33.6464ZM373.25 243.5C373.25 243.776 373.474 244 373.75 244C374.026 244 374.25 243.776 374.25 243.5H373.25ZM373.25 34V243.5H374.25V34H373.25Z" fill="black"/>
<path d="M269 138.25C268.724 138.25 268.5 138.474 268.5 138.75C268.5 139.026 268.724 139.25 269 139.25L269 138.25ZM478.854 139.104C479.049 138.908 479.049 138.592 478.854 138.396L475.672 135.214C475.476 135.019 475.16 135.019 474.964 135.214C474.769 135.41 474.769 135.726 474.964 135.922L477.793 138.75L474.964 141.578C474.769 141.774 474.769 142.09 474.964 142.286C475.16 142.481 475.476 142.481 475.672 142.286L478.854 139.104ZM269 139.25L478.5 139.25L478.5 138.25L269 138.25L269 139.25Z" fill="black"/>
<path d="M153 72V206" stroke="black" stroke-linecap="round" stroke-dasharray="2 2"/>
<path d="M170.5 72.5V206.5" stroke="black" stroke-linecap="round" stroke-dasharray="2 2"/>
<path d="M53.7685 264H52.3835L56.3892 253.091H57.7528L61.7585 264H60.3736L57.1136 254.817H57.0284L53.7685 264ZM54.2798 259.739H59.8622V260.911H54.2798V259.739ZM63.2873 267.068V255.818H64.5018V257.118H64.6509C64.7433 256.976 64.8711 256.795 65.0344 256.575C65.2013 256.351 65.4393 256.152 65.7482 255.978C66.0607 255.8 66.4833 255.712 67.016 255.712C67.7049 255.712 68.3121 255.884 68.8377 256.228C69.3633 256.573 69.7734 257.061 70.0682 257.693C70.3629 258.325 70.5103 259.071 70.5103 259.93C70.5103 260.797 70.3629 261.548 70.0682 262.184C69.7734 262.816 69.3651 263.306 68.843 263.654C68.321 263.998 67.7191 264.17 67.0373 264.17C66.5117 264.17 66.0909 264.083 65.7749 263.909C65.4588 263.732 65.2156 263.531 65.0451 263.308C64.8746 263.08 64.7433 262.892 64.6509 262.743H64.5444V267.068H63.2873ZM64.5231 259.909C64.5231 260.527 64.6136 261.072 64.7947 261.544C64.9759 262.013 65.2404 262.381 65.5884 262.647C65.9364 262.91 66.3626 263.041 66.8668 263.041C67.3924 263.041 67.831 262.903 68.1825 262.626C68.5376 262.345 68.804 261.969 68.9815 261.496C69.1626 261.021 69.2532 260.491 69.2532 259.909C69.2532 259.334 69.1644 258.815 68.9869 258.354C68.8129 257.888 68.5483 257.521 68.1932 257.251C67.8416 256.978 67.3995 256.841 66.8668 256.841C66.3555 256.841 65.9258 256.971 65.5778 257.23C65.2298 257.485 64.967 257.844 64.7894 258.306C64.6119 258.764 64.5231 259.298 64.5231 259.909ZM75.8583 264.17C75.07 264.17 74.3899 263.996 73.8182 263.648C73.25 263.297 72.8114 262.807 72.5025 262.178C72.1971 261.546 72.0444 260.811 72.0444 259.973C72.0444 259.135 72.1971 258.396 72.5025 257.757C72.8114 257.114 73.2411 256.614 73.7915 256.255C74.3455 255.893 74.9918 255.712 75.7305 255.712C76.1566 255.712 76.5774 255.783 76.9929 255.925C77.4084 256.067 77.7866 256.298 78.1275 256.617C78.4684 256.933 78.7401 257.352 78.9425 257.874C79.1449 258.396 79.2461 259.039 79.2461 259.803V260.335H72.9393V259.249H77.9677C77.9677 258.787 77.8754 258.375 77.6907 258.013C77.5096 257.651 77.2504 257.365 76.913 257.155C76.5792 256.946 76.185 256.841 75.7305 256.841C75.2298 256.841 74.7965 256.965 74.4308 257.214C74.0685 257.459 73.7898 257.778 73.5945 258.173C73.3991 258.567 73.3015 258.989 73.3015 259.44V260.165C73.3015 260.783 73.408 261.306 73.6211 261.736C73.8377 262.162 74.1378 262.487 74.5213 262.711C74.9048 262.931 75.3505 263.041 75.8583 263.041C76.1886 263.041 76.4869 262.995 76.7532 262.903C77.0231 262.807 77.2557 262.665 77.451 262.477C77.6463 262.285 77.7972 262.047 77.9038 261.763L79.1183 262.104C78.9904 262.516 78.7756 262.878 78.4737 263.19C78.1719 263.499 77.799 263.741 77.3551 263.915C76.9112 264.085 76.4123 264.17 75.8583 264.17ZM81.1584 264V255.818H82.3729V257.054H82.4581C82.6072 256.649 82.8771 256.321 83.2678 256.069C83.6584 255.816 84.0987 255.69 84.5888 255.69C84.6811 255.69 84.7965 255.692 84.935 255.696C85.0735 255.699 85.1783 255.705 85.2493 255.712V256.99C85.2067 256.979 85.109 256.963 84.9563 256.942C84.8072 256.917 84.6491 256.905 84.4822 256.905C84.0845 256.905 83.7294 256.988 83.4169 257.155C83.108 257.319 82.8629 257.546 82.6818 257.837C82.5043 258.125 82.4155 258.453 82.4155 258.822V264H81.1584ZM90.8104 255.818V256.884H86.5703V255.818H90.8104ZM87.8061 253.858H89.0632V261.656C89.0632 262.011 89.1147 262.278 89.2177 262.455C89.3242 262.629 89.4592 262.746 89.6225 262.807C89.7894 262.864 89.9652 262.892 90.1499 262.892C90.2884 262.892 90.402 262.885 90.4908 262.871C90.5795 262.853 90.6506 262.839 90.7038 262.828L90.9595 263.957C90.8743 263.989 90.7553 264.021 90.6026 264.053C90.4499 264.089 90.2564 264.107 90.022 264.107C89.6669 264.107 89.3189 264.03 88.978 263.877C88.6406 263.725 88.3601 263.492 88.1364 263.18C87.9162 262.867 87.8061 262.473 87.8061 261.997V253.858ZM95.9373 264.17C95.1987 264.17 94.5506 263.995 93.9931 263.643C93.4391 263.292 93.0059 262.8 92.6934 262.168C92.3844 261.536 92.2299 260.797 92.2299 259.952C92.2299 259.099 92.3844 258.355 92.6934 257.72C93.0059 257.084 93.4391 256.591 93.9931 256.239C94.5506 255.887 95.1987 255.712 95.9373 255.712C96.676 255.712 97.3223 255.887 97.8762 256.239C98.4338 256.591 98.867 257.084 99.176 257.72C99.4885 258.355 99.6447 259.099 99.6447 259.952C99.6447 260.797 99.4885 261.536 99.176 262.168C98.867 262.8 98.4338 263.292 97.8762 263.643C97.3223 263.995 96.676 264.17 95.9373 264.17ZM95.9373 263.041C96.4984 263.041 96.96 262.897 97.3223 262.61C97.6845 262.322 97.9526 261.944 98.1266 261.475C98.3006 261.006 98.3876 260.499 98.3876 259.952C98.3876 259.405 98.3006 258.895 98.1266 258.423C97.9526 257.951 97.6845 257.569 97.3223 257.278C96.96 256.987 96.4984 256.841 95.9373 256.841C95.3762 256.841 94.9146 256.987 94.5524 257.278C94.1902 257.569 93.9221 257.951 93.748 258.423C93.574 258.895 93.487 259.405 93.487 259.952C93.487 260.499 93.574 261.006 93.748 261.475C93.9221 261.944 94.1902 262.322 94.5524 262.61C94.9146 262.897 95.3762 263.041 95.9373 263.041ZM103.439 262.509L103.353 263.084C103.293 263.489 103.201 263.922 103.076 264.384C102.956 264.845 102.83 265.28 102.698 265.689C102.567 266.097 102.459 266.422 102.373 266.663H101.415C101.461 266.436 101.521 266.136 101.596 265.763C101.67 265.39 101.745 264.973 101.819 264.511C101.897 264.053 101.961 263.585 102.011 263.105L102.075 262.509H103.439ZM111.244 259.078V264H109.987V255.818H111.201V257.097H111.308C111.499 256.681 111.79 256.347 112.181 256.095C112.572 255.839 113.076 255.712 113.694 255.712C114.248 255.712 114.733 255.825 115.148 256.053C115.564 256.276 115.887 256.617 116.118 257.075C116.348 257.53 116.464 258.105 116.464 258.801V264H115.207V258.886C115.207 258.244 115.04 257.743 114.706 257.384C114.372 257.022 113.914 256.841 113.332 256.841C112.93 256.841 112.572 256.928 112.256 257.102C111.943 257.276 111.696 257.53 111.515 257.864C111.334 258.197 111.244 258.602 111.244 259.078ZM122.085 264.17C121.346 264.17 120.698 263.995 120.141 263.643C119.587 263.292 119.153 262.8 118.841 262.168C118.532 261.536 118.377 260.797 118.377 259.952C118.377 259.099 118.532 258.355 118.841 257.72C119.153 257.084 119.587 256.591 120.141 256.239C120.698 255.887 121.346 255.712 122.085 255.712C122.823 255.712 123.47 255.887 124.024 256.239C124.581 256.591 125.014 257.084 125.323 257.72C125.636 258.355 125.792 259.099 125.792 259.952C125.792 260.797 125.636 261.536 125.323 262.168C125.014 262.8 124.581 263.292 124.024 263.643C123.47 263.995 122.823 264.17 122.085 264.17ZM122.085 263.041C122.646 263.041 123.108 262.897 123.47 262.61C123.832 262.322 124.1 261.944 124.274 261.475C124.448 261.006 124.535 260.499 124.535 259.952C124.535 259.405 124.448 258.895 124.274 258.423C124.1 257.951 123.832 257.569 123.47 257.278C123.108 256.987 122.646 256.841 122.085 256.841C121.524 256.841 121.062 256.987 120.7 257.278C120.338 257.569 120.07 257.951 119.896 258.423C119.722 258.895 119.634 259.405 119.634 259.952C119.634 260.499 119.722 261.006 119.896 261.475C120.07 261.944 120.338 262.322 120.7 262.61C121.062 262.897 121.524 263.041 122.085 263.041ZM128.968 259.078V264H127.711V255.818H128.926V257.097H129.032C129.224 256.681 129.515 256.347 129.906 256.095C130.296 255.839 130.801 255.712 131.419 255.712C131.972 255.712 132.457 255.825 132.873 256.053C133.288 256.276 133.611 256.617 133.842 257.075C134.073 257.53 134.188 258.105 134.188 258.801V264H132.931V258.886C132.931 258.244 132.764 257.743 132.431 257.384C132.097 257.022 131.639 256.841 131.056 256.841C130.655 256.841 130.296 256.928 129.98 257.102C129.668 257.276 129.421 257.53 129.24 257.864C129.059 258.197 128.968 258.602 128.968 259.078ZM144.028 264.17C143.261 264.17 142.601 263.989 142.047 263.627C141.493 263.265 141.066 262.766 140.768 262.13C140.47 261.495 140.321 260.768 140.321 259.952C140.321 259.121 140.473 258.387 140.779 257.752C141.088 257.113 141.517 256.614 142.068 256.255C142.622 255.893 143.268 255.712 144.007 255.712C144.582 255.712 145.101 255.818 145.562 256.031C146.024 256.244 146.402 256.543 146.697 256.926C146.992 257.31 147.174 257.757 147.245 258.268H145.988C145.892 257.896 145.679 257.565 145.349 257.278C145.022 256.987 144.582 256.841 144.028 256.841C143.538 256.841 143.108 256.969 142.739 257.224C142.373 257.477 142.087 257.833 141.881 258.295C141.679 258.753 141.578 259.291 141.578 259.909C141.578 260.541 141.677 261.092 141.876 261.56C142.079 262.029 142.363 262.393 142.728 262.652C143.098 262.912 143.531 263.041 144.028 263.041C144.355 263.041 144.651 262.984 144.918 262.871C145.184 262.757 145.41 262.594 145.594 262.381C145.779 262.168 145.91 261.912 145.988 261.614H147.245C147.174 262.097 146.999 262.532 146.718 262.919C146.441 263.302 146.074 263.608 145.616 263.835C145.161 264.059 144.632 264.17 144.028 264.17ZM152.407 264.17C151.668 264.17 151.02 263.995 150.463 263.643C149.909 263.292 149.476 262.8 149.163 262.168C148.854 261.536 148.7 260.797 148.7 259.952C148.7 259.099 148.854 258.355 149.163 257.72C149.476 257.084 149.909 256.591 150.463 256.239C151.02 255.887 151.668 255.712 152.407 255.712C153.146 255.712 153.792 255.887 154.346 256.239C154.903 256.591 155.337 257.084 155.646 257.72C155.958 258.355 156.114 259.099 156.114 259.952C156.114 260.797 155.958 261.536 155.646 262.168C155.337 262.8 154.903 263.292 154.346 263.643C153.792 263.995 153.146 264.17 152.407 264.17ZM152.407 263.041C152.968 263.041 153.43 262.897 153.792 262.61C154.154 262.322 154.422 261.944 154.596 261.475C154.77 261.006 154.857 260.499 154.857 259.952C154.857 259.405 154.77 258.895 154.596 258.423C154.422 257.951 154.154 257.569 153.792 257.278C153.43 256.987 152.968 256.841 152.407 256.841C151.846 256.841 151.384 256.987 151.022 257.278C150.66 257.569 150.392 257.951 150.218 258.423C150.044 258.895 149.957 259.405 149.957 259.952C149.957 260.499 150.044 261.006 150.218 261.475C150.392 261.944 150.66 262.322 151.022 262.61C151.384 262.897 151.846 263.041 152.407 263.041ZM159.29 259.078V264H158.033V255.818H159.248V257.097H159.354C159.546 256.681 159.837 256.347 160.228 256.095C160.619 255.839 161.123 255.712 161.741 255.712C162.295 255.712 162.779 255.825 163.195 256.053C163.61 256.276 163.934 256.617 164.164 257.075C164.395 257.53 164.511 258.105 164.511 258.801V264H163.254V258.886C163.254 258.244 163.087 257.743 162.753 257.384C162.419 257.022 161.961 256.841 161.379 256.841C160.977 256.841 160.619 256.928 160.303 257.102C159.99 257.276 159.743 257.53 159.562 257.864C159.381 258.197 159.29 258.602 159.29 259.078ZM168.065 259.078V264H166.808V255.818H168.022V257.097H168.129C168.321 256.681 168.612 256.347 169.002 256.095C169.393 255.839 169.897 255.712 170.515 255.712C171.069 255.712 171.554 255.825 171.969 256.053C172.385 256.276 172.708 256.617 172.939 257.075C173.17 257.53 173.285 258.105 173.285 258.801V264H172.028V258.886C172.028 258.244 171.861 257.743 171.527 257.384C171.193 257.022 170.735 256.841 170.153 256.841C169.752 256.841 169.393 256.928 169.077 257.102C168.764 257.276 168.518 257.53 168.337 257.864C168.155 258.197 168.065 258.602 168.065 259.078ZM179.013 264.17C178.224 264.17 177.544 263.996 176.972 263.648C176.404 263.297 175.966 262.807 175.657 262.178C175.351 261.546 175.199 260.811 175.199 259.973C175.199 259.135 175.351 258.396 175.657 257.757C175.966 257.114 176.395 256.614 176.946 256.255C177.5 255.893 178.146 255.712 178.885 255.712C179.311 255.712 179.732 255.783 180.147 255.925C180.563 256.067 180.941 256.298 181.282 256.617C181.623 256.933 181.894 257.352 182.097 257.874C182.299 258.396 182.4 259.039 182.4 259.803V260.335H176.094V259.249H181.122C181.122 258.787 181.03 258.375 180.845 258.013C180.664 257.651 180.405 257.365 180.067 257.155C179.733 256.946 179.339 256.841 178.885 256.841C178.384 256.841 177.951 256.965 177.585 257.214C177.223 257.459 176.944 257.778 176.749 258.173C176.553 258.567 176.456 258.989 176.456 259.44V260.165C176.456 260.783 176.562 261.306 176.775 261.736C176.992 262.162 177.292 262.487 177.676 262.711C178.059 262.931 178.505 263.041 179.013 263.041C179.343 263.041 179.641 262.995 179.907 262.903C180.177 262.807 180.41 262.665 180.605 262.477C180.801 262.285 180.952 262.047 181.058 261.763L182.273 262.104C182.145 262.516 181.93 262.878 181.628 263.19C181.326 263.499 180.953 263.741 180.509 263.915C180.066 264.085 179.567 264.17 179.013 264.17ZM190.108 257.651L188.979 257.97C188.908 257.782 188.803 257.599 188.665 257.422C188.53 257.24 188.345 257.091 188.111 256.974C187.876 256.857 187.576 256.798 187.21 256.798C186.71 256.798 186.292 256.914 185.959 257.145C185.628 257.372 185.463 257.661 185.463 258.013C185.463 258.325 185.577 258.572 185.804 258.753C186.031 258.934 186.387 259.085 186.869 259.206L188.084 259.504C188.816 259.682 189.361 259.953 189.719 260.319C190.078 260.681 190.257 261.148 190.257 261.72C190.257 262.189 190.122 262.608 189.852 262.977C189.586 263.347 189.213 263.638 188.734 263.851C188.254 264.064 187.697 264.17 187.061 264.17C186.227 264.17 185.536 263.989 184.989 263.627C184.442 263.265 184.096 262.736 183.95 262.04L185.144 261.741C185.257 262.182 185.472 262.512 185.788 262.732C186.108 262.952 186.525 263.062 187.04 263.062C187.626 263.062 188.091 262.938 188.436 262.69C188.784 262.437 188.958 262.136 188.958 261.784C188.958 261.5 188.858 261.262 188.659 261.07C188.46 260.875 188.155 260.729 187.743 260.634L186.379 260.314C185.63 260.136 185.08 259.861 184.728 259.488C184.38 259.112 184.206 258.641 184.206 258.077C184.206 257.615 184.336 257.207 184.595 256.852C184.858 256.496 185.215 256.218 185.666 256.015C186.12 255.813 186.635 255.712 187.21 255.712C188.02 255.712 188.656 255.889 189.117 256.244C189.583 256.599 189.913 257.068 190.108 257.651ZM197.945 257.651L196.816 257.97C196.745 257.782 196.64 257.599 196.502 257.422C196.367 257.24 196.182 257.091 195.948 256.974C195.713 256.857 195.413 256.798 195.047 256.798C194.547 256.798 194.129 256.914 193.796 257.145C193.465 257.372 193.3 257.661 193.3 258.013C193.3 258.325 193.414 258.572 193.641 258.753C193.868 258.934 194.223 259.085 194.706 259.206L195.921 259.504C196.652 259.682 197.198 259.953 197.556 260.319C197.915 260.681 198.094 261.148 198.094 261.72C198.094 262.189 197.959 262.608 197.689 262.977C197.423 263.347 197.05 263.638 196.571 263.851C196.091 264.064 195.534 264.17 194.898 264.17C194.064 264.17 193.373 263.989 192.826 263.627C192.279 263.265 191.933 262.736 191.787 262.04L192.981 261.741C193.094 262.182 193.309 262.512 193.625 262.732C193.945 262.952 194.362 263.062 194.877 263.062C195.463 263.062 195.928 262.938 196.272 262.69C196.62 262.437 196.794 262.136 196.794 261.784C196.794 261.5 196.695 261.262 196.496 261.07C196.297 260.875 195.992 260.729 195.58 260.634L194.216 260.314C193.467 260.136 192.917 259.861 192.565 259.488C192.217 259.112 192.043 258.641 192.043 258.077C192.043 257.615 192.173 257.207 192.432 256.852C192.695 256.496 193.052 256.218 193.503 256.015C193.957 255.813 194.472 255.712 195.047 255.712C195.857 255.712 196.493 255.889 196.954 256.244C197.419 256.599 197.75 257.068 197.945 257.651ZM203.31 264.17C202.572 264.17 201.924 263.995 201.366 263.643C200.812 263.292 200.379 262.8 200.066 262.168C199.757 261.536 199.603 260.797 199.603 259.952C199.603 259.099 199.757 258.355 200.066 257.72C200.379 257.084 200.812 256.591 201.366 256.239C201.924 255.887 202.572 255.712 203.31 255.712C204.049 255.712 204.695 255.887 205.249 256.239C205.807 256.591 206.24 257.084 206.549 257.72C206.862 258.355 207.018 259.099 207.018 259.952C207.018 260.797 206.862 261.536 206.549 262.168C206.24 262.8 205.807 263.292 205.249 263.643C204.695 263.995 204.049 264.17 203.31 264.17ZM203.31 263.041C203.871 263.041 204.333 262.897 204.695 262.61C205.058 262.322 205.326 261.944 205.5 261.475C205.674 261.006 205.761 260.499 205.761 259.952C205.761 259.405 205.674 258.895 205.5 258.423C205.326 257.951 205.058 257.569 204.695 257.278C204.333 256.987 203.871 256.841 203.31 256.841C202.749 256.841 202.288 256.987 201.925 257.278C201.563 257.569 201.295 257.951 201.121 258.423C200.947 258.895 200.86 259.405 200.86 259.952C200.86 260.499 200.947 261.006 201.121 261.475C201.295 261.944 201.563 262.322 201.925 262.61C202.288 262.897 202.749 263.041 203.31 263.041Z" fill="black"/>
<path d="M157.5 75L167.5 87" stroke="black" stroke-linecap="round"/>
<path d="M157.5 90L167.5 102" stroke="black" stroke-linecap="round"/>
<path d="M157.5 105L167.5 117" stroke="black" stroke-linecap="round"/>
<path d="M157.5 121L167.5 133" stroke="black" stroke-linecap="round"/>
<path d="M157.5 145L167.5 157" stroke="black" stroke-linecap="round"/>
<path d="M157.5 157L167.5 169" stroke="black" stroke-linecap="round"/>
<path d="M157.5 169L167.5 181" stroke="black" stroke-linecap="round"/>
<path d="M157.5 182L167.5 194" stroke="black" stroke-linecap="round"/>
<path d="M94 72V206" stroke="black" stroke-linecap="round" stroke-dasharray="2 2"/>
<path d="M111.5 72.5V206.5" stroke="black" stroke-linecap="round" stroke-dasharray="2 2"/>
<path d="M98.5 75L108.5 87" stroke="black" stroke-linecap="round"/>
<path d="M98.5 90L108.5 102" stroke="black" stroke-linecap="round"/>
<path d="M98.5 105L108.5 117" stroke="black" stroke-linecap="round"/>
<path d="M98.5 121L108.5 133" stroke="black" stroke-linecap="round"/>
<path d="M98.5 145L108.5 157" stroke="black" stroke-linecap="round"/>
<path d="M98.5 157L108.5 169" stroke="black" stroke-linecap="round"/>
<path d="M98.5 169L108.5 181" stroke="black" stroke-linecap="round"/>
<path d="M98.5 182L108.5 194" stroke="black" stroke-linecap="round"/>
<circle cx="396" cy="164" r="1" fill="black"/>
<circle cx="396" cy="164" r="34.5" fill="#D9D9D9" stroke="black"/>
<circle cx="396" cy="164" r="24.5" fill="white" stroke="black"/>
<path d="M410.333 140.5C410.333 141.973 411.527 143.167 413 143.167C414.473 143.167 415.667 141.973 415.667 140.5C415.667 139.027 414.473 137.833 413 137.833C411.527 137.833 410.333 139.027 410.333 140.5ZM410.333 189C410.333 190.473 411.527 191.667 413 191.667C414.473 191.667 415.667 190.473 415.667 189C415.667 187.527 414.473 186.333 413 186.333C411.527 186.333 410.333 187.527 410.333 189ZM412.689 140.891C417.12 144.42 422.435 151.046 423.983 159.428C425.525 167.775 423.346 177.947 412.646 188.646L413.354 189.354C424.254 178.453 426.575 167.959 424.967 159.247C423.365 150.571 417.88 143.747 413.311 140.109L412.689 140.891Z" fill="black"/>
<path d="M321.099 260.5H319.778C319.7 260.12 319.564 259.786 319.368 259.499C319.176 259.211 318.942 258.969 318.665 258.774C318.392 258.575 318.088 258.426 317.754 258.327C317.42 258.227 317.072 258.178 316.71 258.178C316.05 258.178 315.451 258.344 314.915 258.678C314.382 259.012 313.958 259.504 313.642 260.154C313.33 260.804 313.173 261.601 313.173 262.545C313.173 263.49 313.33 264.287 313.642 264.937C313.958 265.587 314.382 266.079 314.915 266.413C315.451 266.746 316.05 266.913 316.71 266.913C317.072 266.913 317.42 266.864 317.754 266.764C318.088 266.665 318.392 266.517 318.665 266.322C318.942 266.123 319.176 265.88 319.368 265.592C319.564 265.301 319.7 264.967 319.778 264.591H321.099C321 265.148 320.819 265.647 320.556 266.088C320.293 266.528 319.967 266.903 319.576 267.212C319.185 267.517 318.747 267.75 318.26 267.909C317.777 268.069 317.261 268.149 316.71 268.149C315.78 268.149 314.952 267.922 314.228 267.467C313.504 267.013 312.934 266.366 312.518 265.528C312.103 264.69 311.895 263.696 311.895 262.545C311.895 261.395 312.103 260.401 312.518 259.562C312.934 258.724 313.504 258.078 314.228 257.624C314.952 257.169 315.78 256.942 316.71 256.942C317.261 256.942 317.777 257.022 318.26 257.181C318.747 257.341 319.185 257.576 319.576 257.885C319.967 258.19 320.293 258.563 320.556 259.003C320.819 259.44 321 259.939 321.099 260.5ZM324.321 263.078V268H323.064V257.091H324.321V261.097H324.427C324.619 260.674 324.907 260.338 325.29 260.09C325.677 259.838 326.192 259.712 326.835 259.712C327.392 259.712 327.881 259.824 328.3 260.047C328.719 260.267 329.044 260.607 329.275 261.065C329.509 261.519 329.626 262.098 329.626 262.801V268H328.369V262.886C328.369 262.237 328.2 261.734 327.863 261.379C327.529 261.02 327.066 260.841 326.473 260.841C326.061 260.841 325.691 260.928 325.365 261.102C325.042 261.276 324.786 261.53 324.598 261.864C324.413 262.197 324.321 262.602 324.321 263.078ZM331.926 268V259.818H333.183V268H331.926ZM332.565 258.455C332.32 258.455 332.109 258.371 331.931 258.204C331.757 258.037 331.67 257.837 331.67 257.602C331.67 257.368 331.757 257.167 331.931 257C332.109 256.833 332.32 256.75 332.565 256.75C332.81 256.75 333.02 256.833 333.194 257C333.371 257.167 333.46 257.368 333.46 257.602C333.46 257.837 333.371 258.037 333.194 258.204C333.02 258.371 332.81 258.455 332.565 258.455ZM340.642 264.655V259.818H341.899V268H340.642V266.615H340.557C340.365 267.031 340.066 267.384 339.662 267.675C339.257 267.963 338.745 268.107 338.128 268.107C337.616 268.107 337.162 267.995 336.764 267.771C336.366 267.544 336.054 267.203 335.826 266.748C335.599 266.29 335.486 265.713 335.486 265.017V259.818H336.743V264.932C336.743 265.528 336.91 266.004 337.243 266.359C337.581 266.714 338.01 266.892 338.532 266.892C338.845 266.892 339.163 266.812 339.486 266.652C339.813 266.493 340.086 266.248 340.306 265.917C340.53 265.587 340.642 265.166 340.642 264.655ZM349.997 261.651L348.868 261.97C348.797 261.782 348.692 261.599 348.553 261.422C348.418 261.24 348.234 261.091 347.999 260.974C347.765 260.857 347.465 260.798 347.099 260.798C346.598 260.798 346.181 260.914 345.847 261.145C345.517 261.372 345.352 261.661 345.352 262.013C345.352 262.325 345.466 262.572 345.693 262.753C345.92 262.934 346.275 263.085 346.758 263.206L347.973 263.504C348.704 263.682 349.249 263.953 349.608 264.319C349.967 264.681 350.146 265.148 350.146 265.72C350.146 266.189 350.011 266.608 349.741 266.977C349.475 267.347 349.102 267.638 348.623 267.851C348.143 268.064 347.586 268.17 346.95 268.17C346.115 268.17 345.425 267.989 344.878 267.627C344.331 267.265 343.985 266.736 343.839 266.04L345.032 265.741C345.146 266.182 345.361 266.512 345.677 266.732C345.996 266.952 346.414 267.062 346.929 267.062C347.515 267.062 347.98 266.938 348.324 266.69C348.672 266.437 348.846 266.136 348.846 265.784C348.846 265.5 348.747 265.262 348.548 265.07C348.349 264.875 348.044 264.729 347.632 264.634L346.268 264.314C345.519 264.136 344.968 263.861 344.617 263.488C344.269 263.112 344.095 262.641 344.095 262.077C344.095 261.615 344.224 261.207 344.484 260.852C344.746 260.496 345.103 260.218 345.554 260.015C346.009 259.813 346.524 259.712 347.099 259.712C347.909 259.712 348.544 259.889 349.006 260.244C349.471 260.599 349.801 261.068 349.997 261.651ZM355.362 268.17C354.623 268.17 353.975 267.995 353.418 267.643C352.864 267.292 352.431 266.8 352.118 266.168C351.809 265.536 351.655 264.797 351.655 263.952C351.655 263.099 351.809 262.355 352.118 261.72C352.431 261.084 352.864 260.591 353.418 260.239C353.975 259.887 354.623 259.712 355.362 259.712C356.101 259.712 356.747 259.887 357.301 260.239C357.859 260.591 358.292 261.084 358.601 261.72C358.913 262.355 359.07 263.099 359.07 263.952C359.07 264.797 358.913 265.536 358.601 266.168C358.292 266.8 357.859 267.292 357.301 267.643C356.747 267.995 356.101 268.17 355.362 268.17ZM355.362 267.041C355.923 267.041 356.385 266.897 356.747 266.61C357.109 266.322 357.377 265.944 357.551 265.475C357.725 265.006 357.812 264.499 357.812 263.952C357.812 263.405 357.725 262.895 357.551 262.423C357.377 261.951 357.109 261.569 356.747 261.278C356.385 260.987 355.923 260.841 355.362 260.841C354.801 260.841 354.339 260.987 353.977 261.278C353.615 261.569 353.347 261.951 353.173 262.423C352.999 262.895 352.912 263.405 352.912 263.952C352.912 264.499 352.999 265.006 353.173 265.475C353.347 265.944 353.615 266.322 353.977 266.61C354.339 266.897 354.801 267.041 355.362 267.041ZM362.863 266.509L362.778 267.084C362.718 267.489 362.626 267.922 362.501 268.384C362.381 268.845 362.254 269.28 362.123 269.689C361.992 270.097 361.883 270.422 361.798 270.663H360.839C360.885 270.436 360.946 270.136 361.02 269.763C361.095 269.39 361.17 268.973 361.244 268.511C361.322 268.053 361.386 267.585 361.436 267.105L361.5 266.509H362.863ZM372.735 268.17C371.968 268.17 371.308 267.989 370.754 267.627C370.2 267.265 369.774 266.766 369.475 266.13C369.177 265.495 369.028 264.768 369.028 263.952C369.028 263.121 369.18 262.387 369.486 261.752C369.795 261.113 370.225 260.614 370.775 260.255C371.329 259.893 371.975 259.712 372.714 259.712C373.289 259.712 373.808 259.818 374.269 260.031C374.731 260.244 375.109 260.543 375.404 260.926C375.699 261.31 375.881 261.757 375.953 262.268H374.695C374.6 261.896 374.386 261.565 374.056 261.278C373.729 260.987 373.289 260.841 372.735 260.841C372.245 260.841 371.815 260.969 371.446 261.224C371.08 261.477 370.794 261.833 370.589 262.295C370.386 262.753 370.285 263.291 370.285 263.909C370.285 264.541 370.384 265.092 370.583 265.56C370.786 266.029 371.07 266.393 371.435 266.652C371.805 266.912 372.238 267.041 372.735 267.041C373.062 267.041 373.358 266.984 373.625 266.871C373.891 266.757 374.117 266.594 374.301 266.381C374.486 266.168 374.617 265.912 374.695 265.614H375.953C375.881 266.097 375.706 266.532 375.425 266.919C375.148 267.302 374.781 267.608 374.323 267.835C373.868 268.059 373.339 268.17 372.735 268.17ZM381.114 268.17C380.375 268.17 379.727 267.995 379.17 267.643C378.616 267.292 378.183 266.8 377.87 266.168C377.561 265.536 377.407 264.797 377.407 263.952C377.407 263.099 377.561 262.355 377.87 261.72C378.183 261.084 378.616 260.591 379.17 260.239C379.727 259.887 380.375 259.712 381.114 259.712C381.853 259.712 382.499 259.887 383.053 260.239C383.611 260.591 384.044 261.084 384.353 261.72C384.665 262.355 384.821 263.099 384.821 263.952C384.821 264.797 384.665 265.536 384.353 266.168C384.044 266.8 383.611 267.292 383.053 267.643C382.499 267.995 381.853 268.17 381.114 268.17ZM381.114 267.041C381.675 267.041 382.137 266.897 382.499 266.61C382.861 266.322 383.129 265.944 383.303 265.475C383.477 265.006 383.564 264.499 383.564 263.952C383.564 263.405 383.477 262.895 383.303 262.423C383.129 261.951 382.861 261.569 382.499 261.278C382.137 260.987 381.675 260.841 381.114 260.841C380.553 260.841 380.091 260.987 379.729 261.278C379.367 261.569 379.099 261.951 378.925 262.423C378.751 262.895 378.664 263.405 378.664 263.952C378.664 264.499 378.751 265.006 378.925 265.475C379.099 265.944 379.367 266.322 379.729 266.61C380.091 266.897 380.553 267.041 381.114 267.041ZM387.998 263.078V268H386.74V259.818H387.955V261.097H388.061C388.253 260.681 388.544 260.347 388.935 260.095C389.326 259.839 389.83 259.712 390.448 259.712C391.002 259.712 391.487 259.825 391.902 260.053C392.317 260.276 392.641 260.617 392.871 261.075C393.102 261.53 393.218 262.105 393.218 262.801V268H391.961V262.886C391.961 262.244 391.794 261.743 391.46 261.384C391.126 261.022 390.668 260.841 390.086 260.841C389.684 260.841 389.326 260.928 389.01 261.102C388.697 261.276 388.45 261.53 388.269 261.864C388.088 262.197 387.998 262.602 387.998 263.078ZM396.772 263.078V268H395.515V259.818H396.729V261.097H396.836C397.028 260.681 397.319 260.347 397.709 260.095C398.1 259.839 398.604 259.712 399.222 259.712C399.776 259.712 400.261 259.825 400.676 260.053C401.092 260.276 401.415 260.617 401.646 261.075C401.877 261.53 401.992 262.105 401.992 262.801V268H400.735V262.886C400.735 262.244 400.568 261.743 400.234 261.384C399.9 261.022 399.442 260.841 398.86 260.841C398.459 260.841 398.1 260.928 397.784 261.102C397.472 261.276 397.225 261.53 397.044 261.864C396.862 262.197 396.772 262.602 396.772 263.078ZM407.72 268.17C406.931 268.17 406.251 267.996 405.68 267.648C405.111 267.297 404.673 266.807 404.364 266.178C404.058 265.546 403.906 264.811 403.906 263.973C403.906 263.135 404.058 262.396 404.364 261.757C404.673 261.114 405.102 260.614 405.653 260.255C406.207 259.893 406.853 259.712 407.592 259.712C408.018 259.712 408.439 259.783 408.854 259.925C409.27 260.067 409.648 260.298 409.989 260.617C410.33 260.933 410.601 261.352 410.804 261.874C411.006 262.396 411.107 263.039 411.107 263.803V264.335H404.801V263.249H409.829C409.829 262.787 409.737 262.375 409.552 262.013C409.371 261.651 409.112 261.365 408.774 261.155C408.441 260.946 408.046 260.841 407.592 260.841C407.091 260.841 406.658 260.965 406.292 261.214C405.93 261.459 405.651 261.778 405.456 262.173C405.26 262.567 405.163 262.989 405.163 263.44V264.165C405.163 264.783 405.269 265.306 405.482 265.736C405.699 266.162 405.999 266.487 406.383 266.711C406.766 266.931 407.212 267.041 407.72 267.041C408.05 267.041 408.348 266.995 408.615 266.903C408.884 266.807 409.117 266.665 409.312 266.477C409.508 266.285 409.659 266.047 409.765 265.763L410.98 266.104C410.852 266.516 410.637 266.878 410.335 267.19C410.033 267.499 409.66 267.741 409.216 267.915C408.773 268.085 408.274 268.17 407.72 268.17ZM418.815 261.651L417.686 261.97C417.615 261.782 417.51 261.599 417.372 261.422C417.237 261.24 417.052 261.091 416.818 260.974C416.583 260.857 416.283 260.798 415.917 260.798C415.417 260.798 414.999 260.914 414.666 261.145C414.335 261.372 414.17 261.661 414.17 262.013C414.17 262.325 414.284 262.572 414.511 262.753C414.738 262.934 415.094 263.085 415.577 263.206L416.791 263.504C417.523 263.682 418.068 263.953 418.426 264.319C418.785 264.681 418.964 265.148 418.964 265.72C418.964 266.189 418.829 266.608 418.559 266.977C418.293 267.347 417.92 267.638 417.441 267.851C416.961 268.064 416.404 268.17 415.768 268.17C414.934 268.17 414.243 267.989 413.696 267.627C413.149 267.265 412.803 266.736 412.657 266.04L413.851 265.741C413.964 266.182 414.179 266.512 414.495 266.732C414.815 266.952 415.232 267.062 415.747 267.062C416.333 267.062 416.798 266.938 417.143 266.69C417.491 266.437 417.665 266.136 417.665 265.784C417.665 265.5 417.565 265.262 417.366 265.07C417.167 264.875 416.862 264.729 416.45 264.634L415.086 264.314C414.337 264.136 413.787 263.861 413.435 263.488C413.087 263.112 412.913 262.641 412.913 262.077C412.913 261.615 413.043 261.207 413.302 260.852C413.565 260.496 413.922 260.218 414.373 260.015C414.827 259.813 415.342 259.712 415.917 259.712C416.727 259.712 417.363 259.889 417.824 260.244C418.29 260.599 418.62 261.068 418.815 261.651ZM426.652 261.651L425.523 261.97C425.452 261.782 425.347 261.599 425.209 261.422C425.074 261.24 424.889 261.091 424.655 260.974C424.42 260.857 424.12 260.798 423.754 260.798C423.254 260.798 422.836 260.914 422.503 261.145C422.172 261.372 422.007 261.661 422.007 262.013C422.007 262.325 422.121 262.572 422.348 262.753C422.575 262.934 422.93 263.085 423.413 263.206L424.628 263.504C425.359 263.682 425.905 263.953 426.263 264.319C426.622 264.681 426.801 265.148 426.801 265.72C426.801 266.189 426.666 266.608 426.396 266.977C426.13 267.347 425.757 267.638 425.278 267.851C424.798 268.064 424.241 268.17 423.605 268.17C422.771 268.17 422.08 267.989 421.533 267.627C420.986 267.265 420.64 266.736 420.494 266.04L421.688 265.741C421.801 266.182 422.016 266.512 422.332 266.732C422.652 266.952 423.069 267.062 423.584 267.062C424.17 267.062 424.635 266.938 424.979 266.69C425.328 266.437 425.502 266.136 425.502 265.784C425.502 265.5 425.402 265.262 425.203 265.07C425.004 264.875 424.699 264.729 424.287 264.634L422.923 264.314C422.174 264.136 421.624 263.861 421.272 263.488C420.924 263.112 420.75 262.641 420.75 262.077C420.75 261.615 420.88 261.207 421.139 260.852C421.402 260.496 421.759 260.218 422.21 260.015C422.664 259.813 423.179 259.712 423.754 259.712C424.564 259.712 425.2 259.889 425.661 260.244C426.127 260.599 426.457 261.068 426.652 261.651ZM432.017 268.17C431.279 268.17 430.631 267.995 430.073 267.643C429.519 267.292 429.086 266.8 428.773 266.168C428.464 265.536 428.31 264.797 428.31 263.952C428.31 263.099 428.464 262.355 428.773 261.72C429.086 261.084 429.519 260.591 430.073 260.239C430.631 259.887 431.279 259.712 432.017 259.712C432.756 259.712 433.402 259.887 433.956 260.239C434.514 260.591 434.947 261.084 435.256 261.72C435.569 262.355 435.725 263.099 435.725 263.952C435.725 264.797 435.569 265.536 435.256 266.168C434.947 266.8 434.514 267.292 433.956 267.643C433.402 267.995 432.756 268.17 432.017 268.17ZM432.017 267.041C432.578 267.041 433.04 266.897 433.402 266.61C433.765 266.322 434.033 265.944 434.207 265.475C434.381 265.006 434.468 264.499 434.468 263.952C434.468 263.405 434.381 262.895 434.207 262.423C434.033 261.951 433.765 261.569 433.402 261.278C433.04 260.987 432.578 260.841 432.017 260.841C431.456 260.841 430.995 260.987 430.632 261.278C430.27 261.569 430.002 261.951 429.828 262.423C429.654 262.895 429.567 263.405 429.567 263.952C429.567 264.499 429.654 265.006 429.828 265.475C430.002 265.944 430.27 266.322 430.632 266.61C430.995 266.897 431.456 267.041 432.017 267.041Z" fill="black"/>
</svg>
