<svg width="503" height="277" viewBox="0 0 503 277" fill="none" xmlns="http://www.w3.org/2000/svg">
<path d="M252.354 13.6464C252.158 13.4512 251.842 13.4512 251.646 13.6464L248.464 16.8284C248.269 17.0237 248.269 17.3403 248.464 17.5355C248.66 17.7308 248.976 17.7308 249.172 17.5355L252 14.7071L254.828 17.5355C255.024 17.7308 255.34 17.7308 255.536 17.5355C255.731 17.3403 255.731 17.0237 255.536 16.8284L252.354 13.6464ZM251.5 14V263H252.5V14H251.5Z" fill="black"/>
<path d="M376.354 139.354C376.549 139.158 376.549 138.842 376.354 138.646L373.172 135.464C372.976 135.269 372.66 135.269 372.464 135.464C372.269 135.66 372.269 135.976 372.464 136.172L375.293 139L372.464 141.828C372.269 142.024 372.269 142.34 372.464 142.536C372.66 142.731 372.976 142.731 373.172 142.536L376.354 139.354ZM376 138.5L127 138.5L127 139.5L376 139.5L376 138.5Z" fill="black"/>
<path d="M192 169.5L341.5 94" stroke="black"/>
<path d="M319 105.5V139" stroke="black"/>
<path d="M256.125 148.099C255.59 148.099 255.134 147.954 254.758 147.663C254.381 147.369 254.094 146.944 253.895 146.388C253.696 145.829 253.597 145.154 253.597 144.364C253.597 143.578 253.696 142.906 253.895 142.35C254.096 141.791 254.385 141.365 254.761 141.072C255.14 140.776 255.595 140.628 256.125 140.628C256.655 140.628 257.109 140.776 257.485 141.072C257.864 141.365 258.153 141.791 258.352 142.35C258.553 142.906 258.653 143.578 258.653 144.364C258.653 145.154 258.554 145.829 258.355 146.388C258.156 146.944 257.869 147.369 257.492 147.663C257.116 147.954 256.66 148.099 256.125 148.099ZM256.125 147.318C256.655 147.318 257.067 147.062 257.361 146.551C257.654 146.04 257.801 145.311 257.801 144.364C257.801 143.734 257.734 143.198 257.599 142.755C257.466 142.312 257.274 141.975 257.023 141.743C256.775 141.511 256.475 141.395 256.125 141.395C255.599 141.395 255.189 141.654 254.893 142.173C254.597 142.689 254.449 143.419 254.449 144.364C254.449 144.993 254.515 145.528 254.648 145.969C254.78 146.409 254.971 146.744 255.219 146.974C255.47 147.203 255.772 147.318 256.125 147.318Z" fill="black"/>
<path d="M316.582 146.509V145.784L319.778 140.727H320.304V141.849H319.949L317.534 145.67V145.727H321.838V146.509H316.582ZM320.006 148V146.288V145.951V140.727H320.844V148H320.006Z" fill="black"/>
<path d="M297.881 131V123.727H302.27V124.509H298.761V126.966H302.043V127.747H298.761V130.219H302.327V131H297.881Z" fill="black"/>
<path d="M314.59 84.9227C314.294 85.3913 313.866 85.8105 313.328 85.8105C313.196 85.8105 312.669 85.7859 312.505 85.2186C312.538 85.231 312.593 85.231 312.615 85.231C312.944 85.231 313.163 84.9104 313.163 84.6268C313.163 84.3432 312.955 84.2445 312.79 84.2445C312.615 84.2445 312.23 84.3925 312.23 84.9967C312.23 85.6256 312.702 86.0571 313.328 86.0571C314.425 86.0571 315.534 84.9227 315.841 83.554L316.917 78.745C316.928 78.6834 316.949 78.6094 316.949 78.5354C316.949 78.3504 316.818 78.2271 316.653 78.2271C316.554 78.2271 316.324 78.2765 316.236 78.6464L315.424 82.2716C315.369 82.4936 315.369 82.5182 315.281 82.6539C315.062 82.9991 314.7 83.4184 314.173 83.4184C313.558 83.4184 313.503 82.7402 313.503 82.4072C313.503 81.7044 313.8 80.7549 314.096 79.8671C314.217 79.5095 314.283 79.3369 314.283 79.0903C314.283 78.5724 313.953 78.1038 313.416 78.1038C312.406 78.1038 312 79.8918 312 79.9904C312 80.0397 312.044 80.1014 312.121 80.1014C312.219 80.1014 312.23 80.0521 312.274 79.8794C312.538 78.8437 312.955 78.3504 313.383 78.3504C313.482 78.3504 313.668 78.3504 313.668 78.7573C313.668 79.0779 313.547 79.4355 313.383 79.9041C312.845 81.5194 312.845 81.9263 312.845 82.2223C312.845 83.3937 313.591 83.665 314.14 83.665C314.458 83.665 314.853 83.554 315.237 83.0978L315.248 83.1101C315.084 83.8376 314.974 84.3185 314.59 84.9227Z" fill="black"/>
<path d="M327.793 79.5465C327.947 79.5465 328.144 79.5465 328.144 79.3246C328.144 79.0903 327.958 79.0903 327.793 79.0903H321.329C321.176 79.0903 320.978 79.0903 320.978 79.3122C320.978 79.5465 321.165 79.5465 321.329 79.5465H327.793ZM327.793 81.84C327.947 81.84 328.144 81.84 328.144 81.6181C328.144 81.3838 327.958 81.3838 327.793 81.3838H321.329C321.176 81.3838 320.978 81.3838 320.978 81.6057C320.978 81.84 321.165 81.84 321.329 81.84H327.793Z" fill="black"/>
<path d="M336.049 67.2959C336.049 67.0123 336.049 67 335.83 67C335.566 67.3329 335.018 67.7892 333.887 67.7892V68.1468C334.14 68.1468 334.688 68.1468 335.292 67.8262V74.2505C335.292 74.6944 335.259 74.8423 334.293 74.8423H333.953V75.1999C334.249 75.1753 335.314 75.1753 335.676 75.1753C336.038 75.1753 337.092 75.1753 337.388 75.1999V74.8423H337.048C336.082 74.8423 336.049 74.6944 336.049 74.2505V67.2959Z" fill="black"/>
<path d="M338.262 80.2125H332.889V80.7057H338.262V80.2125Z" fill="black"/>
<path d="M336.851 83.9728C336.851 83.7385 336.851 83.6769 336.697 83.6769C336.61 83.6769 336.577 83.6769 336.489 83.8248L333.186 89.5833V89.9409H336.072V91.063C336.072 91.5192 336.05 91.6425 335.249 91.6425H335.029V92.0001C335.282 91.9754 336.149 91.9754 336.456 91.9754C336.763 91.9754 337.641 91.9754 337.894 92.0001V91.6425H337.674C336.884 91.6425 336.851 91.5192 336.851 91.063V89.9409H337.959V89.5833H336.851V83.9728ZM336.127 84.9346V89.5833H333.46L336.127 84.9346Z" fill="black"/>
<path d="M344.561 78.5107C344.21 78.5847 344.078 78.8807 344.078 79.1149C344.078 79.4109 344.287 79.5095 344.44 79.5095C344.77 79.5095 345 79.1889 345 78.856C345 78.3381 344.473 78.1038 344.012 78.1038C343.343 78.1038 342.97 78.8437 342.871 79.0779C342.619 78.1531 341.938 78.1038 341.741 78.1038C340.621 78.1038 340.029 79.7191 340.029 79.9904C340.029 80.0397 340.073 80.1014 340.149 80.1014C340.237 80.1014 340.259 80.0274 340.281 79.9781C340.654 78.6094 341.389 78.3504 341.708 78.3504C342.202 78.3504 342.3 78.8683 342.3 79.1643C342.3 79.4355 342.235 79.7191 342.103 80.311L341.73 82.0003C341.565 82.7402 341.247 83.4184 340.665 83.4184C340.61 83.4184 340.336 83.4184 340.105 83.2581C340.501 83.1717 340.588 82.8018 340.588 82.6539C340.588 82.4072 340.424 82.2593 340.215 82.2593C339.952 82.2593 339.667 82.5182 339.667 82.9128C339.667 83.4307 340.182 83.665 340.654 83.665C341.181 83.665 341.554 83.1964 341.785 82.6908C341.96 83.4184 342.509 83.665 342.915 83.665C344.034 83.665 344.627 82.0496 344.627 81.7784C344.627 81.7167 344.583 81.6674 344.517 81.6674C344.418 81.6674 344.407 81.729 344.375 81.8277C344.078 82.9128 343.442 83.4184 342.948 83.4184C342.564 83.4184 342.355 83.0978 342.355 82.5922C342.355 82.3209 342.399 82.1236 342.575 81.3098L342.959 79.6328C343.123 78.893 343.497 78.3504 344.001 78.3504C344.023 78.3504 344.331 78.3504 344.561 78.5107Z" fill="black"/>
<path d="M287 92V175" stroke="#B0B0B0" stroke-dasharray="2 2"/>
<path d="M319.5 105.5L252 105.5" stroke="black" stroke-dasharray="2 2"/>
<path d="M249.31 101.727V109H248.429V102.651H248.386L246.611 103.83V102.935L248.429 101.727H249.31Z" fill="black"/>
<path d="M308.034 206.16C307.457 206.268 307.241 206.701 307.241 207.043C307.241 207.475 307.583 207.619 307.835 207.619C308.376 207.619 308.754 207.151 308.754 206.665C308.754 205.908 307.889 205.566 307.133 205.566C306.034 205.566 305.422 206.647 305.26 206.989C304.845 205.638 303.729 205.566 303.404 205.566C301.567 205.566 300.594 207.925 300.594 208.322C300.594 208.394 300.666 208.484 300.793 208.484C300.937 208.484 300.973 208.376 301.009 208.304C301.621 206.304 302.828 205.926 303.35 205.926C304.161 205.926 304.323 206.683 304.323 207.115C304.323 207.511 304.215 207.925 303.999 208.79L303.386 211.258C303.116 212.339 302.594 213.329 301.639 213.329C301.549 213.329 301.099 213.329 300.72 213.095C301.369 212.969 301.513 212.429 301.513 212.212C301.513 211.852 301.243 211.636 300.901 211.636C300.468 211.636 300 212.014 300 212.591C300 213.347 300.847 213.689 301.621 213.689C302.486 213.689 303.098 213.005 303.476 212.266C303.765 213.329 304.665 213.689 305.332 213.689C307.169 213.689 308.142 211.33 308.142 210.934C308.142 210.844 308.07 210.771 307.962 210.771C307.799 210.771 307.781 210.862 307.727 211.006C307.241 212.591 306.196 213.329 305.386 213.329C304.755 213.329 304.413 212.861 304.413 212.122C304.413 211.726 304.485 211.438 304.773 210.249L305.404 207.799C305.674 206.719 306.286 205.926 307.115 205.926C307.151 205.926 307.655 205.926 308.034 206.16Z" fill="black"/>
<path d="M324.392 209.366C324.699 209.366 325.023 209.366 325.023 209.006C325.023 208.646 324.699 208.646 324.392 208.646H316.755C316.971 206.232 319.043 204.503 321.582 204.503H324.392C324.699 204.503 325.023 204.503 325.023 204.143C325.023 203.783 324.699 203.783 324.392 203.783H321.546C318.466 203.783 316.017 206.124 316.017 209.006C316.017 211.888 318.466 214.23 321.546 214.23H324.392C324.699 214.23 325.023 214.23 325.023 213.87C325.023 213.509 324.699 213.509 324.392 213.509H321.582C319.043 213.509 316.971 211.78 316.755 209.366H324.392Z" fill="black"/>
<path d="M336.036 218.012V217.346H334.289V200.666H336.036V200H333.623V218.012H336.036Z" fill="black"/>
<path d="M344.502 207.745C344.502 206.25 344.412 204.791 343.763 203.422C343.025 201.927 341.728 201.531 340.845 201.531C339.801 201.531 338.522 202.053 337.855 203.548C337.351 204.683 337.171 205.8 337.171 207.745C337.171 209.493 337.297 210.807 337.945 212.086C338.648 213.455 339.891 213.888 340.827 213.888C342.395 213.888 343.295 212.951 343.817 211.906C344.466 210.555 344.502 208.79 344.502 207.745ZM340.827 213.527C340.251 213.527 339.08 213.203 338.738 211.24C338.54 210.159 338.54 208.79 338.54 207.529C338.54 206.052 338.54 204.719 338.828 203.657C339.134 202.45 340.053 201.891 340.827 201.891C341.512 201.891 342.557 202.306 342.899 203.855C343.133 204.881 343.133 206.304 343.133 207.529C343.133 208.736 343.133 210.105 342.935 211.204C342.593 213.185 341.458 213.527 340.827 213.527Z" fill="black"/>
<path d="M348.763 213.581C348.763 212.537 348.421 211.762 347.682 211.762C347.106 211.762 346.818 212.23 346.818 212.627C346.818 213.023 347.088 213.509 347.7 213.509C347.935 213.509 348.133 213.437 348.295 213.275C348.331 213.239 348.349 213.239 348.367 213.239C348.403 213.239 348.403 213.491 348.403 213.581C348.403 214.176 348.295 215.347 347.25 216.517C347.052 216.734 347.052 216.77 347.052 216.806C347.052 216.896 347.142 216.986 347.232 216.986C347.376 216.986 348.763 215.653 348.763 213.581Z" fill="black"/>
<path d="M359.655 201.783C359.655 201.441 359.655 201.351 359.403 201.351C359.259 201.351 359.205 201.351 359.06 201.567L353.639 209.979V210.501H358.376V212.14C358.376 212.807 358.34 212.987 357.025 212.987H356.665V213.509C357.079 213.473 358.502 213.473 359.006 213.473C359.511 213.473 360.952 213.473 361.366 213.509V212.987H361.006C359.709 212.987 359.655 212.807 359.655 212.14V210.501H361.474V209.979H359.655V201.783ZM358.466 203.188V209.979H354.089L358.466 203.188Z" fill="black"/>
<path d="M364.762 200H362.349V200.666H364.096V217.346H362.349V218.012H364.762V200Z" fill="black"/>
<path d="M307.331 238.4C307.331 236.905 307.241 235.446 306.593 234.077C305.854 232.582 304.557 232.186 303.675 232.186C302.63 232.186 301.351 232.708 300.684 234.203C300.18 235.338 300 236.454 300 238.4C300 240.147 300.126 241.462 300.775 242.741C301.477 244.11 302.72 244.542 303.657 244.542C305.224 244.542 306.124 243.605 306.647 242.561C307.295 241.21 307.331 239.445 307.331 238.4ZM303.657 244.182C303.08 244.182 301.909 243.858 301.567 241.894C301.369 240.814 301.369 239.445 301.369 238.184C301.369 236.707 301.369 235.374 301.657 234.311C301.963 233.104 302.882 232.546 303.657 232.546C304.341 232.546 305.386 232.96 305.728 234.509C305.962 235.536 305.962 236.959 305.962 238.184C305.962 239.391 305.962 240.759 305.764 241.858C305.422 243.84 304.287 244.182 303.657 244.182Z" fill="black"/>
<path d="M325.242 233.464C325.44 233.374 325.584 233.284 325.584 233.068C325.584 232.87 325.44 232.708 325.224 232.708C325.134 232.708 324.972 232.78 324.9 232.816L314.939 237.517C314.633 237.661 314.579 237.787 314.579 237.931C314.579 238.094 314.687 238.22 314.939 238.328L324.9 243.011C325.134 243.137 325.17 243.137 325.224 243.137C325.422 243.137 325.584 242.975 325.584 242.777C325.584 242.615 325.512 242.507 325.206 242.363L315.785 237.931L325.242 233.464ZM324.954 246.632C325.26 246.632 325.584 246.632 325.584 246.271C325.584 245.911 325.206 245.911 324.936 245.911H315.227C314.957 245.911 314.579 245.911 314.579 246.271C314.579 246.632 314.903 246.632 315.209 246.632H324.954Z" fill="black"/>
<path d="M336.834 246.181C336.348 246.866 335.645 247.478 334.763 247.478C334.546 247.478 333.682 247.442 333.412 246.614C333.466 246.632 333.556 246.632 333.592 246.632C334.132 246.632 334.492 246.163 334.492 245.749C334.492 245.335 334.15 245.191 333.88 245.191C333.592 245.191 332.961 245.407 332.961 246.289C332.961 247.208 333.736 247.838 334.763 247.838C336.564 247.838 338.383 246.181 338.887 244.182L340.653 237.157C340.671 237.067 340.707 236.959 340.707 236.851C340.707 236.581 340.49 236.4 340.22 236.4C340.058 236.4 339.68 236.473 339.536 237.013L338.203 242.309C338.113 242.633 338.113 242.669 337.969 242.867C337.608 243.371 337.014 243.984 336.149 243.984C335.141 243.984 335.051 242.993 335.051 242.507C335.051 241.48 335.537 240.093 336.023 238.796C336.222 238.274 336.33 238.022 336.33 237.661C336.33 236.905 335.789 236.22 334.907 236.22C333.249 236.22 332.583 238.832 332.583 238.976C332.583 239.048 332.655 239.138 332.781 239.138C332.943 239.138 332.961 239.066 333.033 238.814C333.466 237.301 334.15 236.581 334.853 236.581C335.015 236.581 335.321 236.581 335.321 237.175C335.321 237.643 335.123 238.166 334.853 238.85C333.97 241.21 333.97 241.804 333.97 242.236C333.97 243.948 335.195 244.344 336.095 244.344C336.618 244.344 337.266 244.182 337.897 243.515L337.915 243.533C337.645 244.596 337.464 245.299 336.834 246.181Z" fill="black"/>
<path d="M358.504 233.464C358.702 233.374 358.846 233.284 358.846 233.068C358.846 232.87 358.702 232.708 358.486 232.708C358.396 232.708 358.234 232.78 358.162 232.816L348.201 237.517C347.895 237.661 347.841 237.787 347.841 237.931C347.841 238.094 347.949 238.22 348.201 238.328L358.162 243.011C358.396 243.137 358.432 243.137 358.486 243.137C358.684 243.137 358.846 242.975 358.846 242.777C358.846 242.615 358.774 242.507 358.468 242.363L349.048 237.931L358.504 233.464ZM358.216 246.632C358.522 246.632 358.846 246.632 358.846 246.271C358.846 245.911 358.468 245.911 358.198 245.911H348.489C348.219 245.911 347.841 245.911 347.841 246.271C347.841 246.632 348.165 246.632 348.471 246.632H358.216Z" fill="black"/>
<path d="M372.348 220.432C372.348 220.018 372.348 220 371.988 220C371.555 220.486 370.655 221.153 368.799 221.153V221.675C369.214 221.675 370.114 221.675 371.105 221.207V230.591C371.105 231.24 371.051 231.456 369.466 231.456H368.907V231.978C369.394 231.942 371.141 231.942 371.735 231.942C372.33 231.942 374.059 231.942 374.545 231.978V231.456H373.987C372.402 231.456 372.348 231.24 372.348 230.591V220.432Z" fill="black"/>
<path d="M375.979 239.3H367.16V240.021H375.979V239.3Z" fill="black"/>
<path d="M373.663 244.793C373.663 244.451 373.663 244.361 373.41 244.361C373.266 244.361 373.212 244.361 373.068 244.577L367.646 252.989V253.511H372.384V255.151C372.384 255.817 372.348 255.997 371.033 255.997H370.673V256.519C371.087 256.483 372.51 256.483 373.014 256.483C373.519 256.483 374.96 256.483 375.374 256.519V255.997H375.014C373.717 255.997 373.663 255.817 373.663 255.151V253.511H375.482V252.989H373.663V244.793ZM372.474 246.198V252.989H368.097L372.474 246.198Z" fill="black"/>
<path d="M386.318 236.815C385.741 236.923 385.525 237.355 385.525 237.697C385.525 238.13 385.867 238.274 386.12 238.274C386.66 238.274 387.038 237.805 387.038 237.319C387.038 236.563 386.174 236.22 385.417 236.22C384.318 236.22 383.706 237.301 383.544 237.643C383.13 236.292 382.013 236.22 381.689 236.22C379.851 236.22 378.879 238.58 378.879 238.976C378.879 239.048 378.951 239.138 379.077 239.138C379.221 239.138 379.257 239.03 379.293 238.958C379.905 236.959 381.112 236.581 381.634 236.581C382.445 236.581 382.607 237.337 382.607 237.769C382.607 238.166 382.499 238.58 382.283 239.445L381.671 241.912C381.4 242.993 380.878 243.984 379.923 243.984C379.833 243.984 379.383 243.984 379.005 243.75C379.653 243.623 379.797 243.083 379.797 242.867C379.797 242.507 379.527 242.291 379.185 242.291C378.753 242.291 378.284 242.669 378.284 243.245C378.284 244.002 379.131 244.344 379.905 244.344C380.77 244.344 381.382 243.659 381.761 242.921C382.049 243.984 382.949 244.344 383.616 244.344C385.453 244.344 386.426 241.984 386.426 241.588C386.426 241.498 386.354 241.426 386.246 241.426C386.084 241.426 386.066 241.516 386.012 241.66C385.525 243.245 384.48 243.984 383.67 243.984C383.039 243.984 382.697 243.515 382.697 242.777C382.697 242.381 382.769 242.092 383.057 240.904L383.688 238.454C383.958 237.373 384.571 236.581 385.399 236.581C385.435 236.581 385.939 236.581 386.318 236.815Z" fill="black"/>
</svg>
