<svg width="443" height="325" viewBox="0 0 443 325" fill="none" xmlns="http://www.w3.org/2000/svg">
<path d="M223.354 2.64645C223.158 2.45118 222.842 2.45118 222.646 2.64645L219.464 5.82843C219.269 6.02369 219.269 6.34027 219.464 6.53553C219.66 6.7308 219.976 6.7308 220.172 6.53553L223 3.70711L225.828 6.53553C226.024 6.7308 226.34 6.7308 226.536 6.53553C226.731 6.34027 226.731 6.02369 226.536 5.82843L223.354 2.64645ZM222.5 3V321H223.5V3H222.5Z" fill="black"/>
<path d="M403.354 162.354C403.549 162.158 403.549 161.842 403.354 161.646L400.172 158.464C399.976 158.269 399.66 158.269 399.464 158.464C399.269 158.66 399.269 158.976 399.464 159.172L402.293 162L399.464 164.828C399.269 165.024 399.269 165.34 399.464 165.536C399.66 165.731 399.976 165.731 400.172 165.536L403.354 162.354ZM41 162.5L403 162.5L403 161.5L41 161.5L41 162.5Z" fill="black"/>
<circle cx="223" cy="162" r="99" stroke="black" stroke-width="2"/>
<path d="M221.017 168.364C221.017 169.131 220.879 169.794 220.602 170.352C220.325 170.911 219.945 171.342 219.462 171.645C218.979 171.948 218.427 172.099 217.807 172.099C217.187 172.099 216.635 171.948 216.152 171.645C215.669 171.342 215.289 170.911 215.012 170.352C214.735 169.794 214.597 169.131 214.597 168.364C214.597 167.597 214.735 166.934 215.012 166.375C215.289 165.816 215.669 165.385 216.152 165.082C216.635 164.779 217.187 164.628 217.807 164.628C218.427 164.628 218.979 164.779 219.462 165.082C219.945 165.385 220.325 165.816 220.602 166.375C220.879 166.934 221.017 167.597 221.017 168.364ZM220.165 168.364C220.165 167.734 220.059 167.202 219.849 166.769C219.64 166.336 219.357 166.008 219 165.786C218.645 165.563 218.247 165.452 217.807 165.452C217.366 165.452 216.968 165.563 216.61 165.786C216.255 166.008 215.972 166.336 215.761 166.769C215.553 167.202 215.449 167.734 215.449 168.364C215.449 168.993 215.553 169.525 215.761 169.958C215.972 170.391 216.255 170.719 216.61 170.942C216.968 171.164 217.366 171.276 217.807 171.276C218.247 171.276 218.645 171.164 219 170.942C219.357 170.719 219.64 170.391 219.849 169.958C220.059 169.525 220.165 168.993 220.165 168.364Z" fill="black"/>
<path d="M323 56V268.5" stroke="#FBBDBD" stroke-width="2"/>
<path d="M329.5 62L117 62" stroke="#A6DFFF" stroke-width="2"/>
<path d="M320.833 61.5C320.833 62.9728 322.027 64.1667 323.5 64.1667C324.973 64.1667 326.167 62.9728 326.167 61.5C326.167 60.0272 324.973 58.8333 323.5 58.8333C322.027 58.8333 320.833 60.0272 320.833 61.5ZM223.354 162.354L323.854 61.8536L323.146 61.1464L222.646 161.646L223.354 162.354Z" fill="black"/>
<g clip-path="url(#clip0_45_2)">
<path d="M327.939 61.5C327.939 60.994 327.972 60.5137 328.038 60.059C328.104 59.6043 328.18 59.212 328.266 58.882C328.353 58.552 328.475 58.2293 328.634 57.914C328.793 57.5987 328.919 57.353 329.011 57.177C329.104 57.001 329.243 56.8103 329.428 56.605C329.614 56.3997 329.723 56.275 329.756 56.231C329.789 56.187 329.872 56.11 330.004 56H330.134H330.173C330.266 56 330.312 56.033 330.312 56.099C330.312 56.121 330.256 56.198 330.144 56.33C330.031 56.462 329.895 56.6563 329.736 56.913C329.577 57.1697 329.415 57.485 329.25 57.859C329.084 58.233 328.945 58.739 328.833 59.377C328.72 60.015 328.664 60.7227 328.664 61.5C328.664 62.2773 328.72 62.9813 328.833 63.612C328.945 64.2427 329.081 64.7523 329.24 65.141C329.399 65.5297 329.561 65.845 329.726 66.087C329.892 66.329 330.031 66.5233 330.144 66.67C330.256 66.8167 330.312 66.8937 330.312 66.901C330.312 66.967 330.263 67 330.163 67H330.134H330.004L329.726 66.736C329.104 66.1127 328.65 65.3353 328.366 64.404C328.081 63.4727 327.939 62.5047 327.939 61.5Z" fill="black"/>
<path d="M332.984 57.892L332.855 57.947C332.762 57.9837 332.63 58.0203 332.458 58.057C332.285 58.0937 332.093 58.1193 331.882 58.134H331.693V57.628H331.882C332.193 57.6133 332.481 57.5583 332.746 57.463C333.01 57.3677 333.196 57.2797 333.302 57.199C333.408 57.1183 333.5 57.0377 333.58 56.957C333.593 56.935 333.633 56.924 333.699 56.924C333.759 56.924 333.815 56.946 333.868 56.99V60.279L333.878 63.579C333.924 63.6303 333.964 63.6633 333.997 63.678C334.03 63.6927 334.11 63.7073 334.235 63.722C334.361 63.7367 334.566 63.744 334.851 63.744H335.109V64.25H335C334.861 64.228 334.335 64.217 333.421 64.217C332.52 64.217 332.001 64.228 331.862 64.25H331.743V63.744H332.001C332.146 63.744 332.272 63.744 332.378 63.744C332.484 63.744 332.567 63.7403 332.626 63.733C332.686 63.7257 332.739 63.7147 332.785 63.7C332.832 63.6853 332.858 63.678 332.865 63.678C332.871 63.678 332.891 63.6597 332.924 63.623C332.957 63.5863 332.977 63.5717 332.984 63.579V57.892Z" fill="black"/>
<path d="M336.609 63.865C336.609 63.865 336.609 63.7733 336.609 63.59C336.609 63.4067 336.662 63.249 336.768 63.117C336.874 62.985 337.016 62.919 337.195 62.919C337.38 62.919 337.546 63.0107 337.691 63.194C337.837 63.3773 337.913 63.7 337.92 64.162C337.92 64.4187 337.89 64.668 337.83 64.91C337.771 65.152 337.701 65.361 337.622 65.537C337.542 65.713 337.456 65.8633 337.364 65.988C337.271 66.1127 337.192 66.2117 337.125 66.285C337.059 66.3583 337.016 66.3913 336.996 66.384C336.97 66.384 336.927 66.351 336.867 66.285C336.808 66.219 336.778 66.1713 336.778 66.142C336.778 66.1127 336.814 66.054 336.887 65.966C336.96 65.878 337.043 65.768 337.135 65.636C337.228 65.504 337.314 65.3207 337.393 65.086C337.473 64.8513 337.526 64.5837 337.552 64.283V64.151L337.542 64.162C337.529 64.1693 337.513 64.1767 337.493 64.184C337.473 64.1913 337.453 64.2023 337.433 64.217C337.413 64.2317 337.384 64.239 337.344 64.239C337.304 64.239 337.264 64.2427 337.225 64.25C337.046 64.25 336.9 64.1877 336.788 64.063L336.609 63.865Z" fill="black"/>
<path d="M340.509 60.015C340.463 59.9637 340.439 59.927 340.439 59.905C340.439 59.8757 340.449 59.817 340.469 59.729C340.489 59.641 340.506 59.5897 340.519 59.575C340.532 59.5383 340.562 59.52 340.608 59.52C340.655 59.52 340.823 59.5163 341.115 59.509H341.641L341.83 58.629C341.85 58.5483 341.873 58.442 341.899 58.31C341.926 58.178 341.949 58.0827 341.969 58.024C341.989 57.9653 342.009 57.892 342.028 57.804C342.048 57.716 342.075 57.6537 342.108 57.617C342.141 57.5803 342.174 57.5363 342.207 57.485C342.24 57.4337 342.287 57.4007 342.346 57.386C342.406 57.3713 342.465 57.364 342.525 57.364C342.644 57.3713 342.727 57.4117 342.773 57.485C342.82 57.5583 342.843 57.628 342.843 57.694C342.843 57.7453 342.813 57.9177 342.753 58.211C342.694 58.5043 342.628 58.794 342.555 59.08L342.456 59.487C342.456 59.5017 342.621 59.509 342.952 59.509H343.459C343.505 59.5603 343.528 59.6007 343.528 59.63C343.528 59.7913 343.485 59.9197 343.399 60.015H342.336L341.979 61.61C341.721 62.7833 341.592 63.414 341.592 63.502C341.592 63.81 341.681 63.964 341.86 63.964C342.091 63.964 342.317 63.8393 342.535 63.59C342.753 63.3407 342.929 63.0327 343.061 62.666C343.075 62.622 343.091 62.5963 343.111 62.589C343.131 62.5817 343.181 62.5743 343.26 62.567H343.3C343.399 62.567 343.449 62.5963 343.449 62.655C343.449 62.677 343.439 62.721 343.419 62.787C343.386 62.9043 343.326 63.0437 343.24 63.205C343.154 63.3663 343.041 63.5387 342.902 63.722C342.763 63.9053 342.595 64.0593 342.396 64.184C342.197 64.3087 341.995 64.371 341.79 64.371C341.592 64.371 341.403 64.316 341.224 64.206C341.045 64.096 340.916 63.9053 340.837 63.634C340.823 63.5753 340.817 63.4763 340.817 63.337V63.139L341.164 61.599C341.396 60.565 341.515 60.0443 341.522 60.037C341.522 60.0223 341.353 60.015 341.015 60.015H340.509Z" fill="black"/>
<path d="M344.164 62.523C344.164 61.7823 344.415 61.0783 344.919 60.411C345.422 59.7437 345.988 59.4063 346.617 59.399C346.955 59.399 347.253 59.5787 347.511 59.938C347.617 59.718 347.769 59.608 347.968 59.608C348.054 59.608 348.13 59.6373 348.196 59.696C348.262 59.7547 348.295 59.828 348.295 59.916C348.295 60.0113 348.173 60.598 347.928 61.676C347.683 62.754 347.557 63.3627 347.55 63.502C347.55 63.6853 347.574 63.8063 347.62 63.865C347.666 63.9237 347.736 63.9567 347.829 63.964C347.888 63.9567 347.954 63.9237 348.027 63.865C348.166 63.7183 348.302 63.3663 348.434 62.809C348.474 62.6623 348.507 62.5853 348.534 62.578C348.547 62.5707 348.58 62.567 348.633 62.567H348.673C348.799 62.567 348.861 62.6 348.861 62.666C348.861 62.71 348.845 62.809 348.812 62.963C348.779 63.117 348.712 63.315 348.613 63.557C348.514 63.799 348.408 63.9823 348.295 64.107C348.209 64.2023 348.103 64.2793 347.978 64.338C347.925 64.3527 347.845 64.36 347.739 64.36C347.514 64.36 347.325 64.305 347.173 64.195C347.021 64.085 346.921 63.9713 346.875 63.854L346.816 63.689C346.809 63.6817 346.796 63.6853 346.776 63.7C346.763 63.7147 346.749 63.7293 346.736 63.744C346.345 64.1547 345.948 64.36 345.544 64.36C345.18 64.36 344.859 64.2133 344.581 63.92C344.303 63.6267 344.164 63.161 344.164 62.523ZM347.322 60.642C347.322 60.598 347.305 60.5173 347.272 60.4C347.239 60.2827 347.163 60.1543 347.044 60.015C346.925 59.8757 346.772 59.8023 346.587 59.795C346.355 59.795 346.134 59.9087 345.922 60.136C345.71 60.3633 345.544 60.6603 345.425 61.027C345.233 61.6063 345.097 62.2077 345.018 62.831C345.018 62.853 345.018 62.8933 345.018 62.952C345.018 63.0107 345.015 63.0547 345.008 63.084C345.008 63.414 345.068 63.6413 345.187 63.766C345.306 63.8907 345.448 63.9567 345.614 63.964C345.865 63.964 346.114 63.843 346.359 63.601C346.604 63.359 346.749 63.172 346.796 63.04C346.809 63.0107 346.898 62.6183 347.064 61.863C347.229 61.1077 347.315 60.7007 347.322 60.642Z" fill="black"/>
<path d="M349.298 61.093C349.305 61.049 349.315 60.9903 349.328 60.917C349.341 60.8437 349.381 60.7043 349.447 60.499C349.514 60.2937 349.58 60.1213 349.646 59.982C349.712 59.8427 349.821 59.707 349.974 59.575C350.126 59.443 350.278 59.3807 350.431 59.388C350.669 59.388 350.868 59.454 351.026 59.586C351.185 59.718 351.285 59.8427 351.324 59.96C351.364 60.0773 351.384 60.1543 351.384 60.191C351.384 60.2057 351.387 60.213 351.394 60.213L351.503 60.092C351.907 59.6227 352.367 59.388 352.884 59.388C353.241 59.388 353.529 59.487 353.748 59.685C353.966 59.883 354.079 60.1727 354.085 60.554C354.092 60.9353 353.966 61.511 353.708 62.281C353.45 63.051 353.324 63.5167 353.331 63.678C353.331 63.8687 353.387 63.964 353.499 63.964C353.539 63.964 353.569 63.9603 353.589 63.953C353.781 63.9163 353.953 63.777 354.105 63.535C354.257 63.293 354.373 62.9997 354.453 62.655C354.466 62.5963 354.532 62.567 354.651 62.567C354.784 62.567 354.85 62.5963 354.85 62.655C354.85 62.6623 354.837 62.7173 354.81 62.82C354.757 63.0327 354.685 63.2417 354.592 63.447C354.499 63.6523 354.347 63.8577 354.135 64.063C353.923 64.2683 353.695 64.3673 353.45 64.36C353.139 64.36 352.913 64.261 352.774 64.063C352.635 63.865 352.566 63.6597 352.566 63.447C352.566 63.3077 352.685 62.8677 352.923 62.127C353.162 61.3863 353.284 60.829 353.291 60.455C353.291 60.0223 353.145 59.806 352.854 59.806H352.804C352.235 59.806 351.755 60.1763 351.364 60.917L351.295 61.049L350.967 62.523C350.748 63.4837 350.623 64.0007 350.589 64.074C350.503 64.272 350.361 64.371 350.162 64.371C350.076 64.371 350.007 64.349 349.954 64.305C349.901 64.261 349.864 64.217 349.845 64.173C349.825 64.129 349.818 64.0923 349.825 64.063C349.825 63.9677 349.951 63.37 350.202 62.27C350.454 61.17 350.586 60.5723 350.599 60.477C350.606 60.4403 350.609 60.356 350.609 60.224C350.609 59.938 350.53 59.795 350.371 59.795C350.119 59.795 349.911 60.1617 349.745 60.895C349.706 61.0417 349.686 61.1187 349.686 61.126C349.672 61.17 349.61 61.192 349.497 61.192H349.358C349.318 61.148 349.298 61.115 349.298 61.093Z" fill="black"/>
<path d="M355.982 61.5C355.982 60.994 356.015 60.5137 356.081 60.059C356.148 59.6043 356.224 59.212 356.31 58.882C356.396 58.552 356.518 58.2293 356.677 57.914C356.836 57.5987 356.962 57.353 357.055 57.177C357.147 57.001 357.287 56.8103 357.472 56.605C357.657 56.3997 357.767 56.275 357.8 56.231C357.833 56.187 357.916 56.11 358.048 56H358.177H358.217C358.309 56 358.356 56.033 358.356 56.099C358.356 56.121 358.3 56.198 358.187 56.33C358.074 56.462 357.939 56.6563 357.78 56.913C357.621 57.1697 357.459 57.485 357.293 57.859C357.128 58.233 356.989 58.739 356.876 59.377C356.763 60.015 356.707 60.7227 356.707 61.5C356.707 62.2773 356.763 62.9813 356.876 63.612C356.989 64.2427 357.124 64.7523 357.283 65.141C357.442 65.5297 357.604 65.845 357.77 66.087C357.935 66.329 358.074 66.5233 358.187 66.67C358.3 66.8167 358.356 66.8937 358.356 66.901C358.356 66.967 358.306 67 358.207 67H358.177H358.048L357.77 66.736C357.147 66.1127 356.694 65.3353 356.409 64.404C356.125 63.4727 355.982 62.5047 355.982 61.5Z" fill="black"/>
<path d="M359.25 62.534C359.25 61.698 359.534 60.9647 360.104 60.334C360.673 59.7033 361.299 59.388 361.981 59.388C362.444 59.388 362.815 59.5347 363.093 59.828C363.371 60.1213 363.56 60.4807 363.659 60.906C363.699 61.1187 363.722 61.3643 363.729 61.643V61.962C364.053 61.4193 364.302 60.8107 364.474 60.136C364.5 60.0333 364.52 59.9747 364.533 59.96C364.547 59.9453 364.6 59.9343 364.692 59.927C364.831 59.927 364.901 59.9563 364.901 60.015C364.901 60.081 364.871 60.224 364.811 60.444C364.752 60.664 364.633 60.9757 364.454 61.379C364.275 61.7823 364.073 62.149 363.848 62.479L363.739 62.633L363.749 62.897C363.762 63.3077 363.788 63.5863 363.828 63.733C363.868 63.8797 363.931 63.9567 364.017 63.964C364.11 63.9493 364.196 63.909 364.275 63.843C364.355 63.777 364.411 63.6927 364.444 63.59C364.457 63.5387 364.474 63.5093 364.494 63.502C364.513 63.4947 364.563 63.4873 364.643 63.48C364.775 63.48 364.841 63.5093 364.841 63.568C364.841 63.612 364.821 63.6817 364.782 63.777C364.702 63.953 364.586 64.0923 364.434 64.195C364.282 64.2977 364.136 64.3527 363.997 64.36H363.927C363.484 64.36 363.183 64.096 363.024 63.568L362.994 63.491L362.885 63.579C362.818 63.6377 362.719 63.711 362.587 63.799C362.454 63.887 362.305 63.9713 362.14 64.052C361.974 64.1327 361.782 64.206 361.564 64.272C361.345 64.338 361.133 64.371 360.928 64.371C360.405 64.371 359.995 64.1877 359.697 63.821C359.399 63.4543 359.25 63.0253 359.25 62.534ZM360.978 63.964C361.302 63.964 361.627 63.887 361.951 63.733C362.276 63.579 362.517 63.4213 362.676 63.26L362.914 63.018C362.901 61.9693 362.878 61.3167 362.845 61.06C362.752 60.2167 362.448 59.795 361.931 59.795C361.474 59.795 361.074 60.0627 360.73 60.598C360.551 60.8913 360.405 61.2873 360.293 61.786C360.18 62.2847 360.12 62.666 360.114 62.93C360.114 63.2893 360.197 63.5497 360.362 63.711C360.528 63.8723 360.733 63.9567 360.978 63.964Z" fill="black"/>
<path d="M365.864 56.011L365.904 56C365.937 56 365.97 56 366.003 56H366.122L366.4 56.264C367.023 56.8873 367.476 57.6647 367.761 58.596C368.046 59.5273 368.188 60.4953 368.188 61.5C368.188 61.9987 368.155 62.479 368.089 62.941C368.023 63.403 367.946 63.7953 367.86 64.118C367.774 64.4407 367.652 64.7633 367.493 65.086C367.334 65.4087 367.208 65.6543 367.115 65.823C367.023 65.9917 366.887 66.1787 366.708 66.384C366.53 66.5893 366.424 66.7103 366.39 66.747C366.357 66.7837 366.281 66.8533 366.162 66.956C366.142 66.978 366.129 66.9927 366.122 67H366.003C365.95 67 365.914 67 365.894 67C365.874 67 365.857 66.989 365.844 66.967C365.831 66.945 365.821 66.912 365.814 66.868C365.821 66.8607 365.857 66.813 365.924 66.725C366.95 65.5443 367.463 63.8027 367.463 61.5C367.463 59.1973 366.95 57.4557 365.924 56.275C365.857 56.187 365.821 56.1393 365.814 56.132C365.814 56.0733 365.831 56.033 365.864 56.011Z" fill="black"/>
<path d="M369.727 56.011L369.767 56C369.8 56 369.833 56 369.866 56H369.986L370.264 56.264C370.886 56.8873 371.34 57.6647 371.624 58.596C371.909 59.5273 372.051 60.4953 372.051 61.5C372.051 61.9987 372.018 62.479 371.952 62.941C371.886 63.403 371.81 63.7953 371.724 64.118C371.638 64.4407 371.515 64.7633 371.356 65.086C371.197 65.4087 371.071 65.6543 370.979 65.823C370.886 65.9917 370.75 66.1787 370.572 66.384C370.393 66.5893 370.287 66.7103 370.254 66.747C370.221 66.7837 370.145 66.8533 370.025 66.956C370.005 66.978 369.992 66.9927 369.986 67H369.866C369.813 67 369.777 67 369.757 67C369.737 67 369.721 66.989 369.708 66.967C369.694 66.945 369.684 66.912 369.678 66.868C369.684 66.8607 369.721 66.813 369.787 66.725C370.813 65.5443 371.326 63.8027 371.326 61.5C371.326 59.1973 370.813 57.4557 369.787 56.275C369.721 56.187 369.684 56.1393 369.678 56.132C369.678 56.0733 369.694 56.033 369.727 56.011Z" fill="black"/>
</g>
<path d="M247.5 137.5C256 139.833 269.6 148 256 162" stroke="black"/>
<g clip-path="url(#clip1_45_2)">
<path d="M264.615 147.177C264.615 145.801 265.134 144.595 266.172 143.557C267.21 142.519 268.35 142 269.593 142C270.438 142 271.113 142.242 271.62 142.724C272.127 143.207 272.471 143.798 272.652 144.498C272.724 144.848 272.767 145.252 272.779 145.711V146.236C273.37 145.343 273.822 144.341 274.136 143.231C274.184 143.062 274.221 142.966 274.245 142.942C274.269 142.917 274.365 142.899 274.534 142.887C274.788 142.887 274.914 142.936 274.914 143.032C274.914 143.141 274.86 143.376 274.751 143.738C274.643 144.1 274.426 144.613 274.1 145.276C273.774 145.94 273.406 146.543 272.996 147.086L272.797 147.34L272.815 147.774C272.839 148.45 272.887 148.909 272.96 149.15C273.032 149.391 273.147 149.518 273.303 149.53C273.472 149.506 273.629 149.439 273.774 149.331C273.919 149.222 274.021 149.083 274.082 148.915C274.106 148.83 274.136 148.782 274.172 148.77C274.208 148.758 274.299 148.746 274.444 148.734C274.685 148.734 274.806 148.782 274.806 148.878C274.806 148.951 274.77 149.065 274.697 149.222C274.552 149.512 274.341 149.741 274.064 149.91C273.786 150.079 273.521 150.169 273.267 150.182H273.141C272.332 150.182 271.783 149.747 271.493 148.878L271.439 148.752L271.24 148.896C271.119 148.993 270.938 149.114 270.697 149.258C270.456 149.403 270.184 149.542 269.883 149.675C269.581 149.807 269.231 149.928 268.833 150.037C268.435 150.145 268.048 150.2 267.674 150.2C266.721 150.2 265.973 149.898 265.43 149.295C264.887 148.691 264.615 147.985 264.615 147.177ZM267.765 149.53C268.356 149.53 268.947 149.403 269.539 149.15C270.13 148.896 270.57 148.637 270.86 148.372L271.294 147.973C271.27 146.248 271.228 145.174 271.168 144.752C270.999 143.364 270.444 142.67 269.502 142.67C268.67 142.67 267.94 143.11 267.312 143.991C266.987 144.474 266.721 145.126 266.516 145.946C266.311 146.767 266.202 147.394 266.19 147.829C266.19 148.42 266.341 148.848 266.643 149.114C266.944 149.379 267.318 149.518 267.765 149.53Z" fill="black"/>
</g>
<g clip-path="url(#clip2_45_2)">
<path d="M327.563 230.032C327.614 229.733 327.808 229.387 328.147 228.995C328.485 228.603 328.903 228.403 329.4 228.396C329.653 228.396 329.883 228.46 330.092 228.588C330.301 228.717 330.456 228.877 330.557 229.07C330.859 228.62 331.223 228.396 331.648 228.396C331.915 228.396 332.145 228.474 332.34 228.631C332.534 228.788 332.635 228.998 332.643 229.262C332.643 229.469 332.592 229.636 332.491 229.765C332.39 229.893 332.293 229.971 332.199 230C332.106 230.029 332.023 230.043 331.951 230.043C331.814 230.043 331.702 230.004 331.616 229.925C331.529 229.847 331.486 229.743 331.486 229.615C331.486 229.287 331.666 229.062 332.026 228.941C331.947 228.848 331.803 228.802 331.594 228.802C331.501 228.802 331.432 228.809 331.389 228.824C331.115 228.938 330.913 229.173 330.784 229.529C330.351 231.105 330.135 232.025 330.135 232.289C330.135 232.488 330.193 232.631 330.308 232.717C330.423 232.802 330.55 232.845 330.686 232.845C330.953 232.845 331.216 232.727 331.475 232.492C331.735 232.257 331.911 231.968 332.005 231.626C332.026 231.554 332.048 231.515 332.07 231.508C332.091 231.501 332.149 231.494 332.243 231.487H332.286C332.394 231.487 332.448 231.515 332.448 231.572C332.448 231.579 332.441 231.619 332.426 231.69C332.311 232.096 332.088 232.456 331.756 232.77C331.425 233.084 331.039 233.241 330.6 233.241C330.096 233.241 329.714 233.016 329.454 232.567C329.159 233.009 328.82 233.23 328.439 233.23H328.374C328.021 233.23 327.768 233.137 327.617 232.952C327.466 232.766 327.387 232.57 327.379 232.364C327.379 232.135 327.448 231.95 327.585 231.807C327.722 231.665 327.884 231.594 328.071 231.594C328.381 231.594 328.536 231.743 328.536 232.043C328.536 232.185 328.493 232.31 328.406 232.417C328.32 232.524 328.237 232.595 328.158 232.631C328.078 232.667 328.031 232.684 328.017 232.684L327.985 232.695C327.985 232.702 328.006 232.717 328.049 232.738C328.093 232.759 328.15 232.784 328.222 232.813C328.294 232.841 328.363 232.852 328.428 232.845C328.687 232.845 328.91 232.684 329.098 232.364C329.163 232.25 329.245 232.007 329.346 231.636C329.447 231.266 329.548 230.881 329.649 230.481C329.75 230.082 329.807 229.847 329.822 229.775C329.858 229.583 329.876 229.444 329.876 229.358C329.876 229.159 329.822 229.016 329.714 228.93C329.606 228.845 329.483 228.802 329.346 228.802C329.058 228.802 328.788 228.916 328.536 229.144C328.284 229.373 328.107 229.665 328.006 230.021C327.992 230.086 327.974 230.121 327.952 230.128C327.931 230.135 327.873 230.143 327.779 230.15H327.628C327.585 230.107 327.563 230.068 327.563 230.032Z" fill="black"/>
<path d="M336.79 229.412C336.79 229.319 336.841 229.248 336.942 229.198H343.826C343.934 229.255 343.988 229.326 343.988 229.412C343.988 229.49 343.937 229.558 343.837 229.615L340.4 229.626H336.963C336.848 229.59 336.79 229.519 336.79 229.412ZM336.79 231.487C336.79 231.38 336.848 231.308 336.963 231.273H343.837C343.937 231.344 343.988 231.415 343.988 231.487C343.988 231.579 343.934 231.651 343.826 231.701H336.942C336.841 231.651 336.79 231.579 336.79 231.487Z" fill="black"/>
<path d="M349.897 226.941L349.757 226.995C349.656 227.03 349.512 227.066 349.325 227.102C349.137 227.137 348.928 227.162 348.698 227.176H348.492V226.684H348.698C349.036 226.67 349.35 226.617 349.638 226.524C349.926 226.431 350.128 226.346 350.243 226.267C350.358 226.189 350.459 226.111 350.546 226.032C350.56 226.011 350.603 226 350.675 226C350.74 226 350.802 226.021 350.859 226.064V229.262L350.87 232.471C350.92 232.521 350.964 232.553 351 232.567C351.036 232.581 351.122 232.595 351.259 232.61C351.396 232.624 351.619 232.631 351.929 232.631H352.21V233.123H352.091C351.94 233.102 351.367 233.091 350.373 233.091C349.393 233.091 348.827 233.102 348.676 233.123H348.546V232.631H348.827C348.986 232.631 349.123 232.631 349.238 232.631C349.353 232.631 349.443 232.627 349.508 232.62C349.573 232.613 349.631 232.603 349.681 232.588C349.732 232.574 349.76 232.567 349.768 232.567C349.775 232.567 349.797 232.549 349.833 232.513C349.869 232.478 349.89 232.463 349.897 232.471V226.941Z" fill="black"/>
</g>
<g clip-path="url(#clip3_45_2)">
<path d="M123.244 53.3514C123.244 53.2443 123.302 53.0607 123.418 52.8005C123.535 52.5403 123.721 52.2686 123.976 51.9855C124.232 51.7024 124.518 51.5646 124.836 51.5723C125.154 51.5723 125.409 51.6603 125.603 51.8363C125.797 52.0123 125.897 52.2572 125.905 52.5709C125.89 52.7163 125.878 52.7966 125.87 52.812C125.87 52.8349 125.808 53.0109 125.684 53.34C125.56 53.669 125.433 54.0402 125.301 54.4534C125.169 54.8666 125.107 55.1957 125.115 55.4406C125.115 55.7696 125.169 55.9992 125.278 56.1293C125.386 56.2594 125.549 56.3282 125.766 56.3359C125.944 56.3359 126.11 56.2938 126.265 56.2096C126.42 56.1254 126.54 56.0374 126.626 55.9456C126.711 55.8538 126.815 55.7275 126.939 55.5668C126.939 55.5592 126.959 55.4826 126.997 55.3372C127.036 55.1919 127.09 54.9661 127.16 54.66C127.23 54.3539 127.303 54.0708 127.381 53.8106C127.675 52.6627 127.838 52.062 127.869 52.0084C127.97 51.8018 128.136 51.6985 128.369 51.6985C128.469 51.6985 128.551 51.7253 128.613 51.7789C128.675 51.8324 128.717 51.8784 128.74 51.9166C128.764 51.9549 128.771 51.9893 128.764 52.0199C128.764 52.1194 128.574 52.9229 128.194 54.4304C127.815 55.938 127.598 56.7644 127.544 56.9098C127.327 57.545 126.951 58.05 126.416 58.425C125.882 58.8 125.347 58.9913 124.813 58.9989C124.464 58.9989 124.158 58.9148 123.895 58.7464C123.631 58.578 123.5 58.3255 123.5 57.9888C123.5 57.8205 123.527 57.6789 123.581 57.5641C123.635 57.4493 123.709 57.3651 123.802 57.3116C123.895 57.258 123.972 57.2197 124.034 57.1968C124.096 57.1738 124.162 57.1624 124.232 57.1624C124.573 57.1624 124.743 57.3231 124.743 57.6445C124.743 57.7975 124.697 57.9314 124.604 58.0462C124.511 58.161 124.422 58.2375 124.336 58.2758C124.251 58.314 124.201 58.3332 124.185 58.3332L124.15 58.3447C124.166 58.3829 124.24 58.4288 124.371 58.4824C124.503 58.536 124.635 58.5627 124.766 58.5627H124.859C124.991 58.5627 125.092 58.5551 125.161 58.5398C125.417 58.4709 125.653 58.3255 125.87 58.1036C126.087 57.8817 126.254 57.6445 126.37 57.3919C126.486 57.1394 126.575 56.9251 126.637 56.7491C126.699 56.5731 126.73 56.4583 126.73 56.4048L126.66 56.4507C126.614 56.4813 126.54 56.5234 126.44 56.5769C126.339 56.6305 126.238 56.6764 126.137 56.7147C125.983 56.7529 125.832 56.7721 125.684 56.7721C125.328 56.7721 125.014 56.6879 124.743 56.5195C124.472 56.3512 124.294 56.0795 124.209 55.7046C124.201 55.651 124.197 55.5324 124.197 55.3487C124.197 54.9125 124.333 54.3424 124.604 53.6384C124.875 52.9344 125.01 52.4867 125.01 52.2954C125.01 52.2878 125.01 52.2801 125.01 52.2725C125.01 52.2036 125.01 52.1577 125.01 52.1347C125.01 52.1118 124.995 52.085 124.964 52.0544C124.933 52.0238 124.89 52.0084 124.836 52.0084H124.79C124.611 52.0084 124.449 52.0811 124.302 52.2265C124.154 52.3719 124.038 52.5288 123.953 52.6972C123.868 52.8655 123.802 53.0262 123.755 53.1793C123.709 53.3323 123.678 53.4165 123.662 53.4318C123.647 53.4471 123.585 53.4548 123.477 53.4548H123.314C123.267 53.4088 123.244 53.3744 123.244 53.3514Z" fill="black"/>
<path d="M132.573 52.6627C132.573 52.5633 132.627 52.4867 132.735 52.4332H140.137C140.253 52.4944 140.311 52.5709 140.311 52.6627C140.311 52.7469 140.257 52.8196 140.149 52.8808L136.454 52.8923H132.758C132.634 52.8541 132.573 52.7775 132.573 52.6627ZM132.573 54.8896C132.573 54.7748 132.634 54.6983 132.758 54.66H140.149C140.257 54.7366 140.311 54.8131 140.311 54.8896C140.311 54.9891 140.253 55.0656 140.137 55.1192H132.735C132.627 55.0656 132.573 54.9891 132.573 54.8896Z" fill="black"/>
<path d="M146.665 50.0112L146.514 50.0686C146.406 50.1068 146.251 50.1451 146.049 50.1833C145.848 50.2216 145.623 50.2484 145.375 50.2637H145.155V49.7357H145.375C145.739 49.7204 146.076 49.663 146.386 49.5635C146.696 49.464 146.913 49.3722 147.037 49.288C147.161 49.2038 147.269 49.1197 147.362 49.0355C147.378 49.0125 147.424 49.001 147.502 49.001C147.571 49.001 147.637 49.024 147.699 49.0699V52.502L147.711 55.9456C147.765 55.9992 147.812 56.0336 147.85 56.0489C147.889 56.0642 147.982 56.0795 148.129 56.0948C148.276 56.1101 148.517 56.1178 148.85 56.1178H149.152V56.6458H149.024C148.861 56.6229 148.245 56.6114 147.176 56.6114C146.123 56.6114 145.515 56.6229 145.352 56.6458H145.213V56.1178H145.515C145.685 56.1178 145.832 56.1178 145.956 56.1178C146.08 56.1178 146.177 56.114 146.247 56.1063C146.317 56.0987 146.379 56.0872 146.433 56.0719C146.487 56.0566 146.518 56.0489 146.526 56.0489C146.533 56.0489 146.557 56.0298 146.595 55.9915C146.634 55.9533 146.657 55.938 146.665 55.9456V50.0112Z" fill="black"/>
</g>
<path d="M261.989 53C261.989 52.448 262.024 51.924 262.094 51.428C262.163 50.932 262.243 50.504 262.334 50.144C262.424 49.784 262.553 49.432 262.721 49.088C262.888 48.744 263.02 48.476 263.118 48.284C263.215 48.092 263.362 47.884 263.557 47.66C263.752 47.436 263.867 47.3 263.901 47.252C263.936 47.204 264.023 47.12 264.163 47H264.299H264.34C264.438 47 264.487 47.036 264.487 47.108C264.487 47.132 264.427 47.216 264.309 47.36C264.191 47.504 264.048 47.716 263.881 47.996C263.713 48.276 263.543 48.62 263.368 49.028C263.194 49.436 263.048 49.988 262.93 50.684C262.811 51.38 262.752 52.152 262.752 53C262.752 53.848 262.811 54.616 262.93 55.304C263.048 55.992 263.191 56.548 263.358 56.972C263.525 57.396 263.696 57.74 263.87 58.004C264.044 58.268 264.191 58.48 264.309 58.64C264.427 58.8 264.487 58.884 264.487 58.892C264.487 58.964 264.434 59 264.33 59H264.299H264.163L263.87 58.712C263.215 58.032 262.738 57.184 262.438 56.168C262.139 55.152 261.989 54.096 261.989 53Z" fill="black"/>
<path d="M265.427 54.092C265.427 53.22 265.727 52.436 266.326 51.74C266.925 51.044 267.573 50.696 268.27 50.696C268.66 50.696 268.966 50.792 269.189 50.984C269.412 51.176 269.527 51.428 269.534 51.74C269.534 51.972 269.468 52.168 269.336 52.328C269.203 52.488 269.036 52.572 268.834 52.58C268.702 52.58 268.597 52.54 268.521 52.46C268.444 52.38 268.406 52.26 268.406 52.1C268.406 51.94 268.444 51.804 268.521 51.692C268.597 51.58 268.674 51.496 268.751 51.44C268.827 51.384 268.876 51.36 268.897 51.368H268.907C268.907 51.352 268.886 51.328 268.845 51.296C268.803 51.264 268.73 51.232 268.625 51.2C268.521 51.168 268.402 51.152 268.27 51.152C268.061 51.152 267.862 51.208 267.674 51.32C267.528 51.392 267.378 51.516 267.225 51.692C266.918 52.044 266.695 52.54 266.556 53.18C266.417 53.82 266.343 54.284 266.336 54.572C266.336 54.94 266.427 55.216 266.608 55.4C266.761 55.592 266.963 55.688 267.214 55.688H267.256C268.036 55.688 268.681 55.348 269.189 54.668C269.252 54.588 269.294 54.548 269.315 54.548C269.343 54.548 269.388 54.584 269.451 54.656C269.513 54.728 269.548 54.784 269.555 54.824C269.562 54.864 269.531 54.924 269.461 55.004C269.391 55.084 269.29 55.196 269.158 55.34C269.026 55.484 268.869 55.604 268.688 55.7C268.507 55.796 268.284 55.896 268.019 56C267.754 56.104 267.476 56.148 267.183 56.132C266.66 56.132 266.239 55.94 265.918 55.556C265.598 55.172 265.434 54.684 265.427 54.092Z" fill="black"/>
<path d="M271.698 56.132C271.175 56.132 270.754 55.936 270.433 55.544C270.113 55.152 269.952 54.68 269.952 54.128C269.952 53.608 270.057 53.116 270.266 52.652C270.475 52.188 270.761 51.784 271.123 51.44C271.652 50.952 272.192 50.708 272.743 50.708C272.966 50.708 273.105 50.712 273.161 50.72C273.251 50.744 273.342 50.772 273.432 50.804C273.523 50.836 273.645 50.9 273.798 50.996C273.951 51.092 274.077 51.212 274.174 51.356C274.272 51.5 274.363 51.696 274.446 51.944C274.53 52.192 274.572 52.472 274.572 52.784C274.572 53.64 274.272 54.412 273.673 55.1C273.074 55.788 272.415 56.132 271.698 56.132ZM270.862 54.56C270.862 54.96 270.952 55.248 271.133 55.424C271.314 55.6 271.52 55.688 271.75 55.688C272.056 55.688 272.346 55.56 272.617 55.304C272.889 55.048 273.105 54.712 273.265 54.296C273.328 54.128 273.408 53.832 273.506 53.408C273.603 52.984 273.652 52.616 273.652 52.304C273.652 51.952 273.589 51.684 273.464 51.5C273.297 51.26 273.074 51.14 272.795 51.14C272.356 51.14 271.969 51.372 271.635 51.836C271.377 52.188 271.186 52.656 271.06 53.24C270.935 53.824 270.869 54.264 270.862 54.56Z" fill="black"/>
<path d="M274.937 51.38C274.888 51.324 274.864 51.284 274.864 51.26C274.864 51.228 274.874 51.164 274.895 51.068C274.916 50.972 274.934 50.916 274.948 50.9C274.962 50.86 274.993 50.84 275.042 50.84C275.09 50.84 275.268 50.836 275.575 50.828H276.129L276.327 49.868C276.348 49.78 276.372 49.664 276.4 49.52C276.428 49.376 276.452 49.272 276.473 49.208C276.494 49.144 276.515 49.064 276.536 48.968C276.557 48.872 276.585 48.804 276.62 48.764C276.655 48.724 276.689 48.676 276.724 48.62C276.759 48.564 276.808 48.528 276.871 48.512C276.933 48.496 276.996 48.488 277.059 48.488C277.184 48.496 277.271 48.54 277.32 48.62C277.369 48.7 277.393 48.776 277.393 48.848C277.393 48.904 277.362 49.092 277.299 49.412C277.236 49.732 277.167 50.048 277.09 50.36L276.985 50.804C276.985 50.82 277.16 50.828 277.508 50.828H278.041C278.09 50.884 278.114 50.928 278.114 50.96C278.114 51.136 278.069 51.276 277.978 51.38H276.86L276.484 53.12C276.212 54.4 276.076 55.088 276.076 55.184C276.076 55.52 276.17 55.688 276.358 55.688C276.602 55.688 276.839 55.552 277.069 55.28C277.299 55.008 277.484 54.672 277.623 54.272C277.637 54.224 277.654 54.196 277.675 54.188C277.696 54.18 277.748 54.172 277.832 54.164H277.874C277.978 54.164 278.031 54.196 278.031 54.26C278.031 54.284 278.02 54.332 277.999 54.404C277.964 54.532 277.902 54.684 277.811 54.86C277.72 55.036 277.602 55.224 277.456 55.424C277.309 55.624 277.132 55.792 276.923 55.928C276.714 56.064 276.501 56.132 276.285 56.132C276.076 56.132 275.878 56.072 275.69 55.952C275.501 55.832 275.366 55.624 275.282 55.328C275.268 55.264 275.261 55.156 275.261 55.004V54.788L275.627 53.108C275.871 51.98 275.996 51.412 276.003 51.404C276.003 51.388 275.825 51.38 275.47 51.38H274.937Z" fill="black"/>
<path d="M278.783 54.116C278.783 53.308 279.048 52.54 279.577 51.812C280.107 51.084 280.702 50.716 281.364 50.708C281.72 50.708 282.033 50.904 282.305 51.296C282.416 51.056 282.577 50.936 282.786 50.936C282.876 50.936 282.956 50.968 283.026 51.032C283.096 51.096 283.13 51.176 283.13 51.272C283.13 51.376 283.001 52.016 282.744 53.192C282.486 54.368 282.354 55.032 282.347 55.184C282.347 55.384 282.371 55.516 282.42 55.58C282.469 55.644 282.542 55.68 282.639 55.688C282.702 55.68 282.772 55.644 282.848 55.58C282.995 55.42 283.137 55.036 283.277 54.428C283.318 54.268 283.353 54.184 283.381 54.176C283.395 54.168 283.43 54.164 283.486 54.164H283.528C283.66 54.164 283.726 54.2 283.726 54.272C283.726 54.32 283.709 54.428 283.674 54.596C283.639 54.764 283.569 54.98 283.465 55.244C283.36 55.508 283.249 55.708 283.13 55.844C283.04 55.948 282.928 56.032 282.796 56.096C282.74 56.112 282.657 56.12 282.545 56.12C282.308 56.12 282.11 56.06 281.949 55.94C281.789 55.82 281.685 55.696 281.636 55.568L281.573 55.388C281.566 55.38 281.552 55.384 281.531 55.4C281.518 55.416 281.504 55.432 281.49 55.448C281.079 55.896 280.661 56.12 280.236 56.12C279.852 56.12 279.514 55.96 279.222 55.64C278.929 55.32 278.783 54.812 278.783 54.116ZM282.106 52.064C282.106 52.016 282.089 51.928 282.054 51.8C282.019 51.672 281.939 51.532 281.814 51.38C281.688 51.228 281.528 51.148 281.333 51.14C281.089 51.14 280.856 51.264 280.633 51.512C280.41 51.76 280.236 52.084 280.11 52.484C279.908 53.116 279.765 53.772 279.682 54.452C279.682 54.476 279.682 54.52 279.682 54.584C279.682 54.648 279.678 54.696 279.671 54.728C279.671 55.088 279.734 55.336 279.859 55.472C279.985 55.608 280.135 55.68 280.309 55.688C280.573 55.688 280.835 55.556 281.093 55.292C281.35 55.028 281.504 54.824 281.552 54.68C281.566 54.648 281.66 54.22 281.835 53.396C282.009 52.572 282.099 52.128 282.106 52.064Z" fill="black"/>
<path d="M284.186 52.556C284.193 52.508 284.203 52.444 284.217 52.364C284.231 52.284 284.273 52.132 284.343 51.908C284.412 51.684 284.482 51.496 284.552 51.344C284.621 51.192 284.736 51.044 284.897 50.9C285.057 50.756 285.217 50.688 285.377 50.696C285.628 50.696 285.837 50.768 286.004 50.912C286.172 51.056 286.276 51.192 286.318 51.32C286.36 51.448 286.381 51.532 286.381 51.572C286.381 51.588 286.384 51.596 286.391 51.596L286.506 51.464C286.931 50.952 287.415 50.696 287.959 50.696C288.335 50.696 288.638 50.804 288.868 51.02C289.098 51.236 289.216 51.552 289.223 51.968C289.23 52.384 289.098 53.012 288.826 53.852C288.554 54.692 288.422 55.2 288.429 55.376C288.429 55.584 288.488 55.688 288.607 55.688C288.648 55.688 288.68 55.684 288.701 55.676C288.903 55.636 289.084 55.484 289.244 55.22C289.404 54.956 289.526 54.636 289.61 54.26C289.624 54.196 289.693 54.164 289.819 54.164C289.958 54.164 290.028 54.196 290.028 54.26C290.028 54.268 290.014 54.328 289.986 54.44C289.93 54.672 289.854 54.9 289.756 55.124C289.659 55.348 289.498 55.572 289.275 55.796C289.052 56.02 288.812 56.128 288.554 56.12C288.227 56.12 287.99 56.012 287.844 55.796C287.697 55.58 287.624 55.356 287.624 55.124C287.624 54.972 287.75 54.492 288 53.684C288.251 52.876 288.38 52.268 288.387 51.86C288.387 51.388 288.234 51.152 287.927 51.152H287.875C287.276 51.152 286.771 51.556 286.36 52.364L286.287 52.508L285.942 54.116C285.712 55.164 285.579 55.728 285.545 55.808C285.454 56.024 285.304 56.132 285.095 56.132C285.005 56.132 284.932 56.108 284.876 56.06C284.82 56.012 284.782 55.964 284.761 55.916C284.74 55.868 284.733 55.828 284.74 55.796C284.74 55.692 284.872 55.04 285.137 53.84C285.402 52.64 285.541 51.988 285.555 51.884C285.562 51.844 285.566 51.752 285.566 51.608C285.566 51.296 285.482 51.14 285.315 51.14C285.05 51.14 284.83 51.54 284.656 52.34C284.615 52.5 284.594 52.584 284.594 52.592C284.58 52.64 284.513 52.664 284.395 52.664H284.249C284.207 52.616 284.186 52.58 284.186 52.556Z" fill="black"/>
<path d="M291.219 53C291.219 52.448 291.254 51.924 291.324 51.428C291.393 50.932 291.474 50.504 291.564 50.144C291.655 49.784 291.784 49.432 291.951 49.088C292.118 48.744 292.25 48.476 292.348 48.284C292.445 48.092 292.592 47.884 292.787 47.66C292.982 47.436 293.097 47.3 293.132 47.252C293.167 47.204 293.254 47.12 293.393 47H293.529H293.571C293.668 47 293.717 47.036 293.717 47.108C293.717 47.132 293.658 47.216 293.539 47.36C293.421 47.504 293.278 47.716 293.111 47.996C292.944 48.276 292.773 48.62 292.599 49.028C292.425 49.436 292.278 49.988 292.16 50.684C292.041 51.38 291.982 52.152 291.982 53C291.982 53.848 292.041 54.616 292.16 55.304C292.278 55.992 292.421 56.548 292.588 56.972C292.755 57.396 292.926 57.74 293.1 58.004C293.275 58.268 293.421 58.48 293.539 58.64C293.658 58.8 293.717 58.884 293.717 58.892C293.717 58.964 293.665 59 293.56 59H293.529H293.393L293.1 58.712C292.445 58.032 291.968 57.184 291.669 56.168C291.369 55.152 291.219 54.096 291.219 53Z" fill="black"/>
<path d="M294.657 54.128C294.657 53.216 294.957 52.416 295.556 51.728C296.155 51.04 296.814 50.696 297.531 50.696C298.019 50.696 298.409 50.856 298.702 51.176C298.994 51.496 299.193 51.888 299.298 52.352C299.339 52.584 299.364 52.852 299.371 53.156V53.504C299.712 52.912 299.973 52.248 300.154 51.512C300.182 51.4 300.203 51.336 300.217 51.32C300.231 51.304 300.287 51.292 300.384 51.284C300.531 51.284 300.604 51.316 300.604 51.38C300.604 51.452 300.572 51.608 300.51 51.848C300.447 52.088 300.322 52.428 300.134 52.868C299.945 53.308 299.733 53.708 299.496 54.068L299.381 54.236L299.392 54.524C299.405 54.972 299.433 55.276 299.475 55.436C299.517 55.596 299.583 55.68 299.674 55.688C299.771 55.672 299.862 55.628 299.945 55.556C300.029 55.484 300.088 55.392 300.123 55.28C300.137 55.224 300.154 55.192 300.175 55.184C300.196 55.176 300.249 55.168 300.332 55.16C300.471 55.16 300.541 55.192 300.541 55.256C300.541 55.304 300.52 55.38 300.478 55.484C300.395 55.676 300.273 55.828 300.113 55.94C299.952 56.052 299.799 56.112 299.653 56.12H299.58C299.113 56.12 298.796 55.832 298.629 55.256L298.597 55.172L298.482 55.268C298.413 55.332 298.308 55.412 298.169 55.508C298.03 55.604 297.873 55.696 297.699 55.784C297.524 55.872 297.322 55.952 297.092 56.024C296.863 56.096 296.64 56.132 296.424 56.132C295.873 56.132 295.441 55.932 295.128 55.532C294.814 55.132 294.657 54.664 294.657 54.128ZM296.476 55.688C296.817 55.688 297.159 55.604 297.5 55.436C297.841 55.268 298.096 55.096 298.263 54.92L298.514 54.656C298.5 53.512 298.475 52.8 298.441 52.52C298.343 51.6 298.023 51.14 297.479 51.14C296.998 51.14 296.577 51.432 296.215 52.016C296.026 52.336 295.873 52.768 295.755 53.312C295.636 53.856 295.574 54.272 295.567 54.56C295.567 54.952 295.654 55.236 295.828 55.412C296.002 55.588 296.218 55.68 296.476 55.688Z" fill="black"/>
<path d="M301.617 47.012L301.659 47C301.694 47 301.729 47 301.764 47H301.889L302.182 47.288C302.837 47.968 303.314 48.816 303.613 49.832C303.913 50.848 304.063 51.904 304.063 53C304.063 53.544 304.028 54.068 303.958 54.572C303.889 55.076 303.809 55.504 303.718 55.856C303.627 56.208 303.499 56.56 303.331 56.912C303.164 57.264 303.032 57.532 302.934 57.716C302.837 57.9 302.694 58.104 302.506 58.328C302.318 58.552 302.206 58.684 302.171 58.724C302.136 58.764 302.056 58.84 301.931 58.952C301.91 58.976 301.896 58.992 301.889 59H301.764C301.708 59 301.67 59 301.649 59C301.628 59 301.61 58.988 301.597 58.964C301.583 58.94 301.572 58.904 301.565 58.856C301.572 58.848 301.61 58.796 301.68 58.7C302.76 57.412 303.3 55.512 303.3 53C303.3 50.488 302.76 48.588 301.68 47.3C301.61 47.204 301.572 47.152 301.565 47.144C301.565 47.08 301.583 47.036 301.617 47.012Z" fill="black"/>
<path d="M305.871 55.58C305.871 55.58 305.871 55.48 305.871 55.28C305.871 55.08 305.927 54.908 306.038 54.764C306.15 54.62 306.299 54.548 306.487 54.548C306.683 54.548 306.857 54.648 307.01 54.848C307.163 55.048 307.243 55.4 307.25 55.904C307.25 56.184 307.219 56.456 307.156 56.72C307.094 56.984 307.02 57.212 306.937 57.404C306.853 57.596 306.763 57.76 306.665 57.896C306.568 58.032 306.484 58.14 306.414 58.22C306.345 58.3 306.299 58.336 306.278 58.328C306.251 58.328 306.205 58.292 306.143 58.22C306.08 58.148 306.049 58.096 306.049 58.064C306.049 58.032 306.087 57.968 306.163 57.872C306.24 57.776 306.327 57.656 306.425 57.512C306.522 57.368 306.613 57.168 306.696 56.912C306.78 56.656 306.836 56.364 306.864 56.036V55.892L306.853 55.904C306.839 55.912 306.822 55.92 306.801 55.928C306.78 55.936 306.759 55.948 306.738 55.964C306.717 55.98 306.686 55.988 306.644 55.988C306.602 55.988 306.561 55.992 306.519 56C306.331 56 306.177 55.932 306.059 55.796L305.871 55.58Z" fill="black"/>
<path d="M311.929 49.064L311.793 49.124C311.695 49.164 311.556 49.204 311.375 49.244C311.194 49.284 310.992 49.312 310.769 49.328H310.57V48.776H310.769C311.096 48.76 311.399 48.7 311.678 48.596C311.957 48.492 312.152 48.396 312.263 48.308C312.375 48.22 312.472 48.132 312.556 48.044C312.57 48.02 312.612 48.008 312.681 48.008C312.744 48.008 312.803 48.032 312.859 48.08V51.668L312.869 55.268C312.918 55.324 312.96 55.36 312.995 55.376C313.03 55.392 313.113 55.408 313.246 55.424C313.378 55.44 313.594 55.448 313.894 55.448H314.165V56H314.05C313.904 55.976 313.35 55.964 312.389 55.964C311.441 55.964 310.894 55.976 310.748 56H310.623V55.448H310.894C311.048 55.448 311.18 55.448 311.291 55.448C311.403 55.448 311.49 55.444 311.553 55.436C311.615 55.428 311.671 55.416 311.72 55.4C311.769 55.384 311.797 55.376 311.803 55.376C311.81 55.376 311.831 55.356 311.866 55.316C311.901 55.276 311.922 55.26 311.929 55.268V49.064Z" fill="black"/>
<path d="M315.555 47.012L315.597 47C315.632 47 315.667 47 315.702 47H315.827L316.12 47.288C316.775 47.968 317.252 48.816 317.551 49.832C317.851 50.848 318.001 51.904 318.001 53C318.001 53.544 317.966 54.068 317.896 54.572C317.827 55.076 317.747 55.504 317.656 55.856C317.565 56.208 317.437 56.56 317.269 56.912C317.102 57.264 316.97 57.532 316.872 57.716C316.775 57.9 316.632 58.104 316.444 58.328C316.256 58.552 316.144 58.684 316.109 58.724C316.074 58.764 315.994 58.84 315.869 58.952C315.848 58.976 315.834 58.992 315.827 59H315.702C315.646 59 315.608 59 315.587 59C315.566 59 315.548 58.988 315.535 58.964C315.521 58.94 315.51 58.904 315.503 58.856C315.51 58.848 315.548 58.796 315.618 58.7C316.698 57.412 317.238 55.512 317.238 53C317.238 50.488 316.698 48.588 315.618 47.3C315.548 47.204 315.51 47.152 315.503 47.144C315.503 47.08 315.521 47.036 315.555 47.012Z" fill="black"/>
<defs>
<clipPath id="clip0_45_2">
<rect width="46" height="11" fill="white" transform="translate(327 56)"/>
</clipPath>
<clipPath id="clip1_45_2">
<rect width="11.584" height="8.2" fill="white" transform="translate(264 142)"/>
</clipPath>
<clipPath id="clip2_45_2">
<rect width="26" height="8" fill="white" transform="translate(327 226)"/>
</clipPath>
<clipPath id="clip3_45_2">
<rect width="27" height="10" fill="white" transform="translate(123 49)"/>
</clipPath>
</defs>
</svg>
