<svg width="608" height="325" viewBox="0 0 608 325" fill="none" xmlns="http://www.w3.org/2000/svg">
<circle cx="177" cy="163" r="49" stroke="black" stroke-width="2"/>
<circle cx="430" cy="163" r="49" stroke="black" stroke-width="2"/>
<path d="M156.972 144.091V155H155.693L149.749 146.435H149.642V155H148.321V144.091H149.599L155.565 152.678H155.672V144.091H156.972ZM165.581 146.818C165.517 146.278 165.258 145.859 164.803 145.561C164.349 145.263 163.791 145.114 163.131 145.114C162.648 145.114 162.225 145.192 161.863 145.348C161.504 145.504 161.224 145.719 161.021 145.993C160.822 146.266 160.723 146.577 160.723 146.925C160.723 147.216 160.792 147.466 160.931 147.676C161.073 147.882 161.254 148.054 161.474 148.192C161.694 148.327 161.925 148.439 162.166 148.528C162.408 148.613 162.63 148.683 162.832 148.736L163.94 149.034C164.224 149.109 164.54 149.212 164.888 149.343C165.24 149.474 165.576 149.654 165.895 149.881C166.218 150.105 166.485 150.392 166.694 150.744C166.904 151.096 167.008 151.527 167.008 152.038C167.008 152.628 166.854 153.161 166.545 153.636C166.24 154.112 165.792 154.49 165.203 154.771C164.617 155.051 163.905 155.192 163.067 155.192C162.285 155.192 161.609 155.066 161.037 154.814C160.469 154.561 160.022 154.21 159.695 153.759C159.372 153.308 159.189 152.784 159.146 152.188H160.51C160.545 152.599 160.684 152.94 160.925 153.21C161.17 153.477 161.479 153.675 161.852 153.807C162.229 153.935 162.633 153.999 163.067 153.999C163.571 153.999 164.024 153.917 164.425 153.754C164.826 153.587 165.144 153.356 165.378 153.061C165.613 152.763 165.73 152.415 165.73 152.017C165.73 151.655 165.629 151.36 165.426 151.133C165.224 150.906 164.958 150.721 164.627 150.579C164.297 150.437 163.94 150.312 163.557 150.206L162.214 149.822C161.362 149.577 160.687 149.228 160.19 148.773C159.693 148.319 159.445 147.724 159.445 146.989C159.445 146.378 159.61 145.845 159.94 145.391C160.274 144.933 160.721 144.577 161.282 144.325C161.847 144.07 162.477 143.942 163.173 143.942C163.876 143.942 164.501 144.068 165.048 144.32C165.595 144.569 166.028 144.909 166.348 145.343C166.671 145.776 166.842 146.268 166.859 146.818H165.581ZM170.267 144.091V155H169.01V144.091H170.267ZM172.57 155V146.818H173.827V155H172.57ZM173.209 145.455C172.964 145.455 172.752 145.371 172.575 145.204C172.401 145.037 172.314 144.837 172.314 144.602C172.314 144.368 172.401 144.167 172.575 144C172.752 143.833 172.964 143.75 173.209 143.75C173.454 143.75 173.663 143.833 173.837 144C174.015 144.167 174.104 144.368 174.104 144.602C174.104 144.837 174.015 145.037 173.837 145.204C173.663 145.371 173.454 145.455 173.209 145.455ZM179.687 146.818V147.884H175.447V146.818H179.687ZM176.683 144.858H177.94V152.656C177.94 153.011 177.992 153.278 178.095 153.455C178.201 153.629 178.336 153.746 178.499 153.807C178.666 153.864 178.842 153.892 179.027 153.892C179.165 153.892 179.279 153.885 179.368 153.871C179.456 153.853 179.528 153.839 179.581 153.828L179.836 154.957C179.751 154.989 179.632 155.021 179.48 155.053C179.327 155.089 179.133 155.107 178.899 155.107C178.544 155.107 178.196 155.03 177.855 154.877C177.518 154.725 177.237 154.492 177.013 154.18C176.793 153.867 176.683 153.473 176.683 152.997V144.858ZM184.921 155.17C184.132 155.17 183.452 154.996 182.881 154.648C182.312 154.297 181.874 153.807 181.565 153.178C181.26 152.546 181.107 151.811 181.107 150.973C181.107 150.135 181.26 149.396 181.565 148.757C181.874 148.114 182.304 147.614 182.854 147.255C183.408 146.893 184.054 146.712 184.793 146.712C185.219 146.712 185.64 146.783 186.055 146.925C186.471 147.067 186.849 147.298 187.19 147.617C187.531 147.933 187.803 148.352 188.005 148.874C188.207 149.396 188.309 150.039 188.309 150.803V151.335H182.002V150.249H187.03C187.03 149.787 186.938 149.375 186.753 149.013C186.572 148.651 186.313 148.365 185.975 148.155C185.642 147.946 185.248 147.841 184.793 147.841C184.292 147.841 183.859 147.965 183.493 148.214C183.131 148.459 182.852 148.778 182.657 149.173C182.462 149.567 182.364 149.989 182.364 150.44V151.165C182.364 151.783 182.471 152.306 182.684 152.736C182.9 153.162 183.2 153.487 183.584 153.711C183.967 153.931 184.413 154.041 184.921 154.041C185.251 154.041 185.549 153.995 185.816 153.903C186.086 153.807 186.318 153.665 186.513 153.477C186.709 153.285 186.86 153.047 186.966 152.763L188.181 153.104C188.053 153.516 187.838 153.878 187.536 154.19C187.234 154.499 186.862 154.741 186.418 154.915C185.974 155.085 185.475 155.17 184.921 155.17ZM190.732 149.737V148.587H197.295V149.737H190.732ZM190.732 152.891V151.74H197.295V152.891H190.732ZM203.922 144.091V155H202.601V145.476H202.538L199.874 147.244V145.902L202.601 144.091H203.922Z" fill="black"/>
<path d="M148.321 177V166.091H154.905V167.263H149.642V170.949H154.564V172.121H149.642V175.828H154.99V177H148.321ZM159.267 177L156.284 166.091H157.627L159.907 174.976H160.013L162.336 166.091H163.827L166.15 174.976H166.256L168.536 166.091H169.878L166.895 177H165.532L163.124 168.307H163.039L160.631 177H159.267ZM172.611 166.091V177H171.354V166.091H172.611ZM174.913 177V168.818H176.17V177H174.913ZM175.552 167.455C175.307 167.455 175.096 167.371 174.919 167.204C174.745 167.037 174.658 166.837 174.658 166.602C174.658 166.368 174.745 166.167 174.919 166C175.096 165.833 175.307 165.75 175.552 165.75C175.797 165.75 176.007 165.833 176.181 166C176.359 166.167 176.447 166.368 176.447 166.602C176.447 166.837 176.359 167.037 176.181 167.204C176.007 167.371 175.797 167.455 175.552 167.455ZM182.031 168.818V169.884H177.791V168.818H182.031ZM179.027 166.858H180.284V174.656C180.284 175.011 180.335 175.278 180.438 175.455C180.545 175.629 180.68 175.746 180.843 175.807C181.01 175.864 181.186 175.892 181.371 175.892C181.509 175.892 181.623 175.885 181.711 175.871C181.8 175.853 181.871 175.839 181.925 175.828L182.18 176.957C182.095 176.989 181.976 177.021 181.823 177.053C181.671 177.089 181.477 177.107 181.243 177.107C180.888 177.107 180.54 177.03 180.199 176.877C179.861 176.725 179.581 176.492 179.357 176.18C179.137 175.867 179.027 175.473 179.027 174.997V166.858ZM187.265 177.17C186.476 177.17 185.796 176.996 185.224 176.648C184.656 176.297 184.218 175.807 183.909 175.178C183.603 174.546 183.451 173.811 183.451 172.973C183.451 172.135 183.603 171.396 183.909 170.757C184.218 170.114 184.647 169.614 185.198 169.255C185.752 168.893 186.398 168.712 187.137 168.712C187.563 168.712 187.984 168.783 188.399 168.925C188.815 169.067 189.193 169.298 189.534 169.617C189.875 169.933 190.146 170.352 190.349 170.874C190.551 171.396 190.652 172.039 190.652 172.803V173.335H184.346V172.249H189.374C189.374 171.787 189.282 171.375 189.097 171.013C188.916 170.651 188.657 170.365 188.319 170.155C187.985 169.946 187.591 169.841 187.137 169.841C186.636 169.841 186.203 169.965 185.837 170.214C185.475 170.459 185.196 170.778 185.001 171.173C184.805 171.567 184.708 171.989 184.708 172.44V173.165C184.708 173.783 184.814 174.306 185.027 174.736C185.244 175.162 185.544 175.487 185.928 175.711C186.311 175.931 186.757 176.041 187.265 176.041C187.595 176.041 187.893 175.995 188.159 175.903C188.429 175.807 188.662 175.665 188.857 175.477C189.053 175.285 189.203 175.047 189.31 174.763L190.525 175.104C190.397 175.516 190.182 175.878 189.88 176.19C189.578 176.499 189.205 176.741 188.761 176.915C188.317 177.085 187.819 177.17 187.265 177.17ZM193.076 171.737V170.587H199.638V171.737H193.076ZM193.076 174.891V173.74H199.638V174.891H193.076ZM205.989 177.149C205.187 177.149 204.503 176.931 203.938 176.494C203.374 176.054 202.942 175.416 202.644 174.582C202.346 173.744 202.197 172.732 202.197 171.545C202.197 170.366 202.346 169.36 202.644 168.525C202.946 167.687 203.379 167.048 203.944 166.608C204.512 166.164 205.194 165.942 205.989 165.942C206.785 165.942 207.465 166.164 208.029 166.608C208.598 167.048 209.031 167.687 209.329 168.525C209.631 169.36 209.782 170.366 209.782 171.545C209.782 172.732 209.633 173.744 209.334 174.582C209.036 175.416 208.605 176.054 208.04 176.494C207.475 176.931 206.792 177.149 205.989 177.149ZM205.989 175.977C206.785 175.977 207.403 175.594 207.843 174.827C208.283 174.06 208.503 172.966 208.503 171.545C208.503 170.601 208.402 169.797 208.2 169.132C208.001 168.468 207.713 167.962 207.337 167.614C206.964 167.266 206.515 167.092 205.989 167.092C205.201 167.092 204.585 167.481 204.141 168.259C203.697 169.033 203.475 170.129 203.475 171.545C203.475 172.49 203.574 173.293 203.773 173.953C203.972 174.614 204.258 175.116 204.631 175.461C205.007 175.805 205.46 175.977 205.989 175.977Z" fill="black"/>
<path d="M407.972 144.091V155H406.693L400.749 146.435H400.642V155H399.321V144.091H400.599L406.565 152.678H406.672V144.091H407.972ZM416.581 146.818C416.517 146.278 416.258 145.859 415.803 145.561C415.349 145.263 414.791 145.114 414.131 145.114C413.648 145.114 413.225 145.192 412.863 145.348C412.504 145.504 412.224 145.719 412.021 145.993C411.822 146.266 411.723 146.577 411.723 146.925C411.723 147.216 411.792 147.466 411.931 147.676C412.073 147.882 412.254 148.054 412.474 148.192C412.694 148.327 412.925 148.439 413.166 148.528C413.408 148.613 413.63 148.683 413.832 148.736L414.94 149.034C415.224 149.109 415.54 149.212 415.888 149.343C416.24 149.474 416.576 149.654 416.895 149.881C417.218 150.105 417.485 150.392 417.694 150.744C417.904 151.096 418.008 151.527 418.008 152.038C418.008 152.628 417.854 153.161 417.545 153.636C417.24 154.112 416.792 154.49 416.203 154.771C415.617 155.051 414.905 155.192 414.067 155.192C413.285 155.192 412.609 155.066 412.037 154.814C411.469 154.561 411.022 154.21 410.695 153.759C410.372 153.308 410.189 152.784 410.146 152.188H411.51C411.545 152.599 411.684 152.94 411.925 153.21C412.17 153.477 412.479 153.675 412.852 153.807C413.229 153.935 413.633 153.999 414.067 153.999C414.571 153.999 415.024 153.917 415.425 153.754C415.826 153.587 416.144 153.356 416.378 153.061C416.613 152.763 416.73 152.415 416.73 152.017C416.73 151.655 416.629 151.36 416.426 151.133C416.224 150.906 415.958 150.721 415.627 150.579C415.297 150.437 414.94 150.312 414.557 150.206L413.214 149.822C412.362 149.577 411.687 149.228 411.19 148.773C410.693 148.319 410.445 147.724 410.445 146.989C410.445 146.378 410.61 145.845 410.94 145.391C411.274 144.933 411.721 144.577 412.282 144.325C412.847 144.07 413.477 143.942 414.173 143.942C414.876 143.942 415.501 144.068 416.048 144.32C416.595 144.569 417.028 144.909 417.348 145.343C417.671 145.776 417.842 146.268 417.859 146.818H416.581ZM421.267 144.091V155H420.01V144.091H421.267ZM423.57 155V146.818H424.827V155H423.57ZM424.209 145.455C423.964 145.455 423.752 145.371 423.575 145.204C423.401 145.037 423.314 144.837 423.314 144.602C423.314 144.368 423.401 144.167 423.575 144C423.752 143.833 423.964 143.75 424.209 143.75C424.454 143.75 424.663 143.833 424.837 144C425.015 144.167 425.104 144.368 425.104 144.602C425.104 144.837 425.015 145.037 424.837 145.204C424.663 145.371 424.454 145.455 424.209 145.455ZM430.687 146.818V147.884H426.447V146.818H430.687ZM427.683 144.858H428.94V152.656C428.94 153.011 428.992 153.278 429.095 153.455C429.201 153.629 429.336 153.746 429.499 153.807C429.666 153.864 429.842 153.892 430.027 153.892C430.165 153.892 430.279 153.885 430.368 153.871C430.456 153.853 430.528 153.839 430.581 153.828L430.836 154.957C430.751 154.989 430.632 155.021 430.48 155.053C430.327 155.089 430.133 155.107 429.899 155.107C429.544 155.107 429.196 155.03 428.855 154.877C428.518 154.725 428.237 154.492 428.013 154.18C427.793 153.867 427.683 153.473 427.683 152.997V144.858ZM435.921 155.17C435.132 155.17 434.452 154.996 433.881 154.648C433.312 154.297 432.874 153.807 432.565 153.178C432.26 152.546 432.107 151.811 432.107 150.973C432.107 150.135 432.26 149.396 432.565 148.757C432.874 148.114 433.304 147.614 433.854 147.255C434.408 146.893 435.054 146.712 435.793 146.712C436.219 146.712 436.64 146.783 437.055 146.925C437.471 147.067 437.849 147.298 438.19 147.617C438.531 147.933 438.803 148.352 439.005 148.874C439.207 149.396 439.309 150.039 439.309 150.803V151.335H433.002V150.249H438.03C438.03 149.787 437.938 149.375 437.753 149.013C437.572 148.651 437.313 148.365 436.975 148.155C436.642 147.946 436.248 147.841 435.793 147.841C435.292 147.841 434.859 147.965 434.493 148.214C434.131 148.459 433.852 148.778 433.657 149.173C433.462 149.567 433.364 149.989 433.364 150.44V151.165C433.364 151.783 433.471 152.306 433.684 152.736C433.9 153.162 434.2 153.487 434.584 153.711C434.967 153.931 435.413 154.041 435.921 154.041C436.251 154.041 436.549 153.995 436.816 153.903C437.086 153.807 437.318 153.665 437.513 153.477C437.709 153.285 437.86 153.047 437.966 152.763L439.181 153.104C439.053 153.516 438.838 153.878 438.536 154.19C438.234 154.499 437.862 154.741 437.418 154.915C436.974 155.085 436.475 155.17 435.921 155.17ZM441.732 149.737V148.587H448.295V149.737H441.732ZM441.732 152.891V151.74H448.295V152.891H441.732ZM454.646 155.149C453.843 155.149 453.159 154.931 452.595 154.494C452.03 154.054 451.599 153.416 451.3 152.582C451.002 151.744 450.853 150.732 450.853 149.545C450.853 148.366 451.002 147.36 451.3 146.525C451.602 145.687 452.035 145.048 452.6 144.608C453.168 144.164 453.85 143.942 454.646 143.942C455.441 143.942 456.121 144.164 456.686 144.608C457.254 145.048 457.687 145.687 457.985 146.525C458.287 147.36 458.438 148.366 458.438 149.545C458.438 150.732 458.289 151.744 457.991 152.582C457.692 153.416 457.261 154.054 456.696 154.494C456.132 154.931 455.448 155.149 454.646 155.149ZM454.646 153.977C455.441 153.977 456.059 153.594 456.499 152.827C456.94 152.06 457.16 150.966 457.16 149.545C457.16 148.601 457.059 147.797 456.856 147.132C456.657 146.468 456.37 145.962 455.993 145.614C455.62 145.266 455.171 145.092 454.646 145.092C453.857 145.092 453.241 145.481 452.797 146.259C452.353 147.033 452.131 148.129 452.131 149.545C452.131 150.49 452.231 151.293 452.43 151.953C452.628 152.614 452.914 153.116 453.287 153.461C453.664 153.805 454.116 153.977 454.646 153.977Z" fill="black"/>
<path d="M399.321 177V166.091H405.905V167.263H400.642V170.949H405.564V172.121H400.642V175.828H405.99V177H399.321ZM410.267 177L407.284 166.091H408.627L410.907 174.976H411.013L413.336 166.091H414.827L417.15 174.976H417.256L419.536 166.091H420.878L417.895 177H416.532L414.124 168.307H414.039L411.631 177H410.267ZM423.611 166.091V177H422.354V166.091H423.611ZM425.913 177V168.818H427.17V177H425.913ZM426.552 167.455C426.307 167.455 426.096 167.371 425.919 167.204C425.745 167.037 425.658 166.837 425.658 166.602C425.658 166.368 425.745 166.167 425.919 166C426.096 165.833 426.307 165.75 426.552 165.75C426.797 165.75 427.007 165.833 427.181 166C427.359 166.167 427.447 166.368 427.447 166.602C427.447 166.837 427.359 167.037 427.181 167.204C427.007 167.371 426.797 167.455 426.552 167.455ZM433.031 168.818V169.884H428.791V168.818H433.031ZM430.027 166.858H431.284V174.656C431.284 175.011 431.335 175.278 431.438 175.455C431.545 175.629 431.68 175.746 431.843 175.807C432.01 175.864 432.186 175.892 432.371 175.892C432.509 175.892 432.623 175.885 432.711 175.871C432.8 175.853 432.871 175.839 432.925 175.828L433.18 176.957C433.095 176.989 432.976 177.021 432.823 177.053C432.671 177.089 432.477 177.107 432.243 177.107C431.888 177.107 431.54 177.03 431.199 176.877C430.861 176.725 430.581 176.492 430.357 176.18C430.137 175.867 430.027 175.473 430.027 174.997V166.858ZM438.265 177.17C437.476 177.17 436.796 176.996 436.224 176.648C435.656 176.297 435.218 175.807 434.909 175.178C434.603 174.546 434.451 173.811 434.451 172.973C434.451 172.135 434.603 171.396 434.909 170.757C435.218 170.114 435.647 169.614 436.198 169.255C436.752 168.893 437.398 168.712 438.137 168.712C438.563 168.712 438.984 168.783 439.399 168.925C439.815 169.067 440.193 169.298 440.534 169.617C440.875 169.933 441.146 170.352 441.349 170.874C441.551 171.396 441.652 172.039 441.652 172.803V173.335H435.346V172.249H440.374C440.374 171.787 440.282 171.375 440.097 171.013C439.916 170.651 439.657 170.365 439.319 170.155C438.985 169.946 438.591 169.841 438.137 169.841C437.636 169.841 437.203 169.965 436.837 170.214C436.475 170.459 436.196 170.778 436.001 171.173C435.805 171.567 435.708 171.989 435.708 172.44V173.165C435.708 173.783 435.814 174.306 436.027 174.736C436.244 175.162 436.544 175.487 436.928 175.711C437.311 175.931 437.757 176.041 438.265 176.041C438.595 176.041 438.893 175.995 439.159 175.903C439.429 175.807 439.662 175.665 439.857 175.477C440.053 175.285 440.203 175.047 440.31 174.763L441.525 175.104C441.397 175.516 441.182 175.878 440.88 176.19C440.578 176.499 440.205 176.741 439.761 176.915C439.317 177.085 438.819 177.17 438.265 177.17ZM444.076 171.737V170.587H450.638V171.737H444.076ZM444.076 174.891V173.74H450.638V174.891H444.076ZM457.266 166.091V177H455.945V167.476H455.881L453.218 169.244V167.902L455.945 166.091H457.266Z" fill="black"/>
<path d="M74.9716 107.091V118H73.6932L67.7486 109.435H67.642V118H66.321V107.091H67.5994L73.5653 115.678H73.6719V107.091H74.9716ZM83.5809 109.818C83.517 109.278 83.2577 108.859 82.8032 108.561C82.3486 108.263 81.7911 108.114 81.1306 108.114C80.6476 108.114 80.2251 108.192 79.8628 108.348C79.5042 108.504 79.2236 108.719 79.0212 108.993C78.8224 109.266 78.7229 109.577 78.7229 109.925C78.7229 110.216 78.7922 110.466 78.9307 110.676C79.0727 110.882 79.2538 111.054 79.474 111.192C79.6942 111.327 79.925 111.439 80.1665 111.528C80.4079 111.613 80.6299 111.683 80.8323 111.736L81.9403 112.034C82.2243 112.109 82.5404 112.212 82.8884 112.343C83.24 112.474 83.5756 112.654 83.8952 112.881C84.2183 113.105 84.4846 113.392 84.6942 113.744C84.9037 114.096 85.0084 114.527 85.0084 115.038C85.0084 115.628 84.854 116.161 84.545 116.636C84.2396 117.112 83.7922 117.49 83.2027 117.771C82.6167 118.051 81.9047 118.192 81.0667 118.192C80.2854 118.192 79.6089 118.066 79.0372 117.814C78.469 117.561 78.0216 117.21 77.6949 116.759C77.3717 116.308 77.1888 115.784 77.1462 115.188H78.5099C78.5454 115.599 78.6839 115.94 78.9253 116.21C79.1704 116.477 79.4793 116.675 79.8522 116.807C80.2286 116.935 80.6334 116.999 81.0667 116.999C81.5709 116.999 82.0237 116.917 82.425 116.754C82.8263 116.587 83.1441 116.356 83.3785 116.061C83.6128 115.763 83.73 115.415 83.73 115.017C83.73 114.655 83.6288 114.36 83.4264 114.133C83.224 113.906 82.9577 113.721 82.6274 113.579C82.2971 113.437 81.9403 113.312 81.5567 113.206L80.2144 112.822C79.3621 112.577 78.6874 112.228 78.1903 111.773C77.6931 111.319 77.4445 110.724 77.4445 109.989C77.4445 109.378 77.6096 108.845 77.9399 108.391C78.2737 107.933 78.7211 107.577 79.2822 107.325C79.8469 107.07 80.4772 106.942 81.1732 106.942C81.8763 106.942 82.5013 107.068 83.0482 107.32C83.5951 107.569 84.0283 107.909 84.3479 108.343C84.6711 108.776 84.8415 109.268 84.8593 109.818H83.5809ZM90.3125 121.239C89.7053 121.239 89.1832 121.161 88.7464 121.004C88.3097 120.852 87.9457 120.649 87.6545 120.397C87.3668 120.148 87.1378 119.882 86.9673 119.598L87.9688 118.895C88.0824 119.044 88.2262 119.214 88.4002 119.406C88.5742 119.602 88.8121 119.77 89.114 119.912C89.4194 120.058 89.8189 120.131 90.3125 120.131C90.973 120.131 91.5181 119.971 91.9478 119.651C92.3775 119.332 92.5923 118.831 92.5923 118.149V116.487H92.4858C92.3935 116.636 92.2621 116.821 92.0916 117.041C91.9247 117.258 91.6832 117.451 91.3672 117.622C91.0547 117.789 90.6321 117.872 90.0994 117.872C89.4389 117.872 88.8459 117.716 88.3203 117.403C87.7983 117.091 87.3846 116.636 87.0792 116.04C86.7773 115.443 86.6264 114.719 86.6264 113.866C86.6264 113.028 86.7738 112.299 87.0685 111.677C87.3633 111.052 87.7734 110.569 88.299 110.228C88.8246 109.884 89.4318 109.712 90.1207 109.712C90.6534 109.712 91.076 109.8 91.3885 109.978C91.7045 110.152 91.946 110.351 92.1129 110.575C92.2834 110.795 92.4148 110.976 92.5071 111.118H92.6349V109.818H93.8494V118.234C93.8494 118.938 93.6896 119.509 93.37 119.95C93.054 120.393 92.6278 120.718 92.0916 120.924C91.5589 121.134 90.9659 121.239 90.3125 121.239ZM90.2699 116.743C90.7741 116.743 91.2003 116.627 91.5483 116.397C91.8963 116.166 92.1609 115.834 92.342 115.401C92.5231 114.967 92.6136 114.449 92.6136 113.845C92.6136 113.256 92.5249 112.735 92.3473 112.284C92.1697 111.833 91.907 111.48 91.5589 111.224C91.2109 110.969 90.7813 110.841 90.2699 110.841C89.7372 110.841 89.2933 110.976 88.9382 111.246C88.5866 111.516 88.3221 111.878 88.1445 112.332C87.9705 112.787 87.8835 113.291 87.8835 113.845C87.8835 114.413 87.9723 114.916 88.1499 115.353C88.331 115.786 88.5973 116.127 88.9489 116.375C89.304 116.62 89.7443 116.743 90.2699 116.743ZM96.1506 118V109.818H97.3651V111.054H97.4503C97.5994 110.649 97.8693 110.321 98.2599 110.069C98.6506 109.816 99.0909 109.69 99.581 109.69C99.6733 109.69 99.7887 109.692 99.9272 109.696C100.066 109.699 100.17 109.705 100.241 109.712V110.99C100.199 110.979 100.101 110.963 99.9485 110.942C99.7994 110.917 99.6413 110.905 99.4744 110.905C99.0767 110.905 98.7216 110.988 98.4091 111.155C98.1001 111.319 97.8551 111.546 97.674 111.837C97.4964 112.125 97.4077 112.453 97.4077 112.822V118H96.1506ZM104.913 118.17C104.125 118.17 103.445 117.996 102.873 117.648C102.305 117.297 101.866 116.807 101.557 116.178C101.252 115.546 101.099 114.811 101.099 113.973C101.099 113.135 101.252 112.396 101.557 111.757C101.866 111.114 102.296 110.614 102.846 110.255C103.4 109.893 104.047 109.712 104.785 109.712C105.211 109.712 105.632 109.783 106.048 109.925C106.463 110.067 106.841 110.298 107.182 110.617C107.523 110.933 107.795 111.352 107.997 111.874C108.2 112.396 108.301 113.039 108.301 113.803V114.335H101.994V113.249H107.022C107.022 112.787 106.93 112.375 106.745 112.013C106.564 111.651 106.305 111.365 105.968 111.155C105.634 110.946 105.24 110.841 104.785 110.841C104.284 110.841 103.851 110.965 103.485 111.214C103.123 111.459 102.844 111.778 102.649 112.173C102.454 112.567 102.356 112.989 102.356 113.44V114.165C102.356 114.783 102.463 115.306 102.676 115.736C102.892 116.162 103.192 116.487 103.576 116.711C103.96 116.931 104.405 117.041 104.913 117.041C105.243 117.041 105.542 116.995 105.808 116.903C106.078 116.807 106.31 116.665 106.506 116.477C106.701 116.285 106.852 116.047 106.958 115.763L108.173 116.104C108.045 116.516 107.83 116.878 107.528 117.19C107.227 117.499 106.854 117.741 106.41 117.915C105.966 118.085 105.467 118.17 104.913 118.17ZM113.643 118.17C112.855 118.17 112.175 117.996 111.603 117.648C111.035 117.297 110.597 116.807 110.288 116.178C109.982 115.546 109.83 114.811 109.83 113.973C109.83 113.135 109.982 112.396 110.288 111.757C110.597 111.114 111.026 110.614 111.577 110.255C112.131 109.893 112.777 109.712 113.516 109.712C113.942 109.712 114.363 109.783 114.778 109.925C115.194 110.067 115.572 110.298 115.913 110.617C116.254 110.933 116.525 111.352 116.728 111.874C116.93 112.396 117.031 113.039 117.031 113.803V114.335H110.724V113.249H115.753C115.753 112.787 115.661 112.375 115.476 112.013C115.295 111.651 115.036 111.365 114.698 111.155C114.364 110.946 113.97 110.841 113.516 110.841C113.015 110.841 112.582 110.965 112.216 111.214C111.854 111.459 111.575 111.778 111.38 112.173C111.184 112.567 111.087 112.989 111.087 113.44V114.165C111.087 114.783 111.193 115.306 111.406 115.736C111.623 116.162 111.923 116.487 112.306 116.711C112.69 116.931 113.136 117.041 113.643 117.041C113.974 117.041 114.272 116.995 114.538 116.903C114.808 116.807 115.041 116.665 115.236 116.477C115.431 116.285 115.582 116.047 115.689 115.763L116.903 116.104C116.776 116.516 116.561 116.878 116.259 117.19C115.957 117.499 115.584 117.741 115.14 117.915C114.696 118.085 114.197 118.17 113.643 118.17ZM120.201 113.078V118H118.944V109.818H120.158V111.097H120.265C120.456 110.681 120.748 110.347 121.138 110.095C121.529 109.839 122.033 109.712 122.651 109.712C123.205 109.712 123.69 109.825 124.105 110.053C124.521 110.276 124.844 110.617 125.075 111.075C125.305 111.53 125.421 112.105 125.421 112.801V118H124.164V112.886C124.164 112.244 123.997 111.743 123.663 111.384C123.329 111.022 122.871 110.841 122.289 110.841C121.887 110.841 121.529 110.928 121.213 111.102C120.9 111.276 120.653 111.53 120.472 111.864C120.291 112.197 120.201 112.602 120.201 113.078Z" fill="#47CF8E"/>
<path d="M481.321 118V107.091H487.905V108.263H482.642V111.949H487.564V113.121H482.642V116.828H487.99V118H481.321ZM492.267 118L489.284 107.091H490.627L492.907 115.976H493.013L495.336 107.091H496.827L499.15 115.976H499.256L501.536 107.091H502.878L499.895 118H498.532L496.124 109.307H496.039L493.631 118H492.267ZM506.895 121.239C506.287 121.239 505.765 121.161 505.328 121.004C504.892 120.852 504.528 120.649 504.237 120.397C503.949 120.148 503.72 119.882 503.549 119.598L504.551 118.895C504.664 119.044 504.808 119.214 504.982 119.406C505.156 119.602 505.394 119.77 505.696 119.912C506.001 120.058 506.401 120.131 506.895 120.131C507.555 120.131 508.1 119.971 508.53 119.651C508.96 119.332 509.174 118.831 509.174 118.149V116.487H509.068C508.975 116.636 508.844 116.821 508.674 117.041C508.507 117.258 508.265 117.451 507.949 117.622C507.637 117.789 507.214 117.872 506.681 117.872C506.021 117.872 505.428 117.716 504.902 117.403C504.38 117.091 503.967 116.636 503.661 116.04C503.359 115.443 503.208 114.719 503.208 113.866C503.208 113.028 503.356 112.299 503.651 111.677C503.945 111.052 504.355 110.569 504.881 110.228C505.407 109.884 506.014 109.712 506.703 109.712C507.235 109.712 507.658 109.8 507.971 109.978C508.287 110.152 508.528 110.351 508.695 110.575C508.865 110.795 508.997 110.976 509.089 111.118H509.217V109.818H510.431V118.234C510.431 118.938 510.272 119.509 509.952 119.95C509.636 120.393 509.21 120.718 508.674 120.924C508.141 121.134 507.548 121.239 506.895 121.239ZM506.852 116.743C507.356 116.743 507.782 116.627 508.13 116.397C508.478 116.166 508.743 115.834 508.924 115.401C509.105 114.967 509.196 114.449 509.196 113.845C509.196 113.256 509.107 112.735 508.929 112.284C508.752 111.833 508.489 111.48 508.141 111.224C507.793 110.969 507.363 110.841 506.852 110.841C506.319 110.841 505.875 110.976 505.52 111.246C505.169 111.516 504.904 111.878 504.727 112.332C504.553 112.787 504.466 113.291 504.466 113.845C504.466 114.413 504.554 114.916 504.732 115.353C504.913 115.786 505.179 116.127 505.531 116.375C505.886 116.62 506.326 116.743 506.852 116.743ZM512.733 118V109.818H513.947V111.054H514.032C514.181 110.649 514.451 110.321 514.842 110.069C515.233 109.816 515.673 109.69 516.163 109.69C516.255 109.69 516.371 109.692 516.509 109.696C516.648 109.699 516.752 109.705 516.824 109.712V110.99C516.781 110.979 516.683 110.963 516.531 110.942C516.381 110.917 516.223 110.905 516.056 110.905C515.659 110.905 515.304 110.988 514.991 111.155C514.682 111.319 514.437 111.546 514.256 111.837C514.078 112.125 513.99 112.453 513.99 112.822V118H512.733ZM521.495 118.17C520.707 118.17 520.027 117.996 519.455 117.648C518.887 117.297 518.448 116.807 518.139 116.178C517.834 115.546 517.681 114.811 517.681 113.973C517.681 113.135 517.834 112.396 518.139 111.757C518.448 111.114 518.878 110.614 519.428 110.255C519.982 109.893 520.629 109.712 521.367 109.712C521.793 109.712 522.214 109.783 522.63 109.925C523.045 110.067 523.423 110.298 523.764 110.617C524.105 110.933 524.377 111.352 524.579 111.874C524.782 112.396 524.883 113.039 524.883 113.803V114.335H518.576V113.249H523.604C523.604 112.787 523.512 112.375 523.327 112.013C523.146 111.651 522.887 111.365 522.55 111.155C522.216 110.946 521.822 110.841 521.367 110.841C520.866 110.841 520.433 110.965 520.067 111.214C519.705 111.459 519.426 111.778 519.231 112.173C519.036 112.567 518.938 112.989 518.938 113.44V114.165C518.938 114.783 519.045 115.306 519.258 115.736C519.474 116.162 519.775 116.487 520.158 116.711C520.542 116.931 520.987 117.041 521.495 117.041C521.825 117.041 522.124 116.995 522.39 116.903C522.66 116.807 522.892 116.665 523.088 116.477C523.283 116.285 523.434 116.047 523.54 115.763L524.755 116.104C524.627 116.516 524.412 116.878 524.11 117.19C523.809 117.499 523.436 117.741 522.992 117.915C522.548 118.085 522.049 118.17 521.495 118.17ZM530.225 118.17C529.437 118.17 528.757 117.996 528.185 117.648C527.617 117.297 527.179 116.807 526.87 116.178C526.564 115.546 526.412 114.811 526.412 113.973C526.412 113.135 526.564 112.396 526.87 111.757C527.179 111.114 527.608 110.614 528.159 110.255C528.713 109.893 529.359 109.712 530.098 109.712C530.524 109.712 530.945 109.783 531.36 109.925C531.776 110.067 532.154 110.298 532.495 110.617C532.836 110.933 533.107 111.352 533.31 111.874C533.512 112.396 533.613 113.039 533.613 113.803V114.335H527.306V113.249H532.335C532.335 112.787 532.243 112.375 532.058 112.013C531.877 111.651 531.618 111.365 531.28 111.155C530.946 110.946 530.552 110.841 530.098 110.841C529.597 110.841 529.164 110.965 528.798 111.214C528.436 111.459 528.157 111.778 527.962 112.173C527.766 112.567 527.669 112.989 527.669 113.44V114.165C527.669 114.783 527.775 115.306 527.988 115.736C528.205 116.162 528.505 116.487 528.888 116.711C529.272 116.931 529.718 117.041 530.225 117.041C530.556 117.041 530.854 116.995 531.12 116.903C531.39 116.807 531.623 116.665 531.818 116.477C532.013 116.285 532.164 116.047 532.271 115.763L533.485 116.104C533.358 116.516 533.143 116.878 532.841 117.19C532.539 117.499 532.166 117.741 531.722 117.915C531.278 118.085 530.779 118.17 530.225 118.17ZM536.783 113.078V118H535.526V109.818H536.74V111.097H536.847C537.038 110.681 537.33 110.347 537.72 110.095C538.111 109.839 538.615 109.712 539.233 109.712C539.787 109.712 540.272 109.825 540.687 110.053C541.103 110.276 541.426 110.617 541.657 111.075C541.887 111.53 542.003 112.105 542.003 112.801V118H540.746V112.886C540.746 112.244 540.579 111.743 540.245 111.384C539.911 111.022 539.453 110.841 538.871 110.841C538.469 110.841 538.111 110.928 537.795 111.102C537.482 111.276 537.235 111.53 537.054 111.864C536.873 112.197 536.783 112.602 536.783 113.078Z" fill="#47CF8E"/>
<path d="M130.484 180.679C130.583 180.136 130.222 179.615 129.679 179.516L120.824 177.906C120.281 177.807 119.76 178.168 119.661 178.711C119.563 179.255 119.923 179.775 120.466 179.874L128.337 181.305L126.906 189.176C126.807 189.719 127.168 190.24 127.711 190.339C128.255 190.437 128.775 190.077 128.874 189.534L130.484 180.679ZM182.555 210.673C176.885 227.067 167.588 235.436 157.759 238.394C147.894 241.362 137.294 238.942 128.93 233.356C120.56 227.766 114.559 219.093 113.762 209.72C112.971 200.409 117.297 190.164 130.069 181.322L128.931 179.678C115.703 188.836 110.904 199.716 111.769 209.889C112.629 220 119.065 229.172 127.82 235.019C136.581 240.871 147.794 243.481 158.335 240.309C168.912 237.126 178.615 228.183 184.445 211.327L182.555 210.673Z" fill="black"/>
<path d="M476.016 180.679C475.917 180.136 476.278 179.615 476.821 179.516L485.676 177.906C486.219 177.807 486.74 178.168 486.839 178.711C486.937 179.255 486.577 179.775 486.034 179.874L478.163 181.305L479.594 189.176C479.693 189.719 479.332 190.24 478.789 190.339C478.245 190.437 477.725 190.077 477.626 189.534L476.016 180.679ZM423.945 210.673C429.615 227.067 438.912 235.436 448.741 238.394C458.606 241.362 469.206 238.942 477.57 233.356C485.939 227.766 491.941 219.093 492.738 209.72C493.529 200.409 489.203 190.164 476.431 181.322L477.569 179.678C490.797 188.836 495.596 199.716 494.731 209.889C493.871 220 487.435 229.172 478.68 235.019C469.919 240.871 458.706 243.481 448.165 240.309C437.588 237.126 427.885 228.183 422.055 211.327L423.945 210.673Z" fill="black"/>
<path d="M83.321 259V248.091H89.9048V249.263H84.642V252.949H89.5639V254.121H84.642V257.828H89.9901V259H83.321ZM94.2674 259L91.2844 248.091H92.6268L94.9066 256.976H95.0131L97.3356 248.091H98.8271L101.15 256.976H101.256L103.536 248.091H104.878L101.895 259H100.532L98.1239 250.307H98.0387L95.631 259H94.2674ZM108.916 259.17C108.149 259.17 107.488 258.989 106.934 258.627C106.38 258.265 105.954 257.766 105.656 257.13C105.358 256.495 105.208 255.768 105.208 254.952C105.208 254.121 105.361 253.387 105.667 252.752C105.975 252.113 106.405 251.614 106.956 251.255C107.51 250.893 108.156 250.712 108.895 250.712C109.47 250.712 109.988 250.818 110.45 251.031C110.912 251.244 111.29 251.543 111.585 251.926C111.879 252.31 112.062 252.757 112.133 253.268H110.876C110.78 252.896 110.567 252.565 110.237 252.278C109.91 251.987 109.47 251.841 108.916 251.841C108.426 251.841 107.996 251.969 107.627 252.224C107.261 252.477 106.975 252.833 106.769 253.295C106.567 253.753 106.466 254.291 106.466 254.909C106.466 255.541 106.565 256.092 106.764 256.56C106.966 257.029 107.25 257.393 107.616 257.652C107.985 257.912 108.419 258.041 108.916 258.041C109.243 258.041 109.539 257.984 109.805 257.871C110.072 257.757 110.297 257.594 110.482 257.381C110.667 257.168 110.798 256.912 110.876 256.614H112.133C112.062 257.097 111.886 257.532 111.606 257.919C111.329 258.302 110.961 258.608 110.503 258.835C110.049 259.059 109.52 259.17 108.916 259.17ZM116.379 259.192C115.86 259.192 115.39 259.094 114.967 258.899C114.544 258.7 114.209 258.414 113.96 258.041C113.712 257.665 113.587 257.21 113.587 256.678C113.587 256.209 113.68 255.829 113.864 255.538C114.049 255.243 114.296 255.012 114.605 254.845C114.914 254.678 115.255 254.554 115.627 254.472C116.004 254.387 116.382 254.32 116.762 254.27C117.259 254.206 117.662 254.158 117.971 254.126C118.284 254.091 118.511 254.032 118.653 253.95C118.799 253.869 118.871 253.727 118.871 253.524V253.482C118.871 252.956 118.728 252.548 118.44 252.256C118.156 251.965 117.724 251.82 117.146 251.82C116.545 251.82 116.075 251.951 115.734 252.214C115.393 252.477 115.153 252.757 115.015 253.055L113.822 252.629C114.035 252.132 114.319 251.745 114.674 251.468C115.033 251.187 115.423 250.992 115.846 250.882C116.272 250.768 116.691 250.712 117.103 250.712C117.366 250.712 117.668 250.744 118.009 250.808C118.353 250.868 118.685 250.994 119.005 251.186C119.328 251.377 119.596 251.667 119.809 252.054C120.022 252.441 120.129 252.96 120.129 253.609V259H118.871V257.892H118.808C118.722 258.07 118.58 258.26 118.381 258.462C118.183 258.664 117.918 258.837 117.588 258.979C117.257 259.121 116.854 259.192 116.379 259.192ZM116.57 258.062C117.067 258.062 117.487 257.965 117.827 257.77C118.172 257.574 118.431 257.322 118.605 257.013C118.783 256.704 118.871 256.379 118.871 256.038V254.888C118.818 254.952 118.701 255.01 118.52 255.064C118.342 255.113 118.136 255.158 117.902 255.197C117.671 255.232 117.446 255.264 117.225 255.293C117.009 255.317 116.833 255.339 116.698 255.357C116.371 255.399 116.066 255.468 115.782 255.564C115.501 255.657 115.274 255.797 115.1 255.985C114.93 256.17 114.844 256.422 114.844 256.741C114.844 257.178 115.006 257.509 115.329 257.732C115.656 257.952 116.07 258.062 116.57 258.062ZM122.423 259V250.818H123.638V252.054H123.723C123.872 251.649 124.142 251.321 124.532 251.069C124.923 250.816 125.363 250.69 125.853 250.69C125.946 250.69 126.061 250.692 126.2 250.696C126.338 250.699 126.443 250.705 126.514 250.712V251.99C126.471 251.979 126.374 251.963 126.221 251.942C126.072 251.917 125.914 251.905 125.747 251.905C125.349 251.905 124.994 251.988 124.682 252.155C124.373 252.319 124.128 252.546 123.946 252.837C123.769 253.125 123.68 253.453 123.68 253.822V259H122.423ZM128.515 253.737V252.587H135.078V253.737H128.515ZM128.515 256.891V255.74H135.078V256.891H128.515ZM141.429 259.149C140.626 259.149 139.943 258.931 139.378 258.494C138.813 258.054 138.382 257.416 138.084 256.582C137.785 255.744 137.636 254.732 137.636 253.545C137.636 252.366 137.785 251.36 138.084 250.525C138.385 249.687 138.819 249.048 139.383 248.608C139.951 248.164 140.633 247.942 141.429 247.942C142.224 247.942 142.904 248.164 143.469 248.608C144.037 249.048 144.47 249.687 144.769 250.525C145.07 251.36 145.221 252.366 145.221 253.545C145.221 254.732 145.072 255.744 144.774 256.582C144.476 257.416 144.044 258.054 143.479 258.494C142.915 258.931 142.231 259.149 141.429 259.149ZM141.429 257.977C142.224 257.977 142.842 257.594 143.282 256.827C143.723 256.06 143.943 254.966 143.943 253.545C143.943 252.601 143.842 251.797 143.639 251.132C143.44 250.468 143.153 249.962 142.776 249.614C142.403 249.266 141.954 249.092 141.429 249.092C140.64 249.092 140.024 249.481 139.58 250.259C139.136 251.033 138.915 252.129 138.915 253.545C138.915 254.49 139.014 255.293 139.213 255.953C139.412 256.614 139.698 257.116 140.07 257.461C140.447 257.805 140.9 257.977 141.429 257.977ZM91.9716 266.091V277H90.6932L84.7486 268.435H84.642V277H83.321V266.091H84.5994L90.5653 274.678H90.6719V266.091H91.9716ZM100.581 268.818C100.517 268.278 100.258 267.859 99.8032 267.561C99.3486 267.263 98.7911 267.114 98.1306 267.114C97.6476 267.114 97.2251 267.192 96.8628 267.348C96.5042 267.504 96.2236 267.719 96.0212 267.993C95.8224 268.266 95.7229 268.577 95.7229 268.925C95.7229 269.216 95.7922 269.466 95.9307 269.676C96.0727 269.882 96.2538 270.054 96.474 270.192C96.6942 270.327 96.925 270.439 97.1665 270.528C97.4079 270.613 97.6299 270.683 97.8323 270.736L98.9403 271.034C99.2243 271.109 99.5404 271.212 99.8884 271.343C100.24 271.474 100.576 271.654 100.895 271.881C101.218 272.105 101.485 272.392 101.694 272.744C101.904 273.096 102.008 273.527 102.008 274.038C102.008 274.628 101.854 275.161 101.545 275.636C101.24 276.112 100.792 276.49 100.203 276.771C99.6167 277.051 98.9047 277.192 98.0667 277.192C97.2854 277.192 96.6089 277.066 96.0372 276.814C95.469 276.561 95.0216 276.21 94.6949 275.759C94.3717 275.308 94.1888 274.784 94.1462 274.188H95.5099C95.5454 274.599 95.6839 274.94 95.9253 275.21C96.1704 275.477 96.4793 275.675 96.8522 275.807C97.2286 275.935 97.6334 275.999 98.0667 275.999C98.5709 275.999 99.0237 275.917 99.425 275.754C99.8263 275.587 100.144 275.356 100.378 275.061C100.613 274.763 100.73 274.415 100.73 274.017C100.73 273.655 100.629 273.36 100.426 273.133C100.224 272.906 99.9577 272.721 99.6274 272.579C99.2971 272.437 98.9403 272.312 98.5567 272.206L97.2144 271.822C96.3621 271.577 95.6874 271.228 95.1903 270.773C94.6931 270.319 94.4445 269.724 94.4445 268.989C94.4445 268.378 94.6096 267.845 94.9399 267.391C95.2737 266.933 95.7211 266.577 96.2822 266.325C96.8469 266.07 97.4772 265.942 98.1732 265.942C98.8763 265.942 99.5013 266.068 100.048 266.32C100.595 266.569 101.028 266.909 101.348 267.343C101.671 267.776 101.842 268.268 101.859 268.818H100.581ZM107.334 277.17C106.567 277.17 105.906 276.989 105.352 276.627C104.798 276.265 104.372 275.766 104.074 275.13C103.776 274.495 103.626 273.768 103.626 272.952C103.626 272.121 103.779 271.387 104.085 270.752C104.393 270.113 104.823 269.614 105.374 269.255C105.928 268.893 106.574 268.712 107.312 268.712C107.888 268.712 108.406 268.818 108.868 269.031C109.33 269.244 109.708 269.543 110.002 269.926C110.297 270.31 110.48 270.757 110.551 271.268H109.294C109.198 270.896 108.985 270.565 108.655 270.278C108.328 269.987 107.888 269.841 107.334 269.841C106.844 269.841 106.414 269.969 106.045 270.224C105.679 270.477 105.393 270.833 105.187 271.295C104.985 271.753 104.884 272.291 104.884 272.909C104.884 273.541 104.983 274.092 105.182 274.56C105.384 275.029 105.668 275.393 106.034 275.652C106.403 275.912 106.837 276.041 107.334 276.041C107.661 276.041 107.957 275.984 108.223 275.871C108.49 275.757 108.715 275.594 108.9 275.381C109.085 275.168 109.216 274.912 109.294 274.614H110.551C110.48 275.097 110.304 275.532 110.024 275.919C109.747 276.302 109.379 276.608 108.921 276.835C108.467 277.059 107.938 277.17 107.334 277.17ZM114.797 277.192C114.278 277.192 113.808 277.094 113.385 276.899C112.962 276.7 112.627 276.414 112.378 276.041C112.13 275.665 112.005 275.21 112.005 274.678C112.005 274.209 112.098 273.829 112.282 273.538C112.467 273.243 112.714 273.012 113.023 272.845C113.332 272.678 113.673 272.554 114.045 272.472C114.422 272.387 114.8 272.32 115.18 272.27C115.677 272.206 116.08 272.158 116.389 272.126C116.702 272.091 116.929 272.032 117.071 271.95C117.217 271.869 117.289 271.727 117.289 271.524V271.482C117.289 270.956 117.146 270.548 116.858 270.256C116.574 269.965 116.142 269.82 115.564 269.82C114.963 269.82 114.493 269.951 114.152 270.214C113.811 270.477 113.571 270.757 113.433 271.055L112.24 270.629C112.453 270.132 112.737 269.745 113.092 269.468C113.451 269.187 113.841 268.992 114.264 268.882C114.69 268.768 115.109 268.712 115.521 268.712C115.784 268.712 116.086 268.744 116.426 268.808C116.771 268.868 117.103 268.994 117.423 269.186C117.746 269.377 118.014 269.667 118.227 270.054C118.44 270.441 118.547 270.96 118.547 271.609V277H117.289V275.892H117.225C117.14 276.07 116.998 276.26 116.799 276.462C116.6 276.664 116.336 276.837 116.006 276.979C115.675 277.121 115.272 277.192 114.797 277.192ZM114.988 276.062C115.485 276.062 115.904 275.965 116.245 275.77C116.59 275.574 116.849 275.322 117.023 275.013C117.201 274.704 117.289 274.379 117.289 274.038V272.888C117.236 272.952 117.119 273.01 116.938 273.064C116.76 273.113 116.554 273.158 116.32 273.197C116.089 273.232 115.864 273.264 115.643 273.293C115.427 273.317 115.251 273.339 115.116 273.357C114.789 273.399 114.484 273.468 114.2 273.564C113.919 273.657 113.692 273.797 113.518 273.985C113.348 274.17 113.262 274.422 113.262 274.741C113.262 275.178 113.424 275.509 113.747 275.732C114.074 275.952 114.488 276.062 114.988 276.062ZM120.841 277V268.818H122.055V270.054H122.141C122.29 269.649 122.56 269.321 122.95 269.069C123.341 268.816 123.781 268.69 124.271 268.69C124.364 268.69 124.479 268.692 124.618 268.696C124.756 268.699 124.861 268.705 124.932 268.712V269.99C124.889 269.979 124.792 269.963 124.639 269.942C124.49 269.917 124.332 269.905 124.165 269.905C123.767 269.905 123.412 269.988 123.1 270.155C122.791 270.319 122.546 270.546 122.364 270.837C122.187 271.125 122.098 271.453 122.098 271.822V277H120.841ZM126.933 271.737V270.587H133.496V271.737H126.933ZM126.933 274.891V273.74H133.496V274.891H126.933ZM136.735 268.818L138.695 272.163L140.655 268.818H142.104L139.462 272.909L142.104 277H140.655L138.695 273.825L136.735 277H135.286L137.885 272.909L135.286 268.818H136.735Z" fill="black"/>
<path d="M463.321 259V248.091H469.905V249.263H464.642V252.949H469.564V254.121H464.642V257.828H469.99V259H463.321ZM474.267 259L471.284 248.091H472.627L474.907 256.976H475.013L477.336 248.091H478.827L481.15 256.976H481.256L483.536 248.091H484.878L481.895 259H480.532L478.124 250.307H478.039L475.631 259H474.267ZM488.916 259.17C488.149 259.17 487.488 258.989 486.934 258.627C486.38 258.265 485.954 257.766 485.656 257.13C485.358 256.495 485.208 255.768 485.208 254.952C485.208 254.121 485.361 253.387 485.667 252.752C485.975 252.113 486.405 251.614 486.956 251.255C487.51 250.893 488.156 250.712 488.895 250.712C489.47 250.712 489.988 250.818 490.45 251.031C490.912 251.244 491.29 251.543 491.585 251.926C491.879 252.31 492.062 252.757 492.133 253.268H490.876C490.78 252.896 490.567 252.565 490.237 252.278C489.91 251.987 489.47 251.841 488.916 251.841C488.426 251.841 487.996 251.969 487.627 252.224C487.261 252.477 486.975 252.833 486.769 253.295C486.567 253.753 486.466 254.291 486.466 254.909C486.466 255.541 486.565 256.092 486.764 256.56C486.966 257.029 487.25 257.393 487.616 257.652C487.985 257.912 488.419 258.041 488.916 258.041C489.243 258.041 489.539 257.984 489.805 257.871C490.072 257.757 490.297 257.594 490.482 257.381C490.667 257.168 490.798 256.912 490.876 256.614H492.133C492.062 257.097 491.886 257.532 491.606 257.919C491.329 258.302 490.961 258.608 490.503 258.835C490.049 259.059 489.52 259.17 488.916 259.17ZM496.379 259.192C495.86 259.192 495.39 259.094 494.967 258.899C494.544 258.7 494.209 258.414 493.96 258.041C493.712 257.665 493.587 257.21 493.587 256.678C493.587 256.209 493.68 255.829 493.864 255.538C494.049 255.243 494.296 255.012 494.605 254.845C494.914 254.678 495.255 254.554 495.627 254.472C496.004 254.387 496.382 254.32 496.762 254.27C497.259 254.206 497.662 254.158 497.971 254.126C498.284 254.091 498.511 254.032 498.653 253.95C498.799 253.869 498.871 253.727 498.871 253.524V253.482C498.871 252.956 498.728 252.548 498.44 252.256C498.156 251.965 497.724 251.82 497.146 251.82C496.545 251.82 496.075 251.951 495.734 252.214C495.393 252.477 495.153 252.757 495.015 253.055L493.822 252.629C494.035 252.132 494.319 251.745 494.674 251.468C495.033 251.187 495.423 250.992 495.846 250.882C496.272 250.768 496.691 250.712 497.103 250.712C497.366 250.712 497.668 250.744 498.009 250.808C498.353 250.868 498.685 250.994 499.005 251.186C499.328 251.377 499.596 251.667 499.809 252.054C500.022 252.441 500.129 252.96 500.129 253.609V259H498.871V257.892H498.808C498.722 258.07 498.58 258.26 498.381 258.462C498.183 258.664 497.918 258.837 497.588 258.979C497.257 259.121 496.854 259.192 496.379 259.192ZM496.57 258.062C497.067 258.062 497.487 257.965 497.827 257.77C498.172 257.574 498.431 257.322 498.605 257.013C498.783 256.704 498.871 256.379 498.871 256.038V254.888C498.818 254.952 498.701 255.01 498.52 255.064C498.342 255.113 498.136 255.158 497.902 255.197C497.671 255.232 497.446 255.264 497.225 255.293C497.009 255.317 496.833 255.339 496.698 255.357C496.371 255.399 496.066 255.468 495.782 255.564C495.501 255.657 495.274 255.797 495.1 255.985C494.93 256.17 494.844 256.422 494.844 256.741C494.844 257.178 495.006 257.509 495.329 257.732C495.656 257.952 496.07 258.062 496.57 258.062ZM502.423 259V250.818H503.638V252.054H503.723C503.872 251.649 504.142 251.321 504.532 251.069C504.923 250.816 505.363 250.69 505.853 250.69C505.946 250.69 506.061 250.692 506.2 250.696C506.338 250.699 506.443 250.705 506.514 250.712V251.99C506.471 251.979 506.374 251.963 506.221 251.942C506.072 251.917 505.914 251.905 505.747 251.905C505.349 251.905 504.994 251.988 504.682 252.155C504.373 252.319 504.128 252.546 503.946 252.837C503.769 253.125 503.68 253.453 503.68 253.822V259H502.423ZM508.515 253.737V252.587H515.078V253.737H508.515ZM508.515 256.891V255.74H515.078V256.891H508.515ZM518.317 250.818L520.277 254.163L522.237 250.818H523.686L521.044 254.909L523.686 259H522.237L520.277 255.825L518.317 259H516.868L519.467 254.909L516.868 250.818H518.317ZM471.972 266.091V277H470.693L464.749 268.435H464.642V277H463.321V266.091H464.599L470.565 274.678H470.672V266.091H471.972ZM480.581 268.818C480.517 268.278 480.258 267.859 479.803 267.561C479.349 267.263 478.791 267.114 478.131 267.114C477.648 267.114 477.225 267.192 476.863 267.348C476.504 267.504 476.224 267.719 476.021 267.993C475.822 268.266 475.723 268.577 475.723 268.925C475.723 269.216 475.792 269.466 475.931 269.676C476.073 269.882 476.254 270.054 476.474 270.192C476.694 270.327 476.925 270.439 477.166 270.528C477.408 270.613 477.63 270.683 477.832 270.736L478.94 271.034C479.224 271.109 479.54 271.212 479.888 271.343C480.24 271.474 480.576 271.654 480.895 271.881C481.218 272.105 481.485 272.392 481.694 272.744C481.904 273.096 482.008 273.527 482.008 274.038C482.008 274.628 481.854 275.161 481.545 275.636C481.24 276.112 480.792 276.49 480.203 276.771C479.617 277.051 478.905 277.192 478.067 277.192C477.285 277.192 476.609 277.066 476.037 276.814C475.469 276.561 475.022 276.21 474.695 275.759C474.372 275.308 474.189 274.784 474.146 274.188H475.51C475.545 274.599 475.684 274.94 475.925 275.21C476.17 275.477 476.479 275.675 476.852 275.807C477.229 275.935 477.633 275.999 478.067 275.999C478.571 275.999 479.024 275.917 479.425 275.754C479.826 275.587 480.144 275.356 480.378 275.061C480.613 274.763 480.73 274.415 480.73 274.017C480.73 273.655 480.629 273.36 480.426 273.133C480.224 272.906 479.958 272.721 479.627 272.579C479.297 272.437 478.94 272.312 478.557 272.206L477.214 271.822C476.362 271.577 475.687 271.228 475.19 270.773C474.693 270.319 474.445 269.724 474.445 268.989C474.445 268.378 474.61 267.845 474.94 267.391C475.274 266.933 475.721 266.577 476.282 266.325C476.847 266.07 477.477 265.942 478.173 265.942C478.876 265.942 479.501 266.068 480.048 266.32C480.595 266.569 481.028 266.909 481.348 267.343C481.671 267.776 481.842 268.268 481.859 268.818H480.581ZM487.334 277.17C486.567 277.17 485.906 276.989 485.352 276.627C484.798 276.265 484.372 275.766 484.074 275.13C483.776 274.495 483.626 273.768 483.626 272.952C483.626 272.121 483.779 271.387 484.085 270.752C484.393 270.113 484.823 269.614 485.374 269.255C485.928 268.893 486.574 268.712 487.312 268.712C487.888 268.712 488.406 268.818 488.868 269.031C489.33 269.244 489.708 269.543 490.002 269.926C490.297 270.31 490.48 270.757 490.551 271.268H489.294C489.198 270.896 488.985 270.565 488.655 270.278C488.328 269.987 487.888 269.841 487.334 269.841C486.844 269.841 486.414 269.969 486.045 270.224C485.679 270.477 485.393 270.833 485.187 271.295C484.985 271.753 484.884 272.291 484.884 272.909C484.884 273.541 484.983 274.092 485.182 274.56C485.384 275.029 485.668 275.393 486.034 275.652C486.403 275.912 486.837 276.041 487.334 276.041C487.661 276.041 487.957 275.984 488.223 275.871C488.49 275.757 488.715 275.594 488.9 275.381C489.085 275.168 489.216 274.912 489.294 274.614H490.551C490.48 275.097 490.304 275.532 490.024 275.919C489.747 276.302 489.379 276.608 488.921 276.835C488.467 277.059 487.938 277.17 487.334 277.17ZM494.797 277.192C494.278 277.192 493.808 277.094 493.385 276.899C492.962 276.7 492.627 276.414 492.378 276.041C492.13 275.665 492.005 275.21 492.005 274.678C492.005 274.209 492.098 273.829 492.282 273.538C492.467 273.243 492.714 273.012 493.023 272.845C493.332 272.678 493.673 272.554 494.045 272.472C494.422 272.387 494.8 272.32 495.18 272.27C495.677 272.206 496.08 272.158 496.389 272.126C496.702 272.091 496.929 272.032 497.071 271.95C497.217 271.869 497.289 271.727 497.289 271.524V271.482C497.289 270.956 497.146 270.548 496.858 270.256C496.574 269.965 496.142 269.82 495.564 269.82C494.963 269.82 494.493 269.951 494.152 270.214C493.811 270.477 493.571 270.757 493.433 271.055L492.24 270.629C492.453 270.132 492.737 269.745 493.092 269.468C493.451 269.187 493.841 268.992 494.264 268.882C494.69 268.768 495.109 268.712 495.521 268.712C495.784 268.712 496.086 268.744 496.426 268.808C496.771 268.868 497.103 268.994 497.423 269.186C497.746 269.377 498.014 269.667 498.227 270.054C498.44 270.441 498.547 270.96 498.547 271.609V277H497.289V275.892H497.225C497.14 276.07 496.998 276.26 496.799 276.462C496.6 276.664 496.336 276.837 496.006 276.979C495.675 277.121 495.272 277.192 494.797 277.192ZM494.988 276.062C495.485 276.062 495.904 275.965 496.245 275.77C496.59 275.574 496.849 275.322 497.023 275.013C497.201 274.704 497.289 274.379 497.289 274.038V272.888C497.236 272.952 497.119 273.01 496.938 273.064C496.76 273.113 496.554 273.158 496.32 273.197C496.089 273.232 495.864 273.264 495.643 273.293C495.427 273.317 495.251 273.339 495.116 273.357C494.789 273.399 494.484 273.468 494.2 273.564C493.919 273.657 493.692 273.797 493.518 273.985C493.348 274.17 493.262 274.422 493.262 274.741C493.262 275.178 493.424 275.509 493.747 275.732C494.074 275.952 494.488 276.062 494.988 276.062ZM500.841 277V268.818H502.055V270.054H502.141C502.29 269.649 502.56 269.321 502.95 269.069C503.341 268.816 503.781 268.69 504.271 268.69C504.364 268.69 504.479 268.692 504.618 268.696C504.756 268.699 504.861 268.705 504.932 268.712V269.99C504.889 269.979 504.792 269.963 504.639 269.942C504.49 269.917 504.332 269.905 504.165 269.905C503.767 269.905 503.412 269.988 503.1 270.155C502.791 270.319 502.546 270.546 502.364 270.837C502.187 271.125 502.098 271.453 502.098 271.822V277H500.841ZM506.933 271.737V270.587H513.496V271.737H506.933ZM506.933 274.891V273.74H513.496V274.891H506.933ZM519.847 277.149C519.044 277.149 518.361 276.931 517.796 276.494C517.231 276.054 516.8 275.416 516.502 274.582C516.203 273.744 516.054 272.732 516.054 271.545C516.054 270.366 516.203 269.36 516.502 268.525C516.803 267.687 517.237 267.048 517.801 266.608C518.369 266.164 519.051 265.942 519.847 265.942C520.642 265.942 521.322 266.164 521.887 266.608C522.455 267.048 522.888 267.687 523.187 268.525C523.488 269.36 523.639 270.366 523.639 271.545C523.639 272.732 523.49 273.744 523.192 274.582C522.894 275.416 522.462 276.054 521.897 276.494C521.333 276.931 520.649 277.149 519.847 277.149ZM519.847 275.977C520.642 275.977 521.26 275.594 521.7 274.827C522.141 274.06 522.361 272.966 522.361 271.545C522.361 270.601 522.26 269.797 522.057 269.132C521.858 268.468 521.571 267.962 521.194 267.614C520.821 267.266 520.372 267.092 519.847 267.092C519.058 267.092 518.442 267.481 517.998 268.259C517.554 269.033 517.332 270.129 517.332 271.545C517.332 272.49 517.432 273.293 517.631 273.953C517.83 274.614 518.116 275.116 518.488 275.461C518.865 275.805 519.318 275.977 519.847 275.977Z" fill="black"/>
<path d="M274.321 247V236.091H280.905V237.263H275.642V240.949H280.564V242.121H275.642V245.828H280.99V247H274.321ZM285.267 247L282.284 236.091H283.627L285.907 244.976H286.013L288.336 236.091H289.827L292.15 244.976H292.256L294.536 236.091H295.878L292.895 247H291.532L289.124 238.307H289.039L286.631 247H285.267ZM299.916 247.17C299.149 247.17 298.488 246.989 297.934 246.627C297.38 246.265 296.954 245.766 296.656 245.13C296.358 244.495 296.208 243.768 296.208 242.952C296.208 242.121 296.361 241.387 296.667 240.752C296.975 240.113 297.405 239.614 297.956 239.255C298.51 238.893 299.156 238.712 299.895 238.712C300.47 238.712 300.988 238.818 301.45 239.031C301.912 239.244 302.29 239.543 302.585 239.926C302.879 240.31 303.062 240.757 303.133 241.268H301.876C301.78 240.896 301.567 240.565 301.237 240.278C300.91 239.987 300.47 239.841 299.916 239.841C299.426 239.841 298.996 239.969 298.627 240.224C298.261 240.477 297.975 240.833 297.769 241.295C297.567 241.753 297.466 242.291 297.466 242.909C297.466 243.541 297.565 244.092 297.764 244.56C297.966 245.029 298.25 245.393 298.616 245.652C298.985 245.912 299.419 246.041 299.916 246.041C300.243 246.041 300.539 245.984 300.805 245.871C301.072 245.757 301.297 245.594 301.482 245.381C301.667 245.168 301.798 244.912 301.876 244.614H303.133C303.062 245.097 302.886 245.532 302.606 245.919C302.329 246.302 301.961 246.608 301.503 246.835C301.049 247.059 300.52 247.17 299.916 247.17ZM307.379 247.192C306.86 247.192 306.39 247.094 305.967 246.899C305.544 246.7 305.209 246.414 304.96 246.041C304.712 245.665 304.587 245.21 304.587 244.678C304.587 244.209 304.68 243.829 304.864 243.538C305.049 243.243 305.296 243.012 305.605 242.845C305.914 242.678 306.255 242.554 306.627 242.472C307.004 242.387 307.382 242.32 307.762 242.27C308.259 242.206 308.662 242.158 308.971 242.126C309.284 242.091 309.511 242.032 309.653 241.95C309.799 241.869 309.871 241.727 309.871 241.524V241.482C309.871 240.956 309.728 240.548 309.44 240.256C309.156 239.965 308.724 239.82 308.146 239.82C307.545 239.82 307.075 239.951 306.734 240.214C306.393 240.477 306.153 240.757 306.015 241.055L304.822 240.629C305.035 240.132 305.319 239.745 305.674 239.468C306.033 239.187 306.423 238.992 306.846 238.882C307.272 238.768 307.691 238.712 308.103 238.712C308.366 238.712 308.668 238.744 309.009 238.808C309.353 238.868 309.685 238.994 310.005 239.186C310.328 239.377 310.596 239.667 310.809 240.054C311.022 240.441 311.129 240.96 311.129 241.609V247H309.871V245.892H309.808C309.722 246.07 309.58 246.26 309.381 246.462C309.183 246.664 308.918 246.837 308.588 246.979C308.257 247.121 307.854 247.192 307.379 247.192ZM307.57 246.062C308.067 246.062 308.487 245.965 308.827 245.77C309.172 245.574 309.431 245.322 309.605 245.013C309.783 244.704 309.871 244.379 309.871 244.038V242.888C309.818 242.952 309.701 243.01 309.52 243.064C309.342 243.113 309.136 243.158 308.902 243.197C308.671 243.232 308.446 243.264 308.225 243.293C308.009 243.317 307.833 243.339 307.698 243.357C307.371 243.399 307.066 243.468 306.782 243.564C306.501 243.657 306.274 243.797 306.1 243.985C305.93 244.17 305.844 244.422 305.844 244.741C305.844 245.178 306.006 245.509 306.329 245.732C306.656 245.952 307.07 246.062 307.57 246.062ZM313.423 247V238.818H314.638V240.054H314.723C314.872 239.649 315.142 239.321 315.532 239.069C315.923 238.816 316.363 238.69 316.853 238.69C316.946 238.69 317.061 238.692 317.2 238.696C317.338 238.699 317.443 238.705 317.514 238.712V239.99C317.471 239.979 317.374 239.963 317.221 239.942C317.072 239.917 316.914 239.905 316.747 239.905C316.349 239.905 315.994 239.988 315.682 240.155C315.373 240.319 315.128 240.546 314.946 240.837C314.769 241.125 314.68 241.453 314.68 241.822V247H313.423ZM319.515 241.737V240.587H326.078V241.737H319.515ZM319.515 244.891V243.74H326.078V244.891H319.515ZM329.317 238.818L331.277 242.163L333.237 238.818H334.686L332.044 242.909L334.686 247H333.237L331.277 243.825L329.317 247H327.868L330.467 242.909L327.868 238.818H329.317ZM282.972 254.091V265H281.693L275.749 256.435H275.642V265H274.321V254.091H275.599L281.565 262.678H281.672V254.091H282.972ZM291.581 256.818C291.517 256.278 291.258 255.859 290.803 255.561C290.349 255.263 289.791 255.114 289.131 255.114C288.648 255.114 288.225 255.192 287.863 255.348C287.504 255.504 287.224 255.719 287.021 255.993C286.822 256.266 286.723 256.577 286.723 256.925C286.723 257.216 286.792 257.466 286.931 257.676C287.073 257.882 287.254 258.054 287.474 258.192C287.694 258.327 287.925 258.439 288.166 258.528C288.408 258.613 288.63 258.683 288.832 258.736L289.94 259.034C290.224 259.109 290.54 259.212 290.888 259.343C291.24 259.474 291.576 259.654 291.895 259.881C292.218 260.105 292.485 260.392 292.694 260.744C292.904 261.096 293.008 261.527 293.008 262.038C293.008 262.628 292.854 263.161 292.545 263.636C292.24 264.112 291.792 264.49 291.203 264.771C290.617 265.051 289.905 265.192 289.067 265.192C288.285 265.192 287.609 265.066 287.037 264.814C286.469 264.561 286.022 264.21 285.695 263.759C285.372 263.308 285.189 262.784 285.146 262.188H286.51C286.545 262.599 286.684 262.94 286.925 263.21C287.17 263.477 287.479 263.675 287.852 263.807C288.229 263.935 288.633 263.999 289.067 263.999C289.571 263.999 290.024 263.917 290.425 263.754C290.826 263.587 291.144 263.356 291.378 263.061C291.613 262.763 291.73 262.415 291.73 262.017C291.73 261.655 291.629 261.36 291.426 261.133C291.224 260.906 290.958 260.721 290.627 260.579C290.297 260.437 289.94 260.312 289.557 260.206L288.214 259.822C287.362 259.577 286.687 259.228 286.19 258.773C285.693 258.319 285.445 257.724 285.445 256.989C285.445 256.378 285.61 255.845 285.94 255.391C286.274 254.933 286.721 254.577 287.282 254.325C287.847 254.07 288.477 253.942 289.173 253.942C289.876 253.942 290.501 254.068 291.048 254.32C291.595 254.569 292.028 254.909 292.348 255.343C292.671 255.776 292.842 256.268 292.859 256.818H291.581ZM298.334 265.17C297.567 265.17 296.906 264.989 296.352 264.627C295.798 264.265 295.372 263.766 295.074 263.13C294.776 262.495 294.626 261.768 294.626 260.952C294.626 260.121 294.779 259.387 295.085 258.752C295.393 258.113 295.823 257.614 296.374 257.255C296.928 256.893 297.574 256.712 298.312 256.712C298.888 256.712 299.406 256.818 299.868 257.031C300.33 257.244 300.708 257.543 301.002 257.926C301.297 258.31 301.48 258.757 301.551 259.268H300.294C300.198 258.896 299.985 258.565 299.655 258.278C299.328 257.987 298.888 257.841 298.334 257.841C297.844 257.841 297.414 257.969 297.045 258.224C296.679 258.477 296.393 258.833 296.187 259.295C295.985 259.753 295.884 260.291 295.884 260.909C295.884 261.541 295.983 262.092 296.182 262.56C296.384 263.029 296.668 263.393 297.034 263.652C297.403 263.912 297.837 264.041 298.334 264.041C298.661 264.041 298.957 263.984 299.223 263.871C299.49 263.757 299.715 263.594 299.9 263.381C300.085 263.168 300.216 262.912 300.294 262.614H301.551C301.48 263.097 301.304 263.532 301.024 263.919C300.747 264.302 300.379 264.608 299.921 264.835C299.467 265.059 298.938 265.17 298.334 265.17ZM305.797 265.192C305.278 265.192 304.808 265.094 304.385 264.899C303.962 264.7 303.627 264.414 303.378 264.041C303.13 263.665 303.005 263.21 303.005 262.678C303.005 262.209 303.098 261.829 303.282 261.538C303.467 261.243 303.714 261.012 304.023 260.845C304.332 260.678 304.673 260.554 305.045 260.472C305.422 260.387 305.8 260.32 306.18 260.27C306.677 260.206 307.08 260.158 307.389 260.126C307.702 260.091 307.929 260.032 308.071 259.95C308.217 259.869 308.289 259.727 308.289 259.524V259.482C308.289 258.956 308.146 258.548 307.858 258.256C307.574 257.965 307.142 257.82 306.564 257.82C305.963 257.82 305.493 257.951 305.152 258.214C304.811 258.477 304.571 258.757 304.433 259.055L303.24 258.629C303.453 258.132 303.737 257.745 304.092 257.468C304.451 257.187 304.841 256.992 305.264 256.882C305.69 256.768 306.109 256.712 306.521 256.712C306.784 256.712 307.086 256.744 307.426 256.808C307.771 256.868 308.103 256.994 308.423 257.186C308.746 257.377 309.014 257.667 309.227 258.054C309.44 258.441 309.547 258.96 309.547 259.609V265H308.289V263.892H308.225C308.14 264.07 307.998 264.26 307.799 264.462C307.6 264.664 307.336 264.837 307.006 264.979C306.675 265.121 306.272 265.192 305.797 265.192ZM305.988 264.062C306.485 264.062 306.904 263.965 307.245 263.77C307.59 263.574 307.849 263.322 308.023 263.013C308.201 262.704 308.289 262.379 308.289 262.038V260.888C308.236 260.952 308.119 261.01 307.938 261.064C307.76 261.113 307.554 261.158 307.32 261.197C307.089 261.232 306.864 261.264 306.643 261.293C306.427 261.317 306.251 261.339 306.116 261.357C305.789 261.399 305.484 261.468 305.2 261.564C304.919 261.657 304.692 261.797 304.518 261.985C304.348 262.17 304.262 262.422 304.262 262.741C304.262 263.178 304.424 263.509 304.747 263.732C305.074 263.952 305.488 264.062 305.988 264.062ZM311.841 265V256.818H313.055V258.054H313.141C313.29 257.649 313.56 257.321 313.95 257.069C314.341 256.816 314.781 256.69 315.271 256.69C315.364 256.69 315.479 256.692 315.618 256.696C315.756 256.699 315.861 256.705 315.932 256.712V257.99C315.889 257.979 315.792 257.963 315.639 257.942C315.49 257.917 315.332 257.905 315.165 257.905C314.767 257.905 314.412 257.988 314.1 258.155C313.791 258.319 313.546 258.546 313.364 258.837C313.187 259.125 313.098 259.453 313.098 259.822V265H311.841ZM317.933 259.737V258.587H324.496V259.737H317.933ZM317.933 262.891V261.74H324.496V262.891H317.933ZM331.124 254.091V265H329.803V255.476H329.739L327.075 257.244V255.902L329.803 254.091H331.124Z" fill="black"/>
<path d="M274.321 71V60.0909H280.905V61.2628H275.642V64.9489H280.564V66.1207H275.642V69.8281H280.99V71H274.321ZM285.267 71L282.284 60.0909H283.627L285.907 68.9759H286.013L288.336 60.0909H289.827L292.15 68.9759H292.256L294.536 60.0909H295.878L292.895 71H291.532L289.124 62.3068H289.039L286.631 71H285.267ZM299.916 71.1705C299.149 71.1705 298.488 70.9893 297.934 70.6271C297.38 70.2649 296.954 69.766 296.656 69.1303C296.358 68.4947 296.208 67.7685 296.208 66.9517C296.208 66.1207 296.361 65.3874 296.667 64.7518C296.975 64.1126 297.405 63.6136 297.956 63.255C298.51 62.8928 299.156 62.7116 299.895 62.7116C300.47 62.7116 300.988 62.8182 301.45 63.0312C301.912 63.2443 302.29 63.5426 302.585 63.9261C302.879 64.3097 303.062 64.7571 303.133 65.2685H301.876C301.78 64.8956 301.567 64.5653 301.237 64.2777C300.91 63.9865 300.47 63.8409 299.916 63.8409C299.426 63.8409 298.996 63.9687 298.627 64.2244C298.261 64.4766 297.975 64.8335 297.769 65.2951C297.567 65.7532 297.466 66.2912 297.466 66.9091C297.466 67.5412 297.565 68.0916 297.764 68.5604C297.966 69.0291 298.25 69.3931 298.616 69.6523C298.985 69.9116 299.419 70.0412 299.916 70.0412C300.243 70.0412 300.539 69.9844 300.805 69.8707C301.072 69.7571 301.297 69.5938 301.482 69.3807C301.667 69.1676 301.798 68.9119 301.876 68.6136H303.133C303.062 69.0966 302.886 69.5316 302.606 69.9187C302.329 70.3022 301.961 70.6076 301.503 70.8349C301.049 71.0586 300.52 71.1705 299.916 71.1705ZM307.379 71.1918C306.86 71.1918 306.39 71.0941 305.967 70.8988C305.544 70.6999 305.209 70.4141 304.96 70.0412C304.712 69.6648 304.587 69.2102 304.587 68.6776C304.587 68.2088 304.68 67.8288 304.864 67.5376C305.049 67.2429 305.296 67.0121 305.605 66.8452C305.914 66.6783 306.255 66.554 306.627 66.4723C307.004 66.3871 307.382 66.3196 307.762 66.2699C308.259 66.206 308.662 66.158 308.971 66.1261C309.284 66.0906 309.511 66.032 309.653 65.9503C309.799 65.8686 309.871 65.7266 309.871 65.5241V65.4815C309.871 64.956 309.728 64.5476 309.44 64.2564C309.156 63.9652 308.724 63.8196 308.146 63.8196C307.545 63.8196 307.075 63.951 306.734 64.2138C306.393 64.4766 306.153 64.7571 306.015 65.0554L304.822 64.6293C305.035 64.1321 305.319 63.745 305.674 63.468C306.033 63.1875 306.423 62.9922 306.846 62.8821C307.272 62.7685 307.691 62.7116 308.103 62.7116C308.366 62.7116 308.668 62.7436 309.009 62.8075C309.353 62.8679 309.685 62.994 310.005 63.1857C310.328 63.3775 310.596 63.6669 310.809 64.054C311.022 64.4411 311.129 64.9595 311.129 65.6094V71H309.871V69.892H309.808C309.722 70.0696 309.58 70.2596 309.381 70.462C309.183 70.6644 308.918 70.8366 308.588 70.9787C308.257 71.1207 307.854 71.1918 307.379 71.1918ZM307.57 70.0625C308.067 70.0625 308.487 69.9648 308.827 69.7695C309.172 69.5742 309.431 69.3221 309.605 69.0131C309.783 68.7042 309.871 68.3793 309.871 68.0384V66.8878C309.818 66.9517 309.701 67.0103 309.52 67.0636C309.342 67.1133 309.136 67.1577 308.902 67.1967C308.671 67.2322 308.446 67.2642 308.225 67.2926C308.009 67.3175 307.833 67.3388 307.698 67.3565C307.371 67.3991 307.066 67.4684 306.782 67.5643C306.501 67.6566 306.274 67.7969 306.1 67.9851C305.93 68.1697 305.844 68.4219 305.844 68.7415C305.844 69.1783 306.006 69.5085 306.329 69.7322C306.656 69.9524 307.07 70.0625 307.57 70.0625ZM313.423 71V62.8182H314.638V64.054H314.723C314.872 63.6491 315.142 63.3207 315.532 63.0685C315.923 62.8164 316.363 62.6903 316.853 62.6903C316.946 62.6903 317.061 62.6921 317.2 62.6957C317.338 62.6992 317.443 62.7045 317.514 62.7116V63.9901C317.471 63.9794 317.374 63.9634 317.221 63.9421C317.072 63.9173 316.914 63.9048 316.747 63.9048C316.349 63.9048 315.994 63.9883 315.682 64.1552C315.373 64.3185 315.128 64.5458 314.946 64.837C314.769 65.1246 314.68 65.4531 314.68 65.8224V71H313.423ZM319.515 65.7372V64.5866H326.078V65.7372H319.515ZM319.515 68.8906V67.7401H326.078V68.8906H319.515ZM332.706 60.0909V71H331.385V61.4759H331.321L328.657 63.2443V61.902L331.385 60.0909H332.706ZM282.972 78.0909V89H281.693L275.749 80.4347H275.642V89H274.321V78.0909H275.599L281.565 86.6776H281.672V78.0909H282.972ZM291.581 80.8182C291.517 80.2784 291.258 79.8594 290.803 79.5611C290.349 79.2628 289.791 79.1136 289.131 79.1136C288.648 79.1136 288.225 79.1918 287.863 79.348C287.504 79.5043 287.224 79.7191 287.021 79.9925C286.822 80.266 286.723 80.5767 286.723 80.9247C286.723 81.2159 286.792 81.4663 286.931 81.6758C287.073 81.8817 287.254 82.054 287.474 82.1925C287.694 82.3274 287.925 82.4393 288.166 82.5281C288.408 82.6133 288.63 82.6825 288.832 82.7358L289.94 83.0341C290.224 83.1087 290.54 83.2116 290.888 83.343C291.24 83.4744 291.576 83.6538 291.895 83.881C292.218 84.1048 292.485 84.3924 292.694 84.744C292.904 85.0955 293.008 85.527 293.008 86.0384C293.008 86.6278 292.854 87.1605 292.545 87.6364C292.24 88.1122 291.792 88.4904 291.203 88.771C290.617 89.0515 289.905 89.1918 289.067 89.1918C288.285 89.1918 287.609 89.0657 287.037 88.8136C286.469 88.5614 286.022 88.2099 285.695 87.7589C285.372 87.3079 285.189 86.7841 285.146 86.1875H286.51C286.545 86.5994 286.684 86.9403 286.925 87.2102C287.17 87.4766 287.479 87.6754 287.852 87.8068C288.229 87.9347 288.633 87.9986 289.067 87.9986C289.571 87.9986 290.024 87.9169 290.425 87.7536C290.826 87.5866 291.144 87.3558 291.378 87.0611C291.613 86.7628 291.73 86.4148 291.73 86.017C291.73 85.6548 291.629 85.3601 291.426 85.1328C291.224 84.9055 290.958 84.7209 290.627 84.5788C290.297 84.4368 289.94 84.3125 289.557 84.206L288.214 83.8224C287.362 83.5774 286.687 83.2276 286.19 82.7731C285.693 82.3185 285.445 81.7237 285.445 80.9886C285.445 80.3778 285.61 79.8452 285.94 79.3906C286.274 78.9325 286.721 78.5774 287.282 78.3253C287.847 78.0696 288.477 77.9418 289.173 77.9418C289.876 77.9418 290.501 78.0678 291.048 78.32C291.595 78.5685 292.028 78.9094 292.348 79.3427C292.671 79.7759 292.842 80.2678 292.859 80.8182H291.581ZM298.334 89.1705C297.567 89.1705 296.906 88.9893 296.352 88.6271C295.798 88.2649 295.372 87.766 295.074 87.1303C294.776 86.4947 294.626 85.7685 294.626 84.9517C294.626 84.1207 294.779 83.3874 295.085 82.7518C295.393 82.1126 295.823 81.6136 296.374 81.255C296.928 80.8928 297.574 80.7116 298.312 80.7116C298.888 80.7116 299.406 80.8182 299.868 81.0312C300.33 81.2443 300.708 81.5426 301.002 81.9261C301.297 82.3097 301.48 82.7571 301.551 83.2685H300.294C300.198 82.8956 299.985 82.5653 299.655 82.2777C299.328 81.9865 298.888 81.8409 298.334 81.8409C297.844 81.8409 297.414 81.9687 297.045 82.2244C296.679 82.4766 296.393 82.8335 296.187 83.2951C295.985 83.7532 295.884 84.2912 295.884 84.9091C295.884 85.5412 295.983 86.0916 296.182 86.5604C296.384 87.0291 296.668 87.3931 297.034 87.6523C297.403 87.9116 297.837 88.0412 298.334 88.0412C298.661 88.0412 298.957 87.9844 299.223 87.8707C299.49 87.7571 299.715 87.5938 299.9 87.3807C300.085 87.1676 300.216 86.9119 300.294 86.6136H301.551C301.48 87.0966 301.304 87.5316 301.024 87.9187C300.747 88.3022 300.379 88.6076 299.921 88.8349C299.467 89.0586 298.938 89.1705 298.334 89.1705ZM305.797 89.1918C305.278 89.1918 304.808 89.0941 304.385 88.8988C303.962 88.6999 303.627 88.4141 303.378 88.0412C303.13 87.6648 303.005 87.2102 303.005 86.6776C303.005 86.2088 303.098 85.8288 303.282 85.5376C303.467 85.2429 303.714 85.0121 304.023 84.8452C304.332 84.6783 304.673 84.554 305.045 84.4723C305.422 84.3871 305.8 84.3196 306.18 84.2699C306.677 84.206 307.08 84.158 307.389 84.1261C307.702 84.0906 307.929 84.032 308.071 83.9503C308.217 83.8686 308.289 83.7266 308.289 83.5241V83.4815C308.289 82.956 308.146 82.5476 307.858 82.2564C307.574 81.9652 307.142 81.8196 306.564 81.8196C305.963 81.8196 305.493 81.951 305.152 82.2138C304.811 82.4766 304.571 82.7571 304.433 83.0554L303.24 82.6293C303.453 82.1321 303.737 81.745 304.092 81.468C304.451 81.1875 304.841 80.9922 305.264 80.8821C305.69 80.7685 306.109 80.7116 306.521 80.7116C306.784 80.7116 307.086 80.7436 307.426 80.8075C307.771 80.8679 308.103 80.994 308.423 81.1857C308.746 81.3775 309.014 81.6669 309.227 82.054C309.44 82.4411 309.547 82.9595 309.547 83.6094V89H308.289V87.892H308.225C308.14 88.0696 307.998 88.2596 307.799 88.462C307.6 88.6644 307.336 88.8366 307.006 88.9787C306.675 89.1207 306.272 89.1918 305.797 89.1918ZM305.988 88.0625C306.485 88.0625 306.904 87.9648 307.245 87.7695C307.59 87.5742 307.849 87.3221 308.023 87.0131C308.201 86.7042 308.289 86.3793 308.289 86.0384V84.8878C308.236 84.9517 308.119 85.0103 307.938 85.0636C307.76 85.1133 307.554 85.1577 307.32 85.1967C307.089 85.2322 306.864 85.2642 306.643 85.2926C306.427 85.3175 306.251 85.3388 306.116 85.3565C305.789 85.3991 305.484 85.4684 305.2 85.5643C304.919 85.6566 304.692 85.7969 304.518 85.9851C304.348 86.1697 304.262 86.4219 304.262 86.7415C304.262 87.1783 304.424 87.5085 304.747 87.7322C305.074 87.9524 305.488 88.0625 305.988 88.0625ZM311.841 89V80.8182H313.055V82.054H313.141C313.29 81.6491 313.56 81.3207 313.95 81.0685C314.341 80.8164 314.781 80.6903 315.271 80.6903C315.364 80.6903 315.479 80.6921 315.618 80.6957C315.756 80.6992 315.861 80.7045 315.932 80.7116V81.9901C315.889 81.9794 315.792 81.9634 315.639 81.9421C315.49 81.9173 315.332 81.9048 315.165 81.9048C314.767 81.9048 314.412 81.9883 314.1 82.1552C313.791 82.3185 313.546 82.5458 313.364 82.837C313.187 83.1246 313.098 83.4531 313.098 83.8224V89H311.841ZM317.933 83.7372V82.5866H324.496V83.7372H317.933ZM317.933 86.8906V85.7401H324.496V86.8906H317.933ZM327.735 80.8182L329.695 84.1634L331.655 80.8182H333.104L330.462 84.9091L333.104 89H331.655L329.695 85.8253L327.735 89H326.286L328.885 84.9091L326.286 80.8182H327.735Z" fill="black"/>
<path d="M211.471 198.5C210.919 198.516 210.485 198.977 210.5 199.529L210.759 208.525C210.775 209.077 211.235 209.512 211.787 209.496C212.339 209.48 212.774 209.02 212.758 208.468L212.528 200.471L220.525 200.241C221.077 200.225 221.512 199.765 221.496 199.213C221.48 198.661 221.02 198.226 220.468 198.242L211.471 198.5ZM396.915 198.689C379.44 211.278 349.193 226.4 315.333 230.808C281.504 235.212 244.12 228.921 212.186 198.773L210.814 200.227C243.28 230.879 281.312 237.254 315.592 232.792C349.84 228.333 380.393 213.056 398.085 200.311L396.915 198.689Z" fill="black"/>
<path d="M396.487 126.41C396.576 126.956 396.206 127.469 395.66 127.558L386.777 129.002C386.232 129.09 385.718 128.72 385.63 128.175C385.541 127.63 385.911 127.116 386.456 127.028L394.353 125.744L393.069 117.848C392.98 117.303 393.351 116.789 393.896 116.7C394.441 116.612 394.955 116.982 395.043 117.527L396.487 126.41ZM394.915 127.382C377.44 114.793 347.193 99.6705 313.333 95.2625C279.504 90.8584 242.12 97.1497 210.186 127.298L208.814 125.844C241.28 95.192 279.312 88.8166 313.592 93.2792C347.84 97.7378 378.393 113.015 396.085 125.759L394.915 127.382Z" fill="black"/>
</svg>
