<svg width="500" height="250" viewBox="0 0 500 250" fill="none" xmlns="http://www.w3.org/2000/svg">
<path d="M125.104 19.6464C124.908 19.4512 124.592 19.4512 124.396 19.6464L121.214 22.8284C121.019 23.0237 121.019 23.3403 121.214 23.5355C121.41 23.7308 121.726 23.7308 121.922 23.5355L124.75 20.7071L127.578 23.5355C127.774 23.7308 128.09 23.7308 128.286 23.5355C128.481 23.3403 128.481 23.0237 128.286 22.8284L125.104 19.6464ZM124.25 229.5C124.25 229.776 124.474 230 124.75 230C125.026 230 125.25 229.776 125.25 229.5H124.25ZM124.25 20V229.5H125.25V20H124.25Z" fill="black"/>
<path d="M20 124.25C19.7239 124.25 19.5 124.474 19.5 124.75C19.5 125.026 19.7239 125.25 20 125.25L20 124.25ZM229.854 125.104C230.049 124.908 230.049 124.592 229.854 124.396L226.672 121.214C226.476 121.019 226.16 121.019 225.964 121.214C225.769 121.41 225.769 121.726 225.964 121.922L228.793 124.75L225.964 127.578C225.769 127.774 225.769 128.09 225.964 128.286C226.16 128.481 226.476 128.481 226.672 128.286L229.854 125.104ZM20 125.25L229.5 125.25L229.5 124.25L20 124.25L20 125.25Z" fill="black"/>
<path d="M194.994 124.5C194.607 102.725 179.766 59.2338 125 55.0371M180.137 83.6738C190.555 97.6487 194.301 113.754 194.494 124.5H175.461C173.756 104.03 164.946 91.4022 154.592 83.9566C144.409 76.6341 132.766 74.3472 125 74.4872V65V55.5386C152.344 57.6438 169.637 69.5896 180.137 83.6738Z" fill="#D9D9D9" stroke="black"/>
<path d="M95 95H210.5" stroke="black" stroke-dasharray="2 2"/>
<path d="M95 67H210.5" stroke="black" stroke-dasharray="2 2"/>
<path d="M152.75 144.75L152.75 29.25" stroke="black" stroke-dasharray="2 2"/>
<path d="M183.75 144.75L183.75 29.25" stroke="black" stroke-dasharray="2 2"/>
<path d="M374.5 67L432.75 67" stroke="black" stroke-dasharray="2 2"/>
<path d="M172.753 137V136.361L175.153 133.733C175.435 133.425 175.667 133.158 175.849 132.93C176.032 132.701 176.167 132.485 176.254 132.284C176.344 132.08 176.389 131.867 176.389 131.645C176.389 131.389 176.328 131.168 176.205 130.981C176.084 130.794 175.918 130.649 175.707 130.548C175.497 130.446 175.26 130.395 174.997 130.395C174.718 130.395 174.474 130.453 174.266 130.569C174.06 130.683 173.9 130.842 173.786 131.048C173.675 131.254 173.619 131.496 173.619 131.773H172.781C172.781 131.347 172.879 130.973 173.076 130.651C173.272 130.329 173.54 130.078 173.879 129.898C174.219 129.718 174.602 129.628 175.026 129.628C175.452 129.628 175.829 129.718 176.158 129.898C176.487 130.078 176.746 130.32 176.933 130.626C177.12 130.931 177.213 131.271 177.213 131.645C177.213 131.912 177.165 132.174 177.067 132.43C176.973 132.683 176.807 132.966 176.57 133.278C176.336 133.589 176.01 133.967 175.594 134.415L173.96 136.162V136.219H177.341V137H172.753Z" fill="black"/>
<path d="M196.21 137.099C195.741 137.099 195.324 137.019 194.957 136.858C194.592 136.697 194.302 136.473 194.087 136.187C193.874 135.898 193.758 135.563 193.739 135.182H194.634C194.652 135.416 194.733 135.619 194.875 135.789C195.017 135.957 195.203 136.087 195.433 136.18C195.662 136.272 195.917 136.318 196.196 136.318C196.509 136.318 196.786 136.264 197.027 136.155C197.268 136.046 197.458 135.894 197.595 135.7C197.732 135.506 197.801 135.281 197.801 135.026C197.801 134.758 197.735 134.522 197.602 134.319C197.47 134.113 197.276 133.952 197.02 133.836C196.764 133.72 196.452 133.662 196.082 133.662H195.5V132.881H196.082C196.371 132.881 196.625 132.829 196.842 132.724C197.063 132.62 197.234 132.473 197.357 132.284C197.483 132.095 197.545 131.872 197.545 131.616C197.545 131.37 197.491 131.156 197.382 130.974C197.273 130.791 197.119 130.649 196.92 130.548C196.724 130.446 196.492 130.395 196.224 130.395C195.973 130.395 195.737 130.441 195.514 130.533C195.294 130.623 195.114 130.755 194.974 130.928C194.835 131.098 194.759 131.304 194.747 131.545H193.895C193.909 131.164 194.024 130.83 194.239 130.544C194.455 130.255 194.737 130.03 195.085 129.869C195.435 129.708 195.82 129.628 196.239 129.628C196.688 129.628 197.074 129.719 197.396 129.901C197.718 130.081 197.966 130.319 198.138 130.615C198.311 130.911 198.398 131.231 198.398 131.574C198.398 131.983 198.29 132.333 198.075 132.621C197.862 132.91 197.571 133.11 197.205 133.222V133.278C197.664 133.354 198.022 133.549 198.281 133.864C198.539 134.177 198.668 134.564 198.668 135.026C198.668 135.421 198.56 135.776 198.344 136.091C198.131 136.403 197.84 136.65 197.471 136.83C197.102 137.009 196.681 137.099 196.21 137.099Z" fill="black"/>
<path d="M375.104 19.6464C374.908 19.4512 374.592 19.4512 374.396 19.6464L371.214 22.8284C371.019 23.0237 371.019 23.3403 371.214 23.5355C371.41 23.7308 371.726 23.7308 371.922 23.5355L374.75 20.7071L377.578 23.5355C377.774 23.7308 378.09 23.7308 378.286 23.5355C378.481 23.3403 378.481 23.0237 378.286 22.8284L375.104 19.6464ZM374.25 229.5C374.25 229.776 374.474 230 374.75 230C375.026 230 375.25 229.776 375.25 229.5H374.25ZM374.25 20V229.5H375.25V20H374.25Z" fill="black"/>
<path d="M270 124.25C269.724 124.25 269.5 124.474 269.5 124.75C269.5 125.026 269.724 125.25 270 125.25L270 124.25ZM479.854 125.104C480.049 124.908 480.049 124.592 479.854 124.396L476.672 121.214C476.476 121.019 476.16 121.019 475.964 121.214C475.769 121.41 475.769 121.726 475.964 121.922L478.793 124.75L475.964 127.578C475.769 127.774 475.769 128.09 475.964 128.286C476.16 128.481 476.476 128.481 476.672 128.286L479.854 125.104ZM270 125.25L479.5 125.25L479.5 124.25L270 124.25L270 125.25Z" fill="black"/>
<path d="M444.5 67V124.5H426V67H444.5Z" fill="#D9D9D9" stroke="black"/>
<path d="M422.753 137V136.361L425.153 133.733C425.435 133.425 425.667 133.158 425.849 132.93C426.032 132.701 426.167 132.485 426.254 132.284C426.344 132.08 426.389 131.867 426.389 131.645C426.389 131.389 426.328 131.168 426.205 130.981C426.084 130.794 425.918 130.649 425.707 130.548C425.497 130.446 425.26 130.395 424.997 130.395C424.718 130.395 424.474 130.453 424.266 130.569C424.06 130.683 423.9 130.842 423.786 131.048C423.675 131.254 423.619 131.496 423.619 131.773H422.781C422.781 131.347 422.879 130.973 423.076 130.651C423.272 130.329 423.54 130.078 423.879 129.898C424.219 129.718 424.602 129.628 425.026 129.628C425.452 129.628 425.829 129.718 426.158 129.898C426.487 130.078 426.746 130.32 426.933 130.626C427.12 130.931 427.213 131.271 427.213 131.645C427.213 131.912 427.165 132.174 427.067 132.43C426.973 132.683 426.807 132.966 426.57 133.278C426.336 133.589 426.01 133.967 425.594 134.415L423.96 136.162V136.219H427.341V137H422.753Z" fill="black"/>
<path d="M446.21 137.099C445.741 137.099 445.324 137.019 444.957 136.858C444.592 136.697 444.302 136.473 444.087 136.187C443.874 135.898 443.758 135.563 443.739 135.182H444.634C444.652 135.416 444.733 135.619 444.875 135.789C445.017 135.957 445.203 136.087 445.433 136.18C445.662 136.272 445.917 136.318 446.196 136.318C446.509 136.318 446.786 136.264 447.027 136.155C447.268 136.046 447.458 135.894 447.595 135.7C447.732 135.506 447.801 135.281 447.801 135.026C447.801 134.758 447.735 134.522 447.602 134.319C447.47 134.113 447.276 133.952 447.02 133.836C446.764 133.72 446.452 133.662 446.082 133.662H445.5V132.881H446.082C446.371 132.881 446.625 132.829 446.842 132.724C447.063 132.62 447.234 132.473 447.357 132.284C447.483 132.095 447.545 131.872 447.545 131.616C447.545 131.37 447.491 131.156 447.382 130.974C447.273 130.791 447.119 130.649 446.92 130.548C446.724 130.446 446.492 130.395 446.224 130.395C445.973 130.395 445.737 130.441 445.514 130.533C445.294 130.623 445.114 130.755 444.974 130.928C444.835 131.098 444.759 131.304 444.747 131.545H443.895C443.909 131.164 444.024 130.83 444.239 130.544C444.455 130.255 444.737 130.03 445.085 129.869C445.435 129.708 445.82 129.628 446.239 129.628C446.688 129.628 447.074 129.719 447.396 129.901C447.718 130.081 447.966 130.319 448.138 130.615C448.311 130.911 448.398 131.231 448.398 131.574C448.398 131.983 448.29 132.333 448.075 132.621C447.862 132.91 447.571 133.11 447.205 133.222V133.278C447.664 133.354 448.022 133.549 448.281 133.864C448.539 134.177 448.668 134.564 448.668 135.026C448.668 135.421 448.56 135.776 448.344 136.091C448.131 136.403 447.84 136.65 447.471 136.83C447.102 137.009 446.681 137.099 446.21 137.099Z" fill="black"/>
<path d="M369.037 61.3404H369.926C369.714 62.0463 369.58 62.5065 369.58 63.0107C369.58 63.099 369.58 63.7797 369.902 63.7797C370.068 63.7797 370.209 63.66 370.209 63.5528C370.209 63.5213 370.209 63.5087 370.154 63.4141C369.942 62.9792 369.942 62.4371 369.942 62.393C369.942 62.3552 369.942 61.9077 370.107 61.3404H370.988C371.09 61.3404 371.35 61.3404 371.35 61.1387C371.35 61 371.2 61 371.059 61H368.471C368.29 61 368.023 61 367.661 61.3089C367.456 61.4917 367.205 61.8257 367.205 61.8635C367.205 61.9014 367.244 61.914 367.291 61.914C367.346 61.914 367.354 61.8951 367.393 61.8572C367.802 61.3404 368.211 61.3404 368.408 61.3404H368.856C368.683 61.8131 368.487 62.3615 367.842 63.4646C367.779 63.5654 367.779 63.578 367.779 63.6158C367.779 63.7482 367.92 63.7797 367.991 63.7797C368.219 63.7797 368.282 63.6158 368.377 63.3511C368.502 63.0296 368.502 63.017 368.581 62.7649L369.037 61.3404Z" fill="black"/>
<path d="M371.651 66.279H367V66.5311H371.651V66.279Z" fill="black"/>
<path d="M370.861 71.2456H370.688C370.664 71.3528 370.602 71.6995 370.523 71.8003C370.468 71.8571 370.019 71.8571 369.784 71.8571H368.328C368.541 71.7121 369.021 71.3087 369.225 71.1574C370.421 70.2749 370.861 69.9472 370.861 69.3232C370.861 68.5983 370.145 68.1129 369.233 68.1129C368.321 68.1129 367.786 68.737 367.786 69.279C367.786 69.6005 368.132 69.6005 368.155 69.6005C368.321 69.6005 368.525 69.5059 368.525 69.3042C368.525 69.1278 368.376 69.008 368.155 69.008C368.085 69.008 368.069 69.008 368.045 69.0143C368.195 68.5857 368.619 68.2957 369.131 68.2957C369.799 68.2957 370.208 68.7433 370.208 69.3232C370.208 69.8589 369.823 70.3254 369.374 70.7288L367.786 72.1533V72.3046H370.657L370.861 71.2456Z" fill="black"/>
<path d="M33.1177 241.144C33.0262 241.554 33.0059 241.671 32.2947 241.671C32.1016 241.671 32 241.671 32 241.881C32 242.01 32.061 242.01 32.2642 242.01H35.4852C37.5377 242.01 39.5393 239.566 39.5393 236.959C39.5393 235.276 38.6655 234.025 37.2125 234.025H33.9509C33.7578 234.025 33.6664 234.025 33.6664 234.247C33.6664 234.364 33.7578 234.364 33.9102 234.364C34.53 234.364 34.53 234.458 34.53 234.586C34.53 234.61 34.53 234.68 34.4894 234.855L33.1177 241.144ZM35.2616 234.82C35.3531 234.387 35.3937 234.364 35.79 234.364H36.9077C37.8628 234.364 38.7366 234.96 38.7366 236.574C38.7366 237.158 38.5334 239.192 37.5478 240.478C37.2633 240.864 36.4911 241.671 35.3226 241.671H34.1643C34.022 241.671 34.0017 241.671 33.9407 241.659C33.8289 241.647 33.8188 241.624 33.8188 241.53C33.8188 241.448 33.8391 241.378 33.8594 241.273L35.2616 234.82Z" fill="black"/>
<path d="M49.7405 238.222C49.8828 238.222 50.0657 238.222 50.0657 238.011C50.0657 237.789 49.893 237.789 49.7405 237.789H43.7558C43.6136 237.789 43.4307 237.789 43.4307 238C43.4307 238.222 43.6034 238.222 43.7558 238.222H49.7405ZM49.7405 240.396C49.8828 240.396 50.0657 240.396 50.0657 240.186C50.0657 239.964 49.893 239.964 49.7405 239.964H43.7558C43.6136 239.964 43.4307 239.964 43.4307 240.174C43.4307 240.396 43.6034 240.396 43.7558 240.396H49.7405Z" fill="black"/>
<path d="M56.3178 234.797C56.3178 234.329 56.5819 233.581 57.6895 233.499C57.7403 233.487 57.7809 233.441 57.7809 233.37C57.7809 233.242 57.6996 233.242 57.5879 233.242C56.5718 233.242 55.6471 233.838 55.637 234.703V237.368C55.637 237.824 55.637 238.198 55.2306 238.584C54.8749 238.923 54.4888 238.947 54.2653 238.958C54.2145 238.97 54.1738 239.017 54.1738 239.087C54.1738 239.204 54.2348 239.204 54.3364 239.216C55.007 239.262 55.4947 239.683 55.6065 240.256C55.637 240.385 55.637 240.408 55.637 240.829V243.144C55.637 243.635 55.637 244.009 56.1247 244.453C56.521 244.804 57.1916 244.932 57.5879 244.932C57.6996 244.932 57.7809 244.932 57.7809 244.804C57.7809 244.687 57.72 244.687 57.6184 244.675C56.9782 244.628 56.4803 244.254 56.3482 243.658C56.3178 243.553 56.3178 243.529 56.3178 243.108V240.653C56.3178 240.116 56.2365 239.917 55.9113 239.543C55.698 239.297 55.4033 239.18 55.1188 239.087C55.952 238.818 56.3178 238.28 56.3178 237.602V234.797Z" fill="black"/>
<path d="M61.8251 244.85C61.8251 244.815 61.8251 244.792 61.6523 244.593C60.6362 243.412 60.0672 241.483 60.0672 239.099C60.0672 236.831 60.5448 234.878 61.7235 233.499C61.8251 233.394 61.8251 233.37 61.8251 233.335C61.8251 233.265 61.7743 233.242 61.7336 233.242C61.6015 233.242 60.7683 234.083 60.2705 235.229C59.7523 236.41 59.5186 237.661 59.5186 239.099C59.5186 240.139 59.6608 241.53 60.1892 242.781C60.7887 244.184 61.6218 244.944 61.7336 244.944C61.7743 244.944 61.8251 244.92 61.8251 244.85Z" fill="black"/>
<path d="M67.208 237.24C66.8829 237.31 66.7609 237.591 66.7609 237.813C66.7609 238.093 66.954 238.187 67.0962 238.187C67.4011 238.187 67.6144 237.883 67.6144 237.567C67.6144 237.076 67.1267 236.854 66.7 236.854C66.0801 236.854 65.7347 237.556 65.6432 237.778C65.4095 236.901 64.7796 236.854 64.5967 236.854C63.5603 236.854 63.0116 238.386 63.0116 238.643C63.0116 238.69 63.0522 238.748 63.1233 238.748C63.2046 238.748 63.225 238.678 63.2453 238.631C63.5907 237.333 64.2715 237.088 64.5662 237.088C65.0234 237.088 65.1149 237.579 65.1149 237.859C65.1149 238.117 65.0539 238.386 64.932 238.947L64.5865 240.548C64.4341 241.25 64.1394 241.893 63.6009 241.893C63.5501 241.893 63.2961 241.893 63.0827 241.741C63.4485 241.659 63.5298 241.308 63.5298 241.168C63.5298 240.934 63.3774 240.794 63.1843 240.794C62.9405 240.794 62.6763 241.039 62.6763 241.413C62.6763 241.904 63.1538 242.126 63.5907 242.126C64.0785 242.126 64.4239 241.682 64.6373 241.203C64.7999 241.893 65.3079 242.126 65.6839 242.126C66.7203 242.126 67.269 240.595 67.269 240.338C67.269 240.279 67.2283 240.233 67.1674 240.233C67.0759 240.233 67.0657 240.291 67.0353 240.385C66.7609 241.413 66.1716 241.893 65.7144 241.893C65.3587 241.893 65.1657 241.589 65.1657 241.109C65.1657 240.852 65.2063 240.665 65.3689 239.894L65.7245 238.304C65.8769 237.602 66.2224 237.088 66.6898 237.088C66.7101 237.088 66.9946 237.088 67.208 237.24Z" fill="black"/>
<path d="M70.0271 242.056C70.0271 241.378 69.834 240.876 69.4174 240.876C69.0923 240.876 68.9297 241.18 68.9297 241.437C68.9297 241.694 69.0821 242.01 69.4276 242.01C69.5597 242.01 69.6714 241.963 69.7629 241.858C69.7832 241.834 69.7934 241.834 69.8035 241.834C69.8238 241.834 69.8238 241.998 69.8238 242.056C69.8238 242.442 69.7629 243.202 69.1735 243.962C69.0618 244.102 69.0618 244.126 69.0618 244.149C69.0618 244.207 69.1126 244.266 69.1634 244.266C69.2447 244.266 70.0271 243.401 70.0271 242.056Z" fill="black"/>
<path d="M75.1748 243.319C74.9005 243.763 74.5042 244.161 74.0063 244.161C73.8844 244.161 73.3967 244.137 73.2443 243.599C73.2747 243.611 73.3255 243.611 73.3459 243.611C73.6507 243.611 73.8539 243.307 73.8539 243.038C73.8539 242.769 73.6608 242.676 73.5084 242.676C73.3459 242.676 72.9902 242.816 72.9902 243.389C72.9902 243.985 73.4271 244.394 74.0063 244.394C75.0224 244.394 76.0486 243.319 76.3331 242.021L77.3289 237.462C77.3391 237.404 77.3594 237.333 77.3594 237.263C77.3594 237.088 77.2375 236.971 77.085 236.971C76.9936 236.971 76.7802 237.018 76.6989 237.369L75.947 240.805C75.8962 241.016 75.8962 241.039 75.8149 241.168C75.6117 241.495 75.2764 241.893 74.7887 241.893C74.2197 241.893 74.1689 241.25 74.1689 240.934C74.1689 240.268 74.4432 239.368 74.7176 238.526C74.8293 238.187 74.8903 238.023 74.8903 237.789C74.8903 237.298 74.5855 236.854 74.0876 236.854C73.1528 236.854 72.7769 238.549 72.7769 238.643C72.7769 238.69 72.8175 238.748 72.8886 238.748C72.9801 238.748 72.9902 238.701 73.0309 238.538C73.2747 237.556 73.6608 237.088 74.0571 237.088C74.1486 237.088 74.3213 237.088 74.3213 237.474C74.3213 237.778 74.2095 238.117 74.0571 238.561C73.5592 240.092 73.5592 240.478 73.5592 240.759C73.5592 241.869 74.2502 242.126 74.7582 242.126C75.0529 242.126 75.4187 242.021 75.7743 241.589L75.7845 241.6C75.632 242.29 75.5304 242.746 75.1748 243.319Z" fill="black"/>
<path d="M80.5839 239.099C80.5839 238.21 80.4822 236.761 79.9132 235.405C79.3137 234.002 78.4806 233.242 78.3688 233.242C78.3281 233.242 78.2773 233.265 78.2773 233.335C78.2773 233.37 78.2773 233.394 78.4501 233.593C79.4662 234.773 80.0352 236.702 80.0352 239.087C80.0352 241.355 79.5576 243.307 78.379 244.687C78.2773 244.792 78.2773 244.815 78.2773 244.85C78.2773 244.92 78.3281 244.944 78.3688 244.944C78.5009 244.944 79.3341 244.102 79.832 242.956C80.3502 241.764 80.5839 240.501 80.5839 239.099Z" fill="black"/>
<path d="M89.9777 239.321C90.1505 239.321 90.3333 239.321 90.3333 239.087C90.3333 238.853 90.1505 238.853 89.9777 238.853H85.6695C85.7915 237.287 86.9599 236.164 88.3926 236.164H89.9777C90.1505 236.164 90.3333 236.164 90.3333 235.931C90.3333 235.697 90.1505 235.697 89.9777 235.697H88.3723C86.6348 235.697 85.2529 237.217 85.2529 239.087C85.2529 240.957 86.6348 242.477 88.3723 242.477H89.9777C90.1505 242.477 90.3333 242.477 90.3333 242.243C90.3333 242.01 90.1505 242.01 89.9777 242.01H88.3926C86.9599 242.01 85.7915 240.887 85.6695 239.321H89.9777Z" fill="black"/>
<path d="M96.729 238.339H97.0948L98.6189 241.051C98.7205 241.238 98.9644 241.694 99.0761 241.869C99.1473 242.01 99.1777 242.01 99.4114 242.01H100.814C100.997 242.01 101.149 242.01 101.149 241.799C101.149 241.706 101.088 241.624 100.997 241.6C100.621 241.507 100.123 240.735 99.8788 240.361C99.8077 240.244 99.2997 239.473 98.6189 238.21C99.5232 238.023 100.397 237.579 100.397 236.188C100.397 234.563 98.9034 234.002 97.7044 234.002H94.5139C94.331 234.002 94.1685 234.002 94.1685 234.212C94.1685 234.411 94.3615 234.411 94.4428 234.411C95.022 234.411 95.0728 234.493 95.0728 235.077V240.934C95.0728 241.519 95.022 241.6 94.4428 241.6C94.3615 241.6 94.1685 241.6 94.1685 241.799C94.1685 242.01 94.331 242.01 94.5139 242.01H97.298C97.4809 242.01 97.6333 242.01 97.6333 241.799C97.6333 241.6 97.4606 241.6 97.3488 241.6C96.7696 241.6 96.729 241.507 96.729 240.934V238.339ZM98.69 237.766C98.9745 237.333 99.005 236.714 99.005 236.199C99.005 235.638 98.944 235.019 98.6189 234.539C99.0355 234.645 100.041 235.007 100.041 236.188C100.041 236.948 99.7366 237.544 98.69 237.766ZM96.729 235.042C96.729 234.797 96.729 234.411 97.359 234.411C98.2226 234.411 98.6494 234.82 98.6494 236.199C98.6494 237.708 98.3344 237.93 96.729 237.93V235.042ZM95.3471 241.6C95.4284 241.39 95.4284 241.063 95.4284 240.957V235.054C95.4284 234.937 95.4284 234.621 95.3471 234.411H96.5054C96.3734 234.598 96.3734 234.832 96.3734 235.007V240.957C96.3734 241.074 96.3734 241.39 96.4546 241.6H95.3471ZM97.5114 238.339C97.5825 238.327 97.6231 238.315 97.7044 238.315C97.8568 238.315 98.0804 238.292 98.2328 238.269C98.3852 238.549 99.4826 240.63 100.326 241.6H99.3403L97.5114 238.339Z" fill="black"/>
<path d="M103.254 235.593C103.363 235.476 103.647 235.219 103.756 235.11C104.176 234.665 104.575 234.237 104.575 233.528C104.575 232.6 103.898 232 103.051 232C102.238 232 101.703 232.709 101.703 233.403C101.703 233.785 101.967 233.839 102.062 233.839C102.204 233.839 102.414 233.722 102.414 233.426C102.414 233.021 102.076 233.021 101.994 233.021C102.191 232.452 102.645 232.257 102.977 232.257C103.607 232.257 103.932 232.873 103.932 233.528C103.932 234.338 103.437 234.93 102.638 235.873L101.784 236.887C101.703 236.972 101.703 236.988 101.703 237.183H104.379L104.575 235.788H104.365C104.345 235.944 104.291 236.333 104.209 236.481C104.169 236.544 103.654 236.544 103.546 236.544H102.34L103.254 235.593Z" fill="black"/>
<path d="M110.058 237.532C110.058 237.217 109.825 236.971 109.571 236.971C109.276 236.971 109.073 237.24 109.073 237.532C109.073 237.883 109.327 238.105 109.56 238.105C109.835 238.105 110.058 237.859 110.058 237.532ZM110.058 241.437C110.058 241.121 109.825 240.876 109.571 240.876C109.276 240.876 109.073 241.144 109.073 241.437C109.073 241.787 109.327 242.01 109.56 242.01C109.835 242.01 110.058 241.764 110.058 241.437Z" fill="black"/>
<path d="M118.591 237.24C118.266 237.31 118.144 237.591 118.144 237.813C118.144 238.093 118.337 238.187 118.48 238.187C118.784 238.187 118.998 237.883 118.998 237.567C118.998 237.076 118.51 236.854 118.083 236.854C117.463 236.854 117.118 237.556 117.027 237.778C116.793 236.901 116.163 236.854 115.98 236.854C114.944 236.854 114.395 238.386 114.395 238.643C114.395 238.69 114.436 238.748 114.507 238.748C114.588 238.748 114.608 238.678 114.629 238.631C114.974 237.333 115.655 237.088 115.949 237.088C116.407 237.088 116.498 237.579 116.498 237.859C116.498 238.117 116.437 238.386 116.315 238.947L115.97 240.548C115.817 241.25 115.523 241.893 114.984 241.893C114.933 241.893 114.679 241.893 114.466 241.741C114.832 241.659 114.913 241.308 114.913 241.168C114.913 240.934 114.761 240.794 114.568 240.794C114.324 240.794 114.06 241.039 114.06 241.413C114.06 241.904 114.537 242.126 114.974 242.126C115.462 242.126 115.807 241.682 116.021 241.203C116.183 241.893 116.691 242.126 117.067 242.126C118.104 242.126 118.652 240.595 118.652 240.338C118.652 240.279 118.612 240.233 118.551 240.233C118.459 240.233 118.449 240.291 118.419 240.385C118.144 241.413 117.555 241.893 117.098 241.893C116.742 241.893 116.549 241.589 116.549 241.109C116.549 240.852 116.59 240.665 116.752 239.894L117.108 238.304C117.26 237.602 117.606 237.088 118.073 237.088C118.093 237.088 118.378 237.088 118.591 237.24Z" fill="black"/>
<path d="M129.099 238.222C129.242 238.152 129.303 238.07 129.303 237.965C129.303 237.848 129.262 237.778 129.099 237.696L123.501 234.656C123.358 234.574 123.318 234.574 123.297 234.574C123.176 234.574 123.094 234.68 123.094 234.808C123.094 234.949 123.176 235.007 123.287 235.065L128.622 237.953L123.308 240.841C123.104 240.946 123.094 241.039 123.094 241.109C123.094 241.238 123.186 241.343 123.297 241.343C123.328 241.343 123.348 241.343 123.48 241.261L129.099 238.222ZM128.947 243.611C129.12 243.611 129.303 243.611 129.303 243.377C129.303 243.144 129.089 243.144 128.937 243.144H123.46C123.308 243.144 123.094 243.144 123.094 243.377C123.094 243.611 123.277 243.611 123.45 243.611H128.947Z" fill="black"/>
<path d="M137.529 238.269C137.529 237.298 137.478 236.351 137.112 235.463C136.695 234.493 135.964 234.235 135.466 234.235C134.877 234.235 134.155 234.574 133.779 235.545C133.495 236.281 133.393 237.006 133.393 238.269C133.393 239.403 133.464 240.256 133.83 241.086C134.226 241.974 134.927 242.255 135.456 242.255C136.34 242.255 136.848 241.647 137.142 240.969C137.508 240.092 137.529 238.947 137.529 238.269ZM135.456 242.021C135.131 242.021 134.47 241.811 134.277 240.537C134.165 239.835 134.165 238.947 134.165 238.128C134.165 237.17 134.165 236.305 134.328 235.615C134.501 234.832 135.019 234.469 135.456 234.469C135.842 234.469 136.431 234.738 136.624 235.744C136.756 236.41 136.756 237.333 136.756 238.128C136.756 238.912 136.756 239.8 136.645 240.513C136.451 241.799 135.811 242.021 135.456 242.021Z" fill="black"/>
<path d="M139.932 242.056C139.932 241.378 139.739 240.876 139.323 240.876C138.998 240.876 138.835 241.18 138.835 241.437C138.835 241.694 138.987 242.01 139.333 242.01C139.465 242.01 139.577 241.963 139.668 241.858C139.688 241.834 139.699 241.834 139.709 241.834C139.729 241.834 139.729 241.998 139.729 242.056C139.729 242.442 139.668 243.202 139.079 243.962C138.967 244.102 138.967 244.126 138.967 244.149C138.967 244.207 139.018 244.266 139.069 244.266C139.15 244.266 139.932 243.401 139.932 242.056Z" fill="black"/>
<path d="M145.08 243.319C144.806 243.763 144.409 244.161 143.912 244.161C143.79 244.161 143.302 244.137 143.15 243.599C143.18 243.611 143.231 243.611 143.251 243.611C143.556 243.611 143.759 243.307 143.759 243.038C143.759 242.769 143.566 242.676 143.414 242.676C143.251 242.676 142.896 242.816 142.896 243.389C142.896 243.985 143.332 244.394 143.912 244.394C144.928 244.394 145.954 243.319 146.238 242.021L147.234 237.462C147.244 237.404 147.265 237.333 147.265 237.263C147.265 237.088 147.143 236.971 146.99 236.971C146.899 236.971 146.685 237.018 146.604 237.369L145.852 240.805C145.802 241.016 145.802 241.039 145.72 241.168C145.517 241.495 145.182 241.893 144.694 241.893C144.125 241.893 144.074 241.25 144.074 240.934C144.074 240.268 144.349 239.368 144.623 238.526C144.735 238.187 144.796 238.023 144.796 237.789C144.796 237.298 144.491 236.854 143.993 236.854C143.058 236.854 142.682 238.549 142.682 238.643C142.682 238.69 142.723 238.748 142.794 238.748C142.885 238.748 142.896 238.701 142.936 238.538C143.18 237.556 143.566 237.088 143.962 237.088C144.054 237.088 144.227 237.088 144.227 237.474C144.227 237.778 144.115 238.117 143.962 238.561C143.465 240.092 143.465 240.478 143.465 240.759C143.465 241.869 144.155 242.126 144.663 242.126C144.958 242.126 145.324 242.021 145.68 241.589L145.69 241.6C145.537 242.29 145.436 242.746 145.08 243.319Z" fill="black"/>
<path d="M157.295 238.222C157.437 238.152 157.498 238.07 157.498 237.965C157.498 237.848 157.457 237.778 157.295 237.696L151.696 234.656C151.554 234.574 151.513 234.574 151.493 234.574C151.371 234.574 151.29 234.68 151.29 234.808C151.29 234.949 151.371 235.007 151.483 235.065L156.817 237.953L151.503 240.841C151.3 240.946 151.29 241.039 151.29 241.109C151.29 241.238 151.381 241.343 151.493 241.343C151.523 241.343 151.544 241.343 151.676 241.261L157.295 238.222ZM157.142 243.611C157.315 243.611 157.498 243.611 157.498 243.377C157.498 243.144 157.284 243.144 157.132 243.144H151.655C151.503 243.144 151.29 243.144 151.29 243.377C151.29 243.611 151.472 243.611 151.645 243.611H157.142Z" fill="black"/>
<path d="M165.723 238.269C165.723 237.298 165.673 236.351 165.307 235.463C164.89 234.493 164.159 234.235 163.661 234.235C163.071 234.235 162.35 234.574 161.974 235.545C161.689 236.281 161.588 237.006 161.588 238.269C161.588 239.403 161.659 240.256 162.025 241.086C162.421 241.974 163.122 242.255 163.651 242.255C164.535 242.255 165.043 241.647 165.337 240.969C165.703 240.092 165.723 238.947 165.723 238.269ZM163.651 242.021C163.325 242.021 162.665 241.811 162.472 240.537C162.36 239.835 162.36 238.947 162.36 238.128C162.36 237.17 162.36 236.305 162.523 235.615C162.695 234.832 163.214 234.469 163.651 234.469C164.037 234.469 164.626 234.738 164.819 235.744C164.951 236.41 164.951 237.333 164.951 238.128C164.951 238.912 164.951 239.8 164.839 240.513C164.646 241.799 164.006 242.021 163.651 242.021Z" fill="black"/>
<path d="M168.127 242.056C168.127 241.378 167.934 240.876 167.518 240.876C167.192 240.876 167.03 241.18 167.03 241.437C167.03 241.694 167.182 242.01 167.528 242.01C167.66 242.01 167.772 241.963 167.863 241.858C167.883 241.834 167.893 241.834 167.904 241.834C167.924 241.834 167.924 241.998 167.924 242.056C167.924 242.442 167.863 243.202 167.274 243.962C167.162 244.102 167.162 244.126 167.162 244.149C167.162 244.207 167.213 244.266 167.263 244.266C167.345 244.266 168.127 243.401 168.127 242.056Z" fill="black"/>
<path d="M174.271 234.399C174.271 234.177 174.271 234.119 174.129 234.119C174.048 234.119 174.017 234.119 173.936 234.259L170.877 239.718V240.057H173.55V241.121C173.55 241.554 173.529 241.671 172.788 241.671H172.584V242.01C172.818 241.986 173.621 241.986 173.905 241.986C174.19 241.986 175.003 241.986 175.236 242.01V241.671H175.033C174.302 241.671 174.271 241.554 174.271 241.121V240.057H175.297V239.718H174.271V234.399ZM173.601 235.311V239.718H171.131L173.601 235.311Z" fill="black"/>
<path d="M185.258 235.065C185.37 235.007 185.451 234.949 185.451 234.808C185.451 234.68 185.37 234.574 185.248 234.574C185.197 234.574 185.106 234.621 185.065 234.645L179.446 237.696C179.274 237.789 179.243 237.871 179.243 237.965C179.243 238.07 179.304 238.152 179.446 238.222L185.065 241.261C185.197 241.343 185.218 241.343 185.248 241.343C185.36 241.343 185.451 241.238 185.451 241.109C185.451 241.004 185.411 240.934 185.238 240.841L179.924 237.965L185.258 235.065ZM185.096 243.611C185.269 243.611 185.451 243.611 185.451 243.377C185.451 243.144 185.238 243.144 185.086 243.144H179.609C179.457 243.144 179.243 243.144 179.243 243.377C179.243 243.611 179.426 243.611 179.599 243.611H185.096Z" fill="black"/>
<path d="M193.941 237.24C193.616 237.31 193.494 237.591 193.494 237.813C193.494 238.093 193.687 238.187 193.83 238.187C194.134 238.187 194.348 237.883 194.348 237.567C194.348 237.076 193.86 236.854 193.433 236.854C192.814 236.854 192.468 237.556 192.377 237.778C192.143 236.901 191.513 236.854 191.33 236.854C190.294 236.854 189.745 238.386 189.745 238.643C189.745 238.69 189.786 238.748 189.857 238.748C189.938 238.748 189.958 238.678 189.979 238.631C190.324 237.333 191.005 237.088 191.3 237.088C191.757 237.088 191.848 237.579 191.848 237.859C191.848 238.117 191.787 238.386 191.665 238.947L191.32 240.548C191.167 241.25 190.873 241.893 190.334 241.893C190.283 241.893 190.029 241.893 189.816 241.741C190.182 241.659 190.263 241.308 190.263 241.168C190.263 240.934 190.111 240.794 189.918 240.794C189.674 240.794 189.41 241.039 189.41 241.413C189.41 241.904 189.887 242.126 190.324 242.126C190.812 242.126 191.157 241.682 191.371 241.203C191.533 241.893 192.041 242.126 192.417 242.126C193.454 242.126 194.002 240.595 194.002 240.338C194.002 240.279 193.962 240.233 193.901 240.233C193.809 240.233 193.799 240.291 193.769 240.385C193.494 241.413 192.905 241.893 192.448 241.893C192.092 241.893 191.899 241.589 191.899 241.109C191.899 240.852 191.94 240.665 192.102 239.894L192.458 238.304C192.61 237.602 192.956 237.088 193.423 237.088C193.444 237.088 193.728 237.088 193.941 237.24Z" fill="black"/>
<path d="M196.689 235.593C196.797 235.476 197.082 235.219 197.19 235.11C197.61 234.665 198.01 234.237 198.01 233.528C198.01 232.6 197.332 232 196.486 232C195.673 232 195.138 232.709 195.138 233.403C195.138 233.785 195.402 233.839 195.497 233.839C195.639 233.839 195.849 233.722 195.849 233.426C195.849 233.021 195.51 233.021 195.429 233.021C195.625 232.452 196.079 232.257 196.411 232.257C197.041 232.257 197.366 232.873 197.366 233.528C197.366 234.338 196.872 234.93 196.072 235.873L195.219 236.887C195.138 236.972 195.138 236.988 195.138 237.183H197.813L198.01 235.788H197.8C197.78 235.944 197.725 236.333 197.644 236.481C197.603 236.544 197.089 236.544 196.98 236.544H195.774L196.689 235.593Z" fill="black"/>
<path d="M205.113 239.309H207.917C208.06 239.309 208.242 239.309 208.242 239.099C208.242 238.877 208.07 238.877 207.917 238.877H205.113V235.65C205.113 235.486 205.113 235.276 204.93 235.276C204.737 235.276 204.737 235.475 204.737 235.65V238.877H201.933C201.79 238.877 201.607 238.877 201.607 239.087C201.607 239.309 201.78 239.309 201.933 239.309H204.737V242.536C204.737 242.699 204.737 242.91 204.92 242.91C205.113 242.91 205.113 242.711 205.113 242.536V239.309Z" fill="black"/>
<path d="M213.727 243.319C213.453 243.763 213.056 244.161 212.559 244.161C212.437 244.161 211.949 244.137 211.796 243.599C211.827 243.611 211.878 243.611 211.898 243.611C212.203 243.611 212.406 243.307 212.406 243.038C212.406 242.769 212.213 242.676 212.061 242.676C211.898 242.676 211.542 242.816 211.542 243.389C211.542 243.985 211.979 244.394 212.559 244.394C213.575 244.394 214.601 243.319 214.885 242.021L215.881 237.462C215.891 237.404 215.912 237.333 215.912 237.263C215.912 237.088 215.79 236.971 215.637 236.971C215.546 236.971 215.332 237.018 215.251 237.369L214.499 240.805C214.448 241.016 214.448 241.039 214.367 241.168C214.164 241.495 213.829 241.893 213.341 241.893C212.772 241.893 212.721 241.25 212.721 240.934C212.721 240.268 212.995 239.368 213.27 238.526C213.382 238.187 213.443 238.023 213.443 237.789C213.443 237.298 213.138 236.854 212.64 236.854C211.705 236.854 211.329 238.549 211.329 238.643C211.329 238.69 211.37 238.748 211.441 238.748C211.532 238.748 211.542 238.701 211.583 238.538C211.827 237.556 212.213 237.088 212.609 237.088C212.701 237.088 212.874 237.088 212.874 237.474C212.874 237.778 212.762 238.117 212.609 238.561C212.111 240.092 212.111 240.478 212.111 240.759C212.111 241.869 212.802 242.126 213.31 242.126C213.605 242.126 213.971 242.021 214.327 241.589L214.337 241.6C214.184 242.29 214.083 242.746 213.727 243.319Z" fill="black"/>
<path d="M218.181 235.593C218.289 235.476 218.574 235.219 218.682 235.11C219.102 234.665 219.502 234.237 219.502 233.528C219.502 232.6 218.824 232 217.977 232C217.165 232 216.629 232.709 216.629 233.403C216.629 233.785 216.894 233.839 216.988 233.839C217.131 233.839 217.341 233.722 217.341 233.426C217.341 233.021 217.002 233.021 216.921 233.021C217.117 232.452 217.571 232.257 217.903 232.257C218.533 232.257 218.858 232.873 218.858 233.528C218.858 234.338 218.364 234.93 217.564 235.873L216.711 236.887C216.629 236.972 216.629 236.988 216.629 237.183H219.305L219.502 235.788H219.292C219.271 235.944 219.217 236.333 219.136 236.481C219.095 236.544 218.58 236.544 218.472 236.544H217.266L218.181 235.593Z" fill="black"/>
<path d="M229.974 235.065C230.085 235.007 230.167 234.949 230.167 234.808C230.167 234.68 230.085 234.574 229.964 234.574C229.913 234.574 229.821 234.621 229.781 234.645L224.162 237.696C223.989 237.789 223.958 237.871 223.958 237.965C223.958 238.07 224.019 238.152 224.162 238.222L229.781 241.261C229.913 241.343 229.933 241.343 229.964 241.343C230.075 241.343 230.167 241.238 230.167 241.109C230.167 241.004 230.126 240.934 229.953 240.841L224.639 237.965L229.974 235.065ZM229.811 243.611C229.984 243.611 230.167 243.611 230.167 243.377C230.167 243.144 229.953 243.144 229.801 243.144H224.324C224.172 243.144 223.958 243.144 223.958 243.377C223.958 243.611 224.141 243.611 224.314 243.611H229.811Z" fill="black"/>
<path d="M237.559 238.608C237.559 241.367 236.492 241.939 235.883 241.939C235.639 241.939 235.1 241.904 234.846 241.495H234.907C234.978 241.519 235.344 241.448 235.344 241.016C235.344 240.759 235.192 240.537 234.927 240.537C234.663 240.537 234.501 240.735 234.501 241.039C234.501 241.764 235.009 242.255 235.893 242.255C237.163 242.255 238.392 240.7 238.392 238.163C238.392 235.019 237.254 234.235 236.36 234.235C235.242 234.235 234.257 235.311 234.257 236.854C234.257 238.397 235.202 239.449 236.218 239.449C236.97 239.449 237.356 238.818 237.559 238.222V238.608ZM236.259 239.216C235.618 239.216 235.344 238.619 235.253 238.397C235.09 237.953 235.09 237.392 235.09 236.866C235.09 236.211 235.09 235.65 235.354 235.171C235.537 234.855 235.811 234.516 236.36 234.516C236.939 234.516 237.234 235.101 237.336 235.369C237.539 235.942 237.539 236.936 237.539 237.111C237.539 238.093 237.153 239.216 236.259 239.216Z" fill="black"/>
<path d="M241.01 243.377C241.01 243.845 240.745 244.593 239.638 244.675C239.587 244.687 239.546 244.733 239.546 244.804C239.546 244.932 239.658 244.932 239.75 244.932C240.735 244.932 241.68 244.359 241.69 243.471V240.805C241.69 240.35 241.69 239.975 242.097 239.59C242.452 239.251 242.838 239.227 243.062 239.216C243.113 239.204 243.153 239.157 243.153 239.087C243.153 238.97 243.093 238.97 242.991 238.958C242.32 238.912 241.833 238.491 241.721 237.918C241.69 237.789 241.69 237.766 241.69 237.345V235.03C241.69 234.539 241.69 234.165 241.203 233.721C240.796 233.359 240.095 233.242 239.75 233.242C239.658 233.242 239.546 233.242 239.546 233.37C239.546 233.487 239.607 233.487 239.709 233.499C240.349 233.546 240.847 233.92 240.979 234.516C241.01 234.621 241.01 234.645 241.01 235.065V237.52C241.01 238.058 241.091 238.257 241.416 238.631C241.629 238.877 241.924 238.993 242.209 239.087C241.375 239.356 241.01 239.894 241.01 240.572V243.377Z" fill="black"/>
<path d="M289.105 240.548C289.015 240.906 288.995 241.008 288.291 241.008C288.1 241.008 288 241.008 288 241.191C288 241.304 288.06 241.304 288.261 241.304H291.447C293.476 241.304 295.456 239.17 295.456 236.894C295.456 235.425 294.592 234.333 293.155 234.333H289.929C289.738 234.333 289.648 234.333 289.648 234.527C289.648 234.629 289.738 234.629 289.889 234.629C290.502 234.629 290.502 234.71 290.502 234.823C290.502 234.843 290.502 234.904 290.462 235.057L289.105 240.548ZM291.225 235.027C291.316 234.649 291.356 234.629 291.748 234.629H292.853C293.798 234.629 294.662 235.149 294.662 236.558C294.662 237.068 294.461 238.844 293.486 239.967C293.205 240.303 292.441 241.008 291.286 241.008H290.14C290 241.008 289.979 241.008 289.919 240.997C289.809 240.987 289.799 240.967 289.799 240.885C289.799 240.814 289.819 240.752 289.839 240.661L291.225 235.027Z" fill="black"/>
<path d="M297.745 233.864C297.779 233.776 297.805 233.728 297.805 233.66C297.805 233.436 297.604 233.286 297.417 233.286C297.149 233.286 297.075 233.524 297.048 233.619L296.198 236.552C296.171 236.634 296.171 236.654 296.171 236.661C296.171 236.722 296.211 236.736 296.278 236.756C296.399 236.81 296.412 236.81 296.425 236.81C296.446 236.81 296.486 236.81 296.533 236.695L297.745 233.864Z" fill="black"/>
<path d="M307.893 237.997C308.033 237.997 308.214 237.997 308.214 237.813C308.214 237.619 308.043 237.619 307.893 237.619H301.974C301.834 237.619 301.653 237.619 301.653 237.803C301.653 237.997 301.824 237.997 301.974 237.997H307.893ZM307.893 239.895C308.033 239.895 308.214 239.895 308.214 239.711C308.214 239.517 308.043 239.517 307.893 239.517H301.974C301.834 239.517 301.653 239.517 301.653 239.701C301.653 239.895 301.824 239.895 301.974 239.895H307.893Z" fill="black"/>
<path d="M314.398 235.006C314.398 234.598 314.659 233.945 315.754 233.873C315.804 233.863 315.844 233.822 315.844 233.761C315.844 233.649 315.764 233.649 315.654 233.649C314.649 233.649 313.734 234.169 313.724 234.925V237.252C313.724 237.65 313.724 237.976 313.322 238.313C312.971 238.609 312.589 238.629 312.368 238.64C312.318 238.65 312.277 238.691 312.277 238.752C312.277 238.854 312.338 238.854 312.438 238.864C313.101 238.905 313.584 239.272 313.694 239.773C313.724 239.885 313.724 239.905 313.724 240.273V242.294C313.724 242.722 313.724 243.049 314.207 243.437C314.598 243.743 315.262 243.855 315.654 243.855C315.764 243.855 315.844 243.855 315.844 243.743C315.844 243.641 315.784 243.641 315.684 243.631C315.051 243.59 314.558 243.263 314.428 242.743C314.398 242.651 314.398 242.63 314.398 242.263V240.12C314.398 239.65 314.317 239.477 313.996 239.15C313.785 238.936 313.493 238.834 313.212 238.752C314.036 238.517 314.398 238.048 314.398 237.456V235.006Z" fill="black"/>
<path d="M319.843 243.784C319.843 243.753 319.843 243.733 319.673 243.559C318.668 242.528 318.105 240.844 318.105 238.762C318.105 236.782 318.577 235.078 319.743 233.873C319.843 233.781 319.843 233.761 319.843 233.73C319.843 233.669 319.793 233.649 319.753 233.649C319.622 233.649 318.798 234.384 318.306 235.384C317.794 236.415 317.562 237.507 317.562 238.762C317.562 239.671 317.703 240.885 318.226 241.977C318.819 243.202 319.642 243.865 319.753 243.865C319.793 243.865 319.843 243.845 319.843 243.784Z" fill="black"/>
<path d="M320.716 243.069C320.706 243.12 320.686 243.182 320.686 243.243C320.686 243.396 320.806 243.498 320.957 243.498C321.108 243.498 321.248 243.396 321.309 243.253C321.349 243.161 321.63 241.936 321.952 240.681C322.153 241.191 322.524 241.406 322.916 241.406C324.052 241.406 325.338 239.977 325.338 238.436C325.338 237.344 324.685 236.803 323.991 236.803C323.107 236.803 322.032 237.731 321.7 239.089L320.716 243.069ZM322.906 241.201C322.223 241.201 322.052 240.395 322.052 240.273C322.052 240.211 322.303 239.242 322.333 239.089C322.846 237.058 323.831 237.007 323.981 237.007C324.434 237.007 324.685 237.425 324.685 238.027C324.685 238.548 324.413 239.558 324.243 239.987C323.941 240.691 323.419 241.201 322.906 241.201Z" fill="black"/>
<path d="M327.438 241.344C327.438 240.752 327.247 240.314 326.835 240.314C326.514 240.314 326.353 240.579 326.353 240.803C326.353 241.028 326.504 241.304 326.845 241.304C326.976 241.304 327.087 241.263 327.177 241.171C327.197 241.15 327.207 241.15 327.217 241.15C327.237 241.15 327.237 241.293 327.237 241.344C327.237 241.681 327.177 242.345 326.594 243.008C326.484 243.13 326.484 243.151 326.484 243.171C326.484 243.222 326.534 243.273 326.584 243.273C326.665 243.273 327.438 242.518 327.438 241.344Z" fill="black"/>
<path d="M334.337 236.17C334.337 235.129 334.016 234.118 333.192 234.118C331.785 234.118 330.288 237.109 330.288 239.354C330.288 239.824 330.389 241.406 331.444 241.406C332.81 241.406 334.337 238.487 334.337 236.17ZM331.293 237.609C331.444 237.007 331.655 236.149 332.057 235.425C332.388 234.812 332.74 234.322 333.182 234.322C333.514 234.322 333.735 234.608 333.735 235.588C333.735 235.955 333.704 236.466 333.413 237.609H331.293ZM333.343 237.915C333.092 238.915 332.881 239.558 332.519 240.201C332.227 240.722 331.876 241.201 331.454 241.201C331.142 241.201 330.891 240.957 330.891 239.946C330.891 239.283 331.052 238.589 331.213 237.915H333.343Z" fill="black"/>
<path d="M337.578 238.762C337.578 237.986 337.478 236.721 336.915 235.537C336.322 234.312 335.498 233.649 335.388 233.649C335.348 233.649 335.297 233.669 335.297 233.73C335.297 233.761 335.297 233.781 335.468 233.955C336.473 234.986 337.036 236.67 337.036 238.752C337.036 240.732 336.563 242.436 335.398 243.641C335.297 243.733 335.297 243.753 335.297 243.784C335.297 243.845 335.348 243.865 335.388 243.865C335.518 243.865 336.342 243.13 336.835 242.13C337.347 241.089 337.578 239.987 337.578 238.762Z" fill="black"/>
<path d="M346.868 238.956C347.039 238.956 347.22 238.956 347.22 238.752C347.22 238.548 347.039 238.548 346.868 238.548H342.608C342.728 237.18 343.884 236.2 345.301 236.2H346.868C347.039 236.2 347.22 236.2 347.22 235.996C347.22 235.792 347.039 235.792 346.868 235.792H345.281C343.562 235.792 342.196 237.119 342.196 238.752C342.196 240.385 343.562 241.712 345.281 241.712H346.868C347.039 241.712 347.22 241.712 347.22 241.508C347.22 241.304 347.039 241.304 346.868 241.304H345.301C343.884 241.304 342.728 240.324 342.608 238.956H346.868Z" fill="black"/>
<path d="M353.544 238.099H353.906L355.413 240.467C355.514 240.63 355.755 241.028 355.865 241.181C355.936 241.304 355.966 241.304 356.197 241.304H357.584C357.765 241.304 357.915 241.304 357.915 241.12C357.915 241.038 357.855 240.967 357.765 240.946C357.393 240.865 356.9 240.191 356.659 239.864C356.589 239.762 356.087 239.089 355.413 237.986C356.308 237.823 357.172 237.435 357.172 236.221C357.172 234.802 355.695 234.312 354.509 234.312H351.354C351.173 234.312 351.012 234.312 351.012 234.496C351.012 234.669 351.203 234.669 351.284 234.669C351.856 234.669 351.906 234.741 351.906 235.251V240.365C351.906 240.875 351.856 240.946 351.284 240.946C351.203 240.946 351.012 240.946 351.012 241.12C351.012 241.304 351.173 241.304 351.354 241.304H354.107C354.288 241.304 354.439 241.304 354.439 241.12C354.439 240.946 354.268 240.946 354.157 240.946C353.585 240.946 353.544 240.865 353.544 240.365V238.099ZM355.484 237.599C355.765 237.221 355.795 236.68 355.795 236.231C355.795 235.741 355.735 235.2 355.413 234.782C355.825 234.874 356.82 235.19 356.82 236.221C356.82 236.884 356.519 237.405 355.484 237.599ZM353.544 235.221C353.544 235.006 353.544 234.669 354.167 234.669C355.021 234.669 355.443 235.027 355.443 236.231C355.443 237.548 355.132 237.742 353.544 237.742V235.221ZM352.178 240.946C352.258 240.763 352.258 240.477 352.258 240.385V235.231C352.258 235.129 352.258 234.853 352.178 234.669H353.323C353.193 234.833 353.193 235.037 353.193 235.19V240.385C353.193 240.487 353.193 240.763 353.273 240.946H352.178ZM354.318 238.099C354.388 238.089 354.429 238.078 354.509 238.078C354.66 238.078 354.881 238.058 355.031 238.038C355.182 238.282 356.267 240.099 357.101 240.946H356.127L354.318 238.099Z" fill="black"/>
<path d="M359.998 235.701C360.105 235.599 360.386 235.375 360.494 235.28C360.909 234.892 361.304 234.517 361.304 233.898C361.304 233.089 360.634 232.565 359.797 232.565C358.993 232.565 358.464 233.184 358.464 233.789C358.464 234.123 358.725 234.17 358.819 234.17C358.96 234.17 359.167 234.068 359.167 233.81C359.167 233.456 358.832 233.456 358.752 233.456C358.946 232.959 359.395 232.789 359.723 232.789C360.346 232.789 360.668 233.327 360.668 233.898C360.668 234.606 360.179 235.123 359.388 235.946L358.544 236.831C358.464 236.906 358.464 236.919 358.464 237.089H361.11L361.304 235.872H361.096C361.076 236.008 361.023 236.348 360.942 236.477C360.902 236.532 360.393 236.532 360.286 236.532H359.094L359.998 235.701Z" fill="black"/>
<path d="M366.726 237.395C366.726 237.119 366.495 236.905 366.244 236.905C365.952 236.905 365.751 237.139 365.751 237.395C365.751 237.701 366.003 237.895 366.234 237.895C366.505 237.895 366.726 237.68 366.726 237.395ZM366.726 240.803C366.726 240.528 366.495 240.314 366.244 240.314C365.952 240.314 365.751 240.548 365.751 240.803C365.751 241.11 366.003 241.304 366.234 241.304C366.505 241.304 366.726 241.089 366.726 240.803Z" fill="black"/>
<path d="M373.295 234.761C373.295 234.527 373.295 234.516 373.094 234.516C372.853 234.792 372.351 235.17 371.316 235.17V235.466C371.547 235.466 372.049 235.466 372.602 235.2V240.518C372.602 240.885 372.572 241.008 371.688 241.008H371.376V241.304C371.648 241.283 372.622 241.283 372.954 241.283C373.285 241.283 374.25 241.283 374.521 241.304V241.008H374.21C373.326 241.008 373.295 240.885 373.295 240.518V234.761Z" fill="black"/>
<path d="M384.894 235.241C385.005 235.19 385.085 235.139 385.085 235.016C385.085 234.904 385.005 234.812 384.884 234.812C384.834 234.812 384.744 234.853 384.703 234.874L379.147 237.537C378.976 237.619 378.946 237.691 378.946 237.772C378.946 237.864 379.006 237.935 379.147 237.997L384.703 240.65C384.834 240.722 384.854 240.722 384.884 240.722C384.995 240.722 385.085 240.63 385.085 240.518C385.085 240.426 385.045 240.365 384.874 240.283L379.619 237.772L384.894 235.241ZM384.734 242.702C384.904 242.702 385.085 242.702 385.085 242.498C385.085 242.294 384.874 242.294 384.723 242.294H379.308C379.157 242.294 378.946 242.294 378.946 242.498C378.946 242.702 379.127 242.702 379.297 242.702H384.734Z" fill="black"/>
<path d="M389.03 243.069C389.02 243.12 389 243.182 389 243.243C389 243.396 389.12 243.498 389.271 243.498C389.422 243.498 389.562 243.396 389.622 243.253C389.663 243.161 389.944 241.936 390.266 240.681C390.467 241.191 390.838 241.406 391.23 241.406C392.366 241.406 393.652 239.977 393.652 238.436C393.652 237.344 392.999 236.803 392.305 236.803C391.421 236.803 390.346 237.731 390.014 239.089L389.03 243.069ZM391.22 241.201C390.537 241.201 390.366 240.395 390.366 240.273C390.366 240.211 390.617 239.242 390.647 239.089C391.16 237.058 392.145 237.007 392.295 237.007C392.747 237.007 392.999 237.425 392.999 238.027C392.999 238.548 392.727 239.558 392.557 239.987C392.255 240.691 391.733 241.201 391.22 241.201Z" fill="black"/>
<path d="M403.366 235.241C403.477 235.19 403.557 235.139 403.557 235.016C403.557 234.904 403.477 234.812 403.356 234.812C403.306 234.812 403.216 234.853 403.176 234.874L397.619 237.537C397.448 237.619 397.418 237.691 397.418 237.772C397.418 237.864 397.478 237.935 397.619 237.997L403.176 240.65C403.306 240.722 403.326 240.722 403.356 240.722C403.467 240.722 403.557 240.63 403.557 240.518C403.557 240.426 403.517 240.365 403.346 240.283L398.091 237.772L403.366 235.241ZM403.206 242.702C403.377 242.702 403.557 242.702 403.557 242.498C403.557 242.294 403.346 242.294 403.196 242.294H397.78C397.629 242.294 397.418 242.294 397.418 242.498C397.418 242.702 397.599 242.702 397.77 242.702H403.206Z" fill="black"/>
<path d="M411.611 239.589H411.39C411.36 239.762 411.28 240.324 411.179 240.487C411.109 240.579 410.536 240.579 410.235 240.579H408.376C408.647 240.344 409.26 239.691 409.521 239.446C411.049 238.017 411.611 237.486 411.611 236.476C411.611 235.302 410.697 234.516 409.531 234.516C408.366 234.516 407.683 235.527 407.683 236.405C407.683 236.925 408.125 236.925 408.155 236.925C408.366 236.925 408.627 236.772 408.627 236.445C408.627 236.16 408.436 235.966 408.155 235.966C408.064 235.966 408.044 235.966 408.014 235.976C408.205 235.282 408.748 234.812 409.401 234.812C410.255 234.812 410.777 235.537 410.777 236.476C410.777 237.344 410.285 238.099 409.712 238.752L407.683 241.059V241.304H411.35L411.611 239.589Z" fill="black"/>
<path d="M414.069 241.344C414.069 240.752 413.878 240.314 413.466 240.314C413.145 240.314 412.984 240.579 412.984 240.803C412.984 241.028 413.135 241.304 413.476 241.304C413.607 241.304 413.717 241.263 413.808 241.171C413.828 241.15 413.838 241.15 413.848 241.15C413.868 241.15 413.868 241.293 413.868 241.344C413.868 241.681 413.808 242.345 413.225 243.008C413.115 243.13 413.115 243.151 413.115 243.171C413.115 243.222 413.165 243.273 413.215 243.273C413.295 243.273 414.069 242.518 414.069 241.344Z" fill="black"/>
<path d="M423.139 238.956C423.31 238.956 423.49 238.956 423.49 238.752C423.49 238.548 423.31 238.548 423.139 238.548H417.703C417.532 238.548 417.351 238.548 417.351 238.752C417.351 238.956 417.532 238.956 417.703 238.956H423.139Z" fill="black"/>
<path d="M427.94 230.551H429.075C428.804 231.694 428.633 232.439 428.633 233.256C428.633 233.399 428.633 234.501 429.045 234.501C429.256 234.501 429.437 234.307 429.437 234.134C429.437 234.083 429.437 234.062 429.367 233.909C429.095 233.205 429.095 232.327 429.095 232.256C429.095 232.194 429.095 231.47 429.306 230.551H430.432C430.562 230.551 430.894 230.551 430.894 230.225C430.894 230 430.703 230 430.522 230H427.216C426.985 230 426.644 230 426.181 230.5C425.92 230.796 425.599 231.337 425.599 231.398C425.599 231.46 425.649 231.48 425.709 231.48C425.779 231.48 425.79 231.449 425.84 231.388C426.362 230.551 426.885 230.551 427.136 230.551H427.709C427.488 231.317 427.236 232.205 426.413 233.991C426.332 234.154 426.332 234.174 426.332 234.236C426.332 234.45 426.513 234.501 426.603 234.501C426.895 234.501 426.975 234.236 427.096 233.807C427.257 233.286 427.257 233.266 427.357 232.858L427.94 230.551Z" fill="black"/>
<path d="M431.279 238.548H425.337V238.956H431.279V238.548Z" fill="black"/>
<path d="M429.476 241.66C429.476 241.466 429.476 241.415 429.335 241.415C429.255 241.415 429.225 241.415 429.144 241.538L426.12 246.304V246.6H428.762V247.529C428.762 247.907 428.742 248.009 428.009 248.009H427.808V248.305C428.039 248.284 428.833 248.284 429.114 248.284C429.395 248.284 430.199 248.284 430.43 248.305V248.009H430.229C429.506 248.009 429.476 247.907 429.476 247.529V246.6H430.491V246.304H429.476V241.66ZM428.813 242.456V246.304H426.371L428.813 242.456Z" fill="black"/>
<path d="M441.857 235.241C441.968 235.19 442.048 235.139 442.048 235.016C442.048 234.904 441.968 234.812 441.847 234.812C441.797 234.812 441.706 234.853 441.666 234.874L436.11 237.537C435.939 237.619 435.909 237.691 435.909 237.772C435.909 237.864 435.969 237.935 436.11 237.997L441.666 240.65C441.797 240.722 441.817 240.722 441.847 240.722C441.958 240.722 442.048 240.63 442.048 240.518C442.048 240.426 442.008 240.365 441.837 240.283L436.582 237.772L441.857 235.241ZM441.696 242.702C441.867 242.702 442.048 242.702 442.048 242.498C442.048 242.294 441.837 242.294 441.686 242.294H436.27C436.12 242.294 435.909 242.294 435.909 242.498C435.909 242.702 436.09 242.702 436.26 242.702H441.696Z" fill="black"/>
<path d="M450.132 236.17C450.132 235.129 449.811 234.118 448.987 234.118C447.58 234.118 446.083 237.109 446.083 239.354C446.083 239.824 446.183 241.406 447.239 241.406C448.605 241.406 450.132 238.487 450.132 236.17ZM447.088 237.609C447.239 237.007 447.45 236.149 447.851 235.425C448.183 234.812 448.535 234.322 448.977 234.322C449.308 234.322 449.53 234.608 449.53 235.588C449.53 235.955 449.499 236.466 449.208 237.609H447.088ZM449.138 237.915C448.886 238.915 448.675 239.558 448.314 240.201C448.022 240.722 447.671 241.201 447.249 241.201C446.937 241.201 446.686 240.957 446.686 239.946C446.686 239.283 446.847 238.589 447.007 237.915H449.138Z" fill="black"/>
<path d="M460.113 235.241C460.224 235.19 460.304 235.139 460.304 235.016C460.304 234.904 460.224 234.812 460.103 234.812C460.053 234.812 459.962 234.853 459.922 234.874L454.366 237.537C454.195 237.619 454.165 237.691 454.165 237.772C454.165 237.864 454.225 237.935 454.366 237.997L459.922 240.65C460.053 240.722 460.073 240.722 460.103 240.722C460.214 240.722 460.304 240.63 460.304 240.518C460.304 240.426 460.264 240.365 460.093 240.283L454.838 237.772L460.113 235.241ZM459.952 242.702C460.123 242.702 460.304 242.702 460.304 242.498C460.304 242.294 460.093 242.294 459.942 242.294H454.526C454.376 242.294 454.165 242.294 454.165 242.498C454.165 242.702 454.345 242.702 454.516 242.702H459.952Z" fill="black"/>
<path d="M467.544 230.551H468.68C468.408 231.694 468.238 232.439 468.238 233.256C468.238 233.399 468.238 234.501 468.65 234.501C468.861 234.501 469.042 234.307 469.042 234.134C469.042 234.083 469.042 234.062 468.971 233.909C468.7 233.205 468.7 232.327 468.7 232.256C468.7 232.194 468.7 231.47 468.911 230.551H470.036C470.167 230.551 470.498 230.551 470.498 230.225C470.498 230 470.308 230 470.127 230H466.821C466.59 230 466.248 230 465.786 230.5C465.525 230.796 465.203 231.337 465.203 231.398C465.203 231.46 465.253 231.48 465.314 231.48C465.384 231.48 465.394 231.449 465.444 231.388C465.967 230.551 466.489 230.551 466.74 230.551H467.313C467.092 231.317 466.841 232.205 466.017 233.991C465.937 234.154 465.937 234.174 465.937 234.236C465.937 234.45 466.118 234.501 466.208 234.501C466.499 234.501 466.58 234.236 466.7 233.807C466.861 233.286 466.861 233.266 466.962 232.858L467.544 230.551Z" fill="black"/>
<path d="M470.883 238.548H464.942V238.956H470.883V238.548Z" fill="black"/>
<path d="M469.08 241.66C469.08 241.466 469.08 241.415 468.94 241.415C468.859 241.415 468.829 241.415 468.749 241.538L465.724 246.304V246.6H468.367V247.529C468.367 247.907 468.347 248.009 467.613 248.009H467.412V248.305C467.643 248.284 468.437 248.284 468.718 248.284C469 248.284 469.804 248.284 470.035 248.305V248.009H469.834C469.11 248.009 469.08 247.907 469.08 247.529V246.6H470.095V246.304H469.08V241.66ZM468.417 242.456V246.304H465.975L468.417 242.456Z" fill="black"/>
<path d="M474.058 242.498C474.058 242.906 473.797 243.559 472.702 243.631C472.652 243.641 472.611 243.682 472.611 243.743C472.611 243.855 472.722 243.855 472.812 243.855C473.787 243.855 474.721 243.355 474.731 242.579V240.252C474.731 239.854 474.731 239.528 475.133 239.191C475.485 238.895 475.867 238.874 476.088 238.864C476.138 238.854 476.178 238.813 476.178 238.752C476.178 238.65 476.118 238.65 476.018 238.64C475.354 238.599 474.872 238.231 474.762 237.731C474.731 237.619 474.731 237.599 474.731 237.231V235.21C474.731 234.782 474.731 234.455 474.249 234.067C473.847 233.751 473.154 233.649 472.812 233.649C472.722 233.649 472.611 233.649 472.611 233.761C472.611 233.863 472.672 233.863 472.772 233.873C473.405 233.914 473.897 234.241 474.028 234.761C474.058 234.853 474.058 234.874 474.058 235.241V237.384C474.058 237.854 474.139 238.027 474.46 238.354C474.671 238.568 474.963 238.67 475.244 238.752C474.42 238.987 474.058 239.456 474.058 240.048V242.498Z" fill="black"/>
</svg>
