<svg width="503" height="277" viewBox="0 0 503 277" fill="none" xmlns="http://www.w3.org/2000/svg">
<path d="M87.2242 43.892C39.2241 53.092 73.5 135.892 105.724 135.892C140.724 135.892 147.224 32.392 87.2242 43.892Z" stroke="black"/>
<circle cx="131.5" cy="100.21" r="5.5" fill="black"/>
<circle cx="298.5" cy="185.21" r="5.5" fill="black"/>
<circle cx="150" cy="195.291" r="5.5" fill="black"/>
<circle cx="304.5" cy="105.21" r="5.5" fill="black"/>
<path d="M155.099 52.2097H153.778C153.7 51.8298 153.564 51.496 153.368 51.2083C153.176 50.9207 152.942 50.6792 152.665 50.4839C152.392 50.285 152.088 50.1359 151.754 50.0364C151.42 49.937 151.072 49.8873 150.71 49.8873C150.05 49.8873 149.451 50.0542 148.915 50.388C148.382 50.7218 147.958 51.2136 147.642 51.8635C147.33 52.5134 147.173 53.3106 147.173 54.2552C147.173 55.1998 147.33 55.997 147.642 56.6469C147.958 57.2967 148.382 57.7886 148.915 58.1224C149.451 58.4562 150.05 58.6231 150.71 58.6231C151.072 58.6231 151.42 58.5734 151.754 58.4739C152.088 58.3745 152.392 58.2271 152.665 58.0318C152.942 57.833 153.176 57.5897 153.368 57.3021C153.564 57.0109 153.7 56.6771 153.778 56.3006H155.099C155 56.8582 154.819 57.3571 154.556 57.7974C154.293 58.2378 153.967 58.6124 153.576 58.9214C153.185 59.2268 152.747 59.4594 152.26 59.6192C151.777 59.779 151.261 59.8589 150.71 59.8589C149.78 59.8589 148.952 59.6316 148.228 59.1771C147.504 58.7225 146.934 58.0762 146.518 57.2381C146.103 56.4001 145.895 55.4058 145.895 54.2552C145.895 53.1046 146.103 52.1103 146.518 51.2722C146.934 50.4342 147.504 49.7879 148.228 49.3333C148.952 48.8788 149.78 48.6515 150.71 48.6515C151.261 48.6515 151.777 48.7314 152.26 48.8912C152.747 49.051 153.185 49.2854 153.576 49.5943C153.967 49.8997 154.293 50.2726 154.556 50.7129C154.819 51.1497 155 51.6487 155.099 52.2097ZM158.321 54.7879V59.7097H157.064V48.8006H158.321V52.8063H158.427C158.619 52.3837 158.907 52.0482 159.29 51.7996C159.677 51.5474 160.192 51.4214 160.835 51.4214C161.392 51.4214 161.881 51.5332 162.3 51.757C162.719 51.9771 163.044 52.3163 163.275 52.7744C163.509 53.2289 163.626 53.8077 163.626 54.5109V59.7097H162.369V54.5961C162.369 53.9462 162.2 53.4438 161.863 53.0886C161.529 52.73 161.066 52.5506 160.473 52.5506C160.061 52.5506 159.691 52.6376 159.365 52.8116C159.042 52.9857 158.786 53.2396 158.598 53.5734C158.413 53.9072 158.321 54.312 158.321 54.7879ZM165.926 59.7097V51.5279H167.183V59.7097H165.926ZM166.565 50.1643C166.32 50.1643 166.109 50.0808 165.931 49.9139C165.757 49.747 165.67 49.5464 165.67 49.312C165.67 49.0776 165.757 48.877 165.931 48.7101C166.109 48.5432 166.32 48.4597 166.565 48.4597C166.81 48.4597 167.02 48.5432 167.194 48.7101C167.371 48.877 167.46 49.0776 167.46 49.312C167.46 49.5464 167.371 49.747 167.194 49.9139C167.02 50.0808 166.81 50.1643 166.565 50.1643ZM174.642 56.3646V51.5279H175.899V59.7097H174.642V58.3248H174.557C174.365 58.7403 174.066 59.0936 173.662 59.3848C173.257 59.6724 172.745 59.8163 172.128 59.8163C171.616 59.8163 171.162 59.7044 170.764 59.4807C170.366 59.2534 170.054 58.9125 169.826 58.458C169.599 57.9999 169.486 57.4228 169.486 56.7268V51.5279H170.743V56.6416C170.743 57.2381 170.91 57.714 171.243 58.0691C171.581 58.4242 172.01 58.6018 172.532 58.6018C172.845 58.6018 173.163 58.5219 173.486 58.3621C173.813 58.2023 174.086 57.9572 174.306 57.627C174.53 57.2967 174.642 56.8759 174.642 56.3646ZM183.997 53.3603L182.868 53.6799C182.797 53.4917 182.692 53.3088 182.553 53.1313C182.418 52.9501 182.234 52.801 181.999 52.6838C181.765 52.5666 181.465 52.508 181.099 52.508C180.598 52.508 180.181 52.6234 179.847 52.8543C179.517 53.0815 179.352 53.371 179.352 53.7225C179.352 54.035 179.466 54.2818 179.693 54.4629C179.92 54.644 180.275 54.795 180.758 54.9157L181.973 55.214C182.704 55.3916 183.249 55.6632 183.608 56.029C183.967 56.3912 184.146 56.8582 184.146 57.4299C184.146 57.8987 184.011 58.3177 183.741 58.687C183.475 59.0563 183.102 59.3475 182.623 59.5606C182.143 59.7737 181.586 59.8802 180.95 59.8802C180.115 59.8802 179.425 59.6991 178.878 59.3369C178.331 58.9746 177.985 58.4455 177.839 57.7495L179.032 57.4512C179.146 57.8916 179.361 58.2218 179.677 58.442C179.996 58.6621 180.414 58.7722 180.929 58.7722C181.515 58.7722 181.98 58.6479 182.324 58.3994C182.672 58.1472 182.846 57.8454 182.846 57.4938C182.846 57.2097 182.747 56.9718 182.548 56.78C182.349 56.5847 182.044 56.4391 181.632 56.3433L180.268 56.0237C179.519 55.8461 178.968 55.5709 178.617 55.198C178.269 54.8216 178.095 54.3511 178.095 53.7864C178.095 53.3248 178.224 52.9164 178.484 52.5613C178.746 52.2062 179.103 51.9274 179.554 51.725C180.009 51.5226 180.524 51.4214 181.099 51.4214C181.909 51.4214 182.544 51.5989 183.006 51.954C183.471 52.3092 183.801 52.7779 183.997 53.3603ZM188.446 59.9015C187.927 59.9015 187.457 59.8038 187.034 59.6085C186.612 59.4097 186.276 59.1238 186.028 58.7509C185.779 58.3745 185.655 57.92 185.655 57.3873C185.655 56.9185 185.747 56.5386 185.932 56.2474C186.116 55.9526 186.363 55.7218 186.672 55.5549C186.981 55.388 187.322 55.2637 187.695 55.182C188.071 55.0968 188.449 55.0293 188.829 54.9796C189.327 54.9157 189.73 54.8678 190.039 54.8358C190.351 54.8003 190.578 54.7417 190.72 54.66C190.866 54.5783 190.939 54.4363 190.939 54.2339V54.1913C190.939 53.6657 190.795 53.2573 190.507 52.9661C190.223 52.6749 189.792 52.5293 189.213 52.5293C188.613 52.5293 188.142 52.6607 187.801 52.9235C187.46 53.1863 187.221 53.4668 187.082 53.7651L185.889 53.339C186.102 52.8418 186.386 52.4548 186.741 52.1778C187.1 51.8972 187.491 51.7019 187.913 51.5918C188.339 51.4782 188.758 51.4214 189.17 51.4214C189.433 51.4214 189.735 51.4533 190.076 51.5173C190.42 51.5776 190.752 51.7037 191.072 51.8955C191.395 52.0872 191.663 52.3766 191.876 52.7637C192.089 53.1508 192.196 53.6692 192.196 54.3191V59.7097H190.939V58.6018H190.875C190.79 58.7793 190.648 58.9693 190.449 59.1717C190.25 59.3741 189.985 59.5464 189.655 59.6884C189.325 59.8305 188.922 59.9015 188.446 59.9015ZM188.638 58.7722C189.135 58.7722 189.554 58.6746 189.895 58.4793C190.239 58.284 190.498 58.0318 190.672 57.7229C190.85 57.4139 190.939 57.089 190.939 56.7481V55.5975C190.886 55.6614 190.768 55.72 190.587 55.7733C190.41 55.823 190.204 55.8674 189.969 55.9065C189.739 55.942 189.513 55.9739 189.293 56.0023C189.076 56.0272 188.9 56.0485 188.766 56.0663C188.439 56.1089 188.133 56.1781 187.849 56.274C187.569 56.3663 187.342 56.5066 187.168 56.6948C186.997 56.8795 186.912 57.1316 186.912 57.4512C186.912 57.888 187.073 58.2183 187.397 58.442C187.723 58.6621 188.137 58.7722 188.638 58.7722ZM152.287 69.5279C152.223 68.9881 151.964 68.5691 151.509 68.2708C151.055 67.9725 150.497 67.8234 149.837 67.8234C149.354 67.8234 148.931 67.9015 148.569 68.0577C148.21 68.214 147.93 68.4288 147.727 68.7023C147.528 68.9757 147.429 69.2864 147.429 69.6344C147.429 69.9256 147.498 70.176 147.637 70.3855C147.779 70.5915 147.96 70.7637 148.18 70.9022C148.4 71.0371 148.631 71.149 148.873 71.2378C149.114 71.323 149.336 71.3923 149.538 71.4455L150.646 71.7438C150.93 71.8184 151.246 71.9214 151.594 72.0528C151.946 72.1842 152.282 72.3635 152.601 72.5908C152.924 72.8145 153.191 73.1021 153.4 73.4537C153.61 73.8053 153.714 74.2367 153.714 74.7481C153.714 75.3376 153.56 75.8702 153.251 76.3461C152.946 76.8219 152.498 77.2001 151.909 77.4807C151.323 77.7612 150.611 77.9015 149.773 77.9015C148.991 77.9015 148.315 77.7754 147.743 77.5233C147.175 77.2712 146.728 76.9196 146.401 76.4686C146.078 76.0176 145.895 75.4938 145.852 74.8972H147.216C147.251 75.3092 147.39 75.6501 147.631 75.92C147.876 76.1863 148.185 76.3852 148.558 76.5166C148.935 76.6444 149.339 76.7083 149.773 76.7083C150.277 76.7083 150.73 76.6266 151.131 76.4633C151.532 76.2964 151.85 76.0656 152.085 75.7708C152.319 75.4725 152.436 75.1245 152.436 74.7268C152.436 74.3646 152.335 74.0698 152.132 73.8425C151.93 73.6153 151.664 73.4306 151.333 73.2886C151.003 73.1465 150.646 73.0222 150.263 72.9157L148.92 72.5322C148.068 72.2871 147.393 71.9374 146.896 71.4828C146.399 71.0283 146.151 70.4335 146.151 69.6984C146.151 69.0876 146.316 68.5549 146.646 68.1004C146.98 67.6423 147.427 67.2871 147.988 67.035C148.553 66.7793 149.183 66.6515 149.879 66.6515C150.582 66.6515 151.207 66.7776 151.754 67.0297C152.301 67.2783 152.734 67.6192 153.054 68.0524C153.377 68.4857 153.548 68.9775 153.565 69.5279H152.287ZM159.146 77.8802C158.358 77.8802 157.678 77.7062 157.106 77.3582C156.538 77.0066 156.1 76.5166 155.791 75.888C155.485 75.2559 155.332 74.5208 155.332 73.6827C155.332 72.8447 155.485 72.106 155.791 71.4668C156.1 70.8241 156.529 70.3234 157.08 69.9647C157.634 69.6025 158.28 69.4214 159.019 69.4214C159.445 69.4214 159.866 69.4924 160.281 69.6344C160.696 69.7765 161.075 70.0073 161.416 70.3269C161.756 70.643 162.028 71.062 162.231 71.584C162.433 72.106 162.534 72.7488 162.534 73.5123V74.045H156.227V72.9583H161.256C161.256 72.4967 161.163 72.0847 160.979 71.7225C160.798 71.3603 160.538 71.0744 160.201 70.8649C159.867 70.6554 159.473 70.5506 159.019 70.5506C158.518 70.5506 158.085 70.6749 157.719 70.9235C157.357 71.1685 157.078 71.4881 156.883 71.8823C156.687 72.2765 156.59 72.6991 156.59 73.1501V73.8745C156.59 74.4924 156.696 75.0162 156.909 75.4459C157.126 75.872 157.426 76.1969 157.809 76.4207C158.193 76.6408 158.639 76.7509 159.146 76.7509C159.477 76.7509 159.775 76.7048 160.041 76.6124C160.311 76.5166 160.544 76.3745 160.739 76.1863C160.934 75.9945 161.085 75.7566 161.192 75.4725L162.406 75.8134C162.278 76.2254 162.064 76.5876 161.762 76.9001C161.46 77.209 161.087 77.4505 160.643 77.6245C160.199 77.795 159.7 77.8802 159.146 77.8802ZM164.446 77.7097V69.5279H165.661V70.8063H165.767C165.938 70.3695 166.213 70.0304 166.593 69.7889C166.973 69.5439 167.429 69.4214 167.962 69.4214C168.502 69.4214 168.951 69.5439 169.31 69.7889C169.672 70.0304 169.954 70.3695 170.157 70.8063H170.242C170.451 70.3837 170.766 70.0482 171.185 69.7996C171.604 69.5474 172.106 69.4214 172.692 69.4214C173.424 69.4214 174.022 69.6504 174.487 70.1085C174.953 70.5631 175.185 71.2715 175.185 72.2339V77.7097H173.928V72.2339C173.928 71.6302 173.763 71.1987 173.433 70.9395C173.102 70.6803 172.714 70.5506 172.266 70.5506C171.691 70.5506 171.245 70.7246 170.929 71.0727C170.613 71.4171 170.455 71.8539 170.455 72.383V77.7097H169.177V72.106C169.177 71.6408 169.026 71.2662 168.724 70.9821C168.422 70.6945 168.033 70.5506 167.557 70.5506C167.231 70.5506 166.925 70.6376 166.641 70.8116C166.361 70.9857 166.133 71.2271 165.959 71.5361C165.789 71.8415 165.704 72.1948 165.704 72.5961V77.7097H164.446ZM177.484 80.7779V69.5279H178.698V70.8276H178.847C178.94 70.6856 179.067 70.5045 179.231 70.2843C179.398 70.0606 179.636 69.8617 179.945 69.6877C180.257 69.5102 180.68 69.4214 181.212 69.4214C181.901 69.4214 182.508 69.5936 183.034 69.9381C183.56 70.2825 183.97 70.7708 184.264 71.4029C184.559 72.035 184.707 72.7808 184.707 73.6401C184.707 74.5066 184.559 75.2577 184.264 75.8933C183.97 76.5254 183.561 77.0155 183.039 77.3635C182.517 77.708 181.915 77.8802 181.234 77.8802C180.708 77.8802 180.287 77.7932 179.971 77.6192C179.655 77.4416 179.412 77.241 179.241 77.0173C179.071 76.79 178.94 76.6018 178.847 76.4526H178.741V80.7779H177.484ZM178.719 73.6188C178.719 74.2367 178.81 74.7818 178.991 75.2541C179.172 75.7229 179.437 76.0904 179.785 76.3567C180.133 76.6195 180.559 76.7509 181.063 76.7509C181.589 76.7509 182.027 76.6124 182.379 76.3354C182.734 76.0549 183 75.6785 183.178 75.2062C183.359 74.7303 183.449 74.2012 183.449 73.6188C183.449 73.0435 183.361 72.5251 183.183 72.0634C183.009 71.5982 182.745 71.2307 182.389 70.9608C182.038 70.6874 181.596 70.5506 181.063 70.5506C180.552 70.5506 180.122 70.6803 179.774 70.9395C179.426 71.1952 179.163 71.5538 178.986 72.0155C178.808 72.4736 178.719 73.008 178.719 73.6188ZM187.881 66.8006V77.7097H186.624V66.8006H187.881ZM190.184 77.7097V69.5279H191.441V77.7097H190.184ZM190.823 68.1643C190.578 68.1643 190.367 68.0808 190.189 67.9139C190.015 67.747 189.928 67.5464 189.928 67.312C189.928 67.0776 190.015 66.877 190.189 66.7101C190.367 66.5432 190.578 66.4597 190.823 66.4597C191.068 66.4597 191.278 66.5432 191.452 66.7101C191.629 66.877 191.718 67.0776 191.718 67.312C191.718 67.5464 191.629 67.747 191.452 67.9139C191.278 68.0808 191.068 68.1643 190.823 68.1643ZM197.067 77.8802C196.3 77.8802 195.64 77.6991 195.086 77.3369C194.532 76.9746 194.106 76.4757 193.807 75.8401C193.509 75.2044 193.36 74.4782 193.36 73.6614C193.36 72.8305 193.513 72.0972 193.818 71.4615C194.127 70.8223 194.557 70.3234 195.107 69.9647C195.661 69.6025 196.307 69.4214 197.046 69.4214C197.621 69.4214 198.14 69.5279 198.601 69.741C199.063 69.9541 199.441 70.2523 199.736 70.6359C200.031 71.0194 200.214 71.4668 200.285 71.9782H199.027C198.932 71.6053 198.718 71.2751 198.388 70.9874C198.062 70.6962 197.621 70.5506 197.067 70.5506C196.577 70.5506 196.147 70.6785 195.778 70.9342C195.412 71.1863 195.127 71.5432 194.921 72.0048C194.718 72.4629 194.617 73.0009 194.617 73.6188C194.617 74.2509 194.716 74.8014 194.915 75.2701C195.118 75.7389 195.402 76.1028 195.767 76.3621C196.137 76.6213 196.57 76.7509 197.067 76.7509C197.394 76.7509 197.69 76.6941 197.957 76.5805C198.223 76.4668 198.449 76.3035 198.633 76.0904C198.818 75.8773 198.949 75.6217 199.027 75.3234H200.285C200.214 75.8063 200.038 76.2413 199.757 76.6284C199.48 77.0119 199.113 77.3173 198.655 77.5446C198.2 77.7683 197.671 77.8802 197.067 77.8802ZM205.553 77.8802C204.764 77.8802 204.084 77.7062 203.513 77.3582C202.944 77.0066 202.506 76.5166 202.197 75.888C201.891 75.2559 201.739 74.5208 201.739 73.6827C201.739 72.8447 201.891 72.106 202.197 71.4668C202.506 70.8241 202.935 70.3234 203.486 69.9647C204.04 69.6025 204.686 69.4214 205.425 69.4214C205.851 69.4214 206.272 69.4924 206.687 69.6344C207.103 69.7765 207.481 70.0073 207.822 70.3269C208.163 70.643 208.434 71.062 208.637 71.584C208.839 72.106 208.94 72.7488 208.94 73.5123V74.045H202.634V72.9583H207.662C207.662 72.4967 207.57 72.0847 207.385 71.7225C207.204 71.3603 206.945 71.0744 206.607 70.8649C206.274 70.6554 205.879 70.5506 205.425 70.5506C204.924 70.5506 204.491 70.6749 204.125 70.9235C203.763 71.1685 203.484 71.4881 203.289 71.8823C203.093 72.2765 202.996 72.6991 202.996 73.1501V73.8745C202.996 74.4924 203.102 75.0162 203.315 75.4459C203.532 75.872 203.832 76.1969 204.216 76.4207C204.599 76.6408 205.045 76.7509 205.553 76.7509C205.883 76.7509 206.181 76.7048 206.448 76.6124C206.717 76.5166 206.95 76.3745 207.145 76.1863C207.341 75.9945 207.492 75.7566 207.598 75.4725L208.813 75.8134C208.685 76.2254 208.47 76.5876 208.168 76.9001C207.866 77.209 207.493 77.4505 207.049 77.6245C206.606 77.795 206.107 77.8802 205.553 77.8802Z" fill="black"/>
<path d="M270.722 67.4947C289.961 44.0241 364.422 105.495 351.222 67.4947C334.722 19.9947 317.222 110.495 296.722 110.495C276.197 110.495 259.222 81.5241 270.722 67.4947Z" stroke="black"/>
<path d="M376.099 52.2097H374.778C374.7 51.8298 374.564 51.496 374.368 51.2083C374.176 50.9207 373.942 50.6792 373.665 50.4839C373.392 50.285 373.088 50.1359 372.754 50.0364C372.42 49.937 372.072 49.8873 371.71 49.8873C371.05 49.8873 370.451 50.0542 369.915 50.388C369.382 50.7218 368.958 51.2136 368.642 51.8635C368.33 52.5134 368.173 53.3106 368.173 54.2552C368.173 55.1998 368.33 55.997 368.642 56.6469C368.958 57.2967 369.382 57.7886 369.915 58.1224C370.451 58.4562 371.05 58.6231 371.71 58.6231C372.072 58.6231 372.42 58.5734 372.754 58.4739C373.088 58.3745 373.392 58.2271 373.665 58.0318C373.942 57.833 374.176 57.5897 374.368 57.3021C374.564 57.0109 374.7 56.6771 374.778 56.3006H376.099C376 56.8582 375.819 57.3571 375.556 57.7974C375.293 58.2378 374.967 58.6124 374.576 58.9214C374.185 59.2268 373.747 59.4594 373.26 59.6192C372.777 59.779 372.261 59.8589 371.71 59.8589C370.78 59.8589 369.952 59.6316 369.228 59.1771C368.504 58.7225 367.934 58.0762 367.518 57.2381C367.103 56.4001 366.895 55.4058 366.895 54.2552C366.895 53.1046 367.103 52.1103 367.518 51.2722C367.934 50.4342 368.504 49.7879 369.228 49.3333C369.952 48.8788 370.78 48.6515 371.71 48.6515C372.261 48.6515 372.777 48.7314 373.26 48.8912C373.747 49.051 374.185 49.2854 374.576 49.5943C374.967 49.8997 375.293 50.2726 375.556 50.7129C375.819 51.1497 376 51.6487 376.099 52.2097ZM379.321 54.7879V59.7097H378.064V48.8006H379.321V52.8063H379.427C379.619 52.3837 379.907 52.0482 380.29 51.7996C380.677 51.5474 381.192 51.4214 381.835 51.4214C382.392 51.4214 382.881 51.5332 383.3 51.757C383.719 51.9771 384.044 52.3163 384.275 52.7744C384.509 53.2289 384.626 53.8077 384.626 54.5109V59.7097H383.369V54.5961C383.369 53.9462 383.2 53.4438 382.863 53.0886C382.529 52.73 382.066 52.5506 381.473 52.5506C381.061 52.5506 380.691 52.6376 380.365 52.8116C380.042 52.9857 379.786 53.2396 379.598 53.5734C379.413 53.9072 379.321 54.312 379.321 54.7879ZM386.926 59.7097V51.5279H388.183V59.7097H386.926ZM387.565 50.1643C387.32 50.1643 387.109 50.0808 386.931 49.9139C386.757 49.747 386.67 49.5464 386.67 49.312C386.67 49.0776 386.757 48.877 386.931 48.7101C387.109 48.5432 387.32 48.4597 387.565 48.4597C387.81 48.4597 388.02 48.5432 388.194 48.7101C388.371 48.877 388.46 49.0776 388.46 49.312C388.46 49.5464 388.371 49.747 388.194 49.9139C388.02 50.0808 387.81 50.1643 387.565 50.1643ZM395.642 56.3646V51.5279H396.899V59.7097H395.642V58.3248H395.557C395.365 58.7403 395.066 59.0936 394.662 59.3848C394.257 59.6724 393.745 59.8163 393.128 59.8163C392.616 59.8163 392.162 59.7044 391.764 59.4807C391.366 59.2534 391.054 58.9125 390.826 58.458C390.599 57.9999 390.486 57.4228 390.486 56.7268V51.5279H391.743V56.6416C391.743 57.2381 391.91 57.714 392.243 58.0691C392.581 58.4242 393.01 58.6018 393.532 58.6018C393.845 58.6018 394.163 58.5219 394.486 58.3621C394.813 58.2023 395.086 57.9572 395.306 57.627C395.53 57.2967 395.642 56.8759 395.642 56.3646ZM404.997 53.3603L403.868 53.6799C403.797 53.4917 403.692 53.3088 403.553 53.1313C403.418 52.9501 403.234 52.801 402.999 52.6838C402.765 52.5666 402.465 52.508 402.099 52.508C401.598 52.508 401.181 52.6234 400.847 52.8543C400.517 53.0815 400.352 53.371 400.352 53.7225C400.352 54.035 400.466 54.2818 400.693 54.4629C400.92 54.644 401.275 54.795 401.758 54.9157L402.973 55.214C403.704 55.3916 404.249 55.6632 404.608 56.029C404.967 56.3912 405.146 56.8582 405.146 57.4299C405.146 57.8987 405.011 58.3177 404.741 58.687C404.475 59.0563 404.102 59.3475 403.623 59.5606C403.143 59.7737 402.586 59.8802 401.95 59.8802C401.115 59.8802 400.425 59.6991 399.878 59.3369C399.331 58.9746 398.985 58.4455 398.839 57.7495L400.032 57.4512C400.146 57.8916 400.361 58.2218 400.677 58.442C400.996 58.6621 401.414 58.7722 401.929 58.7722C402.515 58.7722 402.98 58.6479 403.324 58.3994C403.672 58.1472 403.846 57.8454 403.846 57.4938C403.846 57.2097 403.747 56.9718 403.548 56.78C403.349 56.5847 403.044 56.4391 402.632 56.3433L401.268 56.0237C400.519 55.8461 399.968 55.5709 399.617 55.198C399.269 54.8216 399.095 54.3511 399.095 53.7864C399.095 53.3248 399.224 52.9164 399.484 52.5613C399.746 52.2062 400.103 51.9274 400.554 51.725C401.009 51.5226 401.524 51.4214 402.099 51.4214C402.909 51.4214 403.544 51.5989 404.006 51.954C404.471 52.3092 404.801 52.7779 404.997 53.3603ZM409.446 59.9015C408.927 59.9015 408.457 59.8038 408.034 59.6085C407.612 59.4097 407.276 59.1238 407.028 58.7509C406.779 58.3745 406.655 57.92 406.655 57.3873C406.655 56.9185 406.747 56.5386 406.932 56.2474C407.116 55.9526 407.363 55.7218 407.672 55.5549C407.981 55.388 408.322 55.2637 408.695 55.182C409.071 55.0968 409.449 55.0293 409.829 54.9796C410.327 54.9157 410.73 54.8678 411.039 54.8358C411.351 54.8003 411.578 54.7417 411.72 54.66C411.866 54.5783 411.939 54.4363 411.939 54.2339V54.1913C411.939 53.6657 411.795 53.2573 411.507 52.9661C411.223 52.6749 410.792 52.5293 410.213 52.5293C409.613 52.5293 409.142 52.6607 408.801 52.9235C408.46 53.1863 408.221 53.4668 408.082 53.7651L406.889 53.339C407.102 52.8418 407.386 52.4548 407.741 52.1778C408.1 51.8972 408.491 51.7019 408.913 51.5918C409.339 51.4782 409.758 51.4214 410.17 51.4214C410.433 51.4214 410.735 51.4533 411.076 51.5173C411.42 51.5776 411.752 51.7037 412.072 51.8955C412.395 52.0872 412.663 52.3766 412.876 52.7637C413.089 53.1508 413.196 53.6692 413.196 54.3191V59.7097H411.939V58.6018H411.875C411.79 58.7793 411.648 58.9693 411.449 59.1717C411.25 59.3741 410.985 59.5464 410.655 59.6884C410.325 59.8305 409.922 59.9015 409.446 59.9015ZM409.638 58.7722C410.135 58.7722 410.554 58.6746 410.895 58.4793C411.239 58.284 411.498 58.0318 411.672 57.7229C411.85 57.4139 411.939 57.089 411.939 56.7481V55.5975C411.886 55.6614 411.768 55.72 411.587 55.7733C411.41 55.823 411.204 55.8674 410.969 55.9065C410.739 55.942 410.513 55.9739 410.293 56.0023C410.076 56.0272 409.9 56.0485 409.766 56.0663C409.439 56.1089 409.133 56.1781 408.849 56.274C408.569 56.3663 408.342 56.5066 408.168 56.6948C407.997 56.8795 407.912 57.1316 407.912 57.4512C407.912 57.888 408.073 58.2183 408.397 58.442C408.723 58.6621 409.137 58.7722 409.638 58.7722ZM375.972 66.8006V77.7097H374.693L368.749 69.1444H368.642V77.7097H367.321V66.8006H368.599L374.565 75.3873H374.672V66.8006H375.972ZM381.768 77.8802C381.03 77.8802 380.382 77.7044 379.824 77.3528C379.27 77.0013 378.837 76.5094 378.524 75.8773C378.215 75.2452 378.061 74.5066 378.061 73.6614C378.061 72.8092 378.215 72.0652 378.524 71.4295C378.837 70.7939 379.27 70.3003 379.824 69.9487C380.382 69.5972 381.03 69.4214 381.768 69.4214C382.507 69.4214 383.153 69.5972 383.707 69.9487C384.265 70.3003 384.698 70.7939 385.007 71.4295C385.32 72.0652 385.476 72.8092 385.476 73.6614C385.476 74.5066 385.32 75.2452 385.007 75.8773C384.698 76.5094 384.265 77.0013 383.707 77.3528C383.153 77.7044 382.507 77.8802 381.768 77.8802ZM381.768 76.7509C382.329 76.7509 382.791 76.6071 383.153 76.3195C383.516 76.0318 383.784 75.6536 383.958 75.1849C384.132 74.7161 384.219 74.2083 384.219 73.6614C384.219 73.1146 384.132 72.605 383.958 72.1327C383.784 71.6604 383.516 71.2786 383.153 70.9874C382.791 70.6962 382.329 70.5506 381.768 70.5506C381.207 70.5506 380.746 70.6962 380.383 70.9874C380.021 71.2786 379.753 71.6604 379.579 72.1327C379.405 72.605 379.318 73.1146 379.318 73.6614C379.318 74.2083 379.405 74.7161 379.579 75.1849C379.753 75.6536 380.021 76.0318 380.383 76.3195C380.746 76.6071 381.207 76.7509 381.768 76.7509ZM388.652 72.7879V77.7097H387.395V69.5279H388.609V70.8063H388.716C388.907 70.3908 389.199 70.057 389.589 69.8049C389.98 69.5492 390.484 69.4214 391.102 69.4214C391.656 69.4214 392.141 69.535 392.556 69.7623C392.972 69.986 393.295 70.3269 393.526 70.785C393.757 71.2396 393.872 71.8148 393.872 72.5109V77.7097H392.615V72.5961C392.615 71.9533 392.448 71.4526 392.114 71.094C391.78 70.7317 391.322 70.5506 390.74 70.5506C390.339 70.5506 389.98 70.6376 389.664 70.8116C389.351 70.9857 389.105 71.2396 388.923 71.5734C388.742 71.9072 388.652 72.312 388.652 72.7879ZM406.183 71.3603L405.054 71.6799C404.983 71.4917 404.878 71.3088 404.74 71.1313C404.605 70.9501 404.42 70.801 404.186 70.6838C403.951 70.5666 403.651 70.508 403.286 70.508C402.785 70.508 402.368 70.6234 402.034 70.8543C401.704 71.0815 401.538 71.371 401.538 71.7225C401.538 72.035 401.652 72.2818 401.879 72.4629C402.107 72.644 402.462 72.795 402.945 72.9157L404.159 73.214C404.891 73.3916 405.436 73.6632 405.794 74.029C406.153 74.3912 406.332 74.8582 406.332 75.4299C406.332 75.8987 406.198 76.3177 405.928 76.687C405.661 77.0563 405.288 77.3475 404.809 77.5606C404.33 77.7737 403.772 77.8802 403.136 77.8802C402.302 77.8802 401.611 77.6991 401.064 77.3369C400.517 76.9746 400.171 76.4455 400.026 75.7495L401.219 75.4512C401.332 75.8916 401.547 76.2218 401.863 76.442C402.183 76.6621 402.6 76.7722 403.115 76.7722C403.701 76.7722 404.166 76.6479 404.511 76.3994C404.859 76.1472 405.033 75.8454 405.033 75.4938C405.033 75.2097 404.933 74.9718 404.734 74.78C404.536 74.5847 404.23 74.4391 403.818 74.3433L402.455 74.0237C401.705 73.8461 401.155 73.5709 400.803 73.198C400.455 72.8216 400.281 72.3511 400.281 71.7864C400.281 71.3248 400.411 70.9164 400.67 70.5613C400.933 70.2062 401.29 69.9274 401.741 69.725C402.195 69.5226 402.71 69.4214 403.286 69.4214C404.095 69.4214 404.731 69.5989 405.193 69.954C405.658 70.3092 405.988 70.7779 406.183 71.3603ZM411.655 77.8802C410.867 77.8802 410.187 77.7062 409.615 77.3582C409.047 77.0066 408.608 76.5166 408.299 75.888C407.994 75.2559 407.841 74.5208 407.841 73.6827C407.841 72.8447 407.994 72.106 408.299 71.4668C408.608 70.8241 409.038 70.3234 409.588 69.9647C410.142 69.6025 410.789 69.4214 411.527 69.4214C411.953 69.4214 412.374 69.4924 412.79 69.6344C413.205 69.7765 413.583 70.0073 413.924 70.3269C414.265 70.643 414.537 71.062 414.739 71.584C414.942 72.106 415.043 72.7488 415.043 73.5123V74.045H408.736V72.9583H413.765C413.765 72.4967 413.672 72.0847 413.488 71.7225C413.306 71.3603 413.047 71.0744 412.71 70.8649C412.376 70.6554 411.982 70.5506 411.527 70.5506C411.027 70.5506 410.593 70.6749 410.228 70.9235C409.865 71.1685 409.587 71.4881 409.391 71.8823C409.196 72.2765 409.098 72.6991 409.098 73.1501V73.8745C409.098 74.4924 409.205 75.0162 409.418 75.4459C409.635 75.872 409.935 76.1969 410.318 76.4207C410.702 76.6408 411.147 76.7509 411.655 76.7509C411.985 76.7509 412.284 76.7048 412.55 76.6124C412.82 76.5166 413.053 76.3745 413.248 76.1863C413.443 75.9945 413.594 75.7566 413.701 75.4725L414.915 75.8134C414.787 76.2254 414.572 76.5876 414.271 76.9001C413.969 77.209 413.596 77.4505 413.152 77.6245C412.708 77.795 412.209 77.8802 411.655 77.8802ZM416.955 77.7097V69.5279H418.17V70.8063H418.276C418.447 70.3695 418.722 70.0304 419.102 69.7889C419.482 69.5439 419.938 69.4214 420.471 69.4214C421.011 69.4214 421.46 69.5439 421.819 69.7889C422.181 70.0304 422.463 70.3695 422.665 70.8063H422.751C422.96 70.3837 423.275 70.0482 423.694 69.7996C424.113 69.5474 424.615 69.4214 425.201 69.4214C425.933 69.4214 426.531 69.6504 426.996 70.1085C427.461 70.5631 427.694 71.2715 427.694 72.2339V77.7097H426.437V72.2339C426.437 71.6302 426.272 71.1987 425.941 70.9395C425.611 70.6803 425.222 70.5506 424.775 70.5506C424.2 70.5506 423.754 70.7246 423.438 71.0727C423.122 71.4171 422.964 71.8539 422.964 72.383V77.7097H421.685V72.106C421.685 71.6408 421.534 71.2662 421.233 70.9821C420.931 70.6945 420.542 70.5506 420.066 70.5506C419.739 70.5506 419.434 70.6376 419.15 70.8116C418.869 70.9857 418.642 71.2271 418.468 71.5361C418.298 71.8415 418.212 72.1948 418.212 72.5961V77.7097H416.955ZM429.992 80.7779V69.5279H431.207V70.8276H431.356C431.448 70.6856 431.576 70.5045 431.74 70.2843C431.906 70.0606 432.144 69.8617 432.453 69.6877C432.766 69.5102 433.188 69.4214 433.721 69.4214C434.41 69.4214 435.017 69.5936 435.543 69.9381C436.068 70.2825 436.479 70.7708 436.773 71.4029C437.068 72.035 437.215 72.7808 437.215 73.6401C437.215 74.5066 437.068 75.2577 436.773 75.8933C436.479 76.5254 436.07 77.0155 435.548 77.3635C435.026 77.708 434.424 77.8802 433.742 77.8802C433.217 77.8802 432.796 77.7932 432.48 77.6192C432.164 77.4416 431.921 77.241 431.75 77.0173C431.58 76.79 431.448 76.6018 431.356 76.4526H431.249V80.7779H429.992ZM431.228 73.6188C431.228 74.2367 431.319 74.7818 431.5 75.2541C431.681 75.7229 431.945 76.0904 432.294 76.3567C432.642 76.6195 433.068 76.7509 433.572 76.7509C434.097 76.7509 434.536 76.6124 434.888 76.3354C435.243 76.0549 435.509 75.6785 435.687 75.2062C435.868 74.7303 435.958 74.2012 435.958 73.6188C435.958 73.0435 435.869 72.5251 435.692 72.0634C435.518 71.5982 435.253 71.2307 434.898 70.9608C434.547 70.6874 434.105 70.5506 433.572 70.5506C433.061 70.5506 432.631 70.6803 432.283 70.9395C431.935 71.1952 431.672 71.5538 431.494 72.0155C431.317 72.4736 431.228 73.008 431.228 73.6188ZM440.39 66.8006V77.7097H439.133V66.8006H440.39ZM442.693 77.7097V69.5279H443.95V77.7097H442.693ZM443.332 68.1643C443.087 68.1643 442.875 68.0808 442.698 67.9139C442.524 67.747 442.437 67.5464 442.437 67.312C442.437 67.0776 442.524 66.877 442.698 66.7101C442.875 66.5432 443.087 66.4597 443.332 66.4597C443.577 66.4597 443.786 66.5432 443.96 66.7101C444.138 66.877 444.227 67.0776 444.227 67.312C444.227 67.5464 444.138 67.747 443.96 67.9139C443.786 68.0808 443.577 68.1643 443.332 68.1643ZM449.576 77.8802C448.809 77.8802 448.148 77.6991 447.594 77.3369C447.04 76.9746 446.614 76.4757 446.316 75.8401C446.018 75.2044 445.869 74.4782 445.869 73.6614C445.869 72.8305 446.021 72.0972 446.327 71.4615C446.636 70.8223 447.065 70.3234 447.616 69.9647C448.17 69.6025 448.816 69.4214 449.555 69.4214C450.13 69.4214 450.648 69.5279 451.11 69.741C451.572 69.9541 451.95 70.2523 452.245 70.6359C452.539 71.0194 452.722 71.4668 452.793 71.9782H451.536C451.44 71.6053 451.227 71.2751 450.897 70.9874C450.57 70.6962 450.13 70.5506 449.576 70.5506C449.086 70.5506 448.656 70.6785 448.287 70.9342C447.921 71.1863 447.635 71.5432 447.429 72.0048C447.227 72.4629 447.126 73.0009 447.126 73.6188C447.126 74.2509 447.225 74.8014 447.424 75.2701C447.626 75.7389 447.911 76.1028 448.276 76.3621C448.646 76.6213 449.079 76.7509 449.576 76.7509C449.903 76.7509 450.199 76.6941 450.466 76.5805C450.732 76.4668 450.957 76.3035 451.142 76.0904C451.327 75.8773 451.458 75.6217 451.536 75.3234H452.793C452.722 75.8063 452.547 76.2413 452.266 76.6284C451.989 77.0119 451.621 77.3173 451.163 77.5446C450.709 77.7683 450.18 77.8802 449.576 77.8802ZM458.061 77.8802C457.273 77.8802 456.593 77.7062 456.021 77.3582C455.453 77.0066 455.015 76.5166 454.706 75.888C454.4 75.2559 454.248 74.5208 454.248 73.6827C454.248 72.8447 454.4 72.106 454.706 71.4668C455.015 70.8241 455.444 70.3234 455.995 69.9647C456.549 69.6025 457.195 69.4214 457.934 69.4214C458.36 69.4214 458.781 69.4924 459.196 69.6344C459.612 69.7765 459.99 70.0073 460.331 70.3269C460.672 70.643 460.943 71.062 461.146 71.584C461.348 72.106 461.449 72.7488 461.449 73.5123V74.045H455.142V72.9583H460.171C460.171 72.4967 460.078 72.0847 459.894 71.7225C459.713 71.3603 459.453 71.0744 459.116 70.8649C458.782 70.6554 458.388 70.5506 457.934 70.5506C457.433 70.5506 457 70.6749 456.634 70.9235C456.272 71.1685 455.993 71.4881 455.798 71.8823C455.602 72.2765 455.505 72.6991 455.505 73.1501V73.8745C455.505 74.4924 455.611 75.0162 455.824 75.4459C456.041 75.872 456.341 76.1969 456.724 76.4207C457.108 76.6408 457.554 76.7509 458.061 76.7509C458.392 76.7509 458.69 76.7048 458.956 76.6124C459.226 76.5166 459.459 76.3745 459.654 76.1863C459.849 75.9945 460 75.7566 460.107 75.4725L461.321 75.8134C461.194 76.2254 460.979 76.5876 460.677 76.9001C460.375 77.209 460.002 77.4505 459.558 77.6245C459.114 77.795 458.615 77.8802 458.061 77.8802Z" fill="black"/>
<path d="M40 193.791C52.5 172.291 71.5 206.791 103.5 179.791C133.834 154.196 103.5 219.291 154 193.791" stroke="black"/>
<path d="M154.972 144.801V155.71H153.693L147.749 147.144H147.642V155.71H146.321V144.801H147.599L153.565 153.387H153.672V144.801H154.972ZM160.768 155.88C160.03 155.88 159.382 155.704 158.824 155.353C158.27 155.001 157.837 154.509 157.524 153.877C157.215 153.245 157.061 152.507 157.061 151.661C157.061 150.809 157.215 150.065 157.524 149.43C157.837 148.794 158.27 148.3 158.824 147.949C159.382 147.597 160.03 147.421 160.768 147.421C161.507 147.421 162.153 147.597 162.707 147.949C163.265 148.3 163.698 148.794 164.007 149.43C164.32 150.065 164.476 150.809 164.476 151.661C164.476 152.507 164.32 153.245 164.007 153.877C163.698 154.509 163.265 155.001 162.707 155.353C162.153 155.704 161.507 155.88 160.768 155.88ZM160.768 154.751C161.329 154.751 161.791 154.607 162.153 154.319C162.516 154.032 162.784 153.654 162.958 153.185C163.132 152.716 163.219 152.208 163.219 151.661C163.219 151.115 163.132 150.605 162.958 150.133C162.784 149.66 162.516 149.279 162.153 148.987C161.791 148.696 161.329 148.551 160.768 148.551C160.207 148.551 159.746 148.696 159.383 148.987C159.021 149.279 158.753 149.66 158.579 150.133C158.405 150.605 158.318 151.115 158.318 151.661C158.318 152.208 158.405 152.716 158.579 153.185C158.753 153.654 159.021 154.032 159.383 154.319C159.746 154.607 160.207 154.751 160.768 154.751ZM167.652 150.788V155.71H166.395V147.528H167.609V148.806H167.716C167.907 148.391 168.199 148.057 168.589 147.805C168.98 147.549 169.484 147.421 170.102 147.421C170.656 147.421 171.141 147.535 171.556 147.762C171.972 147.986 172.295 148.327 172.526 148.785C172.757 149.24 172.872 149.815 172.872 150.511V155.71H171.615V150.596C171.615 149.953 171.448 149.453 171.114 149.094C170.78 148.732 170.322 148.551 169.74 148.551C169.339 148.551 168.98 148.638 168.664 148.812C168.351 148.986 168.105 149.24 167.923 149.573C167.742 149.907 167.652 150.312 167.652 150.788ZM182.712 155.88C181.945 155.88 181.284 155.699 180.73 155.337C180.176 154.975 179.75 154.476 179.452 153.84C179.153 153.204 179.004 152.478 179.004 151.661C179.004 150.83 179.157 150.097 179.462 149.462C179.771 148.822 180.201 148.323 180.752 147.965C181.305 147.602 181.952 147.421 182.69 147.421C183.266 147.421 183.784 147.528 184.246 147.741C184.707 147.954 185.086 148.252 185.38 148.636C185.675 149.019 185.858 149.467 185.929 149.978H184.672C184.576 149.605 184.363 149.275 184.033 148.987C183.706 148.696 183.266 148.551 182.712 148.551C182.222 148.551 181.792 148.678 181.423 148.934C181.057 149.186 180.771 149.543 180.565 150.005C180.363 150.463 180.261 151.001 180.261 151.619C180.261 152.251 180.361 152.801 180.56 153.27C180.762 153.739 181.046 154.103 181.412 154.362C181.781 154.621 182.215 154.751 182.712 154.751C183.038 154.751 183.335 154.694 183.601 154.58C183.868 154.467 184.093 154.303 184.278 154.09C184.462 153.877 184.594 153.622 184.672 153.323H185.929C185.858 153.806 185.682 154.241 185.402 154.628C185.125 155.012 184.757 155.317 184.299 155.545C183.845 155.768 183.315 155.88 182.712 155.88ZM189.024 150.788V155.71H187.767V144.801H189.024V148.806H189.13C189.322 148.384 189.61 148.048 189.993 147.8C190.38 147.547 190.895 147.421 191.538 147.421C192.096 147.421 192.584 147.533 193.003 147.757C193.422 147.977 193.747 148.316 193.978 148.774C194.212 149.229 194.329 149.808 194.329 150.511V155.71H193.072V150.596C193.072 149.946 192.903 149.444 192.566 149.089C192.232 148.73 191.769 148.551 191.176 148.551C190.764 148.551 190.395 148.638 190.068 148.812C189.745 148.986 189.489 149.24 189.301 149.573C189.116 149.907 189.024 150.312 189.024 150.788ZM196.629 155.71V147.528H197.886V155.71H196.629ZM197.268 146.164C197.023 146.164 196.812 146.081 196.634 145.914C196.46 145.747 196.373 145.546 196.373 145.312C196.373 145.078 196.46 144.877 196.634 144.71C196.812 144.543 197.023 144.46 197.268 144.46C197.513 144.46 197.723 144.543 197.897 144.71C198.074 144.877 198.163 145.078 198.163 145.312C198.163 145.546 198.074 145.747 197.897 145.914C197.723 146.081 197.513 146.164 197.268 146.164ZM205.345 152.365V147.528H206.602V155.71H205.345V154.325H205.26C205.068 154.74 204.77 155.094 204.365 155.385C203.96 155.672 203.449 155.816 202.831 155.816C202.319 155.816 201.865 155.704 201.467 155.481C201.069 155.253 200.757 154.913 200.53 154.458C200.302 154 200.189 153.423 200.189 152.727V147.528H201.446V152.642C201.446 153.238 201.613 153.714 201.946 154.069C202.284 154.424 202.714 154.602 203.236 154.602C203.548 154.602 203.866 154.522 204.189 154.362C204.516 154.202 204.789 153.957 205.009 153.627C205.233 153.297 205.345 152.876 205.345 152.365ZM214.7 149.36L213.571 149.68C213.5 149.492 213.395 149.309 213.256 149.131C213.121 148.95 212.937 148.801 212.702 148.684C212.468 148.567 212.168 148.508 211.802 148.508C211.301 148.508 210.884 148.623 210.55 148.854C210.22 149.082 210.055 149.371 210.055 149.723C210.055 150.035 210.169 150.282 210.396 150.463C210.623 150.644 210.978 150.795 211.461 150.916L212.676 151.214C213.407 151.392 213.952 151.663 214.311 152.029C214.67 152.391 214.849 152.858 214.849 153.43C214.849 153.899 214.714 154.318 214.444 154.687C214.178 155.056 213.805 155.348 213.326 155.561C212.846 155.774 212.289 155.88 211.653 155.88C210.819 155.88 210.128 155.699 209.581 155.337C209.034 154.975 208.688 154.446 208.542 153.75L209.735 153.451C209.849 153.892 210.064 154.222 210.38 154.442C210.7 154.662 211.117 154.772 211.632 154.772C212.218 154.772 212.683 154.648 213.027 154.399C213.375 154.147 213.549 153.845 213.549 153.494C213.549 153.21 213.45 152.972 213.251 152.78C213.052 152.585 212.747 152.439 212.335 152.343L210.971 152.024C210.222 151.846 209.672 151.571 209.32 151.198C208.972 150.822 208.798 150.351 208.798 149.786C208.798 149.325 208.928 148.916 209.187 148.561C209.45 148.206 209.806 147.927 210.257 147.725C210.712 147.523 211.227 147.421 211.802 147.421C212.612 147.421 213.248 147.599 213.709 147.954C214.174 148.309 214.505 148.778 214.7 149.36ZM219.149 155.901C218.631 155.901 218.16 155.804 217.737 155.609C217.315 155.41 216.979 155.124 216.731 154.751C216.482 154.375 216.358 153.92 216.358 153.387C216.358 152.919 216.45 152.539 216.635 152.247C216.82 151.953 217.066 151.722 217.375 151.555C217.684 151.388 218.025 151.264 218.398 151.182C218.774 151.097 219.153 151.029 219.533 150.98C220.03 150.916 220.433 150.868 220.742 150.836C221.054 150.8 221.282 150.742 221.424 150.66C221.569 150.578 221.642 150.436 221.642 150.234V150.191C221.642 149.666 221.498 149.257 221.21 148.966C220.926 148.675 220.495 148.529 219.916 148.529C219.316 148.529 218.845 148.661 218.505 148.924C218.164 149.186 217.924 149.467 217.785 149.765L216.592 149.339C216.805 148.842 217.089 148.455 217.445 148.178C217.803 147.897 218.194 147.702 218.616 147.592C219.043 147.478 219.462 147.421 219.873 147.421C220.136 147.421 220.438 147.453 220.779 147.517C221.123 147.578 221.456 147.704 221.775 147.895C222.098 148.087 222.366 148.377 222.579 148.764C222.793 149.151 222.899 149.669 222.899 150.319V155.71H221.642V154.602H221.578C221.493 154.779 221.351 154.969 221.152 155.172C220.953 155.374 220.688 155.546 220.358 155.688C220.028 155.83 219.625 155.901 219.149 155.901ZM219.341 154.772C219.838 154.772 220.257 154.675 220.598 154.479C220.942 154.284 221.202 154.032 221.376 153.723C221.553 153.414 221.642 153.089 221.642 152.748V151.598C221.589 151.661 221.472 151.72 221.29 151.773C221.113 151.823 220.907 151.867 220.672 151.906C220.442 151.942 220.216 151.974 219.996 152.002C219.779 152.027 219.604 152.049 219.469 152.066C219.142 152.109 218.837 152.178 218.552 152.274C218.272 152.366 218.045 152.507 217.871 152.695C217.7 152.879 217.615 153.132 217.615 153.451C217.615 153.888 217.777 154.218 218.1 154.442C218.426 154.662 218.84 154.772 219.341 154.772ZM152.287 165.528C152.223 164.988 151.964 164.569 151.509 164.271C151.055 163.973 150.497 163.823 149.837 163.823C149.354 163.823 148.931 163.901 148.569 164.058C148.21 164.214 147.93 164.429 147.727 164.702C147.528 164.976 147.429 165.286 147.429 165.634C147.429 165.926 147.498 166.176 147.637 166.386C147.779 166.591 147.96 166.764 148.18 166.902C148.4 167.037 148.631 167.149 148.873 167.238C149.114 167.323 149.336 167.392 149.538 167.446L150.646 167.744C150.93 167.818 151.246 167.921 151.594 168.053C151.946 168.184 152.282 168.363 152.601 168.591C152.924 168.814 153.191 169.102 153.4 169.454C153.61 169.805 153.714 170.237 153.714 170.748C153.714 171.338 153.56 171.87 153.251 172.346C152.946 172.822 152.498 173.2 151.909 173.481C151.323 173.761 150.611 173.901 149.773 173.901C148.991 173.901 148.315 173.775 147.743 173.523C147.175 173.271 146.728 172.92 146.401 172.469C146.078 172.018 145.895 171.494 145.852 170.897H147.216C147.251 171.309 147.39 171.65 147.631 171.92C147.876 172.186 148.185 172.385 148.558 172.517C148.935 172.644 149.339 172.708 149.773 172.708C150.277 172.708 150.73 172.627 151.131 172.463C151.532 172.296 151.85 172.066 152.085 171.771C152.319 171.473 152.436 171.125 152.436 170.727C152.436 170.365 152.335 170.07 152.132 169.843C151.93 169.615 151.664 169.431 151.333 169.289C151.003 169.147 150.646 169.022 150.263 168.916L148.92 168.532C148.068 168.287 147.393 167.937 146.896 167.483C146.399 167.028 146.151 166.433 146.151 165.698C146.151 165.088 146.316 164.555 146.646 164.1C146.98 163.642 147.427 163.287 147.988 163.035C148.553 162.779 149.183 162.651 149.879 162.651C150.582 162.651 151.207 162.778 151.754 163.03C152.301 163.278 152.734 163.619 153.054 164.052C153.377 164.486 153.548 164.977 153.565 165.528H152.287ZM159.146 173.88C158.358 173.88 157.678 173.706 157.106 173.358C156.538 173.007 156.1 172.517 155.791 171.888C155.485 171.256 155.332 170.521 155.332 169.683C155.332 168.845 155.485 168.106 155.791 167.467C156.1 166.824 156.529 166.323 157.08 165.965C157.634 165.602 158.28 165.421 159.019 165.421C159.445 165.421 159.866 165.492 160.281 165.634C160.696 165.776 161.075 166.007 161.416 166.327C161.756 166.643 162.028 167.062 162.231 167.584C162.433 168.106 162.534 168.749 162.534 169.512V170.045H156.227V168.958H161.256C161.256 168.497 161.163 168.085 160.979 167.723C160.798 167.36 160.538 167.074 160.201 166.865C159.867 166.655 159.473 166.551 159.019 166.551C158.518 166.551 158.085 166.675 157.719 166.924C157.357 167.169 157.078 167.488 156.883 167.882C156.687 168.276 156.59 168.699 156.59 169.15V169.875C156.59 170.492 156.696 171.016 156.909 171.446C157.126 171.872 157.426 172.197 157.809 172.421C158.193 172.641 158.639 172.751 159.146 172.751C159.477 172.751 159.775 172.705 160.041 172.612C160.311 172.517 160.544 172.375 160.739 172.186C160.934 171.995 161.085 171.757 161.192 171.473L162.406 171.813C162.278 172.225 162.064 172.588 161.762 172.9C161.46 173.209 161.087 173.45 160.643 173.625C160.199 173.795 159.7 173.88 159.146 173.88ZM164.446 173.71V165.528H165.661V166.806H165.767C165.938 166.37 166.213 166.03 166.593 165.789C166.973 165.544 167.429 165.421 167.962 165.421C168.502 165.421 168.951 165.544 169.31 165.789C169.672 166.03 169.954 166.37 170.157 166.806H170.242C170.451 166.384 170.766 166.048 171.185 165.8C171.604 165.547 172.106 165.421 172.692 165.421C173.424 165.421 174.022 165.65 174.487 166.109C174.953 166.563 175.185 167.272 175.185 168.234V173.71H173.928V168.234C173.928 167.63 173.763 167.199 173.433 166.939C173.102 166.68 172.714 166.551 172.266 166.551C171.691 166.551 171.245 166.725 170.929 167.073C170.613 167.417 170.455 167.854 170.455 168.383V173.71H169.177V168.106C169.177 167.641 169.026 167.266 168.724 166.982C168.422 166.694 168.033 166.551 167.557 166.551C167.231 166.551 166.925 166.638 166.641 166.812C166.361 166.986 166.133 167.227 165.959 167.536C165.789 167.841 165.704 168.195 165.704 168.596V173.71H164.446ZM177.484 176.778V165.528H178.698V166.828H178.847C178.94 166.686 179.067 166.504 179.231 166.284C179.398 166.061 179.636 165.862 179.945 165.688C180.257 165.51 180.68 165.421 181.212 165.421C181.901 165.421 182.508 165.594 183.034 165.938C183.56 166.283 183.97 166.771 184.264 167.403C184.559 168.035 184.707 168.781 184.707 169.64C184.707 170.507 184.559 171.258 184.264 171.893C183.97 172.525 183.561 173.015 183.039 173.363C182.517 173.708 181.915 173.88 181.234 173.88C180.708 173.88 180.287 173.793 179.971 173.619C179.655 173.442 179.412 173.241 179.241 173.017C179.071 172.79 178.94 172.602 178.847 172.453H178.741V176.778H177.484ZM178.719 169.619C178.719 170.237 178.81 170.782 178.991 171.254C179.172 171.723 179.437 172.09 179.785 172.357C180.133 172.62 180.559 172.751 181.063 172.751C181.589 172.751 182.027 172.612 182.379 172.335C182.734 172.055 183 171.678 183.178 171.206C183.359 170.73 183.449 170.201 183.449 169.619C183.449 169.044 183.361 168.525 183.183 168.063C183.009 167.598 182.745 167.231 182.389 166.961C182.038 166.687 181.596 166.551 181.063 166.551C180.552 166.551 180.122 166.68 179.774 166.939C179.426 167.195 179.163 167.554 178.986 168.015C178.808 168.474 178.719 169.008 178.719 169.619ZM187.881 162.801V173.71H186.624V162.801H187.881ZM190.184 173.71V165.528H191.441V173.71H190.184ZM190.823 164.164C190.578 164.164 190.367 164.081 190.189 163.914C190.015 163.747 189.928 163.546 189.928 163.312C189.928 163.078 190.015 162.877 190.189 162.71C190.367 162.543 190.578 162.46 190.823 162.46C191.068 162.46 191.278 162.543 191.452 162.71C191.629 162.877 191.718 163.078 191.718 163.312C191.718 163.546 191.629 163.747 191.452 163.914C191.278 164.081 191.068 164.164 190.823 164.164ZM197.067 173.88C196.3 173.88 195.64 173.699 195.086 173.337C194.532 172.975 194.106 172.476 193.807 171.84C193.509 171.204 193.36 170.478 193.36 169.661C193.36 168.83 193.513 168.097 193.818 167.462C194.127 166.822 194.557 166.323 195.107 165.965C195.661 165.602 196.307 165.421 197.046 165.421C197.621 165.421 198.14 165.528 198.601 165.741C199.063 165.954 199.441 166.252 199.736 166.636C200.031 167.019 200.214 167.467 200.285 167.978H199.027C198.932 167.605 198.718 167.275 198.388 166.987C198.062 166.696 197.621 166.551 197.067 166.551C196.577 166.551 196.147 166.678 195.778 166.934C195.412 167.186 195.127 167.543 194.921 168.005C194.718 168.463 194.617 169.001 194.617 169.619C194.617 170.251 194.716 170.801 194.915 171.27C195.118 171.739 195.402 172.103 195.767 172.362C196.137 172.621 196.57 172.751 197.067 172.751C197.394 172.751 197.69 172.694 197.957 172.58C198.223 172.467 198.449 172.303 198.633 172.09C198.818 171.877 198.949 171.622 199.027 171.323H200.285C200.214 171.806 200.038 172.241 199.757 172.628C199.48 173.012 199.113 173.317 198.655 173.545C198.2 173.768 197.671 173.88 197.067 173.88ZM205.553 173.88C204.764 173.88 204.084 173.706 203.513 173.358C202.944 173.007 202.506 172.517 202.197 171.888C201.891 171.256 201.739 170.521 201.739 169.683C201.739 168.845 201.891 168.106 202.197 167.467C202.506 166.824 202.935 166.323 203.486 165.965C204.04 165.602 204.686 165.421 205.425 165.421C205.851 165.421 206.272 165.492 206.687 165.634C207.103 165.776 207.481 166.007 207.822 166.327C208.163 166.643 208.434 167.062 208.637 167.584C208.839 168.106 208.94 168.749 208.94 169.512V170.045H202.634V168.958H207.662C207.662 168.497 207.57 168.085 207.385 167.723C207.204 167.36 206.945 167.074 206.607 166.865C206.274 166.655 205.879 166.551 205.425 166.551C204.924 166.551 204.491 166.675 204.125 166.924C203.763 167.169 203.484 167.488 203.289 167.882C203.093 168.276 202.996 168.699 202.996 169.15V169.875C202.996 170.492 203.102 171.016 203.315 171.446C203.532 171.872 203.832 172.197 204.216 172.421C204.599 172.641 205.045 172.751 205.553 172.751C205.883 172.751 206.181 172.705 206.448 172.612C206.717 172.517 206.95 172.375 207.145 172.186C207.341 171.995 207.492 171.757 207.598 171.473L208.813 171.813C208.685 172.225 208.47 172.588 208.168 172.9C207.866 173.209 207.493 173.45 207.049 173.625C206.606 173.795 206.107 173.88 205.553 173.88Z" fill="black"/>
<path d="M295.5 185.285C338.667 182.118 371.3 157.985 322.5 146.785C273.7 135.585 298 172.785 295.5 185.285ZM295.5 185.285C307.5 204.785 305.4 239.185 273 234.785" stroke="black"/>
<path d="M374.972 144.801V155.71H373.693L367.749 147.144H367.642V155.71H366.321V144.801H367.599L373.565 153.387H373.672V144.801H374.972ZM380.768 155.88C380.03 155.88 379.382 155.704 378.824 155.353C378.27 155.001 377.837 154.509 377.524 153.877C377.215 153.245 377.061 152.507 377.061 151.661C377.061 150.809 377.215 150.065 377.524 149.43C377.837 148.794 378.27 148.3 378.824 147.949C379.382 147.597 380.03 147.421 380.768 147.421C381.507 147.421 382.153 147.597 382.707 147.949C383.265 148.3 383.698 148.794 384.007 149.43C384.32 150.065 384.476 150.809 384.476 151.661C384.476 152.507 384.32 153.245 384.007 153.877C383.698 154.509 383.265 155.001 382.707 155.353C382.153 155.704 381.507 155.88 380.768 155.88ZM380.768 154.751C381.329 154.751 381.791 154.607 382.153 154.319C382.516 154.032 382.784 153.654 382.958 153.185C383.132 152.716 383.219 152.208 383.219 151.661C383.219 151.115 383.132 150.605 382.958 150.133C382.784 149.66 382.516 149.279 382.153 148.987C381.791 148.696 381.329 148.551 380.768 148.551C380.207 148.551 379.746 148.696 379.383 148.987C379.021 149.279 378.753 149.66 378.579 150.133C378.405 150.605 378.318 151.115 378.318 151.661C378.318 152.208 378.405 152.716 378.579 153.185C378.753 153.654 379.021 154.032 379.383 154.319C379.746 154.607 380.207 154.751 380.768 154.751ZM387.652 150.788V155.71H386.395V147.528H387.609V148.806H387.716C387.907 148.391 388.199 148.057 388.589 147.805C388.98 147.549 389.484 147.421 390.102 147.421C390.656 147.421 391.141 147.535 391.556 147.762C391.972 147.986 392.295 148.327 392.526 148.785C392.757 149.24 392.872 149.815 392.872 150.511V155.71H391.615V150.596C391.615 149.953 391.448 149.453 391.114 149.094C390.78 148.732 390.322 148.551 389.74 148.551C389.339 148.551 388.98 148.638 388.664 148.812C388.351 148.986 388.105 149.24 387.923 149.573C387.742 149.907 387.652 150.312 387.652 150.788ZM402.712 155.88C401.945 155.88 401.284 155.699 400.73 155.337C400.176 154.975 399.75 154.476 399.452 153.84C399.153 153.204 399.004 152.478 399.004 151.661C399.004 150.83 399.157 150.097 399.462 149.462C399.771 148.822 400.201 148.323 400.752 147.965C401.305 147.602 401.952 147.421 402.69 147.421C403.266 147.421 403.784 147.528 404.246 147.741C404.707 147.954 405.086 148.252 405.38 148.636C405.675 149.019 405.858 149.467 405.929 149.978H404.672C404.576 149.605 404.363 149.275 404.033 148.987C403.706 148.696 403.266 148.551 402.712 148.551C402.222 148.551 401.792 148.678 401.423 148.934C401.057 149.186 400.771 149.543 400.565 150.005C400.363 150.463 400.261 151.001 400.261 151.619C400.261 152.251 400.361 152.801 400.56 153.27C400.762 153.739 401.046 154.103 401.412 154.362C401.781 154.621 402.215 154.751 402.712 154.751C403.038 154.751 403.335 154.694 403.601 154.58C403.868 154.467 404.093 154.303 404.278 154.09C404.462 153.877 404.594 153.622 404.672 153.323H405.929C405.858 153.806 405.682 154.241 405.402 154.628C405.125 155.012 404.757 155.317 404.299 155.545C403.845 155.768 403.315 155.88 402.712 155.88ZM409.024 150.788V155.71H407.767V144.801H409.024V148.806H409.13C409.322 148.384 409.61 148.048 409.993 147.8C410.38 147.547 410.895 147.421 411.538 147.421C412.096 147.421 412.584 147.533 413.003 147.757C413.422 147.977 413.747 148.316 413.978 148.774C414.212 149.229 414.329 149.808 414.329 150.511V155.71H413.072V150.596C413.072 149.946 412.903 149.444 412.566 149.089C412.232 148.73 411.769 148.551 411.176 148.551C410.764 148.551 410.395 148.638 410.068 148.812C409.745 148.986 409.489 149.24 409.301 149.573C409.116 149.907 409.024 150.312 409.024 150.788ZM416.629 155.71V147.528H417.886V155.71H416.629ZM417.268 146.164C417.023 146.164 416.812 146.081 416.634 145.914C416.46 145.747 416.373 145.546 416.373 145.312C416.373 145.078 416.46 144.877 416.634 144.71C416.812 144.543 417.023 144.46 417.268 144.46C417.513 144.46 417.723 144.543 417.897 144.71C418.074 144.877 418.163 145.078 418.163 145.312C418.163 145.546 418.074 145.747 417.897 145.914C417.723 146.081 417.513 146.164 417.268 146.164ZM425.345 152.365V147.528H426.602V155.71H425.345V154.325H425.26C425.068 154.74 424.77 155.094 424.365 155.385C423.96 155.672 423.449 155.816 422.831 155.816C422.319 155.816 421.865 155.704 421.467 155.481C421.069 155.253 420.757 154.913 420.53 154.458C420.302 154 420.189 153.423 420.189 152.727V147.528H421.446V152.642C421.446 153.238 421.613 153.714 421.946 154.069C422.284 154.424 422.714 154.602 423.236 154.602C423.548 154.602 423.866 154.522 424.189 154.362C424.516 154.202 424.789 153.957 425.009 153.627C425.233 153.297 425.345 152.876 425.345 152.365ZM434.7 149.36L433.571 149.68C433.5 149.492 433.395 149.309 433.256 149.131C433.121 148.95 432.937 148.801 432.702 148.684C432.468 148.567 432.168 148.508 431.802 148.508C431.301 148.508 430.884 148.623 430.55 148.854C430.22 149.082 430.055 149.371 430.055 149.723C430.055 150.035 430.169 150.282 430.396 150.463C430.623 150.644 430.978 150.795 431.461 150.916L432.676 151.214C433.407 151.392 433.952 151.663 434.311 152.029C434.67 152.391 434.849 152.858 434.849 153.43C434.849 153.899 434.714 154.318 434.444 154.687C434.178 155.056 433.805 155.348 433.326 155.561C432.846 155.774 432.289 155.88 431.653 155.88C430.819 155.88 430.128 155.699 429.581 155.337C429.034 154.975 428.688 154.446 428.542 153.75L429.735 153.451C429.849 153.892 430.064 154.222 430.38 154.442C430.7 154.662 431.117 154.772 431.632 154.772C432.218 154.772 432.683 154.648 433.027 154.399C433.375 154.147 433.549 153.845 433.549 153.494C433.549 153.21 433.45 152.972 433.251 152.78C433.052 152.585 432.747 152.439 432.335 152.343L430.971 152.024C430.222 151.846 429.672 151.571 429.32 151.198C428.972 150.822 428.798 150.351 428.798 149.786C428.798 149.325 428.928 148.916 429.187 148.561C429.45 148.206 429.806 147.927 430.257 147.725C430.712 147.523 431.227 147.421 431.802 147.421C432.612 147.421 433.248 147.599 433.709 147.954C434.174 148.309 434.505 148.778 434.7 149.36ZM439.149 155.901C438.631 155.901 438.16 155.804 437.737 155.609C437.315 155.41 436.979 155.124 436.731 154.751C436.482 154.375 436.358 153.92 436.358 153.387C436.358 152.919 436.45 152.539 436.635 152.247C436.82 151.953 437.066 151.722 437.375 151.555C437.684 151.388 438.025 151.264 438.398 151.182C438.774 151.097 439.153 151.029 439.533 150.98C440.03 150.916 440.433 150.868 440.742 150.836C441.054 150.8 441.282 150.742 441.424 150.66C441.569 150.578 441.642 150.436 441.642 150.234V150.191C441.642 149.666 441.498 149.257 441.21 148.966C440.926 148.675 440.495 148.529 439.916 148.529C439.316 148.529 438.845 148.661 438.505 148.924C438.164 149.186 437.924 149.467 437.785 149.765L436.592 149.339C436.805 148.842 437.089 148.455 437.445 148.178C437.803 147.897 438.194 147.702 438.616 147.592C439.043 147.478 439.462 147.421 439.873 147.421C440.136 147.421 440.438 147.453 440.779 147.517C441.123 147.578 441.456 147.704 441.775 147.895C442.098 148.087 442.366 148.377 442.579 148.764C442.793 149.151 442.899 149.669 442.899 150.319V155.71H441.642V154.602H441.578C441.493 154.779 441.351 154.969 441.152 155.172C440.953 155.374 440.688 155.546 440.358 155.688C440.028 155.83 439.625 155.901 439.149 155.901ZM439.341 154.772C439.838 154.772 440.257 154.675 440.598 154.479C440.942 154.284 441.202 154.032 441.376 153.723C441.553 153.414 441.642 153.089 441.642 152.748V151.598C441.589 151.661 441.472 151.72 441.29 151.773C441.113 151.823 440.907 151.867 440.672 151.906C440.442 151.942 440.216 151.974 439.996 152.002C439.779 152.027 439.604 152.049 439.469 152.066C439.142 152.109 438.837 152.178 438.552 152.274C438.272 152.366 438.045 152.507 437.871 152.695C437.7 152.879 437.615 153.132 437.615 153.451C437.615 153.888 437.777 154.218 438.1 154.442C438.426 154.662 438.84 154.772 439.341 154.772ZM374.972 162.801V173.71H373.693L367.749 165.144H367.642V173.71H366.321V162.801H367.599L373.565 171.387H373.672V162.801H374.972ZM380.768 173.88C380.03 173.88 379.382 173.704 378.824 173.353C378.27 173.001 377.837 172.509 377.524 171.877C377.215 171.245 377.061 170.507 377.061 169.661C377.061 168.809 377.215 168.065 377.524 167.43C377.837 166.794 378.27 166.3 378.824 165.949C379.382 165.597 380.03 165.421 380.768 165.421C381.507 165.421 382.153 165.597 382.707 165.949C383.265 166.3 383.698 166.794 384.007 167.43C384.32 168.065 384.476 168.809 384.476 169.661C384.476 170.507 384.32 171.245 384.007 171.877C383.698 172.509 383.265 173.001 382.707 173.353C382.153 173.704 381.507 173.88 380.768 173.88ZM380.768 172.751C381.329 172.751 381.791 172.607 382.153 172.319C382.516 172.032 382.784 171.654 382.958 171.185C383.132 170.716 383.219 170.208 383.219 169.661C383.219 169.115 383.132 168.605 382.958 168.133C382.784 167.66 382.516 167.279 382.153 166.987C381.791 166.696 381.329 166.551 380.768 166.551C380.207 166.551 379.746 166.696 379.383 166.987C379.021 167.279 378.753 167.66 378.579 168.133C378.405 168.605 378.318 169.115 378.318 169.661C378.318 170.208 378.405 170.716 378.579 171.185C378.753 171.654 379.021 172.032 379.383 172.319C379.746 172.607 380.207 172.751 380.768 172.751ZM387.652 168.788V173.71H386.395V165.528H387.609V166.806H387.716C387.907 166.391 388.199 166.057 388.589 165.805C388.98 165.549 389.484 165.421 390.102 165.421C390.656 165.421 391.141 165.535 391.556 165.762C391.972 165.986 392.295 166.327 392.526 166.785C392.757 167.24 392.872 167.815 392.872 168.511V173.71H391.615V168.596C391.615 167.953 391.448 167.453 391.114 167.094C390.78 166.732 390.322 166.551 389.74 166.551C389.339 166.551 388.98 166.638 388.664 166.812C388.351 166.986 388.105 167.24 387.923 167.573C387.742 167.907 387.652 168.312 387.652 168.788ZM405.183 167.36L404.054 167.68C403.983 167.492 403.878 167.309 403.74 167.131C403.605 166.95 403.42 166.801 403.186 166.684C402.951 166.567 402.651 166.508 402.286 166.508C401.785 166.508 401.368 166.623 401.034 166.854C400.704 167.082 400.538 167.371 400.538 167.723C400.538 168.035 400.652 168.282 400.879 168.463C401.107 168.644 401.462 168.795 401.945 168.916L403.159 169.214C403.891 169.392 404.436 169.663 404.794 170.029C405.153 170.391 405.332 170.858 405.332 171.43C405.332 171.899 405.198 172.318 404.928 172.687C404.661 173.056 404.288 173.348 403.809 173.561C403.33 173.774 402.772 173.88 402.136 173.88C401.302 173.88 400.611 173.699 400.064 173.337C399.517 172.975 399.171 172.446 399.026 171.75L400.219 171.451C400.332 171.892 400.547 172.222 400.863 172.442C401.183 172.662 401.6 172.772 402.115 172.772C402.701 172.772 403.166 172.648 403.511 172.399C403.859 172.147 404.033 171.845 404.033 171.494C404.033 171.21 403.933 170.972 403.734 170.78C403.536 170.585 403.23 170.439 402.818 170.343L401.455 170.024C400.705 169.846 400.155 169.571 399.803 169.198C399.455 168.822 399.281 168.351 399.281 167.786C399.281 167.325 399.411 166.916 399.67 166.561C399.933 166.206 400.29 165.927 400.741 165.725C401.195 165.523 401.71 165.421 402.286 165.421C403.095 165.421 403.731 165.599 404.193 165.954C404.658 166.309 404.988 166.778 405.183 167.36ZM410.655 173.88C409.867 173.88 409.187 173.706 408.615 173.358C408.047 173.007 407.608 172.517 407.299 171.888C406.994 171.256 406.841 170.521 406.841 169.683C406.841 168.845 406.994 168.106 407.299 167.467C407.608 166.824 408.038 166.323 408.588 165.965C409.142 165.602 409.789 165.421 410.527 165.421C410.953 165.421 411.374 165.492 411.79 165.634C412.205 165.776 412.583 166.007 412.924 166.327C413.265 166.643 413.537 167.062 413.739 167.584C413.942 168.106 414.043 168.749 414.043 169.512V170.045H407.736V168.958H412.765C412.765 168.497 412.672 168.085 412.488 167.723C412.306 167.36 412.047 167.074 411.71 166.865C411.376 166.655 410.982 166.551 410.527 166.551C410.027 166.551 409.593 166.675 409.228 166.924C408.865 167.169 408.587 167.488 408.391 167.882C408.196 168.276 408.098 168.699 408.098 169.15V169.875C408.098 170.492 408.205 171.016 408.418 171.446C408.635 171.872 408.935 172.197 409.318 172.421C409.702 172.641 410.147 172.751 410.655 172.751C410.985 172.751 411.284 172.705 411.55 172.612C411.82 172.517 412.053 172.375 412.248 172.186C412.443 171.995 412.594 171.757 412.701 171.473L413.915 171.813C413.787 172.225 413.572 172.588 413.271 172.9C412.969 173.209 412.596 173.45 412.152 173.625C411.708 173.795 411.209 173.88 410.655 173.88ZM415.955 173.71V165.528H417.17V166.806H417.276C417.447 166.37 417.722 166.03 418.102 165.789C418.482 165.544 418.938 165.421 419.471 165.421C420.011 165.421 420.46 165.544 420.819 165.789C421.181 166.03 421.463 166.37 421.665 166.806H421.751C421.96 166.384 422.275 166.048 422.694 165.8C423.113 165.547 423.615 165.421 424.201 165.421C424.933 165.421 425.531 165.65 425.996 166.109C426.461 166.563 426.694 167.272 426.694 168.234V173.71H425.437V168.234C425.437 167.63 425.272 167.199 424.941 166.939C424.611 166.68 424.222 166.551 423.775 166.551C423.2 166.551 422.754 166.725 422.438 167.073C422.122 167.417 421.964 167.854 421.964 168.383V173.71H420.685V168.106C420.685 167.641 420.534 167.266 420.233 166.982C419.931 166.694 419.542 166.551 419.066 166.551C418.739 166.551 418.434 166.638 418.15 166.812C417.869 166.986 417.642 167.227 417.468 167.536C417.298 167.841 417.212 168.195 417.212 168.596V173.71H415.955ZM428.992 176.778V165.528H430.207V166.828H430.356C430.448 166.686 430.576 166.504 430.74 166.284C430.906 166.061 431.144 165.862 431.453 165.688C431.766 165.51 432.188 165.421 432.721 165.421C433.41 165.421 434.017 165.594 434.543 165.938C435.068 166.283 435.479 166.771 435.773 167.403C436.068 168.035 436.215 168.781 436.215 169.64C436.215 170.507 436.068 171.258 435.773 171.893C435.479 172.525 435.07 173.015 434.548 173.363C434.026 173.708 433.424 173.88 432.742 173.88C432.217 173.88 431.796 173.793 431.48 173.619C431.164 173.442 430.921 173.241 430.75 173.017C430.58 172.79 430.448 172.602 430.356 172.453H430.249V176.778H428.992ZM430.228 169.619C430.228 170.237 430.319 170.782 430.5 171.254C430.681 171.723 430.945 172.09 431.294 172.357C431.642 172.62 432.068 172.751 432.572 172.751C433.097 172.751 433.536 172.612 433.888 172.335C434.243 172.055 434.509 171.678 434.687 171.206C434.868 170.73 434.958 170.201 434.958 169.619C434.958 169.044 434.869 168.525 434.692 168.063C434.518 167.598 434.253 167.231 433.898 166.961C433.547 166.687 433.105 166.551 432.572 166.551C432.061 166.551 431.631 166.68 431.283 166.939C430.935 167.195 430.672 167.554 430.494 168.015C430.317 168.474 430.228 169.008 430.228 169.619ZM439.39 162.801V173.71H438.133V162.801H439.39ZM441.693 173.71V165.528H442.95V173.71H441.693ZM442.332 164.164C442.087 164.164 441.875 164.081 441.698 163.914C441.524 163.747 441.437 163.546 441.437 163.312C441.437 163.078 441.524 162.877 441.698 162.71C441.875 162.543 442.087 162.46 442.332 162.46C442.577 162.46 442.786 162.543 442.96 162.71C443.138 162.877 443.227 163.078 443.227 163.312C443.227 163.546 443.138 163.747 442.96 163.914C442.786 164.081 442.577 164.164 442.332 164.164ZM448.576 173.88C447.809 173.88 447.148 173.699 446.594 173.337C446.04 172.975 445.614 172.476 445.316 171.84C445.018 171.204 444.869 170.478 444.869 169.661C444.869 168.83 445.021 168.097 445.327 167.462C445.636 166.822 446.065 166.323 446.616 165.965C447.17 165.602 447.816 165.421 448.555 165.421C449.13 165.421 449.648 165.528 450.11 165.741C450.572 165.954 450.95 166.252 451.245 166.636C451.539 167.019 451.722 167.467 451.793 167.978H450.536C450.44 167.605 450.227 167.275 449.897 166.987C449.57 166.696 449.13 166.551 448.576 166.551C448.086 166.551 447.656 166.678 447.287 166.934C446.921 167.186 446.635 167.543 446.429 168.005C446.227 168.463 446.126 169.001 446.126 169.619C446.126 170.251 446.225 170.801 446.424 171.27C446.626 171.739 446.911 172.103 447.276 172.362C447.646 172.621 448.079 172.751 448.576 172.751C448.903 172.751 449.199 172.694 449.466 172.58C449.732 172.467 449.957 172.303 450.142 172.09C450.327 171.877 450.458 171.622 450.536 171.323H451.793C451.722 171.806 451.547 172.241 451.266 172.628C450.989 173.012 450.621 173.317 450.163 173.545C449.709 173.768 449.18 173.88 448.576 173.88ZM457.061 173.88C456.273 173.88 455.593 173.706 455.021 173.358C454.453 173.007 454.015 172.517 453.706 171.888C453.4 171.256 453.248 170.521 453.248 169.683C453.248 168.845 453.4 168.106 453.706 167.467C454.015 166.824 454.444 166.323 454.995 165.965C455.549 165.602 456.195 165.421 456.934 165.421C457.36 165.421 457.781 165.492 458.196 165.634C458.612 165.776 458.99 166.007 459.331 166.327C459.672 166.643 459.943 167.062 460.146 167.584C460.348 168.106 460.449 168.749 460.449 169.512V170.045H454.142V168.958H459.171C459.171 168.497 459.078 168.085 458.894 167.723C458.713 167.36 458.453 167.074 458.116 166.865C457.782 166.655 457.388 166.551 456.934 166.551C456.433 166.551 456 166.675 455.634 166.924C455.272 167.169 454.993 167.488 454.798 167.882C454.602 168.276 454.505 168.699 454.505 169.15V169.875C454.505 170.492 454.611 171.016 454.824 171.446C455.041 171.872 455.341 172.197 455.724 172.421C456.108 172.641 456.554 172.751 457.061 172.751C457.392 172.751 457.69 172.705 457.956 172.612C458.226 172.517 458.459 172.375 458.654 172.186C458.849 171.995 459 171.757 459.107 171.473L460.321 171.813C460.194 172.225 459.979 172.588 459.677 172.9C459.375 173.209 459.002 173.45 458.558 173.625C458.114 173.795 457.615 173.88 457.061 173.88Z" fill="black"/>
</svg>
