<svg width="503" height="277" viewBox="0 0 503 277" fill="none" xmlns="http://www.w3.org/2000/svg">
<path d="M252.354 13.6464C252.158 13.4512 251.842 13.4512 251.646 13.6464L248.464 16.8284C248.269 17.0237 248.269 17.3403 248.464 17.5355C248.66 17.7308 248.976 17.7308 249.172 17.5355L252 14.7071L254.828 17.5355C255.024 17.7308 255.34 17.7308 255.536 17.5355C255.731 17.3403 255.731 17.0237 255.536 16.8284L252.354 13.6464ZM251.5 14V263H252.5V14H251.5Z" fill="black"/>
<path d="M376.354 139.354C376.549 139.158 376.549 138.842 376.354 138.646L373.172 135.464C372.976 135.269 372.66 135.269 372.464 135.464C372.269 135.66 372.269 135.976 372.464 136.172L375.293 139L372.464 141.828C372.269 142.024 372.269 142.34 372.464 142.536C372.66 142.731 372.976 142.731 373.172 142.536L376.354 139.354ZM376 138.5L127 138.5L127 139.5L376 139.5L376 138.5Z" fill="black"/>
<path d="M179.892 148.973V149.754H176.71V148.973H179.892ZM181.011 153V152.361L183.411 149.733C183.693 149.425 183.925 149.158 184.107 148.93C184.29 148.701 184.424 148.485 184.512 148.284C184.602 148.08 184.647 147.867 184.647 147.645C184.647 147.389 184.585 147.168 184.462 146.981C184.342 146.794 184.176 146.649 183.965 146.548C183.754 146.446 183.518 146.395 183.255 146.395C182.976 146.395 182.732 146.453 182.523 146.569C182.317 146.683 182.158 146.842 182.044 147.048C181.933 147.254 181.877 147.496 181.877 147.773H181.039C181.039 147.347 181.137 146.973 181.334 146.651C181.53 146.329 181.798 146.078 182.136 145.898C182.477 145.718 182.86 145.628 183.283 145.628C183.71 145.628 184.087 145.718 184.416 145.898C184.745 146.078 185.003 146.32 185.19 146.626C185.377 146.931 185.471 147.271 185.471 147.645C185.471 147.912 185.422 148.174 185.325 148.43C185.231 148.683 185.065 148.966 184.828 149.278C184.594 149.589 184.268 149.967 183.852 150.415L182.218 152.162V152.219H185.599V153H181.011Z" fill="black"/>
<path d="M321.753 153V152.361L324.153 149.733C324.435 149.425 324.667 149.158 324.849 148.93C325.032 148.701 325.167 148.485 325.254 148.284C325.344 148.08 325.389 147.867 325.389 147.645C325.389 147.389 325.328 147.168 325.205 146.981C325.084 146.794 324.918 146.649 324.707 146.548C324.497 146.446 324.26 146.395 323.997 146.395C323.718 146.395 323.474 146.453 323.266 146.569C323.06 146.683 322.9 146.842 322.786 147.048C322.675 147.254 322.619 147.496 322.619 147.773H321.781C321.781 147.347 321.879 146.973 322.076 146.651C322.272 146.329 322.54 146.078 322.879 145.898C323.219 145.718 323.602 145.628 324.026 145.628C324.452 145.628 324.829 145.718 325.158 145.898C325.487 146.078 325.746 146.32 325.933 146.626C326.12 146.931 326.213 147.271 326.213 147.645C326.213 147.912 326.165 148.174 326.067 148.43C325.973 148.683 325.807 148.966 325.57 149.278C325.336 149.589 325.01 149.967 324.594 150.415L322.96 152.162V152.219H326.341V153H321.753Z" fill="black"/>
<path d="M183.5 134V143.5" stroke="black"/>
<path d="M325 134V143.5" stroke="black"/>
<path d="M324.5 139C324.5 142.826 322.604 146.519 319.073 149.928C315.541 153.339 310.404 156.434 304.016 159.043C291.241 164.261 273.558 167.5 254 167.5C234.442 167.5 216.759 164.261 203.984 159.043C197.596 156.434 192.459 153.339 188.927 149.928C185.396 146.519 183.5 142.826 183.5 139C183.5 135.174 185.396 131.481 188.927 128.072C192.459 124.661 197.596 121.566 203.984 118.957C216.759 113.739 234.442 110.5 254 110.5C273.558 110.5 291.241 113.739 304.016 118.957C310.404 121.566 315.541 124.661 319.073 128.072C322.604 131.481 324.5 135.174 324.5 139Z" stroke="black"/>
<path d="M158 118H346" stroke="black"/>
<path d="M257.892 173.973V174.754H254.71V173.973H257.892ZM261.909 170.727V178H261.029V171.651H260.986L259.21 172.83V171.935L261.029 170.727H261.909Z" fill="black"/>
<path d="M257.31 100.727V108H256.429V101.651H256.386L254.611 102.83V101.935L256.429 100.727H257.31Z" fill="black"/>
<path d="M263.5 111L256.5 118" stroke="black"/>
<path d="M272 111.5L265.5 118" stroke="black"/>
<path d="M280 112.5L274.5 118" stroke="black"/>
<path d="M287.5 114L283.5 118" stroke="black"/>
<path d="M242.184 125.487L240.744 122.668C240.686 122.552 240.645 122.552 240.621 122.552C240.613 122.552 240.572 122.552 240.482 122.61L239.704 123.132C239.598 123.204 239.598 123.226 239.598 123.248C239.598 123.284 239.622 123.327 239.68 123.327C239.729 123.327 239.868 123.226 239.958 123.168C240.007 123.132 240.13 123.052 240.22 122.994L241.832 126.133C241.89 126.249 241.931 126.249 242.004 126.249C242.127 126.249 242.152 126.205 242.209 126.104L245.925 119.29C245.982 119.188 245.982 119.159 245.982 119.145C245.982 119.072 245.917 119 245.819 119C245.753 119 245.696 119.036 245.63 119.152L242.184 125.487Z" fill="black"/>
<path d="M249.829 119H245.821V119.29H249.829V119Z" fill="black"/>
<path d="M247.328 122.684C247.189 122.691 247.156 122.698 247.156 122.764C247.156 122.836 247.197 122.836 247.344 122.836H247.721C248.416 122.836 248.728 123.344 248.728 124.039C248.728 124.989 248.171 125.243 247.77 125.243C247.377 125.243 246.706 125.076 246.468 124.598C246.73 124.634 246.968 124.503 246.968 124.242C246.968 124.032 246.796 123.887 246.567 123.887C246.37 123.887 246.157 123.989 246.157 124.264C246.157 124.909 246.886 125.438 247.794 125.438C248.768 125.438 249.489 124.779 249.489 124.047C249.489 123.38 248.883 122.858 248.097 122.735C248.809 122.553 249.268 122.024 249.268 121.459C249.268 120.886 248.597 120.466 247.803 120.466C246.984 120.466 246.378 120.908 246.378 121.437C246.378 121.727 246.632 121.785 246.755 121.785C246.927 121.785 247.123 121.676 247.123 121.459C247.123 121.227 246.927 121.125 246.747 121.125C246.697 121.125 246.681 121.125 246.657 121.133C246.968 120.64 247.737 120.64 247.778 120.64C248.048 120.64 248.58 120.749 248.58 121.459C248.58 121.597 248.556 122.003 248.318 122.314C248.073 122.633 247.794 122.655 247.573 122.662L247.328 122.684Z" fill="black"/>
<path d="M249.829 128.233H239V128.523H249.829V128.233Z" fill="black"/>
<path d="M246.012 133.944H245.832C245.807 134.067 245.742 134.466 245.66 134.582C245.603 134.647 245.136 134.647 244.891 134.647H243.376C243.597 134.481 244.097 134.017 244.309 133.843C245.554 132.828 246.012 132.451 246.012 131.733C246.012 130.9 245.267 130.342 244.318 130.342C243.368 130.342 242.812 131.059 242.812 131.683C242.812 132.052 243.172 132.052 243.196 132.052C243.368 132.052 243.581 131.944 243.581 131.712C243.581 131.509 243.425 131.371 243.196 131.371C243.123 131.371 243.106 131.371 243.082 131.378C243.237 130.885 243.679 130.552 244.211 130.552C244.907 130.552 245.333 131.067 245.333 131.733C245.333 132.35 244.932 132.886 244.465 133.35L242.812 134.988V135.162H245.799L246.012 133.944Z" fill="black"/>
</svg>
