<svg width="250" height="250" viewBox="0 0 250 250" fill="none" xmlns="http://www.w3.org/2000/svg">
<path d="M125.104 19.6464C124.908 19.4512 124.592 19.4512 124.396 19.6464L121.214 22.8284C121.019 23.0237 121.019 23.3403 121.214 23.5355C121.41 23.7308 121.726 23.7308 121.922 23.5355L124.75 20.7071L127.578 23.5355C127.774 23.7308 128.09 23.7308 128.286 23.5355C128.481 23.3403 128.481 23.0237 128.286 22.8284L125.104 19.6464ZM124.25 229.5C124.25 229.776 124.474 230 124.75 230C125.026 230 125.25 229.776 125.25 229.5H124.25ZM124.25 20V229.5H125.25V20H124.25Z" fill="black"/>
<path d="M20 124.25C19.7239 124.25 19.5 124.474 19.5 124.75C19.5 125.026 19.7239 125.25 20 125.25L20 124.25ZM229.854 125.104C230.049 124.908 230.049 124.592 229.854 124.396L226.672 121.214C226.476 121.019 226.16 121.019 225.964 121.214C225.769 121.41 225.769 121.726 225.964 121.922L228.793 124.75L225.964 127.578C225.769 127.774 225.769 128.09 225.964 128.286C226.16 128.481 226.476 128.481 226.672 128.286L229.854 125.104ZM20 125.25L229.5 125.25L229.5 124.25L20 124.25L20 125.25Z" fill="black"/>
<path d="M137.5 126V79.5H125" stroke="black" stroke-dasharray="2 2"/>
<circle cx="138" cy="80" r="34.5" stroke="black"/>
<path d="M141.065 86.3636C141.065 85.4687 141.181 84.6461 141.413 83.8956C141.648 83.1428 141.982 82.4503 142.415 81.8182H143.153C142.983 82.0526 142.823 82.3414 142.674 82.6847C142.527 83.0256 142.398 83.4008 142.287 83.8104C142.176 84.2176 142.088 84.639 142.024 85.0746C141.963 85.5102 141.932 85.9399 141.932 86.3636C141.932 86.9271 141.986 87.4988 142.095 88.0788C142.204 88.6589 142.351 89.1974 142.536 89.6946C142.72 90.1918 142.926 90.5966 143.153 90.9091H142.415C141.982 90.277 141.648 89.5857 141.413 88.8352C141.181 88.0824 141.065 87.2585 141.065 86.3636ZM146.933 82.7273V90H146.052V83.6506H146.009L144.234 84.8295V83.9347L146.052 82.7273H146.933ZM149.859 89.0057L149.802 89.3892C149.762 89.6591 149.7 89.9479 149.617 90.2557C149.537 90.5634 149.453 90.8535 149.365 91.1257C149.278 91.398 149.205 91.6146 149.149 91.7756H148.509C148.54 91.6241 148.58 91.424 148.63 91.1754C148.68 90.9268 148.73 90.6487 148.779 90.3409C148.831 90.0355 148.874 89.723 148.907 89.4034L148.95 89.0057H149.859ZM153.581 90.0994C153.113 90.0994 152.695 90.0189 152.328 89.858C151.963 89.697 151.673 89.4732 151.458 89.1868C151.245 88.898 151.129 88.563 151.11 88.1818H152.005C152.024 88.4162 152.104 88.6186 152.246 88.7891C152.388 88.9571 152.574 89.0874 152.804 89.1797C153.033 89.272 153.288 89.3182 153.567 89.3182C153.88 89.3182 154.157 89.2637 154.398 89.1548C154.64 89.0459 154.829 88.8944 154.966 88.7003C155.104 88.5062 155.172 88.2812 155.172 88.0256C155.172 87.758 155.106 87.5225 154.973 87.3189C154.841 87.1129 154.647 86.9519 154.391 86.8359C154.135 86.7199 153.823 86.6619 153.453 86.6619H152.871V85.8807H153.453C153.742 85.8807 153.996 85.8286 154.213 85.7244C154.434 85.6203 154.605 85.4735 154.728 85.2841C154.854 85.0947 154.917 84.8722 154.917 84.6165C154.917 84.3703 154.862 84.156 154.753 83.9737C154.644 83.7914 154.49 83.6494 154.292 83.5476C154.095 83.4458 153.863 83.3949 153.596 83.3949C153.345 83.3949 153.108 83.4411 152.885 83.5334C152.665 83.6233 152.485 83.7547 152.346 83.9276C152.206 84.098 152.13 84.304 152.118 84.5455H151.266C151.28 84.1643 151.395 83.8305 151.61 83.544C151.826 83.2552 152.108 83.0303 152.456 82.8693C152.806 82.7083 153.191 82.6278 153.61 82.6278C154.06 82.6278 154.445 82.719 154.767 82.9013C155.089 83.0812 155.337 83.3191 155.51 83.6151C155.682 83.911 155.769 84.2306 155.769 84.5739C155.769 84.9834 155.661 85.3326 155.446 85.6214C155.233 85.9103 154.943 86.1103 154.576 86.2216V86.2784C155.035 86.3542 155.394 86.5495 155.652 86.8643C155.91 87.1768 156.039 87.5639 156.039 88.0256C156.039 88.4209 155.931 88.776 155.716 89.0909C155.502 89.4034 155.211 89.6496 154.842 89.8295C154.473 90.0095 154.052 90.0994 153.581 90.0994ZM159.295 86.3636C159.295 87.2585 159.178 88.0824 158.944 88.8352C158.712 89.5857 158.379 90.277 157.946 90.9091H157.207C157.377 90.6747 157.536 90.3859 157.683 90.0426C157.832 89.7017 157.962 89.3277 158.074 88.9205C158.185 88.5109 158.271 88.0883 158.333 87.6527C158.397 87.2147 158.429 86.785 158.429 86.3636C158.429 85.8002 158.374 85.2285 158.265 84.6484C158.156 84.0684 158.01 83.5298 157.825 83.0327C157.64 82.5355 157.434 82.1307 157.207 81.8182H157.946C158.379 82.4503 158.712 83.1428 158.944 83.8956C159.178 84.6461 159.295 85.4687 159.295 86.3636Z" fill="black"/>
<circle cx="137.5" cy="79.5" r="2.5" fill="black"/>
<path d="M137.5 79.5L162.5 54.5" stroke="black" stroke-dasharray="2 2"/>
<path d="M132.767 68V62.5455H133.577V63.3693H133.634C133.733 63.0994 133.913 62.8804 134.173 62.7124C134.434 62.5443 134.727 62.4602 135.054 62.4602C135.116 62.4602 135.192 62.4614 135.285 62.4638C135.377 62.4661 135.447 62.4697 135.494 62.4744V63.3267C135.466 63.3196 135.401 63.3089 135.299 63.2947C135.2 63.2782 135.094 63.2699 134.983 63.2699C134.718 63.2699 134.481 63.3255 134.273 63.4368C134.067 63.5457 133.903 63.6972 133.783 63.8913C133.664 64.0831 133.605 64.3021 133.605 64.5483V68H132.767ZM136.829 64.4915V63.7244H141.204V64.4915H136.829ZM136.829 66.5938V65.8267H141.204V66.5938H136.829ZM143.065 68V67.3608L145.466 64.733C145.748 64.4252 145.98 64.1577 146.162 63.9304C146.344 63.7008 146.479 63.4853 146.567 63.2841C146.657 63.0805 146.702 62.8674 146.702 62.6449C146.702 62.3892 146.64 62.1679 146.517 61.9808C146.396 61.7938 146.231 61.6494 146.02 61.5476C145.809 61.4458 145.572 61.3949 145.31 61.3949C145.03 61.3949 144.786 61.4529 144.578 61.5689C144.372 61.6825 144.212 61.8423 144.099 62.0483C143.987 62.2543 143.932 62.4957 143.932 62.7727H143.094C143.094 62.3466 143.192 61.9725 143.388 61.6506C143.585 61.3286 143.853 61.0777 144.191 60.8977C144.532 60.7178 144.914 60.6278 145.338 60.6278C145.764 60.6278 146.142 60.7178 146.471 60.8977C146.8 61.0777 147.058 61.3203 147.245 61.6257C147.432 61.9311 147.526 62.2708 147.526 62.6449C147.526 62.9124 147.477 63.174 147.38 63.4297C147.285 63.683 147.12 63.9659 146.883 64.2784C146.648 64.5885 146.323 64.9673 145.906 65.4148L144.273 67.1619V67.2188H147.653V68H143.065Z" fill="black"/>
<path d="M112.796 80.3238C113.09 80.3238 113.207 80.3238 113.207 80.0518C113.207 79.9086 113.09 79.9086 112.826 79.9086H111.637C111.916 78.4339 112.121 77.4174 112.239 76.9593C112.327 76.6156 112.635 76.2863 113.016 76.2863C113.324 76.2863 113.633 76.4152 113.779 76.5441C113.207 76.6013 113.031 77.0165 113.031 77.2599C113.031 77.5463 113.251 77.7181 113.53 77.7181C113.823 77.7181 114.264 77.4747 114.264 76.9306C114.264 76.3293 113.647 76 113.002 76C112.371 76 111.754 76.4581 111.461 77.0165C111.197 77.5176 111.05 78.033 110.713 79.9086H109.729C109.451 79.9086 109.304 79.9086 109.304 80.1663C109.304 80.3238 109.392 80.3238 109.685 80.3238H110.624C110.36 81.6553 109.759 84.891 109.421 86.4229C109.172 87.6685 108.952 88.7137 108.218 88.7137C108.174 88.7137 107.748 88.7137 107.484 88.4416C108.233 88.3844 108.233 87.7544 108.233 87.7401C108.233 87.4537 108.013 87.2819 107.734 87.2819C107.44 87.2819 107 87.5253 107 88.0694C107 88.685 107.646 89 108.218 89C109.715 89 110.331 86.38 110.492 85.6641C110.757 84.5617 111.476 80.7533 111.549 80.3238H112.796Z" fill="black"/>
<path d="M116.092 86.2797C116.249 86.1366 116.66 85.8216 116.816 85.6879C117.423 85.1439 118 84.6189 118 83.7504C118 82.6145 117.022 81.8796 115.799 81.8796C114.625 81.8796 113.852 82.7482 113.852 83.5976C113.852 84.0653 114.234 84.1321 114.371 84.1321C114.576 84.1321 114.879 83.989 114.879 83.6263C114.879 83.1299 114.39 83.1299 114.273 83.1299C114.556 82.4332 115.212 82.1946 115.691 82.1946C116.601 82.1946 117.071 82.9486 117.071 83.7504C117.071 84.743 116.356 85.4684 115.202 86.6233L113.969 87.8642C113.852 87.9692 113.852 87.9882 113.852 88.2269H117.716L118 86.5183H117.697C117.667 86.7092 117.589 87.1865 117.472 87.3678C117.413 87.4442 116.669 87.4442 116.513 87.4442H114.772L116.092 86.2797Z" fill="black"/>
<path d="M91.955 80.3238C92.2565 80.3238 92.3772 80.3238 92.3772 80.0518C92.3772 79.9086 92.2565 79.9086 91.9852 79.9086H90.764C91.0505 78.4339 91.2615 77.4174 91.3821 76.9593C91.4726 76.6156 91.7892 76.2863 92.1812 76.2863C92.4978 76.2863 92.8144 76.4152 92.9651 76.5441C92.3772 76.6013 92.1962 77.0165 92.1962 77.2599C92.1962 77.5463 92.4224 77.7181 92.7088 77.7181C93.0103 77.7181 93.4626 77.4747 93.4626 76.9306C93.4626 76.3293 92.8294 76 92.1661 76C91.5178 76 90.8846 76.4581 90.5831 77.0165C90.3117 77.5176 90.161 78.033 89.8142 79.9086H88.8041C88.5177 79.9086 88.3669 79.9086 88.3669 80.1663C88.3669 80.3238 88.4574 80.3238 88.7589 80.3238H89.7238C89.4524 81.6553 88.8343 84.891 88.4875 86.4229C88.2312 87.6685 88.0051 88.7137 87.2513 88.7137C87.2061 88.7137 86.7689 88.7137 86.4975 88.4416C87.2664 88.3844 87.2664 87.7544 87.2664 87.7401C87.2664 87.4537 87.0402 87.2819 86.7538 87.2819C86.4523 87.2819 86 87.5253 86 88.0694C86 88.685 86.6633 89 87.2513 89C88.7891 89 89.4223 86.38 89.5881 85.6641C89.8595 84.5617 90.5982 80.7533 90.6736 80.3238H91.955Z" fill="black"/>
<path d="M95.6632 82.1468C95.6632 81.8891 95.6431 81.8796 95.3717 81.8796C94.9597 82.2614 94.427 82.4904 93.4722 82.4904V82.8054C93.7435 82.8054 94.2863 82.8054 94.8692 82.5477V87.4442C94.8692 87.7973 94.8391 87.9119 93.8842 87.9119H93.5325V88.2269C93.9445 88.1982 94.8089 88.1982 95.2612 88.1982C95.7135 88.1982 96.5879 88.1982 97 88.2269V87.9119H96.6482C95.6934 87.9119 95.6632 87.7973 95.6632 87.4442V82.1468Z" fill="black"/>
</svg>
