<svg id="Layer_1" data-name="Layer 1" xmlns="http://www.w3.org/2000/svg" xmlns:xlink="http://www.w3.org/1999/xlink" viewBox="0 0 300.66 213.52"><defs><style>.cls-1,.cls-3,.cls-8{fill:none;}.cls-1{stroke:#000;}.cls-1,.cls-8{stroke-width:0.25px;}.cls-2{fill:#94cbe1;}.cls-2,.cls-3,.cls-4,.cls-5,.cls-7,.cls-8{stroke:#19619c;}.cls-2,.cls-6{stroke-dasharray:2;}.cls-3,.cls-5{opacity:0.5;}.cls-3,.cls-4,.cls-5{isolation:isolate;}.cls-4{opacity:0.75;fill:url(#linear-gradient);}.cls-5{fill:#f0f5f4;}.cls-6{fill:#1c5e97;stroke:#1c5e97;}.cls-7{fill:#a2dce0;}</style><linearGradient id="linear-gradient" x1="99.83" y1="81.2" x2="169.67" y2="81.2" gradientTransform="matrix(1, 0, 0, -1, 0, 215.04)" gradientUnits="userSpaceOnUse"><stop offset="0" stop-color="#fff"/><stop offset="0.32" stop-color="#fdfdfd"/><stop offset="0.45" stop-color="#f6f6f6"/><stop offset="0.56" stop-color="#e9e9e9"/><stop offset="0.64" stop-color="#d7d7d7"/><stop offset="0.72" stop-color="silver"/><stop offset="0.78" stop-color="#a3a3a3"/><stop offset="0.84" stop-color="#818181"/><stop offset="0.9" stop-color="#5a5a5a"/><stop offset="0.95" stop-color="#2e2e2e"/><stop offset="1"/></linearGradient></defs><line class="cls-1" x1="85.04" y1="152.7" x2="5.24" y2="200.56"/><path d="M6.4,199.87l2.8,1.47,0,.1-4.68.77L0,203.71l3.43-3.24,2.88-3.77h.1Z"/><path d="M.13,213.51l2.71-3.16-1.55-3.06H2.46L3,208.4c.2.41.37.81.53,1.19l1.79-2.3H6.6L4,210.44l1.57,3.08H4.39l-.62-1.27c-.13-.27-.28-.6-.45-1l-1.85,2.27H.13Z"/><path d="M292.48,167.25l.06-1a2.41,2.41,0,0,0,.64.09.84.84,0,0,0,.52-.15,2.39,2.39,0,0,0,.56-.73l.34-.61-1-6.24h1l.47,3.15q.14.93.24,1.86l2.78-5h1.11l-4,7a4.51,4.51,0,0,1-1,1.37,1.63,1.63,0,0,1-1,.33A2,2,0,0,1,292.48,167.25Z"/><path d="M75,147.94a7.81,7.81,0,0,1,.31-2.45,3,3,0,0,1,.93-1.43,2.41,2.41,0,0,1,1.56-.5,2.46,2.46,0,0,1,1.21.28,2.43,2.43,0,0,1,.86.8,4.29,4.29,0,0,1,.53,1.28,8.45,8.45,0,0,1,.19,2,7.79,7.79,0,0,1-.31,2.44,3.11,3.11,0,0,1-.93,1.44,2.61,2.61,0,0,1-3.51-.38A5.79,5.79,0,0,1,75,147.94Zm1.08,0a5.4,5.4,0,0,0,.5,2.82,1.41,1.41,0,0,0,2.44,0,8.17,8.17,0,0,0,0-5.63,1.46,1.46,0,0,0-1.23-.7,1.36,1.36,0,0,0-1.16.62A5.42,5.42,0,0,0,76.06,147.94Z"/><line class="cls-1" x1="85.07" y1="152.76" x2="85.07" y2="6.13"/><path d="M85.07,7.47l-2.7,1.64L82.31,9l1.75-4.41c.34-1.54.68-3.07,1-4.61.34,1.54.68,3.07,1,4.61L87.83,9l0,.09Z"/><path d="M74.88,6.81,75.05,6,78.4,2.22c.24-.27.5-.54.8-.83-.5.05-.87.08-1.08.08H75.8L76,.59H80.8l-.14.67L77.28,5.05c-.19.21-.48.51-.86.88.59,0,1,0,1.21,0h2.45l-.19.93Z"/><line class="cls-1" x1="85.32" y1="152.76" x2="294.53" y2="152.76"/><path d="M293.19,152.76l-1.64-2.7.09-.06,4.41,1.75,4.61,1-4.61,1-4.41,1.75-.09-.05Z"/><path d="M241.22,30.48l.17-.82,3.35-3.77c.24-.27.5-.54.8-.83-.5.05-.87.08-1.08.08h-2.31l.19-.88h4.81l-.14.67-3.38,3.79c-.19.21-.48.51-.86.88.59,0,1-.05,1.21-.05h2.45l-.19.93Z"/><path d="M257.07,25.43H251.4v-1h5.67Zm0,2.61H251.4v-1h5.67Z"/><path d="M261.2,30.48l1.13-5.4h-.95l.17-.82h.95l.18-.88a4.14,4.14,0,0,1,.29-1,1.08,1.08,0,0,1,.49-.48,2,2,0,0,1,.92-.19,6.12,6.12,0,0,1,1.17.17l-.19.93a3.89,3.89,0,0,0-.9-.14.62.62,0,0,0-.47.16,1.57,1.57,0,0,0-.28.74l-.14.67h1.18l-.17.82H263.4l-1.13,5.4H261.2Z"/><path d="M265.93,33a9.9,9.9,0,0,1-.92-4.14,8.91,8.91,0,0,1,.37-2.64,10.34,10.34,0,0,1,1.13-2.42,18,18,0,0,1,1.61-2.06H269a11.43,11.43,0,0,0-1.45,2.06,10.94,10.94,0,0,0-1.11,2.61A9.84,9.84,0,0,0,266,29a13,13,0,0,0,.67,4Z"/><path d="M268,30.48l2.71-3.16-1.55-3.06h1.17l.53,1.11c.2.41.37.81.53,1.19l1.79-2.3h1.29l-2.61,3.15,1.57,3.08h-1.17l-.62-1.27c-.13-.27-.28-.6-.45-1l-1.85,2.27H268Z"/><path d="M274.64,30.48l.25-1.2h1.21l-.22,1a2.77,2.77,0,0,1-.62,1.38,1.58,1.58,0,0,1-1,.5l.1-.46c.46-.13.77-.55.92-1.27Z"/><path d="M277.32,32.88l.06-1A2.41,2.41,0,0,0,278,32a.84.84,0,0,0,.52-.15,2.39,2.39,0,0,0,.56-.73l.34-.61-1-6.24h1l.47,3.15q.13.93.24,1.86l2.78-5H284l-4,7.05a4.51,4.51,0,0,1-1,1.37,1.63,1.63,0,0,1-1,.33A1.6,1.6,0,0,1,277.32,32.88Z"/><path d="M285.7,21.75a9.76,9.76,0,0,1,.93,4.14,8.91,8.91,0,0,1-.37,2.64A10.34,10.34,0,0,1,285.13,31,19.22,19.22,0,0,1,283.52,33h-.83a11.7,11.7,0,0,0,1.45-2.07,11.11,11.11,0,0,0,1.11-2.61,9.83,9.83,0,0,0,.34-2.58,12.85,12.85,0,0,0-.67-4Z"/><path d="M133.54,195.4l1.8-8.59h3.6a5.55,5.55,0,0,1,1.62.18,1.52,1.52,0,0,1,.86.67,2.58,2.58,0,0,1-.38,3,3.81,3.81,0,0,1-2.21.9,3.33,3.33,0,0,1,.71.68,7.79,7.79,0,0,1,.87,1.56l.66,1.62h-1.28l-.62-1.6a7.49,7.49,0,0,0-.76-1.5,1.55,1.55,0,0,0-.6-.58,2.63,2.63,0,0,0-1-.14h-1.34l-.8,3.81h-1.14Zm2.14-4.75h1.59q1.09,0,1.44,0a2.83,2.83,0,0,0,1.07-.29,1.59,1.59,0,0,0,.64-.62,1.65,1.65,0,0,0,.23-.83,1.23,1.23,0,0,0-.17-.65.88.88,0,0,0-.45-.38,3,3,0,0,0-.94-.1h-2.8Z"/><path class="cls-2" d="M101.62,171.16c-14.34,8.74,47,18.29,67.69-.32l-.39-.12c5.67-11.83-50.95-13.57-68,.33"/><path class="cls-3" d="M169.74,87.73c-.65,3.67-6.87,8.74-16.15,10.49-12.09,2.28-58.18-6.56-53.27-13.12"/><path class="cls-3" d="M100.32,85.1c12.82-9,20.7-9,31.73-8,11.63,1.07,15.77,4.92,23.27,5.9,0,0,.43.32,9,.66,4.18.16,5.8,1.85,5.41,4.06"/><path class="cls-4" d="M100,86.16v87.58l2-2.6c-14.34,8.74,47,18.29,67.69-.32v-83"/><path class="cls-5" d="M174.23,110.31c1.5-8.5,3-26.5,46.5-20.5s60.42-34,60.42-45l.58-.21c-14.5,5.5-43.5-3.5-57-13S174,24.44,153.48,37.44l.25-.38c0,11-27.5,38.75-71,32.75S17,95,12.23,110.31c20.5-13,63.5-15,77-5.5s70.5,11,85,5.5"/><path class="cls-6" d="M100,86.35"/><path class="cls-6" d="M100,173.93"/><path class="cls-6" d="M169.65,88"/><path class="cls-6" d="M169.65,170.35"/><path class="cls-7" d="M169.71,87.92c-.65,3.67-6.87,8.74-16.15,10.49-12.09,2.28-58.18-6.56-53.27-13.12"/><path class="cls-7" d="M100.3,85.29c12.82-9,20.7-9,31.73-8,11.63,1.07,15.77,4.92,23.27,5.9,0,0,.43.32,9,.66,4.18.16,5.8,1.85,5.41,4.06"/><path class="cls-8" d="M77.73,100.34c4.75-15.35,36-15.62,68.5-17.62,20.52-1.26,70.5-30,68-55.5"/><path class="cls-8" d="M106.15,110.35c4.75-15.35,54-24.61,68.58-26.13,14.75-1.54,69.75-28.54,62.5-46"/><path class="cls-8" d="M139,113.35c4.75-15.35,44.63-27.47,59.25-28.13,22-1,62.5-11,62.5-39.5"/><path class="cls-8" d="M91.32,70.51c17.5,14.5,27.07,14,43.17,17.67,11,2.5,35,3.48,50.5,4"/><path class="cls-8" d="M35,80.85c17.67-5.5,53.32,5.29,68,12.83,24.33,12.5,65,7.83,74.5,6.83"/><path class="cls-8" d="M43.23,100.22c4.75-15.35,37.21-23.7,81-20.5,20.5,1.5,66.5-32,60.5-52.75"/><path class="cls-8" d="M131.48,61.85c8.56,14.68,19.34,14,35.44,17.66,11,2.5,45.47,1.12,58.06,10.18"/><path class="cls-8" d="M154.48,37.51c10.14,21.2,23.13,18.69,42.21,24,13,3.61,53.88,1.61,68.79,14.7"/></svg>