<svg width="97" height="101" viewBox="0 0 97 101" fill="none" xmlns="http://www.w3.org/2000/svg">
<path d="M49.3536 7.64645C49.1583 7.45118 48.8417 7.45118 48.6464 7.64645L45.4645 10.8284C45.2692 11.0237 45.2692 11.3403 45.4645 11.5355C45.6597 11.7308 45.9763 11.7308 46.1716 11.5355L49 8.70711L51.8284 11.5355C52.0237 11.7308 52.3403 11.7308 52.5355 11.5355C52.7308 11.3403 52.7308 11.0237 52.5355 10.8284L49.3536 7.64645ZM48.5 8V97.5H49.5V8H48.5Z" fill="black"/>
<path d="M93.8536 53.3536C94.0488 53.1583 94.0488 52.8417 93.8536 52.6464L90.6716 49.4645C90.4763 49.2692 90.1597 49.2692 89.9645 49.4645C89.7692 49.6597 89.7692 49.9763 89.9645 50.1716L92.7929 53L89.9645 55.8284C89.7692 56.0237 89.7692 56.3403 89.9645 56.5355C90.1597 56.7308 90.4763 56.7308 90.6716 56.5355L93.8536 53.3536ZM93.5 52.5L4 52.5L4 53.5L93.5 53.5L93.5 52.5Z" fill="black"/>
<path d="M70 39H82.5" stroke="#B0B0B0"/>
<circle cx="70" cy="39" r="1" fill="black"/>
<path d="M82.5 39.5C82.5 46.1091 76.9222 51.5 70 51.5C63.0778 51.5 57.5 46.1091 57.5 39.5C57.5 32.8909 63.0778 27.5 70 27.5C76.9222 27.5 82.5 32.8909 82.5 39.5Z" stroke="black"/>
<path d="M67.566 40.1406C67.4536 40.1662 67.4115 40.2685 67.4115 40.3494C67.4115 40.4517 67.4782 40.4858 67.5274 40.4858C67.6327 40.4858 67.7064 40.375 67.7064 40.2599C67.7064 40.081 67.5379 40 67.3904 40C67.1762 40 67.0569 40.2557 67.0253 40.3367C66.9445 40.017 66.7268 40 66.6636 40C66.3055 40 66.1159 40.5582 66.1159 40.652C66.1159 40.669 66.1299 40.6903 66.1545 40.6903C66.1826 40.6903 66.1896 40.6648 66.1966 40.6477C66.316 40.1747 66.5513 40.0852 66.6531 40.0852C66.8111 40.0852 66.8427 40.2642 66.8427 40.3665C66.8427 40.4602 66.8216 40.5582 66.7795 40.7628L66.6601 41.3466C66.6074 41.6023 66.5056 41.8367 66.3195 41.8367C66.302 41.8367 66.2142 41.8367 66.1404 41.7813C66.2668 41.7514 66.2949 41.6236 66.2949 41.5725C66.2949 41.4872 66.2423 41.4361 66.1756 41.4361C66.0913 41.4361 66 41.5256 66 41.6619C66 41.8409 66.165 41.9219 66.316 41.9219C66.4845 41.9219 66.6039 41.76 66.6777 41.5852C66.7338 41.8367 66.9094 41.9219 67.0393 41.9219C67.3974 41.9219 67.5871 41.3636 67.5871 41.2699C67.5871 41.2486 67.573 41.2315 67.5519 41.2315C67.5203 41.2315 67.5168 41.2529 67.5063 41.2869C67.4115 41.6619 67.2078 41.8367 67.0498 41.8367C66.9269 41.8367 66.8602 41.7259 66.8602 41.5512C66.8602 41.4574 66.8743 41.3892 66.9305 41.108L67.0534 40.5284C67.106 40.2727 67.2254 40.0852 67.3869 40.0852C67.3939 40.0852 67.4922 40.0852 67.566 40.1406Z" fill="black"/>
<path d="M68.9998 41.6121C68.9998 41.3081 68.9741 41.1235 68.8968 40.9417C68.7939 40.6917 68.6043 40.6292 68.4755 40.6292C68.1806 40.6292 68.0729 40.8962 68.0401 40.9757C67.9559 41.1831 67.9512 41.4644 67.9512 41.6121C67.9512 41.7996 67.9582 42.0866 68.0706 42.3138C68.1782 42.5241 68.3514 42.578 68.4755 42.578C68.5879 42.578 68.7892 42.5354 68.9062 42.2542C68.9928 42.0496 68.9998 41.7968 68.9998 41.6121ZM68.4755 42.4985C68.3959 42.4985 68.2344 42.453 68.1853 42.1547C68.1595 41.9928 68.1595 41.7258 68.1595 41.578C68.1595 41.382 68.1595 41.1831 68.1853 41.0269C68.2344 40.7371 68.417 40.7087 68.4755 40.7087C68.5551 40.7087 68.7166 40.757 68.7634 41.0155C68.7915 41.1718 68.7915 41.3848 68.7915 41.578C68.7915 41.7456 68.7915 42.0013 68.7634 42.1604C68.7143 42.4587 68.5528 42.4985 68.4755 42.4985Z" fill="black"/>
<path d="M75.3835 38V35.2727H75.7884V35.6847H75.8168C75.8665 35.5497 75.9564 35.4402 76.0866 35.3562C76.2169 35.2721 76.3636 35.2301 76.527 35.2301C76.5578 35.2301 76.5962 35.2307 76.6424 35.2319C76.6886 35.2331 76.7235 35.2348 76.7472 35.2372V35.6634C76.733 35.6598 76.7004 35.6545 76.6495 35.6474C76.5998 35.6391 76.5471 35.6349 76.4915 35.6349C76.3589 35.6349 76.2405 35.6628 76.1364 35.7184C76.0334 35.7728 75.9517 35.8486 75.8913 35.9457C75.8321 36.0415 75.8026 36.151 75.8026 36.2741V38H75.3835Z" fill="black"/>
</svg>
