<svg width="250" height="250" viewBox="0 0 250 250" fill="none" xmlns="http://www.w3.org/2000/svg">
<path d="M123.104 19.6464C122.908 19.4512 122.592 19.4512 122.396 19.6464L119.214 22.8284C119.019 23.0237 119.019 23.3403 119.214 23.5355C119.41 23.7308 119.726 23.7308 119.922 23.5355L122.75 20.7071L125.578 23.5355C125.774 23.7308 126.09 23.7308 126.286 23.5355C126.481 23.3403 126.481 23.0237 126.286 22.8284L123.104 19.6464ZM122.25 229.5C122.25 229.776 122.474 230 122.75 230C123.026 230 123.25 229.776 123.25 229.5H122.25ZM122.25 20V229.5H123.25V20H122.25Z" fill="black"/>
<path d="M18 124.25C17.7239 124.25 17.5 124.474 17.5 124.75C17.5 125.026 17.7239 125.25 18 125.25L18 124.25ZM227.854 125.104C228.049 124.908 228.049 124.592 227.854 124.396L224.672 121.214C224.476 121.019 224.16 121.019 223.964 121.214C223.769 121.41 223.769 121.726 223.964 121.922L226.793 124.75L223.964 127.578C223.769 127.774 223.769 128.09 223.964 128.286C224.16 128.481 224.476 128.481 224.672 128.286L227.854 125.104ZM18 125.25L227.5 125.25L227.5 124.25L18 124.25L18 125.25Z" fill="black"/>
<path d="M156.5 125V101.75V78.5H123" stroke="black" stroke-dasharray="2 2"/>
<circle cx="156.5" cy="78.5" r="1.5" fill="black"/>
<path d="M137.5 78.5H177.5" stroke="black"/>
<path d="M156.5 98.5L156.5 58.5" stroke="black"/>
<path d="M162.5 78.5L165.5 81.5" stroke="black"/>
<path d="M165.5 75.5L162.5 78.5" stroke="black"/>
<path d="M156.5 73L159.5 70" stroke="black"/>
<path d="M153.5 70L156.5 73" stroke="black"/>
<path d="M156.5 84L159.5 87" stroke="black"/>
<path d="M153.5 87L156.5 84" stroke="black"/>
<path d="M150.5 78.5L147.5 81.5" stroke="black"/>
<path d="M147.5 75.5L150.5 78.5" stroke="black"/>
<path d="M174.5 76V81" stroke="black"/>
<path d="M154 62L159 62" stroke="black"/>
<path d="M173.262 71C173.028 71.042 172.941 71.2098 172.941 71.3427C172.941 71.5105 173.079 71.5664 173.182 71.5664C173.401 71.5664 173.555 71.3846 173.555 71.1958C173.555 70.9021 173.204 70.7692 172.897 70.7692C172.45 70.7692 172.202 71.1888 172.136 71.3217C171.968 70.7972 171.514 70.7692 171.382 70.7692C170.636 70.7692 170.241 71.6853 170.241 71.8392C170.241 71.8671 170.271 71.9021 170.322 71.9021C170.38 71.9021 170.395 71.8601 170.41 71.8322C170.658 71.0559 171.148 70.9091 171.361 70.9091C171.69 70.9091 171.756 71.2028 171.756 71.3706C171.756 71.5245 171.712 71.6853 171.624 72.021L171.375 72.979C171.265 73.3986 171.053 73.7832 170.666 73.7832C170.629 73.7832 170.446 73.7832 170.293 73.6923C170.556 73.6434 170.614 73.4336 170.614 73.3496C170.614 73.2098 170.505 73.1259 170.366 73.1259C170.19 73.1259 170 73.2727 170 73.4965C170 73.7902 170.344 73.9231 170.658 73.9231C171.009 73.9231 171.258 73.6573 171.412 73.3706C171.529 73.7832 171.895 73.9231 172.165 73.9231C172.911 73.9231 173.306 73.007 173.306 72.8531C173.306 72.8182 173.277 72.7902 173.233 72.7902C173.167 72.7902 173.16 72.8252 173.138 72.8811C172.941 73.4965 172.516 73.7832 172.187 73.7832C171.931 73.7832 171.792 73.6014 171.792 73.3147C171.792 73.1608 171.821 73.0489 171.938 72.5874L172.194 71.6364C172.304 71.2168 172.553 70.9091 172.889 70.9091C172.904 70.9091 173.109 70.9091 173.262 71Z" fill="black"/>
<path d="M176.25 73.4149C176.25 72.9161 176.196 72.6131 176.035 72.3147C175.82 71.9044 175.425 71.8019 175.157 71.8019C174.543 71.8019 174.319 72.2401 174.25 72.3706C174.075 72.711 174.065 73.1725 174.065 73.4149C174.065 73.7226 174.08 74.1935 174.314 74.5664C174.538 74.9114 174.899 75 175.157 75C175.391 75 175.811 74.9301 176.055 74.4685C176.235 74.1329 176.25 73.718 176.25 73.4149ZM175.157 74.8695C174.991 74.8695 174.655 74.7949 174.553 74.3054C174.499 74.0396 174.499 73.6014 174.499 73.359C174.499 73.0373 174.499 72.711 174.553 72.4545C174.655 71.979 175.035 71.9324 175.157 71.9324C175.323 71.9324 175.66 72.0117 175.757 72.4359C175.816 72.6923 175.816 73.042 175.816 73.359C175.816 73.634 175.816 74.0536 175.757 74.3147C175.655 74.8042 175.318 74.8695 175.157 74.8695Z" fill="black"/>
<path d="M157.262 127.231C157.028 127.273 156.941 127.441 156.941 127.573C156.941 127.741 157.079 127.797 157.182 127.797C157.401 127.797 157.555 127.615 157.555 127.427C157.555 127.133 157.204 127 156.897 127C156.45 127 156.202 127.42 156.136 127.552C155.968 127.028 155.514 127 155.382 127C154.636 127 154.241 127.916 154.241 128.07C154.241 128.098 154.271 128.133 154.322 128.133C154.38 128.133 154.395 128.091 154.41 128.063C154.658 127.287 155.148 127.14 155.361 127.14C155.69 127.14 155.756 127.434 155.756 127.601C155.756 127.755 155.712 127.916 155.624 128.252L155.375 129.21C155.265 129.629 155.053 130.014 154.666 130.014C154.629 130.014 154.446 130.014 154.293 129.923C154.556 129.874 154.614 129.664 154.614 129.58C154.614 129.441 154.505 129.357 154.366 129.357C154.19 129.357 154 129.503 154 129.727C154 130.021 154.344 130.154 154.658 130.154C155.009 130.154 155.258 129.888 155.412 129.601C155.529 130.014 155.895 130.154 156.165 130.154C156.911 130.154 157.306 129.238 157.306 129.084C157.306 129.049 157.277 129.021 157.233 129.021C157.167 129.021 157.16 129.056 157.138 129.112C156.941 129.727 156.516 130.014 156.187 130.014C155.931 130.014 155.792 129.832 155.792 129.545C155.792 129.392 155.821 129.28 155.938 128.818L156.194 127.867C156.304 127.448 156.553 127.14 156.889 127.14C156.904 127.14 157.109 127.14 157.262 127.231Z" fill="black"/>
<path d="M160.25 129.646C160.25 129.147 160.196 128.844 160.035 128.545C159.82 128.135 159.425 128.033 159.157 128.033C158.543 128.033 158.319 128.471 158.25 128.601C158.075 128.942 158.065 129.403 158.065 129.646C158.065 129.953 158.08 130.424 158.314 130.797C158.538 131.142 158.899 131.231 159.157 131.231C159.391 131.231 159.811 131.161 160.055 130.699C160.235 130.364 160.25 129.949 160.25 129.646ZM159.157 131.1C158.991 131.1 158.655 131.026 158.553 130.536C158.499 130.27 158.499 129.832 158.499 129.59C158.499 129.268 158.499 128.942 158.553 128.685C158.655 128.21 159.035 128.163 159.157 128.163C159.323 128.163 159.66 128.242 159.757 128.667C159.816 128.923 159.816 129.273 159.816 129.59C159.816 129.865 159.816 130.284 159.757 130.545C159.655 131.035 159.318 131.1 159.157 131.1Z" fill="black"/>
<path d="M181.305 72.2378H183.324C183.426 72.2378 183.558 72.2378 183.558 72.1119C183.558 71.979 183.433 71.979 183.324 71.979H181.305V70.049C181.305 69.9511 181.305 69.8252 181.173 69.8252C181.034 69.8252 181.034 69.9441 181.034 70.049V71.979H179.015C178.913 71.979 178.781 71.979 178.781 72.1049C178.781 72.2378 178.906 72.2378 179.015 72.2378H181.034V74.1678C181.034 74.2657 181.034 74.3916 181.166 74.3916C181.305 74.3916 181.305 74.2727 181.305 74.1678V72.2378Z" fill="black"/>
<path d="M187.637 69.1748C187.645 69.1469 187.659 69.1049 187.659 69.0699C187.659 69 187.586 69 187.572 69C187.564 69 187.206 69.028 187.169 69.035C187.045 69.042 186.935 69.0559 186.804 69.0629C186.621 69.0769 186.57 69.0839 186.57 69.2098C186.57 69.2797 186.628 69.2797 186.73 69.2797C187.089 69.2797 187.096 69.3427 187.096 69.4126C187.096 69.4545 187.082 69.5105 187.074 69.5315L186.014 73.5804C185.984 73.6853 185.984 73.6993 185.984 73.7413C185.984 73.8951 186.109 73.9231 186.182 73.9231C186.306 73.9231 186.401 73.8322 186.438 73.7552L186.767 72.4895C186.804 72.3357 186.848 72.1888 186.884 72.035C186.965 71.7413 186.965 71.7343 187.104 71.5315C187.243 71.3287 187.572 70.9091 188.135 70.9091C188.427 70.9091 188.53 71.1189 188.53 71.3986C188.53 71.7902 188.245 72.5525 188.084 72.972C188.018 73.1399 187.981 73.2308 187.981 73.3566C187.981 73.6713 188.208 73.9231 188.559 73.9231C189.239 73.9231 189.495 72.8951 189.495 72.8531C189.495 72.8182 189.466 72.7902 189.422 72.7902C189.356 72.7902 189.349 72.8112 189.313 72.9301C189.144 73.4895 188.874 73.7832 188.581 73.7832C188.508 73.7832 188.391 73.7762 188.391 73.5525C188.391 73.3706 188.479 73.1469 188.508 73.0699C188.64 72.7343 188.969 71.9091 188.969 71.5035C188.969 71.0839 188.713 70.7692 188.157 70.7692C187.74 70.7692 187.374 70.958 187.074 71.3217L187.637 69.1748Z" fill="black"/>
<path d="M134.779 64.3853C134.575 64.6392 134.281 64.8664 133.912 64.8664C133.822 64.8664 133.46 64.853 133.347 64.5457C133.369 64.5523 133.407 64.5523 133.422 64.5523C133.648 64.5523 133.799 64.3786 133.799 64.225C133.799 64.0713 133.656 64.0178 133.543 64.0178C133.422 64.0178 133.158 64.098 133.158 64.4254C133.158 64.7662 133.482 65 133.912 65C134.666 65 135.427 64.3853 135.638 63.6437L136.377 61.0379C136.384 61.0045 136.399 60.9644 136.399 60.9243C136.399 60.8241 136.309 60.7572 136.196 60.7572C136.128 60.7572 135.97 60.784 135.909 60.9844L135.352 62.9488C135.314 63.069 135.314 63.0824 135.254 63.1559C135.103 63.343 134.854 63.5702 134.492 63.5702C134.07 63.5702 134.033 63.2027 134.033 63.0223C134.033 62.6414 134.236 62.127 134.44 61.6459C134.522 61.4521 134.568 61.3586 134.568 61.225C134.568 60.9443 134.342 60.6904 133.972 60.6904C133.279 60.6904 133 61.6592 133 61.7127C133 61.7394 133.03 61.7728 133.083 61.7728C133.151 61.7728 133.158 61.7461 133.188 61.6526C133.369 61.0913 133.656 60.8241 133.95 60.8241C134.017 60.8241 134.146 60.8241 134.146 61.0446C134.146 61.2183 134.063 61.412 133.95 61.6659C133.58 62.5412 133.58 62.7617 133.58 62.9221C133.58 63.5568 134.093 63.7038 134.47 63.7038C134.688 63.7038 134.96 63.6437 135.223 63.3964L135.231 63.4031C135.118 63.7973 135.043 64.0579 134.779 64.3853Z" fill="black"/>
<path d="M138.852 63.2183C138.852 62.7416 138.796 62.4521 138.631 62.167C138.409 61.7751 138.002 61.6771 137.726 61.6771C137.093 61.6771 136.862 62.0958 136.792 62.2205C136.611 62.5457 136.601 62.9866 136.601 63.2183C136.601 63.5122 136.616 63.9621 136.857 64.3185C137.088 64.6481 137.46 64.7327 137.726 64.7327C137.967 64.7327 138.399 64.6659 138.651 64.2249C138.837 63.9042 138.852 63.5078 138.852 63.2183ZM137.726 64.608C137.555 64.608 137.209 64.5367 137.103 64.069C137.048 63.8151 137.048 63.3964 137.048 63.1648C137.048 62.8575 137.048 62.5457 137.103 62.3007C137.209 61.8463 137.6 61.8018 137.726 61.8018C137.897 61.8018 138.244 61.8775 138.344 62.2828C138.404 62.5278 138.404 62.8619 138.404 63.1648C138.404 63.4276 138.404 63.8285 138.344 64.0779C138.239 64.5457 137.892 64.608 137.726 64.608Z" fill="black"/>
<path d="M115.779 80.6949C115.575 80.9488 115.281 81.1759 114.912 81.1759C114.822 81.1759 114.46 81.1626 114.347 80.8552C114.369 80.8619 114.407 80.8619 114.422 80.8619C114.648 80.8619 114.799 80.6882 114.799 80.5345C114.799 80.3808 114.656 80.3274 114.543 80.3274C114.422 80.3274 114.158 80.4076 114.158 80.735C114.158 81.0757 114.482 81.3096 114.912 81.3096C115.666 81.3096 116.427 80.6949 116.638 79.9532L117.377 77.3474C117.384 77.314 117.399 77.2739 117.399 77.2339C117.399 77.1336 117.309 77.0668 117.196 77.0668C117.128 77.0668 116.97 77.0935 116.909 77.294L116.352 79.2584C116.314 79.3786 116.314 79.392 116.254 79.4655C116.103 79.6526 115.854 79.8797 115.492 79.8797C115.07 79.8797 115.033 79.5122 115.033 79.3318C115.033 78.951 115.236 78.4365 115.44 77.9555C115.522 77.7617 115.568 77.6682 115.568 77.5345C115.568 77.2539 115.342 77 114.972 77C114.279 77 114 77.9688 114 78.0223C114 78.049 114.03 78.0824 114.083 78.0824C114.151 78.0824 114.158 78.0557 114.188 77.9621C114.369 77.4009 114.656 77.1336 114.95 77.1336C115.017 77.1336 115.146 77.1336 115.146 77.3541C115.146 77.5278 115.063 77.7216 114.95 77.9755C114.58 78.8508 114.58 79.0713 114.58 79.2316C114.58 79.8664 115.093 80.0134 115.47 80.0134C115.688 80.0134 115.96 79.9532 116.223 79.706L116.231 79.7127C116.118 80.1069 116.043 80.3675 115.779 80.6949Z" fill="black"/>
<path d="M119.852 79.5278C119.852 79.0512 119.796 78.7617 119.631 78.4766C119.409 78.0846 119.002 77.9866 118.726 77.9866C118.093 77.9866 117.862 78.4053 117.792 78.5301C117.611 78.8552 117.601 79.2962 117.601 79.5278C117.601 79.8218 117.616 80.2717 117.857 80.6281C118.088 80.9577 118.46 81.0423 118.726 81.0423C118.967 81.0423 119.399 80.9755 119.651 80.5345C119.837 80.2138 119.852 79.8174 119.852 79.5278ZM118.726 80.9176C118.555 80.9176 118.209 80.8463 118.103 80.3786C118.048 80.1247 118.048 79.706 118.048 79.4744C118.048 79.167 118.048 78.8552 118.103 78.6102C118.209 78.1559 118.6 78.1114 118.726 78.1114C118.897 78.1114 119.244 78.1871 119.344 78.5924C119.404 78.8374 119.404 79.1715 119.404 79.4744C119.404 79.7372 119.404 80.1381 119.344 80.3875C119.239 80.8552 118.892 80.9176 118.726 80.9176Z" fill="black"/>
<path d="M144.06 62.0935H146.14C146.246 62.0935 146.382 62.0935 146.382 61.9733C146.382 61.8463 146.253 61.8463 146.14 61.8463H144.06V60.0022C144.06 59.9087 144.06 59.7884 143.925 59.7884C143.781 59.7884 143.781 59.902 143.781 60.0022V61.8463H141.701C141.596 61.8463 141.46 61.8463 141.46 61.9666C141.46 62.0935 141.588 62.0935 141.701 62.0935H143.781V63.9376C143.781 64.0312 143.781 64.1515 143.917 64.1515C144.06 64.1515 144.06 64.0379 144.06 63.9376V62.0935Z" fill="black"/>
<path d="M150.586 59.167C150.593 59.1403 150.608 59.1002 150.608 59.0668C150.608 59 150.533 59 150.518 59C150.51 59 150.141 59.0267 150.103 59.0334C149.975 59.0401 149.862 59.0535 149.726 59.0601C149.538 59.0735 149.485 59.0802 149.485 59.2004C149.485 59.2673 149.546 59.2673 149.651 59.2673C150.02 59.2673 150.028 59.3274 150.028 59.3942C150.028 59.4343 150.013 59.4878 150.005 59.5078L148.912 63.3764C148.882 63.4766 148.882 63.49 148.882 63.5301C148.882 63.6771 149.01 63.7038 149.086 63.7038C149.214 63.7038 149.312 63.6169 149.35 63.5434L149.689 62.3341C149.726 62.1871 149.772 62.0468 149.809 61.8998C149.892 61.6192 149.892 61.6125 150.035 61.4187C150.179 61.2249 150.518 60.8241 151.098 60.8241C151.4 60.8241 151.505 61.0245 151.505 61.2918C151.505 61.6659 151.211 62.3942 151.045 62.7951C150.978 62.9555 150.94 63.0423 150.94 63.1626C150.94 63.4633 151.174 63.7038 151.535 63.7038C152.236 63.7038 152.5 62.7216 152.5 62.6815C152.5 62.6481 152.47 62.6214 152.425 62.6214C152.357 62.6214 152.349 62.6414 152.312 62.755C152.138 63.2895 151.859 63.5702 151.558 63.5702C151.483 63.5702 151.362 63.5635 151.362 63.3497C151.362 63.1759 151.452 62.9621 151.483 62.8886C151.618 62.5679 151.957 61.7795 151.957 61.392C151.957 60.9911 151.694 60.6904 151.121 60.6904C150.691 60.6904 150.314 60.8708 150.005 61.2183L150.586 59.167Z" fill="black"/>
</svg>
