<svg width="503" height="277" viewBox="0 0 503 277" fill="none" xmlns="http://www.w3.org/2000/svg">
<path d="M252.354 13.6464C252.158 13.4512 251.842 13.4512 251.646 13.6464L248.464 16.8284C248.269 17.0237 248.269 17.3403 248.464 17.5355C248.66 17.7308 248.976 17.7308 249.172 17.5355L252 14.7071L254.828 17.5355C255.024 17.7308 255.34 17.7308 255.536 17.5355C255.731 17.3403 255.731 17.0237 255.536 16.8284L252.354 13.6464ZM251.5 14V263H252.5V14H251.5Z" fill="black"/>
<path d="M376.354 139.354C376.549 139.158 376.549 138.842 376.354 138.646L373.172 135.464C372.976 135.269 372.66 135.269 372.464 135.464C372.269 135.66 372.269 135.976 372.464 136.172L375.293 139L372.464 141.828C372.269 142.024 372.269 142.34 372.464 142.536C372.66 142.731 372.976 142.731 373.172 142.536L376.354 139.354ZM376 138.5L127 138.5L127 139.5L376 139.5L376 138.5Z" fill="black"/>
<path d="M192 169.5L341.5 94" stroke="black"/>
<path d="M319 105.5V139" stroke="black"/>
<path d="M256.125 148.099C255.59 148.099 255.134 147.954 254.758 147.663C254.381 147.369 254.094 146.944 253.895 146.388C253.696 145.829 253.597 145.154 253.597 144.364C253.597 143.578 253.696 142.906 253.895 142.35C254.096 141.791 254.385 141.365 254.761 141.072C255.14 140.776 255.595 140.628 256.125 140.628C256.655 140.628 257.109 140.776 257.485 141.072C257.864 141.365 258.153 141.791 258.352 142.35C258.553 142.906 258.653 143.578 258.653 144.364C258.653 145.154 258.554 145.829 258.355 146.388C258.156 146.944 257.869 147.369 257.492 147.663C257.116 147.954 256.66 148.099 256.125 148.099ZM256.125 147.318C256.655 147.318 257.067 147.062 257.361 146.551C257.654 146.04 257.801 145.311 257.801 144.364C257.801 143.734 257.734 143.198 257.599 142.755C257.466 142.312 257.274 141.975 257.023 141.743C256.775 141.511 256.475 141.395 256.125 141.395C255.599 141.395 255.189 141.654 254.893 142.173C254.597 142.689 254.449 143.419 254.449 144.364C254.449 144.993 254.515 145.528 254.648 145.969C254.78 146.409 254.971 146.744 255.219 146.974C255.47 147.203 255.772 147.318 256.125 147.318Z" fill="black"/>
<path d="M316.582 146.509V145.784L319.778 140.727H320.304V141.849H319.949L317.534 145.67V145.727H321.838V146.509H316.582ZM320.006 148V146.288V145.951V140.727H320.844V148H320.006Z" fill="black"/>
<path d="M293.881 135V127.727H298.27V128.509H294.761V130.966H298.043V131.747H294.761V134.219H298.327V135H293.881Z" fill="black"/>
<path d="M314.59 84.9227C314.294 85.3913 313.866 85.8105 313.328 85.8105C313.196 85.8105 312.669 85.7859 312.505 85.2186C312.538 85.231 312.593 85.231 312.615 85.231C312.944 85.231 313.163 84.9104 313.163 84.6268C313.163 84.3432 312.955 84.2445 312.79 84.2445C312.615 84.2445 312.23 84.3925 312.23 84.9967C312.23 85.6256 312.702 86.0571 313.328 86.0571C314.425 86.0571 315.534 84.9227 315.841 83.554L316.917 78.745C316.928 78.6834 316.949 78.6094 316.949 78.5354C316.949 78.3504 316.818 78.2271 316.653 78.2271C316.554 78.2271 316.324 78.2765 316.236 78.6464L315.424 82.2716C315.369 82.4936 315.369 82.5182 315.281 82.6539C315.062 82.9991 314.7 83.4184 314.173 83.4184C313.558 83.4184 313.503 82.7402 313.503 82.4072C313.503 81.7044 313.8 80.7549 314.096 79.8671C314.217 79.5095 314.283 79.3369 314.283 79.0903C314.283 78.5724 313.953 78.1038 313.416 78.1038C312.406 78.1038 312 79.8918 312 79.9904C312 80.0397 312.044 80.1014 312.121 80.1014C312.219 80.1014 312.23 80.0521 312.274 79.8794C312.538 78.8437 312.955 78.3504 313.383 78.3504C313.482 78.3504 313.668 78.3504 313.668 78.7573C313.668 79.0779 313.547 79.4355 313.383 79.9041C312.845 81.5194 312.845 81.9263 312.845 82.2223C312.845 83.3937 313.591 83.665 314.14 83.665C314.458 83.665 314.853 83.554 315.237 83.0978L315.248 83.1101C315.084 83.8376 314.974 84.3185 314.59 84.9227Z" fill="black"/>
<path d="M327.793 79.5465C327.947 79.5465 328.144 79.5465 328.144 79.3246C328.144 79.0903 327.958 79.0903 327.793 79.0903H321.329C321.176 79.0903 320.978 79.0903 320.978 79.3122C320.978 79.5465 321.165 79.5465 321.329 79.5465H327.793ZM327.793 81.84C327.947 81.84 328.144 81.84 328.144 81.6181C328.144 81.3838 327.958 81.3838 327.793 81.3838H321.329C321.176 81.3838 320.978 81.3838 320.978 81.6057C320.978 81.84 321.165 81.84 321.329 81.84H327.793Z" fill="black"/>
<path d="M336.049 67.2959C336.049 67.0123 336.049 67 335.83 67C335.566 67.3329 335.018 67.7892 333.887 67.7892V68.1468C334.14 68.1468 334.688 68.1468 335.292 67.8262V74.2505C335.292 74.6944 335.259 74.8423 334.293 74.8423H333.953V75.1999C334.249 75.1753 335.314 75.1753 335.676 75.1753C336.038 75.1753 337.092 75.1753 337.388 75.1999V74.8423H337.048C336.082 74.8423 336.049 74.6944 336.049 74.2505V67.2959Z" fill="black"/>
<path d="M338.262 80.2125H332.889V80.7057H338.262V80.2125Z" fill="black"/>
<path d="M336.851 83.9728C336.851 83.7385 336.851 83.6769 336.697 83.6769C336.61 83.6769 336.577 83.6769 336.489 83.8248L333.186 89.5833V89.9409H336.072V91.063C336.072 91.5192 336.05 91.6425 335.249 91.6425H335.029V92.0001C335.282 91.9754 336.149 91.9754 336.456 91.9754C336.763 91.9754 337.641 91.9754 337.894 92.0001V91.6425H337.674C336.884 91.6425 336.851 91.5192 336.851 91.063V89.9409H337.959V89.5833H336.851V83.9728ZM336.127 84.9346V89.5833H333.46L336.127 84.9346Z" fill="black"/>
<path d="M344.561 78.5107C344.21 78.5847 344.078 78.8807 344.078 79.1149C344.078 79.4109 344.287 79.5095 344.44 79.5095C344.77 79.5095 345 79.1889 345 78.856C345 78.3381 344.473 78.1038 344.012 78.1038C343.343 78.1038 342.97 78.8437 342.871 79.0779C342.619 78.1531 341.938 78.1038 341.741 78.1038C340.621 78.1038 340.029 79.7191 340.029 79.9904C340.029 80.0397 340.073 80.1014 340.149 80.1014C340.237 80.1014 340.259 80.0274 340.281 79.9781C340.654 78.6094 341.389 78.3504 341.708 78.3504C342.202 78.3504 342.3 78.8683 342.3 79.1643C342.3 79.4355 342.235 79.7191 342.103 80.311L341.73 82.0003C341.565 82.7402 341.247 83.4184 340.665 83.4184C340.61 83.4184 340.336 83.4184 340.105 83.2581C340.501 83.1717 340.588 82.8018 340.588 82.6539C340.588 82.4072 340.424 82.2593 340.215 82.2593C339.952 82.2593 339.667 82.5182 339.667 82.9128C339.667 83.4307 340.182 83.665 340.654 83.665C341.181 83.665 341.554 83.1964 341.785 82.6908C341.96 83.4184 342.509 83.665 342.915 83.665C344.034 83.665 344.627 82.0496 344.627 81.7784C344.627 81.7167 344.583 81.6674 344.517 81.6674C344.418 81.6674 344.407 81.729 344.375 81.8277C344.078 82.9128 343.442 83.4184 342.948 83.4184C342.564 83.4184 342.355 83.0978 342.355 82.5922C342.355 82.3209 342.399 82.1236 342.575 81.3098L342.959 79.6328C343.123 78.893 343.497 78.3504 344.001 78.3504C344.023 78.3504 344.331 78.3504 344.561 78.5107Z" fill="black"/>
<path d="M329.5 124.5L246.5 124.5" stroke="#B0B0B0" stroke-dasharray="2 2"/>
<path d="M319 105.5L251.5 105.5" stroke="black" stroke-dasharray="2 2"/>
<path d="M249.31 101.727V109H248.429V102.651H248.386L246.611 103.83V102.935L248.429 101.727H249.31Z" fill="black"/>
<path d="M301.251 215.527C300.765 216.211 300.062 216.824 299.18 216.824C298.963 216.824 298.099 216.788 297.829 215.959C297.883 215.977 297.973 215.977 298.009 215.977C298.549 215.977 298.909 215.509 298.909 215.094C298.909 214.68 298.567 214.536 298.297 214.536C298.009 214.536 297.378 214.752 297.378 215.635C297.378 216.553 298.153 217.184 299.18 217.184C300.981 217.184 302.8 215.527 303.304 213.527L305.07 206.503C305.088 206.412 305.124 206.304 305.124 206.196C305.124 205.926 304.907 205.746 304.637 205.746C304.475 205.746 304.097 205.818 303.953 206.358L302.62 211.654C302.53 211.978 302.53 212.014 302.386 212.212C302.025 212.717 301.431 213.329 300.566 213.329C299.558 213.329 299.468 212.339 299.468 211.852C299.468 210.825 299.954 209.439 300.44 208.142C300.639 207.619 300.747 207.367 300.747 207.007C300.747 206.25 300.206 205.566 299.324 205.566C297.666 205.566 297 208.178 297 208.322C297 208.394 297.072 208.484 297.198 208.484C297.36 208.484 297.378 208.412 297.45 208.16C297.883 206.647 298.567 205.926 299.27 205.926C299.432 205.926 299.738 205.926 299.738 206.521C299.738 206.989 299.54 207.511 299.27 208.196C298.387 210.555 298.387 211.15 298.387 211.582C298.387 213.293 299.612 213.689 300.512 213.689C301.035 213.689 301.683 213.527 302.314 212.861L302.332 212.879C302.061 213.942 301.881 214.644 301.251 215.527Z" fill="black"/>
<path d="M320.634 209.366C320.94 209.366 321.264 209.366 321.264 209.006C321.264 208.646 320.94 208.646 320.634 208.646H312.996C313.212 206.232 315.284 204.503 317.824 204.503H320.634C320.94 204.503 321.264 204.503 321.264 204.143C321.264 203.783 320.94 203.783 320.634 203.783H317.788C314.708 203.783 312.258 206.124 312.258 209.006C312.258 211.888 314.708 214.23 317.788 214.23H320.634C320.94 214.23 321.264 214.23 321.264 213.87C321.264 213.509 320.94 213.509 320.634 213.509H317.824C315.284 213.509 313.212 211.78 312.996 209.366H320.634Z" fill="black"/>
<path d="M332.278 218.012V217.346H330.531V200.666H332.278V200H329.864V218.012H332.278Z" fill="black"/>
<path d="M340.743 207.745C340.743 206.25 340.653 204.791 340.005 203.422C339.266 201.927 337.969 201.531 337.087 201.531C336.042 201.531 334.763 202.053 334.097 203.548C333.592 204.683 333.412 205.8 333.412 207.745C333.412 209.493 333.538 210.807 334.187 212.086C334.889 213.455 336.132 213.888 337.069 213.888C338.636 213.888 339.536 212.951 340.059 211.906C340.707 210.555 340.743 208.79 340.743 207.745ZM337.069 213.527C336.492 213.527 335.321 213.203 334.979 211.24C334.781 210.159 334.781 208.79 334.781 207.529C334.781 206.052 334.781 204.719 335.069 203.657C335.375 202.45 336.294 201.891 337.069 201.891C337.753 201.891 338.798 202.306 339.14 203.855C339.374 204.881 339.374 206.304 339.374 207.529C339.374 208.736 339.374 210.105 339.176 211.204C338.834 213.185 337.699 213.527 337.069 213.527Z" fill="black"/>
<path d="M345.005 213.581C345.005 212.537 344.663 211.762 343.924 211.762C343.348 211.762 343.06 212.23 343.06 212.627C343.06 213.023 343.33 213.509 343.942 213.509C344.176 213.509 344.374 213.437 344.537 213.275C344.573 213.239 344.591 213.239 344.609 213.239C344.645 213.239 344.645 213.491 344.645 213.581C344.645 214.176 344.537 215.347 343.492 216.517C343.294 216.734 343.294 216.77 343.294 216.806C343.294 216.896 343.384 216.986 343.474 216.986C343.618 216.986 345.005 215.653 345.005 213.581Z" fill="black"/>
<path d="M354.581 201.963C354.581 201.549 354.581 201.531 354.221 201.531C353.789 202.017 352.888 202.684 351.033 202.684V203.206C351.447 203.206 352.348 203.206 353.338 202.738V212.122C353.338 212.771 353.284 212.987 351.699 212.987H351.141V213.509C351.627 213.473 353.374 213.473 353.969 213.473C354.563 213.473 356.292 213.473 356.779 213.509V212.987H356.22C354.635 212.987 354.581 212.771 354.581 212.122V201.963Z" fill="black"/>
<path d="M361.004 200H358.59V200.666H360.338V217.346H358.59V218.012H361.004V200Z" fill="black"/>
<path d="M303.016 233.432C303.016 233.09 303.016 233 302.764 233C302.62 233 302.566 233 302.422 233.216L297 241.628V242.15H301.737V243.789C301.737 244.456 301.701 244.636 300.386 244.636H300.026V245.158C300.44 245.122 301.863 245.122 302.368 245.122C302.872 245.122 304.313 245.122 304.727 245.158V244.636H304.367C303.07 244.636 303.016 244.456 303.016 243.789V242.15H304.835V241.628H303.016V233.432ZM301.827 234.837V241.628H297.45L301.827 234.837Z" fill="black"/>
<path d="M310.069 247.176C309.583 247.86 308.88 248.473 307.998 248.473C307.782 248.473 306.917 248.437 306.647 247.608C306.701 247.626 306.791 247.626 306.827 247.626C307.367 247.626 307.728 247.158 307.728 246.743C307.728 246.329 307.385 246.185 307.115 246.185C306.827 246.185 306.197 246.401 306.197 247.284C306.197 248.203 306.971 248.833 307.998 248.833C309.799 248.833 311.618 247.176 312.123 245.176L313.888 238.152C313.906 238.061 313.942 237.953 313.942 237.845C313.942 237.575 313.726 237.395 313.456 237.395C313.294 237.395 312.915 237.467 312.771 238.007L311.438 243.303C311.348 243.627 311.348 243.663 311.204 243.862C310.844 244.366 310.249 244.978 309.385 244.978C308.376 244.978 308.286 243.988 308.286 243.501C308.286 242.475 308.772 241.088 309.259 239.791C309.457 239.268 309.565 239.016 309.565 238.656C309.565 237.899 309.025 237.215 308.142 237.215C306.485 237.215 305.818 239.827 305.818 239.971C305.818 240.043 305.89 240.133 306.016 240.133C306.179 240.133 306.197 240.061 306.269 239.809C306.701 238.296 307.385 237.575 308.088 237.575C308.25 237.575 308.556 237.575 308.556 238.17C308.556 238.638 308.358 239.16 308.088 239.845C307.205 242.204 307.205 242.799 307.205 243.231C307.205 244.942 308.43 245.339 309.331 245.339C309.853 245.339 310.502 245.176 311.132 244.51L311.15 244.528C310.88 245.591 310.7 246.293 310.069 247.176Z" fill="black"/>
<path d="M331.74 234.459C331.938 234.369 332.082 234.279 332.082 234.063C332.082 233.865 331.938 233.703 331.722 233.703C331.632 233.703 331.47 233.775 331.398 233.811L321.437 238.512C321.131 238.656 321.077 238.782 321.077 238.926C321.077 239.088 321.185 239.214 321.437 239.322L331.398 244.006C331.632 244.132 331.668 244.132 331.722 244.132C331.92 244.132 332.082 243.97 332.082 243.771C332.082 243.609 332.01 243.501 331.704 243.357L322.283 238.926L331.74 234.459ZM331.452 247.626C331.758 247.626 332.082 247.626 332.082 247.266C332.082 246.906 331.704 246.906 331.434 246.906H321.725C321.455 246.906 321.077 246.906 321.077 247.266C321.077 247.626 321.401 247.626 321.707 247.626H331.452Z" fill="black"/>
<path d="M347.133 237.809C346.556 237.917 346.34 238.35 346.34 238.692C346.34 239.124 346.682 239.268 346.935 239.268C347.475 239.268 347.853 238.8 347.853 238.314C347.853 237.557 346.989 237.215 346.232 237.215C345.133 237.215 344.521 238.296 344.359 238.638C343.944 237.287 342.828 237.215 342.503 237.215C340.666 237.215 339.694 239.575 339.694 239.971C339.694 240.043 339.766 240.133 339.892 240.133C340.036 240.133 340.072 240.025 340.108 239.953C340.72 237.953 341.927 237.575 342.449 237.575C343.26 237.575 343.422 238.332 343.422 238.764C343.422 239.16 343.314 239.575 343.098 240.439L342.485 242.907C342.215 243.988 341.693 244.978 340.738 244.978C340.648 244.978 340.198 244.978 339.82 244.744C340.468 244.618 340.612 244.078 340.612 243.862C340.612 243.501 340.342 243.285 340 243.285C339.567 243.285 339.099 243.663 339.099 244.24C339.099 244.996 339.946 245.339 340.72 245.339C341.585 245.339 342.197 244.654 342.576 243.916C342.864 244.978 343.764 245.339 344.431 245.339C346.268 245.339 347.241 242.979 347.241 242.583C347.241 242.493 347.169 242.421 347.061 242.421C346.899 242.421 346.88 242.511 346.826 242.655C346.34 244.24 345.295 244.978 344.485 244.978C343.854 244.978 343.512 244.51 343.512 243.771C343.512 243.375 343.584 243.087 343.872 241.898L344.503 239.448C344.773 238.368 345.385 237.575 346.214 237.575C346.25 237.575 346.754 237.575 347.133 237.809Z" fill="black"/>
<path d="M365.779 234.459C365.977 234.369 366.121 234.279 366.121 234.063C366.121 233.865 365.977 233.703 365.761 233.703C365.671 233.703 365.508 233.775 365.436 233.811L355.475 238.512C355.169 238.656 355.115 238.782 355.115 238.926C355.115 239.088 355.223 239.214 355.475 239.322L365.436 244.006C365.671 244.132 365.707 244.132 365.761 244.132C365.959 244.132 366.121 243.97 366.121 243.771C366.121 243.609 366.049 243.501 365.743 243.357L356.322 238.926L365.779 234.459ZM365.49 247.626C365.797 247.626 366.121 247.626 366.121 247.266C366.121 246.906 365.743 246.906 365.472 246.906H355.764C355.493 246.906 355.115 246.906 355.115 247.266C355.115 247.626 355.439 247.626 355.746 247.626H365.49Z" fill="black"/>
<path d="M379.136 233.432C379.136 233.09 379.136 233 378.884 233C378.74 233 378.686 233 378.542 233.216L373.12 241.628V242.15H377.857V243.789C377.857 244.456 377.821 244.636 376.506 244.636H376.146V245.158C376.56 245.122 377.983 245.122 378.488 245.122C378.992 245.122 380.433 245.122 380.847 245.158V244.636H380.487C379.19 244.636 379.136 244.456 379.136 243.789V242.15H380.956V241.628H379.136V233.432ZM377.947 234.837V241.628H373.57L377.947 234.837Z" fill="black"/>
</svg>
