<svg width="443" height="325" viewBox="0 0 443 325" fill="none" xmlns="http://www.w3.org/2000/svg">
<path d="M223.354 2.64645C223.158 2.45118 222.842 2.45118 222.646 2.64645L219.464 5.82843C219.269 6.02369 219.269 6.34027 219.464 6.53553C219.66 6.7308 219.976 6.7308 220.172 6.53553L223 3.70711L225.828 6.53553C226.024 6.7308 226.34 6.7308 226.536 6.53553C226.731 6.34027 226.731 6.02369 226.536 5.82843L223.354 2.64645ZM222.5 3V321H223.5V3H222.5Z" fill="black"/>
<path d="M403.354 162.354C403.549 162.158 403.549 161.842 403.354 161.646L400.172 158.464C399.976 158.269 399.66 158.269 399.464 158.464C399.269 158.66 399.269 158.976 399.464 159.172L402.293 162L399.464 164.828C399.269 165.024 399.269 165.34 399.464 165.536C399.66 165.731 399.976 165.731 400.172 165.536L403.354 162.354ZM41 162.5L403 162.5L403 161.5L41 161.5L41 162.5Z" fill="black"/>
<path d="M223 162L106 59" stroke="#FFCCCC"/>
<path d="M225.667 163C225.667 164.473 224.473 165.667 223 165.667C221.527 165.667 220.333 164.473 220.333 163C220.333 161.527 221.527 160.333 223 160.333C224.473 160.333 225.667 161.527 225.667 163ZM222.67 162.625L338.67 60.6245L339.33 61.3755L223.33 163.375L222.67 162.625Z" fill="#FFCCCC"/>
<path d="M62 94H383" stroke="#A6DFFF"/>
<path d="M289.307 65.0455C289.165 65.0455 289.038 65.0336 288.927 65.0099C288.816 64.9886 288.739 64.9673 288.696 64.946L288.909 64.2074C289.113 64.2595 289.293 64.2784 289.449 64.2642C289.605 64.25 289.744 64.1802 289.864 64.0547C289.987 63.9316 290.1 63.7315 290.202 63.4545L290.358 63.0284L288.341 57.5455H289.25L290.756 61.892H290.812L292.318 57.5455H293.227L290.912 63.7955C290.808 64.0772 290.679 64.3104 290.525 64.495C290.371 64.6821 290.192 64.8205 289.989 64.9105C289.787 65.0005 289.56 65.0455 289.307 65.0455ZM294.274 59.4915V58.7244H298.649V59.4915H294.274ZM294.274 61.5938V60.8267H298.649V61.5938H294.274ZM301.746 53.3835V65.3438H301.036V53.3835H301.746ZM304.421 57.5455L305.728 59.7756L307.035 57.5455H308.001L306.24 60.2727L308.001 63H307.035L305.728 60.8835L304.421 63H303.455L305.188 60.2727L303.455 57.5455H304.421ZM310.418 53.3835V65.3438H309.708V53.3835H310.418Z" fill="black"/>
<path d="M300 94V163" stroke="#A6DFFF" stroke-dasharray="2 2"/>
<path d="M146 94V163" stroke="#A6DFFF" stroke-dasharray="2 2"/>
<path d="M301.549 177.422C301.409 177.84 301.409 177.889 301.017 178.356C300.401 179.045 299.17 180.102 297.855 180.102C296.707 180.102 296.064 179.192 296.064 177.742C296.064 176.39 296.931 173.636 297.463 172.604C298.414 170.883 299.73 169.998 300.821 169.998C302.668 169.998 303.032 172.014 303.032 172.211C303.032 172.235 302.948 172.555 302.92 172.604L301.549 177.422ZM303.34 171.129C303.032 170.49 302.276 169.506 300.821 169.506C297.659 169.506 294.245 173.096 294.245 176.734C294.245 179.168 295.868 180.594 297.771 180.594C299.31 180.594 300.625 179.536 301.409 178.725C301.689 180.176 303.004 180.594 303.843 180.594C304.683 180.594 305.355 180.151 305.858 179.266C306.306 178.43 306.698 176.931 306.698 176.832C306.698 176.709 306.586 176.611 306.418 176.611C306.166 176.611 306.138 176.734 306.026 177.103C305.607 178.553 305.075 180.102 303.927 180.102C303.116 180.102 303.06 179.463 303.06 178.971C303.06 178.406 303.144 178.135 303.396 177.176C303.592 176.562 303.732 176.021 303.955 175.308C304.991 171.621 305.243 170.736 305.243 170.588C305.243 170.244 304.935 169.973 304.515 169.973C303.62 169.973 303.396 170.834 303.34 171.129Z" fill="black"/>
<path d="M145.677 174.694C146.153 174.694 146.657 174.694 146.657 174.202C146.657 173.71 146.153 173.71 145.677 173.71H130.537C130.062 173.71 129.558 173.71 129.558 174.202C129.558 174.694 130.062 174.694 130.537 174.694H145.677Z" fill="black"/>
<path d="M157.425 177.422C157.285 177.84 157.285 177.889 156.893 178.356C156.277 179.045 155.046 180.102 153.731 180.102C152.583 180.102 151.94 179.192 151.94 177.742C151.94 176.39 152.807 173.636 153.339 172.604C154.29 170.883 155.606 169.998 156.697 169.998C158.544 169.998 158.908 172.014 158.908 172.211C158.908 172.235 158.824 172.555 158.796 172.604L157.425 177.422ZM159.216 171.129C158.908 170.49 158.152 169.506 156.697 169.506C153.535 169.506 150.121 173.096 150.121 176.734C150.121 179.168 151.744 180.594 153.647 180.594C155.186 180.594 156.501 179.536 157.285 178.725C157.565 180.176 158.88 180.594 159.719 180.594C160.559 180.594 161.231 180.151 161.734 179.266C162.182 178.43 162.574 176.931 162.574 176.832C162.574 176.709 162.462 176.611 162.294 176.611C162.042 176.611 162.014 176.734 161.902 177.103C161.483 178.553 160.951 180.102 159.803 180.102C158.992 180.102 158.936 179.463 158.936 178.971C158.936 178.406 159.02 178.135 159.272 177.176C159.468 176.562 159.608 176.021 159.831 175.308C160.867 171.621 161.119 170.736 161.119 170.588C161.119 170.244 160.811 169.973 160.391 169.973C159.496 169.973 159.272 170.834 159.216 171.129Z" fill="black"/>
</svg>
