<svg width="443" height="325" viewBox="0 0 443 325" fill="none" xmlns="http://www.w3.org/2000/svg">
<path d="M95.7071 28.2929C95.3166 27.9024 94.6834 27.9024 94.2929 28.2929L87.9289 34.6569C87.5384 35.0474 87.5384 35.6805 87.9289 36.0711C88.3195 36.4616 88.9526 36.4616 89.3431 36.0711L95 30.4142L100.657 36.0711C101.047 36.4616 101.681 36.4616 102.071 36.0711C102.462 35.6805 102.462 35.0474 102.071 34.6569L95.7071 28.2929ZM95 276H94V277H95V276ZM364.207 276.707C364.598 276.317 364.598 275.683 364.207 275.293L357.843 268.929C357.453 268.538 356.819 268.538 356.429 268.929C356.038 269.319 356.038 269.953 356.429 270.343L362.086 276L356.429 281.657C356.038 282.047 356.038 282.681 356.429 283.071C356.819 283.462 357.453 283.462 357.843 283.071L364.207 276.707ZM94 29V276H96V29H94ZM95 277H363.5V275H95V277Z" fill="black"/>
<path d="M82.3068 41.0455C82.1648 41.0455 82.0381 41.0336 81.9268 41.0099C81.8156 40.9886 81.7386 40.9673 81.696 40.946L81.9091 40.2074C82.1127 40.2595 82.2926 40.2784 82.4489 40.2642C82.6051 40.25 82.7436 40.1802 82.8643 40.0547C82.9875 39.9316 83.0999 39.7315 83.2017 39.4545L83.358 39.0284L81.3409 33.5455H82.25L83.7557 37.892H83.8125L85.3182 33.5455H86.2273L83.9119 39.7955C83.8078 40.0772 83.6787 40.3104 83.5249 40.495C83.371 40.6821 83.1922 40.8205 82.9886 40.9105C82.7874 41.0005 82.5601 41.0455 82.3068 41.0455Z" fill="black"/>
<path d="M352.392 287.545L353.699 289.776L355.006 287.545H355.972L354.21 290.273L355.972 293H355.006L353.699 290.884L352.392 293H351.426L353.159 290.273L351.426 287.545H352.392Z" fill="black"/>
<path d="M228.5 143C228.5 142.724 228.276 142.5 228 142.5H223.5C223.224 142.5 223 142.724 223 143C223 143.276 223.224 143.5 223.5 143.5H227.5V147.5C227.5 147.776 227.724 148 228 148C228.276 148 228.5 147.776 228.5 147.5V143ZM96.3536 275.354L228.354 143.354L227.646 142.646L95.6464 274.646L96.3536 275.354Z" fill="#FBBDBD"/>
<path d="M171 200.5C171 200.224 170.776 200 170.5 200H166C165.724 200 165.5 200.224 165.5 200.5C165.5 200.776 165.724 201 166 201H170V205C170 205.276 170.224 205.5 170.5 205.5C170.776 205.5 171 205.276 171 205V200.5ZM95.3536 276.354L170.854 200.854L170.146 200.146L94.6464 275.646L95.3536 276.354Z" fill="black"/>
</svg>
