<svg width="279" height="231" viewBox="0 0 279 231" fill="none" xmlns="http://www.w3.org/2000/svg">
<path d="M78.7071 41.2929C78.3166 40.9024 77.6834 40.9024 77.2929 41.2929L70.9289 47.6569C70.5384 48.0474 70.5384 48.6805 70.9289 49.0711C71.3195 49.4616 71.9526 49.4616 72.3431 49.0711L78 43.4142L83.6569 49.0711C84.0474 49.4616 84.6805 49.4616 85.0711 49.0711C85.4616 48.6805 85.4616 48.0474 85.0711 47.6569L78.7071 41.2929ZM78 178H77V179H78V178ZM216.707 178.707C217.098 178.317 217.098 177.683 216.707 177.293L210.343 170.929C209.953 170.538 209.319 170.538 208.929 170.929C208.538 171.319 208.538 171.953 208.929 172.343L214.586 178L208.929 183.657C208.538 184.047 208.538 184.681 208.929 185.071C209.319 185.462 209.953 185.462 210.343 185.071L216.707 178.707ZM77 42V178H79V42H77ZM78 179H216V177H78V179Z" fill="black"/>
<path d="M65.3068 54.0455C65.1648 54.0455 65.0381 54.0336 64.9268 54.0099C64.8156 53.9886 64.7386 53.9673 64.696 53.946L64.9091 53.2074C65.1127 53.2595 65.2926 53.2784 65.4489 53.2642C65.6051 53.25 65.7436 53.1802 65.8643 53.0547C65.9875 52.9316 66.0999 52.7315 66.2017 52.4545L66.358 52.0284L64.3409 46.5455H65.25L66.7557 50.892H66.8125L68.3182 46.5455H69.2273L66.9119 52.7955C66.8078 53.0772 66.6787 53.3104 66.5249 53.495C66.371 53.6821 66.1922 53.8205 65.9886 53.9105C65.7874 54.0005 65.5601 54.0455 65.3068 54.0455Z" fill="black"/>
<path d="M211.392 186.545L212.699 188.776L214.006 186.545H214.972L213.21 189.273L214.972 192H214.006L212.699 189.884L211.392 192H210.426L212.159 189.273L210.426 186.545H211.392Z" fill="black"/>
<path d="M116.833 76.5C116.833 77.9728 118.027 79.1667 119.5 79.1667C120.973 79.1667 122.167 77.9728 122.167 76.5C122.167 75.0272 120.973 73.8333 119.5 73.8333C118.027 73.8333 116.833 75.0272 116.833 76.5ZM152.833 97C152.833 98.4728 154.027 99.6667 155.5 99.6667C156.973 99.6667 158.167 98.4728 158.167 97C158.167 95.5272 156.973 94.3333 155.5 94.3333C154.027 94.3333 152.833 95.5272 152.833 97ZM119.253 76.9345L155.253 97.4345L155.747 96.5655L119.747 76.0655L119.253 76.9345Z" fill="#A6DFFF"/>
<path d="M111.179 76H110.256L112.926 68.7273H113.835L116.506 76H115.582L113.409 69.8778H113.352L111.179 76ZM111.52 73.1591H115.241V73.9403H111.52V73.1591Z" fill="black"/>
<path d="M161.881 101V93.7273H164.423C164.93 93.7273 165.348 93.8149 165.677 93.9901C166.006 94.1629 166.251 94.3961 166.412 94.6896C166.573 94.9808 166.653 95.304 166.653 95.6591C166.653 95.9716 166.598 96.2296 166.487 96.4332C166.378 96.6368 166.233 96.7978 166.053 96.9162C165.876 97.0346 165.683 97.1222 165.474 97.179V97.25C165.697 97.2642 165.921 97.3423 166.146 97.4844C166.371 97.6264 166.559 97.83 166.71 98.0952C166.862 98.3603 166.938 98.6847 166.938 99.0682C166.938 99.4328 166.855 99.7607 166.689 100.052C166.523 100.343 166.262 100.574 165.904 100.744C165.547 100.915 165.081 101 164.509 101H161.881ZM162.761 100.219H164.509C165.084 100.219 165.492 100.107 165.734 99.8849C165.978 99.66 166.099 99.3878 166.099 99.0682C166.099 98.822 166.037 98.5947 165.911 98.3864C165.786 98.1757 165.607 98.0076 165.375 97.8821C165.143 97.7543 164.868 97.6903 164.551 97.6903H162.761V100.219ZM162.761 96.9233H164.395C164.66 96.9233 164.899 96.8712 165.112 96.767C165.328 96.6629 165.498 96.5161 165.624 96.3267C165.751 96.1373 165.815 95.9148 165.815 95.6591C165.815 95.3395 165.704 95.0684 165.482 94.8459C165.259 94.621 164.906 94.5085 164.423 94.5085H162.761V96.9233Z" fill="black"/>
<path d="M74.017 179.364C74.017 180.131 73.8786 180.794 73.6016 181.352C73.3246 181.911 72.9446 182.342 72.4616 182.645C71.9787 182.948 71.4271 183.099 70.8068 183.099C70.1866 183.099 69.6349 182.948 69.152 182.645C68.669 182.342 68.2891 181.911 68.0121 181.352C67.7351 180.794 67.5966 180.131 67.5966 179.364C67.5966 178.597 67.7351 177.934 68.0121 177.375C68.2891 176.816 68.669 176.385 69.152 176.082C69.6349 175.779 70.1866 175.628 70.8068 175.628C71.4271 175.628 71.9787 175.779 72.4616 176.082C72.9446 176.385 73.3246 176.816 73.6016 177.375C73.8786 177.934 74.017 178.597 74.017 179.364ZM73.1648 179.364C73.1648 178.734 73.0594 178.202 72.8487 177.769C72.6404 177.336 72.3575 177.008 72 176.786C71.6449 176.563 71.2472 176.452 70.8068 176.452C70.3665 176.452 69.9676 176.563 69.6101 176.786C69.255 177.008 68.9721 177.336 68.7614 177.769C68.553 178.202 68.4489 178.734 68.4489 179.364C68.4489 179.993 68.553 180.525 68.7614 180.958C68.9721 181.391 69.255 181.719 69.6101 181.942C69.9676 182.164 70.3665 182.276 70.8068 182.276C71.2472 182.276 71.6449 182.164 72 181.942C72.3575 181.719 72.6404 181.391 72.8487 180.958C73.0594 180.525 73.1648 179.993 73.1648 179.364Z" fill="black"/>
<path d="M75.3333 177.5C75.3333 178.973 76.5272 180.167 78 180.167C79.4728 180.167 80.6667 178.973 80.6667 177.5C80.6667 176.027 79.4728 174.833 78 174.833C76.5272 174.833 75.3333 176.027 75.3333 177.5ZM113.833 139C113.833 140.473 115.027 141.667 116.5 141.667C117.973 141.667 119.167 140.473 119.167 139C119.167 137.527 117.973 136.333 116.5 136.333C115.027 136.333 113.833 137.527 113.833 139ZM78.3536 177.854L116.854 139.354L116.146 138.646L77.6464 177.146L78.3536 177.854Z" fill="#FBBDBD"/>
<path d="M126.733 134H125.852C125.8 133.747 125.709 133.524 125.579 133.332C125.451 133.141 125.295 132.98 125.11 132.849C124.928 132.717 124.725 132.617 124.503 132.551C124.28 132.485 124.048 132.452 123.807 132.452C123.366 132.452 122.968 132.563 122.61 132.786C122.255 133.008 121.972 133.336 121.761 133.769C121.553 134.202 121.449 134.734 121.449 135.364C121.449 135.993 121.553 136.525 121.761 136.958C121.972 137.391 122.255 137.719 122.61 137.942C122.968 138.164 123.366 138.276 123.807 138.276C124.048 138.276 124.28 138.242 124.503 138.176C124.725 138.11 124.928 138.012 125.11 137.881C125.295 137.749 125.451 137.587 125.579 137.395C125.709 137.201 125.8 136.978 125.852 136.727H126.733C126.667 137.099 126.546 137.432 126.371 137.725C126.196 138.019 125.978 138.268 125.717 138.474C125.457 138.678 125.165 138.833 124.84 138.94C124.518 139.046 124.174 139.099 123.807 139.099C123.187 139.099 122.635 138.948 122.152 138.645C121.669 138.342 121.289 137.911 121.012 137.352C120.735 136.794 120.597 136.131 120.597 135.364C120.597 134.597 120.735 133.934 121.012 133.375C121.289 132.816 121.669 132.385 122.152 132.082C122.635 131.779 123.187 131.628 123.807 131.628C124.174 131.628 124.518 131.681 124.84 131.788C125.165 131.894 125.457 132.05 125.717 132.256C125.978 132.46 126.196 132.709 126.371 133.002C126.546 133.293 126.667 133.626 126.733 134Z" fill="black"/>
</svg>
