<?xml version="1.0" standalone="no"?>
<!DOCTYPE svg PUBLIC "-//W3C//DTD SVG 1.1//EN"
  "http://www.w3.org/Graphics/SVG/1.1/DTD/svg11.dtd">
<!-- Created with matplotlib (http://matplotlib.sourceforge.net/) -->
<svg width="576pt" height="432pt" viewBox="0 0 576 432"
   xmlns="http://www.w3.org/2000/svg"
   xmlns:xlink="http://www.w3.org/1999/xlink"
   version="1.1"
   id="svg1">
<g id="figure1">
<path style="fill: #ffffff; stroke: #ffffff; stroke-width: 1.0; stroke-linejoin: miter; stroke-linecap: square;  opacity: 1.0"  d="M0.0 432.0L576.0 432.0L576.0 0.0L0.0 0.0L0.0 432.0"/>
<g id="axes1">
<path style="fill: #ffffff; stroke: #000000; stroke-width: 1.0; stroke-linejoin: miter; stroke-linecap: square;  opacity: 1.0"  d="M72.0 388.8L518.4 388.8L518.4 43.2L72.0 43.2L72.0 388.8"/>
<g id="line2d1">
<defs>
  <clipPath id="pdfe8138a4e5f5c14e3df41988c01b1aa">
<rect x="72.0" y="43.2" width="446.4" height="345.6"/>
  </clipPath>
</defs><path style="fill: none; stroke: #0000ff; stroke-width: 1.0; stroke-linejoin: miter; stroke-linecap: square;  opacity: 1.0" clip-path="url(#pdfe8138a4e5f5c14e3df41988c01b1aa)" d="M72.0 216.0L76.464 224.64L80.928 216.0L85.392 207.36L89.856 216.0
L94.32 224.64L98.784 233.28L103.248 241.92L107.712 233.28L112.176 224.64
L116.64 216.0L121.104 207.36L125.568 198.72L130.032 207.36L134.496 216.0
L138.96 207.36L143.424 216.0L147.888 207.36L152.352 198.72L156.816 190.08
L161.28 181.44L165.744 172.8L170.208 164.16L174.672 172.8L179.136 164.16
L183.6 172.8L188.064 164.16L192.528 172.8L196.992 164.16L201.456 172.8
L205.92 164.16L210.384 155.52L214.848 146.88L219.312 155.52L223.776 146.88
L228.24 138.24L232.704 129.6L237.168 138.24L241.632 146.88L246.096 155.52
L250.56 146.88L255.024 138.24L259.488 146.88L263.952 155.52L268.416 146.88
L272.88 138.24L277.344 146.88L281.808 155.52L286.272 146.88L290.736 155.52
L295.2 164.16L299.664 172.8L304.128 164.16L308.592 155.52L313.056 146.88
L317.52 155.52L321.984 164.16L326.448 155.52L330.912 164.16L335.376 172.8
L339.84 181.44L344.304 172.8L348.768 181.44L353.232 190.08L357.696 198.72
L362.16 190.08L366.624 198.72L371.088 207.36L375.552 198.72L380.016 190.08
L384.48 181.44L388.944 172.8L393.408 181.44L397.872 172.8L402.336 164.16
L406.8 155.52L411.264 146.88L415.728 138.24L420.192 129.6L424.656 138.24
L429.12 146.88L433.584 138.24L438.048 146.88L442.512 138.24L446.976 146.88
L451.44 155.52L455.904 146.88L460.368 138.24L464.832 129.6L469.296 120.96
L473.76 129.6L478.224 120.96L482.688 112.32L487.152 103.68L491.616 112.32
L496.08 103.68L500.544 112.32L505.008 120.96L509.472 129.6L513.936 138.24"/>
</g>
<g id="line2d2">
<path style="fill: none; stroke: #008000; stroke-width: 1.0; stroke-linejoin: miter; stroke-linecap: square;  opacity: 1.0" clip-path="url(#pdfe8138a4e5f5c14e3df41988c01b1aa)" d="M72.0 216.0L76.464 224.64L80.928 216.0L85.392 224.64L89.856 233.28
L94.32 224.64L98.784 233.28L103.248 224.64L107.712 233.28L112.176 224.64
L116.64 233.28L121.104 241.92L125.568 250.56L130.032 241.92L134.496 250.56
L138.96 241.92L143.424 250.56L147.888 259.2L152.352 267.84L156.816 276.48
L161.28 285.12L165.744 293.76L170.208 302.4L174.672 311.04L179.136 302.4
L183.6 293.76L188.064 285.12L192.528 293.76L196.992 285.12L201.456 293.76
L205.92 302.4L210.384 311.04L214.848 302.4L219.312 311.04L223.776 319.68
L228.24 311.04L232.704 302.4L237.168 293.76L241.632 302.4L246.096 293.76
L250.56 285.12L255.024 276.48L259.488 267.84L263.952 259.2L268.416 250.56
L272.88 241.92L277.344 250.56L281.808 241.92L286.272 233.28L290.736 224.64
L295.2 233.28L299.664 224.64L304.128 216.0L308.592 207.36L313.056 216.0
L317.52 224.64L321.984 233.28L326.448 241.92L330.912 250.56L335.376 241.92
L339.84 233.28L344.304 241.92L348.768 250.56L353.232 259.2L357.696 267.84
L362.16 276.48L366.624 285.12L371.088 293.76L375.552 302.4L380.016 293.76
L384.48 302.4L388.944 311.04L393.408 319.68L397.872 328.32L402.336 319.68
L406.8 328.32L411.264 319.68L415.728 328.32L420.192 336.96L424.656 345.6
L429.12 354.24L433.584 345.6L438.048 336.96L442.512 328.32L446.976 319.68
L451.44 328.32L455.904 319.68L460.368 328.32L464.832 319.68L469.296 311.04
L473.76 302.4L478.224 311.04L482.688 319.68L487.152 328.32L491.616 319.68
L496.08 311.04L500.544 319.68L505.008 311.04L509.472 302.4L513.936 293.76"/>
</g>
<g id="line2d3">
<path style="fill: none; stroke: #ff0000; stroke-width: 1.0; stroke-linejoin: miter; stroke-linecap: square;  opacity: 1.0" clip-path="url(#pdfe8138a4e5f5c14e3df41988c01b1aa)" d="M72.0 216.0L76.464 207.36L80.928 216.0L85.392 224.64L89.856 216.0
L94.32 224.64L98.784 216.0L103.248 207.36L107.712 198.72L112.176 207.36
L116.64 216.0L121.104 207.36L125.568 216.0L130.032 207.36L134.496 216.0
L138.96 224.64L143.424 216.0L147.888 224.64L152.352 233.28L156.816 241.92
L161.28 250.56L165.744 259.2L170.208 250.56L174.672 241.92L179.136 233.28
L183.6 224.64L188.064 216.0L192.528 207.36L196.992 198.72L201.456 207.36
L205.92 198.72L210.384 207.36L214.848 198.72L219.312 190.08L223.776 181.44
L228.24 190.08L232.704 181.44L237.168 190.08L241.632 181.44L246.096 190.08
L250.56 198.72L255.024 207.36L259.488 198.72L263.952 190.08L268.416 181.44
L272.88 190.08L277.344 198.72L281.808 190.08L286.272 181.44L290.736 190.08
L295.2 181.44L299.664 172.8L304.128 164.16L308.592 155.52L313.056 146.88
L317.52 138.24L321.984 129.6L326.448 120.96L330.912 112.32L335.376 103.68
L339.84 112.32L344.304 103.68L348.768 112.32L353.232 103.68L357.696 112.32
L362.16 103.68L366.624 112.32L371.088 103.68L375.552 112.32L380.016 120.96
L384.48 112.32L388.944 120.96L393.408 129.6L397.872 120.96L402.336 129.6
L406.8 138.24L411.264 146.88L415.728 155.52L420.192 146.88L424.656 138.24
L429.12 129.6L433.584 120.96L438.048 129.6L442.512 138.24L446.976 129.6
L451.44 138.24L455.904 146.88L460.368 155.52L464.832 164.16L469.296 172.8
L473.76 164.16L478.224 155.52L482.688 164.16L487.152 155.52L491.616 146.88
L496.08 155.52L500.544 164.16L505.008 172.8L509.472 181.44L513.936 172.8"/>
</g>
<g id="line2d4">
<path style="fill: none; stroke: #00bfbf; stroke-width: 1.0; stroke-linejoin: miter; stroke-linecap: square;  opacity: 1.0" clip-path="url(#pdfe8138a4e5f5c14e3df41988c01b1aa)" d="M72.0 216.0L76.464 224.64L80.928 216.0L85.392 207.36L89.856 216.0
L94.32 224.64L98.784 216.0L103.248 224.64L107.712 233.28L112.176 224.64
L116.64 233.28L121.104 241.92L125.568 250.56L130.032 241.92L134.496 233.28
L138.96 224.64L143.424 233.28L147.888 224.64L152.352 216.0L156.816 224.64
L161.28 216.0L165.744 207.36L170.208 216.0L174.672 207.36L179.136 216.0
L183.6 224.64L188.064 216.0L192.528 207.36L196.992 198.72L201.456 207.36
L205.92 216.0L210.384 224.64L214.848 216.0L219.312 207.36L223.776 198.72
L228.24 190.08L232.704 181.44L237.168 172.8L241.632 181.44L246.096 190.08
L250.56 181.44L255.024 172.8L259.488 181.44L263.952 172.8L268.416 164.16
L272.88 172.8L277.344 164.16L281.808 155.52L286.272 164.16L290.736 172.8
L295.2 181.44L299.664 172.8L304.128 181.44L308.592 172.8L313.056 164.16
L317.52 172.8L321.984 164.16L326.448 155.52L330.912 146.88L335.376 155.52
L339.84 164.16L344.304 172.8L348.768 164.16L353.232 172.8L357.696 164.16
L362.16 155.52L366.624 164.16L371.088 172.8L375.552 164.16L380.016 172.8
L384.48 181.44L388.944 190.08L393.408 181.44L397.872 172.8L402.336 164.16
L406.8 172.8L411.264 164.16L415.728 172.8L420.192 164.16L424.656 172.8
L429.12 164.16L433.584 172.8L438.048 181.44L442.512 172.8L446.976 181.44
L451.44 172.8L455.904 164.16L460.368 155.52L464.832 164.16L469.296 172.8
L473.76 164.16L478.224 155.52L482.688 146.88L487.152 155.52L491.616 164.16
L496.08 172.8L500.544 181.44L505.008 172.8L509.472 164.16L513.936 155.52"/>
</g>
<g id="line2d5">
<path style="fill: none; stroke: #bf00bf; stroke-width: 1.0; stroke-linejoin: miter; stroke-linecap: square;  opacity: 1.0" clip-path="url(#pdfe8138a4e5f5c14e3df41988c01b1aa)" d="M72.0 216.0L76.464 207.36L80.928 216.0L85.392 224.64L89.856 216.0
L94.32 207.36L98.784 198.72L103.248 207.36L107.712 216.0L112.176 207.36
L116.64 198.72L121.104 190.08L125.568 181.44L130.032 190.08L134.496 198.72
L138.96 190.08L143.424 198.72L147.888 207.36L152.352 198.72L156.816 207.36
L161.28 216.0L165.744 207.36L170.208 198.72L174.672 190.08L179.136 198.72
L183.6 190.08L188.064 198.72L192.528 207.36L196.992 216.0L201.456 224.64
L205.92 233.28L210.384 224.64L214.848 216.0L219.312 207.36L223.776 198.72
L228.24 207.36L232.704 216.0L237.168 224.64L241.632 216.0L246.096 224.64
L250.56 233.28L255.024 241.92L259.488 233.28L263.952 224.64L268.416 233.28
L272.88 224.64L277.344 233.28L281.808 241.92L286.272 233.28L290.736 241.92
L295.2 233.28L299.664 241.92L304.128 250.56L308.592 259.2L313.056 267.84
L317.52 276.48L321.984 267.84L326.448 259.2L330.912 250.56L335.376 259.2
L339.84 267.84L344.304 259.2L348.768 267.84L353.232 276.48L357.696 285.12
L362.16 293.76L366.624 285.12L371.088 276.48L375.552 285.12L380.016 293.76
L384.48 285.12L388.944 293.76L393.408 302.4L397.872 293.76L402.336 285.12
L406.8 276.48L411.264 267.84L415.728 259.2L420.192 250.56L424.656 241.92
L429.12 250.56L433.584 259.2L438.048 267.84L442.512 259.2L446.976 250.56
L451.44 241.92L455.904 233.28L460.368 241.92L464.832 233.28L469.296 241.92
L473.76 233.28L478.224 224.64L482.688 216.0L487.152 224.64L491.616 216.0
L496.08 224.64L500.544 216.0L505.008 207.36L509.472 216.0L513.936 224.64"/>
</g>
<g id="line2d6">
<path style="fill: none; stroke: #bfbf00; stroke-width: 1.0; stroke-linejoin: miter; stroke-linecap: square;  opacity: 1.0" clip-path="url(#pdfe8138a4e5f5c14e3df41988c01b1aa)" d="M72.0 216.0L76.464 224.64L80.928 216.0L85.392 224.64L89.856 216.0
L94.32 207.36L98.784 198.72L103.248 190.08L107.712 181.44L112.176 190.08
L116.64 181.44L121.104 172.8L125.568 164.16L130.032 172.8L134.496 164.16
L138.96 155.52L143.424 164.16L147.888 155.52L152.352 164.16L156.816 172.8
L161.28 181.44L165.744 190.08L170.208 198.72L174.672 207.36L179.136 216.0
L183.6 207.36L188.064 216.0L192.528 207.36L196.992 216.0L201.456 207.36
L205.92 216.0L210.384 207.36L214.848 198.72L219.312 190.08L223.776 181.44
L228.24 172.8L232.704 181.44L237.168 190.08L241.632 198.72L246.096 190.08
L250.56 181.44L255.024 172.8L259.488 164.16L263.952 155.52L268.416 146.88
L272.88 138.24L277.344 129.6L281.808 120.96L286.272 112.32L290.736 103.68
L295.2 112.32L299.664 103.68L304.128 112.32L308.592 120.96L313.056 112.32
L317.52 103.68L321.984 112.32L326.448 120.96L330.912 129.6L335.376 138.24
L339.84 146.88L344.304 138.24L348.768 129.6L353.232 120.96L357.696 112.32
L362.16 103.68L366.624 112.32L371.088 120.96L375.552 112.32L380.016 120.96
L384.48 112.32L388.944 120.96L393.408 112.32L397.872 120.96L402.336 112.32
L406.8 103.68L411.264 112.32L415.728 103.68L420.192 112.32L424.656 103.68
L429.12 95.04L433.584 86.4L438.048 77.76L442.512 69.12L446.976 77.76
L451.44 86.4L455.904 95.04L460.368 86.4L464.832 77.76L469.296 69.12
L473.76 60.48L478.224 69.12L482.688 60.48L487.152 51.84L491.616 60.48
L496.08 69.12L500.544 60.48L505.008 69.12L509.472 77.76L513.936 69.12"/>
</g>
<g id="line2d7">
<path style="fill: none; stroke: #000000; stroke-width: 1.0; stroke-linejoin: miter; stroke-linecap: square;  opacity: 1.0" clip-path="url(#pdfe8138a4e5f5c14e3df41988c01b1aa)" d="M72.0 216.0L76.464 224.64L80.928 233.28L85.392 224.64L89.856 233.28
L94.32 241.92L98.784 250.56L103.248 241.92L107.712 250.56L112.176 241.92
L116.64 250.56L121.104 259.2L125.568 267.84L130.032 276.48L134.496 285.12
L138.96 276.48L143.424 285.12L147.888 276.48L152.352 285.12L156.816 293.76
L161.28 285.12L165.744 293.76L170.208 302.4L174.672 293.76L179.136 285.12
L183.6 293.76L188.064 302.4L192.528 293.76L196.992 302.4L201.456 293.76
L205.92 302.4L210.384 311.04L214.848 319.68L219.312 311.04L223.776 319.68
L228.24 311.04L232.704 319.68L237.168 311.04L241.632 302.4L246.096 293.76
L250.56 302.4L255.024 293.76L259.488 302.4L263.952 293.76L268.416 285.12
L272.88 276.48L277.344 285.12L281.808 293.76L286.272 302.4L290.736 311.04
L295.2 302.4L299.664 311.04L304.128 302.4L308.592 293.76L313.056 302.4
L317.52 311.04L321.984 319.68L326.448 311.04L330.912 302.4L335.376 311.04
L339.84 319.68L344.304 328.32L348.768 336.96L353.232 328.32L357.696 336.96
L362.16 328.32L366.624 336.96L371.088 328.32L375.552 319.68L380.016 328.32
L384.48 319.68L388.944 328.32L393.408 319.68L397.872 328.32L402.336 336.96
L406.8 345.6L411.264 336.96L415.728 328.32L420.192 319.68L424.656 311.04
L429.12 302.4L433.584 311.04L438.048 319.68L442.512 328.32L446.976 336.96
L451.44 345.6L455.904 354.24L460.368 362.88L464.832 354.24L469.296 362.88
L473.76 371.52L478.224 380.16L482.688 371.52L487.152 362.88L491.616 371.52
L496.08 380.16L500.544 371.52L505.008 380.16L509.472 371.52L513.936 380.16"/>
</g>
<g id="line2d8">
<path style="fill: none; stroke: #0000ff; stroke-width: 1.0; stroke-linejoin: miter; stroke-linecap: square;  opacity: 1.0" clip-path="url(#pdfe8138a4e5f5c14e3df41988c01b1aa)" d="M72.0 216.0L76.464 207.36L80.928 216.0L85.392 224.64L89.856 233.28
L94.32 224.64L98.784 233.28L103.248 241.92L107.712 233.28L112.176 224.64
L116.64 216.0L121.104 224.64L125.568 216.0L130.032 224.64L134.496 233.28
L138.96 241.92L143.424 233.28L147.888 241.92L152.352 233.28L156.816 241.92
L161.28 233.28L165.744 224.64L170.208 233.28L174.672 241.92L179.136 250.56
L183.6 259.2L188.064 250.56L192.528 259.2L196.992 250.56L201.456 259.2
L205.92 267.84L210.384 259.2L214.848 267.84L219.312 276.48L223.776 267.84
L228.24 259.2L232.704 267.84L237.168 276.48L241.632 267.84L246.096 259.2
L250.56 250.56L255.024 241.92L259.488 233.28L263.952 241.92L268.416 233.28
L272.88 241.92L277.344 233.28L281.808 241.92L286.272 233.28L290.736 241.92
L295.2 250.56L299.664 241.92L304.128 250.56L308.592 241.92L313.056 233.28
L317.52 224.64L321.984 233.28L326.448 241.92L330.912 250.56L335.376 259.2
L339.84 267.84L344.304 276.48L348.768 285.12L353.232 293.76L357.696 302.4
L362.16 311.04L366.624 302.4L371.088 293.76L375.552 302.4L380.016 311.04
L384.48 319.68L388.944 328.32L393.408 319.68L397.872 328.32L402.336 336.96
L406.8 328.32L411.264 319.68L415.728 311.04L420.192 319.68L424.656 311.04
L429.12 319.68L433.584 328.32L438.048 336.96L442.512 328.32L446.976 319.68
L451.44 311.04L455.904 302.4L460.368 311.04L464.832 319.68L469.296 311.04
L473.76 302.4L478.224 293.76L482.688 302.4L487.152 311.04L491.616 302.4
L496.08 293.76L500.544 302.4L505.008 293.76L509.472 285.12L513.936 276.48"/>
</g>
<g id="matplotlib.axis1">
<g id="xtick1">
<g id="line2d9">
<defs><path id="mffffbd93ab9c4a8848ec339ada90541e" d="M0.0 0.0L0.0 -4.0"/></defs>
<g ><use style="fill: none; stroke: #000000; stroke-width: 0.5; stroke-linejoin: miter; stroke-linecap: butt;  opacity: 1.0" xlink:href="#mffffbd93ab9c4a8848ec339ada90541e" x="72.000000" y="388.800000"/>
</g></g>
<g id="line2d10">
<defs><path id="m55446021c8a568fc6cf5567925c8a1ef" d="M0.0 0.0L0.0 4.0"/></defs>
<g ><use style="fill: none; stroke: #000000; stroke-width: 0.5; stroke-linejoin: miter; stroke-linecap: butt;  opacity: 1.0" xlink:href="#m55446021c8a568fc6cf5567925c8a1ef" x="72.000000" y="43.200000"/>
</g></g>
<defs>
<path id="c_95f14088edd5858aea2c3b4aa58e4de2" d="M31.78125 -66.40625q-7.609375 0.0 -11.453125 7.5q-3.828125 7.484375 -3.828125 22.53125q0.0 14.984375 3.828125 22.484375q3.84375 7.5 11.453125 7.5q7.671875 0.0 11.5 -7.5q3.84375 -7.5 3.84375 -22.484375q0.0 -15.046875 -3.84375 -22.53125q-3.828125 -7.5 -11.5 -7.5M31.78125 -74.21875q12.265625 0.0 18.734375 9.703125q6.46875 9.6875 6.46875 28.140625q0.0 18.40625 -6.46875 28.109375q-6.46875 9.6875 -18.734375 9.6875q-12.25 0.0 -18.71875 -9.6875q-6.46875 -9.703125 -6.46875 -28.109375q0.0 -18.453125 6.46875 -28.140625q6.46875 -9.703125 18.71875 -9.703125"/>
</defs>
<g style="fill: #000000; opacity: 1.0" transform="translate(68.9765625,401.70625)scale(0.12)">
<use xlink:href="#c_95f14088edd5858aea2c3b4aa58e4de2"/>
</g>
</g>
<g id="xtick2">
<g id="line2d11">
<g ><use style="fill: none; stroke: #000000; stroke-width: 0.5; stroke-linejoin: miter; stroke-linecap: butt;  opacity: 1.0" xlink:href="#mffffbd93ab9c4a8848ec339ada90541e" x="161.280000" y="388.800000"/>
</g></g>
<g id="line2d12">
<g ><use style="fill: none; stroke: #000000; stroke-width: 0.5; stroke-linejoin: miter; stroke-linecap: butt;  opacity: 1.0" xlink:href="#m55446021c8a568fc6cf5567925c8a1ef" x="161.280000" y="43.200000"/>
</g></g>
<defs>
<path id="c_eaed548a39c8bfc1ad9c7a767102867e" d="M19.1875 -8.296875l34.421875 0.0l0.0 8.296875l-46.28125 0.0l0.0 -8.296875q5.609375 -5.8125 15.296875 -15.59375q9.703125 -9.796875 12.1875 -12.640625q4.734375 -5.3125 6.609375 -9.0q1.890625 -3.6875 1.890625 -7.25q0.0 -5.8125 -4.078125 -9.46875q-4.078125 -3.671875 -10.625 -3.671875q-4.640625 0.0 -9.796875 1.609375q-5.140625 1.609375 -11.0 4.890625l0.0 -9.96875q5.953125 -2.390625 11.125 -3.609375q5.1875 -1.21875 9.484375 -1.21875q11.328125 0.0 18.0625 5.671875q6.734375 5.65625 6.734375 15.125q0.0 4.5 -1.6875 8.53125q-1.671875 4.015625 -6.125 9.484375q-1.21875 1.421875 -7.765625 8.1875q-6.53125 6.765625 -18.453125 18.921875"/>
</defs>
<g style="fill: #000000; opacity: 1.0" transform="translate(154.4753125,401.70625)scale(0.12)">
<use xlink:href="#c_eaed548a39c8bfc1ad9c7a767102867e"/>
<use xlink:href="#c_95f14088edd5858aea2c3b4aa58e4de2" x="63.623046875"/>
</g>
</g>
<g id="xtick3">
<g id="line2d13">
<g ><use style="fill: none; stroke: #000000; stroke-width: 0.5; stroke-linejoin: miter; stroke-linecap: butt;  opacity: 1.0" xlink:href="#mffffbd93ab9c4a8848ec339ada90541e" x="250.560000" y="388.800000"/>
</g></g>
<g id="line2d14">
<g ><use style="fill: none; stroke: #000000; stroke-width: 0.5; stroke-linejoin: miter; stroke-linecap: butt;  opacity: 1.0" xlink:href="#m55446021c8a568fc6cf5567925c8a1ef" x="250.560000" y="43.200000"/>
</g></g>
<defs>
<path id="c_47a349c5fab6f63bcee0b405ba445c6f" d="M37.796875 -64.3125l-24.90625 38.921875l24.90625 0.0zM35.203125 -72.90625l12.40625 0.0l0.0 47.515625l10.40625 0.0l0.0 8.203125l-10.40625 0.0l0.0 17.1875l-9.8125 0.0l0.0 -17.1875l-32.90625 0.0l0.0 -9.515625z"/>
</defs>
<g style="fill: #000000; opacity: 1.0" transform="translate(243.6146875,401.70625)scale(0.12)">
<use xlink:href="#c_47a349c5fab6f63bcee0b405ba445c6f"/>
<use xlink:href="#c_95f14088edd5858aea2c3b4aa58e4de2" x="63.623046875"/>
</g>
</g>
<g id="xtick4">
<g id="line2d15">
<g ><use style="fill: none; stroke: #000000; stroke-width: 0.5; stroke-linejoin: miter; stroke-linecap: butt;  opacity: 1.0" xlink:href="#mffffbd93ab9c4a8848ec339ada90541e" x="339.840000" y="388.800000"/>
</g></g>
<g id="line2d16">
<g ><use style="fill: none; stroke: #000000; stroke-width: 0.5; stroke-linejoin: miter; stroke-linecap: butt;  opacity: 1.0" xlink:href="#m55446021c8a568fc6cf5567925c8a1ef" x="339.840000" y="43.200000"/>
</g></g>
<defs>
<path id="c_b3a8b59ce25d33f84315ee39f6514694" d="M33.015625 -40.375q-6.640625 0.0 -10.53125 4.546875q-3.875 4.53125 -3.875 12.4375q0.0 7.859375 3.875 12.4375q3.890625 4.5625 10.53125 4.5625q6.640625 0.0 10.515625 -4.5625q3.875 -4.578125 3.875 -12.4375q0.0 -7.90625 -3.875 -12.4375q-3.875 -4.546875 -10.515625 -4.546875M52.59375 -71.296875l0.0 8.984375q-3.71875 -1.75 -7.5 -2.671875q-3.78125 -0.9375 -7.5 -0.9375q-9.765625 0.0 -14.921875 6.59375q-5.140625 6.59375 -5.875 19.921875q2.875 -4.25 7.21875 -6.515625q4.359375 -2.265625 9.578125 -2.265625q10.984375 0.0 17.359375 6.671875q6.375 6.65625 6.375 18.125q0.0 11.234375 -6.640625 18.03125q-6.640625 6.78125 -17.671875 6.78125q-12.65625 0.0 -19.34375 -9.6875q-6.6875 -9.703125 -6.6875 -28.109375q0.0 -17.28125 8.203125 -27.5625q8.203125 -10.28125 22.015625 -10.28125q3.71875 0.0 7.5 0.734375q3.78125 0.734375 7.890625 2.1875"/>
</defs>
<g style="fill: #000000; opacity: 1.0" transform="translate(333.0196875,401.70625)scale(0.12)">
<use xlink:href="#c_b3a8b59ce25d33f84315ee39f6514694"/>
<use xlink:href="#c_95f14088edd5858aea2c3b4aa58e4de2" x="63.623046875"/>
</g>
</g>
<g id="xtick5">
<g id="line2d17">
<g ><use style="fill: none; stroke: #000000; stroke-width: 0.5; stroke-linejoin: miter; stroke-linecap: butt;  opacity: 1.0" xlink:href="#mffffbd93ab9c4a8848ec339ada90541e" x="429.120000" y="388.800000"/>
</g></g>
<g id="line2d18">
<g ><use style="fill: none; stroke: #000000; stroke-width: 0.5; stroke-linejoin: miter; stroke-linecap: butt;  opacity: 1.0" xlink:href="#m55446021c8a568fc6cf5567925c8a1ef" x="429.120000" y="43.200000"/>
</g></g>
<defs>
<path id="c_0f8aa7a3642d7cc7afc284b770f4c32d" d="M31.78125 -34.625q-7.03125 0.0 -11.0625 3.765625q-4.015625 3.765625 -4.015625 10.34375q0.0 6.59375 4.015625 10.359375q4.03125 3.765625 11.0625 3.765625q7.03125 0.0 11.078125 -3.78125q4.0625 -3.796875 4.0625 -10.34375q0.0 -6.578125 -4.03125 -10.34375q-4.015625 -3.765625 -11.109375 -3.765625M21.921875 -38.8125q-6.34375 -1.5625 -9.890625 -5.90625q-3.53125 -4.359375 -3.53125 -10.609375q0.0 -8.734375 6.21875 -13.8125q6.234375 -5.078125 17.0625 -5.078125q10.890625 0.0 17.09375 5.078125q6.203125 5.078125 6.203125 13.8125q0.0 6.25 -3.546875 10.609375q-3.53125 4.34375 -9.828125 5.90625q7.125 1.65625 11.09375 6.5q3.984375 4.828125 3.984375 11.796875q0.0 10.609375 -6.46875 16.28125q-6.46875 5.65625 -18.53125 5.65625q-12.046875 0.0 -18.53125 -5.65625q-6.46875 -5.671875 -6.46875 -16.28125q0.0 -6.96875 4.0 -11.796875q4.015625 -4.84375 11.140625 -6.5M18.3125 -54.390625q0.0 5.65625 3.53125 8.828125q3.546875 3.171875 9.9375 3.171875q6.359375 0.0 9.9375 -3.171875q3.59375 -3.171875 3.59375 -8.828125q0.0 -5.671875 -3.59375 -8.84375q-3.578125 -3.171875 -9.9375 -3.171875q-6.390625 0.0 -9.9375 3.171875q-3.53125 3.171875 -3.53125 8.84375"/>
</defs>
<g style="fill: #000000; opacity: 1.0" transform="translate(422.2840625,401.70625)scale(0.12)">
<use xlink:href="#c_0f8aa7a3642d7cc7afc284b770f4c32d"/>
<use xlink:href="#c_95f14088edd5858aea2c3b4aa58e4de2" x="63.623046875"/>
</g>
</g>
<g id="xtick6">
<g id="line2d19">
<g ><use style="fill: none; stroke: #000000; stroke-width: 0.5; stroke-linejoin: miter; stroke-linecap: butt;  opacity: 1.0" xlink:href="#mffffbd93ab9c4a8848ec339ada90541e" x="518.400000" y="388.800000"/>
</g></g>
<g id="line2d20">
<g ><use style="fill: none; stroke: #000000; stroke-width: 0.5; stroke-linejoin: miter; stroke-linecap: butt;  opacity: 1.0" xlink:href="#m55446021c8a568fc6cf5567925c8a1ef" x="518.400000" y="43.200000"/>
</g></g>
<defs>
<path id="c_2322e4f977aa11305e2465866d88750f" d="M12.40625 -8.296875l16.109375 0.0l0.0 -55.625l-17.53125 3.515625l0.0 -8.984375l17.4375 -3.515625l9.859375 0.0l0.0 64.609375l16.109375 0.0l0.0 8.296875l-41.984375 0.0z"/>
</defs>
<g style="fill: #000000; opacity: 1.0" transform="translate(507.99375,401.70625)scale(0.12)">
<use xlink:href="#c_2322e4f977aa11305e2465866d88750f"/>
<use xlink:href="#c_95f14088edd5858aea2c3b4aa58e4de2" x="63.623046875"/>
<use xlink:href="#c_95f14088edd5858aea2c3b4aa58e4de2" x="127.24609375"/>
</g>
</g>
<defs>
<path id="c_7719cac8f98cf2bca3e99fb2bb21e785" d="M18.3125 -70.21875l0.0 15.53125l18.5 0.0l0.0 6.984375l-18.5 0.0l0.0 29.6875q0.0 6.6875 1.828125 8.59375q1.828125 1.90625 7.453125 1.90625l9.21875 0.0l0.0 7.515625l-9.21875 0.0q-10.40625 0.0 -14.359375 -3.875q-3.953125 -3.890625 -3.953125 -14.140625l0.0 -29.6875l-6.59375 0.0l0.0 -6.984375l6.59375 0.0l0.0 -15.53125z"/>
</defs>
<g style="fill: #000000; opacity: 1.0" transform="translate(293.153125,415.3)scale(0.12)">
<use xlink:href="#c_7719cac8f98cf2bca3e99fb2bb21e785"/>
</g>
</g>
<g id="matplotlib.axis2">
<g id="ytick1">
<g id="line2d21">
<defs><path id="m2d700b5b5d738bf2751cd81726959973" d="M0.0 0.0L4.0 0.0"/></defs>
<g ><use style="fill: none; stroke: #000000; stroke-width: 0.5; stroke-linejoin: miter; stroke-linecap: butt;  opacity: 1.0" xlink:href="#m2d700b5b5d738bf2751cd81726959973" x="72.000000" y="388.800000"/>
</g></g>
<g id="line2d22">
<defs><path id="mb380ebd9df8a07a3be12f7447ef9bdd8" d="M0.0 0.0L-4.0 0.0"/></defs>
<g ><use style="fill: none; stroke: #000000; stroke-width: 0.5; stroke-linejoin: miter; stroke-linecap: butt;  opacity: 1.0" xlink:href="#mb380ebd9df8a07a3be12f7447ef9bdd8" x="518.400000" y="388.800000"/>
</g></g>
<defs>
<path id="c_139293c3576e2a5eaff9a02b9ab719e6" d="M10.59375 -35.5l62.59375 0.0l0.0 8.296875l-62.59375 0.0z"/>
</defs>
<g style="fill: #000000; opacity: 1.0" transform="translate(44.71875,393.1671875)scale(0.12)">
<use xlink:href="#c_139293c3576e2a5eaff9a02b9ab719e6"/>
<use xlink:href="#c_eaed548a39c8bfc1ad9c7a767102867e" x="83.7890625"/>
<use xlink:href="#c_95f14088edd5858aea2c3b4aa58e4de2" x="147.412109375"/>
</g>
</g>
<g id="ytick2">
<g id="line2d23">
<g ><use style="fill: none; stroke: #000000; stroke-width: 0.5; stroke-linejoin: miter; stroke-linecap: butt;  opacity: 1.0" xlink:href="#m2d700b5b5d738bf2751cd81726959973" x="72.000000" y="345.600000"/>
</g></g>
<g id="line2d24">
<g ><use style="fill: none; stroke: #000000; stroke-width: 0.5; stroke-linejoin: miter; stroke-linecap: butt;  opacity: 1.0" xlink:href="#mb380ebd9df8a07a3be12f7447ef9bdd8" x="518.400000" y="345.600000"/>
</g></g>
<defs>
<path id="c_2f869442ca5f4cfa589132f61f547ba5" d="M10.796875 -72.90625l38.71875 0.0l0.0 8.3125l-29.6875 0.0l0.0 17.859375q2.140625 -0.734375 4.28125 -1.09375q2.15625 -0.359375 4.3125 -0.359375q12.203125 0.0 19.328125 6.6875q7.140625 6.6875 7.140625 18.109375q0.0 11.765625 -7.328125 18.296875q-7.328125 6.515625 -20.65625 6.515625q-4.59375 0.0 -9.359375 -0.78125q-4.75 -0.78125 -9.828125 -2.34375l0.0 -9.921875q4.390625 2.390625 9.078125 3.5625q4.6875 1.171875 9.90625 1.171875q8.453125 0.0 13.375 -4.4375q4.9375 -4.4375 4.9375 -12.0625q0.0 -7.609375 -4.9375 -12.046875q-4.921875 -4.453125 -13.375 -4.453125q-3.953125 0.0 -7.890625 0.875q-3.921875 0.875 -8.015625 2.734375z"/>
</defs>
<g style="fill: #000000; opacity: 1.0" transform="translate(44.96875,349.8890625)scale(0.12)">
<use xlink:href="#c_139293c3576e2a5eaff9a02b9ab719e6"/>
<use xlink:href="#c_2322e4f977aa11305e2465866d88750f" x="83.7890625"/>
<use xlink:href="#c_2f869442ca5f4cfa589132f61f547ba5" x="147.412109375"/>
</g>
</g>
<g id="ytick3">
<g id="line2d25">
<g ><use style="fill: none; stroke: #000000; stroke-width: 0.5; stroke-linejoin: miter; stroke-linecap: butt;  opacity: 1.0" xlink:href="#m2d700b5b5d738bf2751cd81726959973" x="72.000000" y="302.400000"/>
</g></g>
<g id="line2d26">
<g ><use style="fill: none; stroke: #000000; stroke-width: 0.5; stroke-linejoin: miter; stroke-linecap: butt;  opacity: 1.0" xlink:href="#mb380ebd9df8a07a3be12f7447ef9bdd8" x="518.400000" y="302.400000"/>
</g></g>
<g style="fill: #000000; opacity: 1.0" transform="translate(44.71875,306.7671875)scale(0.12)">
<use xlink:href="#c_139293c3576e2a5eaff9a02b9ab719e6"/>
<use xlink:href="#c_2322e4f977aa11305e2465866d88750f" x="83.7890625"/>
<use xlink:href="#c_95f14088edd5858aea2c3b4aa58e4de2" x="147.412109375"/>
</g>
</g>
<g id="ytick4">
<g id="line2d27">
<g ><use style="fill: none; stroke: #000000; stroke-width: 0.5; stroke-linejoin: miter; stroke-linecap: butt;  opacity: 1.0" xlink:href="#m2d700b5b5d738bf2751cd81726959973" x="72.000000" y="259.200000"/>
</g></g>
<g id="line2d28">
<g ><use style="fill: none; stroke: #000000; stroke-width: 0.5; stroke-linejoin: miter; stroke-linecap: butt;  opacity: 1.0" xlink:href="#mb380ebd9df8a07a3be12f7447ef9bdd8" x="518.400000" y="259.200000"/>
</g></g>
<g style="fill: #000000; opacity: 1.0" transform="translate(52.609375,263.4890625)scale(0.12)">
<use xlink:href="#c_139293c3576e2a5eaff9a02b9ab719e6"/>
<use xlink:href="#c_2f869442ca5f4cfa589132f61f547ba5" x="83.7890625"/>
</g>
</g>
<g id="ytick5">
<g id="line2d29">
<g ><use style="fill: none; stroke: #000000; stroke-width: 0.5; stroke-linejoin: miter; stroke-linecap: butt;  opacity: 1.0" xlink:href="#m2d700b5b5d738bf2751cd81726959973" x="72.000000" y="216.000000"/>
</g></g>
<g id="line2d30">
<g ><use style="fill: none; stroke: #000000; stroke-width: 0.5; stroke-linejoin: miter; stroke-linecap: butt;  opacity: 1.0" xlink:href="#mb380ebd9df8a07a3be12f7447ef9bdd8" x="518.400000" y="216.000000"/>
</g></g>
<g style="fill: #000000; opacity: 1.0" transform="translate(61.953125,220.3671875)scale(0.12)">
<use xlink:href="#c_95f14088edd5858aea2c3b4aa58e4de2"/>
</g>
</g>
<g id="ytick6">
<g id="line2d31">
<g ><use style="fill: none; stroke: #000000; stroke-width: 0.5; stroke-linejoin: miter; stroke-linecap: butt;  opacity: 1.0" xlink:href="#m2d700b5b5d738bf2751cd81726959973" x="72.000000" y="172.800000"/>
</g></g>
<g id="line2d32">
<g ><use style="fill: none; stroke: #000000; stroke-width: 0.5; stroke-linejoin: miter; stroke-linecap: butt;  opacity: 1.0" xlink:href="#mb380ebd9df8a07a3be12f7447ef9bdd8" x="518.400000" y="172.800000"/>
</g></g>
<g style="fill: #000000; opacity: 1.0" transform="translate(62.328125,177.0890625)scale(0.12)">
<use xlink:href="#c_2f869442ca5f4cfa589132f61f547ba5"/>
</g>
</g>
<g id="ytick7">
<g id="line2d33">
<g ><use style="fill: none; stroke: #000000; stroke-width: 0.5; stroke-linejoin: miter; stroke-linecap: butt;  opacity: 1.0" xlink:href="#m2d700b5b5d738bf2751cd81726959973" x="72.000000" y="129.600000"/>
</g></g>
<g id="line2d34">
<g ><use style="fill: none; stroke: #000000; stroke-width: 0.5; stroke-linejoin: miter; stroke-linecap: butt;  opacity: 1.0" xlink:href="#mb380ebd9df8a07a3be12f7447ef9bdd8" x="518.400000" y="129.600000"/>
</g></g>
<g style="fill: #000000; opacity: 1.0" transform="translate(54.828125,133.9671875)scale(0.12)">
<use xlink:href="#c_2322e4f977aa11305e2465866d88750f"/>
<use xlink:href="#c_95f14088edd5858aea2c3b4aa58e4de2" x="63.623046875"/>
</g>
</g>
<g id="ytick8">
<g id="line2d35">
<g ><use style="fill: none; stroke: #000000; stroke-width: 0.5; stroke-linejoin: miter; stroke-linecap: butt;  opacity: 1.0" xlink:href="#m2d700b5b5d738bf2751cd81726959973" x="72.000000" y="86.400000"/>
</g></g>
<g id="line2d36">
<g ><use style="fill: none; stroke: #000000; stroke-width: 0.5; stroke-linejoin: miter; stroke-linecap: butt;  opacity: 1.0" xlink:href="#mb380ebd9df8a07a3be12f7447ef9bdd8" x="518.400000" y="86.400000"/>
</g></g>
<g style="fill: #000000; opacity: 1.0" transform="translate(55.078125,90.6890625)scale(0.12)">
<use xlink:href="#c_2322e4f977aa11305e2465866d88750f"/>
<use xlink:href="#c_2f869442ca5f4cfa589132f61f547ba5" x="63.623046875"/>
</g>
</g>
<g id="ytick9">
<g id="line2d37">
<g ><use style="fill: none; stroke: #000000; stroke-width: 0.5; stroke-linejoin: miter; stroke-linecap: butt;  opacity: 1.0" xlink:href="#m2d700b5b5d738bf2751cd81726959973" x="72.000000" y="43.200000"/>
</g></g>
<g id="line2d38">
<g ><use style="fill: none; stroke: #000000; stroke-width: 0.5; stroke-linejoin: miter; stroke-linecap: butt;  opacity: 1.0" xlink:href="#mb380ebd9df8a07a3be12f7447ef9bdd8" x="518.400000" y="43.200000"/>
</g></g>
<g style="fill: #000000; opacity: 1.0" transform="translate(54.390625,47.5671875)scale(0.12)">
<use xlink:href="#c_eaed548a39c8bfc1ad9c7a767102867e"/>
<use xlink:href="#c_95f14088edd5858aea2c3b4aa58e4de2" x="63.623046875"/>
</g>
</g>
</g>
<path style="fill: none; stroke: #000000; stroke-width: 1.0; stroke-linejoin: miter; stroke-linecap: square;  opacity: 1.0"  d="M72.0 388.8L518.4 388.8L518.4 43.2L72.0 43.2L72.0 388.8"/>
</g>
</g>
</svg>
