<svg version="1.1" xmlns="http://www.w3.org/2000/svg" viewBox="0 0 725.8805713094879 207.69224912500124" width="725.8805713094879" height="207.69224912500124" class="excalidraw-svg">
  <!-- svg-source:excalidraw -->
  
  <defs>
    <style class="style-fonts">
      @font-face {
        font-family: "Virgil";
        src: url("https://excalidraw.com/Virgil.woff2");
      }
      @font-face {
        font-family: "Cascadia";
        src: url("https://excalidraw.com/Cascadia.woff2");
      }
      @font-face {
        font-family: "Assistant";
        src: url("https://excalidraw.com/Assistant-Regular.woff2");
      }
    </style>
    
  </defs>
  <g stroke-linecap="round" transform="translate(379.63260926744465 40.599364478447) rotate(0 23.840042114257812 24.5)"><path d="M47.68 24.5 C47.68 25.92, 47.56 27.36, 47.32 28.75 C47.08 30.15, 46.71 31.55, 46.24 32.88 C45.77 34.21, 45.18 35.52, 44.49 36.75 C43.8 37.98, 42.99 39.16, 42.1 40.25 C41.22 41.33, 40.22 42.36, 39.16 43.27 C38.11 44.18, 36.96 45.01, 35.76 45.72 C34.57 46.43, 33.29 47.04, 31.99 47.52 C30.7 48.01, 29.34 48.38, 27.98 48.63 C26.62 48.87, 25.22 49, 23.84 49 C22.46 49, 21.06 48.87, 19.7 48.63 C18.34 48.38, 16.98 48.01, 15.69 47.52 C14.39 47.04, 13.12 46.43, 11.92 45.72 C10.72 45.01, 9.57 44.18, 8.52 43.27 C7.46 42.36, 6.46 41.33, 5.58 40.25 C4.69 39.16, 3.88 37.98, 3.19 36.75 C2.5 35.52, 1.91 34.21, 1.44 32.88 C0.97 31.55, 0.6 30.15, 0.36 28.75 C0.12 27.36, 0 25.92, 0 24.5 C0 23.08, 0.12 21.64, 0.36 20.25 C0.6 18.85, 0.97 17.45, 1.44 16.12 C1.91 14.79, 2.5 13.48, 3.19 12.25 C3.88 11.02, 4.69 9.84, 5.58 8.75 C6.46 7.67, 7.46 6.64, 8.52 5.73 C9.57 4.82, 10.72 3.99, 11.92 3.28 C13.12 2.57, 14.39 1.96, 15.69 1.48 C16.98 0.99, 18.34 0.62, 19.7 0.37 C21.06 0.13, 22.46 0, 23.84 0 C25.22 0, 26.62 0.13, 27.98 0.37 C29.34 0.62, 30.7 0.99, 31.99 1.48 C33.29 1.96, 34.57 2.57, 35.76 3.28 C36.96 3.99, 38.11 4.82, 39.16 5.73 C40.22 6.64, 41.22 7.67, 42.1 8.75 C42.99 9.84, 43.8 11.02, 44.49 12.25 C45.18 13.48, 45.77 14.79, 46.24 16.12 C46.71 17.45, 47.08 18.85, 47.32 20.25 C47.56 21.64, 47.62 23.79, 47.68 24.5 C47.74 25.21, 47.74 23.79, 47.68 24.5" stroke="#1e1e1e" stroke-width="2" fill="none"/></g><g stroke-linecap="round" transform="translate(316.3118868110239 106.44212957096522) rotate(0 23.840042114257812 24.5)"><path d="M47.68 24.5 C47.68 25.92, 47.56 27.36, 47.32 28.75 C47.08 30.15, 46.71 31.55, 46.24 32.88 C45.77 34.21, 45.18 35.52, 44.49 36.75 C43.8 37.98, 42.99 39.16, 42.1 40.25 C41.22 41.33, 40.22 42.36, 39.16 43.27 C38.11 44.18, 36.96 45.01, 35.76 45.72 C34.57 46.43, 33.29 47.04, 31.99 47.52 C30.7 48.01, 29.34 48.38, 27.98 48.63 C26.62 48.87, 25.22 49, 23.84 49 C22.46 49, 21.06 48.87, 19.7 48.63 C18.34 48.38, 16.98 48.01, 15.69 47.52 C14.39 47.04, 13.12 46.43, 11.92 45.72 C10.72 45.01, 9.57 44.18, 8.52 43.27 C7.46 42.36, 6.46 41.33, 5.58 40.25 C4.69 39.16, 3.88 37.98, 3.19 36.75 C2.5 35.52, 1.91 34.21, 1.44 32.88 C0.97 31.55, 0.6 30.15, 0.36 28.75 C0.12 27.36, 0 25.92, 0 24.5 C0 23.08, 0.12 21.64, 0.36 20.25 C0.6 18.85, 0.97 17.45, 1.44 16.12 C1.91 14.79, 2.5 13.48, 3.19 12.25 C3.88 11.02, 4.69 9.84, 5.58 8.75 C6.46 7.67, 7.46 6.64, 8.52 5.73 C9.57 4.82, 10.72 3.99, 11.92 3.28 C13.12 2.57, 14.39 1.96, 15.69 1.48 C16.98 0.99, 18.34 0.62, 19.7 0.37 C21.06 0.13, 22.46 0, 23.84 0 C25.22 0, 26.62 0.13, 27.98 0.37 C29.34 0.62, 30.7 0.99, 31.99 1.48 C33.29 1.96, 34.57 2.57, 35.76 3.28 C36.96 3.99, 38.11 4.82, 39.16 5.73 C40.22 6.64, 41.22 7.67, 42.1 8.75 C42.99 9.84, 43.8 11.02, 44.49 12.25 C45.18 13.48, 45.77 14.79, 46.24 16.12 C46.71 17.45, 47.08 18.85, 47.32 20.25 C47.56 21.64, 47.62 23.79, 47.68 24.5 C47.74 25.21, 47.74 23.79, 47.68 24.5" stroke="#1e1e1e" stroke-width="2" fill="none"/></g><g stroke-linecap="round" transform="translate(440.14101766336785 106.10277545289784) rotate(0 23.840042114257812 24.5)"><path d="M47.68 24.5 C47.68 25.92, 47.56 27.36, 47.32 28.75 C47.08 30.15, 46.71 31.55, 46.24 32.88 C45.77 34.21, 45.18 35.52, 44.49 36.75 C43.8 37.98, 42.99 39.16, 42.1 40.25 C41.22 41.33, 40.22 42.36, 39.16 43.27 C38.11 44.18, 36.96 45.01, 35.76 45.72 C34.57 46.43, 33.29 47.04, 31.99 47.52 C30.7 48.01, 29.34 48.38, 27.98 48.63 C26.62 48.87, 25.22 49, 23.84 49 C22.46 49, 21.06 48.87, 19.7 48.63 C18.34 48.38, 16.98 48.01, 15.69 47.52 C14.39 47.04, 13.12 46.43, 11.92 45.72 C10.72 45.01, 9.57 44.18, 8.52 43.27 C7.46 42.36, 6.46 41.33, 5.58 40.25 C4.69 39.16, 3.88 37.98, 3.19 36.75 C2.5 35.52, 1.91 34.21, 1.44 32.88 C0.97 31.55, 0.6 30.15, 0.36 28.75 C0.12 27.36, 0 25.92, 0 24.5 C0 23.08, 0.12 21.64, 0.36 20.25 C0.6 18.85, 0.97 17.45, 1.44 16.12 C1.91 14.79, 2.5 13.48, 3.19 12.25 C3.88 11.02, 4.69 9.84, 5.58 8.75 C6.46 7.67, 7.46 6.64, 8.52 5.73 C9.57 4.82, 10.72 3.99, 11.92 3.28 C13.12 2.57, 14.39 1.96, 15.69 1.48 C16.98 0.99, 18.34 0.62, 19.7 0.37 C21.06 0.13, 22.46 0, 23.84 0 C25.22 0, 26.62 0.13, 27.98 0.37 C29.34 0.62, 30.7 0.99, 31.99 1.48 C33.29 1.96, 34.57 2.57, 35.76 3.28 C36.96 3.99, 38.11 4.82, 39.16 5.73 C40.22 6.64, 41.22 7.67, 42.1 8.75 C42.99 9.84, 43.8 11.02, 44.49 12.25 C45.18 13.48, 45.77 14.79, 46.24 16.12 C46.71 17.45, 47.08 18.85, 47.32 20.25 C47.56 21.64, 47.62 23.79, 47.68 24.5 C47.74 25.21, 47.74 23.79, 47.68 24.5" stroke="#1e1e1e" stroke-width="2" fill="none"/></g><g stroke-linecap="round"><g transform="translate(423.1438526535064 80.17486822092303) rotate(0 14.148252553456587 14.148252553456587)"><path d="M0 0 C4.72 4.72, 23.58 23.58, 28.3 28.3 M0 0 C4.72 4.72, 23.58 23.58, 28.3 28.3" stroke="#1e1e1e" stroke-width="2" fill="none"/></g></g><mask/><g stroke-linecap="round"><g transform="translate(383.6711468647761 79.40140723155116) rotate(0 -14.891451247472787 14.891451247472787)"><path d="M0 0 C-4.96 4.96, -24.82 24.82, -29.78 29.78 M0 0 C-4.96 4.96, -24.82 24.82, -29.78 29.78" stroke="#1e1e1e" stroke-width="2" fill="none"/></g></g><mask/><g stroke-linecap="round"><g transform="translate(364.882388623035 132.2007641525512) rotate(0 37.4292560121587 0)"><path d="M0 0 C12.48 0, 62.38 0, 74.86 0 M0 0 C12.48 0, 62.38 0, 74.86 0" stroke="#1e1e1e" stroke-width="2" fill="none"/></g></g><mask/><g stroke-linecap="round" transform="translate(602.0608946994314 43.94148034891316) rotate(0 23.840042114257812 24.5)"><path d="M47.68 24.5 C47.68 25.92, 47.56 27.36, 47.32 28.75 C47.08 30.15, 46.71 31.55, 46.24 32.88 C45.77 34.21, 45.18 35.52, 44.49 36.75 C43.8 37.98, 42.99 39.16, 42.1 40.25 C41.22 41.33, 40.22 42.36, 39.16 43.27 C38.11 44.18, 36.96 45.01, 35.76 45.72 C34.57 46.43, 33.29 47.04, 31.99 47.52 C30.7 48.01, 29.34 48.38, 27.98 48.63 C26.62 48.87, 25.22 49, 23.84 49 C22.46 49, 21.06 48.87, 19.7 48.63 C18.34 48.38, 16.98 48.01, 15.69 47.52 C14.39 47.04, 13.12 46.43, 11.92 45.72 C10.72 45.01, 9.57 44.18, 8.52 43.27 C7.46 42.36, 6.46 41.33, 5.58 40.25 C4.69 39.16, 3.88 37.98, 3.19 36.75 C2.5 35.52, 1.91 34.21, 1.44 32.88 C0.97 31.55, 0.6 30.15, 0.36 28.75 C0.12 27.36, 0 25.92, 0 24.5 C0 23.08, 0.12 21.64, 0.36 20.25 C0.6 18.85, 0.97 17.45, 1.44 16.12 C1.91 14.79, 2.5 13.48, 3.19 12.25 C3.88 11.02, 4.69 9.84, 5.58 8.75 C6.46 7.67, 7.46 6.64, 8.52 5.73 C9.57 4.82, 10.72 3.99, 11.92 3.28 C13.12 2.57, 14.39 1.96, 15.69 1.48 C16.98 0.99, 18.34 0.62, 19.7 0.37 C21.06 0.13, 22.46 0, 23.84 0 C25.22 0, 26.62 0.13, 27.98 0.37 C29.34 0.62, 30.7 0.99, 31.99 1.48 C33.29 1.96, 34.57 2.57, 35.76 3.28 C36.96 3.99, 38.11 4.82, 39.16 5.73 C40.22 6.64, 41.22 7.67, 42.1 8.75 C42.99 9.84, 43.8 11.02, 44.49 12.25 C45.18 13.48, 45.77 14.79, 46.24 16.12 C46.71 17.45, 47.08 18.85, 47.32 20.25 C47.56 21.64, 47.62 23.79, 47.68 24.5 C47.74 25.21, 47.74 23.79, 47.68 24.5" stroke="#1e1e1e" stroke-width="2" fill="none"/></g><g stroke-linecap="round" transform="translate(538.7401722430106 109.78424544143138) rotate(0 23.840042114257812 24.5)"><path d="M47.68 24.5 C47.68 25.92, 47.56 27.36, 47.32 28.75 C47.08 30.15, 46.71 31.55, 46.24 32.88 C45.77 34.21, 45.18 35.52, 44.49 36.75 C43.8 37.98, 42.99 39.16, 42.1 40.25 C41.22 41.33, 40.22 42.36, 39.16 43.27 C38.11 44.18, 36.96 45.01, 35.76 45.72 C34.57 46.43, 33.29 47.04, 31.99 47.52 C30.7 48.01, 29.34 48.38, 27.98 48.63 C26.62 48.87, 25.22 49, 23.84 49 C22.46 49, 21.06 48.87, 19.7 48.63 C18.34 48.38, 16.98 48.01, 15.69 47.52 C14.39 47.04, 13.12 46.43, 11.92 45.72 C10.72 45.01, 9.57 44.18, 8.52 43.27 C7.46 42.36, 6.46 41.33, 5.58 40.25 C4.69 39.16, 3.88 37.98, 3.19 36.75 C2.5 35.52, 1.91 34.21, 1.44 32.88 C0.97 31.55, 0.6 30.15, 0.36 28.75 C0.12 27.36, 0 25.92, 0 24.5 C0 23.08, 0.12 21.64, 0.36 20.25 C0.6 18.85, 0.97 17.45, 1.44 16.12 C1.91 14.79, 2.5 13.48, 3.19 12.25 C3.88 11.02, 4.69 9.84, 5.58 8.75 C6.46 7.67, 7.46 6.64, 8.52 5.73 C9.57 4.82, 10.72 3.99, 11.92 3.28 C13.12 2.57, 14.39 1.96, 15.69 1.48 C16.98 0.99, 18.34 0.62, 19.7 0.37 C21.06 0.13, 22.46 0, 23.84 0 C25.22 0, 26.62 0.13, 27.98 0.37 C29.34 0.62, 30.7 0.99, 31.99 1.48 C33.29 1.96, 34.57 2.57, 35.76 3.28 C36.96 3.99, 38.11 4.82, 39.16 5.73 C40.22 6.64, 41.22 7.67, 42.1 8.75 C42.99 9.84, 43.8 11.02, 44.49 12.25 C45.18 13.48, 45.77 14.79, 46.24 16.12 C46.71 17.45, 47.08 18.85, 47.32 20.25 C47.56 21.64, 47.62 23.79, 47.68 24.5 C47.74 25.21, 47.74 23.79, 47.68 24.5" stroke="#1e1e1e" stroke-width="2" fill="none"/></g><g stroke-linecap="round" transform="translate(662.5693030953546 109.444891323364) rotate(0 23.840042114257812 24.5)"><path d="M47.68 24.5 C47.68 25.92, 47.56 27.36, 47.32 28.75 C47.08 30.15, 46.71 31.55, 46.24 32.88 C45.77 34.21, 45.18 35.52, 44.49 36.75 C43.8 37.98, 42.99 39.16, 42.1 40.25 C41.22 41.33, 40.22 42.36, 39.16 43.27 C38.11 44.18, 36.96 45.01, 35.76 45.72 C34.57 46.43, 33.29 47.04, 31.99 47.52 C30.7 48.01, 29.34 48.38, 27.98 48.63 C26.62 48.87, 25.22 49, 23.84 49 C22.46 49, 21.06 48.87, 19.7 48.63 C18.34 48.38, 16.98 48.01, 15.69 47.52 C14.39 47.04, 13.12 46.43, 11.92 45.72 C10.72 45.01, 9.57 44.18, 8.52 43.27 C7.46 42.36, 6.46 41.33, 5.58 40.25 C4.69 39.16, 3.88 37.98, 3.19 36.75 C2.5 35.52, 1.91 34.21, 1.44 32.88 C0.97 31.55, 0.6 30.15, 0.36 28.75 C0.12 27.36, 0 25.92, 0 24.5 C0 23.08, 0.12 21.64, 0.36 20.25 C0.6 18.85, 0.97 17.45, 1.44 16.12 C1.91 14.79, 2.5 13.48, 3.19 12.25 C3.88 11.02, 4.69 9.84, 5.58 8.75 C6.46 7.67, 7.46 6.64, 8.52 5.73 C9.57 4.82, 10.72 3.99, 11.92 3.28 C13.12 2.57, 14.39 1.96, 15.69 1.48 C16.98 0.99, 18.34 0.62, 19.7 0.37 C21.06 0.13, 22.46 0, 23.84 0 C25.22 0, 26.62 0.13, 27.98 0.37 C29.34 0.62, 30.7 0.99, 31.99 1.48 C33.29 1.96, 34.57 2.57, 35.76 3.28 C36.96 3.99, 38.11 4.82, 39.16 5.73 C40.22 6.64, 41.22 7.67, 42.1 8.75 C42.99 9.84, 43.8 11.02, 44.49 12.25 C45.18 13.48, 45.77 14.79, 46.24 16.12 C46.71 17.45, 47.08 18.85, 47.32 20.25 C47.56 21.64, 47.62 23.79, 47.68 24.5 C47.74 25.21, 47.74 23.79, 47.68 24.5" stroke="#1e1e1e" stroke-width="2" fill="none"/></g><g stroke-linecap="round"><g transform="translate(645.5721380854932 83.51698409138919) rotate(0 14.148252553456587 14.148252553456587)"><path d="M0 0 C4.72 4.72, 23.58 23.58, 28.3 28.3 M0 0 C4.72 4.72, 23.58 23.58, 28.3 28.3" stroke="#1e1e1e" stroke-width="2" fill="none"/></g></g><mask/><g stroke-linecap="round"><g transform="translate(606.0994322967629 82.74352310201732) rotate(0 -14.891451247472787 14.891451247472787)"><path d="M0 0 C-4.96 4.96, -24.82 24.82, -29.78 29.78 M0 0 C-4.96 4.96, -24.82 24.82, -29.78 29.78" stroke="#1e1e1e" stroke-width="2" fill="none"/></g></g><mask/><g stroke-linecap="round"><g transform="translate(587.3106740550218 135.54288002301735) rotate(0 37.4292560121587 0)"><path d="M0 0 C12.48 0, 62.38 0, 74.86 0 M0 0 C12.48 0, 62.38 0, 74.86 0" stroke="#1e1e1e" stroke-width="2" fill="none"/></g></g><mask/><g stroke-linecap="round" transform="translate(10.659957885742188 69.8484505101809) rotate(270 23.840042114257812 24.5)"><path d="M47.68 24.5 C47.68 25.92, 47.56 27.36, 47.32 28.75 C47.08 30.15, 46.71 31.55, 46.24 32.88 C45.77 34.21, 45.18 35.52, 44.49 36.75 C43.8 37.98, 42.99 39.16, 42.1 40.25 C41.22 41.33, 40.22 42.36, 39.16 43.27 C38.11 44.18, 36.96 45.01, 35.76 45.72 C34.57 46.43, 33.29 47.04, 31.99 47.52 C30.7 48.01, 29.34 48.38, 27.98 48.63 C26.62 48.87, 25.22 49, 23.84 49 C22.46 49, 21.06 48.87, 19.7 48.63 C18.34 48.38, 16.98 48.01, 15.69 47.52 C14.39 47.04, 13.12 46.43, 11.92 45.72 C10.72 45.01, 9.57 44.18, 8.52 43.27 C7.46 42.36, 6.46 41.33, 5.58 40.25 C4.69 39.16, 3.88 37.98, 3.19 36.75 C2.5 35.52, 1.91 34.21, 1.44 32.88 C0.97 31.55, 0.6 30.15, 0.36 28.75 C0.12 27.36, 0 25.92, 0 24.5 C0 23.08, 0.12 21.64, 0.36 20.25 C0.6 18.85, 0.97 17.45, 1.44 16.12 C1.91 14.79, 2.5 13.48, 3.19 12.25 C3.88 11.02, 4.69 9.84, 5.58 8.75 C6.46 7.67, 7.46 6.64, 8.52 5.73 C9.57 4.82, 10.72 3.99, 11.92 3.28 C13.12 2.57, 14.39 1.96, 15.69 1.48 C16.98 0.99, 18.34 0.62, 19.7 0.37 C21.06 0.13, 22.46 0, 23.84 0 C25.22 0, 26.62 0.13, 27.98 0.37 C29.34 0.62, 30.7 0.99, 31.99 1.48 C33.29 1.96, 34.57 2.57, 35.76 3.28 C36.96 3.99, 38.11 4.82, 39.16 5.73 C40.22 6.64, 41.22 7.67, 42.1 8.75 C42.99 9.84, 43.8 11.02, 44.49 12.25 C45.18 13.48, 45.77 14.79, 46.24 16.12 C46.71 17.45, 47.08 18.85, 47.32 20.25 C47.56 21.64, 47.62 23.79, 47.68 24.5 C47.74 25.21, 47.74 23.79, 47.68 24.5" stroke="#1e1e1e" stroke-width="2" fill="none"/></g><g stroke-linecap="round" transform="translate(76.502722978261 133.1691729666021) rotate(270 23.840042114257812 24.5)"><path d="M47.68 24.5 C47.68 25.92, 47.56 27.36, 47.32 28.75 C47.08 30.15, 46.71 31.55, 46.24 32.88 C45.77 34.21, 45.18 35.52, 44.49 36.75 C43.8 37.98, 42.99 39.16, 42.1 40.25 C41.22 41.33, 40.22 42.36, 39.16 43.27 C38.11 44.18, 36.96 45.01, 35.76 45.72 C34.57 46.43, 33.29 47.04, 31.99 47.52 C30.7 48.01, 29.34 48.38, 27.98 48.63 C26.62 48.87, 25.22 49, 23.84 49 C22.46 49, 21.06 48.87, 19.7 48.63 C18.34 48.38, 16.98 48.01, 15.69 47.52 C14.39 47.04, 13.12 46.43, 11.92 45.72 C10.72 45.01, 9.57 44.18, 8.52 43.27 C7.46 42.36, 6.46 41.33, 5.58 40.25 C4.69 39.16, 3.88 37.98, 3.19 36.75 C2.5 35.52, 1.91 34.21, 1.44 32.88 C0.97 31.55, 0.6 30.15, 0.36 28.75 C0.12 27.36, 0 25.92, 0 24.5 C0 23.08, 0.12 21.64, 0.36 20.25 C0.6 18.85, 0.97 17.45, 1.44 16.12 C1.91 14.79, 2.5 13.48, 3.19 12.25 C3.88 11.02, 4.69 9.84, 5.58 8.75 C6.46 7.67, 7.46 6.64, 8.52 5.73 C9.57 4.82, 10.72 3.99, 11.92 3.28 C13.12 2.57, 14.39 1.96, 15.69 1.48 C16.98 0.99, 18.34 0.62, 19.7 0.37 C21.06 0.13, 22.46 0, 23.84 0 C25.22 0, 26.62 0.13, 27.98 0.37 C29.34 0.62, 30.7 0.99, 31.99 1.48 C33.29 1.96, 34.57 2.57, 35.76 3.28 C36.96 3.99, 38.11 4.82, 39.16 5.73 C40.22 6.64, 41.22 7.67, 42.1 8.75 C42.99 9.84, 43.8 11.02, 44.49 12.25 C45.18 13.48, 45.77 14.79, 46.24 16.12 C46.71 17.45, 47.08 18.85, 47.32 20.25 C47.56 21.64, 47.62 23.79, 47.68 24.5 C47.74 25.21, 47.74 23.79, 47.68 24.5" stroke="#1e1e1e" stroke-width="2" fill="none"/></g><g stroke-linecap="round" transform="translate(76.16336886019334 9.340042114257812) rotate(270 23.840042114257812 24.499999999999943)"><path d="M47.68 24.5 C47.68 25.92, 47.56 27.36, 47.32 28.75 C47.08 30.15, 46.71 31.55, 46.24 32.88 C45.77 34.21, 45.18 35.52, 44.49 36.75 C43.8 37.98, 42.99 39.16, 42.1 40.25 C41.22 41.33, 40.22 42.36, 39.16 43.27 C38.11 44.18, 36.96 45.01, 35.76 45.72 C34.57 46.43, 33.29 47.04, 31.99 47.52 C30.7 48.01, 29.34 48.38, 27.98 48.63 C26.62 48.87, 25.22 49, 23.84 49 C22.46 49, 21.06 48.87, 19.7 48.63 C18.34 48.38, 16.98 48.01, 15.69 47.52 C14.39 47.04, 13.12 46.43, 11.92 45.72 C10.72 45.01, 9.57 44.18, 8.52 43.27 C7.46 42.36, 6.46 41.33, 5.58 40.25 C4.69 39.16, 3.88 37.98, 3.19 36.75 C2.5 35.52, 1.91 34.21, 1.44 32.88 C0.97 31.55, 0.6 30.15, 0.36 28.75 C0.12 27.36, 0 25.92, 0 24.5 C0 23.08, 0.12 21.64, 0.36 20.25 C0.6 18.85, 0.97 17.45, 1.44 16.12 C1.91 14.79, 2.5 13.48, 3.19 12.25 C3.88 11.02, 4.69 9.84, 5.58 8.75 C6.46 7.67, 7.46 6.64, 8.52 5.73 C9.57 4.82, 10.72 3.99, 11.92 3.28 C13.12 2.57, 14.39 1.96, 15.69 1.48 C16.98 0.99, 18.34 0.62, 19.7 0.37 C21.06 0.13, 22.46 0, 23.84 0 C25.22 0, 26.62 0.13, 27.98 0.37 C29.34 0.62, 30.7 0.99, 31.99 1.48 C33.29 1.96, 34.57 2.57, 35.76 3.28 C36.96 3.99, 38.11 4.82, 39.16 5.73 C40.22 6.64, 41.22 7.67, 42.1 8.75 C42.99 9.84, 43.8 11.02, 44.49 12.25 C45.18 13.48, 45.77 14.79, 46.24 16.12 C46.71 17.45, 47.08 18.85, 47.32 20.25 C47.56 21.64, 47.62 23.79, 47.68 24.5 C47.74 25.21, 47.74 23.79, 47.68 24.5" stroke="#1e1e1e" stroke-width="2" fill="none"/></g><g stroke-linecap="round"><g transform="translate(49.57550374247589 46.380744131463985) rotate(270 14.148252553456587 14.148252553456587)"><path d="M0 0 C4.72 4.72, 23.58 23.58, 28.3 28.3 M0 0 C4.72 4.72, 23.58 23.58, 28.3 28.3" stroke="#1e1e1e" stroke-width="2" fill="none"/></g></g><mask/><g stroke-linecap="round"><g transform="translate(78.58494524805039 114.14995502710701) rotate(270 -14.891451247472787 14.891451247472787)"><path d="M0 0 C-4.96 4.96, -24.82 24.82, -29.78 29.78 M0 0 C-4.96 4.96, -24.82 24.82, -29.78 29.78" stroke="#1e1e1e" stroke-width="2" fill="none"/></g></g><mask/><g stroke-linecap="round"><g transform="translate(136.09323239344383 147.97353934525506) rotate(270 0 11.281978868697365)"><path d="M0 0 C0 3.76, 0 18.8, 0 22.56 M0 0 C0 3.76, 0 18.8, 0 22.56" stroke="#1e1e1e" stroke-width="2" fill="none"/></g></g><mask/><g stroke-linecap="round" transform="translate(213.7550084897532 71.6009002977413) rotate(90 23.84004211425783 24.5)"><path d="M47.68 24.5 C47.68 25.92, 47.56 27.36, 47.32 28.75 C47.08 30.15, 46.71 31.55, 46.24 32.88 C45.77 34.21, 45.18 35.52, 44.49 36.75 C43.8 37.98, 42.99 39.16, 42.1 40.25 C41.22 41.33, 40.22 42.36, 39.16 43.27 C38.11 44.18, 36.96 45.01, 35.76 45.72 C34.57 46.43, 33.29 47.04, 31.99 47.52 C30.7 48.01, 29.34 48.38, 27.98 48.63 C26.62 48.87, 25.22 49, 23.84 49 C22.46 49, 21.06 48.87, 19.7 48.63 C18.34 48.38, 16.98 48.01, 15.69 47.52 C14.39 47.04, 13.12 46.43, 11.92 45.72 C10.72 45.01, 9.57 44.18, 8.52 43.27 C7.46 42.36, 6.46 41.33, 5.58 40.25 C4.69 39.16, 3.88 37.98, 3.19 36.75 C2.5 35.52, 1.91 34.21, 1.44 32.88 C0.97 31.55, 0.6 30.15, 0.36 28.75 C0.12 27.36, 0 25.92, 0 24.5 C0 23.08, 0.12 21.64, 0.36 20.25 C0.6 18.85, 0.97 17.45, 1.44 16.12 C1.91 14.79, 2.5 13.48, 3.19 12.25 C3.88 11.02, 4.69 9.84, 5.58 8.75 C6.46 7.67, 7.46 6.64, 8.52 5.73 C9.57 4.82, 10.72 3.99, 11.92 3.28 C13.12 2.57, 14.39 1.96, 15.69 1.48 C16.98 0.99, 18.34 0.62, 19.7 0.37 C21.06 0.13, 22.46 0, 23.84 0 C25.22 0, 26.62 0.13, 27.98 0.37 C29.34 0.62, 30.7 0.99, 31.99 1.48 C33.29 1.96, 34.57 2.57, 35.76 3.28 C36.96 3.99, 38.11 4.82, 39.16 5.73 C40.22 6.64, 41.22 7.67, 42.1 8.75 C42.99 9.84, 43.8 11.02, 44.49 12.25 C45.18 13.48, 45.77 14.79, 46.24 16.12 C46.71 17.45, 47.08 18.85, 47.32 20.25 C47.56 21.64, 47.62 23.79, 47.68 24.5 C47.74 25.21, 47.74 23.79, 47.68 24.5" stroke="#1e1e1e" stroke-width="2" fill="none"/></g><g stroke-linecap="round" transform="translate(147.91224339723433 134.9216227541625) rotate(90 23.84004211425783 24.5)"><path d="M47.68 24.5 C47.68 25.92, 47.56 27.36, 47.32 28.75 C47.08 30.15, 46.71 31.55, 46.24 32.88 C45.77 34.21, 45.18 35.52, 44.49 36.75 C43.8 37.98, 42.99 39.16, 42.1 40.25 C41.22 41.33, 40.22 42.36, 39.16 43.27 C38.11 44.18, 36.96 45.01, 35.76 45.72 C34.57 46.43, 33.29 47.04, 31.99 47.52 C30.7 48.01, 29.34 48.38, 27.98 48.63 C26.62 48.87, 25.22 49, 23.84 49 C22.46 49, 21.06 48.87, 19.7 48.63 C18.34 48.38, 16.98 48.01, 15.69 47.52 C14.39 47.04, 13.12 46.43, 11.92 45.72 C10.72 45.01, 9.57 44.18, 8.52 43.27 C7.46 42.36, 6.46 41.33, 5.58 40.25 C4.69 39.16, 3.88 37.98, 3.19 36.75 C2.5 35.52, 1.91 34.21, 1.44 32.88 C0.97 31.55, 0.6 30.15, 0.36 28.75 C0.12 27.36, 0 25.92, 0 24.5 C0 23.08, 0.12 21.64, 0.36 20.25 C0.6 18.85, 0.97 17.45, 1.44 16.12 C1.91 14.79, 2.5 13.48, 3.19 12.25 C3.88 11.02, 4.69 9.84, 5.58 8.75 C6.46 7.67, 7.46 6.64, 8.52 5.73 C9.57 4.82, 10.72 3.99, 11.92 3.28 C13.12 2.57, 14.39 1.96, 15.69 1.48 C16.98 0.99, 18.34 0.62, 19.7 0.37 C21.06 0.13, 22.46 0, 23.84 0 C25.22 0, 26.62 0.13, 27.98 0.37 C29.34 0.62, 30.7 0.99, 31.99 1.48 C33.29 1.96, 34.57 2.57, 35.76 3.28 C36.96 3.99, 38.11 4.82, 39.16 5.73 C40.22 6.64, 41.22 7.67, 42.1 8.75 C42.99 9.84, 43.8 11.02, 44.49 12.25 C45.18 13.48, 45.77 14.79, 46.24 16.12 C46.71 17.45, 47.08 18.85, 47.32 20.25 C47.56 21.64, 47.62 23.79, 47.68 24.5 C47.74 25.21, 47.74 23.79, 47.68 24.5" stroke="#1e1e1e" stroke-width="2" fill="none"/></g><g stroke-linecap="round" transform="translate(148.251597515302 11.09249190181788) rotate(90 23.84004211425783 24.5)"><path d="M47.68 24.5 C47.68 25.92, 47.56 27.36, 47.32 28.75 C47.08 30.15, 46.71 31.55, 46.24 32.88 C45.77 34.21, 45.18 35.52, 44.49 36.75 C43.8 37.98, 42.99 39.16, 42.1 40.25 C41.22 41.33, 40.22 42.36, 39.16 43.27 C38.11 44.18, 36.96 45.01, 35.76 45.72 C34.57 46.43, 33.29 47.04, 31.99 47.52 C30.7 48.01, 29.34 48.38, 27.98 48.63 C26.62 48.87, 25.22 49, 23.84 49 C22.46 49, 21.06 48.87, 19.7 48.63 C18.34 48.38, 16.98 48.01, 15.69 47.52 C14.39 47.04, 13.12 46.43, 11.92 45.72 C10.72 45.01, 9.57 44.18, 8.52 43.27 C7.46 42.36, 6.46 41.33, 5.58 40.25 C4.69 39.16, 3.88 37.98, 3.19 36.75 C2.5 35.52, 1.91 34.21, 1.44 32.88 C0.97 31.55, 0.6 30.15, 0.36 28.75 C0.12 27.36, 0 25.92, 0 24.5 C0 23.08, 0.12 21.64, 0.36 20.25 C0.6 18.85, 0.97 17.45, 1.44 16.12 C1.91 14.79, 2.5 13.48, 3.19 12.25 C3.88 11.02, 4.69 9.84, 5.58 8.75 C6.46 7.67, 7.46 6.64, 8.52 5.73 C9.57 4.82, 10.72 3.99, 11.92 3.28 C13.12 2.57, 14.39 1.96, 15.69 1.48 C16.98 0.99, 18.34 0.62, 19.7 0.37 C21.06 0.13, 22.46 0, 23.84 0 C25.22 0, 26.62 0.13, 27.98 0.37 C29.34 0.62, 30.7 0.99, 31.99 1.48 C33.29 1.96, 34.57 2.57, 35.76 3.28 C36.96 3.99, 38.11 4.82, 39.16 5.73 C40.22 6.64, 41.22 7.67, 42.1 8.75 C42.99 9.84, 43.8 11.02, 44.49 12.25 C45.18 13.48, 45.77 14.79, 46.24 16.12 C46.71 17.45, 47.08 18.85, 47.32 20.25 C47.56 21.64, 47.62 23.79, 47.68 24.5 C47.74 25.21, 47.74 23.79, 47.68 24.5" stroke="#1e1e1e" stroke-width="2" fill="none"/></g><g stroke-linecap="round"><g transform="translate(222.5195468615351 48.133193919024166) rotate(90 -14.148252553456594 14.148252553456587)"><path d="M0 0 C-4.72 4.72, -23.58 23.58, -28.3 28.3 M0 0 C-4.72 4.72, -23.58 23.58, -28.3 28.3" stroke="#1e1e1e" stroke-width="2" fill="none"/></g></g><mask/><g stroke-linecap="round"><g transform="translate(193.5101053559606 115.9024048146672) rotate(90 14.891451247472798 14.891451247472787)"><path d="M0 0 C4.96 4.96, 24.82 24.82, 29.78 29.78 M0 0 C4.96 4.96, 24.82 24.82, 29.78 29.78" stroke="#1e1e1e" stroke-width="2" fill="none"/></g></g><mask/><g stroke-linecap="round"><g transform="translate(136.16380846183947 46.55803078401448) rotate(90 0 -11.591479218037591)"><path d="M0 0 C0 -3.86, 0 -19.32, 0 -23.18 M0 0 C0 -3.86, 0 -19.32, 0 -23.18" stroke="#1e1e1e" stroke-width="2" fill="none"/></g></g><mask/><g stroke-linecap="round" transform="translate(312.2211218003388 14.378761958360315) rotate(0 201.82972475457456 91.65674358332046)"><path d="M32 0 C132.94 0, 233.87 0, 371.66 0 M32 0 C153.32 0, 274.65 0, 371.66 0 M371.66 0 C392.99 0, 403.66 10.67, 403.66 32 M371.66 0 C392.99 0, 403.66 10.67, 403.66 32 M403.66 32 C403.66 65.73, 403.66 99.46, 403.66 151.31 M403.66 32 C403.66 58.11, 403.66 84.22, 403.66 151.31 M403.66 151.31 C403.66 172.65, 392.99 183.31, 371.66 183.31 M403.66 151.31 C403.66 172.65, 392.99 183.31, 371.66 183.31 M371.66 183.31 C295.76 183.31, 219.86 183.31, 32 183.31 M371.66 183.31 C267.59 183.31, 163.52 183.31, 32 183.31 M32 183.31 C10.67 183.31, 0 172.65, 0 151.31 M32 183.31 C10.67 183.31, 0 172.65, 0 151.31 M0 151.31 C0 116.85, 0 82.38, 0 32 M0 151.31 C0 114.39, 0 77.46, 0 32 M0 32 C0 10.67, 10.67 0, 32 0 M0 32 C0 10.67, 10.67 0, 32 0" stroke="#1e1e1e" stroke-width="2" fill="none"/></g></svg>