<?xml version="1.0" encoding="UTF-8" standalone="no"?><!DOCTYPE svg PUBLIC "-//W3C//DTD SVG 1.1//EN" "http://www.w3.org/Graphics/SVG/1.1/DTD/svg11.dtd"><!-- Generated by graphviz version 2.40.1 (20161225.0304)
 --><!-- Title: G Pages: 1 --><svg xmlns="http://www.w3.org/2000/svg" xmlns:xlink="http://www.w3.org/1999/xlink" width="200pt" height="182pt" viewBox="0.00 0.00 199.51 181.51">
<g id="graph0" class="graph" transform="scale(1 1) rotate(0) translate(4 177.5099)">
<title>G</title>
<polygon fill="#ffffff" stroke="transparent" points="-4,4 -4,-177.5099 195.5099,-177.5099 195.5099,4 -4,4"/>
<!-- 3 -->
<g id="node1" class="node">
<title>3</title>
<ellipse fill="none" stroke="#000000" stroke-width="2.7" cx="86.7549" cy="-18" rx="18" ry="18"/>
<text text-anchor="middle" x="86.7549" y="-13.8" font-family="Times,serif" font-size="14.00" fill="#000000">3</text>
</g>
<!-- 1 -->
<g id="node3" class="node">
<title>1</title>
<ellipse fill="none" stroke="#000000" stroke-width="2.7" cx="86.7549" cy="-155.5099" rx="18" ry="18"/>
<text text-anchor="middle" x="86.7549" y="-151.3099" font-family="Times,serif" font-size="14.00" fill="#000000">1</text>
</g>
<!-- 3&#45;&gt;1 -->
<g id="edge8" class="edge">
<title>3-&gt;1</title>
<path fill="none" stroke="#000000" d="M86.7549,-36.2602C86.7549,-59.4788 86.7549,-99.8198 86.7549,-127.0803"/>
<polygon fill="#000000" stroke="#000000" points="83.255,-127.1741 86.7549,-137.1741 90.255,-127.1741 83.255,-127.1741"/>
</g>
<!-- 4 -->
<g id="node4" class="node">
<title>4</title>
<ellipse fill="none" stroke="#000000" stroke-width="2.7" cx="18" cy="-86.7549" rx="18" ry="18"/>
<text text-anchor="middle" x="18" y="-82.5549" font-family="Times,serif" font-size="14.00" fill="#000000">4</text>
</g>
<!-- 3&#45;&gt;4 -->
<g id="edge3" class="edge">
<title>3-&gt;4</title>
<path fill="none" stroke="#000000" d="M70.704,-26.5331C59.3257,-35.6868 44.3057,-50.3123 33.1412,-62.9123"/>
<polygon fill="#000000" stroke="#000000" points="30.2332,-60.9302 26.4383,-70.822 35.5736,-65.4558 30.2332,-60.9302"/>
</g>
<!-- 2 -->
<g id="node2" class="node">
<title>2</title>
<ellipse fill="none" stroke="#000000" stroke-width="2.7" cx="155.5099" cy="-86.7549" rx="18" ry="18"/>
<text text-anchor="middle" x="155.5099" y="-82.5549" font-family="Times,serif" font-size="14.00" fill="#000000">2</text>
</g>
<!-- 2&#45;&gt;3 -->
<g id="edge2" class="edge">
<title>2-&gt;3</title>
<path fill="none" stroke="#000000" d="M142.5776,-73.8227C132.4941,-63.7391 118.312,-49.5571 106.7662,-38.0113"/>
<polygon fill="#000000" stroke="#000000" points="109.1752,-35.4705 99.6292,-30.8743 104.2254,-40.4203 109.1752,-35.4705"/>
</g>
<!-- 2&#45;&gt;2 -->
<g id="edge7" class="edge">
<title>2-&gt;2</title>
<path fill="none" stroke="#000000" d="M172.5472,-93.1341C182.3678,-94.436 191.5099,-92.3096 191.5099,-86.7549 191.5099,-83.2833 187.9387,-81.1507 182.8628,-80.3574"/>
<polygon fill="#000000" stroke="#000000" points="182.5409,-76.8579 172.5472,-80.3757 182.5534,-83.8579 182.5409,-76.8579"/>
</g>
<!-- 1&#45;&gt;2 -->
<g id="edge1" class="edge">
<title>1-&gt;2</title>
<path fill="none" stroke="#000000" d="M99.6872,-142.5776C109.7707,-132.4941 123.9528,-118.312 135.4986,-106.7662"/>
<polygon fill="#000000" stroke="#000000" points="138.0394,-109.1752 142.6356,-99.6292 133.0896,-104.2254 138.0394,-109.1752"/>
</g>
<!-- 1&#45;&gt;4 -->
<g id="edge4" class="edge">
<title>1-&gt;4</title>
<path fill="none" stroke="#000000" d="M73.8227,-142.5776C63.7391,-132.4941 49.5571,-118.312 38.0113,-106.7662"/>
<polygon fill="#000000" stroke="#000000" points="40.4203,-104.2254 30.8743,-99.6292 35.4705,-109.1752 40.4203,-104.2254"/>
</g>
<!-- 4&#45;&gt;3 -->
<g id="edge6" class="edge">
<title>4-&gt;3</title>
<path fill="none" stroke="#000000" d="M34.0509,-78.2218C45.4292,-69.0681 60.4492,-54.4426 71.6138,-41.8426"/>
<polygon fill="#000000" stroke="#000000" points="74.5217,-43.8248 78.3167,-33.9329 69.1814,-39.2992 74.5217,-43.8248"/>
</g>
<!-- 4&#45;&gt;2 -->
<g id="edge5" class="edge">
<title>4-&gt;2</title>
<path fill="none" stroke="#000000" d="M36.2602,-86.7549C59.4788,-86.7549 99.8198,-86.7549 127.0803,-86.7549"/>
<polygon fill="#000000" stroke="#000000" points="127.1741,-90.255 137.1741,-86.7549 127.1741,-83.255 127.1741,-90.255"/>
</g>
</g>
</svg>