<svg version="1.1" xmlns="http://www.w3.org/2000/svg" viewBox="0 0 154.35713827294478 245.16380073690567" width="154.35713827294478" height="245.16380073690567" class="excalidraw-svg">
  <!-- svg-source:excalidraw -->
  
  <defs>
    <style class="style-fonts">
      @font-face {
        font-family: "Virgil";
        src: url("https://excalidraw.com/Virgil.woff2");
      }
      @font-face {
        font-family: "Cascadia";
        src: url("https://excalidraw.com/Cascadia.woff2");
      }
      @font-face {
        font-family: "Assistant";
        src: url("https://excalidraw.com/Assistant-Regular.woff2");
      }
    </style>
    
  </defs>
  <g stroke-linecap="round"><g transform="translate(58.29430695458086 150.87661724033563) rotate(0 20.307177689380353 23.446448232692774)"><path d="M0 0 C6.77 7.82, 33.85 39.08, 40.61 46.89 M0 0 C6.77 7.82, 33.85 39.08, 40.61 46.89" stroke="#e03131" stroke-width="2" fill="none"/></g></g><mask/><g stroke-linecap="round"><g transform="translate(58.901893770643596 150.30699444303178) rotate(0 18.49228417776328 -18.001777677323446)"><path d="M0 0 C6.16 -6, 30.82 -30, 36.98 -36 M0 0 C6.16 -6, 30.82 -30, 36.98 -36" stroke="#e03131" stroke-width="2" fill="none"/></g></g><mask/><g stroke-linecap="round"><g transform="translate(58.49051354654955 150.28800744391145) rotate(0 19.090448790366963 -52.06364223054129)"><path d="M0 0 C6.36 -17.35, 31.82 -86.77, 38.18 -104.13 M0 0 C6.36 -17.35, 31.82 -86.77, 38.18 -104.13" stroke="#e03131" stroke-width="2" fill="none"/></g></g><mask/><g stroke-linecap="round"><g transform="translate(58.85311288012463 92.00209319802332) rotate(0 20.14105575738546 52.77277752211913)"><path d="M0 0 C6.71 17.59, 33.57 87.95, 40.28 105.55 M0 0 C6.71 17.59, 33.57 87.95, 40.28 105.55" stroke="#2f9e44" stroke-width="2" fill="none"/></g></g><mask/><g stroke-linecap="round"><g transform="translate(58.09811034209406 91.09962096209824) rotate(0 19.509431136906187 11.263775318629285)"><path d="M0 0 C6.5 3.75, 32.52 18.77, 39.02 22.53 M0 0 C6.5 3.75, 32.52 18.77, 39.02 22.53" stroke="#2f9e44" stroke-width="2" fill="none"/></g></g><mask/><g stroke-linecap="round"><g transform="translate(59.275319955460645 91.29582755406693) rotate(0 18.558097843956546 -23.228265437040477)"><path d="M0 0 C6.19 -7.74, 30.93 -38.71, 37.12 -46.46 M0 0 C6.19 -7.74, 30.93 -38.71, 37.12 -46.46" stroke="#2f9e44" stroke-width="2" fill="none"/></g></g><mask/><g stroke-linecap="round" transform="translate(10 65.78589861868466) rotate(0 23.840042114257812 24.5)"><path d="M47.68 24.5 C47.68 25.92, 47.56 27.36, 47.32 28.75 C47.08 30.15, 46.71 31.55, 46.24 32.88 C45.77 34.21, 45.18 35.52, 44.49 36.75 C43.8 37.98, 42.99 39.16, 42.1 40.25 C41.22 41.33, 40.22 42.36, 39.16 43.27 C38.11 44.18, 36.96 45.01, 35.76 45.72 C34.57 46.43, 33.29 47.04, 31.99 47.52 C30.7 48.01, 29.34 48.38, 27.98 48.63 C26.62 48.87, 25.22 49, 23.84 49 C22.46 49, 21.06 48.87, 19.7 48.63 C18.34 48.38, 16.98 48.01, 15.69 47.52 C14.39 47.04, 13.12 46.43, 11.92 45.72 C10.72 45.01, 9.57 44.18, 8.52 43.27 C7.46 42.36, 6.46 41.33, 5.58 40.25 C4.69 39.16, 3.88 37.98, 3.19 36.75 C2.5 35.52, 1.91 34.21, 1.44 32.88 C0.97 31.55, 0.6 30.15, 0.36 28.75 C0.12 27.36, 0 25.92, 0 24.5 C0 23.08, 0.12 21.64, 0.36 20.25 C0.6 18.85, 0.97 17.45, 1.44 16.12 C1.91 14.79, 2.5 13.48, 3.19 12.25 C3.88 11.02, 4.69 9.84, 5.58 8.75 C6.46 7.67, 7.46 6.64, 8.52 5.73 C9.57 4.82, 10.72 3.99, 11.92 3.28 C13.12 2.57, 14.39 1.96, 15.69 1.48 C16.98 0.99, 18.34 0.62, 19.7 0.37 C21.06 0.13, 22.46 0, 23.84 0 C25.22 0, 26.62 0.13, 27.98 0.37 C29.34 0.62, 30.7 0.99, 31.99 1.48 C33.29 1.96, 34.57 2.57, 35.76 3.28 C36.96 3.99, 38.11 4.82, 39.16 5.73 C40.22 6.64, 41.22 7.67, 42.1 8.75 C42.99 9.84, 43.8 11.02, 44.49 12.25 C45.18 13.48, 45.77 14.79, 46.24 16.12 C46.71 17.45, 47.08 18.85, 47.32 20.25 C47.56 21.64, 47.62 23.79, 47.68 24.5 C47.74 25.21, 47.74 23.79, 47.68 24.5" stroke="#1e1e1e" stroke-width="2" fill="none"/></g><g stroke-linecap="round" transform="translate(10.613095559831663 129.64339409797958) rotate(0 23.840042114257812 24.49999999999997)"><path d="M47.68 24.5 C47.68 25.92, 47.56 27.36, 47.32 28.75 C47.08 30.15, 46.71 31.55, 46.24 32.88 C45.77 34.21, 45.18 35.52, 44.49 36.75 C43.8 37.98, 42.99 39.16, 42.1 40.25 C41.22 41.33, 40.22 42.36, 39.16 43.27 C38.11 44.18, 36.96 45.01, 35.76 45.72 C34.57 46.43, 33.29 47.04, 31.99 47.52 C30.7 48.01, 29.34 48.38, 27.98 48.63 C26.62 48.87, 25.22 49, 23.84 49 C22.46 49, 21.06 48.87, 19.7 48.63 C18.34 48.38, 16.98 48.01, 15.69 47.52 C14.39 47.04, 13.12 46.43, 11.92 45.72 C10.72 45.01, 9.57 44.18, 8.52 43.27 C7.46 42.36, 6.46 41.33, 5.58 40.25 C4.69 39.16, 3.88 37.98, 3.19 36.75 C2.5 35.52, 1.91 34.21, 1.44 32.88 C0.97 31.55, 0.6 30.15, 0.36 28.75 C0.12 27.36, 0 25.92, 0 24.5 C0 23.08, 0.12 21.64, 0.36 20.25 C0.6 18.85, 0.97 17.45, 1.44 16.12 C1.91 14.79, 2.5 13.48, 3.19 12.25 C3.88 11.02, 4.69 9.84, 5.58 8.75 C6.46 7.67, 7.46 6.64, 8.52 5.73 C9.57 4.82, 10.72 3.99, 11.92 3.28 C13.12 2.57, 14.39 1.96, 15.69 1.48 C16.98 0.99, 18.34 0.62, 19.7 0.37 C21.06 0.13, 22.46 0, 23.84 0 C25.22 0, 26.62 0.13, 27.98 0.37 C29.34 0.62, 30.7 0.99, 31.99 1.48 C33.29 1.96, 34.57 2.57, 35.76 3.28 C36.96 3.99, 38.11 4.82, 39.16 5.73 C40.22 6.64, 41.22 7.67, 42.1 8.75 C42.99 9.84, 43.8 11.02, 44.49 12.25 C45.18 13.48, 45.77 14.79, 46.24 16.12 C46.71 17.45, 47.08 18.85, 47.32 20.25 C47.56 21.64, 47.62 23.79, 47.68 24.5 C47.74 25.21, 47.74 23.79, 47.68 24.5" stroke="#1e1e1e" stroke-width="2" fill="none"/></g><g stroke-linecap="round" transform="translate(95.43962589323849 10) rotate(0 23.840042114257812 24.5)"><path d="M47.68 24.5 C47.68 25.92, 47.56 27.36, 47.32 28.75 C47.08 30.15, 46.71 31.55, 46.24 32.88 C45.77 34.21, 45.18 35.52, 44.49 36.75 C43.8 37.98, 42.99 39.16, 42.1 40.25 C41.22 41.33, 40.22 42.36, 39.16 43.27 C38.11 44.18, 36.96 45.01, 35.76 45.72 C34.57 46.43, 33.29 47.04, 31.99 47.52 C30.7 48.01, 29.34 48.38, 27.98 48.63 C26.62 48.87, 25.22 49, 23.84 49 C22.46 49, 21.06 48.87, 19.7 48.63 C18.34 48.38, 16.98 48.01, 15.69 47.52 C14.39 47.04, 13.12 46.43, 11.92 45.72 C10.72 45.01, 9.57 44.18, 8.52 43.27 C7.46 42.36, 6.46 41.33, 5.58 40.25 C4.69 39.16, 3.88 37.98, 3.19 36.75 C2.5 35.52, 1.91 34.21, 1.44 32.88 C0.97 31.55, 0.6 30.15, 0.36 28.75 C0.12 27.36, 0 25.92, 0 24.5 C0 23.08, 0.12 21.64, 0.36 20.25 C0.6 18.85, 0.97 17.45, 1.44 16.12 C1.91 14.79, 2.5 13.48, 3.19 12.25 C3.88 11.02, 4.69 9.84, 5.58 8.75 C6.46 7.67, 7.46 6.64, 8.52 5.73 C9.57 4.82, 10.72 3.99, 11.92 3.28 C13.12 2.57, 14.39 1.96, 15.69 1.48 C16.98 0.99, 18.34 0.62, 19.7 0.37 C21.06 0.13, 22.46 0, 23.84 0 C25.22 0, 26.62 0.13, 27.98 0.37 C29.34 0.62, 30.7 0.99, 31.99 1.48 C33.29 1.96, 34.57 2.57, 35.76 3.28 C36.96 3.99, 38.11 4.82, 39.16 5.73 C40.22 6.64, 41.22 7.67, 42.1 8.75 C42.99 9.84, 43.8 11.02, 44.49 12.25 C45.18 13.48, 45.77 14.79, 46.24 16.12 C46.71 17.45, 47.08 18.85, 47.32 20.25 C47.56 21.64, 47.62 23.79, 47.68 24.5 C47.74 25.21, 47.74 23.79, 47.68 24.5" stroke="#1e1e1e" stroke-width="2" fill="none"/></g><g stroke-linecap="round" transform="translate(96.67705404442916 94.70713221030161) rotate(0 23.840042114257812 24.5)"><path d="M47.68 24.5 C47.68 25.92, 47.56 27.36, 47.32 28.75 C47.08 30.15, 46.71 31.55, 46.24 32.88 C45.77 34.21, 45.18 35.52, 44.49 36.75 C43.8 37.98, 42.99 39.16, 42.1 40.25 C41.22 41.33, 40.22 42.36, 39.16 43.27 C38.11 44.18, 36.96 45.01, 35.76 45.72 C34.57 46.43, 33.29 47.04, 31.99 47.52 C30.7 48.01, 29.34 48.38, 27.98 48.63 C26.62 48.87, 25.22 49, 23.84 49 C22.46 49, 21.06 48.87, 19.7 48.63 C18.34 48.38, 16.98 48.01, 15.69 47.52 C14.39 47.04, 13.12 46.43, 11.92 45.72 C10.72 45.01, 9.57 44.18, 8.52 43.27 C7.46 42.36, 6.46 41.33, 5.58 40.25 C4.69 39.16, 3.88 37.98, 3.19 36.75 C2.5 35.52, 1.91 34.21, 1.44 32.88 C0.97 31.55, 0.6 30.15, 0.36 28.75 C0.12 27.36, 0 25.92, 0 24.5 C0 23.08, 0.12 21.64, 0.36 20.25 C0.6 18.85, 0.97 17.45, 1.44 16.12 C1.91 14.79, 2.5 13.48, 3.19 12.25 C3.88 11.02, 4.69 9.84, 5.58 8.75 C6.46 7.67, 7.46 6.64, 8.52 5.73 C9.57 4.82, 10.72 3.99, 11.92 3.28 C13.12 2.57, 14.39 1.96, 15.69 1.48 C16.98 0.99, 18.34 0.62, 19.7 0.37 C21.06 0.13, 22.46 0, 23.84 0 C25.22 0, 26.62 0.13, 27.98 0.37 C29.34 0.62, 30.7 0.99, 31.99 1.48 C33.29 1.96, 34.57 2.57, 35.76 3.28 C36.96 3.99, 38.11 4.82, 39.16 5.73 C40.22 6.64, 41.22 7.67, 42.1 8.75 C42.99 9.84, 43.8 11.02, 44.49 12.25 C45.18 13.48, 45.77 14.79, 46.24 16.12 C46.71 17.45, 47.08 18.85, 47.32 20.25 C47.56 21.64, 47.62 23.79, 47.68 24.5 C47.74 25.21, 47.74 23.79, 47.68 24.5" stroke="#1e1e1e" stroke-width="2" fill="none"/></g><g stroke-linecap="round" transform="translate(96.33955491405459 186.16380073690567) rotate(0 23.840042114257812 24.5)"><path d="M47.68 24.5 C47.68 25.92, 47.56 27.36, 47.32 28.75 C47.08 30.15, 46.71 31.55, 46.24 32.88 C45.77 34.21, 45.18 35.52, 44.49 36.75 C43.8 37.98, 42.99 39.16, 42.1 40.25 C41.22 41.33, 40.22 42.36, 39.16 43.27 C38.11 44.18, 36.96 45.01, 35.76 45.72 C34.57 46.43, 33.29 47.04, 31.99 47.52 C30.7 48.01, 29.34 48.38, 27.98 48.63 C26.62 48.87, 25.22 49, 23.84 49 C22.46 49, 21.06 48.87, 19.7 48.63 C18.34 48.38, 16.98 48.01, 15.69 47.52 C14.39 47.04, 13.12 46.43, 11.92 45.72 C10.72 45.01, 9.57 44.18, 8.52 43.27 C7.46 42.36, 6.46 41.33, 5.58 40.25 C4.69 39.16, 3.88 37.98, 3.19 36.75 C2.5 35.52, 1.91 34.21, 1.44 32.88 C0.97 31.55, 0.6 30.15, 0.36 28.75 C0.12 27.36, 0 25.92, 0 24.5 C0 23.08, 0.12 21.64, 0.36 20.25 C0.6 18.85, 0.97 17.45, 1.44 16.12 C1.91 14.79, 2.5 13.48, 3.19 12.25 C3.88 11.02, 4.69 9.84, 5.58 8.75 C6.46 7.67, 7.46 6.64, 8.52 5.73 C9.57 4.82, 10.72 3.99, 11.92 3.28 C13.12 2.57, 14.39 1.96, 15.69 1.48 C16.98 0.99, 18.34 0.62, 19.7 0.37 C21.06 0.13, 22.46 0, 23.84 0 C25.22 0, 26.62 0.13, 27.98 0.37 C29.34 0.62, 30.7 0.99, 31.99 1.48 C33.29 1.96, 34.57 2.57, 35.76 3.28 C36.96 3.99, 38.11 4.82, 39.16 5.73 C40.22 6.64, 41.22 7.67, 42.1 8.75 C42.99 9.84, 43.8 11.02, 44.49 12.25 C45.18 13.48, 45.77 14.79, 46.24 16.12 C46.71 17.45, 47.08 18.85, 47.32 20.25 C47.56 21.64, 47.62 23.79, 47.68 24.5 C47.74 25.21, 47.74 23.79, 47.68 24.5" stroke="#1e1e1e" stroke-width="2" fill="none"/></g></svg>