<svg version="1.1" xmlns="http://www.w3.org/2000/svg" viewBox="0 0 191.50921508085958 136.23506388601015" width="191.50921508085958" height="136.23506388601015" class="excalidraw-svg">
  <!-- svg-source:excalidraw -->
  
  <defs>
    <style class="style-fonts">
      @font-face {
        font-family: "Virgil";
        src: url("https://excalidraw.com/Virgil.woff2");
      }
      @font-face {
        font-family: "Cascadia";
        src: url("https://excalidraw.com/Cascadia.woff2");
      }
      @font-face {
        font-family: "Assistant";
        src: url("https://excalidraw.com/Assistant-Regular.woff2");
      }
    </style>
    
  </defs>
  <g stroke-linecap="round"><g transform="translate(77.35926005375222 48.80204275310416) rotate(0 -14.891451247472787 14.891451247472787)"><path d="M0 0 C-4.96 4.96, -24.82 24.82, -29.78 29.78 M0 0 C-4.96 4.96, -24.82 24.82, -29.78 29.78" stroke="#1e1e1e" stroke-width="2" fill="none"/></g></g><mask/><g stroke-linecap="round"><g transform="translate(116.83196584248253 49.57550374247603) rotate(0 14.148252553456587 14.148252553456587)"><path d="M0 0 C4.72 4.72, 23.58 23.58, 28.3 28.3 M0 0 C4.72 4.72, 23.58 23.58, 28.3 28.3" stroke="#1e1e1e" stroke-width="2" fill="none"/></g></g><mask/><g stroke-linecap="round" transform="translate(73.32072245642121 10) rotate(0 23.840042114257812 24.5)"><path d="M47.68 24.5 C47.68 25.92, 47.56 27.36, 47.32 28.75 C47.08 30.15, 46.71 31.55, 46.24 32.88 C45.77 34.21, 45.18 35.52, 44.49 36.75 C43.8 37.98, 42.99 39.16, 42.1 40.25 C41.22 41.33, 40.22 42.36, 39.16 43.27 C38.11 44.18, 36.96 45.01, 35.76 45.72 C34.57 46.43, 33.29 47.04, 31.99 47.52 C30.7 48.01, 29.34 48.38, 27.98 48.63 C26.62 48.87, 25.22 49, 23.84 49 C22.46 49, 21.06 48.87, 19.7 48.63 C18.34 48.38, 16.98 48.01, 15.69 47.52 C14.39 47.04, 13.12 46.43, 11.92 45.72 C10.72 45.01, 9.57 44.18, 8.52 43.27 C7.46 42.36, 6.46 41.33, 5.58 40.25 C4.69 39.16, 3.88 37.98, 3.19 36.75 C2.5 35.52, 1.91 34.21, 1.44 32.88 C0.97 31.55, 0.6 30.15, 0.36 28.75 C0.12 27.36, 0 25.92, 0 24.5 C0 23.08, 0.12 21.64, 0.36 20.25 C0.6 18.85, 0.97 17.45, 1.44 16.12 C1.91 14.79, 2.5 13.48, 3.19 12.25 C3.88 11.02, 4.69 9.84, 5.58 8.75 C6.46 7.67, 7.46 6.64, 8.52 5.73 C9.57 4.82, 10.72 3.99, 11.92 3.28 C13.12 2.57, 14.39 1.96, 15.69 1.48 C16.98 0.99, 18.34 0.62, 19.7 0.37 C21.06 0.13, 22.46 0, 23.84 0 C25.22 0, 26.62 0.13, 27.98 0.37 C29.34 0.62, 30.7 0.99, 31.99 1.48 C33.29 1.96, 34.57 2.57, 35.76 3.28 C36.96 3.99, 38.11 4.82, 39.16 5.73 C40.22 6.64, 41.22 7.67, 42.1 8.75 C42.99 9.84, 43.8 11.02, 44.49 12.25 C45.18 13.48, 45.77 14.79, 46.24 16.12 C46.71 17.45, 47.08 18.85, 47.32 20.25 C47.56 21.64, 47.62 23.79, 47.68 24.5 C47.74 25.21, 47.74 23.79, 47.68 24.5" stroke="#868e96" stroke-width="2" fill="none"/></g><g stroke-linecap="round" transform="translate(10 75.84276509251822) rotate(0 23.840042114257812 24.5)"><path d="M47.68 24.5 C47.68 25.92, 47.56 27.36, 47.32 28.75 C47.08 30.15, 46.71 31.55, 46.24 32.88 C45.77 34.21, 45.18 35.52, 44.49 36.75 C43.8 37.98, 42.99 39.16, 42.1 40.25 C41.22 41.33, 40.22 42.36, 39.16 43.27 C38.11 44.18, 36.96 45.01, 35.76 45.72 C34.57 46.43, 33.29 47.04, 31.99 47.52 C30.7 48.01, 29.34 48.38, 27.98 48.63 C26.62 48.87, 25.22 49, 23.84 49 C22.46 49, 21.06 48.87, 19.7 48.63 C18.34 48.38, 16.98 48.01, 15.69 47.52 C14.39 47.04, 13.12 46.43, 11.92 45.72 C10.72 45.01, 9.57 44.18, 8.52 43.27 C7.46 42.36, 6.46 41.33, 5.58 40.25 C4.69 39.16, 3.88 37.98, 3.19 36.75 C2.5 35.52, 1.91 34.21, 1.44 32.88 C0.97 31.55, 0.6 30.15, 0.36 28.75 C0.12 27.36, 0 25.92, 0 24.5 C0 23.08, 0.12 21.64, 0.36 20.25 C0.6 18.85, 0.97 17.45, 1.44 16.12 C1.91 14.79, 2.5 13.48, 3.19 12.25 C3.88 11.02, 4.69 9.84, 5.58 8.75 C6.46 7.67, 7.46 6.64, 8.52 5.73 C9.57 4.82, 10.72 3.99, 11.92 3.28 C13.12 2.57, 14.39 1.96, 15.69 1.48 C16.98 0.99, 18.34 0.62, 19.7 0.37 C21.06 0.13, 22.46 0, 23.84 0 C25.22 0, 26.62 0.13, 27.98 0.37 C29.34 0.62, 30.7 0.99, 31.99 1.48 C33.29 1.96, 34.57 2.57, 35.76 3.28 C36.96 3.99, 38.11 4.82, 39.16 5.73 C40.22 6.64, 41.22 7.67, 42.1 8.75 C42.99 9.84, 43.8 11.02, 44.49 12.25 C45.18 13.48, 45.77 14.79, 46.24 16.12 C46.71 17.45, 47.08 18.85, 47.32 20.25 C47.56 21.64, 47.62 23.79, 47.68 24.5 C47.74 25.21, 47.74 23.79, 47.68 24.5" stroke="#1e1e1e" stroke-width="2" fill="none"/></g><g stroke-linecap="round" transform="translate(133.82913085234395 75.50341097445107) rotate(0 23.840042114257812 24.5)"><path d="M47.68 24.5 C47.68 25.92, 47.56 27.36, 47.32 28.75 C47.08 30.15, 46.71 31.55, 46.24 32.88 C45.77 34.21, 45.18 35.52, 44.49 36.75 C43.8 37.98, 42.99 39.16, 42.1 40.25 C41.22 41.33, 40.22 42.36, 39.16 43.27 C38.11 44.18, 36.96 45.01, 35.76 45.72 C34.57 46.43, 33.29 47.04, 31.99 47.52 C30.7 48.01, 29.34 48.38, 27.98 48.63 C26.62 48.87, 25.22 49, 23.84 49 C22.46 49, 21.06 48.87, 19.7 48.63 C18.34 48.38, 16.98 48.01, 15.69 47.52 C14.39 47.04, 13.12 46.43, 11.92 45.72 C10.72 45.01, 9.57 44.18, 8.52 43.27 C7.46 42.36, 6.46 41.33, 5.58 40.25 C4.69 39.16, 3.88 37.98, 3.19 36.75 C2.5 35.52, 1.91 34.21, 1.44 32.88 C0.97 31.55, 0.6 30.15, 0.36 28.75 C0.12 27.36, 0 25.92, 0 24.5 C0 23.08, 0.12 21.64, 0.36 20.25 C0.6 18.85, 0.97 17.45, 1.44 16.12 C1.91 14.79, 2.5 13.48, 3.19 12.25 C3.88 11.02, 4.69 9.84, 5.58 8.75 C6.46 7.67, 7.46 6.64, 8.52 5.73 C9.57 4.82, 10.72 3.99, 11.92 3.28 C13.12 2.57, 14.39 1.96, 15.69 1.48 C16.98 0.99, 18.34 0.62, 19.7 0.37 C21.06 0.13, 22.46 0, 23.84 0 C25.22 0, 26.62 0.13, 27.98 0.37 C29.34 0.62, 30.7 0.99, 31.99 1.48 C33.29 1.96, 34.57 2.57, 35.76 3.28 C36.96 3.99, 38.11 4.82, 39.16 5.73 C40.22 6.64, 41.22 7.67, 42.1 8.75 C42.99 9.84, 43.8 11.02, 44.49 12.25 C45.18 13.48, 45.77 14.79, 46.24 16.12 C46.71 17.45, 47.08 18.85, 47.32 20.25 C47.56 21.64, 47.62 23.79, 47.68 24.5 C47.74 25.21, 47.74 23.79, 47.68 24.5" stroke="#1e1e1e" stroke-width="2" fill="none"/></g><g stroke-linecap="round"><g transform="translate(58.05853759438378 101.60161242208733) rotate(0 37.65116938674893 0)"><path d="M0 0 C12.55 0, 62.75 0, 75.3 0 M0 0 C12.55 0, 62.75 0, 75.3 0" stroke="#1e1e1e" stroke-width="2" fill="none"/></g></g><mask/><g stroke-linecap="round"><g transform="translate(127.21570498565364 42.27566163913184) rotate(0 12.635485590413168 12.635485590413168)"><path d="M0 0 C4.21 4.21, 21.06 21.06, 25.27 25.27 M0 0 C4.21 4.21, 21.06 21.06, 25.27 25.27" stroke="#2f9e44" stroke-width="2" fill="none"/></g><g transform="translate(127.21570498565364 42.27566163913184) rotate(0 12.635485590413168 12.635485590413168)"><path d="M9.08 17.72 C15.09 20.53, 21.11 23.33, 25.27 25.27 M9.08 17.72 C12.99 19.54, 16.9 21.37, 25.27 25.27" stroke="#2f9e44" stroke-width="2" fill="none"/></g><g transform="translate(127.21570498565364 42.27566163913184) rotate(0 12.635485590413168 12.635485590413168)"><path d="M17.72 9.08 C20.53 15.09, 23.33 21.11, 25.27 25.27 M17.72 9.08 C19.54 12.99, 21.37 16.9, 25.27 25.27" stroke="#2f9e44" stroke-width="2" fill="none"/></g></g><mask/><g stroke-linecap="round"><g transform="translate(131.71967966996158 112.95473576956942) rotate(0 -34.04271675523228 0)"><path d="M0 0 C-11.35 0, -56.74 0, -68.09 0 M0 0 C-11.35 0, -56.74 0, -68.09 0" stroke="#2f9e44" stroke-width="2" fill="none"/></g><g transform="translate(131.71967966996158 112.95473576956942) rotate(0 -34.04271675523228 0)"><path d="M-44.59 -8.55 C-52.43 -5.7, -60.27 -2.85, -68.09 0 M-44.59 -8.55 C-52.62 -5.63, -60.66 -2.7, -68.09 0" stroke="#2f9e44" stroke-width="2" fill="none"/></g><g transform="translate(131.71967966996158 112.95473576956942) rotate(0 -34.04271675523228 0)"><path d="M-44.59 8.55 C-52.43 5.7, -60.27 2.85, -68.09 0 M-44.59 8.55 C-52.62 5.63, -60.66 2.7, -68.09 0" stroke="#2f9e44" stroke-width="2" fill="none"/></g></g><mask/><g stroke-linecap="round"><g transform="translate(40.54957050714103 67.67571453657297) rotate(0 14.306294524174092 -14.306294524174064)"><path d="M0 0 C4.77 -4.77, 23.84 -23.84, 28.61 -28.61 M0 0 C4.77 -4.77, 23.84 -23.84, 28.61 -28.61" stroke="#2f9e44" stroke-width="2" fill="none"/></g><g transform="translate(40.54957050714103 67.67571453657297) rotate(0 14.306294524174092 -14.306294524174064)"><path d="M20.06 -10.28 C23.2 -17.01, 26.34 -23.74, 28.61 -28.61 M20.06 -10.28 C22.95 -16.46, 25.83 -22.65, 28.61 -28.61" stroke="#2f9e44" stroke-width="2" fill="none"/></g><g transform="translate(40.54957050714103 67.67571453657297) rotate(0 14.306294524174092 -14.306294524174064)"><path d="M10.28 -20.06 C17.01 -23.2, 23.74 -26.34, 28.61 -28.61 M10.28 -20.06 C16.46 -22.95, 22.65 -25.83, 28.61 -28.61" stroke="#2f9e44" stroke-width="2" fill="none"/></g></g><mask/><g stroke-linecap="round"><g transform="translate(56.63234107272933 32.68550979403096) rotate(0 -14.209544486770625 13.818906031233439)"><path d="M0 0 C-4.74 4.61, -23.68 23.03, -28.42 27.64 M0 0 C-4.74 4.61, -23.68 23.03, -28.42 27.64" stroke="#e03131" stroke-width="2" fill="none"/></g><g transform="translate(56.63234107272933 32.68550979403096) rotate(0 -14.209544486770625 13.818906031233439)"><path d="M-19.79 9.79 C-22.66 15.73, -25.53 21.67, -28.42 27.64 M-19.79 9.79 C-23.13 16.7, -26.47 23.6, -28.42 27.64" stroke="#e03131" stroke-width="2" fill="none"/></g><g transform="translate(56.63234107272933 32.68550979403096) rotate(0 -14.209544486770625 13.818906031233439)"><path d="M-10.34 19.51 C-16.36 22.22, -22.37 24.92, -28.42 27.64 M-10.34 19.51 C-17.34 22.66, -24.33 25.8, -28.42 27.64" stroke="#e03131" stroke-width="2" fill="none"/></g></g><mask/><g stroke-linecap="round"><g transform="translate(64.60789488597163 126.23506388601015) rotate(0 34.04271675523228 0)"><path d="M0 0 C11.35 0, 56.74 0, 68.09 0 M0 0 C11.35 0, 56.74 0, 68.09 0" stroke="#e03131" stroke-width="2" fill="none"/></g><g transform="translate(64.60789488597163 126.23506388601015) rotate(0 34.04271675523228 0)"><path d="M44.59 8.55 C52.97 5.5, 61.35 2.45, 68.09 0 M44.59 8.55 C50.32 6.47, 56.05 4.38, 68.09 0" stroke="#e03131" stroke-width="2" fill="none"/></g><g transform="translate(64.60789488597163 126.23506388601015) rotate(0 34.04271675523228 0)"><path d="M44.59 -8.55 C52.97 -5.5, 61.35 -2.45, 68.09 0 M44.59 -8.55 C50.32 -6.47, 56.05 -4.38, 68.09 0" stroke="#e03131" stroke-width="2" fill="none"/></g></g><mask/><g stroke-linecap="round"><g transform="translate(160.84565279265826 58.790411156944515) rotate(0 -14.306294524174092 -14.306294524174064)"><path d="M0 0 C-4.77 -4.77, -23.84 -23.84, -28.61 -28.61 M0 0 C-4.77 -4.77, -23.84 -23.84, -28.61 -28.61" stroke="#e03131" stroke-width="2" fill="none"/></g><g transform="translate(160.84565279265826 58.790411156944515) rotate(0 -14.306294524174092 -14.306294524174064)"><path d="M-10.28 -20.06 C-16.87 -23.14, -23.46 -26.21, -28.61 -28.61 M-10.28 -20.06 C-14.19 -21.89, -18.11 -23.72, -28.61 -28.61" stroke="#e03131" stroke-width="2" fill="none"/></g><g transform="translate(160.84565279265826 58.790411156944515) rotate(0 -14.306294524174092 -14.306294524174064)"><path d="M-20.06 -10.28 C-23.14 -16.87, -26.21 -23.46, -28.61 -28.61 M-20.06 -10.28 C-21.89 -14.19, -23.72 -18.11, -28.61 -28.61" stroke="#e03131" stroke-width="2" fill="none"/></g></g><mask/></svg>