<svg width="310" height="117" viewBox="0 0 310 117" fill="none" xmlns="http://www.w3.org/2000/svg">
<circle cx="72" cy="61" r="44.5" stroke="black"/>
<circle cx="220" cy="61" r="44.5" stroke="black"/>
<circle cx="69.5" cy="35.5" r="2.5" fill="#D9D9D9"/>
<circle cx="94.5" cy="55.5" r="2.5" fill="#D9D9D9"/>
<circle cx="72.5" cy="86.5" r="2.5" fill="#D9D9D9"/>
<circle r="2.5" transform="matrix(-1 0 0 1 232.5 35.5)" fill="#D9D9D9"/>
<circle r="2.5" transform="matrix(-1 0 0 1 207.5 55.5)" fill="#D9D9D9"/>
<circle r="2.5" transform="matrix(-1 0 0 1 229.5 86.5)" fill="#D9D9D9"/>
<path d="M77.0464 34.2896C76.9302 34.5402 77.0391 34.8374 77.2896 34.9536L81.372 36.8469C81.6225 36.963 81.9198 36.8541 82.0359 36.6036C82.1521 36.3531 82.0432 36.0559 81.7927 35.9397L78.164 34.2568L79.8469 30.628C79.963 30.3775 79.8541 30.0802 79.6036 29.9641C79.3531 29.8479 79.0558 29.9568 78.9397 30.2073L77.0464 34.2896ZM224.554 34.9971C224.828 34.9673 225.027 34.7206 224.997 34.4461L224.512 29.9723C224.482 29.6978 224.236 29.4994 223.961 29.5291C223.686 29.5589 223.488 29.8056 223.518 30.0801L223.949 34.0568L219.972 34.488C219.698 34.5178 219.499 34.7645 219.529 35.039C219.559 35.3135 219.806 35.512 220.08 35.4822L224.554 34.9971ZM77.672 34.9695C94.4713 28.8153 121.976 21.4277 149.864 19.2735C177.776 17.1174 205.942 20.2149 224.187 34.8896L224.813 34.1104C206.258 19.1851 177.757 16.1159 149.786 18.2765C121.791 20.439 94.1954 27.8514 77.328 34.0305L77.672 34.9695Z" fill="black"/>
<path d="M105.097 53.2045C104.933 53.4273 104.982 53.7401 105.205 53.9033L108.835 56.5628C109.057 56.726 109.37 56.6777 109.533 56.4549C109.697 56.2322 109.648 55.9193 109.426 55.7561L106.199 53.3922L108.563 50.1654C108.726 49.9427 108.678 49.6298 108.455 49.4666C108.232 49.3034 107.919 49.3517 107.756 49.5745L105.097 53.2045ZM196.957 53.9981C197.232 54.022 197.474 53.8184 197.498 53.5433L197.888 49.0602C197.912 48.7851 197.708 48.5427 197.433 48.5188C197.158 48.4949 196.916 48.6985 196.892 48.9736L196.545 52.9586L192.56 52.612C192.285 52.5881 192.043 52.7917 192.019 53.0669C191.995 53.342 192.198 53.5844 192.474 53.6083L196.957 53.9981ZM105.576 53.9942C119.064 51.9126 139.82 49.4153 158.245 48.6871C167.459 48.3229 176.074 48.4021 182.899 49.192C186.312 49.587 189.261 50.1581 191.607 50.9328C193.964 51.7111 195.655 52.6766 196.617 53.8216L197.383 53.1784C196.245 51.8234 194.345 50.7837 191.921 49.9832C189.486 49.1792 186.463 48.5979 183.014 48.1986C176.114 47.4 167.441 47.3229 158.205 47.6879C139.73 48.418 118.936 50.9207 105.424 53.0059L105.576 53.9942Z" fill="black"/>
<path d="M84.7004 92.5997C84.4793 92.7652 84.4342 93.0785 84.5997 93.2996L87.2961 96.9023C87.4615 97.1234 87.7749 97.1685 87.996 97.003C88.2171 96.8376 88.2621 96.5242 88.0967 96.3031L85.6999 93.1007L88.9023 90.7039C89.1234 90.5385 89.1685 90.2251 89.003 90.004C88.8376 89.7829 88.5242 89.7379 88.3031 89.9033L84.7004 92.5997ZM219.476 93.1537C219.561 92.8909 219.416 92.6091 219.154 92.5242L214.872 91.1408C214.609 91.0559 214.327 91.2001 214.242 91.4628C214.157 91.7256 214.301 92.0075 214.564 92.0923L218.37 93.3221L217.141 97.1284C217.056 97.3911 217.2 97.673 217.463 97.7579C217.726 97.8427 218.007 97.6986 218.092 97.4358L219.476 93.1537ZM84.9288 93.4949C108.11 96.8304 136.256 99.5827 161.302 100.125C173.824 100.396 185.581 100.115 195.56 99.0754C205.525 98.0374 213.768 96.2387 219.228 93.4451L218.772 92.5549C213.482 95.2613 205.392 97.0459 195.456 98.0808C185.534 99.1143 173.822 99.3957 161.323 99.1251C136.327 98.584 108.223 95.8363 85.0712 92.5051L84.9288 93.4949Z" fill="black"/>
</svg>
