<svg width="310" height="117" viewBox="0 0 310 117" fill="none" xmlns="http://www.w3.org/2000/svg">
<g clip-path="url(#clip0_9_2)">
<path d="M0 68H310" stroke="black"/>
<path d="M58 48H48V87H58" stroke="black"/>
<path d="M87 48H77V87H87" stroke="black"/>
<path d="M116 48H106V87H116" stroke="black"/>
<path d="M135 48H145V87H135" stroke="black"/>
<path d="M164 48H174V87H164" stroke="black"/>
<path d="M193 48H203V87H193" stroke="black"/>
<path d="M310.5 68L306 71.5" stroke="black"/>
<path d="M310.5 68.5L306 65" stroke="black"/>
<path d="M284.539 59.6826H285.188L287.889 63.8615C288.07 64.1497 288.502 64.8522 288.7 65.1224C288.826 65.3385 288.88 65.3385 289.294 65.3385H291.78C292.104 65.3385 292.375 65.3385 292.375 65.0143C292.375 64.8702 292.266 64.7441 292.104 64.7081C291.438 64.564 290.555 63.3752 290.123 62.7988C289.997 62.6187 289.096 61.4298 287.889 59.4845C289.493 59.1963 291.042 58.5118 291.042 56.3683C291.042 53.8646 288.394 53 286.268 53H280.612C280.288 53 280 53 280 53.3242C280 53.6304 280.342 53.6304 280.486 53.6304C281.513 53.6304 281.603 53.7565 281.603 54.6571V63.6814C281.603 64.582 281.513 64.7081 280.486 64.7081C280.342 64.7081 280 64.7081 280 65.0143C280 65.3385 280.288 65.3385 280.612 65.3385H285.548C285.872 65.3385 286.142 65.3385 286.142 65.0143C286.142 64.7081 285.836 64.7081 285.638 64.7081C284.611 64.7081 284.539 64.564 284.539 63.6814V59.6826ZM288.016 58.8C288.52 58.1335 288.574 57.1789 288.574 56.3863C288.574 55.5217 288.466 54.5671 287.889 53.8286C288.628 53.9907 290.411 54.5491 290.411 56.3683C290.411 57.5391 289.871 58.4578 288.016 58.8ZM284.539 54.6031C284.539 54.2248 284.539 53.6304 285.656 53.6304C287.187 53.6304 287.943 54.2609 287.943 56.3863C287.943 58.7099 287.385 59.0522 284.539 59.0522V54.6031ZM282.089 64.7081C282.234 64.3839 282.234 63.8795 282.234 63.7174V54.6211C282.234 54.441 282.234 53.9547 282.089 53.6304H284.143C283.909 53.9186 283.909 54.2789 283.909 54.5491V63.7174C283.909 63.8975 283.909 64.3839 284.053 64.7081H282.089ZM285.926 59.6826C286.052 59.6646 286.124 59.6466 286.268 59.6466C286.539 59.6466 286.935 59.6106 287.205 59.5745C287.475 60.0068 289.421 63.2131 290.916 64.7081H289.168L285.926 59.6826Z" fill="black"/>
<path d="M203.043 101.952H202.647C202.593 102.258 202.448 103.249 202.268 103.537C202.142 103.699 201.116 103.699 200.575 103.699H197.243C197.729 103.285 198.828 102.132 199.296 101.7C202.034 99.1783 203.043 98.2416 203.043 96.4584C203.043 94.387 201.404 93 199.314 93C197.225 93 196 94.7832 196 96.3323C196 97.2509 196.793 97.2509 196.847 97.2509C197.225 97.2509 197.693 96.9808 197.693 96.4044C197.693 95.9 197.351 95.5578 196.847 95.5578C196.684 95.5578 196.648 95.5578 196.594 95.5758C196.937 94.3509 197.909 93.5224 199.08 93.5224C200.611 93.5224 201.548 94.8012 201.548 96.4584C201.548 97.9895 200.665 99.3224 199.639 100.475L196 104.546V104.978H202.575L203.043 101.952Z" fill="black"/>
<path d="M51.3311 99.2143C51.3311 97.7193 51.241 96.2603 50.5926 94.8913C49.854 93.3963 48.5572 93 47.6745 93C46.6298 93 45.3509 93.5224 44.6845 95.0174C44.1801 96.1522 44 97.269 44 99.2143C44 100.962 44.1261 102.276 44.7745 103.555C45.477 104.924 46.7199 105.357 47.6565 105.357C49.2236 105.357 50.1242 104.42 50.6466 103.375C51.295 102.024 51.3311 100.259 51.3311 99.2143ZM47.6565 104.996C47.0801 104.996 45.9093 104.672 45.5671 102.709C45.3689 101.628 45.3689 100.259 45.3689 98.9981C45.3689 97.5211 45.3689 96.1882 45.6571 95.1255C45.9634 93.9186 46.882 93.3603 47.6565 93.3603C48.341 93.3603 49.3857 93.7745 49.728 95.3236C49.9621 96.3503 49.9621 97.7733 49.9621 98.9981C49.9621 100.205 49.9621 101.574 49.764 102.673C49.4217 104.654 48.287 104.996 47.6565 104.996Z" fill="black"/>
<path d="M80.5296 91.2547C80.5296 91.0106 80.5296 91 80.2844 91C79.9903 91.2866 79.3775 91.6793 78.1152 91.6793V91.9871C78.3971 91.9871 79.0099 91.9871 79.6839 91.7111V97.241C79.6839 97.6232 79.6472 97.7505 78.5687 97.7505H78.1888V98.0583C78.5197 98.0371 79.7084 98.0371 80.1129 98.0371C80.5173 98.0371 81.6938 98.0371 82.0247 98.0583V97.7505H81.6448C80.5663 97.7505 80.5296 97.6232 80.5296 97.241V91.2547Z" fill="#FA7070"/>
<path d="M83 102.373H77V102.798H83V102.373Z" fill="#FA7070"/>
<path d="M82.3924 110.736H82.1228C82.086 110.917 81.9879 111.501 81.8654 111.67C81.7796 111.766 81.081 111.766 80.7134 111.766H78.4461C78.777 111.522 79.5246 110.842 79.8432 110.588C81.7061 109.102 82.3924 108.55 82.3924 107.499C82.3924 106.278 81.2771 105.461 79.8555 105.461C78.4339 105.461 77.6005 106.512 77.6005 107.425C77.6005 107.966 78.1397 107.966 78.1765 107.966C78.4339 107.966 78.7525 107.807 78.7525 107.467C78.7525 107.17 78.5197 106.968 78.1765 106.968C78.0662 106.968 78.0417 106.968 78.0049 106.979C78.2378 106.257 78.8996 105.769 79.6962 105.769C80.7379 105.769 81.3752 106.523 81.3752 107.499C81.3752 108.401 80.7747 109.187 80.0761 109.866L77.6005 112.265V112.519H82.0737L82.3924 110.736Z" fill="#FA7070"/>
<path d="M169.631 95.1695C169.388 95.1798 169.331 95.1902 169.331 95.2834C169.331 95.387 169.402 95.387 169.659 95.387H170.317C171.532 95.387 172.076 96.112 172.076 97.1064C172.076 98.4633 171.104 98.8258 170.403 98.8258C169.717 98.8258 168.544 98.5876 168.13 97.9039C168.587 97.9557 169.002 97.7693 169.002 97.3964C169.002 97.096 168.701 96.8889 168.301 96.8889C167.958 96.8889 167.586 97.0339 167.586 97.4275C167.586 98.3493 168.859 99.1054 170.446 99.1054C172.147 99.1054 173.406 98.1629 173.406 97.1168C173.406 96.1638 172.347 95.4181 170.975 95.242C172.219 94.983 173.019 94.2269 173.019 93.419C173.019 92.6008 171.847 92 170.46 92C169.03 92 167.972 92.6318 167.972 93.3879C167.972 93.8023 168.415 93.8851 168.63 93.8851C168.93 93.8851 169.273 93.7298 169.273 93.419C169.273 93.0876 168.93 92.9426 168.616 92.9426C168.53 92.9426 168.501 92.9426 168.458 92.9529C169.002 92.2486 170.346 92.2486 170.417 92.2486C170.889 92.2486 171.818 92.404 171.818 93.419C171.818 93.6158 171.776 94.1959 171.361 94.6412C170.932 95.097 170.446 95.1281 170.06 95.1384L169.631 95.1695Z" fill="#FA7070"/>
<path d="M174 103.098H167V103.513H174V103.098Z" fill="#FA7070"/>
<path d="M173.291 111.26H172.977C172.934 111.436 172.819 112.006 172.676 112.171C172.576 112.265 171.761 112.265 171.332 112.265H168.687C169.073 112.026 169.945 111.363 170.317 111.115C172.49 109.665 173.291 109.126 173.291 108.101C173.291 106.91 171.99 106.112 170.331 106.112C168.673 106.112 167.701 107.137 167.701 108.028C167.701 108.557 168.33 108.557 168.373 108.557C168.673 108.557 169.045 108.401 169.045 108.07C169.045 107.78 168.773 107.583 168.373 107.583C168.244 107.583 168.215 107.583 168.172 107.593C168.444 106.889 169.216 106.412 170.146 106.412C171.361 106.412 172.104 107.148 172.104 108.101C172.104 108.981 171.404 109.748 170.589 110.411L167.701 112.751V113H172.919L173.291 111.26Z" fill="#FA7070"/>
<path d="M110.392 96.3377H110.123C110.086 96.5203 109.988 97.1109 109.865 97.2828C109.78 97.3794 109.081 97.3794 108.713 97.3794H106.446C106.777 97.1324 107.525 96.4451 107.843 96.1873C109.706 94.6837 110.392 94.1253 110.392 93.062C110.392 91.827 109.277 91 107.856 91C106.434 91 105.601 92.0632 105.601 92.9869C105.601 93.5346 106.14 93.5346 106.177 93.5346C106.434 93.5346 106.753 93.3735 106.753 93.0298C106.753 92.7291 106.52 92.525 106.177 92.525C106.066 92.525 106.042 92.525 106.005 92.5358C106.238 91.8055 106.9 91.3115 107.696 91.3115C108.738 91.3115 109.375 92.074 109.375 93.062C109.375 93.9749 108.775 94.7697 108.076 95.457L105.601 97.8842V98.142H110.074L110.392 96.3377Z" fill="#745FF8"/>
<path d="M111 102.508H105V102.937H111V102.508Z" fill="#745FF8"/>
<path d="M107.255 108.919C107.047 108.93 106.998 108.94 106.998 109.037C106.998 109.144 107.059 109.144 107.28 109.144H107.843C108.885 109.144 109.351 109.896 109.351 110.927C109.351 112.334 108.517 112.71 107.917 112.71C107.329 112.71 106.324 112.463 105.968 111.754C106.36 111.808 106.716 111.615 106.716 111.228C106.716 110.916 106.458 110.702 106.115 110.702C105.821 110.702 105.502 110.852 105.502 111.26C105.502 112.216 106.593 113 107.954 113C109.412 113 110.49 112.023 110.49 110.938C110.49 109.95 109.584 109.177 108.407 108.994C109.473 108.726 110.16 107.942 110.16 107.104C110.16 106.255 109.155 105.633 107.966 105.633C106.74 105.633 105.833 106.288 105.833 107.072C105.833 107.501 106.213 107.587 106.397 107.587C106.654 107.587 106.949 107.426 106.949 107.104C106.949 106.76 106.654 106.61 106.385 106.61C106.311 106.61 106.287 106.61 106.25 106.621C106.716 105.89 107.868 105.89 107.929 105.89C108.333 105.89 109.13 106.051 109.13 107.104C109.13 107.308 109.093 107.909 108.738 108.371C108.37 108.844 107.954 108.876 107.623 108.887L107.255 108.919Z" fill="#745FF8"/>
<path d="M143.162 91.2448C143.162 91.051 143.162 91 142.961 91C142.847 91 142.804 91 142.69 91.1224L138.386 95.8867V96.1825H142.146V97.1109C142.146 97.4883 142.118 97.5904 141.074 97.5904H140.788V97.8862C141.117 97.8658 142.247 97.8658 142.647 97.8658C143.047 97.8658 144.191 97.8658 144.52 97.8862V97.5904H144.234C143.204 97.5904 143.162 97.4883 143.162 97.1109V96.1825H144.606V95.8867H143.162V91.2448ZM142.218 92.0406V95.8867H138.743L142.218 92.0406Z" fill="#745FF8"/>
<path d="M145 102.033H138V102.441H145V102.033Z" fill="#745FF8"/>
<path d="M140.631 108.123C140.388 108.134 140.331 108.144 140.331 108.236C140.331 108.338 140.402 108.338 140.659 108.338H141.317C142.532 108.338 143.076 109.052 143.076 110.031C143.076 111.367 142.104 111.725 141.403 111.725C140.717 111.725 139.544 111.49 139.13 110.817C139.587 110.868 140.002 110.684 140.002 110.317C140.002 110.021 139.701 109.817 139.301 109.817C138.958 109.817 138.586 109.96 138.586 110.347C138.586 111.255 139.859 112 141.446 112C143.147 112 144.406 111.072 144.406 110.041C144.406 109.103 143.347 108.368 141.975 108.195C143.219 107.94 144.019 107.195 144.019 106.399C144.019 105.593 142.847 105.002 141.46 105.002C140.03 105.002 138.972 105.624 138.972 106.369C138.972 106.777 139.415 106.858 139.63 106.858C139.93 106.858 140.273 106.705 140.273 106.399C140.273 106.073 139.93 105.93 139.616 105.93C139.53 105.93 139.501 105.93 139.458 105.94C140.002 105.246 141.346 105.246 141.417 105.246C141.889 105.246 142.818 105.399 142.818 106.399C142.818 106.593 142.776 107.164 142.361 107.603C141.932 108.052 141.446 108.083 141.06 108.093L140.631 108.123Z" fill="#745FF8"/>
<path d="M125 58V77" stroke="black"/>
<path d="M125.548 42.4323C125.548 42.018 125.548 42 125.188 42C124.756 42.4863 123.855 43.1528 122 43.1528V43.6752C122.414 43.6752 123.315 43.6752 124.306 43.2068V52.5913C124.306 53.2398 124.252 53.4559 122.666 53.4559H122.108V53.9783C122.594 53.9423 124.342 53.9423 124.936 53.9423C125.53 53.9423 127.26 53.9423 127.746 53.9783V53.4559H127.188C125.602 53.4559 125.548 53.2398 125.548 52.5913V42.4323Z" fill="black"/>
</g>
<defs>
<clipPath id="clip0_9_2">
<rect width="310" height="117" fill="white"/>
</clipPath>
</defs>
</svg>
