<svg width="310" height="117" viewBox="0 0 310 117" fill="none" xmlns="http://www.w3.org/2000/svg">
<path d="M0 68H310" stroke="black"/>
<path d="M33.4998 42C-4.50021 51 3.49969 83 33.4997 93" stroke="black"/>
<path d="M160.5 43C198.5 52 190.5 84 160.5 94" stroke="black"/>
<path d="M59.5 52V84" stroke="black"/>
<path d="M98.5 52V84" stroke="black"/>
<path d="M132.5 52V84" stroke="black"/>
<path d="M95.575 29V27.77H97.81V19.28H95.575V18.05H101.425V19.28H99.19V27.77H101.425V29H95.575Z" fill="black"/>
<path d="M268.38 59V48.05H271.77C272.42 48.05 272.99 48.185 273.48 48.455C273.97 48.715 274.35 49.08 274.62 49.55C274.89 50.02 275.025 50.57 275.025 51.2C275.025 51.94 274.83 52.575 274.44 53.105C274.06 53.635 273.54 54 272.88 54.2L275.175 59H273.585L271.485 54.35H269.73V59H268.38ZM269.73 53.135H271.77C272.33 53.135 272.78 52.96 273.12 52.61C273.46 52.25 273.63 51.78 273.63 51.2C273.63 50.61 273.46 50.14 273.12 49.79C272.78 49.44 272.33 49.265 271.77 49.265H269.73V53.135Z" fill="black"/>
<path d="M56.65 98L59.185 94.321L56.806 90.85H58.184L59.601 93.06C59.6617 93.1553 59.718 93.2593 59.77 93.372C59.8307 93.4847 59.8783 93.5757 59.913 93.645C59.939 93.5757 59.978 93.4847 60.03 93.372C60.0907 93.2593 60.1513 93.1553 60.212 93.06L61.642 90.85H63.007L60.628 94.334L63.15 98H61.772L60.238 95.66C60.1773 95.5647 60.1167 95.4563 60.056 95.335C60.004 95.205 59.9563 95.101 59.913 95.023C59.8783 95.101 59.8263 95.205 59.757 95.335C59.6963 95.4563 59.6313 95.5647 59.562 95.66L58.015 98H56.65Z" fill="black"/>
<path d="M96.17 98V96.83L100.174 91.916H96.274V90.85H101.487V92.02L97.405 96.934H101.63V98H96.17Z" fill="black"/>
<path d="M131.314 100.34L132.367 97.558L129.715 90.85H131.015L132.679 95.27C132.74 95.4173 132.796 95.595 132.848 95.803C132.9 96.0023 132.943 96.1713 132.978 96.31C133.013 96.1713 133.056 96.0023 133.108 95.803C133.16 95.595 133.212 95.4173 133.264 95.27L134.824 90.85H136.085L132.562 100.34H131.314Z" fill="black"/>
</svg>
