<svg width="310" height="117" viewBox="0 0 310 117" fill="none" xmlns="http://www.w3.org/2000/svg">
<g clip-path="url(#clip0_48_2)">
<path d="M0 68H310" stroke="black"/>
<path d="M310.5 68L306 71.5" stroke="black"/>
<path d="M310.5 68.5L306 65" stroke="black"/>
<path d="M94 61V75" stroke="black"/>
<path d="M224 61V75" stroke="black"/>
<path d="M37 61V75" stroke="black"/>
<g clip-path="url(#clip1_48_2)">
<path d="M45.6692 80.8192C45.7292 80.4386 45.9609 79.999 46.3641 79.5006C46.7673 79.0021 47.2649 78.7483 47.8569 78.7393C48.1572 78.7393 48.4317 78.8209 48.6805 78.984C48.9293 79.1471 49.1138 79.351 49.2339 79.5957C49.5942 79.0248 50.0275 78.7393 50.5337 78.7393C50.8511 78.7393 51.1257 78.839 51.3573 79.0384C51.5889 79.2377 51.7091 79.5051 51.7176 79.8404C51.7176 80.1032 51.6576 80.3162 51.5375 80.4793C51.4174 80.6425 51.3015 80.7422 51.19 80.7784C51.0785 80.8147 50.9798 80.8328 50.894 80.8328C50.731 80.8328 50.598 80.7829 50.4951 80.6833C50.3921 80.5836 50.3406 80.4522 50.3406 80.289C50.3406 79.8721 50.5551 79.5867 50.9841 79.4326C50.8897 79.3148 50.7181 79.2559 50.4693 79.2559C50.3578 79.2559 50.2763 79.2649 50.2248 79.2831C49.8988 79.4281 49.6586 79.7271 49.5042 80.1803C48.9894 82.1831 48.732 83.3522 48.732 83.6876C48.732 83.9413 48.8006 84.1226 48.9379 84.2313C49.0752 84.3401 49.2253 84.3945 49.3883 84.3945C49.7058 84.3945 50.0189 84.2449 50.3278 83.9459C50.6366 83.6468 50.8468 83.2797 50.9584 82.8447C50.9841 82.7541 51.0098 82.7043 51.0356 82.6952C51.0613 82.6861 51.1299 82.6771 51.2415 82.668H51.293C51.4216 82.668 51.486 82.7043 51.486 82.7768C51.486 82.7858 51.4774 82.8357 51.4602 82.9263C51.323 83.4429 51.057 83.9005 50.6624 84.2993C50.2677 84.6981 49.8087 84.8975 49.2854 84.8975C48.6848 84.8975 48.2301 84.612 47.9213 84.041C47.5695 84.6029 47.1663 84.8839 46.7116 84.8839H46.6344C46.214 84.8839 45.9137 84.766 45.7335 84.5304C45.5534 84.2948 45.459 84.0456 45.4504 83.7827C45.4504 83.4927 45.5319 83.2571 45.6949 83.0758C45.8579 82.8946 46.051 82.804 46.274 82.804C46.6429 82.804 46.8274 82.9943 46.8274 83.3749C46.8274 83.5562 46.7759 83.7148 46.673 83.8507C46.57 83.9866 46.4714 84.0773 46.377 84.1226C46.2826 84.1679 46.2268 84.1906 46.2097 84.1906L46.1711 84.2042C46.1711 84.2132 46.1968 84.2313 46.2483 84.2585C46.2998 84.2857 46.3684 84.3174 46.4542 84.3537C46.54 84.3899 46.6215 84.4035 46.6987 84.3945C47.0076 84.3945 47.2735 84.1906 47.4966 83.7827C47.5738 83.6377 47.6725 83.3296 47.7926 82.8583C47.9127 82.3871 48.0328 81.8977 48.1529 81.3902C48.273 80.8826 48.3417 80.5836 48.3588 80.4929C48.4017 80.2482 48.4232 80.0715 48.4232 79.9628C48.4232 79.709 48.3588 79.5277 48.2301 79.419C48.1014 79.3102 47.9556 79.2559 47.7926 79.2559C47.4494 79.2559 47.1277 79.4009 46.8274 79.6909C46.5271 79.9809 46.3169 80.3525 46.1968 80.8056C46.1797 80.8872 46.1582 80.9325 46.1325 80.9415C46.1067 80.9506 46.0381 80.9597 45.9266 80.9687H45.7464C45.6949 80.9144 45.6692 80.8645 45.6692 80.8192Z" fill="black"/>
<path d="M53.2345 81.1646C53.5742 80.6456 54.0382 80.3861 54.6266 80.3861C54.9177 80.3861 55.2089 80.4694 55.5 80.6359C55.7912 80.8025 56.0277 81.0973 56.2097 81.5202C56.4341 82.052 56.5464 82.7824 56.5464 83.7115C56.5464 84.7046 56.4159 85.4639 56.1551 85.9893C56.0338 86.2584 55.867 86.4731 55.6547 86.6333C55.4424 86.7935 55.2574 86.8928 55.0997 86.9312C54.942 86.9697 54.7873 86.9921 54.6357 86.9985C54.478 86.9985 54.3203 86.9793 54.1626 86.9408C54.0049 86.9024 53.8199 86.7999 53.6076 86.6333C53.3953 86.4667 53.2285 86.252 53.1072 85.9893C52.8463 85.4639 52.7159 84.7046 52.7159 83.7115C52.7159 82.5966 52.8888 81.7476 53.2345 81.1646ZM55.2817 81.0492C55.0997 80.8442 54.8844 80.7417 54.6357 80.7417C54.3809 80.7417 54.1626 80.8442 53.9806 81.0492C53.829 81.2158 53.7289 81.4465 53.6804 81.7412C53.6318 82.036 53.6076 82.6511 53.6076 83.5866C53.6076 84.5989 53.6318 85.2653 53.6804 85.5857C53.7289 85.906 53.8381 86.1591 54.0079 86.3449C54.1777 86.5372 54.387 86.6333 54.6357 86.6333C54.8783 86.6333 55.0845 86.5372 55.2544 86.3449C55.4303 86.1527 55.5395 85.8836 55.5819 85.5376C55.6244 85.1916 55.6486 84.5413 55.6547 83.5866C55.6547 82.6575 55.6305 82.0456 55.5819 81.7508C55.5334 81.4561 55.4333 81.2222 55.2817 81.0492Z" fill="black"/>
<path d="M61.4955 81.5261C61.4955 81.5261 61.4955 81.4672 61.4955 81.3494C61.4955 81.2316 61.5556 81.1409 61.6757 81.0775H69.1526C69.2813 81.15 69.3456 81.2406 69.3456 81.3494C69.3456 81.4581 69.2813 81.5488 69.1526 81.6213H61.6757C61.5556 81.5578 61.4955 81.4672 61.4955 81.3494V81.5261Z" fill="black"/>
<path d="M75.7956 76.4691C75.7956 76.0431 75.9329 75.6942 76.2074 75.4223C76.4819 75.1504 76.8037 75.0099 77.1726 75.0009C77.3184 75.0099 77.5286 75.0462 77.8032 75.1096C78.0777 75.1731 78.3179 75.2274 78.5238 75.2728C78.7297 75.3181 78.8413 75.3498 78.8584 75.3679C79.0129 75.4404 79.0901 75.5673 79.0901 75.7486C79.0901 75.9117 79.0343 76.0658 78.9228 76.2108C78.8112 76.3558 78.6611 76.4283 78.4724 76.4283C78.2922 76.4283 78.0563 76.2969 77.7646 76.034C77.4729 75.7712 77.2155 75.6353 76.9924 75.6262C76.7694 75.6171 76.6021 75.6806 76.4905 75.8165C76.379 75.9525 76.3189 76.0839 76.3104 76.2108C76.3104 76.6095 76.735 77.3572 77.5844 78.4538C78.1592 79.2151 78.4466 79.99 78.4466 80.7784C78.4466 81.8931 78.1849 82.8538 77.6616 83.6604C77.1383 84.467 76.5592 84.8748 75.9243 84.8839H75.8342C75.2251 84.8839 74.7318 84.6754 74.3543 84.2585C73.9768 83.8416 73.7752 83.3115 73.7494 82.668C73.7494 81.4627 74.2427 80.425 75.2294 79.5549C75.5725 79.274 76.0058 79.0384 76.5291 78.848C76.5291 78.839 76.4991 78.771 76.439 78.6441C76.379 78.5172 76.3146 78.3722 76.246 78.2091C76.1774 78.046 76.1087 77.8647 76.0401 77.6653C75.9715 77.466 75.9157 77.262 75.8728 77.0536C75.8299 76.8452 75.8042 76.6503 75.7956 76.4691ZM74.7275 82.9807C74.7275 83.4066 74.8304 83.7465 75.0363 84.0002C75.2422 84.254 75.5339 84.3809 75.9114 84.3809C76.1602 84.3809 76.3833 84.2721 76.5806 84.0546C76.7779 83.8371 76.9281 83.5652 77.031 83.239C77.134 82.9127 77.2112 82.6091 77.2627 82.3282C77.3141 82.0472 77.3442 81.8025 77.3528 81.5941C77.3528 81.2769 77.3227 80.9778 77.2627 80.6968C77.2026 80.4159 77.1426 80.2075 77.0825 80.0715C77.0224 79.9356 76.9109 79.6818 76.7479 79.3102L76.6192 79.3646C76.2417 79.5006 75.9157 79.7453 75.6412 80.0987C75.3666 80.4522 75.1693 80.8419 75.0492 81.2678C74.9291 81.6938 74.8476 82.0427 74.8047 82.3146C74.7618 82.5864 74.736 82.8085 74.7275 82.9807Z" fill="black"/>
</g>
<g clip-path="url(#clip2_48_2)">
<path d="M35.1922 50.6C35.1922 50.5149 35.2139 50.417 35.2574 50.3064C35.3009 50.1957 35.3661 50.1404 35.4531 50.1404C35.464 50.1404 35.8554 50.1191 36.6274 50.0766C37.3994 50.034 37.7963 50.0085 37.818 50C37.9485 50 38.0138 50.0383 38.0138 50.1149C38.0138 50.1915 37.8289 50.8 37.4592 51.9404C37.3722 52.2298 37.2798 52.5277 37.182 52.834C37.0841 53.1404 37.0026 53.3702 36.9373 53.5234L36.8721 53.766C36.8721 53.7915 36.9047 53.7787 36.9699 53.7277C37.5027 53.3872 38.0518 53.217 38.6172 53.217C39.2914 53.217 39.835 53.4128 40.2482 53.8043C40.6614 54.1957 40.8734 54.6894 40.8843 55.2851C40.8843 56.2298 40.4548 57.0851 39.5958 57.8511C38.7368 58.617 37.8126 59 36.8231 59C36.2795 59 35.7847 58.8383 35.3389 58.5149C34.8931 58.1915 34.6648 57.6681 34.6539 56.9447V56.8298C34.6539 56.6511 34.6974 56.4043 34.7844 56.0894C34.8714 55.7745 35.1378 54.9362 35.5836 53.5745C36.1273 51.8979 36.3991 51.0085 36.3991 50.9064C36.3991 50.8043 36.1925 50.7447 35.7793 50.7277C35.7249 50.7277 35.6815 50.7277 35.6488 50.7277H35.5673C35.4586 50.7277 35.3879 50.7277 35.3553 50.7277C35.3226 50.7277 35.2846 50.7149 35.2411 50.6894C35.1976 50.6638 35.1813 50.634 35.1922 50.6ZM39.4817 54.7106V54.634C39.4817 54.0043 39.15 53.6894 38.4867 53.6894C38.3019 53.6894 38.1116 53.7234 37.9159 53.7915C37.7202 53.8596 37.5408 53.9489 37.3777 54.0596C37.2146 54.1702 37.0732 54.2723 36.9536 54.366C36.834 54.4596 36.7362 54.5532 36.66 54.6468L36.5622 54.7489L36.2197 55.8468C35.9805 56.5787 35.8609 57.0979 35.8609 57.4043C35.8609 57.8128 35.9913 58.1191 36.2523 58.3234C36.4263 58.4596 36.6437 58.5277 36.9047 58.5277C37.2635 58.5277 37.6278 58.3915 37.9975 58.1191C38.2693 57.9234 38.4867 57.6851 38.6498 57.4043C38.8129 57.1234 38.9924 56.6766 39.1881 56.0638C39.3838 55.4511 39.4817 55 39.4817 54.7106Z" fill="black"/>
</g>
<path d="M122 61C129 65.5 127.5 71.5 122 75" stroke="black"/>
<path d="M66.7043 61C59.7043 65.5 61.2043 71.5 66.7043 75" stroke="black"/>
<g clip-path="url(#clip3_48_2)">
<path d="M105.669 81.8192C105.729 81.4386 105.961 80.999 106.364 80.5006C106.767 80.0021 107.265 79.7483 107.857 79.7393C108.157 79.7393 108.432 79.8209 108.681 79.984C108.929 80.1471 109.114 80.351 109.234 80.5957C109.594 80.0248 110.027 79.7393 110.534 79.7393C110.851 79.7393 111.126 79.839 111.357 80.0384C111.589 80.2377 111.709 80.5051 111.718 80.8404C111.718 81.1032 111.658 81.3162 111.537 81.4793C111.417 81.6425 111.302 81.7422 111.19 81.7784C111.078 81.8147 110.98 81.8328 110.894 81.8328C110.731 81.8328 110.598 81.7829 110.495 81.6833C110.392 81.5836 110.341 81.4522 110.341 81.289C110.341 80.8721 110.555 80.5867 110.984 80.4326C110.89 80.3148 110.718 80.2559 110.469 80.2559C110.358 80.2559 110.276 80.2649 110.225 80.2831C109.899 80.4281 109.659 80.7271 109.504 81.1803C108.989 83.1831 108.732 84.3522 108.732 84.6876C108.732 84.9413 108.801 85.1226 108.938 85.2313C109.075 85.3401 109.225 85.3945 109.388 85.3945C109.706 85.3945 110.019 85.2449 110.328 84.9459C110.637 84.6468 110.847 84.2797 110.958 83.8447C110.984 83.7541 111.01 83.7043 111.036 83.6952C111.061 83.6861 111.13 83.6771 111.241 83.668H111.293C111.422 83.668 111.486 83.7043 111.486 83.7768C111.486 83.7858 111.477 83.8357 111.46 83.9263C111.323 84.4429 111.057 84.9005 110.662 85.2993C110.268 85.6981 109.809 85.8975 109.285 85.8975C108.685 85.8975 108.23 85.612 107.921 85.041C107.57 85.6029 107.166 85.8839 106.712 85.8839H106.634C106.214 85.8839 105.914 85.766 105.734 85.5304C105.553 85.2948 105.459 85.0456 105.45 84.7827C105.45 84.4927 105.532 84.2571 105.695 84.0758C105.858 83.8946 106.051 83.804 106.274 83.804C106.643 83.804 106.827 83.9943 106.827 84.3749C106.827 84.5562 106.776 84.7148 106.673 84.8507C106.57 84.9866 106.471 85.0773 106.377 85.1226C106.283 85.1679 106.227 85.1906 106.21 85.1906L106.171 85.2042C106.171 85.2132 106.197 85.2313 106.248 85.2585C106.3 85.2857 106.368 85.3174 106.454 85.3537C106.54 85.3899 106.621 85.4035 106.699 85.3945C107.008 85.3945 107.274 85.1906 107.497 84.7827C107.574 84.6377 107.672 84.3296 107.793 83.8583C107.913 83.3871 108.033 82.8977 108.153 82.3902C108.273 81.8826 108.342 81.5836 108.359 81.4929C108.402 81.2482 108.423 81.0715 108.423 80.9628C108.423 80.709 108.359 80.5277 108.23 80.419C108.101 80.3102 107.956 80.2559 107.793 80.2559C107.449 80.2559 107.128 80.4009 106.827 80.6909C106.527 80.9809 106.317 81.3525 106.197 81.8056C106.18 81.8872 106.158 81.9325 106.132 81.9415C106.107 81.9506 106.038 81.9597 105.927 81.9687H105.746C105.695 81.9144 105.669 81.8645 105.669 81.8192Z" fill="black"/>
<path d="M113.235 82.1646C113.574 81.6456 114.038 81.3861 114.627 81.3861C114.918 81.3861 115.209 81.4694 115.5 81.6359C115.791 81.8025 116.028 82.0973 116.21 82.5202C116.434 83.052 116.546 83.7824 116.546 84.7115C116.546 85.7046 116.416 86.4639 116.155 86.9893C116.034 87.2584 115.867 87.4731 115.655 87.6333C115.442 87.7935 115.257 87.8928 115.1 87.9312C114.942 87.9697 114.787 87.9921 114.636 87.9985C114.478 87.9985 114.32 87.9793 114.163 87.9408C114.005 87.9024 113.82 87.7999 113.608 87.6333C113.395 87.4667 113.228 87.252 113.107 86.9893C112.846 86.4639 112.716 85.7046 112.716 84.7115C112.716 83.5966 112.889 82.7476 113.235 82.1646ZM115.282 82.0492C115.1 81.8442 114.884 81.7417 114.636 81.7417C114.381 81.7417 114.163 81.8442 113.981 82.0492C113.829 82.2158 113.729 82.4465 113.68 82.7412C113.632 83.036 113.608 83.6511 113.608 84.5866C113.608 85.5989 113.632 86.2653 113.68 86.5857C113.729 86.906 113.838 87.1591 114.008 87.3449C114.178 87.5372 114.387 87.6333 114.636 87.6333C114.878 87.6333 115.085 87.5372 115.254 87.3449C115.43 87.1527 115.539 86.8836 115.582 86.5376C115.624 86.1916 115.649 85.5413 115.655 84.5866C115.655 83.6575 115.63 83.0456 115.582 82.7508C115.533 82.4561 115.433 82.2222 115.282 82.0492Z" fill="black"/>
<path d="M121.135 82.5261C121.135 82.5261 121.135 82.4672 121.135 82.3494C121.135 82.2316 121.195 82.1409 121.315 82.0775H125.163V80.0384L125.176 77.9992C125.262 77.8814 125.343 77.8225 125.421 77.8225C125.532 77.8225 125.618 77.8905 125.678 78.0264V82.0775H129.513C129.642 82.15 129.706 82.2406 129.706 82.3494C129.706 82.4581 129.642 82.5488 129.513 82.6213H125.678V86.6723C125.609 86.7992 125.532 86.8626 125.446 86.8626H125.421H125.395C125.292 86.8626 125.215 86.7992 125.163 86.6723V82.6213H121.315C121.195 82.5578 121.135 82.4672 121.135 82.3494V82.5261Z" fill="black"/>
<path d="M135.796 77.4691C135.796 77.0431 135.933 76.6942 136.207 76.4223C136.482 76.1504 136.804 76.0099 137.173 76.0009C137.318 76.0099 137.529 76.0462 137.803 76.1096C138.078 76.1731 138.318 76.2274 138.524 76.2728C138.73 76.3181 138.841 76.3498 138.858 76.3679C139.013 76.4404 139.09 76.5673 139.09 76.7486C139.09 76.9117 139.034 77.0658 138.923 77.2108C138.811 77.3558 138.661 77.4283 138.472 77.4283C138.292 77.4283 138.056 77.2969 137.765 77.034C137.473 76.7712 137.215 76.6353 136.992 76.6262C136.769 76.6171 136.602 76.6806 136.491 76.8165C136.379 76.9525 136.319 77.0839 136.31 77.2108C136.31 77.6095 136.735 78.3572 137.584 79.4538C138.159 80.2151 138.447 80.9899 138.447 81.7784C138.447 82.8931 138.185 83.8538 137.662 84.6604C137.138 85.467 136.559 85.8748 135.924 85.8839H135.834C135.225 85.8839 134.732 85.6754 134.354 85.2585C133.977 84.8416 133.775 84.3115 133.749 83.668C133.749 82.4627 134.243 81.425 135.229 80.5549C135.573 80.274 136.006 80.0384 136.529 79.848C136.529 79.839 136.499 79.771 136.439 79.6441C136.379 79.5172 136.315 79.3722 136.246 79.2091C136.177 79.046 136.109 78.8647 136.04 78.6653C135.971 78.466 135.916 78.262 135.873 78.0536C135.83 77.8452 135.804 77.6503 135.796 77.4691ZM134.727 83.9807C134.727 84.4066 134.83 84.7465 135.036 85.0002C135.242 85.254 135.534 85.3809 135.911 85.3809C136.16 85.3809 136.383 85.2721 136.581 85.0546C136.778 84.8371 136.928 84.5652 137.031 84.239C137.134 83.9127 137.211 83.6091 137.263 83.3282C137.314 83.0472 137.344 82.8025 137.353 82.5941C137.353 82.2769 137.323 81.9778 137.263 81.6968C137.203 81.4159 137.143 81.2075 137.083 81.0715C137.022 80.9356 136.911 80.6818 136.748 80.3102L136.619 80.3646C136.242 80.5006 135.916 80.7453 135.641 81.0987C135.367 81.4522 135.169 81.8419 135.049 82.2678C134.929 82.6938 134.848 83.0427 134.805 83.3146C134.762 83.5864 134.736 83.8085 134.727 83.9807Z" fill="black"/>
</g>
<g clip-path="url(#clip4_48_2)">
<path d="M88.5863 77.7633C88.6389 77.4408 88.8419 77.0685 89.1952 76.6462C89.5484 76.2239 89.9844 76.0089 90.5031 76.0012C90.7662 76.0012 91.0067 76.0703 91.2247 76.2085C91.4427 76.3467 91.6043 76.5195 91.7095 76.7268C92.0252 76.2431 92.4048 76.0012 92.8483 76.0012C93.1264 76.0012 93.3669 76.0857 93.5699 76.2546C93.7729 76.4235 93.8781 76.65 93.8856 76.9341C93.8856 77.1567 93.833 77.3372 93.7278 77.4754C93.6225 77.6136 93.521 77.698 93.4233 77.7287C93.3256 77.7595 93.2392 77.7748 93.164 77.7748C93.0212 77.7748 92.9047 77.7326 92.8145 77.6481C92.7243 77.5637 92.6792 77.4523 92.6792 77.3141C92.6792 76.961 92.8671 76.7191 93.2429 76.5886C93.1602 76.4888 93.0099 76.4389 92.7919 76.4389C92.6942 76.4389 92.6228 76.4466 92.5777 76.4619C92.2921 76.5848 92.0816 76.8381 91.9463 77.222C91.4953 78.9188 91.2698 79.9092 91.2698 80.1933C91.2698 80.4083 91.3299 80.5618 91.4502 80.654C91.5704 80.7461 91.702 80.7922 91.8448 80.7922C92.1229 80.7922 92.3973 80.6655 92.6679 80.4121C92.9385 80.1588 93.1227 79.8478 93.2204 79.4793C93.2429 79.4025 93.2655 79.3603 93.288 79.3526C93.3106 79.3449 93.3707 79.3372 93.4684 79.3296H93.5135C93.6263 79.3296 93.6827 79.3603 93.6827 79.4217C93.6827 79.4294 93.6751 79.4716 93.6601 79.5484C93.5398 79.986 93.3068 80.3737 92.961 80.7116C92.6153 81.0494 92.2131 81.2183 91.7546 81.2183C91.2284 81.2183 90.83 80.9764 90.5594 80.4927C90.2513 80.9688 89.898 81.2068 89.4996 81.2068H89.4319C89.0636 81.2068 88.8005 81.107 88.6427 80.9073C88.4848 80.7077 88.4021 80.4966 88.3946 80.2739C88.3946 80.0282 88.466 79.8286 88.6088 79.6751C88.7517 79.5215 88.9208 79.4447 89.1162 79.4447C89.4394 79.4447 89.6011 79.606 89.6011 79.9284C89.6011 80.082 89.556 80.2163 89.4658 80.3315C89.3756 80.4467 89.2891 80.5234 89.2064 80.5618C89.1237 80.6002 89.0749 80.6194 89.0599 80.6194L89.026 80.6309C89.026 80.6386 89.0486 80.654 89.0937 80.677C89.1388 80.7 89.1989 80.7269 89.2741 80.7576C89.3492 80.7883 89.4207 80.7998 89.4883 80.7922C89.7589 80.7922 89.9919 80.6194 90.1874 80.2739C90.255 80.1511 90.3415 79.89 90.4467 79.4908C90.5519 79.0915 90.6572 78.6769 90.7624 78.247C90.8676 77.817 90.9278 77.5637 90.9428 77.4869C90.9804 77.2796 90.9992 77.1299 90.9992 77.0377C90.9992 76.8228 90.9428 76.6692 90.83 76.5771C90.7173 76.4849 90.5895 76.4389 90.4467 76.4389C90.146 76.4389 89.8641 76.5617 89.6011 76.8074C89.338 77.0531 89.1538 77.3679 89.0486 77.7518C89.0335 77.8209 89.0148 77.8593 88.9922 77.8669C88.9697 77.8746 88.9095 77.8823 88.8118 77.89H88.654C88.6088 77.8439 88.5863 77.8017 88.5863 77.7633Z" fill="black"/>
<path d="M95.2146 78.0559C95.5122 77.6162 95.9188 77.3963 96.4343 77.3963C96.6894 77.3963 96.9444 77.4669 97.1995 77.608C97.4546 77.7492 97.6619 77.9989 97.8213 78.3571C98.0179 78.8077 98.1163 79.4265 98.1163 80.2136C98.1163 81.0549 98.002 81.6982 97.7735 82.1433C97.6672 82.3713 97.5211 82.5531 97.335 82.6888C97.149 82.8245 96.987 82.9087 96.8488 82.9412C96.7106 82.9738 96.5751 82.9928 96.4422 82.9982C96.3041 82.9982 96.1659 82.9819 96.0277 82.9494C95.8896 82.9168 95.7275 82.83 95.5415 82.6888C95.3555 82.5477 95.2093 82.3658 95.103 82.1433C94.8745 81.6982 94.7603 81.0549 94.7603 80.2136C94.7603 79.2691 94.9117 78.5498 95.2146 78.0559ZM97.0082 77.9582C96.8488 77.7845 96.6601 77.6976 96.4422 77.6976C96.219 77.6976 96.0277 77.7845 95.8683 77.9582C95.7354 78.0993 95.6477 78.2947 95.6052 78.5444C95.5627 78.7941 95.5415 79.3152 95.5415 80.1077C95.5415 80.9654 95.5627 81.5299 95.6052 81.8013C95.6477 82.0727 95.7434 82.2871 95.8922 82.4446C96.041 82.6074 96.2244 82.6888 96.4422 82.6888C96.6548 82.6888 96.8355 82.6074 96.9843 82.4446C97.1384 82.2817 97.2341 82.0537 97.2713 81.7606C97.3085 81.4675 97.3297 80.9165 97.335 80.1077C97.335 79.3206 97.3138 78.8022 97.2713 78.5525C97.2288 78.3029 97.1411 78.1047 97.0082 77.9582Z" fill="black"/>
</g>
<g clip-path="url(#clip5_48_2)">
<path d="M220.438 79.7783C220.438 78.8825 220.773 78.031 221.443 77.2239C222.113 76.4169 222.867 76.0089 223.705 76C224.155 76 224.551 76.2173 224.895 76.6519C225.036 76.3858 225.239 76.2528 225.504 76.2528C225.618 76.2528 225.72 76.2882 225.808 76.3592C225.896 76.4302 225.94 76.5188 225.94 76.6253C225.94 76.7406 225.777 77.4501 225.451 78.7539C225.125 80.0576 224.957 80.7938 224.948 80.9623C224.948 81.184 224.979 81.3304 225.041 81.4013C225.103 81.4723 225.195 81.5122 225.319 81.5211C225.398 81.5122 225.486 81.4723 225.583 81.4013C225.768 81.2239 225.949 80.7982 226.125 80.1242C226.178 79.9468 226.222 79.8537 226.258 79.8448C226.275 79.8359 226.319 79.8315 226.39 79.8315H226.443C226.61 79.8315 226.694 79.8714 226.694 79.9512C226.694 80.0044 226.672 80.1242 226.628 80.3104C226.584 80.4967 226.496 80.7361 226.363 81.0288C226.231 81.3215 226.09 81.5432 225.94 81.694C225.826 81.8093 225.685 81.9024 225.517 81.9734C225.446 81.9911 225.341 82 225.2 82C224.9 82 224.648 81.9335 224.446 81.8004C224.243 81.6674 224.111 81.5299 224.049 81.388L223.97 81.1885C223.961 81.1796 223.943 81.184 223.917 81.2018C223.899 81.2195 223.881 81.2373 223.864 81.255C223.344 81.7517 222.814 82 222.277 82C221.792 82 221.364 81.8226 220.994 81.4678C220.623 81.1131 220.438 80.5499 220.438 79.7783ZM224.644 77.5033C224.644 77.4501 224.622 77.3525 224.578 77.2106C224.534 77.0687 224.432 76.9135 224.274 76.745C224.115 76.5765 223.912 76.4878 223.665 76.4789C223.357 76.4789 223.061 76.6164 222.779 76.8914C222.497 77.1663 222.277 77.5255 222.118 77.969C221.862 78.6696 221.681 79.3969 221.576 80.1508C221.576 80.1774 221.576 80.2262 221.576 80.2971C221.576 80.3681 221.571 80.4213 221.562 80.4568C221.562 80.8559 221.642 81.1308 221.8 81.2816C221.959 81.4324 222.149 81.5122 222.369 81.5211C222.704 81.5211 223.035 81.3747 223.361 81.082C223.687 80.7894 223.881 80.5632 223.943 80.4035C223.961 80.3681 224.08 79.8936 224.3 78.98C224.521 78.0665 224.635 77.5743 224.644 77.5033Z" fill="black"/>
</g>
<g clip-path="url(#clip6_48_2)">
<path d="M73.7107 46.582C73.422 46.582 73.2509 46.5773 73.1974 46.568C73.144 46.5587 73.1172 46.5073 73.1172 46.414C73.1172 46.162 73.176 46.008 73.2937 45.952C73.3044 45.9427 73.9993 45.938 75.3786 45.938C78.1479 45.938 79.6073 45.9473 79.757 45.966C80.4306 46.0593 80.9919 46.2693 81.441 46.596C81.8901 46.9227 82.12 47.352 82.1307 47.884C82.1307 48.4813 81.8206 49.018 81.2004 49.494C80.5803 49.97 79.8693 50.292 79.0674 50.46L78.907 50.502C79.5913 50.586 80.1526 50.8007 80.591 51.146C81.0294 51.4913 81.2539 51.9207 81.2646 52.434C81.2646 53.1153 80.8797 53.7733 80.1099 54.408C79.34 55.0427 78.3938 55.402 77.2711 55.486C77.1963 55.4953 76.0683 55.5 73.8871 55.5C71.7487 55.5 70.6634 55.4907 70.6313 55.472C70.5886 55.444 70.5672 55.4067 70.5672 55.36C70.5672 55.2947 70.5779 55.2293 70.5993 55.164C70.6527 54.9867 70.7062 54.8887 70.7596 54.87C70.8024 54.8607 70.8826 54.856 71.0002 54.856H71.0964C71.3851 54.856 71.7059 54.842 72.0587 54.814C72.2084 54.786 72.31 54.73 72.3635 54.646C72.3955 54.6087 72.7804 53.3113 73.5182 50.754C74.2559 48.1967 74.6248 46.848 74.6248 46.708C74.6248 46.6427 74.3201 46.6007 73.7107 46.582ZM80.4146 47.884C80.4146 47.604 80.3344 47.3427 80.174 47.1C80.0136 46.8573 79.7517 46.6987 79.3881 46.624C79.3133 46.6053 78.8215 46.5913 77.9126 46.582C77.6988 46.582 77.4743 46.582 77.239 46.582C77.0038 46.582 76.8167 46.5867 76.6777 46.596H76.4692C76.3088 46.6053 76.2072 46.652 76.1645 46.736C76.1431 46.7733 75.972 47.3333 75.6513 48.416C75.6513 48.444 75.6459 48.472 75.6352 48.5L75.138 50.264H76.4371C77.3032 50.264 77.8004 50.2547 77.9287 50.236C78.5702 50.1427 79.1422 49.872 79.6447 49.424C80.1473 48.976 80.4039 48.4627 80.4146 47.884ZM79.5485 52.294C79.5485 51.8833 79.4256 51.5427 79.1796 51.272C78.9337 51.0013 78.613 50.8427 78.2174 50.796C78.1532 50.7867 77.7095 50.782 76.8862 50.782C75.6245 50.782 74.9884 50.7867 74.9777 50.796C74.9777 50.8147 74.8868 51.1553 74.705 51.818C74.5232 52.4807 74.3361 53.1387 74.1437 53.792L73.855 54.772C73.855 54.8093 73.9191 54.828 74.0475 54.828C74.1758 54.828 74.6088 54.8373 75.3465 54.856C76.2981 54.856 76.8113 54.8513 76.8862 54.842C77.5491 54.7767 78.1585 54.506 78.7145 54.03C79.2705 53.554 79.5485 52.9753 79.5485 52.294Z" fill="black"/>
<path d="M84.0713 59V45H86.2685V45.56H84.7128V58.44H86.2685V59H84.0713Z" fill="black"/>
<path d="M87.4713 51.454C87.5462 51.062 87.8349 50.6093 88.3374 50.096C88.8399 49.5827 89.4601 49.3213 90.1978 49.312C90.572 49.312 90.9142 49.396 91.2242 49.564C91.5343 49.732 91.7642 49.942 91.9139 50.194C92.363 49.606 92.9029 49.312 93.5337 49.312C93.9293 49.312 94.2715 49.4147 94.5602 49.62C94.8489 49.8253 94.9985 50.1007 95.0092 50.446C95.0092 50.7167 94.9344 50.936 94.7847 51.104C94.635 51.272 94.4907 51.3747 94.3517 51.412C94.2127 51.4493 94.0897 51.468 93.9828 51.468C93.7796 51.468 93.6139 51.4167 93.4856 51.314C93.3573 51.2113 93.2932 51.076 93.2932 50.908C93.2932 50.4787 93.5605 50.1847 94.0951 50.026C93.9775 49.9047 93.7636 49.844 93.4535 49.844C93.3145 49.844 93.213 49.8533 93.1488 49.872C92.7425 50.0213 92.4431 50.3293 92.2507 50.796C91.6092 52.8587 91.2884 54.0627 91.2884 54.408C91.2884 54.6693 91.3739 54.856 91.545 54.968C91.7161 55.08 91.9032 55.136 92.1063 55.136C92.5019 55.136 92.8922 54.982 93.2771 54.674C93.662 54.366 93.924 53.988 94.063 53.54C94.0951 53.4467 94.1271 53.3953 94.1592 53.386C94.1913 53.3767 94.2768 53.3673 94.4158 53.358H94.48C94.6404 53.358 94.7205 53.3953 94.7205 53.47C94.7205 53.4793 94.7099 53.5307 94.6885 53.624C94.5174 54.156 94.1859 54.6273 93.6941 55.038C93.2023 55.4487 92.6303 55.654 91.978 55.654C91.2296 55.654 90.6629 55.36 90.278 54.772C89.8396 55.3507 89.3371 55.64 88.7704 55.64H88.6742C88.1503 55.64 87.7761 55.5187 87.5515 55.276C87.327 55.0333 87.2094 54.7767 87.1987 54.506C87.1987 54.2073 87.3003 53.9647 87.5034 53.778C87.7066 53.5913 87.9471 53.498 88.2251 53.498C88.6849 53.498 88.9148 53.694 88.9148 54.086C88.9148 54.2727 88.8506 54.436 88.7223 54.576C88.594 54.716 88.471 54.8093 88.3534 54.856C88.2358 54.9027 88.1663 54.926 88.1449 54.926L88.0968 54.94C88.0968 54.9493 88.1289 54.968 88.193 54.996C88.2572 55.024 88.3427 55.0567 88.4497 55.094C88.5566 55.1313 88.6582 55.1453 88.7544 55.136C89.1393 55.136 89.4707 54.926 89.7487 54.506C89.845 54.3567 89.9679 54.0393 90.1176 53.554C90.2673 53.0687 90.417 52.5647 90.5667 52.042C90.7164 51.5193 90.8019 51.2113 90.8233 51.118C90.8768 50.866 90.9035 50.684 90.9035 50.572C90.9035 50.3107 90.8233 50.124 90.6629 50.012C90.5025 49.9 90.3208 49.844 90.1176 49.844C89.6899 49.844 89.289 49.9933 88.9148 50.292C88.5405 50.5907 88.2786 50.9733 88.1289 51.44C88.1075 51.524 88.0808 51.5707 88.0487 51.58C88.0166 51.5893 87.9311 51.5987 87.7921 51.608H87.5676C87.5034 51.552 87.4713 51.5007 87.4713 51.454Z" fill="black"/>
<path d="M96.8997 51.8097C97.323 51.2752 97.9013 51.0079 98.6345 51.0079C98.9974 51.0079 99.3602 51.0937 99.7231 51.2653C100.086 51.4368 100.381 51.7404 100.608 52.1759C100.887 52.7236 101.027 53.4758 101.027 54.4326C101.027 55.4554 100.865 56.2374 100.539 56.7785C100.388 57.0556 100.18 57.2767 99.9158 57.4416C99.6513 57.6066 99.4207 57.7089 99.2242 57.7485C99.0276 57.7881 98.8349 57.8112 98.6459 57.8178C98.4493 57.8178 98.2528 57.798 98.0562 57.7584C97.8597 57.7188 97.6291 57.6132 97.3646 57.4416C97.1 57.2701 96.8921 57.049 96.7409 56.7785C96.4159 56.2374 96.2534 55.4554 96.2534 54.4326C96.2534 53.2845 96.4688 52.4101 96.8997 51.8097ZM99.4509 51.6909C99.2242 51.4797 98.9558 51.3742 98.6459 51.3742C98.3284 51.3742 98.0562 51.4797 97.8295 51.6909C97.6405 51.8625 97.5158 52.1 97.4553 52.4035C97.3948 52.7071 97.3646 53.3406 97.3646 54.304C97.3646 55.3466 97.3948 56.0328 97.4553 56.3628C97.5158 56.6927 97.6518 56.9533 97.8635 57.1447C98.0751 57.3427 98.3359 57.4416 98.6459 57.4416C98.9482 57.4416 99.2053 57.3427 99.4169 57.1447C99.6361 56.9467 99.7722 56.6696 99.8251 56.3133C99.878 55.9569 99.9083 55.2872 99.9158 54.304C99.9158 53.3472 99.8856 52.717 99.8251 52.4134C99.7646 52.1099 99.6399 51.8691 99.4509 51.6909Z" fill="black"/>
<path d="M103.535 55.01C103.535 55.01 103.535 54.8933 103.535 54.66C103.535 54.4267 103.621 54.226 103.792 54.058C103.963 53.89 104.193 53.806 104.481 53.806C104.781 53.806 105.048 53.9227 105.283 54.156C105.518 54.3893 105.641 54.8 105.652 55.388C105.652 55.7147 105.604 56.032 105.508 56.34C105.412 56.648 105.299 56.914 105.171 57.138C105.043 57.362 104.904 57.5533 104.754 57.712C104.604 57.8707 104.476 57.9967 104.369 58.09C104.262 58.1833 104.193 58.2253 104.161 58.216C104.118 58.216 104.048 58.174 103.952 58.09C103.856 58.006 103.808 57.9453 103.808 57.908C103.808 57.8707 103.867 57.796 103.984 57.684C104.102 57.572 104.235 57.432 104.385 57.264C104.535 57.096 104.674 56.8627 104.802 56.564C104.93 56.2653 105.016 55.9247 105.059 55.542V55.374L105.043 55.388C105.021 55.3973 104.995 55.4067 104.962 55.416C104.93 55.4253 104.898 55.4393 104.866 55.458C104.834 55.4767 104.786 55.486 104.722 55.486C104.658 55.486 104.594 55.4907 104.529 55.5C104.241 55.5 104.006 55.4207 103.824 55.262L103.535 55.01Z" fill="black"/>
<path d="M112.542 46.974C112.542 46.5353 112.713 46.176 113.055 45.896C113.397 45.616 113.798 45.4713 114.258 45.462C114.44 45.4713 114.702 45.5087 115.044 45.574C115.386 45.6393 115.686 45.6953 115.942 45.742C116.199 45.7887 116.338 45.8213 116.359 45.84C116.552 45.9147 116.648 46.0453 116.648 46.232C116.648 46.4 116.578 46.5587 116.439 46.708C116.3 46.8573 116.113 46.932 115.878 46.932C115.653 46.932 115.359 46.7967 114.996 46.526C114.632 46.2553 114.312 46.1153 114.034 46.106C113.756 46.0967 113.547 46.162 113.408 46.302C113.269 46.442 113.194 46.5773 113.184 46.708C113.184 47.1187 113.713 47.8887 114.771 49.018C115.488 49.802 115.846 50.6 115.846 51.412C115.846 52.56 115.52 53.5493 114.868 54.38C114.215 55.2107 113.494 55.6307 112.702 55.64H112.59C111.831 55.64 111.216 55.4253 110.746 54.996C110.275 54.5667 110.024 54.0207 109.992 53.358C109.992 52.1167 110.607 51.048 111.836 50.152C112.264 49.8627 112.804 49.62 113.456 49.424C113.456 49.4147 113.419 49.3447 113.344 49.214C113.269 49.0833 113.189 48.934 113.103 48.766C113.018 48.598 112.932 48.4113 112.847 48.206C112.761 48.0007 112.692 47.7907 112.638 47.576C112.585 47.3613 112.553 47.1607 112.542 46.974ZM111.211 53.68C111.211 54.1187 111.339 54.4687 111.596 54.73C111.852 54.9913 112.216 55.122 112.686 55.122C112.996 55.122 113.274 55.01 113.52 54.786C113.766 54.562 113.953 54.282 114.082 53.946C114.21 53.61 114.306 53.2973 114.37 53.008C114.435 52.7187 114.472 52.4667 114.483 52.252C114.483 51.9253 114.445 51.6173 114.37 51.328C114.296 51.0387 114.221 50.824 114.146 50.684C114.071 50.544 113.932 50.2827 113.729 49.9L113.568 49.956C113.098 50.096 112.692 50.348 112.35 50.712C112.007 51.076 111.762 51.4773 111.612 51.916C111.462 52.3547 111.361 52.714 111.307 52.994C111.254 53.274 111.222 53.5027 111.211 53.68Z" fill="black"/>
<path d="M118.428 59V45H120.625V45.56H119.07V58.44H120.625V59H118.428Z" fill="black"/>
</g>
<rect opacity="0.9" x="224" y="65" width="82" height="6" fill="#FBBDBD"/>
<rect opacity="0.9" y="65" width="37" height="6" fill="#FBBDBD"/>
</g>
<defs>
<clipPath id="clip0_48_2">
<rect width="310" height="117" fill="white"/>
</clipPath>
<clipPath id="clip1_48_2">
<rect width="34" height="12" fill="white" transform="translate(45 75)"/>
</clipPath>
<clipPath id="clip2_48_2">
<rect width="7" height="9" fill="white" transform="translate(34 50)"/>
</clipPath>
<clipPath id="clip3_48_2">
<rect width="34" height="12" fill="white" transform="translate(105 76)"/>
</clipPath>
<clipPath id="clip4_48_2">
<rect width="11" height="7" fill="white" transform="translate(88 76)"/>
</clipPath>
<clipPath id="clip5_48_2">
<rect width="7" height="6" fill="white" transform="translate(220 76)"/>
</clipPath>
<clipPath id="clip6_48_2">
<rect width="51" height="14" fill="white" transform="translate(70 45)"/>
</clipPath>
</defs>
</svg>
