<svg width="310" height="117" viewBox="0 0 310 117" fill="none" xmlns="http://www.w3.org/2000/svg">
<path d="M0 68H310" stroke="black"/>
<path d="M51.4998 42C13.4998 51 21.4997 83 51.4997 93" stroke="black"/>
<path d="M231.5 43C269.5 52 261.5 84 231.5 94" stroke="black"/>
<path d="M143 51V83" stroke="black"/>
<path d="M143.424 90.4364C143.034 90.5157 142.889 90.8331 142.889 91.0843C142.889 91.4017 143.12 91.5074 143.29 91.5074C143.655 91.5074 143.91 91.1636 143.91 90.8066C143.91 90.2512 143.326 90 142.816 90C142.074 90 141.66 90.7934 141.551 91.0446C141.271 90.0529 140.517 90 140.298 90C139.058 90 138.401 91.7322 138.401 92.0231C138.401 92.076 138.45 92.1422 138.535 92.1422C138.632 92.1422 138.657 92.0628 138.681 92.0099C139.094 90.5421 139.909 90.2645 140.262 90.2645C140.809 90.2645 140.919 90.8198 140.919 91.1372C140.919 91.4281 140.846 91.7322 140.7 92.3669L140.286 94.1785C140.104 94.9719 139.751 95.6992 139.107 95.6992C139.046 95.6992 138.742 95.6992 138.486 95.5273C138.924 95.4347 139.021 95.038 139.021 94.8793C139.021 94.6149 138.839 94.4562 138.608 94.4562C138.316 94.4562 138 94.7339 138 95.157C138 95.7124 138.572 95.9636 139.094 95.9636C139.678 95.9636 140.092 95.4612 140.347 94.919C140.542 95.6992 141.15 95.9636 141.6 95.9636C142.84 95.9636 143.497 94.2314 143.497 93.9405C143.497 93.8744 143.448 93.8215 143.375 93.8215C143.266 93.8215 143.253 93.8876 143.217 93.9934C142.889 95.157 142.183 95.6992 141.636 95.6992C141.21 95.6992 140.979 95.3554 140.979 94.8132C140.979 94.5223 141.028 94.3108 141.223 93.438L141.648 91.6397C141.831 90.8463 142.244 90.2645 142.803 90.2645C142.828 90.2645 143.168 90.2645 143.424 90.4364Z" fill="black"/>
<path d="M148.39 95.0027C148.39 94.0595 148.301 93.4865 148.034 92.9223C147.677 92.1465 147.02 91.9526 146.574 91.9526C145.553 91.9526 145.18 92.7813 145.066 93.0281C144.774 93.6716 144.758 94.5443 144.758 95.0027C144.758 95.5846 144.783 96.4749 145.172 97.1802C145.545 97.8325 146.145 98 146.574 98C146.963 98 147.661 97.8678 148.066 96.995C148.366 96.3603 148.39 95.5758 148.39 95.0027ZM146.574 97.7532C146.299 97.7532 145.739 97.6121 145.569 96.6865C145.48 96.184 145.48 95.3554 145.48 94.897C145.48 94.2887 145.48 93.6716 145.569 93.1868C145.739 92.2876 146.372 92.1994 146.574 92.1994C146.85 92.1994 147.409 92.3493 147.571 93.1515C147.669 93.6364 147.669 94.2975 147.669 94.897C147.669 95.4171 147.669 96.2105 147.571 96.7041C147.401 97.6298 146.842 97.7532 146.574 97.7532Z" fill="black"/>
<path d="M44.0336 92.5944C43.4572 92.7025 43.241 93.1348 43.241 93.477C43.241 93.9093 43.5832 94.0534 43.8354 94.0534C44.3758 94.0534 44.7541 93.5851 44.7541 93.0988C44.7541 92.3422 43.8895 92 43.1329 92C42.0342 92 41.4217 93.0807 41.2596 93.423C40.8453 92.0721 39.7286 92 39.4044 92C37.5671 92 36.5944 94.3596 36.5944 94.7559C36.5944 94.828 36.6665 94.918 36.7925 94.918C36.9366 94.918 36.9727 94.8099 37.0087 94.7379C37.6211 92.7385 38.828 92.3602 39.3503 92.3602C40.1609 92.3602 40.323 93.1168 40.323 93.5491C40.323 93.9453 40.2149 94.3596 39.9988 95.2242L39.3863 97.6919C39.1162 98.7727 38.5938 99.7634 37.6391 99.7634C37.5491 99.7634 37.0988 99.7634 36.7205 99.5292C37.3689 99.4031 37.513 98.8627 37.513 98.6466C37.513 98.2863 37.2429 98.0702 36.9006 98.0702C36.4683 98.0702 36 98.4485 36 99.0249C36 99.7814 36.8466 100.124 37.6211 100.124C38.4857 100.124 39.0981 99.4391 39.4764 98.7006C39.7646 99.7634 40.6652 100.124 41.3317 100.124C43.169 100.124 44.1416 97.764 44.1416 97.3677C44.1416 97.2776 44.0696 97.2056 43.9615 97.2056C43.7994 97.2056 43.7814 97.2957 43.7273 97.4398C43.241 99.0249 42.1963 99.7634 41.3857 99.7634C40.7553 99.7634 40.4131 99.295 40.4131 98.5565C40.4131 98.1603 40.4851 97.8721 40.7733 96.6832L41.4037 94.2335C41.6739 93.1528 42.2863 92.3602 43.1149 92.3602C43.1509 92.3602 43.6553 92.3602 44.0336 92.5944Z" fill="black"/>
<path d="M50.4295 98.0462C49.9372 98.1062 49.7811 98.4785 49.7811 98.7186C49.7811 99.0669 50.0933 99.1629 50.2494 99.1629C50.3095 99.1629 50.9219 99.1149 50.9219 98.3824C50.9219 97.6499 50.1293 97.3497 49.4088 97.3497C47.7037 97.3497 46.0465 99.0068 46.0465 100.688C46.0465 101.829 46.827 102.765 48.16 102.765C50.0573 102.765 51.054 101.553 51.054 101.396C51.054 101.288 50.9339 101.204 50.8618 101.204C50.7898 101.204 50.7538 101.24 50.6937 101.312C49.7451 102.429 48.4001 102.429 48.184 102.429C47.5355 102.429 47.0192 102.033 47.0192 101.12C47.0192 100.592 47.2593 99.319 47.8237 98.5745C48.3521 97.9021 48.9525 97.6859 49.4208 97.6859C49.5649 97.6859 50.1173 97.6979 50.4295 98.0462Z" fill="black"/>
<path d="M59.4381 99.9194C59.6302 99.9194 59.8944 99.9194 59.8944 99.6433C59.8944 99.3671 59.6302 99.3671 59.4381 99.3671H52.5573C52.3652 99.3671 52.101 99.3671 52.101 99.6433C52.101 99.9194 52.3652 99.9194 52.5573 99.9194H59.4381Z" fill="black"/>
<path d="M64.2342 97.4217C62.4209 97.9021 61.4963 99.4872 61.4963 100.712C61.4963 102.057 62.505 102.789 63.5497 102.789C64.9667 102.789 66.0474 101.06 66.0474 99.307C66.0474 98.1542 65.507 97.5178 65.0988 97.0495C64.7025 96.5811 63.8619 95.5965 63.8619 95.0561C63.8619 94.7919 64.1141 94.5277 64.5104 94.5277C64.9066 94.5277 65.1708 94.6958 65.495 94.888C65.7832 95.0681 65.9994 95.1642 66.1435 95.1642C66.4437 95.1642 66.6358 94.876 66.6358 94.6718C66.6358 94.3836 66.4917 94.3476 65.8793 94.2155C65.1948 94.0714 64.8466 94.0714 64.8346 94.0714C64.3182 94.0714 63.4656 94.3236 63.4656 95.3443C63.4656 95.9687 63.8019 96.6532 64.2342 97.4217ZM64.4263 97.746C64.8466 98.4544 65.1228 99.0549 65.1228 99.7994C65.1228 100.736 64.5824 102.453 63.5617 102.453C63.0814 102.453 62.3369 102.141 62.3369 101.036C62.3369 100.412 62.6971 98.2023 64.4263 97.746Z" fill="black"/>
<path d="M224.034 94.5944C223.457 94.7025 223.241 95.1348 223.241 95.477C223.241 95.9093 223.583 96.0534 223.835 96.0534C224.376 96.0534 224.754 95.5851 224.754 95.0988C224.754 94.3422 223.889 94 223.133 94C222.034 94 221.422 95.0807 221.26 95.423C220.845 94.0721 219.729 94 219.404 94C217.567 94 216.594 96.3596 216.594 96.7559C216.594 96.828 216.666 96.918 216.793 96.918C216.937 96.918 216.973 96.8099 217.009 96.7379C217.621 94.7385 218.828 94.3602 219.35 94.3602C220.161 94.3602 220.323 95.1168 220.323 95.5491C220.323 95.9453 220.215 96.3596 219.999 97.2242L219.386 99.6919C219.116 100.773 218.594 101.763 217.639 101.763C217.549 101.763 217.099 101.763 216.72 101.529C217.369 101.403 217.513 100.863 217.513 100.647C217.513 100.286 217.243 100.07 216.901 100.07C216.468 100.07 216 100.448 216 101.025C216 101.781 216.847 102.124 217.621 102.124C218.486 102.124 219.098 101.439 219.476 100.701C219.765 101.763 220.665 102.124 221.332 102.124C223.169 102.124 224.142 99.764 224.142 99.3677C224.142 99.2776 224.07 99.2056 223.962 99.2056C223.799 99.2056 223.781 99.2957 223.727 99.4398C223.241 101.025 222.196 101.763 221.386 101.763C220.755 101.763 220.413 101.295 220.413 100.557C220.413 100.16 220.485 99.8721 220.773 98.6832L221.404 96.2335C221.674 95.1528 222.286 94.3602 223.115 94.3602C223.151 94.3602 223.655 94.3602 224.034 94.5944Z" fill="black"/>
<path d="M230.43 100.046C229.937 100.106 229.781 100.478 229.781 100.719C229.781 101.067 230.093 101.163 230.249 101.163C230.309 101.163 230.922 101.115 230.922 100.382C230.922 99.6499 230.129 99.3497 229.409 99.3497C227.704 99.3497 226.047 101.007 226.047 102.688C226.047 103.829 226.827 104.765 228.16 104.765C230.057 104.765 231.054 103.553 231.054 103.396C231.054 103.288 230.934 103.204 230.862 103.204C230.79 103.204 230.754 103.24 230.694 103.312C229.745 104.429 228.4 104.429 228.184 104.429C227.536 104.429 227.019 104.033 227.019 103.12C227.019 102.592 227.259 101.319 227.824 100.575C228.352 99.9021 228.953 99.6859 229.421 99.6859C229.565 99.6859 230.117 99.6979 230.43 100.046Z" fill="black"/>
<path d="M236.28 101.919H239.81C239.978 101.919 240.243 101.919 240.243 101.643C240.243 101.367 239.978 101.367 239.81 101.367H236.28V97.8246C236.28 97.6565 236.28 97.3923 236.004 97.3923C235.727 97.3923 235.727 97.6565 235.727 97.8246V101.367H232.185C232.017 101.367 231.753 101.367 231.753 101.643C231.753 101.919 232.017 101.919 232.185 101.919H235.727V105.462C235.727 105.63 235.727 105.894 236.004 105.894C236.28 105.894 236.28 105.63 236.28 105.462V101.919Z" fill="black"/>
<path d="M244.234 99.4217C242.421 99.9021 241.496 101.487 241.496 102.712C241.496 104.057 242.505 104.789 243.55 104.789C244.967 104.789 246.047 103.06 246.047 101.307C246.047 100.154 245.507 99.5178 245.099 99.0495C244.702 98.5811 243.862 97.5965 243.862 97.0561C243.862 96.7919 244.114 96.5277 244.51 96.5277C244.907 96.5277 245.171 96.6958 245.495 96.888C245.783 97.0681 245.999 97.1642 246.143 97.1642C246.444 97.1642 246.636 96.876 246.636 96.6718C246.636 96.3836 246.492 96.3476 245.879 96.2155C245.195 96.0714 244.847 96.0714 244.835 96.0714C244.318 96.0714 243.466 96.3236 243.466 97.3443C243.466 97.9687 243.802 98.6532 244.234 99.4217ZM244.426 99.746C244.847 100.454 245.123 101.055 245.123 101.799C245.123 102.736 244.582 104.453 243.562 104.453C243.081 104.453 242.337 104.141 242.337 103.036C242.337 102.412 242.697 100.202 244.426 99.746Z" fill="black"/>
<path d="M143 36.3286C151.5 20.9952 158.5 9.09999 166.5 27.5C174.5 45.9 187.167 32.3286 187.5 22.8286C190.333 31.8286 196.8 47.1286 200 36.3286C204 22.8286 225 13.8286 231.5 36.3286" stroke="black"/>
<path d="M186.963 9.93541C184.657 10.4938 183 12.8895 183 14.9969C183 16.9242 184.297 18.005 185.738 18.005C187.863 18.005 189.304 15.087 189.304 12.6913C189.304 11.0702 188.548 10.0795 188.098 9.4851C187.431 8.63852 186.35 7.25156 186.35 6.38696C186.35 6.08075 186.584 5.54037 187.377 5.54037C187.935 5.54037 188.278 5.73851 188.818 6.04472C188.98 6.1528 189.394 6.38696 189.629 6.38696C190.007 6.38696 190.277 6.0087 190.277 5.7205C190.277 5.37826 190.007 5.32422 189.376 5.18012C188.53 5 188.278 5 187.971 5C187.665 5 185.9 5 185.9 6.83727C185.9 7.71988 186.35 8.74659 186.963 9.93541ZM187.161 10.2776C187.845 11.7006 188.116 12.241 188.116 13.4118C188.116 14.8168 187.359 17.6447 185.756 17.6447C185.053 17.6447 184.045 17.1764 184.045 15.5013C184.045 14.3305 184.711 10.9261 187.161 10.2776Z" fill="black"/>
</svg>
