<svg width="310" height="117" viewBox="0 0 310 117" fill="none" xmlns="http://www.w3.org/2000/svg">
<path d="M33.1149 55.4398C33.4752 55.4398 33.6193 55.4398 33.6193 55.0975C33.6193 54.9174 33.4752 54.9174 33.1509 54.9174H31.6919C32.0342 53.0621 32.2863 51.7832 32.4304 51.2068C32.5385 50.7745 32.9168 50.3602 33.3851 50.3602C33.7634 50.3602 34.1416 50.5224 34.3218 50.6845C33.6193 50.7565 33.4031 51.2789 33.4031 51.5851C33.4031 51.9453 33.6733 52.1615 34.0155 52.1615C34.3758 52.1615 34.9162 51.8553 34.9162 51.1708C34.9162 50.4143 34.1596 50 33.3671 50C32.5926 50 31.836 50.5764 31.4758 51.2789C31.1516 51.9093 30.9714 52.5578 30.5571 54.9174H29.3503C29.0081 54.9174 28.828 54.9174 28.828 55.2416C28.828 55.4398 28.936 55.4398 29.2963 55.4398H30.4491C30.1249 57.1149 29.3863 61.1857 28.9721 63.1131C28.6658 64.6802 28.3957 65.9951 27.495 65.9951C27.441 65.9951 26.9186 65.9951 26.5944 65.6528C27.513 65.5808 27.513 64.7882 27.513 64.7702C27.513 64.41 27.2429 64.1938 26.9006 64.1938C26.5404 64.1938 26 64.5 26 65.1845C26 65.959 26.7925 66.3553 27.495 66.3553C29.3323 66.3553 30.0888 63.059 30.287 62.1584C30.6112 60.7714 31.4938 55.9801 31.5839 55.4398H33.1149Z" fill="black"/>
<path d="M44.0157 55.782C44.0157 55.2957 43.6014 54.9174 43.1511 54.9174C42.6287 54.9174 42.2685 55.3317 42.2685 55.782C42.2685 56.3224 42.7188 56.6646 43.1331 56.6646C43.6194 56.6646 44.0157 56.2863 44.0157 55.782ZM44.0157 61.7981C44.0157 61.3118 43.6014 60.9335 43.1511 60.9335C42.6287 60.9335 42.2685 61.3478 42.2685 61.7981C42.2685 62.3385 42.7188 62.6808 43.1331 62.6808C43.6194 62.6808 44.0157 62.3025 44.0157 61.7981Z" fill="black"/>
<path d="M84.4497 42.8615C83.8193 43.9242 83.2068 44.2845 82.3422 44.3385C82.1441 44.3565 82 44.3565 82 44.6808C82 44.7888 82.0901 44.8609 82.2161 44.8609C82.5404 44.8609 83.3509 44.8249 83.6752 44.8249C84.1975 44.8249 84.7739 44.8609 85.2783 44.8609C85.3863 44.8609 85.6025 44.8609 85.6025 44.5187C85.6025 44.3565 85.4584 44.3385 85.3503 44.3385C84.936 44.3025 84.5938 44.1584 84.5938 43.7261C84.5938 43.4739 84.7019 43.2758 84.936 42.8795L86.305 40.61H90.8982C90.9162 40.7721 90.9162 40.9162 90.9342 41.0783C90.9882 41.5466 91.2044 43.4199 91.2044 43.7621C91.2044 44.3025 90.2857 44.3385 89.9975 44.3385C89.7994 44.3385 89.6013 44.3385 89.6013 44.6628C89.6013 44.8609 89.7634 44.8609 89.8714 44.8609C90.1777 44.8609 90.5379 44.8249 90.8441 44.8249H91.8708C92.9696 44.8249 93.7621 44.8609 93.7801 44.8609C93.9062 44.8609 94.1044 44.8609 94.1044 44.5187C94.1044 44.3385 93.9423 44.3385 93.6721 44.3385C92.6814 44.3385 92.6634 44.1764 92.6093 43.636L91.5106 32.3963C91.4745 32.036 91.4025 32 91.2044 32C91.0242 32 90.9162 32.036 90.7541 32.3062L84.4497 42.8615ZM86.6112 40.0876L90.2317 34.0354L90.8441 40.0876H86.6112Z" fill="black"/>
<path d="M171.728 34.2248C171.89 33.5584 171.962 33.5224 172.665 33.5224H175.006C177.042 33.5224 177.042 35.2516 177.042 35.4137C177.042 36.8727 175.583 38.728 173.205 38.728H170.611L171.728 34.2248ZM174.772 38.8721C176.735 38.5118 178.519 37.1429 178.519 35.4857C178.519 34.0807 177.276 33 175.24 33H169.458C169.116 33 168.954 33 168.954 33.3422C168.954 33.5224 169.116 33.5224 169.386 33.5224C170.485 33.5224 170.485 33.6665 170.485 33.8646C170.485 33.9006 170.485 34.0087 170.413 34.2789L167.981 43.9696C167.819 44.6 167.783 44.7801 166.522 44.7801C166.18 44.7801 166 44.7801 166 45.1044C166 45.3025 166.108 45.3025 166.468 45.3025H172.647C175.403 45.3025 177.528 43.2131 177.528 41.3938C177.528 39.9168 176.231 39.0162 174.772 38.8721ZM172.214 44.7801H169.783C169.53 44.7801 169.494 44.7801 169.386 44.7621C169.188 44.7441 169.17 44.7081 169.17 44.564C169.17 44.4379 169.206 44.3298 169.242 44.1677L170.503 39.0882H173.889C176.015 39.0882 176.015 41.0696 176.015 41.2137C176.015 42.9429 174.448 44.7801 172.214 44.7801Z" fill="black"/>
<path d="M92.0336 73.5944C91.4572 73.7025 91.241 74.1348 91.241 74.477C91.241 74.9093 91.5832 75.0534 91.8354 75.0534C92.3758 75.0534 92.7541 74.5851 92.7541 74.0988C92.7541 73.3422 91.8895 73 91.1329 73C90.0342 73 89.4217 74.0807 89.2596 74.423C88.8453 73.0721 87.7286 73 87.4044 73C85.5671 73 84.5944 75.3596 84.5944 75.7559C84.5944 75.828 84.6665 75.918 84.7925 75.918C84.9366 75.918 84.9727 75.8099 85.0087 75.7379C85.6211 73.7385 86.828 73.3602 87.3503 73.3602C88.1609 73.3602 88.323 74.1168 88.323 74.5491C88.323 74.9453 88.2149 75.3596 87.9988 76.2242L87.3863 78.6919C87.1162 79.7727 86.5938 80.7634 85.6391 80.7634C85.5491 80.7634 85.0988 80.7634 84.7205 80.5292C85.3689 80.4031 85.513 79.8627 85.513 79.6466C85.513 79.2863 85.2429 79.0702 84.9006 79.0702C84.4683 79.0702 84 79.4485 84 80.0249C84 80.7814 84.8466 81.1236 85.6211 81.1236C86.4857 81.1236 87.0981 80.4391 87.4764 79.7006C87.7646 80.7634 88.6652 81.1236 89.3317 81.1236C91.169 81.1236 92.1416 78.764 92.1416 78.3677C92.1416 78.2776 92.0696 78.2056 91.9615 78.2056C91.7994 78.2056 91.7814 78.2957 91.7273 78.4398C91.241 80.0249 90.1963 80.7634 89.3857 80.7634C88.7553 80.7634 88.4131 80.295 88.4131 79.5565C88.4131 79.1603 88.4851 78.8721 88.7733 77.6832L89.4037 75.2335C89.6739 74.1528 90.2863 73.3602 91.1149 73.3602C91.1509 73.3602 91.6553 73.3602 92.0336 73.5944Z" fill="black"/>
<path d="M172.251 82.9609C171.765 83.6454 171.062 84.2578 170.18 84.2578C169.963 84.2578 169.099 84.2218 168.829 83.3932C168.883 83.4112 168.973 83.4112 169.009 83.4112C169.549 83.4112 169.909 82.9429 169.909 82.5286C169.909 82.1143 169.567 81.9702 169.297 81.9702C169.009 81.9702 168.378 82.1864 168.378 83.069C168.378 83.9876 169.153 84.618 170.18 84.618C171.981 84.618 173.8 82.9609 174.304 80.9615L176.07 73.9366C176.088 73.8466 176.124 73.7385 176.124 73.6304C176.124 73.3602 175.907 73.1801 175.637 73.1801C175.475 73.1801 175.097 73.2522 174.953 73.7925L173.62 79.0882C173.53 79.4124 173.53 79.4485 173.386 79.6466C173.025 80.1509 172.431 80.7634 171.566 80.7634C170.558 80.7634 170.468 79.7727 170.468 79.2863C170.468 78.2596 170.954 76.8727 171.44 75.5758C171.639 75.0534 171.747 74.8012 171.747 74.441C171.747 73.6845 171.206 73 170.324 73C168.666 73 168 75.6118 168 75.7559C168 75.828 168.072 75.918 168.198 75.918C168.36 75.918 168.378 75.846 168.45 75.5938C168.883 74.0807 169.567 73.3602 170.27 73.3602C170.432 73.3602 170.738 73.3602 170.738 73.9547C170.738 74.423 170.54 74.9453 170.27 75.6298C169.387 77.9894 169.387 78.5839 169.387 79.0162C169.387 80.7273 170.612 81.1236 171.512 81.1236C172.035 81.1236 172.683 80.9615 173.314 80.295L173.332 80.3131C173.061 81.3758 172.881 82.0783 172.251 82.9609Z" fill="black"/>
<path d="M157.854 39.3536C158.049 39.1583 158.049 38.8417 157.854 38.6464L154.672 35.4645C154.476 35.2692 154.16 35.2692 153.964 35.4645C153.769 35.6597 153.769 35.9763 153.964 36.1716L156.793 39L153.964 41.8284C153.769 42.0237 153.769 42.3403 153.964 42.5355C154.16 42.7308 154.476 42.7308 154.672 42.5355L157.854 39.3536ZM101.5 39.5H157.5V38.5H101.5V39.5Z" fill="black"/>
<path d="M158.854 78.8536C159.049 78.6583 159.049 78.3417 158.854 78.1464L155.672 74.9645C155.476 74.7692 155.16 74.7692 154.964 74.9645C154.769 75.1597 154.769 75.4763 154.964 75.6716L157.793 78.5L154.964 81.3284C154.769 81.5237 154.769 81.8403 154.964 82.0355C155.16 82.2308 155.476 82.2308 155.672 82.0355L158.854 78.8536ZM101 79H158.5V78H101V79Z" fill="black"/>
<path d="M101 76V81" stroke="black"/>
<path d="M58.125 24H55.8807V16.7273H58.2244C58.9299 16.7273 59.5336 16.8729 60.0355 17.1641C60.5374 17.4529 60.9221 17.8684 61.1896 18.4105C61.4571 18.9503 61.5909 19.5966 61.5909 20.3494C61.5909 21.107 61.456 21.7592 61.1861 22.3061C60.9162 22.8506 60.5232 23.2696 60.0071 23.5632C59.491 23.8544 58.8636 24 58.125 24ZM56.7614 23.2188H58.0682C58.6695 23.2188 59.1679 23.1027 59.5632 22.8707C59.9586 22.6387 60.2533 22.3085 60.4474 21.88C60.6416 21.4515 60.7386 20.9413 60.7386 20.3494C60.7386 19.7623 60.6428 19.2569 60.451 18.8331C60.2592 18.407 59.9728 18.0803 59.5916 17.853C59.2105 17.6233 58.7358 17.5085 58.1676 17.5085H56.7614V23.2188ZM64.5597 24.1278C64.214 24.1278 63.9003 24.0627 63.6186 23.9325C63.3369 23.8 63.1132 23.6094 62.9474 23.3608C62.7817 23.1098 62.6989 22.8068 62.6989 22.4517C62.6989 22.1392 62.7604 21.8859 62.8835 21.6918C63.0066 21.4953 63.1712 21.3414 63.3771 21.2301C63.5831 21.1188 63.8104 21.036 64.0589 20.9815C64.3099 20.9247 64.562 20.8797 64.8153 20.8466C65.1468 20.804 65.4155 20.772 65.6214 20.7507C65.8298 20.727 65.9813 20.688 66.076 20.6335C66.1731 20.5791 66.2216 20.4844 66.2216 20.3494V20.321C66.2216 19.9706 66.1257 19.6984 65.9339 19.5043C65.7446 19.3101 65.4569 19.2131 65.071 19.2131C64.6709 19.2131 64.3572 19.3007 64.13 19.4759C63.9027 19.651 63.7429 19.8381 63.6506 20.0369L62.8551 19.7528C62.9972 19.4214 63.1866 19.1634 63.4233 18.9787C63.6624 18.7917 63.9228 18.6615 64.2045 18.5881C64.4886 18.5123 64.768 18.4744 65.0426 18.4744C65.2178 18.4744 65.419 18.4957 65.6463 18.5384C65.8759 18.5786 66.0973 18.6626 66.3104 18.7905C66.5258 18.9183 66.7045 19.1113 66.8466 19.3693C66.9886 19.6274 67.0597 19.973 67.0597 20.4062V24H66.2216V23.2614H66.179C66.1222 23.3797 66.0275 23.5064 65.8949 23.6413C65.7623 23.7763 65.5859 23.8911 65.3658 23.9858C65.1456 24.0805 64.8769 24.1278 64.5597 24.1278ZM64.6875 23.375C65.0189 23.375 65.2983 23.3099 65.5256 23.1797C65.7552 23.0495 65.928 22.8814 66.044 22.6754C66.1624 22.4695 66.2216 22.2528 66.2216 22.0256V21.2585C66.1861 21.3011 66.108 21.3402 65.9872 21.3757C65.8688 21.4089 65.7315 21.4384 65.5753 21.4645C65.4214 21.4882 65.2711 21.5095 65.1243 21.5284C64.9799 21.545 64.8627 21.5592 64.7727 21.571C64.5549 21.5994 64.3513 21.6456 64.1619 21.7095C63.9749 21.7711 63.8234 21.8646 63.7074 21.9901C63.5938 22.1132 63.5369 22.2812 63.5369 22.4943C63.5369 22.7855 63.6446 23.0057 63.8601 23.1548C64.0779 23.3016 64.3537 23.375 64.6875 23.375ZM69.4274 16.7273V24H68.5893V16.7273H69.4274ZM71.8004 16.7273V24H70.9624V16.7273H71.8004ZM74.074 16.7273V17.3665C74.074 17.5606 74.0385 17.7678 73.9675 17.9879C73.8989 18.2057 73.7971 18.4176 73.6621 18.6236C73.5295 18.8272 73.3685 19.0047 73.1792 19.1562L72.7246 18.7869C72.8738 18.5739 73.0028 18.3525 73.1117 18.1229C73.223 17.8909 73.2786 17.6435 73.2786 17.3807V16.7273H74.074ZM75.1811 24V18.5455H76.0192V24H75.1811ZM75.6072 17.6364C75.4439 17.6364 75.303 17.5807 75.1847 17.4695C75.0687 17.3582 75.0107 17.2244 75.0107 17.0682C75.0107 16.9119 75.0687 16.7782 75.1847 16.6669C75.303 16.5556 75.4439 16.5 75.6072 16.5C75.7706 16.5 75.9103 16.5556 76.0263 16.6669C76.1446 16.7782 76.2038 16.9119 76.2038 17.0682C76.2038 17.2244 76.1446 17.3582 76.0263 17.4695C75.9103 17.5807 75.7706 17.6364 75.6072 17.6364ZM78.3922 20.7188V24H77.5542V18.5455H78.3638V19.3977H78.4348C78.5627 19.1207 78.7568 18.8982 79.0172 18.7301C79.2776 18.5597 79.6138 18.4744 80.0257 18.4744C80.3951 18.4744 80.7182 18.5502 80.9952 18.7017C81.2722 18.8509 81.4876 19.0781 81.6415 19.3835C81.7954 19.6866 81.8723 20.0701 81.8723 20.5341V24H81.0343V20.5909C81.0343 20.1624 80.923 19.8286 80.7005 19.5895C80.4779 19.348 80.1725 19.2273 79.7843 19.2273C79.5167 19.2273 79.2776 19.2853 79.0669 19.4013C78.8586 19.5173 78.6941 19.6866 78.5733 19.9091C78.4526 20.1316 78.3922 20.4015 78.3922 20.7188ZM87.2674 19.767L86.5146 19.9801C86.4672 19.8546 86.3974 19.7327 86.305 19.6143C86.2151 19.4936 86.092 19.3942 85.9357 19.3161C85.7795 19.2379 85.5794 19.1989 85.3356 19.1989C85.0018 19.1989 84.7236 19.2758 84.5011 19.4297C84.2809 19.5812 84.1708 19.7741 84.1708 20.0085C84.1708 20.2169 84.2466 20.3814 84.3981 20.5021C84.5496 20.6229 84.7863 20.7235 85.1083 20.804L85.918 21.0028C86.4057 21.1212 86.7691 21.3023 87.0082 21.5462C87.2473 21.7876 87.3668 22.099 87.3668 22.4801C87.3668 22.7926 87.2769 23.072 87.0969 23.3182C86.9194 23.5644 86.6708 23.7585 86.3512 23.9006C86.0316 24.0426 85.6599 24.1136 85.2362 24.1136C84.6798 24.1136 84.2193 23.9929 83.8548 23.7514C83.4902 23.5099 83.2594 23.1572 83.1623 22.6932L83.9577 22.4943C84.0335 22.7879 84.1767 23.008 84.3874 23.1548C84.6005 23.3016 84.8787 23.375 85.2219 23.375C85.6126 23.375 85.9227 23.2921 86.1523 23.1264C86.3844 22.9583 86.5004 22.7571 86.5004 22.5227C86.5004 22.3333 86.4341 22.1747 86.3015 22.0469C86.1689 21.9167 85.9653 21.8196 85.6907 21.7557L84.7816 21.5426C84.2821 21.4242 83.9151 21.2408 83.6808 20.9922C83.4487 20.7412 83.3327 20.4276 83.3327 20.0511C83.3327 19.7434 83.4192 19.4711 83.592 19.2344C83.7672 18.9976 84.0051 18.8118 84.3058 18.6768C84.6088 18.5419 84.9521 18.4744 85.3356 18.4744C85.8754 18.4744 86.2991 18.5928 86.6069 18.8295C86.917 19.0663 87.1372 19.3788 87.2674 19.767ZM88.6284 24V18.5455H89.4664V24H88.6284ZM89.0545 17.6364C88.8912 17.6364 88.7503 17.5807 88.6319 17.4695C88.5159 17.3582 88.4579 17.2244 88.4579 17.0682C88.4579 16.9119 88.5159 16.7782 88.6319 16.6669C88.7503 16.5556 88.8912 16.5 89.0545 16.5C89.2179 16.5 89.3575 16.5556 89.4735 16.6669C89.5919 16.7782 89.6511 16.9119 89.6511 17.0682C89.6511 17.2244 89.5919 17.3582 89.4735 17.4695C89.3575 17.5807 89.2179 17.6364 89.0545 17.6364ZM93.2884 24.1136C92.7628 24.1136 92.3094 23.9976 91.9283 23.7656C91.5495 23.5312 91.2571 23.2045 91.0511 22.7855C90.8475 22.3641 90.7457 21.8741 90.7457 21.3153C90.7457 20.7566 90.8475 20.2642 91.0511 19.8381C91.2571 19.4096 91.5436 19.0758 91.9105 18.8366C92.2798 18.5952 92.7107 18.4744 93.2031 18.4744C93.4872 18.4744 93.7678 18.5218 94.0447 18.6165C94.3217 18.7112 94.5739 18.8651 94.8011 19.0781C95.0284 19.2888 95.2095 19.5682 95.3445 19.9162C95.4794 20.2642 95.5469 20.6927 95.5469 21.2017V21.5568H91.3423V20.8324H94.6946C94.6946 20.5246 94.633 20.25 94.5099 20.0085C94.3892 19.767 94.2164 19.5765 93.9915 19.4368C93.7689 19.2971 93.5062 19.2273 93.2031 19.2273C92.8693 19.2273 92.5805 19.3101 92.3366 19.4759C92.0952 19.6392 91.9093 19.8523 91.7791 20.1151C91.6489 20.3778 91.5838 20.6596 91.5838 20.9602V21.4432C91.5838 21.8551 91.6548 22.2043 91.7969 22.4908C91.9413 22.7749 92.1413 22.9915 92.397 23.1406C92.6527 23.2874 92.9498 23.3608 93.2884 23.3608C93.5085 23.3608 93.7074 23.33 93.8849 23.2685C94.0649 23.2045 94.2199 23.1098 94.3501 22.9844C94.4804 22.8565 94.581 22.6979 94.652 22.5085L95.4616 22.7358C95.3764 23.0104 95.2332 23.2519 95.032 23.4602C94.8307 23.6662 94.5821 23.8272 94.2862 23.9432C93.9903 24.0568 93.6577 24.1136 93.2884 24.1136ZM96.8217 24V18.5455H97.6314V19.3977H97.7024C97.8161 19.1065 97.9995 18.8804 98.2528 18.7195C98.5062 18.5561 98.8104 18.4744 99.1655 18.4744C99.5253 18.4744 99.8248 18.5561 100.064 18.7195C100.305 18.8804 100.494 19.1065 100.629 19.3977H100.685C100.825 19.116 101.035 18.8923 101.314 18.7266C101.593 18.5585 101.928 18.4744 102.319 18.4744C102.807 18.4744 103.205 18.6271 103.516 18.9325C103.826 19.2356 103.981 19.7079 103.981 20.3494V24H103.143V20.3494C103.143 19.947 103.033 19.6593 102.812 19.4865C102.592 19.3137 102.333 19.2273 102.035 19.2273C101.651 19.2273 101.354 19.3433 101.143 19.5753C100.933 19.8049 100.827 20.0961 100.827 20.4489V24H99.9751V20.2642C99.9751 19.9541 99.8745 19.7043 99.6733 19.5149C99.4721 19.3232 99.2128 19.2273 98.8956 19.2273C98.6778 19.2273 98.4742 19.2853 98.2848 19.4013C98.0978 19.5173 97.9463 19.6783 97.8303 19.8842C97.7166 20.0878 97.6598 20.3234 97.6598 20.5909V24H96.8217ZM107.8 24.1136C107.275 24.1136 106.821 23.9976 106.44 23.7656C106.061 23.5312 105.769 23.2045 105.563 22.7855C105.359 22.3641 105.257 21.8741 105.257 21.3153C105.257 20.7566 105.359 20.2642 105.563 19.8381C105.769 19.4096 106.055 19.0758 106.422 18.8366C106.792 18.5952 107.222 18.4744 107.715 18.4744C107.999 18.4744 108.279 18.5218 108.556 18.6165C108.833 18.7112 109.086 18.8651 109.313 19.0781C109.54 19.2888 109.721 19.5682 109.856 19.9162C109.991 20.2642 110.059 20.6927 110.059 21.2017V21.5568H105.854V20.8324H109.206C109.206 20.5246 109.145 20.25 109.022 20.0085C108.901 19.767 108.728 19.5765 108.503 19.4368C108.281 19.2971 108.018 19.2273 107.715 19.2273C107.381 19.2273 107.092 19.3101 106.848 19.4759C106.607 19.6392 106.421 19.8523 106.291 20.1151C106.161 20.3778 106.096 20.6596 106.096 20.9602V21.4432C106.096 21.8551 106.167 22.2043 106.309 22.4908C106.453 22.7749 106.653 22.9915 106.909 23.1406C107.164 23.2874 107.462 23.3608 107.8 23.3608C108.02 23.3608 108.219 23.33 108.397 23.2685C108.577 23.2045 108.732 23.1098 108.862 22.9844C108.992 22.8565 109.093 22.6979 109.164 22.5085L109.973 22.7358C109.888 23.0104 109.745 23.2519 109.544 23.4602C109.342 23.6662 109.094 23.8272 108.798 23.9432C108.502 24.0568 108.169 24.1136 107.8 24.1136ZM114.558 24H113.635L116.305 16.7273H117.214L119.885 24H118.961L116.788 17.8778H116.731L114.558 24ZM114.899 21.1591H118.62V21.9403H114.899V21.1591ZM125.321 24.1278C124.976 24.1278 124.662 24.0627 124.38 23.9325C124.099 23.8 123.875 23.6094 123.709 23.3608C123.543 23.1098 123.461 22.8068 123.461 22.4517C123.461 22.1392 123.522 21.8859 123.645 21.6918C123.768 21.4953 123.933 21.3414 124.139 21.2301C124.345 21.1188 124.572 21.036 124.821 20.9815C125.072 20.9247 125.324 20.8797 125.577 20.8466C125.908 20.804 126.177 20.772 126.383 20.7507C126.592 20.727 126.743 20.688 126.838 20.6335C126.935 20.5791 126.983 20.4844 126.983 20.3494V20.321C126.983 19.9706 126.887 19.6984 126.696 19.5043C126.506 19.3101 126.219 19.2131 125.833 19.2131C125.433 19.2131 125.119 19.3007 124.892 19.4759C124.664 19.651 124.505 19.8381 124.412 20.0369L123.617 19.7528C123.759 19.4214 123.948 19.1634 124.185 18.9787C124.424 18.7917 124.685 18.6615 124.966 18.5881C125.25 18.5123 125.53 18.4744 125.804 18.4744C125.98 18.4744 126.181 18.4957 126.408 18.5384C126.638 18.5786 126.859 18.6626 127.072 18.7905C127.288 18.9183 127.466 19.1113 127.608 19.3693C127.75 19.6274 127.821 19.973 127.821 20.4062V24H126.983V23.2614H126.941C126.884 23.3797 126.789 23.5064 126.657 23.6413C126.524 23.7763 126.348 23.8911 126.127 23.9858C125.907 24.0805 125.639 24.1278 125.321 24.1278ZM125.449 23.375C125.781 23.375 126.06 23.3099 126.287 23.1797C126.517 23.0495 126.69 22.8814 126.806 22.6754C126.924 22.4695 126.983 22.2528 126.983 22.0256V21.2585C126.948 21.3011 126.87 21.3402 126.749 21.3757C126.631 21.4089 126.493 21.4384 126.337 21.4645C126.183 21.4882 126.033 21.5095 125.886 21.5284C125.742 21.545 125.624 21.5592 125.534 21.571C125.317 21.5994 125.113 21.6456 124.924 21.7095C124.737 21.7711 124.585 21.8646 124.469 21.9901C124.355 22.1132 124.299 22.2812 124.299 22.4943C124.299 22.7855 124.406 23.0057 124.622 23.1548C124.84 23.3016 125.115 23.375 125.449 23.375ZM130.189 20.7188V24H129.351V18.5455H130.161V19.3977H130.232C130.36 19.1207 130.554 18.8982 130.814 18.7301C131.075 18.5597 131.411 18.4744 131.823 18.4744C132.192 18.4744 132.515 18.5502 132.792 18.7017C133.069 18.8509 133.285 19.0781 133.438 19.3835C133.592 19.6866 133.669 20.0701 133.669 20.5341V24H132.831V20.5909C132.831 20.1624 132.72 19.8286 132.497 19.5895C132.275 19.348 131.969 19.2273 131.581 19.2273C131.314 19.2273 131.075 19.2853 130.864 19.4013C130.655 19.5173 130.491 19.6866 130.37 19.9091C130.249 20.1316 130.189 20.4015 130.189 20.7188ZM137.26 24.1136C136.806 24.1136 136.404 23.9988 136.056 23.7692C135.708 23.5372 135.436 23.2105 135.24 22.7891C135.043 22.3653 134.945 21.8646 134.945 21.2869C134.945 20.714 135.043 20.2169 135.24 19.7955C135.436 19.3741 135.71 19.0485 136.06 18.8189C136.41 18.5893 136.815 18.4744 137.275 18.4744C137.63 18.4744 137.91 18.5336 138.116 18.652C138.324 18.768 138.483 18.9006 138.592 19.0497C138.703 19.1965 138.79 19.3172 138.851 19.4119H138.922V16.7273H139.76V24H138.951V23.1619H138.851C138.79 23.2614 138.702 23.3868 138.588 23.5384C138.475 23.6875 138.313 23.8213 138.102 23.9396C137.891 24.0556 137.611 24.1136 137.26 24.1136ZM137.374 23.3608C137.71 23.3608 137.994 23.2732 138.226 23.098C138.458 22.9205 138.635 22.6754 138.755 22.3629C138.876 22.0481 138.936 21.6847 138.936 21.2727C138.936 20.8655 138.877 20.5092 138.759 20.2038C138.641 19.8961 138.465 19.657 138.233 19.4865C138.001 19.3137 137.715 19.2273 137.374 19.2273C137.019 19.2273 136.723 19.3184 136.486 19.5007C136.252 19.6806 136.075 19.9257 135.957 20.2358C135.841 20.5436 135.783 20.8892 135.783 21.2727C135.783 21.661 135.842 22.0137 135.961 22.331C136.081 22.6458 136.259 22.8968 136.493 23.0838C136.73 23.2685 137.024 23.3608 137.374 23.3608ZM141.412 24V18.5455H142.25V24H141.412ZM141.838 17.6364C141.674 17.6364 141.533 17.5807 141.415 17.4695C141.299 17.3582 141.241 17.2244 141.241 17.0682C141.241 16.9119 141.299 16.7782 141.415 16.6669C141.533 16.5556 141.674 16.5 141.838 16.5C142.001 16.5 142.141 16.5556 142.257 16.6669C142.375 16.7782 142.434 16.9119 142.434 17.0682C142.434 17.2244 142.375 17.3582 142.257 17.4695C142.141 17.5807 142.001 17.6364 141.838 17.6364ZM145.39 24.1278C145.044 24.1278 144.73 24.0627 144.449 23.9325C144.167 23.8 143.943 23.6094 143.778 23.3608C143.612 23.1098 143.529 22.8068 143.529 22.4517C143.529 22.1392 143.59 21.8859 143.714 21.6918C143.837 21.4953 144.001 21.3414 144.207 21.2301C144.413 21.1188 144.64 21.036 144.889 20.9815C145.14 20.9247 145.392 20.8797 145.645 20.8466C145.977 20.804 146.246 20.772 146.452 20.7507C146.66 20.727 146.811 20.688 146.906 20.6335C147.003 20.5791 147.052 20.4844 147.052 20.3494V20.321C147.052 19.9706 146.956 19.6984 146.764 19.5043C146.575 19.3101 146.287 19.2131 145.901 19.2131C145.501 19.2131 145.187 19.3007 144.96 19.4759C144.733 19.651 144.573 19.8381 144.481 20.0369L143.685 19.7528C143.827 19.4214 144.017 19.1634 144.253 18.9787C144.492 18.7917 144.753 18.6615 145.035 18.5881C145.319 18.5123 145.598 18.4744 145.873 18.4744C146.048 18.4744 146.249 18.4957 146.476 18.5384C146.706 18.5786 146.927 18.6626 147.14 18.7905C147.356 18.9183 147.535 19.1113 147.677 19.3693C147.819 19.6274 147.89 19.973 147.89 20.4062V24H147.052V23.2614H147.009C146.952 23.3797 146.858 23.5064 146.725 23.6413C146.592 23.7763 146.416 23.8911 146.196 23.9858C145.976 24.0805 145.707 24.1278 145.39 24.1278ZM145.518 23.375C145.849 23.375 146.128 23.3099 146.356 23.1797C146.585 23.0495 146.758 22.8814 146.874 22.6754C146.992 22.4695 147.052 22.2528 147.052 22.0256V21.2585C147.016 21.3011 146.938 21.3402 146.817 21.3757C146.699 21.4089 146.562 21.4384 146.405 21.4645C146.251 21.4882 146.101 21.5095 145.954 21.5284C145.81 21.545 145.693 21.5592 145.603 21.571C145.385 21.5994 145.181 21.6456 144.992 21.7095C144.805 21.7711 144.653 21.8646 144.537 21.9901C144.424 22.1132 144.367 22.2812 144.367 22.4943C144.367 22.7855 144.475 23.0057 144.69 23.1548C144.908 23.3016 145.184 23.375 145.518 23.375ZM149.419 24V18.5455H150.229V19.3977H150.3C150.414 19.1065 150.597 18.8804 150.85 18.7195C151.104 18.5561 151.408 18.4744 151.763 18.4744C152.123 18.4744 152.422 18.5561 152.662 18.7195C152.903 18.8804 153.091 19.1065 153.226 19.3977H153.283C153.423 19.116 153.632 18.8923 153.912 18.7266C154.191 18.5585 154.526 18.4744 154.917 18.4744C155.404 18.4744 155.803 18.6271 156.113 18.9325C156.423 19.2356 156.578 19.7079 156.578 20.3494V24H155.74V20.3494C155.74 19.947 155.63 19.6593 155.41 19.4865C155.19 19.3137 154.931 19.2273 154.632 19.2273C154.249 19.2273 153.952 19.3433 153.741 19.5753C153.53 19.8049 153.425 20.0961 153.425 20.4489V24H152.573V20.2642C152.573 19.9541 152.472 19.7043 152.271 19.5149C152.07 19.3232 151.81 19.2273 151.493 19.2273C151.275 19.2273 151.072 19.2853 150.882 19.4013C150.695 19.5173 150.544 19.6783 150.428 19.8842C150.314 20.0878 150.257 20.3234 150.257 20.5909V24H149.419ZM160.327 24.1136C159.834 24.1136 159.402 23.9964 159.031 23.7621C158.661 23.5277 158.372 23.1998 158.164 22.7784C157.958 22.357 157.855 21.8646 157.855 21.3011C157.855 20.733 157.958 20.237 158.164 19.8132C158.372 19.3894 158.661 19.0604 159.031 18.826C159.402 18.5916 159.834 18.4744 160.327 18.4744C160.819 18.4744 161.25 18.5916 161.619 18.826C161.991 19.0604 162.28 19.3894 162.486 19.8132C162.694 20.237 162.798 20.733 162.798 21.3011C162.798 21.8646 162.694 22.357 162.486 22.7784C162.28 23.1998 161.991 23.5277 161.619 23.7621C161.25 23.9964 160.819 24.1136 160.327 24.1136ZM160.327 23.3608C160.701 23.3608 161.009 23.2649 161.25 23.0732C161.491 22.8814 161.67 22.6293 161.786 22.3168C161.902 22.0043 161.96 21.6657 161.96 21.3011C161.96 20.9366 161.902 20.5968 161.786 20.282C161.67 19.9671 161.491 19.7126 161.25 19.5185C161.009 19.3243 160.701 19.2273 160.327 19.2273C159.953 19.2273 159.645 19.3243 159.403 19.5185C159.162 19.7126 158.983 19.9671 158.867 20.282C158.751 20.5968 158.693 20.9366 158.693 21.3011C158.693 21.6657 158.751 22.0043 158.867 22.3168C158.983 22.6293 159.162 22.8814 159.403 23.0732C159.645 23.2649 159.953 23.3608 160.327 23.3608ZM168.495 24.1278C168.15 24.1278 167.836 24.0627 167.554 23.9325C167.272 23.8 167.049 23.6094 166.883 23.3608C166.717 23.1098 166.634 22.8068 166.634 22.4517C166.634 22.1392 166.696 21.8859 166.819 21.6918C166.942 21.4953 167.107 21.3414 167.313 21.2301C167.519 21.1188 167.746 21.036 167.994 20.9815C168.245 20.9247 168.498 20.8797 168.751 20.8466C169.082 20.804 169.351 20.772 169.557 20.7507C169.765 20.727 169.917 20.688 170.012 20.6335C170.109 20.5791 170.157 20.4844 170.157 20.3494V20.321C170.157 19.9706 170.061 19.6984 169.869 19.5043C169.68 19.3101 169.392 19.2131 169.007 19.2131C168.606 19.2131 168.293 19.3007 168.066 19.4759C167.838 19.651 167.678 19.8381 167.586 20.0369L166.791 19.7528C166.933 19.4214 167.122 19.1634 167.359 18.9787C167.598 18.7917 167.858 18.6615 168.14 18.5881C168.424 18.5123 168.704 18.4744 168.978 18.4744C169.153 18.4744 169.355 18.4957 169.582 18.5384C169.811 18.5786 170.033 18.6626 170.246 18.7905C170.461 18.9183 170.64 19.1113 170.782 19.3693C170.924 19.6274 170.995 19.973 170.995 20.4062V24H170.157V23.2614H170.115C170.058 23.3797 169.963 23.5064 169.83 23.6413C169.698 23.7763 169.521 23.8911 169.301 23.9858C169.081 24.0805 168.812 24.1278 168.495 24.1278ZM168.623 23.375C168.954 23.375 169.234 23.3099 169.461 23.1797C169.691 23.0495 169.864 22.8814 169.98 22.6754C170.098 22.4695 170.157 22.2528 170.157 22.0256V21.2585C170.122 21.3011 170.044 21.3402 169.923 21.3757C169.804 21.4089 169.667 21.4384 169.511 21.4645C169.357 21.4882 169.207 21.5095 169.06 21.5284C168.915 21.545 168.798 21.5592 168.708 21.571C168.49 21.5994 168.287 21.6456 168.097 21.7095C167.91 21.7711 167.759 21.8646 167.643 21.9901C167.529 22.1132 167.472 22.2812 167.472 22.4943C167.472 22.7855 167.58 23.0057 167.796 23.1548C168.013 23.3016 168.289 23.375 168.623 23.375ZM173.363 16.7273V24H172.525V16.7273H173.363ZM175.736 16.7273V24H174.898V16.7273H175.736ZM178.01 16.7273V17.3665C178.01 17.5606 177.974 17.7678 177.903 17.9879C177.834 18.2057 177.733 18.4176 177.598 18.6236C177.465 18.8272 177.304 19.0047 177.115 19.1562L176.66 18.7869C176.809 18.5739 176.938 18.3525 177.047 18.1229C177.158 17.8909 177.214 17.6435 177.214 17.3807V16.7273H178.01ZM179.117 24V18.5455H179.955V24H179.117ZM179.543 17.6364C179.379 17.6364 179.239 17.5807 179.12 17.4695C179.004 17.3582 178.946 17.2244 178.946 17.0682C178.946 16.9119 179.004 16.7782 179.12 16.6669C179.239 16.5556 179.379 16.5 179.543 16.5C179.706 16.5 179.846 16.5556 179.962 16.6669C180.08 16.7782 180.139 16.9119 180.139 17.0682C180.139 17.2244 180.08 17.3582 179.962 17.4695C179.846 17.5807 179.706 17.6364 179.543 17.6364ZM182.328 20.7188V24H181.49V18.5455H182.299V19.3977H182.37C182.498 19.1207 182.692 18.8982 182.953 18.7301C183.213 18.5597 183.549 18.4744 183.961 18.4744C184.331 18.4744 184.654 18.5502 184.931 18.7017C185.208 18.8509 185.423 19.0781 185.577 19.3835C185.731 19.6866 185.808 20.0701 185.808 20.5341V24H184.97V20.5909C184.97 20.1624 184.859 19.8286 184.636 19.5895C184.413 19.348 184.108 19.2273 183.72 19.2273C183.452 19.2273 183.213 19.2853 183.002 19.4013C182.794 19.5173 182.63 19.6866 182.509 19.9091C182.388 20.1316 182.328 20.4015 182.328 20.7188ZM191.203 19.767L190.45 19.9801C190.403 19.8546 190.333 19.7327 190.241 19.6143C190.151 19.4936 190.028 19.3942 189.871 19.3161C189.715 19.2379 189.515 19.1989 189.271 19.1989C188.937 19.1989 188.659 19.2758 188.437 19.4297C188.216 19.5812 188.106 19.7741 188.106 20.0085C188.106 20.2169 188.182 20.3814 188.334 20.5021C188.485 20.6229 188.722 20.7235 189.044 20.804L189.854 21.0028C190.341 21.1212 190.705 21.3023 190.944 21.5462C191.183 21.7876 191.302 22.099 191.302 22.4801C191.302 22.7926 191.212 23.072 191.032 23.3182C190.855 23.5644 190.606 23.7585 190.287 23.9006C189.967 24.0426 189.595 24.1136 189.172 24.1136C188.615 24.1136 188.155 23.9929 187.79 23.7514C187.426 23.5099 187.195 23.1572 187.098 22.6932L187.893 22.4943C187.969 22.7879 188.112 23.008 188.323 23.1548C188.536 23.3016 188.814 23.375 189.157 23.375C189.548 23.375 189.858 23.2921 190.088 23.1264C190.32 22.9583 190.436 22.7571 190.436 22.5227C190.436 22.3333 190.37 22.1747 190.237 22.0469C190.104 21.9167 189.901 21.8196 189.626 21.7557L188.717 21.5426C188.218 21.4242 187.851 21.2408 187.616 20.9922C187.384 20.7412 187.268 20.4276 187.268 20.0511C187.268 19.7434 187.355 19.4711 187.528 19.2344C187.703 18.9976 187.941 18.8118 188.241 18.6768C188.544 18.5419 188.888 18.4744 189.271 18.4744C189.811 18.4744 190.235 18.5928 190.542 18.8295C190.853 19.0663 191.073 19.3788 191.203 19.767ZM192.564 24V18.5455H193.402V24H192.564ZM192.99 17.6364C192.827 17.6364 192.686 17.5807 192.567 17.4695C192.451 17.3582 192.393 17.2244 192.393 17.0682C192.393 16.9119 192.451 16.7782 192.567 16.6669C192.686 16.5556 192.827 16.5 192.99 16.5C193.153 16.5 193.293 16.5556 193.409 16.6669C193.527 16.7782 193.587 16.9119 193.587 17.0682C193.587 17.2244 193.527 17.3582 193.409 17.4695C193.293 17.5807 193.153 17.6364 192.99 17.6364ZM197.224 24.1136C196.698 24.1136 196.245 23.9976 195.864 23.7656C195.485 23.5312 195.193 23.2045 194.987 22.7855C194.783 22.3641 194.681 21.8741 194.681 21.3153C194.681 20.7566 194.783 20.2642 194.987 19.8381C195.193 19.4096 195.479 19.0758 195.846 18.8366C196.215 18.5952 196.646 18.4744 197.139 18.4744C197.423 18.4744 197.703 18.5218 197.98 18.6165C198.257 18.7112 198.509 18.8651 198.737 19.0781C198.964 19.2888 199.145 19.5682 199.28 19.9162C199.415 20.2642 199.482 20.6927 199.482 21.2017V21.5568H195.278V20.8324H198.63C198.63 20.5246 198.569 20.25 198.445 20.0085C198.325 19.767 198.152 19.5765 197.927 19.4368C197.704 19.2971 197.442 19.2273 197.139 19.2273C196.805 19.2273 196.516 19.3101 196.272 19.4759C196.031 19.6392 195.845 19.8523 195.715 20.1151C195.584 20.3778 195.519 20.6596 195.519 20.9602V21.4432C195.519 21.8551 195.59 22.2043 195.732 22.4908C195.877 22.7749 196.077 22.9915 196.333 23.1406C196.588 23.2874 196.885 23.3608 197.224 23.3608C197.444 23.3608 197.643 23.33 197.82 23.2685C198 23.2045 198.155 23.1098 198.286 22.9844C198.416 22.8565 198.517 22.6979 198.588 22.5085L199.397 22.7358C199.312 23.0104 199.169 23.2519 198.968 23.4602C198.766 23.6662 198.518 23.8272 198.222 23.9432C197.926 24.0568 197.593 24.1136 197.224 24.1136ZM200.757 24V18.5455H201.567V19.3977H201.638C201.752 19.1065 201.935 18.8804 202.188 18.7195C202.442 18.5561 202.746 18.4744 203.101 18.4744C203.461 18.4744 203.76 18.5561 203.999 18.7195C204.241 18.8804 204.429 19.1065 204.564 19.3977H204.621C204.761 19.116 204.97 18.8923 205.249 18.7266C205.529 18.5585 205.864 18.4744 206.254 18.4744C206.742 18.4744 207.141 18.6271 207.451 18.9325C207.761 19.2356 207.916 19.7079 207.916 20.3494V24H207.078V20.3494C207.078 19.947 206.968 19.6593 206.748 19.4865C206.528 19.3137 206.269 19.2273 205.97 19.2273C205.587 19.2273 205.29 19.3433 205.079 19.5753C204.868 19.8049 204.763 20.0961 204.763 20.4489V24H203.911V20.2642C203.911 19.9541 203.81 19.7043 203.609 19.5149C203.408 19.3232 203.148 19.2273 202.831 19.2273C202.613 19.2273 202.41 19.2853 202.22 19.4013C202.033 19.5173 201.882 19.6783 201.766 19.8842C201.652 20.0878 201.595 20.3234 201.595 20.5909V24H200.757ZM211.736 24.1136C211.21 24.1136 210.757 23.9976 210.376 23.7656C209.997 23.5312 209.704 23.2045 209.498 22.7855C209.295 22.3641 209.193 21.8741 209.193 21.3153C209.193 20.7566 209.295 20.2642 209.498 19.8381C209.704 19.4096 209.991 19.0758 210.358 18.8366C210.727 18.5952 211.158 18.4744 211.65 18.4744C211.934 18.4744 212.215 18.5218 212.492 18.6165C212.769 18.7112 213.021 18.8651 213.248 19.0781C213.476 19.2888 213.657 19.5682 213.792 19.9162C213.927 20.2642 213.994 20.6927 213.994 21.2017V21.5568H209.79V20.8324H213.142C213.142 20.5246 213.08 20.25 212.957 20.0085C212.836 19.767 212.664 19.5765 212.439 19.4368C212.216 19.2971 211.953 19.2273 211.65 19.2273C211.317 19.2273 211.028 19.3101 210.784 19.4759C210.542 19.6392 210.357 19.8523 210.226 20.1151C210.096 20.3778 210.031 20.6596 210.031 20.9602V21.4432C210.031 21.8551 210.102 22.2043 210.244 22.4908C210.389 22.7749 210.589 22.9915 210.844 23.1406C211.1 23.2874 211.397 23.3608 211.736 23.3608C211.956 23.3608 212.155 23.33 212.332 23.2685C212.512 23.2045 212.667 23.1098 212.797 22.9844C212.928 22.8565 213.028 22.6979 213.099 22.5085L213.909 22.7358C213.824 23.0104 213.68 23.2519 213.479 23.4602C213.278 23.6662 213.029 23.8272 212.733 23.9432C212.438 24.0568 212.105 24.1136 211.736 24.1136ZM218.195 24V16.7273H220.738C221.244 16.7273 221.662 16.8149 221.991 16.9901C222.32 17.1629 222.565 17.3961 222.726 17.6896C222.887 17.9808 222.968 18.304 222.968 18.6591C222.968 18.9716 222.912 19.2296 222.801 19.4332C222.692 19.6368 222.548 19.7978 222.368 19.9162C222.19 20.0346 221.997 20.1222 221.789 20.179V20.25C222.011 20.2642 222.235 20.3423 222.46 20.4844C222.685 20.6264 222.873 20.83 223.025 21.0952C223.176 21.3603 223.252 21.6847 223.252 22.0682C223.252 22.4328 223.169 22.7607 223.003 23.0518C222.838 23.343 222.576 23.5739 222.219 23.7443C221.861 23.9148 221.396 24 220.823 24H218.195ZM219.076 23.2188H220.823C221.398 23.2188 221.807 23.1075 222.048 22.8849C222.292 22.66 222.414 22.3878 222.414 22.0682C222.414 21.822 222.351 21.5947 222.226 21.3864C222.1 21.1757 221.921 21.0076 221.689 20.8821C221.457 20.7543 221.183 20.6903 220.866 20.6903H219.076V23.2188ZM219.076 19.9233H220.709C220.974 19.9233 221.214 19.8712 221.427 19.767C221.642 19.6629 221.813 19.5161 221.938 19.3267C222.066 19.1373 222.13 18.9148 222.13 18.6591C222.13 18.3395 222.019 18.0684 221.796 17.8459C221.573 17.621 221.221 17.5085 220.738 17.5085H219.076V19.9233Z" fill="black"/>
<path d="M21.179 101H20.2557L22.9261 93.7273H23.8352L26.5057 101H25.5824L23.4091 94.8778H23.3523L21.179 101ZM21.5199 98.1591H25.2415V98.9403H21.5199V98.1591ZM29.5845 101.114C29.13 101.114 28.7287 100.999 28.3807 100.769C28.0327 100.537 27.7604 100.21 27.5639 99.7891C27.3674 99.3653 27.2692 98.8646 27.2692 98.2869C27.2692 97.714 27.3674 97.2169 27.5639 96.7955C27.7604 96.3741 28.0339 96.0485 28.3842 95.8189C28.7346 95.5893 29.1394 95.4744 29.5987 95.4744C29.9538 95.4744 30.2344 95.5336 30.4403 95.652C30.6487 95.768 30.8073 95.9006 30.9162 96.0497C31.0275 96.1965 31.1139 96.3172 31.1754 96.4119H31.2464V93.7273H32.0845V101H31.2749V100.162H31.1754C31.1139 100.261 31.0263 100.387 30.9126 100.538C30.799 100.687 30.6368 100.821 30.4261 100.94C30.2154 101.056 29.9349 101.114 29.5845 101.114ZM29.6982 100.361C30.0343 100.361 30.3184 100.273 30.5504 100.098C30.7824 99.9205 30.9588 99.6754 31.0795 99.3629C31.2003 99.0481 31.2607 98.6847 31.2607 98.2727C31.2607 97.8655 31.2015 97.5092 31.0831 97.2038C30.9647 96.8961 30.7895 96.657 30.5575 96.4865C30.3255 96.3137 30.0391 96.2273 29.6982 96.2273C29.343 96.2273 29.0471 96.3184 28.8104 96.5007C28.576 96.6806 28.3996 96.9257 28.2812 97.2358C28.1652 97.5436 28.1072 97.8892 28.1072 98.2727C28.1072 98.661 28.1664 99.0137 28.2848 99.331C28.4055 99.6458 28.5831 99.8968 28.8175 100.084C29.0542 100.268 29.3478 100.361 29.6982 100.361ZM39.9858 98.7699V95.5455H40.8239V101H39.9858V100.077H39.929C39.8011 100.354 39.6023 100.589 39.3324 100.783C39.0625 100.975 38.7216 101.071 38.3097 101.071C37.9688 101.071 37.6657 100.996 37.4006 100.847C37.1354 100.696 36.9271 100.469 36.7756 100.165C36.6241 99.8601 36.5483 99.4754 36.5483 99.0114V95.5455H37.3864V98.9545C37.3864 99.3523 37.4976 99.6695 37.7202 99.9062C37.9451 100.143 38.2315 100.261 38.5795 100.261C38.7879 100.261 38.9998 100.208 39.2152 100.102C39.433 99.995 39.6153 99.8317 39.7621 99.6115C39.9112 99.3913 39.9858 99.1108 39.9858 98.7699ZM43.1969 97.7188V101H42.3588V95.5455H43.1685V96.3977H43.2395C43.3674 96.1207 43.5615 95.8982 43.8219 95.7301C44.0823 95.5597 44.4185 95.4744 44.8304 95.4744C45.1998 95.4744 45.5229 95.5502 45.7999 95.7017C46.0769 95.8509 46.2923 96.0781 46.4462 96.3835C46.6001 96.6866 46.677 97.0701 46.677 97.5341V101H45.839V97.5909C45.839 97.1624 45.7277 96.8286 45.5051 96.5895C45.2826 96.348 44.9772 96.2273 44.589 96.2273C44.3214 96.2273 44.0823 96.2853 43.8716 96.4013C43.6633 96.5173 43.4988 96.6866 43.378 96.9091C43.2573 97.1316 43.1969 97.4015 43.1969 97.7188ZM53.3079 101.114C52.7823 101.114 52.329 100.998 51.9478 100.766C51.569 100.531 51.2766 100.205 51.0707 99.7855C50.8671 99.3641 50.7653 98.8741 50.7653 98.3153C50.7653 97.7566 50.8671 97.2642 51.0707 96.8381C51.2766 96.4096 51.5631 96.0758 51.93 95.8366C52.2994 95.5952 52.7302 95.4744 53.2227 95.4744C53.5067 95.4744 53.7873 95.5218 54.0643 95.6165C54.3413 95.7112 54.5934 95.8651 54.8207 96.0781C55.0479 96.2888 55.229 96.5682 55.364 96.9162C55.4989 97.2642 55.5664 97.6927 55.5664 98.2017V98.5568H51.3619V97.8324H54.7141C54.7141 97.5246 54.6526 97.25 54.5295 97.0085C54.4087 96.767 54.2359 96.5765 54.011 96.4368C53.7885 96.2971 53.5257 96.2273 53.2227 96.2273C52.8888 96.2273 52.6 96.3101 52.3562 96.4759C52.1147 96.6392 51.9289 96.8523 51.7987 97.1151C51.6684 97.3778 51.6033 97.6596 51.6033 97.9602V98.4432C51.6033 98.8551 51.6744 99.2043 51.8164 99.4908C51.9608 99.7749 52.1609 99.9915 52.4165 100.141C52.6722 100.287 52.9693 100.361 53.3079 100.361C53.5281 100.361 53.7269 100.33 53.9045 100.268C54.0844 100.205 54.2395 100.11 54.3697 99.9844C54.4999 99.8565 54.6005 99.6979 54.6715 99.5085L55.4812 99.7358C55.396 100.01 55.2527 100.252 55.0515 100.46C54.8503 100.666 54.6017 100.827 54.3058 100.943C54.0098 101.057 53.6772 101.114 53.3079 101.114ZM57.6793 93.7273V101H56.8413V93.7273H57.6793ZM61.5012 101.114C60.9757 101.114 60.5223 100.998 60.1412 100.766C59.7624 100.531 59.47 100.205 59.264 99.7855C59.0604 99.3641 58.9586 98.8741 58.9586 98.3153C58.9586 97.7566 59.0604 97.2642 59.264 96.8381C59.47 96.4096 59.7565 96.0758 60.1234 95.8366C60.4927 95.5952 60.9236 95.4744 61.416 95.4744C61.7001 95.4744 61.9806 95.5218 62.2576 95.6165C62.5346 95.7112 62.7868 95.8651 63.014 96.0781C63.2413 96.2888 63.4224 96.5682 63.5574 96.9162C63.6923 97.2642 63.7598 97.6927 63.7598 98.2017V98.5568H59.5552V97.8324H62.9075C62.9075 97.5246 62.8459 97.25 62.7228 97.0085C62.6021 96.767 62.4293 96.5765 62.2044 96.4368C61.9818 96.2971 61.719 96.2273 61.416 96.2273C61.0822 96.2273 60.7934 96.3101 60.5495 96.4759C60.3081 96.6392 60.1222 96.8523 59.992 97.1151C59.8618 97.3778 59.7967 97.6596 59.7967 97.9602V98.4432C59.7967 98.8551 59.8677 99.2043 60.0098 99.4908C60.1542 99.7749 60.3542 99.9915 60.6099 100.141C60.8656 100.287 61.1627 100.361 61.5012 100.361C61.7214 100.361 61.9203 100.33 62.0978 100.268C62.2778 100.205 62.4328 100.11 62.563 99.9844C62.6932 99.8565 62.7939 99.6979 62.8649 99.5085L63.6745 99.7358C63.5893 100.01 63.4461 100.252 63.2449 100.46C63.0436 100.666 62.795 100.827 62.4991 100.943C62.2032 101.057 61.8706 101.114 61.5012 101.114ZM65.0346 101V95.5455H65.8443V96.3977H65.9153C66.0289 96.1065 66.2124 95.8804 66.4657 95.7195C66.719 95.5561 67.0233 95.4744 67.3784 95.4744C67.7382 95.4744 68.0377 95.5561 68.2768 95.7195C68.5183 95.8804 68.7065 96.1065 68.8414 96.3977H68.8983C69.0379 96.116 69.2475 95.8923 69.5268 95.7266C69.8062 95.5585 70.1412 95.4744 70.5318 95.4744C71.0195 95.4744 71.4184 95.6271 71.7285 95.9325C72.0386 96.2356 72.1937 96.7079 72.1937 97.3494V101H71.3556V97.3494C71.3556 96.947 71.2456 96.6593 71.0254 96.4865C70.8052 96.3137 70.546 96.2273 70.2477 96.2273C69.8642 96.2273 69.5671 96.3433 69.3564 96.5753C69.1457 96.8049 69.0403 97.0961 69.0403 97.4489V101H68.188V97.2642C68.188 96.9541 68.0874 96.7043 67.8862 96.5149C67.685 96.3232 67.4257 96.2273 67.1085 96.2273C66.8907 96.2273 66.6871 96.2853 66.4977 96.4013C66.3107 96.5173 66.1592 96.6783 66.0431 96.8842C65.9295 97.0878 65.8727 97.3234 65.8727 97.5909V101H65.0346ZM76.013 101.114C75.4874 101.114 75.034 100.998 74.6529 100.766C74.2741 100.531 73.9817 100.205 73.7757 99.7855C73.5721 99.3641 73.4703 98.8741 73.4703 98.3153C73.4703 97.7566 73.5721 97.2642 73.7757 96.8381C73.9817 96.4096 74.2682 96.0758 74.6351 95.8366C75.0044 95.5952 75.4353 95.4744 75.9277 95.4744C76.2118 95.4744 76.4924 95.5218 76.7694 95.6165C77.0463 95.7112 77.2985 95.8651 77.5257 96.0781C77.753 96.2888 77.9341 96.5682 78.0691 96.9162C78.204 97.2642 78.2715 97.6927 78.2715 98.2017V98.5568H74.0669V97.8324H77.4192C77.4192 97.5246 77.3577 97.25 77.2346 97.0085C77.1138 96.767 76.941 96.5765 76.7161 96.4368C76.4935 96.2971 76.2308 96.2273 75.9277 96.2273C75.5939 96.2273 75.3051 96.3101 75.0613 96.4759C74.8198 96.6392 74.6339 96.8523 74.5037 97.1151C74.3735 97.3778 74.3084 97.6596 74.3084 97.9602V98.4432C74.3084 98.8551 74.3794 99.2043 74.5215 99.4908C74.6659 99.7749 74.8659 99.9915 75.1216 100.141C75.3773 100.287 75.6744 100.361 76.013 100.361C76.2331 100.361 76.432 100.33 76.6096 100.268C76.7895 100.205 76.9445 100.11 77.0748 99.9844C77.205 99.8565 77.3056 99.6979 77.3766 99.5085L78.1863 99.7358C78.101 100.01 77.9578 100.252 77.7566 100.46C77.5553 100.666 77.3068 100.827 77.0108 100.943C76.7149 101.057 76.3823 101.114 76.013 101.114ZM80.3844 97.7188V101H79.5463V95.5455H80.356V96.3977H80.427C80.5549 96.1207 80.749 95.8982 81.0094 95.7301C81.2698 95.5597 81.606 95.4744 82.0179 95.4744C82.3873 95.4744 82.7104 95.5502 82.9874 95.7017C83.2644 95.8509 83.4798 96.0781 83.6337 96.3835C83.7876 96.6866 83.8645 97.0701 83.8645 97.5341V101H83.0265V97.5909C83.0265 97.1624 82.9152 96.8286 82.6926 96.5895C82.4701 96.348 82.1647 96.2273 81.7765 96.2273C81.5089 96.2273 81.2698 96.2853 81.0591 96.4013C80.8508 96.5173 80.6863 96.6866 80.5655 96.9091C80.4448 97.1316 80.3844 97.4015 80.3844 97.7188ZM87.7681 95.5455V96.2557H84.9414V95.5455H87.7681ZM85.7653 94.2386H86.6033V99.4375C86.6033 99.6742 86.6377 99.8518 86.7063 99.9702C86.7773 100.086 86.8673 100.164 86.9762 100.205C87.0875 100.242 87.2047 100.261 87.3278 100.261C87.4201 100.261 87.4959 100.257 87.555 100.247C87.6142 100.235 87.6616 100.226 87.6971 100.219L87.8675 100.972C87.8107 100.993 87.7314 101.014 87.6296 101.036C87.5278 101.059 87.3988 101.071 87.2425 101.071C87.0058 101.071 86.7738 101.02 86.5465 100.918C86.3216 100.817 86.1346 100.661 85.9854 100.453C85.8387 100.245 85.7653 99.982 85.7653 99.6648V94.2386ZM91.1861 101.114C90.6937 101.114 90.2616 100.996 89.8899 100.762C89.5206 100.528 89.2318 100.2 89.0234 99.7784C88.8175 99.357 88.7145 98.8646 88.7145 98.3011C88.7145 97.733 88.8175 97.237 89.0234 96.8132C89.2318 96.3894 89.5206 96.0604 89.8899 95.826C90.2616 95.5916 90.6937 95.4744 91.1861 95.4744C91.6785 95.4744 92.1094 95.5916 92.4787 95.826C92.8504 96.0604 93.1392 96.3894 93.3452 96.8132C93.5535 97.237 93.6577 97.733 93.6577 98.3011C93.6577 98.8646 93.5535 99.357 93.3452 99.7784C93.1392 100.2 92.8504 100.528 92.4787 100.762C92.1094 100.996 91.6785 101.114 91.1861 101.114ZM91.1861 100.361C91.5601 100.361 91.8679 100.265 92.1094 100.073C92.3509 99.8814 92.5296 99.6293 92.6456 99.3168C92.7616 99.0043 92.8196 98.6657 92.8196 98.3011C92.8196 97.9366 92.7616 97.5968 92.6456 97.282C92.5296 96.9671 92.3509 96.7126 92.1094 96.5185C91.8679 96.3243 91.5601 96.2273 91.1861 96.2273C90.812 96.2273 90.5043 96.3243 90.2628 96.5185C90.0213 96.7126 89.8426 96.9671 89.7266 97.282C89.6106 97.5968 89.5526 97.9366 89.5526 98.3011C89.5526 98.6657 89.6106 99.0043 89.7266 99.3168C89.8426 99.6293 90.0213 99.8814 90.2628 100.073C90.5043 100.265 90.812 100.361 91.1861 100.361ZM99.8091 101.114C99.3546 101.114 98.9533 100.999 98.6053 100.769C98.2573 100.537 97.985 100.21 97.7885 99.7891C97.592 99.3653 97.4938 98.8646 97.4938 98.2869C97.4938 97.714 97.592 97.2169 97.7885 96.7955C97.985 96.3741 98.2585 96.0485 98.6088 95.8189C98.9592 95.5893 99.3641 95.4744 99.8233 95.4744C100.178 95.4744 100.459 95.5336 100.665 95.652C100.873 95.768 101.032 95.9006 101.141 96.0497C101.252 96.1965 101.338 96.3172 101.4 96.4119H101.471V93.7273H102.309V101H101.499V100.162H101.4C101.338 100.261 101.251 100.387 101.137 100.538C101.024 100.687 100.861 100.821 100.651 100.94C100.44 101.056 100.16 101.114 99.8091 101.114ZM99.9228 100.361C100.259 100.361 100.543 100.273 100.775 100.098C101.007 99.9205 101.183 99.6754 101.304 99.3629C101.425 99.0481 101.485 98.6847 101.485 98.2727C101.485 97.8655 101.426 97.5092 101.308 97.2038C101.189 96.8961 101.014 96.657 100.782 96.4865C100.55 96.3137 100.264 96.2273 99.9228 96.2273C99.5676 96.2273 99.2717 96.3184 99.035 96.5007C98.8006 96.6806 98.6242 96.9257 98.5059 97.2358C98.3899 97.5436 98.3319 97.8892 98.3319 98.2727C98.3319 98.661 98.391 99.0137 98.5094 99.331C98.6301 99.6458 98.8077 99.8968 99.0421 100.084C99.2788 100.268 99.5724 100.361 99.9228 100.361ZM103.96 101V95.5455H104.798V101H103.96ZM104.387 94.6364C104.223 94.6364 104.082 94.5807 103.964 94.4695C103.848 94.3582 103.79 94.2244 103.79 94.0682C103.79 93.9119 103.848 93.7782 103.964 93.6669C104.082 93.5556 104.223 93.5 104.387 93.5C104.55 93.5 104.69 93.5556 104.806 93.6669C104.924 93.7782 104.983 93.9119 104.983 94.0682C104.983 94.2244 104.924 94.3582 104.806 94.4695C104.69 94.5807 104.55 94.6364 104.387 94.6364ZM109.558 101H108.635L111.305 93.7273H112.214L114.885 101H113.961L111.788 94.8778H111.731L109.558 101ZM109.899 98.1591H113.62V98.9403H109.899V98.1591ZM120.321 101.128C119.976 101.128 119.662 101.063 119.38 100.933C119.099 100.8 118.875 100.609 118.709 100.361C118.543 100.11 118.461 99.8068 118.461 99.4517C118.461 99.1392 118.522 98.8859 118.645 98.6918C118.768 98.4953 118.933 98.3414 119.139 98.2301C119.345 98.1188 119.572 98.036 119.821 97.9815C120.072 97.9247 120.324 97.8797 120.577 97.8466C120.908 97.804 121.177 97.772 121.383 97.7507C121.592 97.727 121.743 97.688 121.838 97.6335C121.935 97.5791 121.983 97.4844 121.983 97.3494V97.321C121.983 96.9706 121.887 96.6984 121.696 96.5043C121.506 96.3101 121.219 96.2131 120.833 96.2131C120.433 96.2131 120.119 96.3007 119.892 96.4759C119.664 96.651 119.505 96.8381 119.412 97.0369L118.617 96.7528C118.759 96.4214 118.948 96.1634 119.185 95.9787C119.424 95.7917 119.685 95.6615 119.966 95.5881C120.25 95.5123 120.53 95.4744 120.804 95.4744C120.98 95.4744 121.181 95.4957 121.408 95.5384C121.638 95.5786 121.859 95.6626 122.072 95.7905C122.288 95.9183 122.466 96.1113 122.608 96.3693C122.75 96.6274 122.821 96.973 122.821 97.4062V101H121.983V100.261H121.941C121.884 100.38 121.789 100.506 121.657 100.641C121.524 100.776 121.348 100.891 121.127 100.986C120.907 101.08 120.639 101.128 120.321 101.128ZM120.449 100.375C120.781 100.375 121.06 100.31 121.287 100.18C121.517 100.049 121.69 99.8814 121.806 99.6754C121.924 99.4695 121.983 99.2528 121.983 99.0256V98.2585C121.948 98.3011 121.87 98.3402 121.749 98.3757C121.631 98.4089 121.493 98.4384 121.337 98.4645C121.183 98.4882 121.033 98.5095 120.886 98.5284C120.742 98.545 120.624 98.5592 120.534 98.571C120.317 98.5994 120.113 98.6456 119.924 98.7095C119.737 98.7711 119.585 98.8646 119.469 98.9901C119.355 99.1132 119.299 99.2812 119.299 99.4943C119.299 99.7855 119.406 100.006 119.622 100.155C119.84 100.302 120.115 100.375 120.449 100.375ZM128.215 96.767L127.462 96.9801C127.414 96.8546 127.345 96.7327 127.252 96.6143C127.162 96.4936 127.039 96.3942 126.883 96.3161C126.727 96.2379 126.527 96.1989 126.283 96.1989C125.949 96.1989 125.671 96.2758 125.448 96.4297C125.228 96.5812 125.118 96.7741 125.118 97.0085C125.118 97.2169 125.194 97.3814 125.345 97.5021C125.497 97.6229 125.734 97.7235 126.056 97.804L126.865 98.0028C127.353 98.1212 127.716 98.3023 127.955 98.5462C128.195 98.7876 128.314 99.099 128.314 99.4801C128.314 99.7926 128.224 100.072 128.044 100.318C127.867 100.564 127.618 100.759 127.298 100.901C126.979 101.043 126.607 101.114 126.183 101.114C125.627 101.114 125.167 100.993 124.802 100.751C124.437 100.51 124.207 100.157 124.11 99.6932L124.905 99.4943C124.981 99.7879 125.124 100.008 125.335 100.155C125.548 100.302 125.826 100.375 126.169 100.375C126.56 100.375 126.87 100.292 127.1 100.126C127.332 99.9583 127.448 99.7571 127.448 99.5227C127.448 99.3333 127.381 99.1747 127.249 99.0469C127.116 98.9167 126.913 98.8196 126.638 98.7557L125.729 98.5426C125.229 98.4242 124.862 98.2408 124.628 97.9922C124.396 97.7412 124.28 97.4276 124.28 97.0511C124.28 96.7434 124.366 96.4711 124.539 96.2344C124.714 95.9976 124.952 95.8118 125.253 95.6768C125.556 95.5419 125.899 95.4744 126.283 95.4744C126.823 95.4744 127.246 95.5928 127.554 95.8295C127.864 96.0663 128.084 96.3788 128.215 96.767ZM133.439 96.767L132.686 96.9801C132.639 96.8546 132.569 96.7327 132.477 96.6143C132.387 96.4936 132.264 96.3942 132.108 96.3161C131.951 96.2379 131.751 96.1989 131.507 96.1989C131.174 96.1989 130.895 96.2758 130.673 96.4297C130.453 96.5812 130.343 96.7741 130.343 97.0085C130.343 97.2169 130.418 97.3814 130.57 97.5021C130.721 97.6229 130.958 97.7235 131.28 97.804L132.09 98.0028C132.578 98.1212 132.941 98.3023 133.18 98.5462C133.419 98.7876 133.539 99.099 133.539 99.4801C133.539 99.7926 133.449 100.072 133.269 100.318C133.091 100.564 132.843 100.759 132.523 100.901C132.203 101.043 131.832 101.114 131.408 101.114C130.852 101.114 130.391 100.993 130.027 100.751C129.662 100.51 129.431 100.157 129.334 99.6932L130.13 99.4943C130.205 99.7879 130.349 100.008 130.559 100.155C130.772 100.302 131.051 100.375 131.394 100.375C131.784 100.375 132.095 100.292 132.324 100.126C132.556 99.9583 132.672 99.7571 132.672 99.5227C132.672 99.3333 132.606 99.1747 132.473 99.0469C132.341 98.9167 132.137 98.8196 131.863 98.7557L130.953 98.5426C130.454 98.4242 130.087 98.2408 129.853 97.9922C129.621 97.7412 129.505 97.4276 129.505 97.0511C129.505 96.7434 129.591 96.4711 129.764 96.2344C129.939 95.9976 130.177 95.8118 130.478 95.6768C130.781 95.5419 131.124 95.4744 131.507 95.4744C132.047 95.4744 132.471 95.5928 132.779 95.8295C133.089 96.0663 133.309 96.3788 133.439 96.767ZM137.016 101.114C136.524 101.114 136.092 100.996 135.72 100.762C135.351 100.528 135.062 100.2 134.854 99.7784C134.648 99.357 134.545 98.8646 134.545 98.3011C134.545 97.733 134.648 97.237 134.854 96.8132C135.062 96.3894 135.351 96.0604 135.72 95.826C136.092 95.5916 136.524 95.4744 137.016 95.4744C137.509 95.4744 137.939 95.5916 138.309 95.826C138.68 96.0604 138.969 96.3894 139.175 96.8132C139.384 97.237 139.488 97.733 139.488 98.3011C139.488 98.8646 139.384 99.357 139.175 99.7784C138.969 100.2 138.68 100.528 138.309 100.762C137.939 100.996 137.509 101.114 137.016 101.114ZM137.016 100.361C137.39 100.361 137.698 100.265 137.939 100.073C138.181 99.8814 138.36 99.6293 138.476 99.3168C138.592 99.0043 138.65 98.6657 138.65 98.3011C138.65 97.9366 138.592 97.5968 138.476 97.282C138.36 96.9671 138.181 96.7126 137.939 96.5185C137.698 96.3243 137.39 96.2273 137.016 96.2273C136.642 96.2273 136.334 96.3243 136.093 96.5185C135.851 96.7126 135.673 96.9671 135.557 97.282C135.441 97.5968 135.383 97.9366 135.383 98.3011C135.383 98.6657 135.441 99.0043 135.557 99.3168C135.673 99.6293 135.851 99.8814 136.093 100.073C136.334 100.265 136.642 100.361 137.016 100.361ZM142.983 101.114C142.472 101.114 142.031 100.993 141.662 100.751C141.293 100.51 141.009 100.177 140.81 99.7536C140.611 99.3298 140.511 98.8456 140.511 98.3011C140.511 97.7472 140.613 97.2583 140.817 96.8345C141.023 96.4084 141.309 96.0758 141.676 95.8366C142.045 95.5952 142.476 95.4744 142.969 95.4744C143.352 95.4744 143.698 95.5455 144.006 95.6875C144.313 95.8295 144.566 96.0284 144.762 96.2841C144.959 96.5398 145.08 96.8381 145.128 97.179H144.29C144.226 96.9304 144.084 96.7102 143.864 96.5185C143.646 96.3243 143.352 96.2273 142.983 96.2273C142.656 96.2273 142.37 96.3125 142.124 96.483C141.88 96.651 141.689 96.889 141.552 97.1967C141.417 97.5021 141.349 97.8608 141.349 98.2727C141.349 98.6941 141.416 99.0611 141.548 99.3736C141.683 99.6861 141.873 99.9287 142.116 100.102C142.363 100.274 142.652 100.361 142.983 100.361C143.201 100.361 143.398 100.323 143.576 100.247C143.754 100.171 143.904 100.062 144.027 99.9205C144.15 99.7784 144.238 99.608 144.29 99.4091H145.128C145.08 99.7311 144.963 100.021 144.776 100.279C144.592 100.535 144.347 100.738 144.041 100.89C143.738 101.039 143.385 101.114 142.983 101.114ZM146.353 101V95.5455H147.191V101H146.353ZM146.779 94.6364C146.616 94.6364 146.475 94.5807 146.357 94.4695C146.241 94.3582 146.183 94.2244 146.183 94.0682C146.183 93.9119 146.241 93.7782 146.357 93.6669C146.475 93.5556 146.616 93.5 146.779 93.5C146.942 93.5 147.082 93.5556 147.198 93.6669C147.317 93.7782 147.376 93.9119 147.376 94.0682C147.376 94.2244 147.317 94.3582 147.198 94.4695C147.082 94.5807 146.942 94.6364 146.779 94.6364ZM150.331 101.128C149.985 101.128 149.672 101.063 149.39 100.933C149.108 100.8 148.885 100.609 148.719 100.361C148.553 100.11 148.47 99.8068 148.47 99.4517C148.47 99.1392 148.532 98.8859 148.655 98.6918C148.778 98.4953 148.943 98.3414 149.149 98.2301C149.355 98.1188 149.582 98.036 149.83 97.9815C150.081 97.9247 150.334 97.8797 150.587 97.8466C150.918 97.804 151.187 97.772 151.393 97.7507C151.601 97.727 151.753 97.688 151.847 97.6335C151.945 97.5791 151.993 97.4844 151.993 97.3494V97.321C151.993 96.9706 151.897 96.6984 151.705 96.5043C151.516 96.3101 151.228 96.2131 150.843 96.2131C150.442 96.2131 150.129 96.3007 149.901 96.4759C149.674 96.651 149.514 96.8381 149.422 97.0369L148.627 96.7528C148.769 96.4214 148.958 96.1634 149.195 95.9787C149.434 95.7917 149.694 95.6615 149.976 95.5881C150.26 95.5123 150.539 95.4744 150.814 95.4744C150.989 95.4744 151.191 95.4957 151.418 95.5384C151.647 95.5786 151.869 95.6626 152.082 95.7905C152.297 95.9183 152.476 96.1113 152.618 96.3693C152.76 96.6274 152.831 96.973 152.831 97.4062V101H151.993V100.261H151.95C151.894 100.38 151.799 100.506 151.666 100.641C151.534 100.776 151.357 100.891 151.137 100.986C150.917 101.08 150.648 101.128 150.331 101.128ZM150.459 100.375C150.79 100.375 151.07 100.31 151.297 100.18C151.527 100.049 151.7 99.8814 151.816 99.6754C151.934 99.4695 151.993 99.2528 151.993 99.0256V98.2585C151.958 98.3011 151.879 98.3402 151.759 98.3757C151.64 98.4089 151.503 98.4384 151.347 98.4645C151.193 98.4882 151.043 98.5095 150.896 98.5284C150.751 98.545 150.634 98.5592 150.544 98.571C150.326 98.5994 150.123 98.6456 149.933 98.7095C149.746 98.7711 149.595 98.8646 149.479 98.9901C149.365 99.1132 149.308 99.2812 149.308 99.4943C149.308 99.7855 149.416 100.006 149.632 100.155C149.849 100.302 150.125 100.375 150.459 100.375ZM154.361 101V95.5455H155.17V96.3977H155.241C155.355 96.1065 155.539 95.8804 155.792 95.7195C156.045 95.5561 156.349 95.4744 156.705 95.4744C157.064 95.4744 157.364 95.5561 157.603 95.7195C157.844 95.8804 158.033 96.1065 158.168 96.3977H158.224C158.364 96.116 158.574 95.8923 158.853 95.7266C159.132 95.5585 159.467 95.4744 159.858 95.4744C160.346 95.4744 160.745 95.6271 161.055 95.9325C161.365 96.2356 161.52 96.7079 161.52 97.3494V101H160.682V97.3494C160.682 96.947 160.572 96.6593 160.352 96.4865C160.131 96.3137 159.872 96.2273 159.574 96.2273C159.19 96.2273 158.893 96.3433 158.683 96.5753C158.472 96.8049 158.366 97.0961 158.366 97.4489V101H157.514V97.2642C157.514 96.9541 157.414 96.7043 157.212 96.5149C157.011 96.3232 156.752 96.2273 156.435 96.2273C156.217 96.2273 156.013 96.2853 155.824 96.4013C155.637 96.5173 155.485 96.6783 155.369 96.8842C155.256 97.0878 155.199 97.3234 155.199 97.5909V101H154.361ZM165.268 101.114C164.776 101.114 164.344 100.996 163.972 100.762C163.603 100.528 163.314 100.2 163.105 99.7784C162.9 99.357 162.797 98.8646 162.797 98.3011C162.797 97.733 162.9 97.237 163.105 96.8132C163.314 96.3894 163.603 96.0604 163.972 95.826C164.344 95.5916 164.776 95.4744 165.268 95.4744C165.761 95.4744 166.191 95.5916 166.561 95.826C166.932 96.0604 167.221 96.3894 167.427 96.8132C167.636 97.237 167.74 97.733 167.74 98.3011C167.74 98.8646 167.636 99.357 167.427 99.7784C167.221 100.2 166.932 100.528 166.561 100.762C166.191 100.996 165.761 101.114 165.268 101.114ZM165.268 100.361C165.642 100.361 165.95 100.265 166.191 100.073C166.433 99.8814 166.612 99.6293 166.728 99.3168C166.844 99.0043 166.902 98.6657 166.902 98.3011C166.902 97.9366 166.844 97.5968 166.728 97.282C166.612 96.9671 166.433 96.7126 166.191 96.5185C165.95 96.3243 165.642 96.2273 165.268 96.2273C164.894 96.2273 164.586 96.3243 164.345 96.5185C164.103 96.7126 163.925 96.9671 163.809 97.282C163.693 97.5968 163.635 97.9366 163.635 98.3011C163.635 98.6657 163.693 99.0043 163.809 99.3168C163.925 99.6293 164.103 99.8814 164.345 100.073C164.586 100.265 164.894 100.361 165.268 100.361ZM175.269 98.7699V95.5455H176.107V101H175.269V100.077H175.212C175.084 100.354 174.885 100.589 174.616 100.783C174.346 100.975 174.005 101.071 173.593 101.071C173.252 101.071 172.949 100.996 172.684 100.847C172.419 100.696 172.21 100.469 172.059 100.165C171.907 99.8601 171.831 99.4754 171.831 99.0114V95.5455H172.67V98.9545C172.67 99.3523 172.781 99.6695 173.003 99.9062C173.228 100.143 173.515 100.261 173.863 100.261C174.071 100.261 174.283 100.208 174.498 100.102C174.716 99.995 174.898 99.8317 175.045 99.6115C175.194 99.3913 175.269 99.1108 175.269 98.7699ZM178.48 97.7188V101H177.642V95.5455H178.452V96.3977H178.523C178.651 96.1207 178.845 95.8982 179.105 95.7301C179.366 95.5597 179.702 95.4744 180.114 95.4744C180.483 95.4744 180.806 95.5502 181.083 95.7017C181.36 95.8509 181.576 96.0781 181.729 96.3835C181.883 96.6866 181.96 97.0701 181.96 97.5341V101H181.122V97.5909C181.122 97.1624 181.011 96.8286 180.788 96.5895C180.566 96.348 180.26 96.2273 179.872 96.2273C179.605 96.2273 179.366 96.2853 179.155 96.4013C178.946 96.5173 178.782 96.6866 178.661 96.9091C178.54 97.1316 178.48 97.4015 178.48 97.7188ZM188.591 101.114C188.066 101.114 187.612 100.998 187.231 100.766C186.852 100.531 186.56 100.205 186.354 99.7855C186.15 99.3641 186.048 98.8741 186.048 98.3153C186.048 97.7566 186.15 97.2642 186.354 96.8381C186.56 96.4096 186.846 96.0758 187.213 95.8366C187.583 95.5952 188.013 95.4744 188.506 95.4744C188.79 95.4744 189.07 95.5218 189.347 95.6165C189.624 95.7112 189.877 95.8651 190.104 96.0781C190.331 96.2888 190.512 96.5682 190.647 96.9162C190.782 97.2642 190.85 97.6927 190.85 98.2017V98.5568H186.645V97.8324H189.997C189.997 97.5246 189.936 97.25 189.813 97.0085C189.692 96.767 189.519 96.5765 189.294 96.4368C189.072 96.2971 188.809 96.2273 188.506 96.2273C188.172 96.2273 187.883 96.3101 187.639 96.4759C187.398 96.6392 187.212 96.8523 187.082 97.1151C186.952 97.3778 186.887 97.6596 186.887 97.9602V98.4432C186.887 98.8551 186.958 99.2043 187.1 99.4908C187.244 99.7749 187.444 99.9915 187.7 100.141C187.955 100.287 188.253 100.361 188.591 100.361C188.811 100.361 189.01 100.33 189.188 100.268C189.368 100.205 189.523 100.11 189.653 99.9844C189.783 99.8565 189.884 99.6979 189.955 99.5085L190.764 99.7358C190.679 100.01 190.536 100.252 190.335 100.46C190.133 100.666 189.885 100.827 189.589 100.943C189.293 101.057 188.96 101.114 188.591 101.114ZM192.963 93.7273V101H192.124V93.7273H192.963ZM196.784 101.114C196.259 101.114 195.806 100.998 195.424 100.766C195.046 100.531 194.753 100.205 194.547 99.7855C194.344 99.3641 194.242 98.8741 194.242 98.3153C194.242 97.7566 194.344 97.2642 194.547 96.8381C194.753 96.4096 195.04 96.0758 195.407 95.8366C195.776 95.5952 196.207 95.4744 196.699 95.4744C196.983 95.4744 197.264 95.5218 197.541 95.6165C197.818 95.7112 198.07 95.8651 198.297 96.0781C198.525 96.2888 198.706 96.5682 198.841 96.9162C198.975 97.2642 199.043 97.6927 199.043 98.2017V98.5568H194.838V97.8324H198.191C198.191 97.5246 198.129 97.25 198.006 97.0085C197.885 96.767 197.712 96.5765 197.488 96.4368C197.265 96.2971 197.002 96.2273 196.699 96.2273C196.365 96.2273 196.077 96.3101 195.833 96.4759C195.591 96.6392 195.405 96.8523 195.275 97.1151C195.145 97.3778 195.08 97.6596 195.08 97.9602V98.4432C195.08 98.8551 195.151 99.2043 195.293 99.4908C195.437 99.7749 195.637 99.9915 195.893 100.141C196.149 100.287 196.446 100.361 196.784 100.361C197.005 100.361 197.203 100.33 197.381 100.268C197.561 100.205 197.716 100.11 197.846 99.9844C197.976 99.8565 198.077 99.6979 198.148 99.5085L198.958 99.7358C198.873 100.01 198.729 100.252 198.528 100.46C198.327 100.666 198.078 100.827 197.782 100.943C197.486 101.057 197.154 101.114 196.784 101.114ZM200.318 101V95.5455H201.127V96.3977H201.199C201.312 96.1065 201.496 95.8804 201.749 95.7195C202.002 95.5561 202.306 95.4744 202.662 95.4744C203.021 95.4744 203.321 95.5561 203.56 95.7195C203.801 95.8804 203.99 96.1065 204.125 96.3977H204.181C204.321 96.116 204.531 95.8923 204.81 95.7266C205.089 95.5585 205.424 95.4744 205.815 95.4744C206.303 95.4744 206.702 95.6271 207.012 95.9325C207.322 96.2356 207.477 96.7079 207.477 97.3494V101H206.639V97.3494C206.639 96.947 206.529 96.6593 206.309 96.4865C206.088 96.3137 205.829 96.2273 205.531 96.2273C205.147 96.2273 204.85 96.3433 204.64 96.5753C204.429 96.8049 204.324 97.0961 204.324 97.4489V101H203.471V97.2642C203.471 96.9541 203.371 96.7043 203.169 96.5149C202.968 96.3232 202.709 96.2273 202.392 96.2273C202.174 96.2273 201.97 96.2853 201.781 96.4013C201.594 96.5173 201.442 96.6783 201.326 96.8842C201.213 97.0878 201.156 97.3234 201.156 97.5909V101H200.318ZM211.296 101.114C210.771 101.114 210.317 100.998 209.936 100.766C209.557 100.531 209.265 100.205 209.059 99.7855C208.855 99.3641 208.754 98.8741 208.754 98.3153C208.754 97.7566 208.855 97.2642 209.059 96.8381C209.265 96.4096 209.551 96.0758 209.918 95.8366C210.288 95.5952 210.719 95.4744 211.211 95.4744C211.495 95.4744 211.776 95.5218 212.053 95.6165C212.33 95.7112 212.582 95.8651 212.809 96.0781C213.036 96.2888 213.217 96.5682 213.352 96.9162C213.487 97.2642 213.555 97.6927 213.555 98.2017V98.5568H209.35V97.8324H212.702C212.702 97.5246 212.641 97.25 212.518 97.0085C212.397 96.767 212.224 96.5765 211.999 96.4368C211.777 96.2971 211.514 96.2273 211.211 96.2273C210.877 96.2273 210.588 96.3101 210.344 96.4759C210.103 96.6392 209.917 96.8523 209.787 97.1151C209.657 97.3778 209.592 97.6596 209.592 97.9602V98.4432C209.592 98.8551 209.663 99.2043 209.805 99.4908C209.949 99.7749 210.149 99.9915 210.405 100.141C210.661 100.287 210.958 100.361 211.296 100.361C211.516 100.361 211.715 100.33 211.893 100.268C212.073 100.205 212.228 100.11 212.358 99.9844C212.488 99.8565 212.589 99.6979 212.66 99.5085L213.469 99.7358C213.384 100.01 213.241 100.252 213.04 100.46C212.839 100.666 212.59 100.827 212.294 100.943C211.998 101.057 211.665 101.114 211.296 101.114ZM215.668 97.7188V101H214.83V95.5455H215.639V96.3977H215.71C215.838 96.1207 216.032 95.8982 216.293 95.7301C216.553 95.5597 216.889 95.4744 217.301 95.4744C217.67 95.4744 217.994 95.5502 218.271 95.7017C218.548 95.8509 218.763 96.0781 218.917 96.3835C219.071 96.6866 219.148 97.0701 219.148 97.5341V101H218.31V97.5909C218.31 97.1624 218.198 96.8286 217.976 96.5895C217.753 96.348 217.448 96.2273 217.06 96.2273C216.792 96.2273 216.553 96.2853 216.342 96.4013C216.134 96.5173 215.969 96.6866 215.849 96.9091C215.728 97.1316 215.668 97.4015 215.668 97.7188ZM223.051 95.5455V96.2557H220.225V95.5455H223.051ZM221.048 94.2386H221.887V99.4375C221.887 99.6742 221.921 99.8518 221.99 99.9702C222.061 100.086 222.151 100.164 222.259 100.205C222.371 100.242 222.488 100.261 222.611 100.261C222.703 100.261 222.779 100.257 222.838 100.247C222.897 100.235 222.945 100.226 222.98 100.219L223.151 100.972C223.094 100.993 223.015 101.014 222.913 101.036C222.811 101.059 222.682 101.071 222.526 101.071C222.289 101.071 222.057 101.02 221.83 100.918C221.605 100.817 221.418 100.661 221.269 100.453C221.122 100.245 221.048 99.982 221.048 99.6648V94.2386ZM226.469 101.114C225.977 101.114 225.545 100.996 225.173 100.762C224.804 100.528 224.515 100.2 224.307 99.7784C224.101 99.357 223.998 98.8646 223.998 98.3011C223.998 97.733 224.101 97.237 224.307 96.8132C224.515 96.3894 224.804 96.0604 225.173 95.826C225.545 95.5916 225.977 95.4744 226.469 95.4744C226.962 95.4744 227.393 95.5916 227.762 95.826C228.134 96.0604 228.422 96.3894 228.628 96.8132C228.837 97.237 228.941 97.733 228.941 98.3011C228.941 98.8646 228.837 99.357 228.628 99.7784C228.422 100.2 228.134 100.528 227.762 100.762C227.393 100.996 226.962 101.114 226.469 101.114ZM226.469 100.361C226.843 100.361 227.151 100.265 227.393 100.073C227.634 99.8814 227.813 99.6293 227.929 99.3168C228.045 99.0043 228.103 98.6657 228.103 98.3011C228.103 97.9366 228.045 97.5968 227.929 97.282C227.813 96.9671 227.634 96.7126 227.393 96.5185C227.151 96.3243 226.843 96.2273 226.469 96.2273C226.095 96.2273 225.787 96.3243 225.546 96.5185C225.305 96.7126 225.126 96.9671 225.01 97.282C224.894 97.5968 224.836 97.9366 224.836 98.3011C224.836 98.6657 224.894 99.0043 225.01 99.3168C225.126 99.6293 225.305 99.8814 225.546 100.073C225.787 100.265 226.095 100.361 226.469 100.361ZM235.092 101.114C234.638 101.114 234.237 100.999 233.888 100.769C233.54 100.537 233.268 100.21 233.072 99.7891C232.875 99.3653 232.777 98.8646 232.777 98.2869C232.777 97.714 232.875 97.2169 233.072 96.7955C233.268 96.3741 233.542 96.0485 233.892 95.8189C234.242 95.5893 234.647 95.4744 235.107 95.4744C235.462 95.4744 235.742 95.5336 235.948 95.652C236.156 95.768 236.315 95.9006 236.424 96.0497C236.535 96.1965 236.622 96.3172 236.683 96.4119H236.754V93.7273H237.592V101H236.783V100.162H236.683C236.622 100.261 236.534 100.387 236.42 100.538C236.307 100.687 236.145 100.821 235.934 100.94C235.723 101.056 235.443 101.114 235.092 101.114ZM235.206 100.361C235.542 100.361 235.826 100.273 236.058 100.098C236.29 99.9205 236.467 99.6754 236.587 99.3629C236.708 99.0481 236.768 98.6847 236.768 98.2727C236.768 97.8655 236.709 97.5092 236.591 97.2038C236.473 96.8961 236.297 96.657 236.065 96.4865C235.833 96.3137 235.547 96.2273 235.206 96.2273C234.851 96.2273 234.555 96.3184 234.318 96.5007C234.084 96.6806 233.907 96.9257 233.789 97.2358C233.673 97.5436 233.615 97.8892 233.615 98.2727C233.615 98.661 233.674 99.0137 233.793 99.331C233.913 99.6458 234.091 99.8968 234.325 100.084C234.562 100.268 234.856 100.361 235.206 100.361ZM239.244 101V95.5455H240.082V101H239.244ZM239.67 94.6364C239.506 94.6364 239.366 94.5807 239.247 94.4695C239.131 94.3582 239.073 94.2244 239.073 94.0682C239.073 93.9119 239.131 93.7782 239.247 93.6669C239.366 93.5556 239.506 93.5 239.67 93.5C239.833 93.5 239.973 93.5556 240.089 93.6669C240.207 93.7782 240.266 93.9119 240.266 94.0682C240.266 94.2244 240.207 94.3582 240.089 94.4695C239.973 94.5807 239.833 94.6364 239.67 94.6364ZM244.543 101V93.7273H247.085C247.592 93.7273 248.01 93.8149 248.339 93.9901C248.668 94.1629 248.913 94.3961 249.074 94.6896C249.235 94.9808 249.316 95.304 249.316 95.6591C249.316 95.9716 249.26 96.2296 249.149 96.4332C249.04 96.6368 248.895 96.7978 248.715 96.9162C248.538 97.0346 248.345 97.1222 248.137 97.179V97.25C248.359 97.2642 248.583 97.3423 248.808 97.4844C249.033 97.6264 249.221 97.83 249.372 98.0952C249.524 98.3603 249.6 98.6847 249.6 99.0682C249.6 99.4328 249.517 99.7607 249.351 100.052C249.185 100.343 248.924 100.574 248.566 100.744C248.209 100.915 247.744 101 247.171 101H244.543ZM245.423 100.219H247.171C247.746 100.219 248.154 100.107 248.396 99.8849C248.64 99.66 248.762 99.3878 248.762 99.0682C248.762 98.822 248.699 98.5947 248.573 98.3864C248.448 98.1757 248.269 98.0076 248.037 97.8821C247.805 97.7543 247.53 97.6903 247.213 97.6903H245.423V100.219ZM245.423 96.9233H247.057C247.322 96.9233 247.561 96.8712 247.774 96.767C247.99 96.6629 248.16 96.5161 248.286 96.3267C248.414 96.1373 248.477 95.9148 248.477 95.6591C248.477 95.3395 248.366 95.0684 248.144 94.8459C247.921 94.621 247.568 94.5085 247.085 94.5085H245.423V96.9233Z" fill="black"/>
</svg>
