<svg width="310" height="117" viewBox="0 0 310 117" fill="none" xmlns="http://www.w3.org/2000/svg">
<path d="M0 68H310" stroke="black"/>
<path d="M51.4998 42C13.4998 51 21.4997 83 51.4997 93" stroke="black"/>
<path d="M231.5 43C269.5 52 261.5 84 231.5 94" stroke="black"/>
<path d="M97.5 52V84" stroke="black"/>
<path d="M161.5 51V83" stroke="black"/>
<path d="M39.9148 12H38.8068L42.0114 3.27273H43.1023L46.3068 12H45.1989L42.5909 4.65341H42.5227L39.9148 12ZM40.3239 8.59091H44.7898V9.52841H40.3239V8.59091Z" fill="black"/>
<path d="M97.3466 105.153C96.9318 105.153 96.5554 105.075 96.2173 104.919C95.8793 104.76 95.6108 104.531 95.4119 104.233C95.2131 103.932 95.1136 103.568 95.1136 103.142C95.1136 102.767 95.1875 102.463 95.3352 102.23C95.483 101.994 95.6804 101.81 95.9276 101.676C96.1747 101.543 96.4474 101.443 96.7457 101.378C97.0469 101.31 97.3494 101.256 97.6534 101.216C98.0511 101.165 98.3736 101.126 98.6207 101.101C98.8707 101.072 99.0526 101.026 99.1662 100.96C99.2827 100.895 99.3409 100.781 99.3409 100.619V100.585C99.3409 100.165 99.2259 99.8381 98.9957 99.6051C98.7685 99.3722 98.4233 99.2557 97.9602 99.2557C97.4801 99.2557 97.1037 99.3608 96.831 99.571C96.5582 99.7812 96.3665 100.006 96.2557 100.244L95.3011 99.9034C95.4716 99.5057 95.6989 99.196 95.983 98.9744C96.2699 98.75 96.5824 98.5937 96.9205 98.5057C97.2614 98.4148 97.5966 98.3693 97.9261 98.3693C98.1364 98.3693 98.3778 98.3949 98.6506 98.446C98.9261 98.4943 99.1918 98.5952 99.4474 98.7486C99.706 98.902 99.9205 99.1335 100.091 99.4432C100.261 99.7528 100.347 100.168 100.347 100.688V105H99.3409V104.114H99.2898C99.2216 104.256 99.108 104.408 98.9489 104.57C98.7898 104.732 98.5781 104.869 98.3139 104.983C98.0497 105.097 97.7273 105.153 97.3466 105.153ZM97.5 104.25C97.8977 104.25 98.233 104.172 98.5057 104.016C98.7813 103.859 98.9886 103.658 99.1278 103.411C99.2699 103.163 99.3409 102.903 99.3409 102.631V101.71C99.2983 101.761 99.2045 101.808 99.0597 101.851C98.9176 101.891 98.7528 101.926 98.5653 101.957C98.3807 101.986 98.2003 102.011 98.0241 102.034C97.8509 102.054 97.7102 102.071 97.6023 102.085C97.3409 102.119 97.0966 102.175 96.8693 102.251C96.6449 102.325 96.4631 102.437 96.3239 102.588C96.1875 102.736 96.1193 102.937 96.1193 103.193C96.1193 103.543 96.2486 103.807 96.5071 103.986C96.7685 104.162 97.0994 104.25 97.5 104.25Z" fill="black"/>
<path d="M132.557 39V30.2727H133.614V38.0625H137.67V39H132.557ZM146.295 34.1676V35.1051H142.477V34.1676H146.295ZM151.576 39V30.2727H156.843V31.2102H152.633V34.1591H156.571V35.0966H152.633V38.0625H156.912V39H151.576ZM158.612 41.4545V32.4545H159.583V33.4943H159.703C159.777 33.3807 159.879 33.2358 160.01 33.0597C160.143 32.8807 160.333 32.7216 160.581 32.5824C160.831 32.4403 161.169 32.3693 161.595 32.3693C162.146 32.3693 162.632 32.5071 163.052 32.7827C163.473 33.0582 163.801 33.4489 164.037 33.9545C164.272 34.4602 164.39 35.0568 164.39 35.7443C164.39 36.4375 164.272 37.0384 164.037 37.5469C163.801 38.0526 163.474 38.4446 163.056 38.723C162.639 38.9986 162.157 39.1364 161.612 39.1364C161.191 39.1364 160.855 39.0668 160.602 38.9276C160.349 38.7855 160.154 38.625 160.018 38.446C159.882 38.2642 159.777 38.1136 159.703 37.9943H159.618V41.4545H158.612ZM159.6 35.7273C159.6 36.2216 159.673 36.6577 159.818 37.0355C159.963 37.4105 160.174 37.7045 160.453 37.9176C160.731 38.1278 161.072 38.233 161.475 38.233C161.896 38.233 162.247 38.1222 162.528 37.9006C162.812 37.6761 163.025 37.375 163.167 36.9972C163.312 36.6165 163.385 36.1932 163.385 35.7273C163.385 35.267 163.314 34.8523 163.172 34.483C163.032 34.1108 162.821 33.8168 162.537 33.6009C162.255 33.3821 161.902 33.2727 161.475 33.2727C161.066 33.2727 160.723 33.3764 160.444 33.5838C160.166 33.7884 159.956 34.0753 159.814 34.4446C159.672 34.8111 159.6 35.2386 159.6 35.7273ZM170.561 33.9205L169.657 34.1761C169.6 34.0256 169.517 33.8793 169.406 33.7372C169.298 33.5923 169.15 33.473 168.963 33.3793C168.775 33.2855 168.535 33.2386 168.243 33.2386C167.842 33.2386 167.508 33.331 167.241 33.5156C166.977 33.6974 166.845 33.929 166.845 34.2102C166.845 34.4602 166.936 34.6577 167.118 34.8026C167.299 34.9474 167.583 35.0682 167.97 35.1648L168.941 35.4034C169.527 35.5455 169.963 35.7628 170.25 36.0554C170.537 36.3452 170.68 36.7187 170.68 37.1761C170.68 37.5511 170.572 37.8864 170.356 38.1818C170.143 38.4773 169.845 38.7102 169.461 38.8807C169.078 39.0511 168.632 39.1364 168.123 39.1364C167.456 39.1364 166.903 38.9915 166.466 38.7017C166.028 38.4119 165.751 37.9886 165.635 37.4318L166.589 37.1932C166.68 37.5455 166.852 37.8097 167.105 37.9858C167.36 38.1619 167.694 38.25 168.106 38.25C168.575 38.25 168.947 38.1506 169.223 37.9517C169.501 37.75 169.64 37.5085 169.64 37.2273C169.64 37 169.561 36.8097 169.402 36.6562C169.243 36.5 168.998 36.3835 168.669 36.3068L167.578 36.0511C166.978 35.9091 166.538 35.6889 166.257 35.3906C165.978 35.0895 165.839 34.7131 165.839 34.2614C165.839 33.892 165.943 33.5653 166.15 33.2812C166.36 32.9972 166.646 32.7741 167.007 32.6122C167.37 32.4503 167.782 32.3693 168.243 32.3693C168.89 32.3693 169.399 32.5114 169.768 32.7955C170.14 33.0795 170.404 33.4545 170.561 33.9205ZM172.194 39V32.4545H173.2V39H172.194ZM172.705 31.3636C172.509 31.3636 172.34 31.2969 172.198 31.1634C172.059 31.0298 171.989 30.8693 171.989 30.6818C171.989 30.4943 172.059 30.3338 172.198 30.2003C172.34 30.0668 172.509 30 172.705 30C172.901 30 173.069 30.0668 173.208 30.2003C173.35 30.3338 173.421 30.4943 173.421 30.6818C173.421 30.8693 173.35 31.0298 173.208 31.1634C173.069 31.2969 172.901 31.3636 172.705 31.3636ZM176.047 30.2727V39H175.042V30.2727H176.047ZM180.548 39.1364C179.957 39.1364 179.439 38.9957 178.993 38.7145C178.55 38.4332 178.203 38.0398 177.953 37.5341C177.706 37.0284 177.582 36.4375 177.582 35.7614C177.582 35.0795 177.706 34.4844 177.953 33.9759C178.203 33.4673 178.55 33.0724 178.993 32.7912C179.439 32.5099 179.957 32.3693 180.548 32.3693C181.139 32.3693 181.656 32.5099 182.099 32.7912C182.545 33.0724 182.892 33.4673 183.139 33.9759C183.389 34.4844 183.514 35.0795 183.514 35.7614C183.514 36.4375 183.389 37.0284 183.139 37.5341C182.892 38.0398 182.545 38.4332 182.099 38.7145C181.656 38.9957 181.139 39.1364 180.548 39.1364ZM180.548 38.233C180.997 38.233 181.366 38.1179 181.656 37.8878C181.946 37.6577 182.161 37.3551 182.3 36.9801C182.439 36.6051 182.509 36.1989 182.509 35.7614C182.509 35.3239 182.439 34.9162 182.3 34.5384C182.161 34.1605 181.946 33.8551 181.656 33.6222C181.366 33.3892 180.997 33.2727 180.548 33.2727C180.099 33.2727 179.73 33.3892 179.44 33.6222C179.151 33.8551 178.936 34.1605 178.797 34.5384C178.658 34.9162 178.588 35.3239 178.588 35.7614C178.588 36.1989 178.658 36.6051 178.797 36.9801C178.936 37.3551 179.151 37.6577 179.44 37.8878C179.73 38.1179 180.099 38.233 180.548 38.233ZM186.055 35.0625V39H185.049V32.4545H186.021V33.4773H186.106C186.26 33.1449 186.493 32.8778 186.805 32.6761C187.118 32.4716 187.521 32.3693 188.015 32.3693C188.458 32.3693 188.846 32.4602 189.179 32.642C189.511 32.821 189.77 33.0938 189.954 33.4602C190.139 33.8239 190.231 34.2841 190.231 34.8409V39H189.225V34.9091C189.225 34.3949 189.092 33.9943 188.825 33.7074C188.558 33.4176 188.191 33.2727 187.725 33.2727C187.404 33.2727 187.118 33.3423 186.865 33.4815C186.615 33.6207 186.417 33.8239 186.272 34.0909C186.127 34.358 186.055 34.6818 186.055 35.0625Z" fill="black"/>
<path d="M27.1705 96.4545L28.7386 99.1307L30.3068 96.4545H31.4659L29.3523 99.7273L31.4659 103H30.3068L28.7386 100.46L27.1705 103H26.0114L28.0909 99.7273L26.0114 96.4545H27.1705ZM35.9521 94.2727V103H34.8952V95.3807H34.8441L32.7134 96.7955V95.7216L34.8952 94.2727H35.9521Z" fill="black"/>
<path d="M252.17 99.4545L253.739 102.131L255.307 99.4545H256.466L254.352 102.727L256.466 106H255.307L253.739 103.46L252.17 106H251.011L253.091 102.727L251.011 99.4545H252.17ZM257.884 106V105.233L260.765 102.08C261.103 101.71 261.381 101.389 261.6 101.116C261.819 100.841 261.98 100.582 262.086 100.341C262.194 100.097 262.248 99.8409 262.248 99.5739C262.248 99.267 262.174 99.0014 262.026 98.777C261.881 98.5526 261.682 98.3793 261.429 98.2571C261.176 98.1349 260.892 98.0739 260.577 98.0739C260.242 98.0739 259.949 98.1435 259.699 98.2827C259.452 98.419 259.26 98.6108 259.124 98.858C258.99 99.1051 258.924 99.3949 258.924 99.7273H257.918C257.918 99.2159 258.036 98.767 258.272 98.3807C258.507 97.9943 258.828 97.6932 259.235 97.4773C259.644 97.2614 260.103 97.1534 260.611 97.1534C261.123 97.1534 261.576 97.2614 261.971 97.4773C262.365 97.6932 262.675 97.9844 262.9 98.3509C263.124 98.7173 263.236 99.125 263.236 99.5739C263.236 99.8949 263.178 100.209 263.061 100.516C262.948 100.82 262.749 101.159 262.465 101.534C262.184 101.906 261.793 102.361 261.293 102.898L259.333 104.994V105.062H263.39V106H257.884Z" fill="black"/>
<path d="M257.5 23V93.5" stroke="black"/>
<path d="M214.557 15V6.27273H215.614V14.0625H219.67V15H214.557ZM224.955 9.83523V8.91477H230.205V9.83523H224.955ZM224.955 12.358V11.4375H230.205V12.358H224.955ZM240.467 9.92045L239.564 10.1761C239.507 10.0256 239.423 9.87926 239.312 9.73722C239.204 9.59233 239.056 9.47301 238.869 9.37926C238.681 9.28551 238.441 9.23864 238.149 9.23864C237.748 9.23864 237.414 9.33097 237.147 9.51562C236.883 9.69744 236.751 9.92898 236.751 10.2102C236.751 10.4602 236.842 10.6577 237.024 10.8026C237.206 10.9474 237.49 11.0682 237.876 11.1648L238.848 11.4034C239.433 11.5455 239.869 11.7628 240.156 12.0554C240.443 12.3452 240.586 12.7187 240.586 13.1761C240.586 13.5511 240.478 13.8864 240.262 14.1818C240.049 14.4773 239.751 14.7102 239.368 14.8807C238.984 15.0511 238.538 15.1364 238.029 15.1364C237.362 15.1364 236.809 14.9915 236.372 14.7017C235.934 14.4119 235.657 13.9886 235.541 13.4318L236.495 13.1932C236.586 13.5455 236.758 13.8097 237.011 13.9858C237.267 14.1619 237.6 14.25 238.012 14.25C238.481 14.25 238.853 14.1506 239.129 13.9517C239.407 13.75 239.547 13.5085 239.547 13.2273C239.547 13 239.467 12.8097 239.308 12.6562C239.149 12.5 238.904 12.3835 238.575 12.3068L237.484 12.0511C236.885 11.9091 236.444 11.6889 236.163 11.3906C235.885 11.0895 235.745 10.7131 235.745 10.2614C235.745 9.89205 235.849 9.56534 236.056 9.28125C236.267 8.99716 236.552 8.77415 236.913 8.61222C237.277 8.45028 237.689 8.36932 238.149 8.36932C238.797 8.36932 239.305 8.51136 239.674 8.79545C240.047 9.07955 240.311 9.45455 240.467 9.92045ZM246.225 12.3239V8.45455H247.231V15H246.225V13.892H246.157C246.004 14.2244 245.765 14.5071 245.441 14.7401C245.117 14.9702 244.708 15.0852 244.214 15.0852C243.805 15.0852 243.441 14.9957 243.123 14.8168C242.805 14.6349 242.555 14.3622 242.373 13.9986C242.191 13.6321 242.1 13.1705 242.1 12.6136V8.45455H243.106V12.5455C243.106 13.0227 243.239 13.4034 243.506 13.6875C243.776 13.9716 244.12 14.1136 244.538 14.1136C244.788 14.1136 245.042 14.0497 245.3 13.9219C245.562 13.794 245.781 13.598 245.957 13.3338C246.136 13.0696 246.225 12.733 246.225 12.3239ZM249.073 17.4545V8.45455H250.044V9.49432H250.164C250.238 9.38068 250.34 9.2358 250.471 9.05966C250.604 8.88068 250.794 8.72159 251.042 8.58239C251.292 8.44034 251.63 8.36932 252.056 8.36932C252.607 8.36932 253.093 8.5071 253.513 8.78267C253.934 9.05824 254.262 9.44886 254.498 9.95455C254.733 10.4602 254.851 11.0568 254.851 11.7443C254.851 12.4375 254.733 13.0384 254.498 13.5469C254.262 14.0526 253.935 14.4446 253.517 14.723C253.1 14.9986 252.618 15.1364 252.073 15.1364C251.652 15.1364 251.316 15.0668 251.063 14.9276C250.81 14.7855 250.615 14.625 250.479 14.446C250.343 14.2642 250.238 14.1136 250.164 13.9943H250.078V17.4545H249.073ZM250.061 11.7273C250.061 12.2216 250.134 12.6577 250.279 13.0355C250.424 13.4105 250.635 13.7045 250.914 13.9176C251.192 14.1278 251.533 14.233 251.936 14.233C252.357 14.233 252.708 14.1222 252.989 13.9006C253.273 13.6761 253.486 13.375 253.628 12.9972C253.773 12.6165 253.846 12.1932 253.846 11.7273C253.846 11.267 253.775 10.8523 253.632 10.483C253.493 10.1108 253.282 9.81676 252.998 9.60085C252.716 9.3821 252.363 9.27273 251.936 9.27273C251.527 9.27273 251.184 9.37642 250.905 9.58381C250.627 9.78835 250.417 10.0753 250.275 10.4446C250.132 10.8111 250.061 11.2386 250.061 11.7273ZM256.743 11.3182C256.743 10.2443 256.882 9.2571 257.161 8.35653C257.442 7.45312 257.843 6.62216 258.363 5.86364H259.249C259.044 6.14489 258.853 6.49148 258.674 6.90341C258.498 7.3125 258.343 7.76278 258.209 8.25426C258.076 8.7429 257.971 9.24858 257.894 9.77131C257.82 10.294 257.783 10.8097 257.783 11.3182C257.783 11.9943 257.848 12.6804 257.979 13.3764C258.11 14.0724 258.286 14.7187 258.507 15.3153C258.729 15.9119 258.976 16.3977 259.249 16.7727H258.363C257.843 16.0142 257.442 15.1847 257.161 14.2841C256.882 13.3807 256.743 12.392 256.743 11.3182ZM261.227 15H260.119L263.324 6.27273H264.415L267.619 15H266.511L263.903 7.65341H263.835L261.227 15ZM261.636 11.5909H266.102V12.5284H261.636V11.5909ZM270.99 11.3182C270.99 12.392 270.849 13.3807 270.568 14.2841C270.29 15.1847 269.891 16.0142 269.371 16.7727H268.484C268.689 16.4915 268.879 16.1449 269.055 15.733C269.234 15.3239 269.391 14.875 269.524 14.3864C269.658 13.8949 269.761 13.3878 269.835 12.8651C269.912 12.3395 269.95 11.8239 269.95 11.3182C269.95 10.642 269.885 9.95597 269.754 9.25994C269.624 8.56392 269.447 7.91761 269.226 7.32102C269.004 6.72443 268.757 6.23864 268.484 5.86364H269.371C269.891 6.62216 270.29 7.45312 270.568 8.35653C270.849 9.2571 270.99 10.2443 270.99 11.3182ZM276.974 10.7898V9.86932H282.224V10.7898H276.974ZM276.974 13.3125V12.392H282.224V13.3125H276.974ZM288.6 8.45455L290.168 11.1307L291.737 8.45455H292.896L290.782 11.7273L292.896 15H291.737L290.168 12.4602L288.6 15H287.441L289.521 11.7273L287.441 8.45455H288.6ZM294.314 15V14.233L297.194 11.0795C297.532 10.7102 297.811 10.3892 298.029 10.1165C298.248 9.84091 298.41 9.58239 298.515 9.34091C298.623 9.09659 298.677 8.84091 298.677 8.57386C298.677 8.26705 298.603 8.00142 298.456 7.77699C298.311 7.55256 298.112 7.37926 297.859 7.2571C297.606 7.13494 297.322 7.07386 297.007 7.07386C296.672 7.07386 296.379 7.14347 296.129 7.28267C295.882 7.41903 295.69 7.6108 295.554 7.85795C295.42 8.10511 295.353 8.39489 295.353 8.72727H294.348C294.348 8.21591 294.466 7.76705 294.701 7.38068C294.937 6.99432 295.258 6.69318 295.664 6.47727C296.074 6.26136 296.532 6.15341 297.041 6.15341C297.552 6.15341 298.005 6.26136 298.4 6.47727C298.795 6.69318 299.105 6.98437 299.329 7.35085C299.554 7.71733 299.666 8.125 299.666 8.57386C299.666 8.89489 299.608 9.20881 299.491 9.51562C299.377 9.8196 299.179 10.1591 298.895 10.5341C298.613 10.9062 298.223 11.3608 297.723 11.8977L295.762 13.9943V14.0625H299.819V15H294.314Z" fill="black"/>
</svg>
