<svg width="310" height="117" viewBox="0 0 310 117" fill="none" xmlns="http://www.w3.org/2000/svg">
<path d="M294.854 58.3536C295.049 58.1583 295.049 57.8417 294.854 57.6464L291.672 54.4645C291.476 54.2692 291.16 54.2692 290.964 54.4645C290.769 54.6597 290.769 54.9763 290.964 55.1716L293.793 58L290.964 60.8284C290.769 61.0237 290.769 61.3403 290.964 61.5355C291.16 61.7308 291.476 61.7308 291.672 61.5355L294.854 58.3536ZM10 58.5H294.5V57.5H10V58.5Z" fill="black"/>
<path d="M58.5 46H50V69.5H58.5" stroke="black"/>
<path d="M102.5 46H93V69.5H102.5" stroke="black"/>
<circle cx="145" cy="58" r="2" fill="black"/>
<path d="M152 44.5C157 48.5 164 59.2 152 70" stroke="black"/>
<path d="M137.626 44.5C132.626 48.5 125.626 59.2 137.626 70" stroke="black"/>
<path d="M54.5485 77.4323C54.5485 77.018 54.5485 77 54.1882 77C53.7559 77.4863 52.8553 78.1528 51 78.1528V78.6752C51.4143 78.6752 52.3149 78.6752 53.3056 78.2068V87.5913C53.3056 88.2398 53.2516 88.4559 51.6665 88.4559H51.1081V88.9783C51.5944 88.9423 53.3416 88.9423 53.936 88.9423C54.5304 88.9423 56.2596 88.9423 56.746 88.9783V88.4559H56.1876C54.6025 88.4559 54.5485 88.2398 54.5485 87.5913V77.4323Z" fill="black"/>
<path d="M100.043 85.9522H99.6466C99.5926 86.2584 99.4485 87.2491 99.2683 87.5373C99.1422 87.6994 98.1155 87.6994 97.5752 87.6994H94.2429C94.7292 87.2851 95.828 86.1323 96.2963 85.7C99.0342 83.1783 100.043 82.2416 100.043 80.4584C100.043 78.387 98.4037 77 96.3143 77C94.2248 77 93 78.7832 93 80.3323C93 81.2509 93.7925 81.2509 93.8466 81.2509C94.2248 81.2509 94.6932 80.9808 94.6932 80.4044C94.6932 79.9 94.3509 79.5578 93.8466 79.5578C93.6845 79.5578 93.6484 79.5578 93.5944 79.5758C93.9366 78.3509 94.9093 77.5224 96.0801 77.5224C97.6112 77.5224 98.5478 78.8012 98.5478 80.4584C98.5478 81.9895 97.6652 83.3224 96.6385 84.4752L93 88.546V88.9783H99.5745L100.043 85.9522Z" fill="black"/>
<path d="M143.576 82.5118C143.27 82.5298 143.198 82.5478 143.198 82.7099C143.198 82.8901 143.288 82.8901 143.612 82.8901H144.44C145.971 82.8901 146.656 84.1509 146.656 85.8801C146.656 88.2398 145.431 88.8702 144.548 88.8702C143.684 88.8702 142.207 88.4559 141.684 87.2671C142.261 87.3572 142.783 87.0329 142.783 86.3845C142.783 85.8621 142.405 85.5019 141.901 85.5019C141.468 85.5019 141 85.7541 141 86.4385C141 88.0416 142.603 89.3565 144.602 89.3565C146.746 89.3565 148.331 87.7174 148.331 85.8982C148.331 84.241 146.998 82.9441 145.269 82.6379C146.836 82.1876 147.845 80.8727 147.845 79.4677C147.845 78.0447 146.368 77 144.621 77C142.819 77 141.486 78.0988 141.486 79.4137C141.486 80.1342 142.045 80.2783 142.315 80.2783C142.693 80.2783 143.125 80.0081 143.125 79.4677C143.125 78.8913 142.693 78.6391 142.297 78.6391C142.189 78.6391 142.153 78.6391 142.099 78.6571C142.783 77.4323 144.476 77.4323 144.566 77.4323C145.161 77.4323 146.332 77.7025 146.332 79.4677C146.332 79.8099 146.278 80.8186 145.755 81.5932C145.215 82.3857 144.602 82.4398 144.116 82.4578L143.576 82.5118Z" fill="black"/>
<path d="M73 52V63.5" stroke="black"/>
<path d="M68 50C63.4723 52.4359 57.1334 58.8462 68 65" stroke="black"/>
<path d="M78 50C82.5277 52.4359 88.8666 58.8462 78 65" stroke="black"/>
</svg>
