<svg width="608" height="325" viewBox="0 0 608 325" fill="none" xmlns="http://www.w3.org/2000/svg">
<path d="M29.7071 52.2929C29.3166 51.9024 28.6834 51.9024 28.2929 52.2929L21.9289 58.6569C21.5384 59.0474 21.5384 59.6805 21.9289 60.0711C22.3195 60.4616 22.9526 60.4616 23.3431 60.0711L29 54.4142L34.6569 60.0711C35.0474 60.4616 35.6805 60.4616 36.0711 60.0711C36.4616 59.6805 36.4616 59.0474 36.0711 58.6569L29.7071 52.2929ZM29 272H28V273H29V272ZM270.707 272.707C271.098 272.317 271.098 271.683 270.707 271.293L264.343 264.929C263.953 264.538 263.319 264.538 262.929 264.929C262.538 265.319 262.538 265.953 262.929 266.343L268.586 272L262.929 277.657C262.538 278.047 262.538 278.681 262.929 279.071C263.319 279.462 263.953 279.462 264.343 279.071L270.707 272.707ZM28 53V272H30V53H28ZM29 273H270V271H29V273Z" fill="black"/>
<path d="M341.707 52.2929C341.317 51.9024 340.683 51.9024 340.293 52.2929L333.929 58.6569C333.538 59.0474 333.538 59.6805 333.929 60.0711C334.319 60.4616 334.953 60.4616 335.343 60.0711L341 54.4142L346.657 60.0711C347.047 60.4616 347.681 60.4616 348.071 60.0711C348.462 59.6805 348.462 59.0474 348.071 58.6569L341.707 52.2929ZM341 272H340V273H341V272ZM582.707 272.707C583.098 272.317 583.098 271.683 582.707 271.293L576.343 264.929C575.953 264.538 575.319 264.538 574.929 264.929C574.538 265.319 574.538 265.953 574.929 266.343L580.586 272L574.929 277.657C574.538 278.047 574.538 278.681 574.929 279.071C575.319 279.462 575.953 279.462 576.343 279.071L582.707 272.707ZM340 53V272H342V53H340ZM341 273H582V271H341V273Z" fill="black"/>
<path d="M58.5 198.5C58.5 142 151 68.5 238 118" stroke="#FBBDBD" stroke-width="3"/>
<path d="M550.5 102C550.5 158.5 458 232 371 182.5" stroke="#FBBDBD" stroke-width="3"/>
<path d="M206.667 107C206.667 109.946 209.054 112.333 212 112.333C214.946 112.333 217.333 109.946 217.333 107C217.333 104.054 214.946 101.667 212 101.667C209.054 101.667 206.667 104.054 206.667 107ZM64.6667 162.5C64.6667 165.446 67.0545 167.833 70 167.833C72.9455 167.833 75.3333 165.446 75.3333 162.5C75.3333 159.554 72.9455 157.167 70 157.167C67.0545 157.167 64.6667 159.554 64.6667 162.5ZM211.636 106.069L69.636 161.569L70.364 163.431L212.364 107.931L211.636 106.069Z" fill="#A6DFFF"/>
<path d="M534.667 138C534.667 140.946 537.054 143.333 540 143.333C542.946 143.333 545.333 140.946 545.333 138C545.333 135.054 542.946 132.667 540 132.667C537.054 132.667 534.667 135.054 534.667 138ZM392.667 193.5C392.667 196.446 395.054 198.833 398 198.833C400.946 198.833 403.333 196.446 403.333 193.5C403.333 190.554 400.946 188.167 398 188.167C395.054 188.167 392.667 190.554 392.667 193.5ZM539.636 137.069L397.636 192.569L398.364 194.431L540.364 138.931L539.636 137.069Z" fill="#A6DFFF"/>
<path d="M120.099 292.5H118.778C118.7 292.12 118.564 291.786 118.368 291.499C118.176 291.211 117.942 290.969 117.665 290.774C117.392 290.575 117.088 290.426 116.754 290.327C116.42 290.227 116.072 290.178 115.71 290.178C115.05 290.178 114.451 290.344 113.915 290.678C113.382 291.012 112.958 291.504 112.642 292.154C112.33 292.804 112.173 293.601 112.173 294.545C112.173 295.49 112.33 296.287 112.642 296.937C112.958 297.587 113.382 298.079 113.915 298.413C114.451 298.746 115.05 298.913 115.71 298.913C116.072 298.913 116.42 298.864 116.754 298.764C117.088 298.665 117.392 298.517 117.665 298.322C117.942 298.123 118.176 297.88 118.368 297.592C118.564 297.301 118.7 296.967 118.778 296.591H120.099C120 297.148 119.819 297.647 119.556 298.088C119.293 298.528 118.967 298.903 118.576 299.212C118.185 299.517 117.747 299.75 117.26 299.909C116.777 300.069 116.261 300.149 115.71 300.149C114.78 300.149 113.952 299.922 113.228 299.467C112.504 299.013 111.934 298.366 111.518 297.528C111.103 296.69 110.895 295.696 110.895 294.545C110.895 293.395 111.103 292.401 111.518 291.562C111.934 290.724 112.504 290.078 113.228 289.624C113.952 289.169 114.78 288.942 115.71 288.942C116.261 288.942 116.777 289.022 117.26 289.181C117.747 289.341 118.185 289.576 118.576 289.885C118.967 290.19 119.293 290.563 119.556 291.003C119.819 291.44 120 291.939 120.099 292.5ZM125.388 300.17C124.649 300.17 124.001 299.995 123.443 299.643C122.889 299.292 122.456 298.8 122.144 298.168C121.835 297.536 121.68 296.797 121.68 295.952C121.68 295.099 121.835 294.355 122.144 293.72C122.456 293.084 122.889 292.591 123.443 292.239C124.001 291.887 124.649 291.712 125.388 291.712C126.126 291.712 126.772 291.887 127.326 292.239C127.884 292.591 128.317 293.084 128.626 293.72C128.939 294.355 129.095 295.099 129.095 295.952C129.095 296.797 128.939 297.536 128.626 298.168C128.317 298.8 127.884 299.292 127.326 299.643C126.772 299.995 126.126 300.17 125.388 300.17ZM125.388 299.041C125.949 299.041 126.41 298.897 126.772 298.61C127.135 298.322 127.403 297.944 127.577 297.475C127.751 297.006 127.838 296.499 127.838 295.952C127.838 295.405 127.751 294.895 127.577 294.423C127.403 293.951 127.135 293.569 126.772 293.278C126.41 292.987 125.949 292.841 125.388 292.841C124.826 292.841 124.365 292.987 124.003 293.278C123.64 293.569 123.372 293.951 123.198 294.423C123.024 294.895 122.937 295.405 122.937 295.952C122.937 296.499 123.024 297.006 123.198 297.475C123.372 297.944 123.64 298.322 124.003 298.61C124.365 298.897 124.826 299.041 125.388 299.041ZM132.271 295.078V300H131.014V291.818H132.228V293.097H132.335C132.527 292.681 132.818 292.347 133.208 292.095C133.599 291.839 134.103 291.712 134.721 291.712C135.275 291.712 135.76 291.825 136.175 292.053C136.591 292.276 136.914 292.617 137.145 293.075C137.376 293.53 137.491 294.105 137.491 294.801V300H136.234V294.886C136.234 294.244 136.067 293.743 135.733 293.384C135.4 293.022 134.941 292.841 134.359 292.841C133.958 292.841 133.599 292.928 133.283 293.102C132.971 293.276 132.724 293.53 132.543 293.864C132.362 294.197 132.271 294.602 132.271 295.078ZM143.112 300.17C142.345 300.17 141.685 299.989 141.131 299.627C140.577 299.265 140.15 298.766 139.852 298.13C139.554 297.495 139.405 296.768 139.405 295.952C139.405 295.121 139.557 294.387 139.863 293.752C140.172 293.113 140.601 292.614 141.152 292.255C141.706 291.893 142.352 291.712 143.091 291.712C143.666 291.712 144.185 291.818 144.646 292.031C145.108 292.244 145.486 292.543 145.781 292.926C146.076 293.31 146.258 293.757 146.329 294.268H145.072C144.976 293.896 144.763 293.565 144.433 293.278C144.106 292.987 143.666 292.841 143.112 292.841C142.622 292.841 142.192 292.969 141.823 293.224C141.457 293.477 141.171 293.833 140.965 294.295C140.763 294.753 140.662 295.291 140.662 295.909C140.662 296.541 140.761 297.092 140.96 297.56C141.163 298.029 141.447 298.393 141.812 298.652C142.182 298.912 142.615 299.041 143.112 299.041C143.439 299.041 143.735 298.984 144.002 298.871C144.268 298.757 144.494 298.594 144.678 298.381C144.863 298.168 144.994 297.912 145.072 297.614H146.329C146.258 298.097 146.083 298.532 145.802 298.919C145.525 299.302 145.158 299.608 144.699 299.835C144.245 300.059 143.716 300.17 143.112 300.17ZM150.575 300.192C150.056 300.192 149.586 300.094 149.163 299.899C148.741 299.7 148.405 299.414 148.157 299.041C147.908 298.665 147.784 298.21 147.784 297.678C147.784 297.209 147.876 296.829 148.061 296.538C148.245 296.243 148.492 296.012 148.801 295.845C149.11 295.678 149.451 295.554 149.824 295.472C150.2 295.387 150.578 295.32 150.958 295.27C151.456 295.206 151.859 295.158 152.168 295.126C152.48 295.091 152.707 295.032 152.849 294.95C152.995 294.869 153.068 294.727 153.068 294.524V294.482C153.068 293.956 152.924 293.548 152.636 293.256C152.352 292.965 151.921 292.82 151.342 292.82C150.742 292.82 150.271 292.951 149.93 293.214C149.589 293.477 149.35 293.757 149.211 294.055L148.018 293.629C148.231 293.132 148.515 292.745 148.87 292.468C149.229 292.187 149.62 291.992 150.042 291.882C150.468 291.768 150.887 291.712 151.299 291.712C151.562 291.712 151.864 291.744 152.205 291.808C152.549 291.868 152.881 291.994 153.201 292.186C153.524 292.377 153.792 292.667 154.005 293.054C154.218 293.441 154.325 293.96 154.325 294.609V300H153.068V298.892H153.004C152.919 299.07 152.777 299.26 152.578 299.462C152.379 299.664 152.114 299.837 151.784 299.979C151.454 300.121 151.051 300.192 150.575 300.192ZM150.767 299.062C151.264 299.062 151.683 298.965 152.024 298.77C152.368 298.574 152.627 298.322 152.801 298.013C152.979 297.704 153.068 297.379 153.068 297.038V295.888C153.014 295.952 152.897 296.01 152.716 296.064C152.539 296.113 152.333 296.158 152.098 296.197C151.867 296.232 151.642 296.264 151.422 296.293C151.205 296.317 151.029 296.339 150.894 296.357C150.568 296.399 150.262 296.468 149.978 296.564C149.698 296.657 149.47 296.797 149.296 296.985C149.126 297.17 149.041 297.422 149.041 297.741C149.041 298.178 149.202 298.509 149.525 298.732C149.852 298.952 150.266 299.062 150.767 299.062ZM163.017 291.818L159.991 300H158.713L155.687 291.818H157.051L159.309 298.338H159.395L161.653 291.818H163.017ZM166.835 300.192C166.316 300.192 165.846 300.094 165.423 299.899C165 299.7 164.665 299.414 164.416 299.041C164.168 298.665 164.043 298.21 164.043 297.678C164.043 297.209 164.136 296.829 164.32 296.538C164.505 296.243 164.752 296.012 165.061 295.845C165.37 295.678 165.711 295.554 166.084 295.472C166.46 295.387 166.838 295.32 167.218 295.27C167.715 295.206 168.118 295.158 168.427 295.126C168.74 295.091 168.967 295.032 169.109 294.95C169.255 294.869 169.328 294.727 169.328 294.524V294.482C169.328 293.956 169.184 293.548 168.896 293.256C168.612 292.965 168.18 292.82 167.602 292.82C167.002 292.82 166.531 292.951 166.19 293.214C165.849 293.477 165.609 293.757 165.471 294.055L164.278 293.629C164.491 293.132 164.775 292.745 165.13 292.468C165.489 292.187 165.879 291.992 166.302 291.882C166.728 291.768 167.147 291.712 167.559 291.712C167.822 291.712 168.124 291.744 168.465 291.808C168.809 291.868 169.141 291.994 169.461 292.186C169.784 292.377 170.052 292.667 170.265 293.054C170.478 293.441 170.585 293.96 170.585 294.609V300H169.328V298.892H169.264C169.178 299.07 169.036 299.26 168.837 299.462C168.639 299.664 168.374 299.837 168.044 299.979C167.714 300.121 167.31 300.192 166.835 300.192ZM167.026 299.062C167.524 299.062 167.943 298.965 168.283 298.77C168.628 298.574 168.887 298.322 169.061 298.013C169.239 297.704 169.328 297.379 169.328 297.038V295.888C169.274 295.952 169.157 296.01 168.976 296.064C168.798 296.113 168.592 296.158 168.358 296.197C168.127 296.232 167.902 296.264 167.682 296.293C167.465 296.317 167.289 296.339 167.154 296.357C166.828 296.399 166.522 296.468 166.238 296.564C165.957 296.657 165.73 296.797 165.556 296.985C165.386 297.17 165.301 297.422 165.301 297.741C165.301 298.178 165.462 298.509 165.785 298.732C166.112 298.952 166.526 299.062 167.026 299.062Z" fill="black"/>
<path d="M448.099 292.5H446.778C446.7 292.12 446.564 291.786 446.368 291.499C446.176 291.211 445.942 290.969 445.665 290.774C445.392 290.575 445.088 290.426 444.754 290.327C444.42 290.227 444.072 290.178 443.71 290.178C443.05 290.178 442.451 290.344 441.915 290.678C441.382 291.012 440.958 291.504 440.642 292.154C440.33 292.804 440.173 293.601 440.173 294.545C440.173 295.49 440.33 296.287 440.642 296.937C440.958 297.587 441.382 298.079 441.915 298.413C442.451 298.746 443.05 298.913 443.71 298.913C444.072 298.913 444.42 298.864 444.754 298.764C445.088 298.665 445.392 298.517 445.665 298.322C445.942 298.123 446.176 297.88 446.368 297.592C446.564 297.301 446.7 296.967 446.778 296.591H448.099C448 297.148 447.819 297.647 447.556 298.088C447.293 298.528 446.967 298.903 446.576 299.212C446.185 299.517 445.747 299.75 445.26 299.909C444.777 300.069 444.261 300.149 443.71 300.149C442.78 300.149 441.952 299.922 441.228 299.467C440.504 299.013 439.934 298.366 439.518 297.528C439.103 296.69 438.895 295.696 438.895 294.545C438.895 293.395 439.103 292.401 439.518 291.562C439.934 290.724 440.504 290.078 441.228 289.624C441.952 289.169 442.78 288.942 443.71 288.942C444.261 288.942 444.777 289.022 445.26 289.181C445.747 289.341 446.185 289.576 446.576 289.885C446.967 290.19 447.293 290.563 447.556 291.003C447.819 291.44 448 291.939 448.099 292.5ZM453.388 300.17C452.649 300.17 452.001 299.995 451.443 299.643C450.889 299.292 450.456 298.8 450.144 298.168C449.835 297.536 449.68 296.797 449.68 295.952C449.68 295.099 449.835 294.355 450.144 293.72C450.456 293.084 450.889 292.591 451.443 292.239C452.001 291.887 452.649 291.712 453.388 291.712C454.126 291.712 454.772 291.887 455.326 292.239C455.884 292.591 456.317 293.084 456.626 293.72C456.939 294.355 457.095 295.099 457.095 295.952C457.095 296.797 456.939 297.536 456.626 298.168C456.317 298.8 455.884 299.292 455.326 299.643C454.772 299.995 454.126 300.17 453.388 300.17ZM453.388 299.041C453.949 299.041 454.41 298.897 454.772 298.61C455.135 298.322 455.403 297.944 455.577 297.475C455.751 297.006 455.838 296.499 455.838 295.952C455.838 295.405 455.751 294.895 455.577 294.423C455.403 293.951 455.135 293.569 454.772 293.278C454.41 292.987 453.949 292.841 453.388 292.841C452.826 292.841 452.365 292.987 452.003 293.278C451.64 293.569 451.372 293.951 451.198 294.423C451.024 294.895 450.937 295.405 450.937 295.952C450.937 296.499 451.024 297.006 451.198 297.475C451.372 297.944 451.64 298.322 452.003 298.61C452.365 298.897 452.826 299.041 453.388 299.041ZM460.271 295.078V300H459.014V291.818H460.228V293.097H460.335C460.527 292.681 460.818 292.347 461.208 292.095C461.599 291.839 462.103 291.712 462.721 291.712C463.275 291.712 463.76 291.825 464.175 292.053C464.591 292.276 464.914 292.617 465.145 293.075C465.376 293.53 465.491 294.105 465.491 294.801V300H464.234V294.886C464.234 294.244 464.067 293.743 463.733 293.384C463.4 293.022 462.941 292.841 462.359 292.841C461.958 292.841 461.599 292.928 461.283 293.102C460.971 293.276 460.724 293.53 460.543 293.864C460.362 294.197 460.271 294.602 460.271 295.078ZM474.186 291.818L471.16 300H469.882L466.856 291.818H468.22L470.478 298.338H470.563L472.822 291.818H474.186ZM478.982 300.17C478.194 300.17 477.514 299.996 476.942 299.648C476.374 299.297 475.935 298.807 475.627 298.178C475.321 297.546 475.168 296.811 475.168 295.973C475.168 295.135 475.321 294.396 475.627 293.757C475.935 293.114 476.365 292.614 476.916 292.255C477.47 291.893 478.116 291.712 478.854 291.712C479.281 291.712 479.701 291.783 480.117 291.925C480.532 292.067 480.911 292.298 481.252 292.617C481.592 292.933 481.864 293.352 482.066 293.874C482.269 294.396 482.37 295.039 482.37 295.803V296.335H476.063V295.249H481.092C481.092 294.787 480.999 294.375 480.815 294.013C480.634 293.651 480.374 293.365 480.037 293.155C479.703 292.946 479.309 292.841 478.854 292.841C478.354 292.841 477.921 292.965 477.555 293.214C477.193 293.459 476.914 293.778 476.718 294.173C476.523 294.567 476.426 294.989 476.426 295.44V296.165C476.426 296.783 476.532 297.306 476.745 297.736C476.962 298.162 477.262 298.487 477.645 298.711C478.029 298.931 478.475 299.041 478.982 299.041C479.313 299.041 479.611 298.995 479.877 298.903C480.147 298.807 480.38 298.665 480.575 298.477C480.77 298.285 480.921 298.047 481.028 297.763L482.242 298.104C482.114 298.516 481.9 298.878 481.598 299.19C481.296 299.499 480.923 299.741 480.479 299.915C480.035 300.085 479.536 300.17 478.982 300.17ZM490.078 293.651L488.949 293.97C488.878 293.782 488.773 293.599 488.634 293.422C488.499 293.24 488.315 293.091 488.08 292.974C487.846 292.857 487.546 292.798 487.18 292.798C486.679 292.798 486.262 292.914 485.928 293.145C485.598 293.372 485.433 293.661 485.433 294.013C485.433 294.325 485.547 294.572 485.774 294.753C486.001 294.934 486.356 295.085 486.839 295.206L488.054 295.504C488.785 295.682 489.33 295.953 489.689 296.319C490.048 296.681 490.227 297.148 490.227 297.72C490.227 298.189 490.092 298.608 489.822 298.977C489.556 299.347 489.183 299.638 488.704 299.851C488.224 300.064 487.667 300.17 487.031 300.17C486.196 300.17 485.506 299.989 484.959 299.627C484.412 299.265 484.066 298.736 483.92 298.04L485.113 297.741C485.227 298.182 485.442 298.512 485.758 298.732C486.078 298.952 486.495 299.062 487.01 299.062C487.596 299.062 488.061 298.938 488.405 298.69C488.753 298.437 488.927 298.136 488.927 297.784C488.927 297.5 488.828 297.262 488.629 297.07C488.43 296.875 488.125 296.729 487.713 296.634L486.349 296.314C485.6 296.136 485.049 295.861 484.698 295.488C484.35 295.112 484.176 294.641 484.176 294.077C484.176 293.615 484.305 293.207 484.565 292.852C484.828 292.496 485.184 292.218 485.635 292.015C486.09 291.813 486.605 291.712 487.18 291.712C487.99 291.712 488.625 291.889 489.087 292.244C489.552 292.599 489.883 293.068 490.078 293.651ZM497.915 293.651L496.786 293.97C496.714 293.782 496.61 293.599 496.471 293.422C496.336 293.24 496.152 293.091 495.917 292.974C495.683 292.857 495.383 292.798 495.017 292.798C494.516 292.798 494.099 292.914 493.765 293.145C493.435 293.372 493.27 293.661 493.27 294.013C493.27 294.325 493.384 294.572 493.611 294.753C493.838 294.934 494.193 295.085 494.676 295.206L495.891 295.504C496.622 295.682 497.167 295.953 497.526 296.319C497.885 296.681 498.064 297.148 498.064 297.72C498.064 298.189 497.929 298.608 497.659 298.977C497.393 299.347 497.02 299.638 496.54 299.851C496.061 300.064 495.504 300.17 494.868 300.17C494.033 300.17 493.343 299.989 492.796 299.627C492.249 299.265 491.903 298.736 491.757 298.04L492.95 297.741C493.064 298.182 493.279 298.512 493.595 298.732C493.914 298.952 494.332 299.062 494.847 299.062C495.433 299.062 495.898 298.938 496.242 298.69C496.59 298.437 496.764 298.136 496.764 297.784C496.764 297.5 496.665 297.262 496.466 297.07C496.267 296.875 495.962 296.729 495.55 296.634L494.186 296.314C493.437 296.136 492.886 295.861 492.535 295.488C492.187 295.112 492.013 294.641 492.013 294.077C492.013 293.615 492.142 293.207 492.402 292.852C492.664 292.496 493.021 292.218 493.472 292.015C493.927 291.813 494.442 291.712 495.017 291.712C495.827 291.712 496.462 291.889 496.924 292.244C497.389 292.599 497.719 293.068 497.915 293.651ZM502.364 300.192C501.845 300.192 501.375 300.094 500.952 299.899C500.53 299.7 500.194 299.414 499.946 299.041C499.697 298.665 499.573 298.21 499.573 297.678C499.573 297.209 499.665 296.829 499.85 296.538C500.034 296.243 500.281 296.012 500.59 295.845C500.899 295.678 501.24 295.554 501.613 295.472C501.989 295.387 502.367 295.32 502.747 295.27C503.245 295.206 503.648 295.158 503.957 295.126C504.269 295.091 504.496 295.032 504.638 294.95C504.784 294.869 504.857 294.727 504.857 294.524V294.482C504.857 293.956 504.713 293.548 504.425 293.256C504.141 292.965 503.71 292.82 503.131 292.82C502.531 292.82 502.06 292.951 501.719 293.214C501.378 293.477 501.139 293.757 501 294.055L499.807 293.629C500.02 293.132 500.304 292.745 500.659 292.468C501.018 292.187 501.409 291.992 501.831 291.882C502.257 291.768 502.676 291.712 503.088 291.712C503.351 291.712 503.653 291.744 503.994 291.808C504.338 291.868 504.67 291.994 504.99 292.186C505.313 292.377 505.581 292.667 505.794 293.054C506.007 293.441 506.114 293.96 506.114 294.609V300H504.857V298.892H504.793C504.708 299.07 504.566 299.26 504.367 299.462C504.168 299.664 503.903 299.837 503.573 299.979C503.243 300.121 502.84 300.192 502.364 300.192ZM502.556 299.062C503.053 299.062 503.472 298.965 503.813 298.77C504.157 298.574 504.416 298.322 504.59 298.013C504.768 297.704 504.857 297.379 504.857 297.038V295.888C504.804 295.952 504.686 296.01 504.505 296.064C504.328 296.113 504.122 296.158 503.887 296.197C503.657 296.232 503.431 296.264 503.211 296.293C502.994 296.317 502.818 296.339 502.684 296.357C502.357 296.399 502.051 296.468 501.767 296.564C501.487 296.657 501.259 296.797 501.085 296.985C500.915 297.17 500.83 297.422 500.83 297.741C500.83 298.178 500.991 298.509 501.315 298.732C501.641 298.952 502.055 299.062 502.556 299.062Z" fill="black"/>
</svg>
