<svg width="443" height="325" viewBox="0 0 443 325" fill="none" xmlns="http://www.w3.org/2000/svg">
<path d="M110 266C150.5 228.333 242.6 151.2 287 144" stroke="#FBBDBD" stroke-width="2"/>
<path d="M110.707 18.2929C110.317 17.9024 109.683 17.9024 109.293 18.2929L102.929 24.6569C102.538 25.0474 102.538 25.6805 102.929 26.0711C103.319 26.4616 103.953 26.4616 104.343 26.0711L110 20.4142L115.657 26.0711C116.047 26.4616 116.681 26.4616 117.071 26.0711C117.462 25.6805 117.462 25.0474 117.071 24.6569L110.707 18.2929ZM110 266H109V267H110V266ZM379.207 266.707C379.598 266.317 379.598 265.683 379.207 265.293L372.843 258.929C372.453 258.538 371.819 258.538 371.429 258.929C371.038 259.319 371.038 259.953 371.429 260.343L377.086 266L371.429 271.657C371.038 272.047 371.038 272.681 371.429 273.071C371.819 273.462 372.453 273.462 372.843 273.071L379.207 266.707ZM109 19V266H111V19H109ZM110 267H378.5V265H110V267Z" fill="black"/>
<path d="M97.3068 31.0455C97.1648 31.0455 97.0381 31.0336 96.9268 31.0099C96.8156 30.9886 96.7386 30.9673 96.696 30.946L96.9091 30.2074C97.1127 30.2595 97.2926 30.2784 97.4489 30.2642C97.6051 30.25 97.7436 30.1802 97.8643 30.0547C97.9875 29.9316 98.0999 29.7315 98.2017 29.4545L98.358 29.0284L96.3409 23.5455H97.25L98.7557 27.892H98.8125L100.318 23.5455H101.227L98.9119 29.7955C98.8078 30.0772 98.6787 30.3104 98.5249 30.495C98.371 30.6821 98.1922 30.8205 97.9886 30.9105C97.7874 31.0005 97.5601 31.0455 97.3068 31.0455Z" fill="black"/>
<path d="M367.392 277.545L368.699 279.776L370.006 277.545H370.972L369.21 280.273L370.972 283H370.006L368.699 280.884L367.392 283H366.426L368.159 280.273L366.426 277.545H367.392Z" fill="black"/>
</svg>
