<svg width="443" height="325" viewBox="0 0 443 325" fill="none" xmlns="http://www.w3.org/2000/svg">
<path d="M222.354 16.6464C222.158 16.4512 221.842 16.4512 221.646 16.6464L218.464 19.8284C218.269 20.0237 218.269 20.3403 218.464 20.5355C218.66 20.7308 218.976 20.7308 219.172 20.5355L222 17.7071L224.828 20.5355C225.024 20.7308 225.34 20.7308 225.536 20.5355C225.731 20.3403 225.731 20.0237 225.536 19.8284L222.354 16.6464ZM221.5 17V298H222.5V17H221.5Z" fill="black"/>
<path d="M394.854 157.354C395.049 157.158 395.049 156.842 394.854 156.646L391.672 153.464C391.476 153.269 391.16 153.269 390.964 153.464C390.769 153.66 390.769 153.976 390.964 154.172L393.793 157L390.964 159.828C390.769 160.024 390.769 160.34 390.964 160.536C391.16 160.731 391.476 160.731 391.672 160.536L394.854 157.354ZM50 157.5H394.5V156.5H50V157.5Z" fill="black"/>
<path d="M174 57C190.833 132.167 229 237.5 269.5 57" stroke="#FBBDBD"/>
<path d="M114 248H320.5" stroke="#A6DFFF"/>
<path d="M114 133H320.5" stroke="#A6DFFF"/>
</svg>
